<svg width="24" height="24" viewBox="0 0 24 24" fill="currentColor" xmlns="http://www.w3.org/2000/svg">
<path d="M19.7188 11.875H16.75V9.5C16.75 8.20117 17.7891 7.125 19.125 7.125H19.4219C19.9043 7.125 20.3125 6.75391 20.3125 6.23438V4.45312C20.3125 3.9707 19.9043 3.5625 19.4219 3.5625H19.125C15.8223 3.5625 13.1875 6.23438 13.1875 9.5V18.4062C13.1875 19.4082 13.9668 20.1875 14.9688 20.1875H19.7188C20.6836 20.1875 21.5 19.4082 21.5 18.4062V13.6562C21.5 12.6914 20.6836 11.875 19.7188 11.875ZM9.03125 11.875H6.0625V9.5C6.0625 8.20117 7.10156 7.125 8.4375 7.125H8.73438C9.2168 7.125 9.625 6.75391 9.625 6.23438V4.45312C9.625 3.9707 9.2168 3.5625 8.73438 3.5625H8.4375C5.13477 3.5625 2.5 6.23438 2.5 9.5V18.4062C2.5 19.4082 3.2793 20.1875 4.28125 20.1875H9.03125C9.99609 20.1875 10.8125 19.4082 10.8125 18.4062V13.6562C10.8125 12.6914 9.99609 11.875 9.03125 11.875Z" fill="currentColor"/>
</svg>
