<svg role="img" width="352" height="256" viewBox="0 0 352 256" fill="none" xmlns="http://www.w3.org/2000/svg">
<title>Fallback</title>
<path d="M27 229V27H325V229H27Z" stroke="#C8C8C8" stroke-width="6"/>
<rect x="257.989" y="55" width="8" height="219" transform="rotate(52.6054 257.989 55)" fill="#C8C8C8"/>
<path fill-rule="evenodd" clip-rule="evenodd" d="M237 81.114L237 81L115 81L115 174.372L124.703 166.955L120.545 166.955L120.545 155.864L131.636 155.864L131.636 161.655L157.977 141.52L157.977 103.182L186.87 119.434L220.364 93.831L220.364 89.3182L226.267 89.3182L237 81.114ZM224.931 100.409L231.455 100.409L231.455 95.4226L237 91.1836L237 175.273L126.994 175.273L157.977 151.589L157.977 153.091L202.341 128.136L194.459 123.703L224.931 100.409ZM131.636 89.3182L120.545 89.3182L120.545 100.409L131.636 100.409L131.636 89.3182ZM120.545 111.5L131.636 111.5L131.636 122.591L120.545 122.591L120.545 111.5ZM131.636 133.682L120.545 133.682L120.545 144.773L131.636 144.773L131.636 133.682ZM220.364 111.5L231.454 111.5L231.454 122.591L220.364 122.591L220.364 111.5ZM231.455 133.682L220.364 133.682L220.364 144.773L231.455 144.773L231.455 133.682ZM220.364 155.864L231.455 155.864L231.454 166.955L220.364 166.955L220.364 155.864Z" fill="#C8C8C8"/>
</svg>
