<svg width="24" height="24" viewBox="0 0 24 24" fill="none" xmlns="http://www.w3.org/2000/svg">
<path d="M0 3H24V21H0V3Z" fill="#000066"/>
<path d="M0 3V4.05L11.5125 12.375H12.9637V11.325L1.45125 3H0ZM12.9637 3V4.05L1.45125 12.375H0V11.325L11.5125 3H12.9637Z" fill="white"/>
<path d="M5.4 3V12.375H7.56V3H5.4ZM0 6.12375V9.25125H12.9637V6.12375H0Z" fill="white"/>
<path d="M0 6.75V8.625H12.9637V6.75H0ZM5.835 3V12.375H7.125V3H5.83125H5.835ZM0 12.375L4.32 9.25125H5.2875L0.9675 12.375H0ZM0 3L4.32 6.12375H3.35625L0 3.6975V3ZM7.67625 6.12375L11.9962 3H12.9637L8.64375 6.12375H7.67625ZM12.9637 12.375L8.64375 9.25125H9.6075L12.9637 11.6775V12.375Z" fill="#CC0000"/>
<path fill-rule="evenodd" clip-rule="evenodd" d="M11.2425 17.7188L9.60375 17.8613L9.82875 19.4888L8.7 18.3L7.57125 19.4888L7.79625 17.8613L6.1575 17.7188L7.57125 16.8825L6.66 15.5138L8.1975 16.095L8.7 14.5313L9.20625 16.095L10.7437 15.5138L9.8325 16.8825L11.2425 17.7188ZM18.2475 19.2188L17.85 18.6263L18.5175 18.8775L18.735 18.1988L18.9525 18.8775L19.62 18.6263L19.2262 19.2188L19.8412 19.5825L19.1287 19.6463L19.2262 20.355L18.7387 19.8338L18.2437 20.355L18.3412 19.6463L17.6287 19.5863L18.2475 19.2188ZM18.2437 8.64001L17.85 8.04751L18.5175 8.29876L18.735 7.62001L18.9525 8.29876L19.62 8.04751L19.2262 8.64001L19.8412 9.00751L19.1287 9.06751L19.2262 9.77626L18.7387 9.25876L18.2437 9.77251L18.3412 9.06751L17.6287 9.00751L18.2437 8.64001ZM14.28 12.9375L13.8862 12.345L14.5537 12.5963L14.7712 11.9175L14.9925 12.5963L15.66 12.345L15.2625 12.9375L15.8775 13.3013L15.165 13.365L15.2662 14.0738L14.7712 13.5525L14.2837 14.0738L14.3775 13.365L13.665 13.305L14.28 12.9375ZM21.7762 11.88L21.375 11.2875L22.0425 11.5388L22.26 10.86L22.4812 11.5388L23.1487 11.2875L22.755 11.88L23.3662 12.2438L22.6537 12.3075L22.7512 13.0125L22.2637 12.495L21.7687 13.0125L21.8662 12.3075L21.1537 12.2438L21.7762 11.88ZM20.325 15L19.9387 15.2438L20.0475 14.7975L19.6987 14.505L20.1525 14.4675L20.325 14.0475L20.5012 14.4713L20.955 14.505L20.6062 14.7975L20.715 15.2438" fill="white"/>
<rect x="0.5" y="3.5" width="23" height="17" stroke="black" stroke-opacity="0.08"/>
</svg>
