<svg width="24" height="24" viewBox="0 0 24 24" fill="none" xmlns="http://www.w3.org/2000/svg">
<path fill-rule="evenodd" clip-rule="evenodd" d="M0 3H24V15H0V3Z" fill="#B20000"/>
<path fill-rule="evenodd" clip-rule="evenodd" d="M0 15H24V21H0V15Z" fill="#429F00"/>
<path fill-rule="evenodd" clip-rule="evenodd" d="M0 3H3.98714V21H0V3Z" fill="white"/>
<path fill-rule="evenodd" clip-rule="evenodd" d="M0.189863 3.30586H0.379727V3.61172H0.189863V3.30586ZM0.759455 3.30586H1.32905V3.61172H0.759455V3.30586ZM0.949319 3H1.13918V3.30586H0.949319V3ZM1.89864 3H2.0885V3.30586H1.89864V3ZM2.65809 3.30586H3.22769V3.61172H2.65809V3.30586ZM2.84796 3H3.03782V3.30586H2.84796V3ZM0.569591 3.61172H0.949319V3.91406H0.569591V3.61172ZM1.13918 3.61172H1.51891V3.91406H1.13918V3.61172ZM2.46823 3.61172H2.84796V3.91406H2.46823V3.61172ZM3.03782 3.61172H3.41755V3.91406H3.03782V3.61172ZM0.379727 3.91406H0.759455V4.21992H0.379727V3.91406ZM1.32905 3.91406H1.70877V4.21992H1.32905V3.91406ZM2.27837 3.91406H2.65809V4.21992H2.27837V3.91406ZM3.22769 3.91406H3.60741V4.21992H3.22769V3.91406ZM3.60741 3.30586H3.79728V3.61172H3.60741V3.30586ZM0.189863 4.21992H0.569591V4.52578H0.189863V4.21992ZM1.51891 4.21992H1.89864V4.52578H1.51891V4.21992ZM3.41755 4.21992H3.79728V4.52578H3.41755V4.21992ZM0.379727 5.13398H0.759455V5.43984H0.379727V5.13398ZM0.569591 5.43984H0.949319V5.7457H0.569591V5.43984ZM1.32905 5.1375H1.70877V5.43984H1.32905V5.1375ZM1.13918 5.43984H1.51891V5.7457H1.13918V5.43984ZM0.759455 5.7457H1.32905V6.05156H0.759455V5.7457Z" fill="#B20000"/>
<path fill-rule="evenodd" clip-rule="evenodd" d="M0.94932 6.05156H1.13918V6.35742H0.94932V6.05156ZM2.27837 5.1375H2.6581V5.43984H2.27837V5.1375ZM2.46823 5.43984H2.84796V5.7457H2.46823V5.43984ZM3.22769 5.1375H3.60742V5.43984H3.22769V5.1375ZM3.03782 5.43984H3.41755V5.7457H3.03782V5.43984ZM2.6581 5.7457H3.22769V6.05156H2.6581V5.7457ZM2.84796 6.05156H3.03782V6.35742H2.84796V6.05156ZM1.89864 5.74219H2.0885V6.04805H1.89864V5.74219ZM0 5.74219H0.189864V6.04805H0V5.74219ZM3.79728 5.74219H3.98714V6.04805H3.79728V5.74219ZM0.94932 7.26797H1.13918V7.57383H0.94932V7.26797ZM0.759456 7.57734H1.32905V7.87969H0.759456V7.57734ZM0.569592 7.87969H1.51891V8.18555H0.569592V7.87969ZM2.84796 7.27148H3.03782V7.57734H2.84796V7.27148ZM2.6581 7.57734H3.22769V7.87969H2.6581V7.57734ZM2.46823 7.87969H3.41755V8.18555H2.46823V7.87969ZM2.6581 9.40547H3.60742V9.71133H2.6581V9.40547ZM2.27837 8.18555H3.60742V8.49141H2.27837V8.18555ZM0.379728 8.18555H1.70878V8.49141H0.379728V8.18555ZM0.569592 9.71133H1.13918V10.0172H0.569592V9.71133ZM0.379728 9.40547H1.32905V9.71133H0.379728V9.40547ZM3.03782 8.80078H3.98714V9.10664H3.03782V8.80078ZM2.84796 9.71484H3.41755V10.0207H2.84796V9.71484Z" fill="#B20000"/>
<path fill-rule="evenodd" clip-rule="evenodd" d="M0.759456 10.0172H0.94932V10.323H0.759456V10.0172ZM3.03782 10.0172H3.22769V10.323H3.03782V10.0172ZM0 8.79726H0.94932V9.10312H0V8.79726ZM1.70878 9.40547H2.27837V9.71133H1.70878V9.40547ZM1.89864 9.71484H2.0885V10.0207H1.89864V9.71484ZM1.32905 8.80078H2.6581V9.10664H1.32905V8.80078ZM2.0885 4.21992H2.46823V4.52578H2.0885V4.21992ZM1.70878 4.52578H2.27837V4.83164H1.70878V4.52578ZM1.51891 4.83164H1.89864V5.13398H1.51891V4.83164ZM2.0885 4.83164H2.46823V5.13398H2.0885V4.83164ZM0 4.52578H0.379728V4.83164H0V4.52578ZM0.189864 4.83164H0.569592V5.13398H0.189864V4.83164ZM3.60742 4.52578H3.98714V4.82812H3.60742V4.52578ZM3.41755 4.82812H3.79728V5.13047H3.41755V4.82812ZM0 7.57031H0.189864V7.87617H0V7.57031ZM3.79728 7.57031H3.98714V7.87617H3.79728V7.57031ZM1.70878 10.0137H2.27837V10.3195H1.70878V10.0137ZM1.51891 10.3195H1.89864V10.6219H1.51891V10.3195ZM2.0885 10.3195H2.46823V10.6219H2.0885V10.3195ZM1.32905 10.6219H1.70878V10.9277H1.32905V10.6219ZM2.27837 10.6219H2.6581V10.9277H2.27837V10.6219ZM1.13918 10.9277H1.51891V11.2336H1.13918V10.9277ZM2.46823 10.9277H2.84796V11.2336H2.46823V10.9277ZM0.94932 11.2371H1.32905V11.543H0.94932V11.2371ZM2.6581 11.2371H3.03782V11.543H2.6581V11.2371ZM0.569592 11.543H1.13918V11.8488H0.569592V11.543ZM2.84796 11.543H3.41755V11.8488H2.84796V11.543ZM3.22769 11.2371H3.60742V11.543H3.22769V11.2371ZM3.41755 10.9312H3.79728V11.2371H3.41755V10.9312ZM3.60742 10.6254H3.98714V10.9312H3.60742V10.6254ZM0.379728 11.2371H0.759456V11.543H0.379728V11.2371ZM0.189864 10.9312H0.569592V11.2371H0.189864V10.9312ZM0 10.6289H0.379728V10.9348H0V10.6289ZM0.759456 11.8523H0.94932V12.1547H0.759456V11.8523ZM3.03782 11.8523H3.22769V12.1547H3.03782V11.8523ZM1.89864 10.9383H2.0885V11.2406H1.89864V10.9383ZM1.32905 11.8523H1.51891V12.1547H1.32905V11.8523ZM2.46823 11.8523H2.6581V12.1547H2.46823V11.8523ZM1.89864 11.8523H2.0885V12.1547H1.89864V11.8523ZM0 11.8523H0.189864V12.1547H0L0 11.8523ZM3.79728 11.8523H3.98714V12.1547H3.79728V11.8523ZM1.89864 7.57734H2.0885V7.87969H1.89864V7.57734ZM0.94932 4.52578H1.13918V4.83164H0.94932V4.52578ZM2.84796 4.52578H3.03782V4.83164H2.84796V4.52578ZM1.70878 6.65976H2.27837V6.96562H1.70878V6.65976ZM1.32905 6.96562H1.89864V7.27148H1.32905V6.96562ZM1.51891 7.27148H1.70878V7.57734H1.51891V7.27148ZM1.13918 6.65976H1.51891V6.96562H1.13918V6.65976ZM1.32905 6.35742H1.89864V6.65976H1.32905V6.35742ZM1.51891 6.05156H1.70878V6.35742H1.51891V6.05156ZM2.0885 6.35742H2.6581V6.65976H2.0885V6.35742ZM2.27837 6.05156H2.46823V6.35742H2.27837V6.05156ZM2.46823 6.65976H2.84796V6.96562H2.46823V6.65976ZM2.0885 6.96562H2.6581V7.27148H2.0885V6.96562ZM2.27837 7.27148H2.46823V7.57734H2.27837V7.27148ZM3.03782 6.65976H3.41755V6.96562H3.03782V6.65976ZM3.22769 6.35742H3.79728V6.65976H3.22769V6.35742ZM3.60742 6.65976H3.98714V6.96562H3.60742V6.65976ZM3.22769 6.96562H3.79728V7.27148H3.22769V6.96562ZM3.41755 7.27148H3.60742V7.57734H3.41755V7.27148ZM3.41755 6.05156H3.60742V6.35742H3.41755V6.05156ZM0 6.65625H0.379728V6.96211H0V6.65625ZM0.189864 6.35391H0.759456V6.65625H0.189864V6.35391ZM0.569592 6.65625H0.94932V6.96211H0.569592V6.65625ZM0.189864 6.96211H0.759456V7.26797H0.189864V6.96211Z" fill="#B20000"/>
<path fill-rule="evenodd" clip-rule="evenodd" d="M0.379728 7.27149H0.569592V7.57734H0.379728V7.27149ZM0.379728 6.05156H0.569592V6.35742H0.379728V6.05156ZM0.189864 8.49141H0.94932V8.79727H0.189864V8.49141ZM1.13918 8.49141H1.89864V8.79727H1.13918V8.49141ZM2.0885 8.49141H2.84796V8.79727H2.0885V8.49141ZM3.03782 8.49141H3.79728V8.79727H3.03782V8.49141ZM1.51891 9.10313H2.46823V9.40547H1.51891V9.10313ZM0.189864 9.10313H1.13918V9.40547H0.189864V9.10313ZM2.84796 9.10313H3.79728V9.40547H2.84796V9.10313ZM3.79728 10.323H3.98714V10.6254H3.79728V10.323ZM0 10.323H0.189864V10.6254H0V10.323ZM0.189864 20.6941H0.379728V20.3918H0.189864V20.6941ZM0.759456 20.6941H1.32905V20.3918H0.759456V20.6941ZM0.94932 21H1.13918V20.6941H0.94932V21ZM1.89864 21H2.0885V20.6941H1.89864V21ZM2.6581 20.6941H3.22769V20.3883H2.6581V20.6941ZM2.84796 21H3.03782V20.6941H2.84796V21ZM0.569592 20.3883H0.94932V20.0859H0.569592V20.3883ZM1.13918 20.3883H1.51891V20.0859H1.13918V20.3883ZM2.46823 20.3883H2.84796V20.0859H2.46823V20.3883ZM3.03782 20.3883H3.41755V20.0859H3.03782V20.3883ZM1.32905 20.0859H1.70878V19.7801H1.32905V20.0859ZM2.27837 20.0859H2.6581V19.7801H2.27837V20.0859ZM3.22769 20.0859H3.60742V19.7801H3.22769V20.0859ZM3.60742 20.6941H3.79728V20.3883H3.60742V20.6941ZM0.189864 19.7801H0.569592V19.4742H0.189864V19.7801ZM1.51891 19.7801H1.89864V19.4742H1.51891V19.7801ZM3.41755 19.7801H3.79728V19.4742H3.41755V19.7801ZM0.379728 18.866H0.759456V18.5602H0.379728V18.866ZM0.569592 18.5602H0.94932V18.2543H0.569592V18.5602ZM1.32905 18.866H1.70878V18.5602H1.32905V18.866ZM1.13918 18.5602H1.51891V18.2543H1.13918V18.5602ZM0.759456 18.2543H1.32905V17.9484H0.759456V18.2543ZM0.94932 17.9484H1.13918V17.6461H0.94932V17.9484ZM2.27837 18.8625H2.6581V18.5602H2.27837V18.8625ZM2.46823 18.5602H2.84796V18.2543H2.46823V18.5602ZM3.22769 18.866H3.60742V18.5602H3.22769V18.866ZM3.03782 18.5602H3.41755V18.2543H3.03782V18.5602ZM2.6581 18.2543H3.22769V17.9484H2.6581V18.2543ZM2.84796 17.9484H3.03782V17.6461H2.84796V17.9484ZM1.89864 18.2578H2.0885V17.952H1.89864V18.2578ZM0 18.2578H0.189864V17.952H0V18.2578ZM3.79728 18.2578H3.98714V17.952H3.79728V18.2578ZM0.94932 16.732H1.13918V16.4262H0.94932V16.732ZM0.759456 16.4227H1.32905V16.1203H0.759456V16.4227ZM0.569592 16.1203H1.51891V15.8145H0.569592V16.1203ZM2.84796 16.7285H3.03782V16.4227H2.84796V16.7285Z" fill="#B20000"/>
<path fill-rule="evenodd" clip-rule="evenodd" d="M2.6581 16.4227H3.22769V16.1203H2.6581V16.4227ZM2.46823 16.1203H3.41755V15.8145H2.46823V16.1203ZM2.6581 14.5945H3.60742V14.2852H2.6581V14.5945ZM2.27837 15.8145H3.60742V15.5086H2.27837V15.8145ZM0.379728 15.8145H1.70878V15.5086H0.379728V15.8145ZM0.569592 14.2887H1.13918V13.9828H0.569592V14.2887ZM0.379728 14.5945H1.32905V14.2852H0.379728V14.5945ZM3.03782 15.1992H3.98714V14.8934H3.03782V15.1992ZM2.84796 14.2852H3.41755V13.9793H2.84796V14.2852ZM0 15.1992H0.94932V14.8934H0V15.1992ZM1.70878 14.591H2.27837V14.2852H1.70878V14.591ZM1.89864 14.2852H2.0885V13.9793H1.89864V14.2852ZM1.32905 15.1992H2.6581V14.8934H1.32905V15.1992ZM2.0885 19.7766H2.46823V19.4707H2.0885V19.7766ZM1.70878 19.4707H2.27837V19.1719H1.70878V19.4707ZM1.51891 19.1648H1.89864V18.859H1.51891V19.1648ZM2.0885 19.1648H2.46823V18.859H2.0885V19.1648ZM0 19.4742H0.379728V19.1719H0V19.4742ZM0.189864 19.1684H0.569592V18.866H0.189864V19.1684ZM3.60742 19.4742H3.98714V19.1719H3.60742V19.4742ZM3.41755 19.1684H3.79728V18.866H3.41755V19.1684ZM0 16.4297H0.189864V16.1238H0V16.4297ZM3.79728 16.4297H3.98714V16.1238H3.79728V16.4297ZM1.51891 13.6805H1.89864V13.3781H1.51891V13.6805ZM2.0885 13.6805H2.46823V13.3781H2.0885V13.6805ZM1.32905 13.3781H1.70878V13.0723H1.32905V13.3781ZM2.27837 13.3781H2.6581V13.0723H2.27837V13.3781ZM1.13918 13.0723H1.51891V12.7664H1.13918V13.0723ZM2.46823 13.0723H2.84796V12.7664H2.46823V13.0723ZM0.94932 12.7629H1.32905V12.457H0.94932V12.7629ZM2.6581 12.7629H3.03782V12.457H2.6581V12.7629ZM0.569592 12.457H1.13918V12.1512H0.569592V12.457ZM2.84796 12.457H3.41755V12.1512H2.84796V12.457ZM3.22769 12.7629H3.60742V12.457H3.22769V12.7629ZM3.41755 13.0688H3.79728V12.7629H3.41755V13.0688ZM3.60742 13.3746H3.98714V13.0688H3.60742V13.3746ZM0.379728 12.7629H0.759456V12.457H0.379728V12.7629ZM0.189864 13.0688H0.569592V12.7629H0.189864V13.0688ZM0 13.3711H0.379728V13.0652H0V13.3711ZM0.759456 12.1477H0.94932V11.8453H0.759456V12.1477ZM1.89864 13.0617H2.0885V12.7594H1.89864V13.0617ZM1.89864 16.4191H2.0885V16.1168H1.89864V16.4191ZM0.94932 19.4707H1.13918V19.1719H0.94932V19.4707ZM2.84796 19.4707H3.03782V19.1719H2.84796V19.4707ZM1.70878 17.3438H2.27837V17.0379H1.70878V17.3438ZM1.32905 17.0379H1.89864V16.732H1.32905V17.0379ZM1.51891 16.732H1.70878V16.4262H1.51891V16.732ZM1.13918 17.3438H1.51891V17.0379H1.13918V17.3438ZM1.32905 17.6426H1.89864V17.3438H1.32905V17.6426ZM1.51891 17.9484H1.70878V17.6461H1.51891V17.9484ZM2.0885 17.6426H2.6581V17.3438H2.0885V17.6426ZM2.27837 17.9484H2.46823V17.6461H2.27837V17.9484ZM2.46823 17.3402H2.84796V17.0344H2.46823V17.3402ZM2.0885 17.0344H2.6581V16.7285H2.0885V17.0344ZM2.27837 16.7285H2.46823V16.4227H2.27837V16.7285ZM3.03782 17.3438H3.41755V17.0379H3.03782V17.3438ZM3.22769 17.6426H3.79728V17.3438H3.22769V17.6426ZM3.60742 17.3402H3.98714V17.0344H3.60742V17.3402ZM3.22769 17.0344H3.79728V16.7285H3.22769V17.0344ZM3.41755 16.7285H3.60742V16.4227H3.41755V16.7285ZM3.41755 17.9484H3.60742V17.6461H3.41755V17.9484ZM0 17.3438H0.379728V17.0379H0V17.3438ZM0.189864 17.6426H0.759456V17.3438H0.189864V17.6426Z" fill="#B20000"/>
<path fill-rule="evenodd" clip-rule="evenodd" d="M0.569592 17.3402H0.94932V17.0344H0.569592V17.3402ZM0.189864 17.0344H0.759456V16.7285H0.189864V17.0344ZM0.379728 16.7285H0.569592V16.4227H0.379728V16.7285ZM0.379728 17.9484H0.569592V17.6461H0.379728V17.9484ZM0.189864 15.5086H0.94932V15.2027H0.189864V15.5086ZM1.13918 15.5086H1.89864V15.2027H1.13918V15.5086ZM2.0885 15.5086H2.84796V15.2027H2.0885V15.5086ZM3.03782 15.5086H3.79728V15.2027H3.03782V15.5086ZM1.51891 14.8969H2.46823V14.5945H1.51891V14.8969ZM0.189864 14.8969H1.13918V14.5945H0.189864V14.8969ZM2.84796 14.8969H3.79728V14.5945H2.84796V14.8969ZM3.79728 13.6805H3.98714V13.3711H3.79728V13.6805ZM0 13.6805H0.189864V13.3711H0V13.6805ZM1.70878 12.1512H1.89864V12.457H1.70878V12.1512ZM2.0885 12.1512H2.27837V12.457H2.0885V12.1512ZM2.0885 11.543H2.27837V11.8488H2.0885V11.543ZM1.70878 11.543H1.89864V11.8488H1.70878V11.543ZM0.379728 19.7801H0.759456V20.0859H0.379728V19.7801ZM3.03782 13.9828H3.22769V13.677H3.03782V13.9828ZM0.759456 13.9828H0.94932V13.677H0.759456V13.9828ZM1.70878 13.677H2.27837V13.9828H1.70878V13.677Z" fill="#B20000"/>
<rect x="0.5" y="3.5" width="23" height="17" stroke="black" stroke-opacity="0.08"/>
</svg>
