<svg width="24" height="24" viewBox="0 0 24 24" fill="none" xmlns="http://www.w3.org/2000/svg">
<path d="M0 3H24V21H0V3Z" fill="#DE2910"/>
<path d="M2.88002 9.65999L4.5 4.79999L6.11998 9.65999L1.80003 6.68999H7.19997L2.88002 9.65999Z" fill="#FFDE00"/>
<path d="M9.90641 4.89314L8.23924 5.26259L9.3513 3.96672L9.24223 5.71079L8.31706 4.16676L9.90641 4.89314Z" fill="#FFDE00"/>
<path d="M11.589 7.02553L9.90901 6.71948L11.4366 5.95634L10.6597 7.5216L10.4057 5.7396L11.589 7.02553Z" fill="#FFDE00"/>
<path d="M11.3438 10.0172L9.9347 9.05254L11.6407 8.9788L10.2929 10.0911L10.7879 8.36046L11.3438 10.0172Z" fill="#FFDE00"/>
<path d="M9.22458 11.9715L8.29742 10.5375L9.89954 11.1284L8.22676 11.6338L9.35169 10.2287L9.22458 11.9715Z" fill="#FFDE00"/>
<rect x="0.5" y="3.5" width="23" height="17" stroke="black" stroke-opacity="0.08"/>
</svg>
