<svg width="24" height="24" viewBox="0 0 24 24" fill="none" xmlns="http://www.w3.org/2000/svg">
<path d="M0 3H24V21H0V3Z" fill="white"/>
<path d="M11.5425 17.9475C11.5396 17.9455 11.537 17.9429 11.535 17.94H11.5313L11.4825 17.8875L11.34 17.7188L11.1563 17.4825L11.1338 17.4488L10.9013 17.3775L10.7288 17.2988L10.8188 17.1975L11.1338 17.3288L11.3663 17.3775L11.7975 17.6963L11.6738 17.805C11.6297 17.846 11.5884 17.8899 11.55 17.9363L11.5763 17.9175L11.6063 17.94L11.5463 17.9475H11.5425ZM9.945 17.4675C9.73355 17.4656 9.52643 17.4074 9.345 17.2988C9.345 17.2988 9.37125 17.25 9.43125 17.2088C9.49125 17.1638 9.59625 17.115 9.76875 17.1113C9.97125 17.1113 10.2188 17.1825 10.5 17.3138C10.332 17.413 10.1402 17.4648 9.945 17.4638V17.4675ZM9.06375 17.2725C9.02625 17.2725 8.98875 17.2575 8.96625 17.235C8.94499 17.2091 8.93078 17.1781 8.925 17.145C8.91504 17.1033 8.91125 17.0603 8.91375 17.0175C8.92938 17.0119 8.94592 17.0094 8.9625 17.01C9.0375 17.01 9.0975 17.0738 9.12375 17.1375C9.13875 17.175 9.1425 17.205 9.13125 17.2313C9.12375 17.2538 9.09375 17.2688 9.06375 17.2688V17.2725ZM10.6125 17.0925C10.0913 17.0175 9.87 16.83 9.77625 16.6838C9.67875 16.53 9.70125 16.3838 9.70125 16.3838C9.70125 16.3838 9.73125 16.3763 9.77625 16.3763C9.91875 16.3763 10.2713 16.4475 10.6125 17.0888V17.0925ZM9.54375 16.9875C9.3225 16.9875 9.15375 16.95 9.04125 16.875C8.99316 16.8448 8.95426 16.802 8.92875 16.7513C8.92071 16.7321 8.91565 16.7119 8.91375 16.6913C8.99926 16.6556 9.09112 16.6378 9.18375 16.6388C9.31759 16.6436 9.44916 16.6749 9.57081 16.7309C9.69247 16.7869 9.80181 16.8665 9.8925 16.965C9.765 16.98 9.64875 16.9875 9.54375 16.9875ZM8.4675 16.95C8.235 16.95 7.9125 16.875 7.71 16.6763C7.71 16.6763 7.93125 16.62 8.175 16.6125H8.22C8.44125 16.6125 8.61 16.6538 8.7225 16.74C8.76 16.77 8.7825 16.7963 8.78625 16.8225C8.79 16.845 8.77875 16.8675 8.75625 16.8863C8.70375 16.9238 8.61375 16.9463 8.48625 16.9463H8.4675V16.95ZM7.70625 16.5563C7.69175 16.556 7.67749 16.5525 7.66451 16.546C7.65154 16.5395 7.64018 16.5302 7.63125 16.5188C7.61558 16.4964 7.60531 16.4707 7.60125 16.4438C7.59 16.3913 7.59375 16.3388 7.59375 16.335C7.60557 16.3298 7.61836 16.3273 7.63125 16.3275C7.665 16.3275 7.69125 16.3463 7.70625 16.365C7.72905 16.3858 7.74698 16.4114 7.75875 16.44C7.76625 16.4738 7.77 16.5 7.75875 16.5225C7.75875 16.5375 7.73625 16.56 7.71 16.56L7.70625 16.5563ZM9.465 16.5188C9.4275 16.5188 9.39 16.5038 9.3675 16.4813C9.34624 16.4553 9.33203 16.4243 9.32625 16.3913C9.31629 16.3495 9.3125 16.3066 9.315 16.2638C9.33063 16.2582 9.34717 16.2557 9.36375 16.2563C9.43875 16.2563 9.5025 16.32 9.525 16.3838C9.54 16.4213 9.54375 16.4513 9.53625 16.4775C9.525 16.5 9.49875 16.515 9.46125 16.515L9.465 16.5188ZM8.61 16.4813C8.1375 16.4663 7.89 16.3313 7.77 16.2188C7.7177 16.1735 7.67444 16.1188 7.6425 16.0575C7.62375 16.02 7.61625 15.99 7.61625 15.9825C7.61625 15.975 7.66125 15.9675 7.72875 15.9675H7.74375C7.90125 15.9675 8.2275 16.035 8.60625 16.4813H8.61ZM9.12 16.4363C8.85011 16.4069 8.59917 16.2834 8.41125 16.0875C8.34208 16.0118 8.28968 15.9224 8.2575 15.825C8.2575 15.825 8.3025 15.8138 8.37 15.81C8.3825 15.8096 8.395 15.8096 8.4075 15.81C8.595 15.8138 8.94375 15.9 9.12 16.4363ZM7.17 16.2488C7.05021 16.2498 6.93069 16.2373 6.81375 16.2113C6.615 16.1588 6.52875 16.0838 6.49125 16.0275C6.47592 16.005 6.46568 15.9794 6.46125 15.9525C6.46007 15.9425 6.46007 15.9325 6.46125 15.9225C6.46125 15.9225 6.5925 15.885 6.77625 15.8813C6.86929 15.8789 6.96231 15.8864 7.05375 15.9038C7.24504 15.9441 7.41543 16.0519 7.53375 16.2075C7.53375 16.2075 7.38375 16.2525 7.17 16.2525V16.2488ZM8.05125 15.9338C8.03389 15.9342 8.01663 15.9311 8.00051 15.9247C7.98438 15.9182 7.96975 15.9086 7.9575 15.8963C7.93624 15.8703 7.92203 15.8393 7.91625 15.8063C7.90125 15.7463 7.905 15.6863 7.905 15.6788C7.91921 15.6724 7.93445 15.6686 7.95 15.6675H7.95375C8.02875 15.6675 8.08875 15.735 8.115 15.7988C8.13 15.8363 8.13 15.8663 8.1225 15.8888C8.11125 15.915 8.085 15.93 8.05125 15.93V15.9338ZM7.39125 15.84C7.26465 15.8041 7.14353 15.7511 7.03125 15.6825C6.86625 15.5813 6.66 15.4013 6.6375 15.12L6.675 15.1163H6.68625C6.735 15.1163 6.83625 15.1275 6.96 15.2213C7.1175 15.3413 7.26 15.5513 7.39125 15.84ZM7.8225 15.825C7.71908 15.7779 7.62307 15.716 7.5375 15.6413C7.31804 15.4518 7.14703 15.2127 7.03875 14.9438C7.03875 14.9438 7.0725 14.925 7.125 14.9213C7.1275 14.9212 7.13 14.9212 7.1325 14.9213H7.1475C7.2225 14.9213 7.33125 14.955 7.45125 15.0863C7.59375 15.2363 7.7175 15.4838 7.82625 15.825H7.8225ZM6.70125 15.7913C6.555 15.7913 6.50625 15.7163 6.49125 15.6788C6.47672 15.6432 6.47156 15.6044 6.47625 15.5663C6.50087 15.5608 6.52604 15.5583 6.55125 15.5588C6.59783 15.5573 6.6441 15.5667 6.68641 15.5862C6.72872 15.6057 6.7659 15.6349 6.795 15.6713C6.8025 15.6863 6.825 15.7238 6.80625 15.7575C6.79125 15.78 6.7575 15.795 6.70125 15.795V15.7913ZM6.3825 15.3863C6.26945 15.3875 6.15651 15.3787 6.045 15.36C5.9175 15.3375 5.84625 15.2288 5.805 15.1388C5.7675 15.045 5.7525 14.9513 5.7525 14.9513C6.15 14.9625 6.34125 15.0788 6.4275 15.1763C6.48196 15.2323 6.51626 15.3049 6.525 15.3825C6.525 15.3825 6.465 15.39 6.3825 15.39V15.3863ZM6.795 14.9738C6.76295 14.9327 6.73291 14.8902 6.705 14.8463C6.65625 14.7713 6.615 14.6963 6.615 14.6363C6.615 14.5725 6.6 14.4488 6.5925 14.3738L6.57 14.205C6.58125 14.205 6.8175 14.295 6.8175 14.52C6.8175 14.745 6.795 14.97 6.795 14.97V14.9738ZM6.4875 14.9513H6.48C6.22275 14.8742 5.98838 14.7351 5.7975 14.5463C5.73375 14.4713 5.6925 14.3513 5.68125 14.1938C5.67375 14.0813 5.68125 13.9875 5.68125 13.9763C5.69469 13.9727 5.70864 13.9714 5.7225 13.9725C5.775 13.9725 5.835 13.995 5.91 14.0475C5.97962 14.0968 6.04486 14.152 6.105 14.2125C6.225 14.3325 6.31875 14.4525 6.31875 14.4525C6.33 14.4675 6.39375 14.5913 6.45 14.7113C6.47632 14.7664 6.49645 14.8242 6.51 14.8838C6.51375 14.9063 6.5175 14.9213 6.51 14.9363C6.50823 14.9425 6.50422 14.9478 6.49875 14.9513C6.49381 14.9524 6.48869 14.9524 6.48375 14.9513H6.4875Z" fill="#435125"/>
<path d="M19.4625 5.86499L19.395 5.89124L19.365 5.90249L19.2825 5.89874L19.2 5.93624L19.0575 6.03374L19.0538 6.03749L18.9975 6.05249L18.9488 6.02999L18.9225 6.04499L18.9113 6.10124L18.885 6.14249L18.8513 6.16499L18.7388 6.17624L18.645 6.22874L18.5175 6.19124L18.4613 6.21749L18.3375 6.32999L18.2738 6.35624H18.255L18.1688 6.35249L18.135 6.36374L18.0825 6.41249L17.985 6.41999L17.9513 6.44249L17.9025 6.53999L17.85 6.59999L17.82 6.60374L17.79 6.59249L17.7638 6.59624L17.7525 6.65999L17.73 6.68624L17.6625 6.70874L17.61 6.75374L17.5613 6.77624H17.4863L17.4225 6.81374L17.3063 6.82124L17.2575 6.86624L17.2463 6.87749L17.2238 6.88874L17.1863 6.91124L17.1788 6.91874L17.1338 6.91124L17.0813 6.92999L17.0588 6.89999L17.0213 6.91874L16.9763 6.92249L16.9163 6.89624L16.8675 6.87374L16.8338 6.88124L16.8225 6.93749V6.94499L16.785 6.98999L16.7213 7.03124L16.7138 7.04249L16.6388 7.13999L16.4963 7.28999L16.3763 7.34999L16.2525 7.38749L16.1663 7.45874L15.9413 7.57124L15.5775 7.75124L15.5025 7.77374L15.3975 7.78874L15.21 7.85999L15.045 7.90874L15.0338 7.91249L15.0038 7.92374L14.7675 7.99499L14.6588 7.97999L14.595 8.00624L14.4263 7.98749H14.31L14.235 8.00249L14.0963 8.06999L13.86 8.18249L13.785 8.25749L13.665 8.31749L13.5225 8.36249V8.30249L13.4738 8.31749L13.4363 8.32874L13.3238 8.34374H13.26L13.2188 8.33249H13.2113L12.9788 8.41124L12.7163 8.43749L12.585 8.47874H12.4875L12.4275 8.49749L12.3075 8.51249L12.2625 8.50124L12.255 8.49749L11.9025 8.51249L11.7413 8.49374L11.6663 8.51249L11.535 8.46749L11.3475 8.44499L11.3025 8.43374L11.205 8.40374L11.16 8.42999L11.1225 8.43374L11.0475 8.40374H11.0175L10.95 8.42624L10.9125 8.41874L10.875 8.38874L10.7963 8.37749L10.7438 8.33624L10.4625 8.37374L10.3875 8.35124L10.1288 8.27624H10.0913L10.0388 8.31374L9.96375 8.34374L9.8925 8.35874L9.8025 8.36249L9.6975 8.33624L9.5925 8.28374L9.55125 8.27249L9.46125 8.28374H9.435L9.27 8.19749L9.06 8.06624L8.9175 7.99499L8.86125 7.98749L8.85375 8.01374L8.88 8.09624L8.89125 8.18249V8.25749L8.8875 8.30624L8.89875 8.34749L8.95125 8.40749L8.97375 8.46374L8.98875 8.62124V8.78249L8.9625 9.03749L8.955 9.07499L8.925 9.20999L8.89875 9.33374L8.79 9.65999L8.76375 9.69749L8.68875 9.74624L8.5275 9.85874L8.4075 9.92624L8.37 9.94124L8.2725 9.94874H8.2125L8.1375 9.90749L8.0625 9.88874L7.965 9.81749L7.86 9.79499L7.74 9.72749L7.71 9.68999L7.64625 9.68249L7.55625 9.65624L7.5225 9.64499L7.5 9.64124L7.3875 9.63749L7.27875 9.58874L7.2225 9.57374H7.1475L7.06875 9.61124L7.0275 9.62624L6.975 9.60749H6.9375L6.9 9.67124L6.8925 9.68249L6.8625 9.69749H6.79875L6.76875 9.70874L6.7275 9.72749L6.69 9.74249L6.67125 9.74999H6.66L6.64125 9.75749H6.61875L6.57375 9.73499L6.55125 9.72374L6.51375 9.71624L6.495 9.72749L6.49125 9.79874L6.4725 9.83999L6.4125 9.89249L6.3525 9.94499L6.315 10.005L6.2025 10.2562L6.13125 10.3575L6.1125 10.3837L6.0375 10.4625L5.97375 10.5112L5.8275 10.6237L5.68875 10.68L5.56875 10.7025H5.50875L5.39625 10.6875L5.29875 10.6575L5.18625 10.59L5.07 10.4925L4.89375 10.3237L4.87125 10.3087L4.86375 10.305L4.81125 10.2675H4.77L4.755 10.2975L4.74375 10.335L4.73625 10.3687L4.7175 10.5562V10.5675L4.72875 10.6462L4.86375 10.8337L4.90125 10.9312L4.90875 10.9425L4.935 10.9875L4.9575 11.025L5.00625 11.16L4.9725 11.235L4.9875 11.2875L4.95 11.3175L4.9425 11.3625L5.05875 11.5125L5.085 11.5762L5.05875 11.6662L5.01 11.7187L4.99875 11.73L5.00625 11.7675L5.05875 11.82L5.1525 11.9025L5.20125 12.0225L5.23875 12.06L5.28375 12.0487L5.30625 12.0675H5.34375L5.38125 12.105L5.40375 12.1125L5.44125 12.1312L5.47125 12.1687L5.475 12.2887L5.53125 12.4312V12.525L5.56875 12.5812L5.57625 12.6262L5.5575 12.75L5.6025 12.7875L5.6475 12.78L5.6775 12.7837L5.72625 12.825L5.78625 12.915L5.84625 12.9075L5.88375 12.9225L6.06 13.0837L6.0975 13.1062L6.13125 13.1212L6.16875 13.1587L6.22125 13.1212H6.22875L6.28875 13.1137L6.315 13.1325L6.3675 13.1662H6.43125L6.58125 13.2112L6.64125 13.2262L6.76875 13.305L6.825 13.3387L6.855 13.365L6.9 13.4025L6.9825 13.44L7.0575 13.455L7.095 13.4625L7.12875 13.4737L7.28625 13.5375L7.3725 13.5562L7.4475 13.5862L7.5075 13.605H7.5525L7.6125 13.5562H7.66875L7.7175 13.5637L7.76625 13.5562L7.84125 13.5112L7.8525 13.4887L7.905 13.4662L8.085 13.4437L8.1375 13.4587L8.2725 13.4025L8.3625 13.425L8.4375 13.3987L8.61375 13.4362L8.65875 13.47L8.71125 13.5262H8.775L8.74875 13.5675L8.82375 13.65L8.895 13.7512L8.89875 13.7662L8.9475 13.9125L8.985 13.965L9.01125 14.0362V14.0812L8.97375 14.115L8.96625 14.13V14.1375L8.97375 14.1562L8.98875 14.1487L9.015 14.1337L9.0525 14.1262L9.1125 14.1337L9.15375 14.1375L9.2175 14.1075L9.2625 14.085L9.33 14.115H9.405L9.43875 14.1262L9.52875 14.1675L9.57375 14.1712L9.58875 14.16L9.6 14.1375L9.59625 14.1075L9.55875 14.0662L9.48375 13.9762L9.45375 13.9312L9.43125 13.8675L9.42375 13.785L9.41625 13.7287L9.4275 13.6537L9.44625 13.6275L9.46125 13.5675L9.465 13.5525L9.51 13.4962L9.6225 13.4212L9.7425 13.3162L9.83625 13.2525L9.93375 13.2112V13.2L9.94875 13.2037L10.1963 13.1175L10.3088 13.0987L11.0588 13.1512L11.085 13.1437L11.1113 13.0725L11.1225 13.0612L11.1338 13.0537L11.2163 13.0162L11.2538 13.0087L11.3588 13.035L11.4038 13.0462L11.475 13.0087H11.5238L11.625 12.9525H11.6888L11.715 12.945L11.8388 12.855L11.955 12.8212L11.985 12.8062L11.9963 12.7987L12.12 12.735L12.195 12.675L12.2625 12.6375L12.3375 12.6225L12.525 12.6075L12.5663 12.5437L12.6488 12.5325L12.6975 12.4762L12.7538 12.4537L12.795 12.3937L12.8325 12.345L12.8775 12.3187L13.0313 12.3075L13.2113 12.33L13.2375 12.315L13.275 12.1687L13.32 12.1425L13.4325 11.9737V11.9137L13.4363 11.8612L13.455 11.7862L13.4438 11.6587L13.4588 11.5237L13.53 11.355L13.5938 11.2875L13.695 11.2162L13.7475 11.1937L13.8225 11.1825H13.83L13.8488 11.175H14.1938L14.28 11.1712L14.4938 11.2087H14.5088L14.58 11.235L14.6625 11.2987L14.7525 11.385L14.7675 11.4L14.8238 11.4262L14.8425 11.4337L14.8875 11.4262L14.955 11.3887L15.0075 11.3512L15.075 11.3137V11.3062L15.1163 11.25L15.1313 11.2237L15.2663 11.1712L15.4238 11.1637L15.4425 11.1525H15.45L15.4913 11.1H15.5288L15.6263 11.1375L15.69 11.1225L15.7425 11.1412L15.7838 11.1375L15.8588 11.1262L15.945 11.1862L15.9938 11.1937L16.1625 11.2912H16.1775L16.185 11.295L16.2038 11.2875L16.2338 11.28H16.2375L16.2413 11.2837L16.2638 11.31L16.29 11.3137L16.32 11.2762L16.3088 11.2537L16.305 11.2462L16.2413 11.235L16.1888 11.1412L16.2413 11.085L16.1588 10.9875L16.1438 10.9687V10.965L16.1138 10.92L15.9713 10.7025L15.7838 10.5525L15.72 10.5037L15.6975 10.485L15.5963 10.3837L15.525 10.29L15.5175 10.2712L15.5025 10.2375L15.4613 10.1475L15.3863 10.0912L15.3263 10.0237L15.1988 9.85124L15.18 9.82499L15.15 9.80624H15.0863L15.0825 9.79874H15.0788V9.79499L15.1088 9.76499L15.1463 9.75749L15.1575 9.72374L15.0938 9.53999V9.53249L15.09 9.47624L15.1388 9.20999L15.1463 9.17624L15.2363 8.99999L15.2888 8.95499L15.3488 8.83874L15.4013 8.76374L15.45 8.71499L15.4575 8.71124L15.5438 8.65874L15.6188 8.64749L15.69 8.63624L15.8138 8.67374H15.9263L15.9525 8.66999L16.005 8.66249L16.0913 8.63624L16.1325 8.60999L16.155 8.57999L16.2 8.42999L16.215 8.38124L16.2413 8.32874L16.4025 8.14499L16.5225 8.03249L16.7925 7.83749L16.9238 7.75874L16.9913 7.71749L17.595 7.44749L17.7525 7.28999L17.835 7.20749L17.9775 7.10999L18.1463 7.03874L18.2963 6.92624L18.3263 6.88499L18.3638 6.75374L18.4013 6.74624L18.4275 6.68249L18.4388 6.66374L18.555 6.58124L18.57 6.57374L19.0313 6.34124L19.0988 6.35249L19.1363 6.29624L19.2675 6.27374H19.2938L19.3275 6.25499L19.3538 6.20624V6.19499L19.3575 6.06749L19.3875 6.03374L19.4025 5.95124L19.4175 5.92874L19.4325 5.90999L19.47 5.88374L19.4625 5.86874V5.86499Z" fill="#D47600"/>
<rect x="0.5" y="3.5" width="23" height="17" stroke="black" stroke-opacity="0.08"/>
</svg>
