<svg width="24" height="24" viewBox="0 0 24 24" fill="none" xmlns="http://www.w3.org/2000/svg">
<path d="M0 3H24V9H0V3Z" fill="#FF8C1A"/>
<path d="M0 9H24V15H0V9Z" fill="white"/>
<path d="M0 15H24V21H0V15Z" fill="#5EAA22"/>
<path fill-rule="evenodd" clip-rule="evenodd" d="M9.5 12C9.5 13.3807 10.6193 14.5 12 14.5C13.3807 14.5 14.5 13.3807 14.5 12C14.5 10.6193 13.3807 9.5 12 9.5C10.6193 9.5 9.5 10.6193 9.5 12ZM13.875 12C13.875 13.0355 13.0355 13.875 12 13.875C10.9645 13.875 10.125 13.0355 10.125 12C10.125 10.9645 10.9645 10.125 12 10.125C13.0355 10.125 13.875 10.9645 13.875 12Z" fill="#3D58DB"/>
<path fill-rule="evenodd" clip-rule="evenodd" d="M11.9979 12.5379L11.4767 14.459L11.7819 12.492L10.5244 14.035L11.6033 12.3622L9.82687 13.2604L11.4929 12.171L9.50474 12.2689L11.4698 11.9514L9.6137 11.2322L11.538 11.7414L10.1349 10.3295L11.6858 11.5773L10.9783 9.71673L11.8875 11.4875L11.9979 9.5L12.1083 11.4875L13.0176 9.71673L12.31 11.5773L13.8609 10.3295L12.4578 11.7414L14.3821 11.2322L12.526 11.9514L14.4911 12.2689L12.503 12.171L14.169 13.2604L12.3925 12.3622L13.4714 14.035L12.2139 12.492L12.5191 14.459L11.9979 12.5379Z" fill="#3D58DB"/>
<rect x="0.5" y="3.5" width="23" height="17" stroke="black" stroke-opacity="0.08"/>
</svg>
