<svg width="24" height="24" viewBox="0 0 24 24" fill="none" xmlns="http://www.w3.org/2000/svg">
<g clip-path="url(#clip0_610_269)">
<path d="M-6.024 3H30.072V21.048H-6.024V3Z" fill="#2E42A4"/>
<path d="M-6.024 3V5.0163L26.0359 21.048H30.072V19.0317L-1.98788 3H-6.024ZM30.072 3V5.0163L-1.98788 21.048H-6.024V19.0317L26.0359 3H30.072Z" fill="white"/>
<path d="M9.01717 3V21.048H15.0308V3H9.01717ZM-6.024 9.01717V15.0308H30.072V9.01717H-6.024Z" fill="white"/>
<path d="M-6.024 10.2192V13.8288H30.072V10.2192H-6.024ZM10.2192 3V21.048H13.8288V3H10.2192ZM-6.024 21.048L6.00682 15.0308H8.69992L-3.33443 21.048H-6.024ZM-6.024 3L6.00682 9.01717H3.31725L-6.024 4.34655V3ZM15.3516 9.01717L27.3824 3H30.072L18.0412 9.01717H15.3516ZM30.072 21.048L18.0412 15.0308H20.7307L30.072 19.7014V21.048Z" fill="#F50100"/>
</g>
<rect x="0.5" y="3.5" width="23" height="17" stroke="black" stroke-opacity="0.08"/>
<defs>
<clipPath id="clip0_610_269">
<rect y="3" width="24" height="18" fill="white"/>
</clipPath>
</defs>
</svg>
