<svg width="24" height="24" viewBox="0 0 24 24" fill="none" xmlns="http://www.w3.org/2000/svg">
<g clip-path="url(#clip0_583_224)">
<path fill-rule="evenodd" clip-rule="evenodd" d="M0 3H34.2V4.38516H0V3ZM0 5.77031H34.2V7.15547H0V5.77031ZM0 8.53711H34.2V9.92578H0V8.53711ZM0 11.3074H34.2V12.6926H0V11.3074ZM0 14.0777H34.2V15.4629H0V14.0777ZM0 16.8445H34.2V18.2297H0V16.8445ZM0 19.6148H34.2V21H0V19.6148Z" fill="#E31D1C"/>
<path fill-rule="evenodd" clip-rule="evenodd" d="M0 4.38525H34.2V5.77041H0V4.38525ZM0 7.15557H34.2V8.53721H0V7.15557ZM0 9.92236H34.2V11.3075H0V9.92236ZM0 12.6927H34.2V14.0778H0V12.6927ZM0 15.463H34.2V16.8481H0V15.463ZM0 18.2298H34.2V19.6149H0V18.2298Z" fill="white"/>
<path fill-rule="evenodd" clip-rule="evenodd" d="M0 3H13.6793V12.6926H0V3Z" fill="#2E42A4"/>
<path fill-rule="evenodd" clip-rule="evenodd" d="M1.13906 3.41479L1.26562 3.798H1.6664L1.34297 4.03354L1.46601 4.42026L1.13906 4.1812L0.815624 4.41675L0.93867 4.03354L0.611717 3.798H1.01953L1.13906 3.41479ZM3.4207 3.41479L3.54375 3.798H3.94805L3.62109 4.03354L3.74414 4.42026L3.4207 4.1812L3.09375 4.41675L3.2168 4.03354L2.89336 3.798H3.29414L3.4207 3.41479ZM5.69883 3.41479L5.82539 3.798H6.22265L5.89922 4.03354L6.02226 4.42026L5.69531 4.1812L5.37187 4.41675L5.49492 4.03354L5.16797 3.798H5.57226L5.69883 3.41479ZM7.98047 3.41479L8.10351 3.798H8.50781L8.18086 4.03354L8.30742 4.42026L7.98047 4.1812L7.65351 4.41675L7.78008 4.03354L7.45312 3.798H7.8539L7.98047 3.41479ZM10.2586 3.41479L10.3852 3.798H10.7859L10.4625 4.03354L10.5855 4.42026L10.2586 4.1812L9.93515 4.41675L10.0582 4.03354L9.73476 3.798H10.1355L10.2586 3.41479ZM12.5402 3.41479L12.6633 3.798H13.0676L12.7406 4.03354L12.8672 4.42026L12.5402 4.1812L12.2133 4.41675L12.3398 4.03354L12.0129 3.798H12.4172L12.5402 3.41479ZM2.28164 4.38511L2.40469 4.76831H2.80898L2.48203 5.00386L2.60156 5.38706L2.28515 5.15151L1.9582 5.38706L2.07422 5.00386L1.75781 4.76831H2.15859L2.28164 4.38511ZM4.55976 4.38511L4.68633 4.76831H5.08711L4.76015 5.00386L4.88672 5.38706L4.55976 5.15151L4.23281 5.38706L4.35937 5.00386L4.03242 4.76831H4.43672L4.55976 4.38511ZM6.8414 4.38511L6.96445 4.76831H7.36875L7.0418 5.00386L7.16484 5.38706L6.8414 5.15151L6.51445 5.38706L6.6375 5.00386L6.31406 4.76831H6.71484L6.8414 4.38511ZM9.11953 4.38511L9.24609 4.76831H9.64687L9.31992 5.00386L9.44648 5.38706L9.11953 5.15151L8.79609 5.38706L8.91914 5.00386L8.59219 4.76831H9L9.11953 4.38511ZM11.4012 4.38511L11.5242 4.76831H11.9285L11.6016 5.00386L11.7246 5.38706L11.4012 5.15151L11.0742 5.38706L11.1973 5.00386L10.8738 4.76831H11.2746L11.4012 4.38511ZM1.13906 5.3519L1.26562 5.74214H1.6664L1.34297 5.97768L1.46601 6.36089L1.13906 6.12182L0.815624 6.36089L0.93867 5.97417L0.611717 5.73862H1.01953L1.13906 5.3519ZM3.4207 5.3519L3.54375 5.73862H3.94805L3.62109 5.97417L3.74414 6.35737L3.4207 6.11831L3.09375 6.35737L3.2168 5.97065L2.89336 5.73511H3.29414L3.4207 5.3519ZM5.69883 5.3519L5.82539 5.73862H6.22265L5.89922 5.97417L6.02226 6.35737L5.69531 6.11831L5.37187 6.35737L5.49492 5.97065L5.16797 5.73511H5.57226L5.69883 5.3519ZM7.98047 5.3519L8.10351 5.73862H8.50781L8.18086 5.97417L8.30742 6.35737L7.98047 6.11831L7.65351 6.35737L7.78008 5.97065L7.45312 5.73511H7.8539L7.98047 5.3519ZM10.2586 5.3519L10.3852 5.73862H10.7859L10.4625 5.97417L10.5855 6.35737L10.2586 6.11831L9.93515 6.35737L10.0582 5.97065L9.73476 5.73511H10.1355L10.2586 5.3519ZM12.5402 5.3519L12.6633 5.73862H13.0676L12.7406 5.97417L12.8672 6.35737L12.5402 6.11831L12.2133 6.35737L12.3398 5.97065L12.0129 5.73511H12.4172L12.5402 5.3519ZM2.28164 6.32222L2.40469 6.70542H2.80898L2.48203 6.94096L2.60508 7.32768L2.28164 7.08862L1.95469 7.32417L2.07773 6.94096L1.7543 6.70542H2.15508L2.28164 6.32222ZM4.55976 6.32222L4.68633 6.70542H5.08711L4.76015 6.94096L4.88672 7.32768L4.55976 7.08862L4.23281 7.32417L4.35937 6.94096L4.03242 6.70542H4.43672L4.55976 6.32222ZM6.8414 6.32222L6.96445 6.70542H7.36875L7.0418 6.94096L7.16484 7.32768L6.8414 7.08862L6.51445 7.32417L6.6375 6.94096L6.31406 6.70542H6.71484L6.8414 6.32222ZM9.11953 6.32222L9.24609 6.70542H9.64687L9.32344 6.94096L9.44648 7.32768L9.11953 7.08862L8.79609 7.32417L8.91914 6.94096L8.59219 6.70542H9L9.11953 6.32222ZM11.4012 6.32222L11.5242 6.70542H11.9285L11.6016 6.94096L11.7246 7.32768L11.4012 7.08862L11.0742 7.32417L11.1973 6.94096L10.8738 6.70542H11.2746L11.4012 6.32222ZM1.13906 7.29253L1.26562 7.67573H1.6664L1.34297 7.91128L1.46601 8.298L1.13906 8.05893L0.815624 8.29448L0.93867 7.91128L0.611717 7.67573H1.01953L1.13906 7.29253ZM3.4207 7.29253L3.54375 7.67573H3.94805L3.62109 7.91128L3.74414 8.29448L3.4207 8.05893L3.09375 8.29448L3.2168 7.91128L2.89336 7.67573H3.29414L3.4207 7.29253ZM5.69883 7.29253L5.82539 7.67573H6.22265L5.89922 7.91128L6.02226 8.298L5.69531 8.05893L5.37187 8.29448L5.49492 7.91128L5.16797 7.67573H5.57226L5.69883 7.29253ZM7.98047 7.29253L8.10351 7.67573H8.50781L8.18086 7.91128L8.30742 8.298L7.98047 8.05893L7.65351 8.29448L7.78008 7.91128L7.45312 7.67573H7.8539L7.98047 7.29253ZM10.2586 7.29253L10.3852 7.67573H10.7859L10.4625 7.91128L10.5855 8.298L10.2586 8.05893L9.93515 8.29448L10.0582 7.91128L9.73476 7.67573H10.1355L10.2586 7.29253ZM12.5402 7.29253L12.6633 7.67573H13.0676L12.7406 7.91128L12.8672 8.298L12.5402 8.05893L12.2133 8.29448L12.3398 7.91128L12.0129 7.67573H12.4172L12.5402 7.29253ZM2.28164 8.26284L2.40469 8.64604H2.80898L2.48203 8.88159L2.60508 9.26479L2.28164 9.02573L1.95469 9.26479L2.07773 8.87807L1.7543 8.64253H2.15508L2.28164 8.26284ZM4.55976 8.26284L4.68633 8.64604H5.08711L4.76015 8.88159L4.88672 9.26479L4.55976 9.02573L4.23281 9.26479L4.35937 8.87807L4.03242 8.64253H4.43672L4.55976 8.26284ZM6.8414 8.26284L6.96445 8.64604H7.36875L7.0418 8.88159L7.16484 9.26479L6.8414 9.02573L6.51445 9.26479L6.6375 8.87807L6.31406 8.64253H6.71484L6.8414 8.26284ZM9.11953 8.26284L9.24609 8.64604H9.64687L9.32344 8.88159L9.44648 9.26479L9.11953 9.02573L8.79609 9.26479L8.91914 8.87807L8.59219 8.64253H9L9.11953 8.26284ZM11.4012 8.26284L11.5242 8.64604H11.9285L11.6016 8.88159L11.7246 9.26479L11.4012 9.02573L11.0742 9.26479L11.1973 8.87807L10.8738 8.64253H11.2746L11.4012 8.26284ZM1.13906 9.22964L1.26562 9.61635H1.6664L1.34297 9.8519L1.46601 10.2316L1.13906 9.99604L0.815624 10.2316L0.93867 9.84839L0.611717 9.61284H1.01953L1.13906 9.22964ZM3.4207 9.22964L3.54375 9.61635H3.94805L3.62109 9.8519L3.74765 10.2316L3.4207 9.99604L3.09375 10.2316L3.22031 9.84839L2.89336 9.61284H3.29414L3.4207 9.22964ZM5.69883 9.22964L5.82539 9.61635H6.22265L5.89922 9.8519L6.02226 10.2316L5.69531 9.99604L5.37187 10.2316L5.49492 9.84839L5.16797 9.61284H5.57226L5.69883 9.22964ZM7.98047 9.22964L8.10351 9.61635H8.50781L8.18086 9.8519L8.30742 10.2316L7.98047 9.99604L7.65351 10.2316L7.78008 9.84839L7.45312 9.61284H7.8539L7.98047 9.22964ZM10.2586 9.22964L10.3852 9.61635H10.7859L10.4625 9.8519L10.5855 10.2316L10.2586 9.99604L9.93515 10.2316L10.0582 9.84839L9.73476 9.61284H10.1355L10.2586 9.22964ZM12.5402 9.22964L12.6633 9.61635H13.0676L12.7406 9.8519L12.8672 10.2316L12.5402 9.99604L12.2133 10.2316L12.3398 9.84839L12.0129 9.61284H12.4172L12.5402 9.22964ZM2.28164 10.1999L2.40469 10.5832H2.80898L2.48203 10.8187L2.60508 11.2054L2.28164 10.9664L1.95469 11.2019L2.07773 10.8187L1.7543 10.5832H2.15508L2.28164 10.1999ZM4.55976 10.1999L4.68633 10.5832H5.08711L4.76015 10.8187L4.88672 11.2054L4.55976 10.9664L4.23281 11.2019L4.35937 10.8187L4.03242 10.5832H4.43672L4.55976 10.1999ZM6.8414 10.1999L6.96445 10.5832H7.36875L7.0418 10.8187L7.16484 11.2054L6.8414 10.9664L6.51445 11.2019L6.6375 10.8187L6.31406 10.5832H6.71484L6.8414 10.1999ZM9.11953 10.1999L9.24609 10.5832H9.64687L9.32344 10.8187L9.44648 11.2054L9.11953 10.9664L8.79609 11.2019L8.91914 10.8187L8.59219 10.5832H9L9.11953 10.1999ZM11.4012 10.1999L11.5242 10.5832H11.9285L11.6016 10.8187L11.7246 11.2054L11.4012 10.9664L11.0742 11.2019L11.1973 10.8187L10.8738 10.5832H11.2746L11.4012 10.1999ZM1.13906 11.1703L1.26562 11.5535H1.6664L1.34297 11.789L1.46601 12.1722L1.13906 11.9367L0.815624 12.1722L0.93867 11.7855L0.611717 11.5499H1.01953L1.13906 11.1703ZM3.4207 11.1703L3.54375 11.5535H3.94805L3.62109 11.789L3.74765 12.1722L3.4207 11.9367L3.09375 12.1722L3.22031 11.7855L2.89336 11.5499H3.29414L3.4207 11.1703ZM5.69883 11.1703L5.82539 11.5535H6.22265L5.90625 11.789L6.0293 12.1722L5.70234 11.9367L5.3789 12.1722L5.50195 11.7855L5.175 11.5499H5.5793L5.69883 11.1703ZM7.98047 11.1703L8.10351 11.5535H8.50781L8.18086 11.789L8.30742 12.1722L7.98047 11.9367L7.65351 12.1722L7.78008 11.7855L7.45312 11.5499H7.8539L7.98047 11.1703ZM10.2586 11.1703L10.3852 11.5535H10.7859L10.4625 11.789L10.5855 12.1722L10.2586 11.9367L9.93515 12.1722L10.0582 11.7855L9.73476 11.5499H10.1355L10.2586 11.1703ZM12.5402 11.1703L12.6633 11.5535H13.0676L12.7406 11.789L12.8672 12.1722L12.5402 11.9367L12.2133 12.1722L12.3398 11.7855L12.0129 11.5499H12.4172L12.5402 11.1703Z" fill="white"/>
</g>
<rect x="0.5" y="3.5" width="23" height="17" stroke="black" stroke-opacity="0.08"/>
<defs>
<clipPath id="clip0_583_224">
<rect y="3" width="24" height="18" fill="white"/>
</clipPath>
</defs>
</svg>
