<svg width="129" height="40" viewBox="0 0 129 40" fill="none" xmlns="http://www.w3.org/2000/svg">
<path d="M114.976 0V27.4788H129V24.1814H118.32V0H114.976Z" fill="white"/>
<path d="M99.095 30.6847H93.8941C92.3153 27.5704 89.5291 25.0973 86.0929 23.9982L89.7149 8.06045H109.311V23.4486C104.76 24.0898 101.045 26.8376 99.095 30.6847ZM112.562 4.85458H86.9287L82.0065 26.746C86.5572 26.746 90.365 29.7687 91.4795 33.8905H101.324C102.438 29.7687 106.246 26.746 110.797 26.746C111.354 26.746 111.911 26.8376 112.469 26.8376L112.562 4.85458Z" fill="white"/>
<path d="M72.4406 36.3636C72.4406 31.967 75.4125 28.3032 79.4989 27.1124L84.514 4.85458H73.5551L71.0475 15.8461H64.2678L66.6825 4.85458H45.3218L36.5918 20.9755L35.1058 4.85458H1.95032L0 13.7394H6.96544L1.95032 36.3636H12.9093L17.9244 13.7394H24.8898L28.1404 36.3636H38.4492L55.1663 8.06045L48.851 36.3636H59.8099L62.2246 25.1889H69.0972L66.5896 36.3636H72.4406Z" fill="white"/>
<path d="M122.406 7.87725C122.592 7.87725 122.778 7.87725 122.963 7.78566C123.149 7.69406 123.242 7.60247 123.428 7.51087C123.613 7.41927 123.613 7.23608 123.706 7.05289C123.799 6.8697 123.799 6.6865 123.799 6.50331C123.799 6.32012 123.799 6.13693 123.706 5.95374C123.613 5.77054 123.521 5.67895 123.428 5.49576C123.335 5.40416 123.149 5.31256 122.963 5.22097C122.778 5.12937 122.592 5.12937 122.406 5.12937C122.22 5.12937 122.035 5.12937 121.849 5.22097C121.663 5.31256 121.57 5.40416 121.384 5.49576C121.292 5.58735 121.199 5.77054 121.106 5.95374C121.013 6.13693 121.013 6.32012 121.013 6.50331C121.013 6.6865 121.013 6.8697 121.106 7.05289C121.199 7.23608 121.292 7.32768 121.384 7.51087C121.477 7.60247 121.663 7.69406 121.849 7.78566C122.035 7.87725 122.22 7.87725 122.406 7.87725ZM122.406 8.15204C122.22 8.15204 121.942 8.15204 121.756 8.06045C121.57 7.96885 121.384 7.87725 121.199 7.69406C121.013 7.51087 120.92 7.41927 120.827 7.14449C120.734 6.96129 120.734 6.7781 120.734 6.50331C120.734 6.32012 120.734 6.04533 120.827 5.86214C120.92 5.67895 121.013 5.49576 121.199 5.31256C121.384 5.12937 121.477 5.03778 121.756 4.94618C121.942 4.85458 122.127 4.85458 122.406 4.85458C122.592 4.85458 122.87 4.85458 123.056 4.94618C123.242 5.03778 123.428 5.12937 123.613 5.31256C123.799 5.49576 123.892 5.58735 123.985 5.86214C124.078 6.04533 124.078 6.22852 124.078 6.50331C124.078 6.6865 124.078 6.96129 123.985 7.14449C123.892 7.32768 123.799 7.51087 123.613 7.69406C123.428 7.87725 123.335 7.96885 123.056 8.06045C122.87 8.06045 122.592 8.15204 122.406 8.15204Z" fill="white"/>
<path d="M122.313 6.41172H122.499C122.592 6.41172 122.592 6.41172 122.685 6.41172C122.777 6.41172 122.777 6.41172 122.777 6.32013C122.777 6.32013 122.87 6.22853 122.87 6.13694C122.87 6.04534 122.87 6.04534 122.87 5.95374L122.777 5.86215H122.685C122.592 5.86215 122.592 5.86215 122.499 5.86215H122.034V6.41172H122.313ZM123.056 7.23609H122.87L122.406 6.50332H122.034V7.23609H121.849V5.67896H122.499C122.685 5.67896 122.87 5.67896 122.963 5.77055C123.056 5.86215 123.056 5.95374 123.056 6.04534C123.056 6.13694 123.056 6.22853 123.056 6.22853C123.056 6.32013 122.963 6.32013 122.963 6.32013C122.963 6.32013 122.87 6.41172 122.777 6.41172C122.685 6.41172 122.685 6.41172 122.592 6.41172L123.056 7.23609Z" fill="white"/>
<path d="M110.89 32.425C113.026 32.425 114.791 34.1653 114.883 36.272H118.134C118.134 32.3334 114.883 29.1275 110.89 29.1275C106.896 29.1275 103.646 32.3334 103.646 36.272H106.896C106.896 34.1653 108.661 32.425 110.89 32.425Z" fill="white"/>
<path d="M82.0994 32.425C84.2355 32.425 86.0001 34.1653 86.0929 36.272H89.3435C89.3435 32.3334 86.0929 29.1275 82.0994 29.1275C78.1059 29.1275 74.8553 32.3334 74.8553 36.272H78.1059C78.1988 34.1653 79.9633 32.425 82.0994 32.425Z" fill="white"/>
</svg>
