<svg width="24" height="24" viewBox="0 0 24 24" fill="currentColor" xmlns="http://www.w3.org/2000/svg">
<path d="M12.5938 13.0625H10.2188C8.54883 13.0625 7.25 14.3984 7.25 16.0312C7.25 16.3652 7.50977 16.625 7.84375 16.625H14.9688C15.2656 16.625 15.5625 16.3652 15.5625 16.0312C15.5625 14.3984 14.2266 13.0625 12.5938 13.0625ZM11.4062 11.875C12.7051 11.875 13.7812 10.8359 13.7812 9.5C13.7812 8.20117 12.7051 7.125 11.4062 7.125C10.0703 7.125 9.03125 8.20117 9.03125 9.5C9.03125 10.8359 10.0703 11.875 11.4062 11.875ZM20.9062 14.25H20.3125V17.8125H20.9062C21.2031 17.8125 21.5 17.5527 21.5 17.2188V14.8438C21.5 14.5469 21.2031 14.25 20.9062 14.25ZM20.9062 4.75H20.3125V8.3125H20.9062C21.2031 8.3125 21.5 8.05273 21.5 7.71875V5.34375C21.5 5.04688 21.2031 4.75 20.9062 4.75ZM20.9062 9.5H20.3125V13.0625H20.9062C21.2031 13.0625 21.5 12.8027 21.5 12.4688V10.0938C21.5 9.79688 21.2031 9.5 20.9062 9.5ZM16.75 2.375H6.0625C4.72656 2.375 3.6875 3.45117 3.6875 4.75V19C3.6875 20.3359 4.72656 21.375 6.0625 21.375H16.75C18.0488 21.375 19.125 20.3359 19.125 19V4.75C19.125 3.45117 18.0488 2.375 16.75 2.375ZM17.3438 19C17.3438 19.334 17.0469 19.5938 16.75 19.5938H6.0625C5.72852 19.5938 5.46875 19.334 5.46875 19V4.75C5.46875 4.45312 5.72852 4.15625 6.0625 4.15625H16.75C17.0469 4.15625 17.3438 4.45312 17.3438 4.75V19Z" fill="currentColor"/>
</svg>
