<svg width="24" height="24" viewBox="0 0 24 24" fill="currentColor" xmlns="http://www.w3.org/2000/svg">
<path d="M14.9316 10.502C14.5977 10.7617 14.1152 10.7617 13.7812 10.502L9.55078 6.79102L3.87305 10.5391C3.46484 10.8359 2.9082 10.7246 2.64844 10.3164C2.35156 9.9082 2.46289 9.35156 2.87109 9.05469L9.10547 4.93555C9.43945 4.71289 9.88477 4.71289 10.1816 4.97266L14.375 8.64648L20.0156 3.78516C20.3867 3.48828 20.9434 3.52539 21.2773 3.89648C21.5742 4.26758 21.5371 4.82422 21.166 5.1582L14.9316 10.502ZM11.4062 12.4688V18.4062C11.4062 19.4082 10.5898 20.1875 9.625 20.1875C8.62305 20.1875 7.84375 19.4082 7.84375 18.4062V12.4688C7.84375 11.5039 8.62305 10.6875 9.625 10.6875C10.5898 10.6875 11.4062 11.5039 11.4062 12.4688ZM9.92188 18.4062V12.4688C9.92188 12.3203 9.77344 12.1719 9.625 12.1719C9.43945 12.1719 9.32812 12.3203 9.32812 12.4688V18.4062C9.32812 18.5918 9.43945 18.7031 9.625 18.7031C9.77344 18.7031 9.92188 18.5918 9.92188 18.4062ZM6.65625 16.0312V18.4062C6.65625 19.4082 5.83984 20.1875 4.875 20.1875C3.87305 20.1875 3.09375 19.4082 3.09375 18.4062V16.0312C3.09375 15.0664 3.87305 14.25 4.875 14.25C5.83984 14.25 6.65625 15.0664 6.65625 16.0312ZM5.17188 18.4062V16.0312C5.17188 15.8828 5.02344 15.7344 4.875 15.7344C4.68945 15.7344 4.57812 15.8828 4.57812 16.0312V18.4062C4.57812 18.5918 4.68945 18.7031 4.875 18.7031C5.02344 18.7031 5.17188 18.5918 5.17188 18.4062ZM12.5938 14.8438C12.5938 13.8789 13.373 13.0625 14.375 13.0625C15.3398 13.0625 16.1562 13.8789 16.1562 14.8438V18.4062C16.1562 19.4082 15.3398 20.1875 14.375 20.1875C13.373 20.1875 12.5938 19.4082 12.5938 18.4062V14.8438ZM14.375 14.5469C14.1895 14.5469 14.0781 14.6953 14.0781 14.8438V18.4062C14.0781 18.5918 14.1895 18.7031 14.375 18.7031C14.5234 18.7031 14.6719 18.5918 14.6719 18.4062V14.8438C14.6719 14.6953 14.5234 14.5469 14.375 14.5469ZM20.9062 12.4688V18.4062C20.9062 19.4082 20.0898 20.1875 19.125 20.1875C18.123 20.1875 17.3438 19.4082 17.3438 18.4062V12.4688C17.3438 11.5039 18.123 10.6875 19.125 10.6875C20.0898 10.6875 20.9062 11.5039 20.9062 12.4688ZM19.4219 18.4062V12.4688C19.4219 12.3203 19.2734 12.1719 19.125 12.1719C18.9395 12.1719 18.8281 12.3203 18.8281 12.4688V18.4062C18.8281 18.5918 18.9395 18.7031 19.125 18.7031C19.2734 18.7031 19.4219 18.5918 19.4219 18.4062Z" fill="currentColor"/>
</svg>
