<svg width="24" height="24" viewBox="0 0 24 24" fill="currentColor" xmlns="http://www.w3.org/2000/svg">
<path d="M15.8594 10.6875H12.5938V8.60938C12.5938 8.27539 12.3711 7.94141 12.0371 7.79297C11.7031 7.68164 11.332 7.71875 11.0723 7.97852L7.50977 11.2812C7.32422 11.4297 7.25 11.6895 7.25 11.9121C7.25 12.209 7.32422 12.4316 7.50977 12.5801L11.0723 15.8086C11.332 16.0684 11.7402 16.1055 12.0371 15.957C12.3711 15.8457 12.5938 15.5117 12.5938 15.1777V13.0996L15.8594 13.0625C16.3418 13.0625 16.75 12.6914 16.75 12.1719V11.5781C16.75 11.0957 16.3418 10.6875 15.8594 10.6875ZM12 2.375C6.73047 2.375 2.5 6.64258 2.5 11.875C2.5 17.1445 6.73047 21.375 12 21.375C17.2324 21.375 21.5 17.1445 21.5 11.875C21.5 6.64258 17.2324 2.375 12 2.375ZM12 19.5938C7.73242 19.5938 4.28125 16.1426 4.28125 11.875C4.28125 7.64453 7.73242 4.15625 12 4.15625C16.2305 4.15625 19.7188 7.64453 19.7188 11.875C19.7188 16.1426 16.2305 19.5938 12 19.5938Z" fill="currentColor"/>
</svg>
