<svg width="24" height="24" viewBox="0 0 24 24" fill="currentColor" xmlns="http://www.w3.org/2000/svg">
<path d="M14.0781 5.34375C13.5586 5.34375 13.1875 4.97266 13.1875 4.45312C13.1875 3.9707 13.5586 3.5625 14.0781 3.5625H19.4219C19.9043 3.5625 20.3125 3.9707 20.3125 4.45312V9.79688C20.3125 10.3164 19.9043 10.6875 19.4219 10.6875C18.9023 10.6875 18.5312 10.3164 18.5312 9.79688V6.60547L11.1094 13.9902C10.7754 14.3613 10.2188 14.3613 9.88477 13.9902C9.51367 13.6562 9.51367 13.0996 9.88477 12.7285L17.2695 5.34375H14.0781ZM3.6875 6.82812C3.6875 5.71484 4.61523 4.75 5.76562 4.75H9.92188C10.4043 4.75 10.8125 5.1582 10.8125 5.64062C10.8125 6.16016 10.4043 6.53125 9.92188 6.53125H5.76562C5.58008 6.53125 5.46875 6.67969 5.46875 6.82812V18.1094C5.46875 18.2949 5.58008 18.4062 5.76562 18.4062H17.0469C17.1953 18.4062 17.3438 18.2949 17.3438 18.1094V13.9531C17.3438 13.4707 17.7148 13.0625 18.2344 13.0625C18.7168 13.0625 19.125 13.4707 19.125 13.9531V18.1094C19.125 19.2598 18.1602 20.1875 17.0469 20.1875H5.76562C4.61523 20.1875 3.6875 19.2598 3.6875 18.1094V6.82812Z" fill="currentColor"/>
</svg>
