<svg width="24" height="24" viewBox="0 0 24 24" fill="currentColor" xmlns="http://www.w3.org/2000/svg">
<path d="M11.332 14.8438L9.32812 17.0332V4.49023C9.32812 3.9707 8.91992 3.5625 8.4375 3.5625C7.91797 3.5625 7.54688 3.9707 7.54688 4.49023V17.0332L5.50586 14.8438C5.32031 14.6582 5.09766 14.584 4.875 14.584C4.65234 14.584 4.42969 14.6582 4.24414 14.8066C3.87305 15.1406 3.87305 15.6973 4.20703 16.0684L7.73242 19.9277C8.06641 20.2988 8.69727 20.2988 9.03125 19.9277L12.5566 16.0684C12.8906 15.6973 12.8906 15.1406 12.5195 14.8066C12.2227 14.4727 11.666 14.5098 11.332 14.8438ZM19.7559 7.71875L16.2305 3.85938C15.8965 3.48828 15.2656 3.48828 14.9316 3.85938L11.332 7.71875C10.998 8.08984 10.998 8.64648 11.3691 8.98047C11.5547 9.12891 11.7773 9.20312 12 9.20312C12.2227 9.20312 12.4453 9.12891 12.6309 8.90625L14.6719 6.75391V19.2969C14.6719 19.8164 15.043 20.1875 15.5625 20.1875C16.0449 20.1875 16.4531 19.8164 16.4531 19.2969V6.75391L18.457 8.94336C18.791 9.27734 19.3477 9.31445 19.7188 8.98047C20.0898 8.64648 20.0898 8.08984 19.7559 7.71875Z" fill="currentColor"/>
</svg>
