<svg width="24" height="24" viewBox="0 0 24 24" fill="currentColor" xmlns="http://www.w3.org/2000/svg">
<path d="M18.4941 5.64062V18.1094C18.4941 18.6289 18.8652 19 19.3848 19C19.9043 19 20.3125 18.6289 20.3125 18.1094V5.64062C20.3125 5.1582 19.9043 4.75 19.3848 4.75C18.9023 4.75 18.4941 5.1582 18.4941 5.64062ZM10.1816 7.79297L13.5957 11.0215H4.57812C4.05859 10.9844 3.6875 11.3926 3.6875 11.875C3.6875 12.3945 4.05859 12.7656 4.57812 12.7656H13.5957L10.1816 15.9941C9.99609 16.1797 9.92188 16.4023 9.92188 16.625C9.92188 16.8477 9.99609 17.0703 10.1445 17.2559C10.4785 17.627 11.0352 17.627 11.4062 17.293L16.4531 12.543C16.8242 12.209 16.8242 11.5781 16.4531 11.2441L11.4062 6.49414C11.0352 6.16016 10.4785 6.16016 10.1445 6.53125C9.81055 6.90234 9.81055 7.45898 10.1816 7.79297Z" fill="currentColor"/>
</svg>
