<svg width="24" height="24" viewBox="0 0 24 24" fill="currentColor" xmlns="http://www.w3.org/2000/svg">
<path d="M18.8652 13.3965L12.6309 19.9277C12.4453 20.1133 12.2227 20.1875 12 20.1875C11.7402 20.1875 11.5176 20.1133 11.332 19.9277L5.09766 13.3965C4.76367 13.0254 4.76367 12.4688 5.13477 12.1348C5.46875 11.8008 6.0625 11.8008 6.39648 12.1719L11.1094 17.1074V4.49023C11.1094 3.9707 11.4805 3.59961 11.9629 3.59961C12.4082 3.59961 12.8906 3.9707 12.8906 4.49023V17.1074L17.5664 12.1719C17.9004 11.8008 18.4941 11.8008 18.8281 12.1348C19.1992 12.4688 19.1992 13.0254 18.8652 13.3965Z" fill="currentColor"/>
</svg>
