<svg width="24" height="24" viewBox="0 0 24 24" fill="currentColor" xmlns="http://www.w3.org/2000/svg">
<path d="M5.09766 10.3906L11.332 3.85938C11.5176 3.67383 11.7402 3.59961 12 3.59961C12.2227 3.59961 12.4453 3.67383 12.6309 3.85938L18.8652 10.3906C19.1992 10.7617 19.1992 11.3184 18.8281 11.6523C18.4941 11.9863 17.9004 11.9863 17.5664 11.6152L12.8906 6.67969V19.2969C12.8906 19.8164 12.4824 20.1875 12 20.1875C11.5547 20.1875 11.1094 19.8164 11.1094 19.2969V6.67969L6.39648 11.6152C6.0625 11.9863 5.46875 11.9863 5.13477 11.6523C4.76367 11.3184 4.76367 10.7246 5.09766 10.3906Z" fill="currentColor"/>
</svg>
