<svg width="24" height="24" viewBox="0 0 24 24" fill="currentColor" xmlns="http://www.w3.org/2000/svg">
<path d="M13.4844 5.00977L20.0156 11.2441C20.2012 11.4297 20.3125 11.6523 20.3125 11.9121C20.3125 12.1348 20.2012 12.3574 20.0156 12.543L13.4844 18.7773C13.1504 19.1113 12.5566 19.1113 12.2227 18.7402C11.8887 18.4062 11.8887 17.8125 12.2598 17.4785L17.1953 12.8027H4.57812C4.05859 12.8027 3.6875 12.3945 3.6875 11.9121C3.6875 11.3926 4.05859 11.0215 4.57812 11.0215H17.1953L12.2598 6.30859C11.8887 5.97461 11.8887 5.38086 12.2227 5.04688C12.5566 4.67578 13.1133 4.67578 13.4844 5.00977Z" fill="currentColor"/>
</svg>
