<svg width="24" height="24" viewBox="0 0 24 24" fill="currentColor" xmlns="http://www.w3.org/2000/svg">
<path d="M5.46875 18.1094V5.64062C5.46875 5.1582 5.06055 4.75 4.57812 4.75C4.05859 4.75 3.6875 5.1582 3.6875 5.64062V18.1094C3.6875 18.6289 4.05859 19 4.57812 19C5.06055 19 5.46875 18.6289 5.46875 18.1094ZM13.7812 15.9941L10.3672 12.7656H19.3848C19.9043 12.7656 20.3125 12.3945 20.3125 11.875C20.3125 11.3926 19.9043 11.0215 19.3848 11.0215H10.3672L13.7812 7.83008C13.9668 7.64453 14.041 7.42188 14.041 7.16211C14.041 6.93945 13.9668 6.75391 13.8184 6.56836C13.4844 6.19727 12.9277 6.19727 12.5566 6.53125L7.50977 11.2812C7.13867 11.6152 7.13867 12.2461 7.50977 12.5801L12.5566 17.3301C12.9277 17.6641 13.4844 17.627 13.8184 17.293C14.1523 16.8848 14.1523 16.3281 13.7812 15.9941Z" fill="currentColor"/>
</svg>
