<svg width="24" height="24" viewBox="0 0 24 24" fill="currentColor" xmlns="http://www.w3.org/2000/svg">
<path d="M20.6094 15.1406H5.43164L8.17773 12.209C8.51172 11.8379 8.51172 11.2812 8.14062 10.9473C7.76953 10.6133 7.21289 10.6133 6.87891 10.9844L2.72266 15.4375C2.38867 15.7715 2.38867 16.3281 2.72266 16.6621L6.87891 21.1152C7.06445 21.3008 7.28711 21.375 7.54688 21.375C7.73242 21.375 7.95508 21.3008 8.14062 21.1523C8.51172 20.8184 8.51172 20.2617 8.17773 19.8906L5.43164 16.9219H20.6094C21.0918 16.9219 21.5 16.5508 21.5 16.0312C21.5 15.5488 21.0918 15.1406 20.6094 15.1406ZM3.39062 8.60938H18.5312L15.7852 11.5781C15.4512 11.9492 15.4512 12.5059 15.8223 12.8398C16.1934 13.1738 16.75 13.1738 17.084 12.8027L21.2402 8.34961C21.5742 8.01562 21.5742 7.45898 21.2402 7.125L17.084 2.67188C16.8984 2.48633 16.6758 2.375 16.4531 2.375C16.2305 2.375 16.0078 2.48633 15.8223 2.63477C15.4512 2.96875 15.4512 3.52539 15.7852 3.89648L18.5312 6.82812H3.39062C2.87109 6.82812 2.5 7.23633 2.5 7.71875C2.5 8.23828 2.87109 8.60938 3.39062 8.60938Z" fill="currentColor"/>
</svg>
