<svg width="24" height="24" viewBox="0 0 24 24" fill="currentColor" xmlns="http://www.w3.org/2000/svg">
<path d="M20.2754 11.875C20.2754 12.3945 19.8672 12.8027 19.3848 12.8027H6.76758L11.7031 17.4785C12.0742 17.8125 12.0742 18.4062 11.7402 18.7402C11.4062 19.1113 10.8496 19.1113 10.4785 18.7773L3.94727 12.543C3.76172 12.3574 3.6875 12.1348 3.6875 11.875C3.6875 11.6523 3.76172 11.4297 3.94727 11.2441L10.4785 5.00977C10.8496 4.67578 11.4062 4.67578 11.7402 5.04688C12.0742 5.38086 12.0742 5.97461 11.7031 6.30859L6.76758 10.9844H19.3848C19.9043 10.9844 20.2754 11.3926 20.2754 11.875Z" fill="currentColor"/>
</svg>
