<svg width="24" height="24" viewBox="0 0 24 24" fill="currentColor" xmlns="http://www.w3.org/2000/svg">
<path d="M20.3125 15.4375V4.15625C20.3125 3.19141 19.4961 2.375 18.5312 2.375H6.65625C4.98633 2.375 3.6875 3.71094 3.6875 5.34375V18.4062C3.6875 20.0762 4.98633 21.375 6.65625 21.375H19.4219C19.9043 21.375 20.3125 21.0039 20.3125 20.4844C20.3125 20.002 19.9043 19.5938 19.4219 19.5938H19.125V17.1445C19.793 16.8848 20.3125 16.2168 20.3125 15.4375ZM17.3438 19.5938H6.65625C5.98828 19.5938 5.46875 19.0742 5.46875 18.4062C5.46875 17.7754 5.98828 17.2188 6.65625 17.2188H17.3438V19.5938ZM18.5312 15.4375H6.65625C6.21094 15.4375 5.80273 15.5488 5.46875 15.6973V5.34375C5.46875 4.71289 5.98828 4.15625 6.65625 4.15625H18.5312V15.4375ZM12.2969 5.34375C9.81055 5.34375 7.84375 7.34766 7.84375 9.79688C7.84375 12.2832 9.81055 14.25 12.2969 14.25C14.7461 14.25 16.75 12.2832 16.75 9.79688C16.75 7.34766 14.7461 5.34375 12.2969 5.34375ZM9.06836 10.3906H10.3672C10.4043 11.2812 10.5527 12.0605 10.8125 12.7285C9.92188 12.2461 9.25391 11.4297 9.06836 10.3906ZM10.3672 9.20312H9.06836C9.25391 8.20117 9.92188 7.34766 10.8125 6.90234C10.5527 7.5332 10.4043 8.34961 10.3672 9.20312ZM12.2969 12.9883C12.0371 12.6914 11.6289 11.8008 11.5547 10.3906H13.0391C12.9277 11.8008 12.5195 12.6914 12.2969 12.9883ZM11.5547 9.20312C11.6289 7.83008 12.0371 6.93945 12.2969 6.64258C12.5195 6.93945 12.9277 7.83008 13.0391 9.20312H11.5547ZM13.7441 12.7285C13.9668 12.0605 14.1523 11.2812 14.1895 10.3906H15.4883C15.3027 11.4297 14.6348 12.2461 13.7441 12.7285ZM14.1895 9.20312C14.1523 8.34961 14.0039 7.5332 13.7441 6.90234C14.6348 7.34766 15.3027 8.20117 15.4883 9.20312H14.1895Z" fill="currentColor"/>
</svg>
