<svg width="24" height="24" viewBox="0 0 24 24" fill="currentColor" xmlns="http://www.w3.org/2000/svg">
<path d="M17.2695 13.9531C17.5664 13.7676 17.9004 13.5078 18.1602 13.0996C18.5312 12.4316 18.4941 11.7637 18.4941 11.3555C18.4941 11.3184 18.4941 11.3184 18.4941 11.2812C18.7168 10.9102 19.0879 10.3164 19.0879 9.5C19.0879 8.7207 18.6797 8.12695 18.457 7.79297C18.457 7.79297 18.457 7.79297 18.457 7.75586C18.457 7.75586 18.457 7.75586 18.457 7.71875C18.457 7.31055 18.4941 6.64258 18.123 5.9375C17.7148 5.26953 17.1211 4.97266 16.75 4.78711C16.7129 4.78711 16.7129 4.75 16.7129 4.75C16.7129 4.75 16.7129 4.75 16.6758 4.71289C16.4902 4.3418 16.1934 3.74805 15.5254 3.33984C15.1172 3.11719 14.6719 3.00586 14.1152 3.00586C14.0039 3.00586 13.8555 3.00586 13.7441 3.00586H13.707H13.6699C13.373 2.7832 12.7793 2.375 12 2.375C11.1836 2.375 10.5898 2.7832 10.2559 3.00586C10.2559 3.00586 10.2559 3.00586 10.2188 3.00586C10.2188 3.00586 10.2188 3.00586 10.1816 3.00586C10.0703 3.00586 9.92188 3.00586 9.81055 3.00586C9.29102 3.00586 8.80859 3.11719 8.40039 3.33984C7.73242 3.74805 7.43555 4.3418 7.25 4.71289C7.25 4.75 7.21289 4.75 7.21289 4.75C7.21289 4.75 7.21289 4.78711 7.17578 4.78711C6.80469 4.97266 6.21094 5.26953 5.80273 5.9375C5.43164 6.64258 5.46875 7.31055 5.46875 7.71875C5.46875 7.75586 5.46875 7.75586 5.46875 7.75586C5.46875 7.79297 5.46875 7.79297 5.46875 7.79297C5.24609 8.12695 4.875 8.7207 4.875 9.5C4.875 10.3164 5.24609 10.9102 5.46875 11.2441C5.46875 11.2441 5.46875 11.2441 5.46875 11.2812C5.46875 11.2812 5.46875 11.2812 5.46875 11.3184C5.46875 11.7266 5.43164 12.3945 5.80273 13.0625C6.0625 13.5078 6.39648 13.8047 6.73047 13.9902L4.91211 18.4805C4.80078 18.7773 4.83789 19.1113 5.06055 19.3711C5.24609 19.5566 5.46875 19.7051 5.72852 19.7051C5.80273 19.7051 5.87695 19.668 5.91406 19.668L7.58398 19.334L8.40039 20.8926C8.54883 21.1895 8.8457 21.375 9.17969 21.375C9.2168 21.375 9.2168 21.375 9.2168 21.375C9.58789 21.375 9.88477 21.1523 9.99609 20.8555L11.7031 16.625H12.2969L13.9668 20.8555C14.0781 21.1523 14.375 21.375 14.7461 21.375C14.7461 21.375 14.7461 21.375 14.7832 21.375C15.1172 21.375 15.4141 21.2266 15.5625 20.8926L16.3789 19.334L18.0488 19.668C18.0859 19.668 18.1602 19.7051 18.2344 19.7051C18.4941 19.7051 18.7168 19.5566 18.9023 19.3711C19.125 19.1113 19.1621 18.7773 19.0508 18.4805L17.2695 13.9531ZM16.6016 12.1719C16.3789 12.5801 15.7852 12.6914 15.4512 12.9883C15.1543 13.3223 15.043 13.916 14.6348 14.1387C14.5234 14.2129 14.3379 14.25 14.1523 14.25C13.9668 14.25 13.7812 14.2129 13.5957 14.2129C13.4844 14.2129 13.373 14.25 13.2617 14.25C12.8164 14.3613 12.4453 14.8438 12 14.8438C11.5176 14.8438 11.1465 14.3984 10.7012 14.25C10.5898 14.25 10.4785 14.2129 10.3672 14.2129C10.1816 14.2129 9.99609 14.2129 9.81055 14.2129C9.625 14.2129 9.43945 14.2129 9.29102 14.1016C8.91992 13.916 8.80859 13.3223 8.51172 12.9883C8.17773 12.6914 7.58398 12.5801 7.36133 12.1719C7.13867 11.8008 7.36133 11.2441 7.25 10.7988C7.10156 10.3535 6.65625 9.98242 6.65625 9.5C6.65625 9.05469 7.10156 8.68359 7.25 8.23828C7.36133 7.79297 7.13867 7.23633 7.36133 6.82812C7.58398 6.45703 8.17773 6.3457 8.51172 6.04883C8.80859 5.71484 8.91992 5.12109 9.32812 4.89844C9.43945 4.82422 9.625 4.78711 9.81055 4.78711C9.99609 4.78711 10.1816 4.82422 10.3672 4.82422C10.4785 4.82422 10.5898 4.78711 10.7012 4.75C11.1465 4.63867 11.5176 4.15625 12 4.15625C12.4453 4.15625 12.8164 4.63867 13.2617 4.78711C13.373 4.78711 13.4844 4.82422 13.5957 4.82422C13.7812 4.82422 13.9668 4.78711 14.1523 4.78711C14.3379 4.78711 14.5234 4.82422 14.6719 4.89844C15.043 5.12109 15.1543 5.71484 15.4512 6.04883C15.7852 6.3457 16.3789 6.45703 16.6016 6.82812C16.8242 7.23633 16.6016 7.79297 16.75 8.23828C16.8613 8.68359 17.3438 9.05469 17.3438 9.5C17.3438 9.98242 16.8613 10.3535 16.7129 10.7988C16.6016 11.2441 16.8242 11.8008 16.6016 12.1719ZM12 7.125C10.6641 7.125 9.625 8.20117 9.625 9.5C9.625 10.8359 10.6641 11.875 12 11.875C13.2988 11.875 14.375 10.8359 14.375 9.5C14.375 8.20117 13.2988 7.125 12 7.125Z" fill="currentColor"/>
</svg>
