<svg width="24" height="24" viewBox="0 0 24 24" fill="currentColor" xmlns="http://www.w3.org/2000/svg">
<path d="M8.4375 15.4375H7.25C6.91602 15.4375 6.65625 15.7344 6.65625 16.0312V17.2188C6.65625 17.5527 6.91602 17.8125 7.25 17.8125H8.4375C8.73438 17.8125 9.03125 17.5527 9.03125 17.2188V16.0312C9.03125 15.7344 8.73438 15.4375 8.4375 15.4375ZM7.25 8.3125H8.4375C8.73438 8.3125 9.03125 8.05273 9.03125 7.71875V6.53125C9.03125 6.23438 8.73438 5.9375 8.4375 5.9375H7.25C6.91602 5.9375 6.65625 6.23438 6.65625 6.53125V7.71875C6.65625 8.05273 6.91602 8.3125 7.25 8.3125ZM16.4531 15.7344H11.1094C10.5898 15.7344 10.2188 16.1426 10.2188 16.625C10.2188 17.1445 10.5898 17.5156 11.1094 17.5156H16.4531C16.9355 17.5156 17.3438 17.1445 17.3438 16.625C17.3438 16.1426 16.9355 15.7344 16.4531 15.7344ZM10.0332 10.5762C9.81055 10.3535 9.40234 10.3535 9.17969 10.5762L7.84375 11.9492L7.36133 11.4668C7.13867 11.2441 6.73047 11.2441 6.50781 11.4668C6.28516 11.6895 6.28516 12.0977 6.50781 12.3203L7.39844 13.2109C7.50977 13.3223 7.6582 13.3594 7.84375 13.3594C7.99219 13.3594 8.14062 13.3223 8.25195 13.2109L10.0332 11.4297C10.2559 11.207 10.2559 10.7988 10.0332 10.5762ZM16.4531 10.9844H12.2969C11.7773 10.9844 11.4062 11.3926 11.4062 11.875C11.4062 12.3945 11.7773 12.7656 12.2969 12.7656H16.4531C16.9355 12.7656 17.3438 12.3945 17.3438 11.875C17.3438 11.3926 16.9355 10.9844 16.4531 10.9844ZM17.9375 2.375H6.0625C4.72656 2.375 3.6875 3.45117 3.6875 4.75V19C3.6875 20.3359 4.72656 21.375 6.0625 21.375H17.9375C19.2363 21.375 20.3125 20.3359 20.3125 19V4.75C20.3125 3.45117 19.2363 2.375 17.9375 2.375ZM18.5312 19C18.5312 19.334 18.2344 19.5938 17.9375 19.5938H6.0625C5.72852 19.5938 5.46875 19.334 5.46875 19V4.75C5.46875 4.45312 5.72852 4.15625 6.0625 4.15625H17.9375C18.2344 4.15625 18.5312 4.45312 18.5312 4.75V19ZM16.4531 6.23438H11.1094C10.5898 6.23438 10.2188 6.64258 10.2188 7.125C10.2188 7.64453 10.5898 8.01562 11.1094 8.01562H16.4531C16.9355 8.01562 17.3438 7.64453 17.3438 7.125C17.3438 6.64258 16.9355 6.23438 16.4531 6.23438Z" fill="currentColor"/>
</svg>
