<svg width="24" height="24" viewBox="0 0 24 24" fill="currentColor" xmlns="http://www.w3.org/2000/svg">
<path d="M3.6875 5.64062C3.6875 5.1582 4.05859 4.75 4.57812 4.75H19.4219C19.9043 4.75 20.3125 5.1582 20.3125 5.64062C20.3125 6.16016 19.9043 6.53125 19.4219 6.53125H4.57812C4.05859 6.53125 3.6875 6.16016 3.6875 5.64062ZM3.6875 11.5781C3.6875 11.0957 4.05859 10.6875 4.57812 10.6875H19.4219C19.9043 10.6875 20.3125 11.0957 20.3125 11.5781C20.3125 12.0977 19.9043 12.4688 19.4219 12.4688H4.57812C4.05859 12.4688 3.6875 12.0977 3.6875 11.5781ZM19.4219 18.4062H4.57812C4.05859 18.4062 3.6875 18.0352 3.6875 17.5156C3.6875 17.0332 4.05859 16.625 4.57812 16.625H19.4219C19.9043 16.625 20.3125 17.0332 20.3125 17.5156C20.3125 18.0352 19.9043 18.4062 19.4219 18.4062Z" fill="currentColor"/>
</svg>
