<svg width="24" height="24" viewBox="0 0 24 24" fill="currentColor" xmlns="http://www.w3.org/2000/svg">
<path d="M17.9375 14.25H4.875V9.5H17.9375V14.25ZM1.3125 8.90625C1.3125 7.27344 2.61133 5.9375 4.28125 5.9375H18.5312C20.1641 5.9375 21.5 7.27344 21.5 8.90625V9.5C22.1309 9.5 22.6875 10.0566 22.6875 10.6875V13.0625C22.6875 13.7305 22.1309 14.25 21.5 14.25V14.8438C21.5 16.5137 20.1641 17.8125 18.5312 17.8125H4.28125C2.61133 17.8125 1.3125 16.5137 1.3125 14.8438V8.90625ZM4.28125 7.71875C3.61328 7.71875 3.09375 8.27539 3.09375 8.90625V14.8438C3.09375 15.5117 3.61328 16.0312 4.28125 16.0312H18.5312C19.1621 16.0312 19.7188 15.5117 19.7188 14.8438V8.90625C19.7188 8.27539 19.1621 7.71875 18.5312 7.71875H4.28125Z" fill="currentColor"/>
</svg>
