<svg width="24" height="24" viewBox="0 0 24 24" fill="currentColor" xmlns="http://www.w3.org/2000/svg">
<path d="M13.1875 3.5625V4.23047C15.8594 4.67578 17.9375 7.01367 17.9375 9.79688V11.0586C17.9375 12.7285 18.4941 14.3613 19.5332 15.6973L20.0898 16.3652C20.3125 16.6621 20.3496 17.0332 20.2012 17.3301C20.0527 17.627 19.7559 17.8125 19.4219 17.8125H4.57812C4.20703 17.8125 3.91016 17.627 3.76172 17.3301C3.61328 17.0332 3.65039 16.6621 3.87305 16.3652L4.42969 15.6973C5.46875 14.3613 6.0625 12.7285 6.0625 11.0586V9.79688C6.0625 7.01367 8.10352 4.67578 10.8125 4.23047V3.5625C10.8125 2.93164 11.332 2.375 12 2.375C12.6309 2.375 13.1875 2.93164 13.1875 3.5625ZM11.7031 5.9375C9.55078 5.9375 7.84375 7.68164 7.84375 9.79688V11.0586C7.84375 12.8398 7.32422 14.5469 6.35938 16.0312H17.6035C16.6387 14.5469 16.1562 12.8398 16.1562 11.0586V9.79688C16.1562 7.68164 14.4121 5.9375 12.2969 5.9375H11.7031ZM14.375 19C14.375 19.6309 14.1152 20.2617 13.6699 20.707C13.2246 21.1523 12.5938 21.375 12 21.375C11.3691 21.375 10.7383 21.1523 10.293 20.707C9.84766 20.2617 9.625 19.6309 9.625 19H14.375Z" fill="currentColor"/>
</svg>
