<svg width="24" height="24" viewBox="0 0 24 24" fill="currentColor" xmlns="http://www.w3.org/2000/svg">
<path d="M17.3438 2.375H6.65625C5.6543 2.375 4.875 3.19141 4.875 4.15625V20.1875C4.875 21.1152 5.83984 21.6719 6.65625 21.2266L12 18.1094L17.3066 21.2266C18.123 21.6719 19.125 21.1152 19.125 20.1875V4.15625C19.125 3.19141 18.3086 2.375 17.3438 2.375ZM17.3438 19.1484L12 16.0312L6.65625 19.1484V4.37891C6.65625 4.26758 6.73047 4.15625 6.8418 4.15625H17.084C17.2324 4.15625 17.3438 4.26758 17.3438 4.37891V19.1484Z" fill="currentColor"/>
<path d="M14.7969 7.3125L10.6875 11.4219L9.1875 9.90625C9.10938 9.84375 8.98438 9.84375 8.92188 9.90625L8.46875 10.3594C8.40625 10.4219 8.40625 10.5469 8.46875 10.625L10.5625 12.7031C10.6406 12.7812 10.75 12.7812 10.8281 12.7031L15.5156 8.01562C15.5781 7.95312 15.5781 7.82812 15.5156 7.75L15.0625 7.3125C15 7.23438 14.875 7.23438 14.7969 7.3125Z" fill="currentColor"/>
</svg>
