<svg width="24" height="24" viewBox="0 0 24 24" fill="currentColor" xmlns="http://www.w3.org/2000/svg">
<path d="M21.3516 4.49023C19.6074 3.85938 17.9746 3.5625 16.5273 3.59961C14.375 3.59961 12.7422 4.23047 12 4.60156C11.2207 4.23047 9.58789 3.59961 7.43555 3.59961C5.95117 3.5625 4.35547 3.85938 2.61133 4.49023C1.83203 4.78711 1.3125 5.5293 1.3125 6.38281V17.2188C1.3125 17.8125 1.57227 18.4062 2.05469 18.7773C2.57422 19.1484 3.24219 19.2969 3.87305 19.1113C8.25195 17.9238 11.3691 19.9648 11.4805 20.0391C11.6289 20.1504 11.8145 20.1875 11.9629 20.1875C12.0742 20.1875 12.2969 20.1504 12.4453 20.0391C12.5938 19.9648 15.7109 17.9238 20.0898 19.1113C20.6836 19.2969 21.3516 19.1484 21.8711 18.7773C22.3906 18.4062 22.6875 17.8125 22.6875 17.2188V6.38281C22.6875 5.5293 22.1309 4.78711 21.3516 4.49023ZM11.1094 17.8496C10.0703 17.4414 8.51172 16.959 6.58203 16.959C5.61719 16.959 4.54102 17.0703 3.39062 17.4043C3.2793 17.4414 3.16797 17.3672 3.16797 17.3672C3.09375 17.293 3.09375 17.2188 3.09375 17.2188V6.38281C3.09375 6.27148 3.13086 6.19727 3.20508 6.16016C4.72656 5.64062 6.17383 5.34375 7.39844 5.38086C9.14258 5.38086 10.4414 5.86328 11.1094 6.16016V17.8496ZM20.9062 17.2188C20.9062 17.2188 20.9062 17.293 20.832 17.3672C20.7949 17.3672 20.6836 17.4414 20.5723 17.4043C17.1953 16.4766 14.4492 17.2188 12.8535 17.8496V6.16016C13.5215 5.86328 14.8203 5.38086 16.5645 5.38086C17.7891 5.34375 19.2363 5.64062 20.7578 6.16016C20.832 6.19727 20.9062 6.27148 20.9062 6.38281V17.2188Z" fill="currentColor"/>
</svg>
