<svg width="24" height="24" viewBox="0 0 24 24" fill="currentColor" xmlns="http://www.w3.org/2000/svg">
<path d="M20.3125 15.4375V4.15625C20.3125 3.19141 19.4961 2.375 18.5312 2.375H6.65625C4.98633 2.375 3.6875 3.71094 3.6875 5.34375V18.4062C3.6875 20.0762 4.98633 21.375 6.65625 21.375H19.4219C19.9043 21.375 20.3125 21.0039 20.3125 20.4844C20.3125 20.002 19.9043 19.5938 19.4219 19.5938H19.125V17.1445C19.793 16.8848 20.3125 16.2168 20.3125 15.4375ZM17.3438 19.5938H6.65625C5.98828 19.5938 5.46875 19.0742 5.46875 18.4062C5.46875 17.7754 5.98828 17.2188 6.65625 17.2188H17.3438V19.5938ZM18.5312 15.4375H6.65625C6.21094 15.4375 5.80273 15.5488 5.46875 15.6973V5.34375C5.46875 4.71289 5.98828 4.15625 6.65625 4.15625H18.5312V15.4375Z" fill="currentColor"/>
</svg>
