<svg width="24" height="24" viewBox="0 0 24 24" fill="currentColor" xmlns="http://www.w3.org/2000/svg">
<path d="M20.0898 8.46094C20.2383 8.75781 20.3125 9.0918 20.3125 9.42578V17.8125C20.3125 19.1484 19.2363 20.1875 17.9375 20.1875H6.0625C4.72656 20.1875 3.6875 19.1484 3.6875 17.8125V9.42578C3.6875 9.0918 3.72461 8.75781 3.87305 8.46094L5.43164 5.00977C5.80273 4.11914 6.65625 3.5625 7.58398 3.5625H16.3789C17.3066 3.5625 18.1602 4.11914 18.5312 5.00977L20.0898 8.46094ZM14.375 8.3125H18.0859L16.9355 5.71484C16.8242 5.49219 16.6016 5.34375 16.3789 5.34375H13.373L14.375 8.3125ZM10.5898 5.34375H7.58398C7.36133 5.34375 7.13867 5.49219 7.02734 5.71484L5.87695 8.3125H9.58789L10.5898 5.34375ZM9.625 10.0938H5.46875V17.8125C5.46875 18.1465 5.72852 18.4062 6.0625 18.4062H17.9375C18.2344 18.4062 18.5312 18.1465 18.5312 17.8125V10.0938H14.375V11.875C14.375 12.543 13.8184 13.0625 13.1875 13.0625H10.8125C10.1445 13.0625 9.625 12.543 9.625 11.875V10.0938Z" fill="currentColor"/>
</svg>
