<svg width="24" height="24" viewBox="0 0 24 24" fill="currentColor" xmlns="http://www.w3.org/2000/svg">
<path d="M14.6719 2.375C15.7852 2.375 16.75 3.33984 16.75 4.45312V9.20312C16.75 10.3535 15.7852 11.2812 14.6719 11.2812H8.73438C7.58398 11.2812 6.65625 10.3535 6.65625 9.20312V4.45312C6.65625 3.33984 7.58398 2.375 8.73438 2.375H14.6719ZM14.6719 4.15625H13.1875V6.53125C13.1875 6.86523 12.8906 7.125 12.5938 7.125H10.8125C10.4785 7.125 10.2188 6.86523 10.2188 6.53125V4.15625H8.73438C8.54883 4.15625 8.4375 4.30469 8.4375 4.45312V9.20312C8.4375 9.38867 8.54883 9.5 8.73438 9.5H14.6719C14.8203 9.5 14.9688 9.38867 14.9688 9.20312V4.45312C14.9688 4.30469 14.8203 4.15625 14.6719 4.15625ZM1.3125 14.5469C1.3125 13.4336 2.24023 12.4688 3.39062 12.4688H9.32812C10.4414 12.4688 11.4062 13.4336 11.4062 14.5469V19.2969C11.4062 20.4473 10.4414 21.375 9.32812 21.375H3.39062C2.24023 21.375 1.3125 20.4473 1.3125 19.2969V14.5469ZM7.84375 16.625C7.84375 16.959 7.54688 17.2188 7.25 17.2188H5.46875C5.13477 17.2188 4.875 16.959 4.875 16.625V14.25H3.39062C3.20508 14.25 3.09375 14.3984 3.09375 14.5469V19.2969C3.09375 19.4824 3.20508 19.5938 3.39062 19.5938H9.32812C9.47656 19.5938 9.625 19.4824 9.625 19.2969V14.5469C9.625 14.3984 9.47656 14.25 9.32812 14.25H7.84375V16.625ZM12.5938 14.5469C12.5938 13.4336 13.5215 12.4688 14.6719 12.4688H20.6094C21.7227 12.4688 22.6875 13.4336 22.6875 14.5469V19.2969C22.6875 20.4473 21.7227 21.375 20.6094 21.375H14.6719C13.5215 21.375 12.5938 20.4473 12.5938 19.2969V14.5469ZM19.125 16.625C19.125 16.959 18.8281 17.2188 18.5312 17.2188H16.75C16.416 17.2188 16.1562 16.959 16.1562 16.625V14.25H14.6719C14.4863 14.25 14.375 14.3984 14.375 14.5469V19.2969C14.375 19.4824 14.4863 19.5938 14.6719 19.5938H20.6094C20.7578 19.5938 20.9062 19.4824 20.9062 19.2969V14.5469C20.9062 14.3984 20.7578 14.25 20.6094 14.25H19.125V16.625Z" fill="currentColor"/>
</svg>
