<svg width="24" height="24" viewBox="0 0 24 24" fill="currentColor" xmlns="http://www.w3.org/2000/svg">
<path d="M17.9375 2.52344C18.8652 2.85742 19.3477 3.89648 18.9766 4.78711L17.9746 7.5332L11.9629 8.27539L11.7031 8.23828C11.8887 7.9043 11.9629 7.5332 11.9629 7.125C11.9629 5.82617 10.9238 4.78711 9.58789 4.78711C8.28906 4.78711 7.21289 5.82617 7.21289 7.125C7.21289 7.34766 7.25 7.49609 7.28711 7.68164L4.875 7.38477C4.875 7.31055 4.83789 7.23633 4.83789 7.125C4.83789 4.52734 6.99023 2.41211 9.58789 2.41211C12.1855 2.41211 14.3008 4.45312 14.3379 7.01367L15.6738 3.5625C16.0078 2.63477 17.0469 2.15234 17.9375 2.52344ZM2.9082 8.38672L11.9629 9.5L8.88281 14.6582C8.62305 15.1406 8.06641 15.3633 7.54688 15.2148L1.49805 13.4707C0.755859 13.2852 0.421875 12.4688 0.755859 11.8008L2.27734 8.7207C2.38867 8.49805 2.64844 8.34961 2.9082 8.38672ZM21.5 17.627C21.5 18.4434 20.9434 19.1484 20.127 19.3711L12.5566 21.2637C12.1855 21.3379 11.7773 21.3379 11.4062 21.2637L3.83594 19.3711C3.01953 19.1484 2.46289 18.4434 2.46289 17.627V14.9922L4.24414 15.5117V17.627L11.0723 19.334V13.9531C11.0723 13.4707 11.4805 13.0625 11.9629 13.0625C12.4824 13.0625 12.8906 13.4707 12.8906 13.9531V19.334L19.7188 17.627V15.5117L21.5 14.9922V17.627ZM22.4648 13.4707L16.416 15.2148C15.8965 15.3633 15.3398 15.1406 15.0801 14.6582L11.9629 9.5L21.0547 8.38672C21.3145 8.34961 21.5742 8.49805 21.6855 8.7207L23.207 11.8008C23.541 12.4688 23.207 13.2852 22.4648 13.4707Z" fill="currentColor"/>
</svg>
