<svg width="24" height="24" viewBox="0 0 24 24" fill="currentColor" xmlns="http://www.w3.org/2000/svg">
<path d="M11.5547 17.4043L8.69727 14.5469C7.91797 13.7676 7.91797 12.543 8.69727 11.8008C9.43945 11.0215 10.7012 11.0215 11.4434 11.8008L12 12.3203L12.5195 11.8008C13.2617 11.0215 14.5234 11.0215 15.2656 11.8008C16.0449 12.543 16.0449 13.7676 15.2656 14.5469L12.4082 17.4043C12.1855 17.627 11.7773 17.627 11.5547 17.4043ZM20.0898 8.46094C20.2383 8.75781 20.3125 9.0918 20.3125 9.42578V17.8125C20.3125 19.1484 19.2363 20.1875 17.9375 20.1875H6.0625C4.72656 20.1875 3.6875 19.1484 3.6875 17.8125V9.42578C3.6875 9.0918 3.72461 8.75781 3.87305 8.46094L5.43164 5.00977C5.80273 4.11914 6.65625 3.5625 7.58398 3.5625H16.3789C17.3066 3.5625 18.1602 4.11914 18.5312 5.00977L20.0898 8.46094ZM12.8906 8.3125H18.0859L16.9355 5.71484C16.8242 5.49219 16.6016 5.34375 16.3789 5.34375H12.8906V8.3125ZM5.46875 17.8125C5.46875 18.1465 5.72852 18.4062 6.0625 18.4062H17.9375C18.2344 18.4062 18.5312 18.1465 18.5312 17.8125V10.0938H5.46875V17.8125ZM11.1094 5.34375H7.58398C7.36133 5.34375 7.13867 5.49219 7.02734 5.71484L5.87695 8.3125H11.1094V5.34375Z" fill="currentColor"/>
</svg>
