<svg width="24" height="24" viewBox="0 0 24 24" fill="currentColor" xmlns="http://www.w3.org/2000/svg">
<path d="M0.755859 7.05078L2.27734 3.9707C2.38867 3.74805 2.64844 3.59961 2.9082 3.63672L12 4.75L8.88281 9.9082C8.62305 10.3906 8.06641 10.6133 7.54688 10.4648L1.49805 8.7207C0.755859 8.53516 0.421875 7.71875 0.755859 7.05078ZM12 4.75L21.0547 3.63672C21.3145 3.59961 21.5742 3.74805 21.6855 3.9707L23.207 7.05078C23.541 7.71875 23.207 8.53516 22.4648 8.7207L16.416 10.4648C15.8965 10.6133 15.3398 10.3906 15.0801 9.9082L12 4.75ZM21.5 10.2422V16.4395C21.5 17.2559 20.9434 17.9609 20.127 18.1836L12.5566 20.0762C12.1855 20.1504 11.7773 20.1504 11.4062 20.0762L3.83594 18.1836C3.01953 17.9609 2.5 17.2559 2.5 16.4395V10.2422L4.28125 10.7617V16.4395L11.1094 18.1465V9.20312C11.1094 8.7207 11.4805 8.3125 12 8.3125C12.4824 8.3125 12.8906 8.7207 12.8906 9.20312V18.1465L19.7188 16.4395V10.7617L21.5 10.2422ZM11.9258 7.125H12.0371H11.9258Z" fill="currentColor"/>
</svg>
