<svg width="24" height="24" viewBox="0 0 24 24" fill="currentColor" xmlns="http://www.w3.org/2000/svg">
<path d="M19.125 5.9375H16.75V4.75C16.75 3.45117 15.6738 2.375 14.375 2.375H9.625C8.28906 2.375 7.25 3.45117 7.25 4.75V5.9375H4.875C3.53906 5.9375 2.5 7.01367 2.5 8.3125V17.8125C2.5 19.1484 3.53906 20.1875 4.875 20.1875H19.125C20.4238 20.1875 21.5 19.1484 21.5 17.8125V8.3125C21.5 7.01367 20.4238 5.9375 19.125 5.9375ZM9.625 4.15625H14.375C14.6719 4.15625 14.9688 4.45312 14.9688 4.75V5.9375H9.03125V4.75C9.03125 4.45312 9.29102 4.15625 9.625 4.15625ZM4.875 7.71875H19.125C19.4219 7.71875 19.7188 8.01562 19.7188 8.3125V11.875H4.28125V8.3125C4.28125 8.01562 4.54102 7.71875 4.875 7.71875ZM19.125 18.4062H4.875C4.54102 18.4062 4.28125 18.1465 4.28125 17.8125V13.6562H9.625V14.25C9.625 14.918 10.1445 15.4375 10.8125 15.4375H13.1875C13.8184 15.4375 14.375 14.918 14.375 14.25V13.6562H19.7188V17.8125C19.7188 18.1465 19.4219 18.4062 19.125 18.4062Z" fill="currentColor"/>
</svg>
