<svg width="24" height="24" viewBox="0 0 24 24" fill="currentColor" xmlns="http://www.w3.org/2000/svg">
<path d="M8.14062 6.23438C8.14062 5.9375 8.40039 5.64062 8.73438 5.64062H10.5156C10.8125 5.64062 11.1094 5.9375 11.1094 6.23438V8.01562C11.1094 8.34961 10.8125 8.60938 10.5156 8.60938H8.73438C8.40039 8.60938 8.14062 8.34961 8.14062 8.01562V6.23438ZM15.2656 5.64062C15.5625 5.64062 15.8594 5.9375 15.8594 6.23438V8.01562C15.8594 8.34961 15.5625 8.60938 15.2656 8.60938H13.4844C13.1504 8.60938 12.8906 8.34961 12.8906 8.01562V6.23438C12.8906 5.9375 13.1504 5.64062 13.4844 5.64062H15.2656ZM8.14062 10.9844C8.14062 10.6875 8.40039 10.3906 8.73438 10.3906H10.5156C10.8125 10.3906 11.1094 10.6875 11.1094 10.9844V12.7656C11.1094 13.0996 10.8125 13.3594 10.5156 13.3594H8.73438C8.40039 13.3594 8.14062 13.0996 8.14062 12.7656V10.9844ZM15.2656 10.3906C15.5625 10.3906 15.8594 10.6875 15.8594 10.9844V12.7656C15.8594 13.0996 15.5625 13.3594 15.2656 13.3594H13.4844C13.1504 13.3594 12.8906 13.0996 12.8906 12.7656V10.9844C12.8906 10.6875 13.1504 10.3906 13.4844 10.3906H15.2656ZM4.875 4.75C4.875 3.45117 5.91406 2.375 7.25 2.375H16.75C18.0488 2.375 19.125 3.45117 19.125 4.75V19C19.125 20.3359 18.0488 21.375 16.75 21.375H7.25C5.91406 21.375 4.875 20.3359 4.875 19V4.75ZM6.65625 4.75V19C6.65625 19.334 6.91602 19.5938 7.25 19.5938H10.2188V17.2188C10.2188 16.2539 10.998 15.4375 12 15.4375C12.9648 15.4375 13.7812 16.2539 13.7812 17.2188V19.5938H16.75C17.0469 19.5938 17.3438 19.334 17.3438 19V4.75C17.3438 4.45312 17.0469 4.15625 16.75 4.15625H7.25C6.91602 4.15625 6.65625 4.45312 6.65625 4.75Z" fill="currentColor"/>
</svg>
