<svg width="24" height="24" viewBox="0 0 24 24" fill="currentColor" xmlns="http://www.w3.org/2000/svg">
<g clip-path="url(#clip0_433_220)">
<path d="M23.2812 17.3437H5.46875V3.09375C5.46875 2.76719 5.20156 2.5 4.875 2.5H0.71875C0.392187 2.5 0.125 2.76719 0.125 3.09375V3.6875C0.125 4.01406 0.392187 4.28125 0.71875 4.28125H3.6875V18.5312C3.6875 18.8578 3.95469 19.125 4.28125 19.125H6.17011C6.10332 19.3105 6.0625 19.5109 6.0625 19.7187C6.0625 20.7021 6.86035 21.5 7.84375 21.5C8.82714 21.5 9.62499 20.7021 9.62499 19.7187C9.62499 19.5109 9.58046 19.3105 9.51738 19.125H16.8613C16.7945 19.3105 16.7537 19.5109 16.7537 19.7187C16.7537 20.7021 17.5516 21.5 18.535 21.5C19.5183 21.5 20.3162 20.7021 20.3162 19.7187C20.3162 19.5109 20.2717 19.3105 20.2086 19.125H23.2812C23.6078 19.125 23.875 18.8578 23.875 18.5312V17.9375C23.875 17.6109 23.6078 17.3437 23.2812 17.3437Z" fill="currentColor"/>
<path d="M20.7727 14.0113L18.9988 6.90858C18.8838 6.44842 18.4904 6.12557 18.0488 6.12557H16.6016C16.6943 5.87694 16.7352 5.61717 16.7352 5.36112C16.7352 4.066 15.6813 3.01581 14.3898 3.01581C13.0947 3.01581 12.0445 4.06971 12.0445 5.36483C12.0445 5.6246 12.0891 5.88065 12.1781 6.12928H10.7383C10.293 6.12928 9.90333 6.44842 9.78829 6.91229L8.01446 14.015C7.89942 14.4863 8.00333 14.9836 8.29278 15.3547C8.55626 15.6887 8.93849 15.8779 9.34298 15.8779H19.4553C19.8635 15.8779 20.2457 15.6849 20.5055 15.351C20.7875 14.9799 20.8877 14.4789 20.7727 14.0113ZM14.3898 4.59667C14.8129 4.59667 15.1543 4.93807 15.1543 5.36112C15.1543 5.78417 14.8129 6.12557 14.3898 6.12557C13.9668 6.12557 13.6254 5.78417 13.6254 5.36112C13.6254 4.93807 13.9668 4.59667 14.3898 4.59667ZM9.56563 14.2971L11.2133 7.71385H17.5664L19.2141 14.2971H9.56563Z" fill="currentColor" stroke="currentColor" stroke-width="0.210384" stroke-miterlimit="10"/>
</g>
<defs>
<clipPath id="clip0_433_220">
<rect width="23.75" height="19" fill="currentColor" transform="translate(0.125 2.5)"/>
</clipPath>
</defs>
</svg>
