<svg width="24" height="24" viewBox="0 0 24 24" fill="currentColor" xmlns="http://www.w3.org/2000/svg">
<path d="M12 19.5938C16.2305 19.5938 19.7188 16.1426 19.7188 11.875C19.7188 7.64453 16.2305 4.15625 12 4.15625C7.73242 4.15625 4.28125 7.64453 4.28125 11.875C4.28125 12.0977 4.28125 12.2832 4.28125 12.5059L2.53711 13.0254C2.5 12.6543 2.5 12.2832 2.5 11.875C2.5 6.64258 6.73047 2.375 12 2.375C17.2324 2.375 21.5 6.64258 21.5 11.875C21.5 17.1445 17.2324 21.375 12 21.375C11.5918 21.375 11.2207 21.375 10.8496 21.3379L11.3691 19.5938C11.5918 19.5938 11.7773 19.5938 12 19.5938ZM12.4082 16.0312C14.5234 15.8086 16.1562 14.0273 16.1562 11.875C16.1562 9.61133 14.2637 7.71875 12 7.71875C9.84766 7.71875 8.06641 9.35156 7.84375 11.4668L6.0625 11.9863C6.0625 11.9492 6.0625 11.9121 6.0625 11.875C6.0625 8.60938 8.69727 5.9375 12 5.9375C15.2656 5.9375 17.9375 8.60938 17.9375 11.875C17.9375 15.1777 15.2656 17.8125 12 17.8125C11.9629 17.8125 11.9258 17.8125 11.8887 17.8125L12.4082 16.0312ZM3.94727 13.8418L11.5176 11.6152C12 11.4668 12.4082 11.875 12.2598 12.3574L10.0332 19.9277C9.88477 20.4473 9.17969 20.5215 8.91992 20.0391L7.88086 17.9238C7.84375 17.8496 7.80664 17.8125 7.76953 17.7754L4.50391 21.041C4.05859 21.5234 3.2793 21.5234 2.83398 21.041C2.35156 20.5957 2.35156 19.8164 2.83398 19.3711L6.09961 16.1055C6.0625 16.0684 6.02539 16.0312 5.95117 15.9941L3.83594 14.9551C3.35352 14.6953 3.42773 13.9902 3.94727 13.8418Z" fill="currentColor"/>
</svg>
