<svg width="24" height="24" viewBox="0 0 24 24" fill="currentColor" xmlns="http://www.w3.org/2000/svg">
<path d="M16.082 10.3164L17.7891 10.6133C17.8633 11.0215 17.9375 11.4297 17.9375 11.875C17.9375 15.1777 15.2656 17.8125 12 17.8125C8.69727 17.8125 6.0625 15.1777 6.0625 11.875C6.0625 8.60938 8.69727 5.9375 12 5.9375C12.4082 5.9375 12.8535 6.01172 13.2617 6.08594L13.5586 7.79297L13.373 7.97852C12.9277 7.83008 12.4824 7.71875 12 7.71875C9.69922 7.71875 7.84375 9.61133 7.84375 11.875C7.84375 14.1758 9.69922 16.0312 12 16.0312C14.2637 16.0312 16.1562 14.1758 16.1562 11.875C16.1562 11.3926 16.0449 10.9473 15.8965 10.502L16.082 10.3164ZM20.9434 8.75781C21.2773 9.72266 21.5 10.7988 21.5 11.875C21.5 17.1445 17.2324 21.375 12 21.375C6.73047 21.375 2.5 17.1445 2.5 11.875C2.5 6.64258 6.73047 2.375 12 2.375C13.0762 2.375 14.1523 2.59766 15.1172 2.93164L13.6699 4.37891C13.1133 4.23047 12.5566 4.15625 12 4.15625C7.73242 4.15625 4.28125 7.64453 4.28125 11.875C4.28125 16.1426 7.73242 19.5938 12 19.5938C16.2305 19.5938 19.7188 16.1426 19.7188 11.875C19.7188 11.3184 19.6445 10.7246 19.4961 10.2051L20.9434 8.75781ZM12.5938 12.5059C12.2598 12.877 11.7031 12.877 11.3691 12.5059C10.998 12.1719 10.998 11.6152 11.3691 11.2441L14.7832 7.83008L14.4492 5.97461C14.4121 5.60352 14.5234 5.19531 14.7832 4.93555L16.6758 3.04297C16.9727 2.74609 17.4922 2.82031 17.6777 3.22852L18.5312 5.34375L20.6465 6.19727C21.0547 6.38281 21.1289 6.86523 20.832 7.19922L18.9395 9.0918C18.6797 9.35156 18.2715 9.46289 17.9004 9.42578L16.0449 9.0918L12.5938 12.5059Z" fill="currentColor"/>
</svg>
