<svg width="24" height="24" viewBox="0 0 24 24" fill="currentColor" xmlns="http://www.w3.org/2000/svg">
<path d="M12 15.1406C12.4824 15.1406 12.8906 14.7695 12.8906 14.25C12.8906 13.7676 12.4824 13.3594 12 13.3594C11.4805 13.3594 11.1094 13.7676 11.1094 14.25C11.1094 14.7695 11.4805 15.1406 12 15.1406ZM12 11.875C12.4824 11.875 12.8906 11.5039 12.8906 10.9844C12.8906 10.502 12.4824 10.0938 12 10.0938C11.4805 10.0938 11.1094 10.502 11.1094 10.9844C11.1094 11.5039 11.4805 11.875 12 11.875ZM15.2656 15.1406C15.748 15.1406 16.1562 14.7695 16.1562 14.25C16.1562 13.7676 15.748 13.3594 15.2656 13.3594C14.7461 13.3594 14.375 13.7676 14.375 14.25C14.375 14.7695 14.7461 15.1406 15.2656 15.1406ZM15.2656 11.875C15.748 11.875 16.1562 11.5039 16.1562 10.9844C16.1562 10.502 15.748 10.0938 15.2656 10.0938C14.7461 10.0938 14.375 10.502 14.375 10.9844C14.375 11.5039 14.7461 11.875 15.2656 11.875ZM15.2656 18.4062C15.748 18.4062 16.1562 18.0352 16.1562 17.5156C16.1562 17.0332 15.748 16.625 15.2656 16.625C14.7461 16.625 14.375 17.0332 14.375 17.5156C14.375 18.0352 14.7461 18.4062 15.2656 18.4062ZM8.73438 18.4062H11.7031C12.1855 18.4062 12.5938 18.0352 12.5938 17.5156C12.5938 17.0332 12.1855 16.625 11.7031 16.625H8.73438C8.21484 16.625 7.84375 17.0332 7.84375 17.5156C7.84375 18.0352 8.21484 18.4062 8.73438 18.4062ZM16.75 2.375H7.25C5.91406 2.375 4.875 3.45117 4.875 4.75V19C4.875 20.3359 5.91406 21.375 7.25 21.375H16.75C18.0488 21.375 19.125 20.3359 19.125 19V4.75C19.125 3.45117 18.0488 2.375 16.75 2.375ZM17.3438 19C17.3438 19.334 17.0469 19.5938 16.75 19.5938H7.25C6.91602 19.5938 6.65625 19.334 6.65625 19V8.90625H17.3438V19ZM17.3438 7.125H6.65625V4.75C6.65625 4.45312 6.91602 4.15625 7.25 4.15625H16.75C17.0469 4.15625 17.3438 4.45312 17.3438 4.75V7.125ZM8.73438 11.875C9.2168 11.875 9.625 11.5039 9.625 10.9844C9.625 10.502 9.2168 10.0938 8.73438 10.0938C8.21484 10.0938 7.84375 10.502 7.84375 10.9844C7.84375 11.5039 8.21484 11.875 8.73438 11.875ZM8.73438 15.1406C9.2168 15.1406 9.625 14.7695 9.625 14.25C9.625 13.7676 9.2168 13.3594 8.73438 13.3594C8.21484 13.3594 7.84375 13.7676 7.84375 14.25C7.84375 14.7695 8.21484 15.1406 8.73438 15.1406Z" fill="currentColor"/>
</svg>
