<svg width="24" height="24" viewBox="0 0 24 24" fill="currentColor" xmlns="http://www.w3.org/2000/svg">
<path d="M11.7031 17.5527C11.3691 17.9238 10.8125 17.9238 10.4785 17.5527L8.10352 15.1777C7.73242 14.8438 7.73242 14.2871 8.10352 13.916C8.4375 13.582 8.99414 13.582 9.32812 13.916L11.1094 15.6973L14.6348 12.1348C14.9688 11.8008 15.5254 11.8008 15.8594 12.1348C16.2305 12.5059 16.2305 13.0625 15.8594 13.3965L11.7031 17.5527ZM8.4375 2.375C8.91992 2.375 9.32812 2.7832 9.32812 3.26562V4.75H14.6719V3.26562C14.6719 2.7832 15.043 2.375 15.5625 2.375C16.0449 2.375 16.4531 2.7832 16.4531 3.26562V4.75H17.9375C19.2363 4.75 20.3125 5.82617 20.3125 7.125V19C20.3125 20.3359 19.2363 21.375 17.9375 21.375H6.0625C4.72656 21.375 3.6875 20.3359 3.6875 19V7.125C3.6875 5.82617 4.72656 4.75 6.0625 4.75H7.54688V3.26562C7.54688 2.7832 7.91797 2.375 8.4375 2.375ZM18.5312 9.5H5.46875V19C5.46875 19.334 5.72852 19.5938 6.0625 19.5938H17.9375C18.2344 19.5938 18.5312 19.334 18.5312 19V9.5Z" fill="currentColor"/>
</svg>
