<svg width="24" height="24" viewBox="0 0 24 24" fill="currentColor" xmlns="http://www.w3.org/2000/svg">
<path d="M13.1875 13.1738L15.1543 13.4707C15.4883 13.5078 15.5996 13.916 15.377 14.1387L13.9668 15.5117L14.3008 17.4414C14.3379 17.7754 14.0039 17.998 13.7441 17.8496L12 16.9219L10.2188 17.8496C9.95898 17.998 9.625 17.7754 9.66211 17.4414L9.99609 15.5117L8.58594 14.1387C8.36328 13.916 8.47461 13.5078 8.80859 13.4707L10.7754 13.1738L11.6289 11.3926C11.7773 11.1328 12.1855 11.1328 12.334 11.3926L13.1875 13.1738ZM8.4375 2.375C8.91992 2.375 9.32812 2.7832 9.32812 3.26562V4.75H14.6719V3.26562C14.6719 2.7832 15.043 2.375 15.5625 2.375C16.0449 2.375 16.4531 2.7832 16.4531 3.26562V4.75H17.9375C19.2363 4.75 20.3125 5.82617 20.3125 7.125V19C20.3125 20.3359 19.2363 21.375 17.9375 21.375H6.0625C4.72656 21.375 3.6875 20.3359 3.6875 19V7.125C3.6875 5.82617 4.72656 4.75 6.0625 4.75H7.54688V3.26562C7.54688 2.7832 7.91797 2.375 8.4375 2.375ZM18.5312 9.5H5.46875V19C5.46875 19.334 5.72852 19.5938 6.0625 19.5938H17.9375C18.2344 19.5938 18.5312 19.334 18.5312 19V9.5Z" fill="currentColor"/>
</svg>
