<svg width="24" height="24" viewBox="0 0 24 24" fill="currentColor" xmlns="http://www.w3.org/2000/svg">
<path d="M7.84375 13.0625C7.84375 10.7988 9.69922 8.90625 12 8.90625C14.2637 8.90625 16.1562 10.7988 16.1562 13.0625C16.1562 15.3633 14.2637 17.2188 12 17.2188C9.69922 17.2188 7.84375 15.3633 7.84375 13.0625ZM12 10.6875C10.6641 10.6875 9.625 11.7637 9.625 13.0625C9.625 14.3984 10.6641 15.4375 12 15.4375C13.2988 15.4375 14.375 14.3984 14.375 13.0625C14.375 11.7637 13.2988 10.6875 12 10.6875ZM15.9336 4.78711L16.3418 5.9375H19.125C20.4238 5.9375 21.5 7.01367 21.5 8.3125V17.8125C21.5 19.1484 20.4238 20.1875 19.125 20.1875H4.875C3.53906 20.1875 2.5 19.1484 2.5 17.8125V8.3125C2.5 7.01367 3.53906 5.9375 4.875 5.9375H7.62109L8.0293 4.78711C8.25195 4.08203 8.91992 3.5625 9.69922 3.5625H14.2637C15.043 3.5625 15.7109 4.08203 15.9336 4.78711ZM4.875 7.71875C4.54102 7.71875 4.28125 8.01562 4.28125 8.3125V17.8125C4.28125 18.1465 4.54102 18.4062 4.875 18.4062H19.125C19.4219 18.4062 19.7188 18.1465 19.7188 17.8125V8.3125C19.7188 8.01562 19.4219 7.71875 19.125 7.71875H15.043L14.2637 5.34375H9.69922L8.91992 7.71875H4.875Z" fill="currentColor"/>
</svg>
