<svg width="24" height="24" viewBox="0 0 24 24" fill="currentColor" xmlns="http://www.w3.org/2000/svg">
<path d="M21.1289 6.23438C21.5371 6.23438 21.7969 6.64258 21.6113 6.97656C21.4629 7.19922 21.3145 7.38477 21.1289 7.5332C20.9805 7.68164 20.7949 7.79297 20.6094 7.9043C20.5352 7.94141 20.4609 7.97852 20.3867 8.01562C20.0156 8.23828 19.5703 8.3125 19.125 8.3125C18.0117 8.3125 17.084 7.75586 16.5645 6.90234C16.4531 6.67969 16.2305 6.53125 16.0078 6.53125H7.95508C7.73242 6.53125 7.50977 6.67969 7.39844 6.90234C6.87891 7.75586 5.95117 8.3125 4.875 8.3125C4.39258 8.3125 3.94727 8.23828 3.57617 8.01562C3.50195 7.97852 3.42773 7.94141 3.35352 7.9043C3.16797 7.79297 2.98242 7.68164 2.83398 7.5332C2.64844 7.38477 2.5 7.19922 2.35156 6.97656C2.16602 6.64258 2.42578 6.23438 2.83398 6.23438H3.98438C4.02148 6.23438 4.02148 6.23438 4.05859 6.23438C4.50391 6.19727 4.875 5.82617 4.875 5.34375C4.875 4.89844 4.50391 4.52734 4.05859 4.49023C4.02148 4.49023 4.02148 4.49023 3.98438 4.49023V4.45312H2.83398C2.42578 4.45312 2.16602 4.08203 2.35156 3.74805C2.5 3.52539 2.64844 3.33984 2.83398 3.19141C2.98242 3.04297 3.16797 2.93164 3.35352 2.82031C3.42773 2.7832 3.50195 2.70898 3.57617 2.67188C3.94727 2.48633 4.39258 2.375 4.875 2.375C5.95117 2.375 6.87891 2.96875 7.39844 3.82227C7.50977 4.04492 7.73242 4.15625 7.95508 4.15625H16.0078C16.2305 4.15625 16.4531 4.04492 16.5645 3.82227C17.084 2.96875 18.0117 2.375 19.125 2.375C19.5703 2.375 20.0156 2.48633 20.3867 2.67188C20.4609 2.70898 20.5352 2.7832 20.6094 2.82031C20.7949 2.93164 20.9805 3.04297 21.1289 3.19141C21.3145 3.33984 21.4629 3.52539 21.6113 3.74805C21.7969 4.08203 21.5371 4.45312 21.1289 4.45312H20.0156L19.9785 4.49023C19.9414 4.49023 19.9414 4.49023 19.9043 4.49023C19.459 4.52734 19.125 4.89844 19.125 5.34375C19.125 5.82617 19.459 6.19727 19.9043 6.23438C19.9414 6.23438 19.9414 6.23438 19.9785 6.23438H20.0156H21.1289ZM7.54688 15.7344C7.54688 15.252 7.91797 14.8438 8.4375 14.8438C8.91992 14.8438 9.32812 15.252 9.32812 15.7344C9.32812 16.2539 8.91992 16.625 8.4375 16.625C7.91797 16.625 7.54688 16.2539 7.54688 15.7344ZM16.4531 15.7344C16.4531 16.2539 16.0449 16.625 15.5625 16.625C15.043 16.625 14.6719 16.2539 14.6719 15.7344C14.6719 15.252 15.043 14.8438 15.5625 14.8438C16.0449 14.8438 16.4531 15.252 16.4531 15.7344ZM6.87891 10.0938C7.25 9.05469 8.25195 8.3125 9.36523 8.3125H14.5977C15.7109 8.3125 16.7129 9.05469 17.084 10.0938L18.1602 13.0625C18.1602 13.0996 18.1602 13.0996 18.1973 13.1367C19.0879 13.7676 19.7188 14.8438 19.7188 16.0312V20.4844C19.7188 21.0039 19.3105 21.375 18.8281 21.375C18.3086 21.375 17.9375 21.0039 17.9375 20.4844V19H6.0625V20.4844C6.0625 21.0039 5.6543 21.375 5.17188 21.375C4.65234 21.375 4.28125 21.0039 4.28125 20.4844V16.0312C4.28125 14.8438 4.875 13.7676 5.76562 13.1367C5.80273 13.0996 5.80273 13.0996 5.80273 13.0625L6.87891 10.0938ZM9.36523 10.0938C8.99414 10.0938 8.66016 10.3535 8.54883 10.6875L7.91797 12.4688H16.0449L15.4141 10.6875C15.3027 10.3535 14.9688 10.0938 14.5977 10.0938H9.36523ZM16.1562 14.25H7.84375C6.8418 14.25 6.0625 15.0664 6.0625 16.0312V17.2188H17.9375V16.0312C17.9375 15.0664 17.1211 14.25 16.1562 14.25Z" fill="currentColor"/>
</svg>
