<svg width="24" height="24" viewBox="0 0 24 24" fill="currentColor" xmlns="http://www.w3.org/2000/svg">
<path d="M16.75 7.125C16.416 7.125 16.1562 7.42188 16.1562 7.71875C16.1562 8.05273 16.416 8.3125 16.75 8.3125C17.0469 8.3125 17.3438 8.05273 17.3438 7.71875C17.3438 7.42188 17.0469 7.125 16.75 7.125ZM21.6113 2.56055C21.3887 2.44922 21.1289 2.375 20.9062 2.375C20.4609 2.375 20.0156 2.56055 19.6816 2.85742L18.2344 4.15625H17.6035L16.1562 2.85742C15.5996 2.375 14.8574 2.26367 14.2266 2.56055C13.5957 2.82031 13.1875 3.45117 13.1875 4.15625V8.3125C13.1875 8.49805 13.1875 8.64648 13.2246 8.79492L11.4805 9.05469C8.95703 9.42578 6.8418 10.7617 5.46875 12.6543V9.20312C5.46875 7.42188 3.98438 5.9375 2.20312 5.9375C1.68359 5.9375 1.3125 6.3457 1.3125 6.82812C1.3125 7.34766 1.68359 7.75586 2.20312 7.75586C3.01953 7.71875 3.6875 8.49805 3.6875 9.31445V17.2188C3.6875 19.9277 5.13477 21.375 6.95312 21.375H13.7812C14.0781 21.375 14.375 21.1152 14.375 20.8184C14.375 20.1504 13.8184 19.5938 13.1875 19.5938H12.5566C12.5566 19.334 12.5566 19.0742 12.5195 18.8145L15.5625 16.9961V19.5938C15.5625 20.5957 16.3418 21.375 17.3438 21.375H18.5312C19.4961 21.375 20.3125 20.5957 20.3125 19.5938V12.4316C21.7227 11.5781 22.6875 10.0938 22.6875 8.3125V4.15625C22.6875 3.45117 22.2422 2.82031 21.6113 2.56055ZM18.5312 19.5938H17.3438V15.957C17.3438 15.5488 17.084 15.1406 16.7129 14.9551C16.3789 14.7324 15.8965 14.7324 15.5254 14.9551L11.9629 17.0703C11.5176 16.1426 10.8496 15.3262 9.99609 14.6953C9.69922 14.5098 9.29102 14.6211 9.14258 14.918L8.88281 15.4375C8.73438 15.6973 8.77148 16.0312 9.03125 16.2168C10.1074 16.9961 10.7754 18.2578 10.7754 19.5938H6.95312C6.13672 19.5938 5.46875 18.9629 5.46875 18.1465C5.46875 14.4727 8.10352 11.3926 11.7402 10.8359L13.7441 10.5391C14.5234 12.0234 16.082 13.0625 17.9375 13.0625C18.123 13.0625 18.3086 13.0254 18.5312 13.0254V19.5938ZM20.9062 8.3125C20.9062 9.98242 19.5703 11.2812 17.9375 11.2812C16.2676 11.2812 14.9688 9.98242 14.9688 8.34961V4.15625L16.9355 5.9375H18.9023L20.9062 4.15625V8.3125ZM18.5312 7.71875C18.5312 8.05273 18.791 8.3125 19.125 8.3125C19.4219 8.3125 19.7188 8.05273 19.7188 7.75586C19.7188 7.45898 19.4219 7.125 19.125 7.125C18.791 7.125 18.5312 7.42188 18.5312 7.71875Z" fill="currentColor"/>
</svg>
