<svg width="24" height="24" viewBox="0 0 24 24" fill="currentColor" xmlns="http://www.w3.org/2000/svg">
<path d="M4.28125 17.5156C4.28125 18.0352 4.65234 18.4062 5.17188 18.4062H20.6094C21.0918 18.4062 21.5 18.8145 21.5 19.2969C21.5 19.8164 21.0918 20.1875 20.6094 20.1875H5.17188C3.6875 20.1875 2.5 19 2.5 17.5156V4.45312C2.5 3.9707 2.87109 3.5625 3.39062 3.5625C3.87305 3.5625 4.28125 3.9707 4.28125 4.45312V17.5156ZM14.9688 13.6934C14.6348 14.0645 14.0781 14.0645 13.7441 13.6934L10.7754 10.7617L7.84375 13.6934C7.50977 14.0645 6.95312 14.0645 6.61914 13.6934C6.24805 13.3594 6.24805 12.8027 6.61914 12.4316L10.1816 8.86914C10.3301 8.7207 10.5527 8.60938 10.7754 8.60938C11.0352 8.60938 11.2578 8.7207 11.4062 8.86914L14.375 11.8379L18.791 7.38477C19.125 7.05078 19.6816 7.05078 20.0156 7.38477C20.3867 7.75586 20.3867 8.3125 20.0156 8.64648L14.9688 13.6934Z" fill="currentColor"/>
</svg>
