<svg width="24" height="24" viewBox="0 0 24 24" fill="currentColor" xmlns="http://www.w3.org/2000/svg">
<path d="M12.5938 11.2812V3.00586C12.5938 2.67188 12.8164 2.375 13.1875 2.375C17.752 2.375 21.5 6.12305 21.5 10.6875C21.5 11.0215 21.2031 11.2812 20.8691 11.2812H12.5938ZM19.6074 9.5C19.0879 6.86523 17.0098 4.78711 14.375 4.26758V9.5H19.6074ZM10.8125 4.23047V13.0625L16.6016 18.8887C16.8613 19.1484 16.8242 19.5566 16.5645 19.7422C15.0801 20.7812 13.2988 21.375 11.4062 21.375C6.4707 21.375 2.5 17.4043 2.5 12.4688C2.5 7.97852 5.83984 4.26758 10.1445 3.67383C10.5156 3.59961 10.8125 3.89648 10.8125 4.23047ZM9.03125 13.8047V5.75195C6.24805 6.75391 4.28125 9.38867 4.28125 12.4688C4.28125 16.4023 7.43555 19.5938 11.4062 19.5938C12.4082 19.5938 13.3359 19.4082 14.2266 19.0371L9.03125 13.8047ZM22.0195 13.0625C22.3535 13.0625 22.6504 13.3594 22.5762 13.6934C22.3164 15.7715 21.3145 17.627 19.8301 19C19.6074 19.1855 19.2734 19.1855 19.0508 18.9629L13.1875 13.0625H22.0195Z" fill="currentColor"/>
</svg>
