<svg width="24" height="24" viewBox="0 0 24 24" fill="currentColor" xmlns="http://www.w3.org/2000/svg">
<path d="M11.5176 14.9922C11.1094 15.4004 10.4785 15.4004 10.0703 14.9922L7.69531 12.6172C7.28711 12.209 7.28711 11.5781 7.69531 11.1699C8.10352 10.7617 8.73438 10.7617 9.14258 11.1699L10.8125 12.8027L14.8203 8.79492C15.2285 8.38672 15.8594 8.38672 16.2676 8.79492C16.6758 9.20312 16.6758 9.83398 16.2676 10.2422L11.5176 14.9922ZM21.5 11.875C21.5 17.1445 17.2324 21.375 12 21.375C6.73047 21.375 2.5 17.1445 2.5 11.875C2.5 6.64258 6.73047 2.375 12 2.375C17.2324 2.375 21.5 6.64258 21.5 11.875ZM12 4.15625C7.73242 4.15625 4.28125 7.64453 4.28125 11.875C4.28125 16.1426 7.73242 19.5938 12 19.5938C16.2305 19.5938 19.7188 16.1426 19.7188 11.875C19.7188 7.64453 16.2305 4.15625 12 4.15625Z" fill="currentColor"/>
</svg>
