<svg width="24" height="24" viewBox="0 0 24 24" fill="currentColor" xmlns="http://www.w3.org/2000/svg">
<path d="M6.50781 14.2871L7.02734 14.5469C6.39648 15.2891 6.0625 16.2539 6.0625 17.2188V18.4062H7.84375V17.2188C7.84375 16.3281 8.36328 15.4746 9.17969 15.0664L10.5898 14.1758C11.0723 13.9531 11.4062 13.4336 11.4062 12.877V10.7246L10.8125 11.0586C10.627 11.1328 10.4785 11.3184 10.4414 11.5039L10.1816 12.4316C10.0703 12.7285 9.88477 12.9512 9.58789 13.0625L9.2168 13.2109C9.10547 13.2852 8.95703 13.2852 8.8457 13.2852C8.69727 13.2852 8.58594 13.2852 8.4375 13.2109L7.21289 12.6543C6.87891 12.5059 6.65625 12.1719 6.65625 11.7637V7.60742C6.65625 7.42188 6.73047 7.23633 6.8418 7.08789L7.13867 6.82812L6.69336 5.9375C6.65625 5.90039 6.65625 5.78906 6.65625 5.71484C6.65625 5.5293 6.80469 5.34375 6.99023 5.34375H10.8867C14.1152 5.34375 16.6758 7.97852 16.6758 11.207V18.4062H18.4941L18.457 11.207C18.4941 6.97656 15.1172 3.5625 10.8867 3.5625H6.99023C5.80273 3.5625 4.875 4.52734 4.875 5.71484C4.875 6.04883 4.91211 6.3457 5.06055 6.64258C4.91211 6.93945 4.875 7.27344 4.875 7.60742V11.7637C4.875 12.877 5.50586 13.8418 6.50781 14.2871ZM7.84375 8.46094C7.84375 8.86914 8.14062 9.20312 8.58594 9.20312C8.99414 9.20312 9.32812 8.86914 9.32812 8.46094C9.32812 8.05273 8.99414 7.71875 8.58594 7.71875C8.17773 7.71875 7.84375 8.05273 7.84375 8.46094ZM18.2344 19.5938H5.72852C5.24609 19.5938 4.875 20.002 4.875 20.4844C4.875 20.9297 5.24609 21.375 5.72852 21.375H18.2344C18.7168 21.375 19.125 21.0039 19.125 20.4844C19.125 20.002 18.7168 19.5938 18.2344 19.5938Z" fill="currentColor"/>
</svg>
