<svg width="24" height="24" viewBox="0 0 24 24" fill="currentColor" xmlns="http://www.w3.org/2000/svg">
<path d="M16.75 4.75H14.8945C14.5977 3.41406 13.4102 2.375 12 2.375C10.5527 2.375 9.36523 3.41406 9.06836 4.75H7.25C5.91406 4.75 4.875 5.82617 4.875 7.125V19C4.875 20.3359 5.91406 21.375 7.25 21.375H16.75C18.0488 21.375 19.125 20.3359 19.125 19V7.125C19.125 5.82617 18.0488 4.75 16.75 4.75ZM12 4.15625C12.4824 4.15625 12.8906 4.56445 12.8906 5.04688C12.8906 5.56641 12.4824 5.9375 12 5.9375C11.4805 5.9375 11.1094 5.56641 11.1094 5.04688C11.1094 4.56445 11.4805 4.15625 12 4.15625ZM17.3438 19C17.3438 19.334 17.0469 19.5938 16.75 19.5938H7.25C6.91602 19.5938 6.65625 19.334 6.65625 19V7.125C6.65625 6.82812 6.91602 6.53125 7.25 6.53125H7.91797C7.84375 6.75391 7.84375 6.93945 7.84375 7.125V7.71875C7.84375 8.05273 8.10352 8.3125 8.4375 8.3125H15.5625C15.8594 8.3125 16.1562 8.05273 16.1562 7.71875V7.125C16.1562 6.93945 16.1191 6.75391 16.0449 6.53125H16.75C17.0469 6.53125 17.3438 6.82812 17.3438 7.125V19ZM15.5625 11.875H11.4062C11.0723 11.875 10.8125 12.1719 10.8125 12.4688C10.8125 12.8027 11.0723 13.0625 11.4062 13.0625H15.5625C15.8594 13.0625 16.1562 12.8027 16.1562 12.4688C16.1562 12.1719 15.8594 11.875 15.5625 11.875ZM15.5625 15.4375H11.4062C11.0723 15.4375 10.8125 15.7344 10.8125 16.0312C10.8125 16.3652 11.0723 16.625 11.4062 16.625H15.5625C15.8594 16.625 16.1562 16.3652 16.1562 16.0312C16.1562 15.7344 15.8594 15.4375 15.5625 15.4375ZM8.73438 15.1406C8.21484 15.1406 7.84375 15.5488 7.84375 16.0312C7.84375 16.5508 8.21484 16.9219 8.73438 16.9219C9.2168 16.9219 9.625 16.5508 9.625 16.0312C9.625 15.5488 9.2168 15.1406 8.73438 15.1406ZM8.88281 13.0625C9.03125 13.0625 9.17969 13.0254 9.29102 12.9141L11.0723 11.1328C11.2949 10.9102 11.2949 10.502 11.0723 10.2793C10.8496 10.0566 10.4414 10.0566 10.2188 10.2793L8.88281 11.6523L8.40039 11.1699C8.17773 10.9473 7.76953 10.9473 7.54688 11.1699C7.32422 11.3926 7.32422 11.8008 7.54688 12.0234L8.4375 12.9141C8.54883 13.0254 8.69727 13.0625 8.88281 13.0625Z" fill="currentColor"/>
</svg>
