<svg width="24" height="24" viewBox="0 0 24 24" fill="currentColor" xmlns="http://www.w3.org/2000/svg">
<path d="M11.1094 6.82812C11.1094 6.3457 11.4805 5.9375 12 5.9375C12.4824 5.9375 12.8906 6.3457 12.8906 6.82812V11.4297L16.0449 13.5078C16.4531 13.8047 16.5645 14.3613 16.2676 14.7695C16.0078 15.1777 15.4512 15.2891 15.043 14.9922L11.4805 12.6172C11.2578 12.4688 11.1094 12.1719 11.1094 11.875V6.82812ZM12 2.375C17.2324 2.375 21.5 6.64258 21.5 11.875C21.5 17.1445 17.2324 21.375 12 21.375C6.73047 21.375 2.5 17.1445 2.5 11.875C2.5 6.64258 6.73047 2.375 12 2.375ZM4.28125 11.875C4.28125 16.1426 7.73242 19.5938 12 19.5938C16.2305 19.5938 19.7188 16.1426 19.7188 11.875C19.7188 7.64453 16.2305 4.15625 12 4.15625C7.73242 4.15625 4.28125 7.64453 4.28125 11.875Z" fill="currentColor"/>
</svg>
