<svg width="24" height="24" viewBox="0 0 24 24" fill="currentColor" xmlns="http://www.w3.org/2000/svg">
<path d="M8.4375 11.875C8.4375 9.9082 9.99609 8.3125 12 8.3125C13.9668 8.3125 15.5625 9.9082 15.5625 11.875C15.5625 13.8418 13.9668 15.4375 12 15.4375C9.99609 15.4375 8.4375 13.8418 8.4375 11.875ZM12 10.0938C10.998 10.0938 10.2188 10.9102 10.2188 11.875C10.2188 12.877 10.998 13.6562 12 13.6562C12.9648 13.6562 13.7812 12.877 13.7812 11.875C13.7812 10.9102 12.9648 10.0938 12 10.0938ZM13.373 2.375C14.1895 2.375 14.8945 2.96875 15.0801 3.74805L15.377 4.97266C15.7109 5.12109 16.0078 5.30664 16.2676 5.49219L17.4922 5.12109C18.2715 4.89844 19.125 5.23242 19.5332 5.9375L20.9062 8.34961C21.3145 9.05469 21.166 9.94531 20.5723 10.502L19.6816 11.3555C19.6816 11.541 19.7188 11.7266 19.7188 11.875C19.7188 12.0605 19.6816 12.2461 19.6816 12.3945L20.5723 13.2852C21.166 13.8418 21.3145 14.7324 20.9062 15.4375L19.5332 17.8496C19.125 18.5547 18.2715 18.8887 17.4922 18.666L16.2676 18.2949C16.0078 18.4805 15.7109 18.666 15.377 18.8145L15.0801 20.0391C14.8945 20.8184 14.1895 21.375 13.373 21.375H10.5898C9.77344 21.375 9.06836 20.8184 8.88281 20.0391L8.58594 18.8145C8.25195 18.666 7.95508 18.4805 7.69531 18.2949L6.4707 18.666C5.69141 18.8887 4.83789 18.5547 4.42969 17.8496L3.05664 15.4375C2.64844 14.7324 2.79688 13.8418 3.39062 13.2852L4.28125 12.3945C4.28125 12.2461 4.28125 12.0605 4.28125 11.875C4.28125 11.7266 4.28125 11.541 4.28125 11.3555L3.39062 10.502C2.79688 9.94531 2.64844 9.05469 3.05664 8.34961L4.42969 5.9375C4.83789 5.23242 5.69141 4.89844 6.4707 5.12109L7.69531 5.49219C7.95508 5.30664 8.25195 5.12109 8.58594 4.97266L8.88281 3.74805C9.06836 2.96875 9.77344 2.375 10.5898 2.375H13.373ZM10.1074 6.23438L9.69922 6.41992C9.2168 6.60547 8.77148 6.86523 8.40039 7.16211L8.0293 7.45898L5.98828 6.82812L4.61523 9.24023L6.13672 10.6875L6.09961 11.1328C6.0625 11.3926 6.0625 11.6523 6.0625 11.875C6.0625 12.1348 6.0625 12.3945 6.09961 12.6543L6.13672 13.0996L4.61523 14.5469L5.98828 16.959L8.0293 16.3281L8.40039 16.625C8.77148 16.9219 9.2168 17.1816 9.69922 17.3672L10.1074 17.5527L10.5898 19.5938H13.373L13.8555 17.5527L14.2637 17.3672C14.7461 17.1816 15.1914 16.9219 15.5625 16.625L15.9336 16.3281L17.9746 16.959L19.3477 14.5469L17.8262 13.0996L17.8633 12.6543C17.9004 12.3945 17.9375 12.1348 17.9375 11.875C17.9375 11.6523 17.9004 11.3926 17.8633 11.1328L17.8262 10.6875L19.3477 9.24023L17.9746 6.82812L15.9336 7.45898L15.5625 7.16211C15.1914 6.86523 14.7461 6.60547 14.2637 6.41992L13.8555 6.23438L13.373 4.15625H10.5898L10.1074 6.23438Z" fill="currentColor"/>
</svg>
