<svg width="24" height="24" viewBox="0 0 24 24" fill="currentColor" xmlns="http://www.w3.org/2000/svg">
<path d="M4.54102 8.90625C4.54102 8.08984 5.20898 7.42188 6.02539 7.42188C6.87891 7.42188 7.50977 8.08984 7.50977 8.90625C7.50977 9.75977 6.87891 10.3906 6.02539 10.3906C5.20898 10.3906 4.54102 9.75977 4.54102 8.90625ZM7.80664 3.26562L8.0293 4.30469C8.40039 4.45312 8.73438 4.63867 9.03125 4.86133L10.0332 4.56445C10.2559 4.49023 10.4785 4.56445 10.627 4.71289C11.2207 5.38086 11.666 6.16016 11.9629 7.05078C12.0371 7.23633 11.9629 7.45898 11.8145 7.60742L11.0352 8.3125C11.0723 8.53516 11.0723 8.75781 11.0723 8.94336C11.0723 9.12891 11.0723 9.35156 11.0723 9.53711L11.8145 10.2422C11.9629 10.3906 12.0371 10.6133 11.9629 10.7988C11.666 11.6895 11.2207 12.4688 10.627 13.1367C10.4785 13.2852 10.2559 13.3594 10.0332 13.2852L9.10547 12.9883C8.77148 13.248 8.40039 13.4707 8.0293 13.6191L7.80664 14.584C7.73242 14.8066 7.58398 14.9551 7.39844 15.0293C6.95312 15.1035 6.50781 15.1406 6.02539 15.1406C5.58008 15.1406 5.13477 15.1035 4.68945 15.0293C4.50391 14.9551 4.35547 14.8066 4.28125 14.584L4.05859 13.6191C3.6875 13.4707 3.31641 13.248 2.98242 12.9883L2.05469 13.2852C1.83203 13.3594 1.60938 13.2852 1.46094 13.1367C0.867188 12.4688 0.421875 11.6895 0.125 10.7988C0.0507812 10.6133 0.125 10.3906 0.273438 10.2422L1.01562 9.53711C1.01562 9.35156 1.01562 9.12891 1.01562 8.94336C1.01562 8.75781 1.01562 8.53516 1.05273 8.3125L0.273438 7.60742C0.125 7.45898 0.0507812 7.23633 0.125 7.05078C0.421875 6.16016 0.867188 5.38086 1.46094 4.71289C1.60938 4.56445 1.83203 4.49023 2.05469 4.56445L3.05664 4.86133C3.35352 4.63867 3.6875 4.45312 4.05859 4.30469L4.28125 3.26562C4.35547 3.04297 4.50391 2.89453 4.68945 2.82031C5.13477 2.74609 5.58008 2.67188 6.02539 2.67188C6.50781 2.67188 6.95312 2.74609 7.39844 2.82031C7.58398 2.89453 7.73242 3.04297 7.80664 3.26562ZM2.46289 8.94336C2.46289 9.0918 2.5 9.24023 2.5 9.35156L2.57422 10.0938L1.75781 10.873C1.86914 11.1699 2.01758 11.4297 2.20312 11.6895L3.2793 11.3555L3.91016 11.8008C4.13281 11.9863 4.39258 12.1348 4.65234 12.2461L5.32031 12.543L5.58008 13.6562C5.72852 13.6562 5.87695 13.6562 6.02539 13.6562C6.21094 13.6562 6.35938 13.6562 6.50781 13.6562L6.76758 12.543L7.43555 12.2461C7.69531 12.1348 7.95508 11.9863 8.17773 11.8008L8.80859 11.3555L9.88477 11.6895C10.0703 11.4297 10.2188 11.1699 10.3301 10.873L9.51367 10.0938L9.58789 9.35156C9.58789 9.24023 9.58789 9.0918 9.58789 8.94336C9.58789 8.79492 9.58789 8.64648 9.58789 8.49805L9.47656 7.75586L10.3301 6.97656C10.2188 6.67969 10.0703 6.41992 9.88477 6.16016L8.73438 6.49414L8.14062 6.04883C7.91797 5.90039 7.69531 5.75195 7.43555 5.64062L6.76758 5.34375L6.50781 4.19336C6.35938 4.19336 6.21094 4.15625 6.02539 4.15625C5.87695 4.15625 5.72852 4.19336 5.58008 4.19336L5.32031 5.34375L4.65234 5.64062C4.39258 5.75195 4.16992 5.90039 3.94727 6.04883L3.35352 6.49414L2.20312 6.16016C2.01758 6.41992 1.86914 6.67969 1.75781 6.97656L2.61133 7.75586L2.5 8.49805C2.5 8.64648 2.46289 8.79492 2.46289 8.94336ZM17.3438 13.9531C18.1602 13.9531 18.8281 14.6211 18.8281 15.4375C18.8281 16.291 18.1602 16.9219 17.3438 16.9219C16.4902 16.9219 15.8594 16.291 15.8594 15.4375C15.8594 14.6211 16.4902 13.9531 17.3438 13.9531ZM21.6855 11.4668L21.3887 12.4688C21.6113 12.7656 21.7969 13.0996 21.9453 13.4707L22.9844 13.6934C23.207 13.7305 23.3555 13.916 23.4297 14.1016C23.5039 14.5469 23.5781 14.9922 23.5781 15.4375C23.5781 15.9199 23.5039 16.3652 23.4297 16.7734C23.3555 16.9961 23.207 17.1445 22.9844 17.2188L21.9453 17.4414C21.7969 17.8125 21.6113 18.1465 21.3887 18.4434L21.6855 19.4453C21.7598 19.668 21.6855 19.8906 21.5371 20.0391C20.8691 20.6328 20.0898 21.0781 19.1992 21.375C19.0137 21.4492 18.791 21.375 18.6426 21.2266L17.9004 20.4473C17.7148 20.4844 17.4922 20.4844 17.3066 20.4844C17.1211 20.4844 16.8984 20.4844 16.7129 20.4844L16.0078 21.2266C15.8594 21.375 15.6367 21.4492 15.4512 21.375C14.5605 21.0781 13.7812 20.6328 13.1133 20.0391C12.9648 19.8906 12.8906 19.668 12.9648 19.4453L13.2617 18.5176C13.002 18.1836 12.7793 17.8125 12.6309 17.4414L11.666 17.2188C11.4434 17.1445 11.2949 16.9961 11.2207 16.7734C11.1465 16.3652 11.0723 15.9199 11.0723 15.4375C11.0723 14.9922 11.1465 14.5469 11.2207 14.1016C11.2949 13.916 11.4434 13.7305 11.666 13.6934L12.6309 13.4707C12.7793 13.0996 13.002 12.7285 13.2617 12.3945L12.9648 11.4668C12.8906 11.2441 12.9648 11.0215 13.1133 10.873C13.7812 10.2793 14.5605 9.83398 15.4512 9.53711C15.6367 9.46289 15.8594 9.53711 16.0078 9.68555L16.7129 10.4277C16.8984 10.4277 17.1211 10.3906 17.3066 10.3906C17.4922 10.3906 17.7148 10.4277 17.9004 10.4277L18.6426 9.68555C18.791 9.53711 19.0137 9.46289 19.1992 9.53711C20.0898 9.83398 20.8691 10.2793 21.5371 10.873C21.6855 11.0215 21.7598 11.2441 21.6855 11.4668ZM17.3066 11.875C17.1582 11.875 17.0098 11.9121 16.8984 11.9121L16.1562 11.9863L15.377 11.1699C15.0801 11.2812 14.8203 11.4297 14.5605 11.6152L14.8945 12.6914L14.4121 13.3223C14.2637 13.5449 14.1152 13.8047 14.0039 14.0645L13.707 14.7324L12.5938 14.9922C12.5938 15.1406 12.5938 15.2891 12.5938 15.4375C12.5938 15.623 12.5938 15.7715 12.5938 15.9199L13.707 16.1797L14.0039 16.8477C14.1152 17.1074 14.2637 17.3672 14.4121 17.5898L14.8945 18.1836L14.5605 19.2969C14.8203 19.4824 15.0801 19.6309 15.377 19.7422L16.1562 18.9258L16.8984 19C17.0098 19 17.1582 19 17.3066 19C17.4551 19 17.6035 19 17.752 19L18.4941 18.8887L19.2734 19.7422C19.5703 19.6309 19.8301 19.4824 20.0898 19.2969L19.7559 18.1465L20.2012 17.5527C20.3496 17.3301 20.498 17.1074 20.6094 16.8477L20.9062 16.1797L22.0566 15.9199C22.0566 15.7715 22.0938 15.623 22.0938 15.4375C22.0938 15.2891 22.0566 15.1406 22.0566 14.9922L20.9062 14.7324L20.6094 14.0273C20.498 13.8047 20.3496 13.5449 20.2012 13.3594L19.7559 12.7656L20.0898 11.6152C19.8301 11.4297 19.5703 11.2812 19.2734 11.1699L18.4941 12.0234L17.752 11.9121C17.6035 11.9121 17.4551 11.875 17.3066 11.875Z" fill="currentColor"/>
</svg>
