<svg width="24" height="24" viewBox="0 0 24 24" fill="currentColor" xmlns="http://www.w3.org/2000/svg">
<path d="M2.5 10.0938C2.5 7.16211 6.73047 4.75 12 4.75C17.2324 4.75 21.5 7.16211 21.5 10.0938V14.25C21.5 16.8848 17.2324 19 12 19C6.73047 19 2.5 16.8848 2.5 14.25V10.0938ZM17.8262 12.3203C19.2734 11.5039 19.7188 10.6504 19.7188 10.0938C19.7188 9.57422 19.2734 8.7207 17.8262 7.86719C16.416 7.08789 14.375 6.53125 12 6.53125C9.58789 6.53125 7.54688 7.08789 6.13672 7.86719C4.68945 8.7207 4.28125 9.57422 4.28125 10.0938C4.28125 10.6504 4.68945 11.5039 6.13672 12.3203C7.54688 13.1367 9.58789 13.6562 12 13.6562C14.375 13.6562 16.416 13.1367 17.8262 12.3203ZM12 15.4375C11.4805 15.4375 10.998 15.4375 10.5156 15.4004V17.1816C10.9609 17.2188 11.4805 17.2188 12 17.2188C12.4824 17.2188 13.002 17.2188 13.4844 17.1816V15.4004C12.9648 15.4375 12.4824 15.4375 12 15.4375ZM6.95312 16.4023C7.62109 16.6621 8.4375 16.8848 9.32812 17.0332V15.252C8.47461 15.1035 7.6582 14.8809 6.95312 14.6211V16.4023ZM5.76562 14.1387C5.20898 13.8789 4.68945 13.5449 4.28125 13.2109V14.25C4.28125 14.5098 4.50391 15.1777 5.76562 15.8828V14.1387ZM14.6719 15.252V17.0332C15.5254 16.8848 16.3418 16.6621 17.0469 16.4023V14.6211C16.3047 14.8809 15.4883 15.1035 14.6719 15.252ZM19.7188 13.2109C19.2734 13.5449 18.7539 13.8789 18.2344 14.1387V15.8828C19.459 15.1777 19.7188 14.5098 19.7188 14.25V13.2109Z" fill="currentColor"/>
</svg>
