<svg width="24" height="24" viewBox="0 0 24 24" fill="currentColor" xmlns="http://www.w3.org/2000/svg">
<path d="M9.03125 5.71484C9.06836 5.75195 9.10547 5.82617 9.2168 5.9375C9.2168 5.9375 9.25391 5.9375 9.25391 5.97461C8.54883 5.97461 7.88086 6.01172 7.25 6.12305V5.64062C7.25 4.97266 7.58398 4.45312 8.0293 4.08203C8.4375 3.67383 8.99414 3.37695 9.625 3.1543C10.8867 2.67188 12.5566 2.375 14.375 2.375C16.1562 2.375 17.8262 2.67188 19.0879 3.1543C19.7188 3.37695 20.2754 3.67383 20.6836 4.08203C21.1289 4.45312 21.5 4.97266 21.5 5.64062V13.3594C21.5 14.0273 21.1289 14.584 20.6836 14.9551C20.2754 15.3633 19.7188 15.6602 19.0879 15.8828C18.7168 16.0312 18.3457 16.1426 17.9375 16.2539V14.3984C18.123 14.3613 18.2715 14.2871 18.457 14.2129C18.9395 14.0273 19.3105 13.8418 19.4961 13.6562C19.6074 13.5449 19.6445 13.4707 19.6816 13.4336C19.7188 13.3965 19.7188 13.3594 19.7188 13.3594V11.7637C19.4961 11.875 19.3105 11.9492 19.0879 12.0234C18.7168 12.1719 18.3457 12.2832 17.9375 12.3945V10.5391C18.123 10.502 18.2715 10.4277 18.457 10.3535C18.9395 10.168 19.3105 9.98242 19.4961 9.79688C19.6074 9.68555 19.6445 9.61133 19.6816 9.57422C19.6816 9.53711 19.6816 9.53711 19.7188 9.5V7.9043C19.4961 8.01562 19.3105 8.08984 19.0879 8.16406C18.5684 8.34961 17.9746 8.53516 17.3809 8.64648C17.1582 8.34961 16.9727 8.12695 16.75 7.94141C16.3789 7.60742 15.9336 7.31055 15.4883 7.08789C16.6387 7.01367 17.6777 6.79102 18.457 6.49414C18.9395 6.30859 19.3105 6.12305 19.4961 5.9375C19.6074 5.82617 19.6445 5.75195 19.6816 5.71484C19.6816 5.67773 19.6816 5.67773 19.7188 5.64062C19.7188 5.64062 19.7188 5.64062 19.6816 5.60352C19.6445 5.56641 19.6074 5.49219 19.4961 5.38086C19.3105 5.19531 18.9395 5.00977 18.457 4.82422C17.4551 4.41602 16.0078 4.15625 14.375 4.15625C12.7051 4.15625 11.2578 4.41602 10.2559 4.82422C9.77344 5.00977 9.40234 5.19531 9.2168 5.38086C9.10547 5.49219 9.06836 5.56641 9.03125 5.60352C8.99414 5.64062 8.99414 5.64062 8.99414 5.64062C9.03125 5.67773 9.03125 5.67773 9.03125 5.71484ZM2.5 10.3906C2.5 9.72266 2.83398 9.20312 3.2793 8.83203C3.6875 8.42383 4.24414 8.12695 4.875 7.9043C6.13672 7.42188 7.80664 7.125 9.625 7.125C11.4062 7.125 13.0762 7.42188 14.3379 7.9043C14.9688 8.12695 15.5254 8.42383 15.9336 8.83203C16.3789 9.20312 16.75 9.72266 16.75 10.3906V18.1094C16.75 18.7773 16.3789 19.334 15.9336 19.7051C15.5254 20.1133 14.9688 20.4102 14.3379 20.6328C13.0762 21.1152 11.4062 21.375 9.625 21.375C7.80664 21.375 6.13672 21.1152 4.875 20.6328C4.24414 20.4102 3.6875 20.1133 3.2793 19.7051C2.83398 19.334 2.5 18.7773 2.5 18.1094V10.3906ZM4.28125 10.4648C4.31836 10.502 4.35547 10.5762 4.4668 10.6875C4.65234 10.873 5.02344 11.0586 5.50586 11.2441C6.50781 11.6523 7.95508 11.875 9.625 11.875C11.2578 11.875 12.7051 11.6523 13.707 11.2441C14.1895 11.0586 14.5605 10.873 14.7461 10.6875C14.8574 10.5762 14.8945 10.502 14.9316 10.4648C14.9316 10.4277 14.9316 10.4277 14.9688 10.3906C14.9688 10.3906 14.9688 10.3906 14.9316 10.3535C14.8945 10.3164 14.8574 10.2422 14.7461 10.1309C14.5605 9.94531 14.1895 9.75977 13.707 9.57422C12.7051 9.16602 11.2578 8.90625 9.625 8.90625C7.95508 8.90625 6.50781 9.16602 5.50586 9.57422C5.02344 9.75977 4.65234 9.94531 4.4668 10.1309C4.35547 10.2422 4.31836 10.3164 4.28125 10.3535C4.24414 10.3906 4.24414 10.3906 4.28125 10.3906C4.28125 10.4277 4.28125 10.4277 4.28125 10.4648ZM14.9688 12.6543C14.7461 12.7656 14.5605 12.8398 14.3379 12.9141C13.0762 13.3965 11.4062 13.6562 9.625 13.6562C7.80664 13.6562 6.13672 13.3965 4.875 12.9141C4.65234 12.8398 4.4668 12.7656 4.28125 12.6543V14.25C4.28125 14.2871 4.28125 14.2871 4.28125 14.3242C4.31836 14.3613 4.35547 14.4355 4.4668 14.5469C4.65234 14.7324 5.02344 14.918 5.50586 15.1035C6.50781 15.5117 7.95508 15.7344 9.625 15.7344C11.2578 15.7344 12.7051 15.5117 13.707 15.1035C14.1895 14.918 14.5605 14.7324 14.7461 14.5469C14.8574 14.4355 14.8945 14.3613 14.9316 14.3242C14.9316 14.2871 14.9316 14.2871 14.9688 14.25V12.6543ZM4.875 16.7734C4.65234 16.6992 4.4668 16.625 4.28125 16.5137V18.1094C4.24414 18.1094 4.24414 18.1465 4.28125 18.1836C4.31836 18.2207 4.35547 18.2949 4.4668 18.4062C4.65234 18.5918 5.02344 18.7773 5.50586 18.9629C6.50781 19.3711 7.95508 19.5938 9.625 19.5938C11.2578 19.5938 12.7051 19.3711 13.707 18.9629C14.1895 18.7773 14.5605 18.5918 14.7461 18.4062C14.8574 18.2949 14.8945 18.2207 14.9316 18.1836C14.9688 18.1465 14.9688 18.1094 14.9688 18.1094V16.5137C14.7461 16.625 14.5605 16.6992 14.3379 16.7734C13.0762 17.2559 11.4062 17.5156 9.58789 17.5156C7.80664 17.5156 6.13672 17.2559 4.875 16.7734Z" fill="currentColor"/>
</svg>
