<svg width="24" height="24" viewBox="0 0 24 24" fill="currentColor" xmlns="http://www.w3.org/2000/svg">
<path d="M15.5625 4.75V11.875C15.5625 13.2109 14.4863 14.25 13.1875 14.25H8.4375L4.39258 16.5508C4.28125 16.625 4.20703 16.625 4.13281 16.625C3.87305 16.625 3.6875 16.4766 3.6875 16.1797V14.25H2.5C1.16406 14.25 0.125 13.2109 0.125 11.875V4.75C0.125 3.45117 1.16406 2.375 2.5 2.375H13.1875C14.4863 2.375 15.5625 3.45117 15.5625 4.75ZM5.46875 13.916L7.95508 12.4688H13.1875C13.4844 12.4688 13.7812 12.209 13.7812 11.875V4.75C13.7812 4.45312 13.4844 4.15625 13.1875 4.15625H2.5C2.16602 4.15625 1.90625 4.45312 1.90625 4.75V11.875C1.90625 12.209 2.16602 12.4688 2.5 12.4688H5.46875V13.916ZM9.625 16.625V15.4375H11.4062V16.625C11.4062 16.959 11.666 17.2188 12 17.2188H16.0078L18.5312 18.666V17.2188H21.5C21.7969 17.2188 22.0938 16.959 22.0938 16.625V9.5C22.0938 9.20312 21.7969 8.90625 21.5 8.90625H16.75V7.125H21.5C22.7988 7.125 23.875 8.20117 23.875 9.5V16.625C23.875 17.9609 22.7988 19 21.5 19H20.3125V20.9297C20.3125 21.2266 20.0898 21.375 19.8672 21.375C19.7559 21.375 19.6816 21.375 19.5703 21.3008L15.5625 19H12C10.6641 19 9.625 17.9609 9.625 16.625Z" fill="currentColor"/>
</svg>
