<svg width="24" height="24" viewBox="0 0 24 24" fill="currentColor" xmlns="http://www.w3.org/2000/svg">
<path d="M12 3.5625C6.73047 3.5625 2.5 7.05078 2.5 11.2812C2.5 13.0625 3.20508 14.6953 4.42969 15.9941C3.91016 17.4414 2.75977 18.7031 2.72266 18.7031C2.46289 18.9629 2.42578 19.334 2.53711 19.668C2.68555 20.002 3.01953 20.1875 3.39062 20.1875C5.6543 20.1875 7.43555 19.2598 8.54883 18.4805C9.58789 18.8145 10.7754 19 12 19C17.2324 19 21.4629 15.5488 21.4629 11.2812C21.4629 7.05078 17.2324 3.5625 12 3.5625ZM12 17.2188C10.998 17.2188 9.99609 17.0703 9.06836 16.7734L8.21484 16.5137L7.50977 17.0332C6.99023 17.4043 6.24805 17.8125 5.35742 18.1094C5.6543 17.6641 5.91406 17.1445 6.09961 16.625L6.50781 15.5859L5.72852 14.7695C5.06055 14.0645 4.28125 12.877 4.28125 11.2812C4.28125 8.01562 7.73242 5.34375 12 5.34375C16.2305 5.34375 19.7188 8.01562 19.7188 11.2812C19.7188 14.584 16.2305 17.2188 12 17.2188Z" fill="currentColor"/>
</svg>
