<svg width="24" height="24" viewBox="0 0 24 24" fill="currentColor" xmlns="http://www.w3.org/2000/svg">
<path d="M22.9844 18.4062H22.6875V5.34375H22.9844C23.4668 5.34375 23.875 4.97266 23.875 4.45312C23.875 3.9707 23.4668 3.5625 22.9844 3.5625H1.01562C0.496094 3.5625 0.125 3.9707 0.125 4.45312C0.125 4.97266 0.496094 5.34375 1.01562 5.34375H1.3125V18.4062H1.01562C0.496094 18.4062 0.125 18.8145 0.125 19.2969C0.125 19.8164 0.496094 20.1875 1.01562 20.1875H22.9844C23.4668 20.1875 23.875 19.8164 23.875 19.2969C23.875 18.8145 23.4668 18.4062 22.9844 18.4062ZM20.9062 18.4062H3.09375V5.34375H20.9062V18.4062ZM7.25 17.2188C7.73242 17.2188 8.14062 16.8477 8.14062 16.3281V7.42188C8.14062 6.93945 7.73242 6.53125 7.25 6.53125C6.73047 6.53125 6.35938 6.93945 6.35938 7.42188V16.3281C6.35938 16.8477 6.73047 17.2188 7.25 17.2188ZM12 17.2188C12.4824 17.2188 12.8906 16.8477 12.8906 16.3281V7.42188C12.8906 6.93945 12.4824 6.53125 12 6.53125C11.4805 6.53125 11.1094 6.93945 11.1094 7.42188V16.3281C11.1094 16.8477 11.4805 17.2188 12 17.2188ZM16.75 17.2188C17.2324 17.2188 17.6406 16.8477 17.6406 16.3281V7.42188C17.6406 6.93945 17.2324 6.53125 16.75 6.53125C16.2305 6.53125 15.8594 6.93945 15.8594 7.42188V16.3281C15.8594 16.8477 16.2305 17.2188 16.75 17.2188Z" fill="currentColor"/>
</svg>
