<svg width="24" height="24" viewBox="0 0 24 24" fill="currentColor" xmlns="http://www.w3.org/2000/svg">
<path d="M3.57827 19.2053C2.59564 19.2053 1.79841 18.4081 1.79841 17.4254C1.79841 16.4428 2.59564 15.6456 3.57827 15.6456H14.009L11.7323 13.8657H3.57827C1.61301 13.8657 0.0185547 15.4602 0.0185547 17.4254C0.0185547 19.3907 1.61301 20.9852 3.57827 20.9852H20.1903C20.3905 20.9852 20.5871 20.9666 20.7762 20.937L18.5625 19.2053H3.57827Z" fill="currentColor"/>
<path d="M21.8812 16.8767L23.6499 18.2598C23.7129 17.9928 23.7463 17.7147 23.7463 17.4292C23.7463 15.4639 22.1519 13.8694 20.1866 13.8694H18.0322L20.3164 15.653C21.0506 15.7049 21.6624 16.2018 21.8812 16.8767Z" fill="currentColor"/>
<path d="M4.7647 18.612C5.42002 18.612 5.95127 18.0808 5.95127 17.4254C5.95127 16.7701 5.42002 16.2389 4.7647 16.2389C4.10937 16.2389 3.57812 16.7701 3.57812 17.4254C3.57812 18.0808 4.10937 18.612 4.7647 18.612Z" fill="currentColor"/>
<path d="M6.54451 3.77986H9.51094V7.20238L10.082 7.64735L11.8841 6.74629L14.2572 7.93286V3.77986H17.2237V10.8993H14.2387L16.5154 12.6792H18.4102C18.7365 12.6792 19.0035 12.4122 19.0035 12.0859V2.59329C19.0035 2.26698 18.7365 2 18.4102 2H5.35793C5.03163 2 4.76465 2.26698 4.76465 2.59329V3.49063L6.54451 4.88115V3.77986Z" fill="currentColor"/>
<path d="M11.8841 18.612C12.5394 18.612 13.0707 18.0808 13.0707 17.4254C13.0707 16.7701 12.5394 16.2389 11.8841 16.2389C11.2288 16.2389 10.6975 16.7701 10.6975 17.4254C10.6975 18.0808 11.2288 18.612 11.8841 18.612Z" fill="currentColor"/>
<path d="M6.54451 10.8993V9.81284L4.76465 8.42233V12.0896C4.76465 12.4159 5.03163 12.6829 5.35793 12.6829H10.2118L7.93502 10.903H6.54451V10.8993Z" fill="currentColor"/>
<path d="M6.54468 6.21975V8.47795L9.64089 10.8993H12.5332L6.54468 6.21975Z" fill="currentColor"/>
<path d="M1.33481 2.14461C1.22357 2.05562 1.09379 2.01483 0.964005 2.01483C0.789727 2.01483 0.619157 2.0927 0.500499 2.23731L0.129695 2.70082C-0.0742468 2.95667 -0.0334584 3.33119 0.222396 3.53513L4.76475 7.08743V4.82923L1.33481 2.14461Z" fill="currentColor"/>
<path d="M19.0036 16.2389C19.1816 16.2389 19.3522 16.2797 19.5042 16.3501L18.6032 15.6456H15.7146L17.8245 17.2957C17.8875 16.7024 18.3918 16.2389 19.0036 16.2389Z" fill="currentColor"/>
<path d="M14.8098 12.6792H11.9175L13.4378 13.8657H16.3263L14.8098 12.6792Z" fill="currentColor"/>
<path d="M21.9478 20.5217L22.3927 20.8702C22.504 20.9592 22.6337 21 22.7635 21C22.9378 21 23.1084 20.9258 23.227 20.7775L23.5978 20.314C23.8018 20.0582 23.761 19.6836 23.5051 19.4797L23.2344 19.2683C22.9193 19.7875 22.478 20.2213 21.9478 20.5217Z" fill="currentColor"/>
<path d="M20.1903 17.4254C20.1903 17.9372 19.8677 18.371 19.4153 18.5379L20.2644 19.2016C20.9541 19.1719 21.5437 18.7492 21.8144 18.1522L19.927 16.6764C20.0901 16.8841 20.1903 17.1436 20.1903 17.4254Z" fill="currentColor"/>
<path d="M12.5331 10.8993H9.64087L11.9176 12.6792H14.8099L12.5331 10.8993Z" fill="currentColor"/>
<path d="M20.1901 17.4254C20.1901 17.1436 20.09 16.8841 19.9269 16.6801L19.5079 16.3501C19.3558 16.2797 19.1853 16.2389 19.0073 16.2389C18.3955 16.2389 17.8912 16.6987 17.8281 17.2957L19.4189 18.5379C19.8675 18.3747 20.1901 17.9372 20.1901 17.4254Z" fill="currentColor"/>
<path d="M4.76465 4.82923V7.08743L6.54451 8.47795V6.21975L4.76465 4.82923Z" fill="currentColor"/>
<path d="M20.2644 19.2053L21.9479 20.5217C22.4744 20.2213 22.9194 19.7875 23.2345 19.2683L21.8107 18.1559C21.5437 18.7529 20.9541 19.1756 20.2644 19.2053Z" fill="currentColor"/>
<path d="M16.3263 13.8657H13.4377L15.7145 15.6456H18.603L16.3263 13.8657Z" fill="currentColor"/>
</svg>
