<svg width="24" height="24" viewBox="0 0 24 24" fill="currentColor" xmlns="http://www.w3.org/2000/svg">
<path d="M4.875 16.0312C4.20703 16.0312 3.6875 16.5879 3.6875 17.2188C3.6875 17.8867 4.20703 18.4062 4.875 18.4062C5.50586 18.4062 6.0625 17.8867 6.0625 17.2188C6.0625 16.5879 5.50586 16.0312 4.875 16.0312ZM19.7188 13.0625H4.28125C1.98047 13.0625 0.125 14.9551 0.125 17.2188C0.125 19.5195 1.98047 21.375 4.28125 21.375H19.7188C21.9824 21.375 23.875 19.5195 23.875 17.2188C23.875 14.9551 21.9824 13.0625 19.7188 13.0625ZM19.6816 19.5938H4.24414C2.94531 19.5938 1.90625 18.5547 1.90625 17.2188C1.90625 15.9199 2.94531 14.8438 4.28125 14.8438H19.7188C21.0176 14.8438 22.0938 15.9199 22.0938 17.2188C22.0938 18.5547 21.0176 19.5938 19.6816 19.5938ZM19.125 16.0312C18.457 16.0312 17.9375 16.5879 17.9375 17.2188C17.9375 17.8867 18.457 18.4062 19.125 18.4062C19.7559 18.4062 20.3125 17.8867 20.3125 17.2188C20.3125 16.5879 19.7559 16.0312 19.125 16.0312ZM11.9629 16.0312C11.332 16.0312 10.8125 16.5879 10.8125 17.2188C10.8125 17.8867 11.332 18.4062 12 18.4062C12.6309 18.4062 13.1875 17.8867 13.1875 17.2188C13.1875 16.5879 12.6309 16.0312 11.9629 16.0312ZM7.25 11.875H16.75C18.0488 11.875 19.125 10.8359 19.125 9.5V4.75C19.125 3.45117 18.0488 2.375 16.75 2.375H7.25C5.91406 2.375 4.875 3.45117 4.875 4.75V9.5C4.875 10.8359 5.91406 11.875 7.25 11.875ZM6.65625 4.75C6.65625 4.45312 6.91602 4.15625 7.25 4.15625H9.625V7.125L12 5.9375L14.375 7.125V4.15625H16.75C17.0469 4.15625 17.3438 4.45312 17.3438 4.75V9.5C17.3438 9.83398 17.0469 10.0938 16.75 10.0938H7.25C6.91602 10.0938 6.65625 9.83398 6.65625 9.5V4.75Z" fill="currentColor"/>
</svg>
