<svg width="24" height="24" viewBox="0 0 24 24" fill="currentColor" xmlns="http://www.w3.org/2000/svg">
<path d="M21.1289 5.00977L18.8652 2.74609C18.6426 2.52344 18.3457 2.375 18.0117 2.375H11.9629C10.627 2.375 9.58789 3.45117 9.58789 4.75V14.25C9.625 15.5859 10.6641 16.625 12 16.625H19.125C20.4238 16.625 21.5 15.5859 21.5 14.25V5.86328C21.5 5.5293 21.3516 5.23242 21.1289 5.00977ZM19.7188 14.25C19.7188 14.584 19.4219 14.8438 19.125 14.8438H11.9629C11.6289 14.8438 11.3691 14.584 11.3691 14.25V4.78711C11.3691 4.45312 11.6289 4.19336 11.9629 4.19336H16.7129L16.75 5.9375C16.75 6.60547 17.2695 7.125 17.9375 7.125H19.6816V14.25H19.7188ZM12.5938 19C12.5938 19.334 12.2969 19.5938 12 19.5938H4.83789C4.50391 19.5938 4.24414 19.334 4.24414 19V9.53711C4.24414 9.20312 4.54102 8.94336 4.83789 8.94336H8.4375V7.125H4.83789C3.53906 7.125 2.46289 8.20117 2.46289 9.5L2.5 19C2.5 20.3359 3.53906 21.375 4.875 21.375H12C13.2988 21.375 14.375 20.3359 14.375 19V17.8125H12.5938V19Z" fill="currentColor"/>
</svg>
