<svg width="24" height="24" viewBox="0 0 24 24" fill="currentColor" xmlns="http://www.w3.org/2000/svg">
<path d="M7.54688 14.8438C8.0293 14.8438 8.4375 15.252 8.4375 15.7344C8.4375 16.2539 8.0293 16.625 7.54688 16.625H5.76562C5.24609 16.625 4.875 16.2539 4.875 15.7344C4.875 15.252 5.24609 14.8438 5.76562 14.8438H7.54688ZM14.6719 14.8438C15.1543 14.8438 15.5625 15.252 15.5625 15.7344C15.5625 16.2539 15.1543 16.625 14.6719 16.625H10.5156C9.99609 16.625 9.625 16.2539 9.625 15.7344C9.625 15.252 9.99609 14.8438 10.5156 14.8438H14.6719ZM20.3125 3.5625C21.6113 3.5625 22.6875 4.63867 22.6875 5.9375V17.8125C22.6875 19.1484 21.6113 20.1875 20.3125 20.1875H3.6875C2.35156 20.1875 1.3125 19.1484 1.3125 17.8125V5.9375C1.3125 4.63867 2.35156 3.5625 3.6875 3.5625H20.3125ZM20.3125 5.34375H3.6875C3.35352 5.34375 3.09375 5.64062 3.09375 5.9375V7.125H20.9062V5.9375C20.9062 5.64062 20.6094 5.34375 20.3125 5.34375ZM20.9062 10.6875H3.09375V17.8125C3.09375 18.1465 3.35352 18.4062 3.6875 18.4062H20.3125C20.6094 18.4062 20.9062 18.1465 20.9062 17.8125V10.6875Z" fill="currentColor"/>
</svg>
