<svg width="24" height="24" viewBox="0 0 24 24" fill="currentColor" xmlns="http://www.w3.org/2000/svg">
<path d="M20.3125 2.375H3.6875C2.35156 2.375 1.3125 3.45117 1.3125 4.75V15.4375C1.3125 16.7734 2.35156 17.8125 3.6875 17.8125H9.17969L8.80859 19.5938H6.95312C6.43359 19.5938 6.0625 20.002 6.0625 20.4844C6.0625 21.0039 6.43359 21.375 6.95312 21.375H17.0469C17.5293 21.375 17.9375 21.0039 17.9375 20.4844C17.9375 20.002 17.5293 19.5938 17.0469 19.5938H15.1543L14.7832 17.8125H20.3125C21.6113 17.8125 22.6875 16.7734 22.6875 15.4375V4.75C22.6875 3.45117 21.6113 2.375 20.3125 2.375ZM13.3359 19.5938H10.627L10.998 17.8125H12.9648L13.3359 19.5938ZM20.9062 15.4375C20.9062 15.7715 20.6094 16.0312 20.3125 16.0312H3.6875C3.35352 16.0312 3.09375 15.7715 3.09375 15.4375V13.6562H20.9062V15.4375ZM20.9062 11.875H3.09375V4.75C3.09375 4.45312 3.35352 4.15625 3.6875 4.15625H20.3125C20.6094 4.15625 20.9062 4.45312 20.9062 4.75V11.875Z" fill="currentColor"/>
</svg>
