<svg width="24" height="24" viewBox="0 0 24 24" fill="currentColor" xmlns="http://www.w3.org/2000/svg">
<path d="M22.6133 13.6562C22.4648 13.2109 21.9453 12.9512 21.5 13.1367L20.8691 13.3594L18.2344 6.3457C18.0859 5.86328 17.7148 5.45508 17.2324 5.23242C16.75 5.00977 16.1934 5.00977 15.7109 5.19531L8.47461 7.9043L6.87891 3.00586C6.76758 2.63477 6.43359 2.375 6.02539 2.375H2.20312C1.68359 2.375 1.3125 2.7832 1.3125 3.26562C1.3125 3.78516 1.68359 4.15625 2.20312 4.15625H5.39453L8.88281 14.8438C7.88086 15.4746 7.25 16.5508 7.25 17.8125C7.25 19.8164 8.80859 21.375 10.8125 21.375C12.7793 21.375 14.375 19.8164 14.375 17.8125C14.375 17.7383 14.3379 17.627 14.3379 17.5156L22.0566 14.8066C22.5391 14.6582 22.7988 14.1387 22.6133 13.6562ZM10.8125 19.5938C9.81055 19.5938 9.03125 18.8145 9.03125 17.8125C9.03125 16.8477 9.81055 16.0312 10.8125 16.0312C11.7773 16.0312 12.5938 16.8477 12.5938 17.8125C12.5938 18.8145 11.7773 19.5938 10.8125 19.5938ZM13.7441 15.8457C13.1133 14.8809 12.0371 14.25 10.8125 14.25C10.7012 14.25 10.6641 14.2871 10.5898 14.2871L9.03125 9.61133L12.3711 8.34961L13.373 11.0215C13.5215 11.3926 13.8555 11.5781 14.2266 11.5781C14.3008 11.5781 14.4121 11.5781 14.5234 11.541C14.9688 11.3555 15.2285 10.8359 15.043 10.3906L14.041 7.71875L16.3418 6.86523C16.416 6.82812 16.5645 6.90234 16.6016 6.97656L19.1992 13.916L13.7441 15.8457Z" fill="currentColor"/>
</svg>
