<svg width="24" height="24" viewBox="0 0 24 24" fill="currentColor" xmlns="http://www.w3.org/2000/svg">
<path d="M22.9844 17.2188H5.46875V4.75C5.46875 3.45117 4.39258 2.375 3.09375 2.375H1.01562C0.496094 2.375 0.125 2.7832 0.125 3.26562C0.125 3.78516 0.496094 4.15625 1.01562 4.15625H2.79688C3.2793 4.15625 3.6875 4.56445 3.6875 5.04688V17.8125C3.6875 18.4434 4.20703 19 4.875 19H6.13672C6.09961 19.1855 6.0625 19.4082 6.0625 19.5938C6.0625 20.5957 6.8418 21.375 7.84375 21.375C8.80859 21.375 9.625 20.5957 9.625 19.5938C9.625 19.4082 9.55078 19.2227 9.51367 19H16.8242C16.7871 19.2227 16.75 19.4082 16.75 19.5938C16.75 20.5957 17.5293 21.375 18.5312 21.375C19.4961 21.375 20.3125 20.5957 20.3125 19.5938C20.3125 19.4082 20.2383 19.2227 20.2012 19H22.9844C23.4668 19 23.875 18.5918 23.875 18.1094C23.875 17.627 23.4668 17.2188 22.9844 17.2188ZM9.625 15.4375H13.7812C14.3379 15.4375 14.8574 15.252 15.2656 14.918C15.6367 15.252 16.1562 15.4375 16.75 15.4375H20.3125C21.6113 15.4375 22.6875 14.3984 22.6875 13.0625V11.2812C22.6875 10.168 21.8711 9.20312 20.7949 8.98047C20.8691 8.75781 20.9062 8.53516 20.9062 8.3125V6.53125C20.9062 5.23242 19.8301 4.15625 18.5312 4.15625H16.75C16.3418 4.15625 15.9336 4.26758 15.5996 4.45312C15.1543 3.93359 14.5234 3.5625 13.7812 3.5625H9.625C8.28906 3.5625 7.25 4.63867 7.25 5.9375V13.0625C7.25 14.3984 8.28906 15.4375 9.625 15.4375ZM16.1562 6.53125C16.1562 6.23438 16.416 5.9375 16.75 5.9375H18.5312C18.8281 5.9375 19.125 6.23438 19.125 6.53125V8.3125C19.125 8.64648 18.8281 8.90625 18.5312 8.90625H16.75C16.416 8.90625 16.1562 8.64648 16.1562 8.3125V6.53125ZM16.1562 11.2812C16.1562 10.9844 16.416 10.6875 16.75 10.6875H20.3125C20.6094 10.6875 20.9062 10.9844 20.9062 11.2812V13.0625C20.9062 13.3965 20.6094 13.6562 20.3125 13.6562H16.75C16.416 13.6562 16.1562 13.3965 16.1562 13.0625V11.2812ZM9.03125 5.9375C9.03125 5.64062 9.29102 5.34375 9.625 5.34375H13.7812C14.0781 5.34375 14.375 5.64062 14.375 5.9375V13.0625C14.375 13.3965 14.0781 13.6562 13.7812 13.6562H9.625C9.29102 13.6562 9.03125 13.3965 9.03125 13.0625V5.9375Z" fill="currentColor"/>
</svg>
