<svg width="24" height="24" viewBox="0 0 24 24" fill="currentColor" xmlns="http://www.w3.org/2000/svg">
<path d="M22.9844 17.2188H5.46875V4.75C5.46875 3.45117 4.39258 2.375 3.09375 2.375H1.01562C0.496094 2.375 0.125 2.7832 0.125 3.26562C0.125 3.74805 0.496094 4.11914 1.01562 4.11914H2.79688C3.2793 4.11914 3.6875 4.49023 3.6875 5.00977V17.7383C3.6875 18.3691 4.20703 18.8887 4.83789 18.8887H6.13672C6.09961 19.1855 6.0625 19.4082 6.0625 19.5938C6.0625 20.5957 6.8418 21.375 7.84375 21.375C8.80859 21.375 9.625 20.5957 9.625 19.5938C9.625 19.4082 9.55078 19.2227 9.51367 19H16.8242C16.7871 19.2227 16.75 19.4082 16.75 19.5938C16.75 20.5957 17.5293 21.375 18.5312 21.375C19.4961 21.375 20.3125 20.5957 20.3125 19.6309C20.3125 19.4453 20.2383 19.2227 20.2012 19.0371L22.9844 19C23.4668 19 23.875 18.5918 23.875 18.1094C23.875 17.627 23.4668 17.2188 22.9844 17.2188ZM9.625 15.4375H20.3125C21.6113 15.4375 22.6875 14.3984 22.6875 13.0625V5.9375C22.6875 4.63867 21.6113 3.59961 20.3125 3.59961H9.625C8.28906 3.59961 7.25 4.67578 7.25 5.9375V13.0625C7.25 14.3984 8.28906 15.4375 9.625 15.4375ZM9.03125 5.9375C9.03125 5.64062 9.29102 5.34375 9.625 5.34375H12.5938V9.5L14.9688 8.3125L17.3438 9.5V5.34375H20.3125C20.6094 5.34375 20.9062 5.64062 20.9062 5.9375V13.0254C20.9062 13.3594 20.6094 13.582 20.3125 13.582H9.625C9.29102 13.582 9.03125 13.3223 9.03125 13.0254V5.9375Z" fill="currentColor"/>
</svg>
