<svg width="24" height="24" viewBox="0 0 24 24" fill="currentColor" xmlns="http://www.w3.org/2000/svg">
<path d="M19.125 13.6562H17.1211L15.3398 15.4375H19.125C19.4219 15.4375 19.7188 15.7344 19.7188 16.0312V19C19.7188 19.334 19.4219 19.5938 19.125 19.5938H4.875C4.54102 19.5938 4.28125 19.334 4.28125 19V16.0312C4.28125 15.7344 4.54102 15.4375 4.875 15.4375H8.62305L6.8418 13.6562H4.875C3.53906 13.6562 2.5 14.7324 2.5 16.0312V19C2.5 20.3359 3.53906 21.375 4.875 21.375H19.125C20.4238 21.375 21.5 20.3359 21.5 19V16.0312C21.5 14.7324 20.4238 13.6562 19.125 13.6562ZM18.5312 17.5156C18.5312 17.0332 18.123 16.625 17.6406 16.625C17.1211 16.625 16.75 17.0332 16.75 17.5156C16.75 18.0352 17.1211 18.4062 17.6406 18.4062C18.123 18.4062 18.5312 18.0352 18.5312 17.5156ZM11.3691 16.0684C11.5176 16.2539 11.7402 16.3281 12 16.3281C12.2227 16.3281 12.4453 16.2539 12.5938 16.0684L17.6406 11.0215C18.0117 10.6875 18.0117 10.1309 17.6406 9.79688C17.3066 9.42578 16.75 9.42578 16.416 9.79688L12.8906 13.3223V3.26562C12.8906 2.7832 12.4824 2.375 12 2.375C11.4805 2.375 11.1094 2.7832 11.1094 3.26562V13.3223L7.54688 9.75977C7.17578 9.42578 6.61914 9.42578 6.28516 9.75977C5.91406 10.1309 5.91406 10.6875 6.28516 11.0215L11.3691 16.0684Z" fill="currentColor"/>
</svg>
