<svg width="24" height="24" viewBox="0 0 24 24" fill="currentColor" xmlns="http://www.w3.org/2000/svg">
<path d="M16.1562 11.875C16.1562 10.9102 16.9355 10.0938 17.9375 10.0938C18.9023 10.0938 19.7188 10.9102 19.7188 11.875C19.7188 12.877 18.9023 13.6562 17.9375 13.6562C16.9355 13.6562 16.1562 12.877 16.1562 11.875ZM10.2188 11.875C10.2188 10.9102 10.998 10.0938 12 10.0938C12.9648 10.0938 13.7812 10.9102 13.7812 11.875C13.7812 12.877 12.9648 13.6562 12 13.6562C10.998 13.6562 10.2188 12.877 10.2188 11.875ZM7.84375 11.875C7.84375 12.877 7.02734 13.6562 6.0625 13.6562C5.06055 13.6562 4.28125 12.877 4.28125 11.875C4.28125 10.9102 5.06055 10.0938 6.0625 10.0938C7.02734 10.0938 7.84375 10.9102 7.84375 11.875Z" fill="currentColor"/>
</svg>
