<svg width="24" height="24" viewBox="0 0 24 24" fill="currentColor" xmlns="http://www.w3.org/2000/svg">
<path d="M2.5 7.125C2.5 5.82617 3.53906 4.75 4.875 4.75H19.125C20.4238 4.75 21.5 5.82617 21.5 7.125V16.625C21.5 17.9609 20.4238 19 19.125 19H4.875C3.53906 19 2.5 17.9609 2.5 16.625V7.125ZM4.28125 7.125V7.97852L10.6641 13.2109C11.4434 13.8418 12.5195 13.8418 13.2988 13.2109L19.7188 7.97852V7.125C19.7188 6.82812 19.4219 6.53125 19.125 6.53125H4.875C4.54102 6.53125 4.28125 6.82812 4.28125 7.125ZM4.28125 10.2793V16.625C4.28125 16.959 4.54102 17.2188 4.875 17.2188H19.125C19.4219 17.2188 19.7188 16.959 19.7188 16.625V10.2793L14.4492 14.584C13.002 15.7715 10.9609 15.7715 9.51367 14.584L4.28125 10.2793Z" fill="currentColor"/>
</svg>
