<svg width="24" height="24" viewBox="0 0 24 24" fill="currentColor" xmlns="http://www.w3.org/2000/svg">
<path d="M21.2773 17.8496L13.373 4.3418C13.0391 3.82227 12.5195 3.5625 12 3.5625C11.4434 3.5625 10.9238 3.82227 10.5898 4.3418L2.64844 17.8496C2.0918 18.8887 2.83398 20.1875 4.05859 20.1875H19.9043C21.1289 20.1875 21.8711 18.8887 21.2773 17.8496ZM4.42969 18.4062L11.9629 5.5293L19.5332 18.4062H4.42969ZM12 14.918C11.332 14.918 10.8125 15.4375 10.8125 16.0684C10.8125 16.6992 11.332 17.2188 12 17.2188C12.6309 17.2188 13.1504 16.6992 13.1504 16.0684C13.1504 15.4375 12.6309 14.918 12 14.918ZM11.1094 9.20312V12.7656C11.1094 13.2852 11.4805 13.6562 12 13.6562C12.4824 13.6562 12.8906 13.2852 12.8906 12.7656V9.20312C12.8906 8.7207 12.4824 8.3125 12 8.3125C11.4805 8.3125 11.1094 8.7207 11.1094 9.20312Z" fill="currentColor"/>
</svg>
