<svg width="24" height="24" viewBox="0 0 24 24" fill="currentColor" xmlns="http://www.w3.org/2000/svg">
<path d="M12 2.375C6.73047 2.375 2.5 6.64258 2.5 11.875C2.5 17.1445 6.73047 21.375 12 21.375C17.2324 21.375 21.5 17.1445 21.5 11.875C21.5 6.64258 17.2324 2.375 12 2.375ZM12 19.5938C7.73242 19.5938 4.28125 16.1426 4.28125 11.875C4.28125 7.64453 7.73242 4.15625 12 4.15625C16.2305 4.15625 19.7188 7.64453 19.7188 11.875C19.7188 16.1426 16.2305 19.5938 12 19.5938ZM12 13.6562C12.4824 13.6562 12.8906 13.2852 12.8906 12.7656V8.01562C12.8906 7.5332 12.4824 7.125 12 7.125C11.4805 7.125 11.1094 7.5332 11.1094 8.01562V12.7656C11.1094 13.2852 11.4805 13.6562 12 13.6562ZM12 14.918C11.332 14.918 10.8125 15.4375 10.8125 16.0684C10.8125 16.6992 11.332 17.2188 12 17.2188C12.6309 17.2188 13.1504 16.6992 13.1504 16.0684C13.1504 15.4375 12.6309 14.918 12 14.918Z" fill="currentColor"/>
</svg>
