<svg width="24" height="24" viewBox="0 0 24 24" fill="currentColor" xmlns="http://www.w3.org/2000/svg">
<path d="M7.25 11.875C7.25 9.27734 9.36523 7.125 12 7.125C14.5977 7.125 16.75 9.27734 16.75 11.875C16.75 14.5098 14.5977 16.625 12 16.625C9.36523 16.625 7.25 14.5098 7.25 11.875ZM12 14.8438C13.6328 14.8438 14.9688 13.5449 14.9688 11.875C14.9688 10.2422 13.6328 8.90625 12 8.90625C11.9629 8.90625 11.9258 8.90625 11.8887 8.90625C11.9629 9.12891 12 9.31445 12 9.5C12 10.8359 10.9238 11.875 9.625 11.875C9.40234 11.875 9.2168 11.875 9.03125 11.8008C9.03125 11.8379 9.03125 11.875 9.03125 11.875C9.03125 13.5449 10.3301 14.8438 12 14.8438ZM4.83789 6.56836C6.58203 4.93555 8.99414 3.5625 12 3.5625C14.9688 3.5625 17.3809 4.93555 19.125 6.56836C20.8691 8.16406 22.0195 10.0938 22.5762 11.4297C22.6875 11.7266 22.6875 12.0605 22.5762 12.3574C22.0195 13.6562 20.8691 15.5859 19.125 17.2188C17.3809 18.8516 14.9688 20.1875 12 20.1875C8.99414 20.1875 6.58203 18.8516 4.83789 17.2188C3.09375 15.5859 1.94336 13.6562 1.38672 12.3574C1.27539 12.0605 1.27539 11.7266 1.38672 11.4297C1.94336 10.0938 3.09375 8.16406 4.83789 6.56836ZM12 5.34375C9.55078 5.34375 7.58398 6.45703 6.0625 7.86719C4.61523 9.20312 3.65039 10.7617 3.13086 11.875C3.65039 12.9883 4.61523 14.584 6.0625 15.9199C7.58398 17.3301 9.55078 18.4062 12 18.4062C14.4121 18.4062 16.3789 17.3301 17.9004 15.9199C19.3477 14.584 20.3125 12.9883 20.832 11.875C20.3125 10.7617 19.3477 9.20312 17.9004 7.86719C16.3789 6.45703 14.4121 5.34375 12 5.34375Z" fill="currentColor"/>
</svg>
