<svg width="25" height="24" viewBox="0 0 25 24" fill="currentColor" xmlns="http://www.w3.org/2000/svg">
<path d="M5.71484 5.82617C7.38477 4.56445 9.46289 3.5625 12.0234 3.5625C14.9922 3.5625 17.4043 4.93555 19.1484 6.56836C20.8926 8.16406 22.043 10.0938 22.5996 11.4297C22.7109 11.7266 22.7109 12.0605 22.5996 12.3574C22.1172 13.5449 21.1152 15.252 19.6309 16.7363L23.5273 19.8164C23.9355 20.1133 24.0098 20.6699 23.6758 21.041C23.3789 21.4492 22.8223 21.5234 22.4512 21.1895L0.482422 3.9707C0.0742188 3.67383 0 3.11719 0.333984 2.74609C0.630859 2.33789 1.1875 2.26367 1.55859 2.59766L5.71484 5.82617ZM7.16211 6.97656L8.86914 8.3125C9.72266 7.57031 10.7988 7.125 12.0234 7.125C14.6211 7.125 16.7734 9.27734 16.7734 11.875C16.7734 12.6914 16.5508 13.4336 16.2168 14.0645L18.2207 15.623C19.4824 14.3613 20.373 12.9141 20.8555 11.875C20.3359 10.7617 19.3711 9.20312 17.9238 7.86719C16.4023 6.45703 14.4355 5.34375 12.0234 5.34375C10.1309 5.34375 8.49805 6.01172 7.16211 6.97656ZM14.7695 12.9512C14.918 12.6172 14.9922 12.2461 14.9922 11.875C14.9922 10.2422 13.6562 8.90625 12.0234 8.90625C11.9863 8.90625 11.9492 8.90625 11.9121 8.90625C11.9863 9.12891 12.0234 9.31445 12.0234 9.5C12.0234 9.9082 11.9121 10.2422 11.7637 10.5762L14.7695 12.9512ZM15.1406 17.7754L16.6992 19C15.3262 19.7422 13.7676 20.1875 12.0234 20.1875C9.01758 20.1875 6.60547 18.8516 4.86133 17.2188C3.11719 15.5859 1.9668 13.6562 1.41016 12.3574C1.29883 12.0605 1.29883 11.7266 1.41016 11.4297C1.78125 10.5762 2.375 9.5 3.22852 8.38672L4.60156 9.5C3.93359 10.3535 3.45117 11.207 3.1543 11.875C3.67383 12.9883 4.63867 14.584 6.08594 15.9199C7.60742 17.3301 9.57422 18.4062 12.0234 18.4062C13.1367 18.4062 14.1758 18.1836 15.1406 17.7754ZM7.27344 11.875C7.27344 11.8008 7.27344 11.6895 7.27344 11.5781L9.35156 13.2109C9.72266 13.9902 10.4648 14.584 11.3555 14.7695L13.4336 16.4395C12.9883 16.5508 12.5059 16.625 11.9863 16.625C9.38867 16.625 7.23633 14.5098 7.23633 11.875H7.27344Z" fill="currentColor"/>
</svg>
