<svg width="24" height="24" viewBox="0 0 24 24" fill="currentColor" xmlns="http://www.w3.org/2000/svg">
<path d="M22.3164 9.42578C22.2422 9.35156 22.3164 9.42578 20.7578 8.49805C20.7207 8.16406 20.6465 7.83008 20.5723 7.49609C20.2383 6.30859 19.2734 3.5625 17.2324 3.5625C17.0469 3.5625 16.8613 3.59961 16.6758 3.63672C15.9707 3.82227 15.4883 4.26758 15.1914 4.93555C14.8574 4.82422 14.5234 4.75 14.1895 4.75C13.5957 4.75 13.0391 5.00977 12.6309 5.41797C12.4082 5.60352 12.0742 6.04883 12 6.75391C10.9609 6.23438 9.99609 5.9375 8.99414 5.9375C7.50977 5.9375 6.13672 6.64258 4.83789 8.01562C4.31836 7.64453 3.72461 7.42188 3.09375 7.42188C1.42383 7.42188 0.125 8.75781 0.125 10.3906C0.125 12.0605 1.42383 13.3594 3.09375 13.3594C3.50195 13.3594 3.87305 13.2852 4.24414 13.1367C4.50391 13.582 4.57812 13.6191 6.13672 15.3262L5.76562 15.5117C5.20898 15.8828 4.875 16.5508 4.875 17.2559V18.1094C4.875 18.8887 5.24609 19.5566 5.87695 19.9277C6.21094 20.1133 6.58203 20.2246 6.91602 20.2246C7.28711 20.2246 7.6582 20.1133 7.95508 19.9277L9.55078 19.0371L10.0703 19.6309C10.4043 20.002 10.8867 20.1875 11.4062 20.1875H17.3438C18.3086 20.1875 19.125 19.4082 19.125 18.4062C19.125 17.4414 18.6426 16.5879 17.9375 16.0312H20.2012C22.2051 16.0312 23.875 14.3984 23.875 12.3945C23.875 11.207 23.2812 10.0938 22.3164 9.42578ZM3.65039 11.4297C2.94531 11.8379 2.38867 11.4297 2.24023 11.2441C1.75781 10.7988 1.75781 10.0195 2.24023 9.57422C2.5 9.31445 3.24219 8.94336 3.87305 9.53711C3.65039 10.1309 3.57617 10.7988 3.65039 11.4297ZM7.10156 18.3691C6.95312 18.4434 6.8418 18.4062 6.80469 18.3691C6.73047 18.3691 6.65625 18.2578 6.65625 18.1094V17.2559C6.65625 17.1445 6.69336 17.0703 6.69336 17.0332L7.36133 16.6621L8.28906 17.7012L7.10156 18.3691ZM20.2012 14.25L16.7129 14.2871L14.9688 14.9922C14.9316 13.2109 13.7812 11.6523 12.1113 11.1328L10.7383 10.7246C10.2559 10.6133 9.77344 10.873 9.66211 11.3555C9.51367 11.8008 9.77344 12.3203 10.2559 12.4316L11.5918 12.8398C12.5195 13.1367 13.1875 14.0273 13.1875 15.0293V17.2188H16.1562C16.7871 17.2188 17.3438 17.7754 17.3438 18.4062H11.4062L6.02539 12.5801C5.20898 11.6895 5.20898 10.3164 6.02539 9.38867C7.02734 8.23828 7.99219 7.71875 8.99414 7.71875C10.9609 7.71875 13.1875 9.53711 16.75 11.875C16.75 11.207 16.7129 11.0586 16.8613 10.6504C16.3789 10.3906 15.8223 9.98242 15.2656 9.42578C14.1152 8.27539 13.4844 7.05078 13.8926 6.64258C14.2637 6.27148 15.5625 6.93945 16.6387 8.05273C16.75 8.12695 16.8242 8.23828 16.9355 8.34961C16.5273 6.82812 16.6387 5.49219 17.1211 5.38086C17.6406 5.23242 18.4199 6.38281 18.8281 7.94141C19.0137 8.57227 19.0879 9.12891 19.0879 9.61133C19.1992 9.64844 19.3105 9.68555 19.3848 9.72266L21.2773 10.873C21.7969 11.2441 22.0938 11.8008 22.0938 12.3945C22.0938 13.4336 21.2402 14.25 20.2012 14.25ZM19.0879 11.2812C18.791 11.2812 18.5312 11.5781 18.5312 11.875C18.5312 12.209 18.791 12.4688 19.125 12.4688C19.4219 12.4688 19.6816 12.209 19.6816 11.9121C19.6816 11.5781 19.4219 11.2812 19.0879 11.2812Z" fill="currentColor"/>
</svg>
