<svg width="24" height="24" viewBox="0 0 24 24" fill="currentColor" xmlns="http://www.w3.org/2000/svg">
<path d="M12.8906 15.1035V11.2812C12.8906 10.7988 12.4824 10.3906 12 10.3906C11.4805 10.3906 11.1094 10.7988 11.1094 11.2812V15.1035L9.625 13.6191C9.47656 13.4707 9.25391 13.3594 9.03125 13.3594C8.77148 13.3594 8.54883 13.4707 8.40039 13.6191C8.0293 13.9902 8.0293 14.5469 8.40039 14.8809L11.3691 17.8496C11.7031 18.2207 12.2598 18.2207 12.5938 17.8496L15.5625 14.8809C15.9336 14.5469 15.9336 13.9902 15.5625 13.6191C15.2285 13.2852 14.6719 13.2852 14.3379 13.6191L12.8906 15.1035ZM18.4199 5.86328L15.6367 3.08008C15.1914 2.63477 14.5977 2.375 13.9668 2.375H7.25C5.91406 2.375 4.875 3.45117 4.875 4.75V19C4.875 20.3359 5.91406 21.375 7.25 21.375H16.75C18.0488 21.375 19.125 20.3359 19.125 19V7.5332C19.125 6.90234 18.8652 6.30859 18.4199 5.86328ZM17.3438 19C17.3438 19.334 17.0469 19.5938 16.75 19.5938H7.25C6.91602 19.5938 6.65625 19.334 6.65625 19V4.78711C6.65625 4.45312 6.91602 4.19336 7.25 4.19336H13.1875V7.125C13.1875 7.79297 13.707 8.3125 14.375 8.3125H17.3066V19H17.3438Z" fill="currentColor"/>
</svg>
