<svg width="24" height="24" viewBox="0 0 24 24" fill="currentColor" xmlns="http://www.w3.org/2000/svg">
<path d="M7.84375 11.875V14.25C7.84375 14.918 8.36328 15.4375 9.03125 15.4375H14.9688C15.5996 15.4375 16.1562 14.918 16.1562 14.25V11.875C16.1562 11.2441 15.5996 10.6875 14.9688 10.6875H9.03125C8.36328 10.6875 7.84375 11.2441 7.84375 11.875ZM18.4199 5.86328L15.6367 3.08008C15.1914 2.63477 14.5977 2.375 13.9668 2.375H7.25C5.91406 2.375 4.875 3.45117 4.875 4.75V19C4.875 20.3359 5.91406 21.375 7.25 21.375H16.75C18.0488 21.375 19.125 20.3359 19.125 19V7.5332C19.125 6.90234 18.8652 6.30859 18.4199 5.86328ZM17.3438 19C17.3438 19.334 17.0469 19.5938 16.75 19.5938H7.25C6.91602 19.5938 6.65625 19.334 6.65625 19V4.78711C6.65625 4.45312 6.91602 4.19336 7.25 4.19336H13.1875V7.125C13.1875 7.79297 13.707 8.3125 14.375 8.3125H17.3066V19H17.3438ZM8.4375 7.125H11.4062C11.7031 7.125 12 6.86523 12 6.53125C12 6.23438 11.7031 5.9375 11.4062 5.9375H8.4375C8.10352 5.9375 7.84375 6.23438 7.84375 6.53125C7.84375 6.86523 8.10352 7.125 8.4375 7.125ZM8.4375 9.5H11.4062C11.7031 9.5 12 9.24023 12 8.90625C12 8.60938 11.7031 8.3125 11.4062 8.3125H8.4375C8.10352 8.3125 7.84375 8.60938 7.84375 8.90625C7.84375 9.24023 8.10352 9.5 8.4375 9.5ZM15.5625 16.625H12.5938C12.2598 16.625 12 16.9219 12 17.2188C12 17.5527 12.2598 17.8125 12.5938 17.8125H15.5625C15.8594 17.8125 16.1562 17.5527 16.1562 17.2188C16.1562 16.9219 15.8594 16.625 15.5625 16.625Z" fill="currentColor"/>
</svg>
