<svg width="24" height="24" viewBox="0 0 24 24" fill="currentColor" xmlns="http://www.w3.org/2000/svg">
<path d="M11.3691 10.6504L8.40039 13.6191C8.0293 13.9902 8.0293 14.5469 8.40039 14.8809C8.73438 15.252 9.29102 15.252 9.625 14.8809L11.1094 13.4336V17.2188C11.1094 17.7383 11.4805 18.1094 12 18.1094C12.4824 18.1094 12.8906 17.7383 12.8906 17.2188V13.4336L14.3379 14.8809C14.4863 15.0664 14.709 15.1406 14.9688 15.1406C15.1914 15.1406 15.4141 15.0664 15.5625 14.8809C15.9336 14.5469 15.9336 13.9902 15.5625 13.6562L12.5938 10.6875C12.2598 10.3164 11.7031 10.3164 11.3691 10.6504ZM18.4199 5.86328L15.6367 3.08008C15.1914 2.63477 14.5977 2.375 13.9668 2.375H7.25C5.91406 2.375 4.875 3.45117 4.875 4.75V19C4.875 20.3359 5.91406 21.375 7.25 21.375H16.75C18.0488 21.375 19.125 20.3359 19.125 19V7.5332C19.125 6.90234 18.8652 6.30859 18.4199 5.86328ZM17.3438 19C17.3438 19.334 17.0469 19.5938 16.75 19.5938H7.25C6.91602 19.5938 6.65625 19.334 6.65625 19V4.78711C6.65625 4.45312 6.91602 4.19336 7.25 4.19336H13.1875V7.125C13.1875 7.79297 13.707 8.3125 14.375 8.3125H17.3066V19H17.3438Z" fill="currentColor"/>
</svg>
