<svg width="24" height="24" viewBox="0 0 24 24" fill="currentColor" xmlns="http://www.w3.org/2000/svg">
<path d="M18.4199 5.86328L15.6367 3.08008C15.1914 2.63477 14.5977 2.375 13.9668 2.375H7.25C5.91406 2.375 4.875 3.45117 4.875 4.75V19C4.875 20.3359 5.91406 21.375 7.25 21.375H16.75C18.0488 21.375 19.125 20.3359 19.125 19V7.5332C19.125 6.90234 18.8652 6.30859 18.4199 5.86328ZM17.3438 19C17.3438 19.334 17.0469 19.5938 16.75 19.5938H7.25C6.91602 19.5938 6.65625 19.334 6.65625 19V4.78711C6.65625 4.45312 6.91602 4.19336 7.25 4.19336H13.1875V7.125C13.1875 7.79297 13.707 8.3125 14.375 8.3125H17.3066V19H17.3438ZM11.0352 14.4355L9.92188 13.3223C9.55078 12.9883 8.99414 12.9883 8.66016 13.3223C8.28906 13.6934 8.28906 14.25 8.66016 14.584L10.4414 16.3652C10.627 16.5508 10.8496 16.625 11.1094 16.625C11.3691 16.625 11.5918 16.5137 11.7773 16.3281L15.3398 12.1719C15.6367 11.8008 15.5996 11.2441 15.2285 10.9102C14.8574 10.6133 14.3008 10.6504 13.9668 11.0215L11.0352 14.4355Z" fill="currentColor"/>
</svg>
