<svg width="24" height="24" viewBox="0 0 24 24" fill="currentColor" xmlns="http://www.w3.org/2000/svg">
<path d="M18.4199 5.86328L15.6367 3.08008C15.1914 2.63477 14.5977 2.375 13.9668 2.375H7.25C5.91406 2.375 4.875 3.45117 4.875 4.75V19C4.875 20.3359 5.91406 21.375 7.25 21.375H16.75C18.0488 21.375 19.125 20.3359 19.125 19V7.5332C19.125 6.90234 18.8652 6.30859 18.4199 5.86328ZM17.3438 19C17.3438 19.334 17.0469 19.5938 16.75 19.5938H7.25C6.91602 19.5938 6.65625 19.334 6.65625 19V4.78711C6.65625 4.45312 6.91602 4.19336 7.25 4.19336H13.1875V7.125C13.1875 7.79297 13.707 8.3125 14.375 8.3125H17.3066V19H17.3438ZM8.4375 12.7656C8.4375 13.2852 8.80859 13.6562 9.32812 13.6562H14.6719C15.1543 13.6562 15.5625 13.2852 15.5625 12.7656C15.5625 12.2832 15.1543 11.875 14.6719 11.875H9.32812C8.80859 11.875 8.4375 12.2832 8.4375 12.7656ZM14.6719 15.4375H9.32812C8.80859 15.4375 8.4375 15.8457 8.4375 16.3281C8.4375 16.8477 8.80859 17.2188 9.32812 17.2188H14.6719C15.1543 17.2188 15.5625 16.8477 15.5625 16.3281C15.5625 15.8457 15.1543 15.4375 14.6719 15.4375Z" fill="currentColor"/>
</svg>
