<svg width="24" height="24" viewBox="0 0 24 24" fill="currentColor" xmlns="http://www.w3.org/2000/svg">
<path d="M2.5 5.12109C2.5 4.26758 3.16797 3.5625 4.02148 3.5625H19.9414C20.7949 3.5625 21.5 4.26758 21.5 5.12109C21.5 5.49219 21.3516 5.82617 21.1289 6.08594L14.9688 13.6934V19C14.9688 19.668 14.4121 20.1875 13.7441 20.1875C13.4844 20.1875 13.2246 20.1133 13.002 19.9277L9.58789 17.2188C9.2168 16.9219 9.03125 16.5137 9.03125 16.0684V13.6934L2.83398 6.08594C2.61133 5.82617 2.5 5.49219 2.5 5.12109ZM4.50391 5.34375L10.5898 12.8027C10.7383 12.9883 10.8125 13.1738 10.8125 13.3594V15.9199L13.1875 17.8125V13.3594C13.1875 13.1738 13.2246 12.9883 13.373 12.8027L19.459 5.34375H4.50391Z" fill="currentColor"/>
</svg>
