<svg width="24" height="24" viewBox="0 0 24 24" fill="currentColor" xmlns="http://www.w3.org/2000/svg">
<path d="M17.0098 10.0938L21.2402 5.04688C21.4629 4.78711 21.5 4.41602 21.3516 4.08203C21.2031 3.78516 20.9434 3.5625 20.5723 3.5625H4.28125V3.26562C4.28125 2.7832 3.87305 2.375 3.39062 2.375C2.87109 2.375 2.5 2.7832 2.5 3.26562V20.4844C2.5 21.0039 2.87109 21.375 3.39062 21.375C3.87305 21.375 4.28125 21.0039 4.28125 20.4844V16.625H20.5723C20.9062 16.625 21.2031 16.4395 21.3516 16.1426C21.5 15.8086 21.4629 15.4375 21.2402 15.1777L17.0098 10.0938ZM4.28125 14.8438V5.34375H18.6797L15.1543 9.53711C14.8945 9.87109 14.8945 10.3535 15.1543 10.6875L18.6797 14.8438H4.28125Z" fill="currentColor"/>
</svg>
