<svg width="24" height="24" viewBox="0 0 24 24" fill="currentColor" xmlns="http://www.w3.org/2000/svg">
<path d="M19.0879 5.9375H12.7051L10.8867 4.26758C10.4414 3.82227 9.84766 3.5625 9.2168 3.5625H4.83789C3.50195 3.5625 2.46289 4.63867 2.46289 5.9375V17.8125C2.46289 19.1484 3.50195 20.1875 4.83789 20.1875H19.0879C20.3867 20.1875 21.4629 19.1484 21.4629 17.8125V8.3125C21.4629 7.01367 20.4238 5.9375 19.0879 5.9375ZM19.6816 17.8125C19.6816 18.1465 19.3848 18.4062 19.0879 18.4062H4.83789C4.50391 18.4062 4.24414 18.1465 4.24414 17.8125V5.9375C4.24414 5.64062 4.50391 5.34375 4.83789 5.34375H9.17969C9.32812 5.34375 9.47656 5.41797 9.58789 5.5293L11.9629 7.71875H19.0879C19.3848 7.71875 19.6816 8.01562 19.6816 8.3125V17.8125Z" fill="currentColor"/>
</svg>
