<svg width="24" height="24" viewBox="0 0 24 24" fill="currentColor" xmlns="http://www.w3.org/2000/svg">
<path d="M3.09375 8.3125H3.6875V3.85938C3.6875 3.04297 4.31836 2.375 5.17188 2.375H10.9609C11.5918 2.375 12.1484 2.7832 12.3711 3.33984L15.4512 11.4668C15.5254 11.6523 15.5625 11.8379 15.5625 11.9863V15.1777C16.2676 15.8086 16.75 16.7734 16.75 17.8125C16.75 19.7793 15.1543 21.375 13.1875 21.375C11.1836 21.375 9.625 19.7793 9.625 17.8125H7.25C7.25 19.7793 5.6543 21.375 3.6875 21.375C1.68359 21.375 0.125 19.7793 0.125 17.8125V11.2812C0.125 9.64844 1.42383 8.3125 3.09375 8.3125ZM13.4844 11.2812L10.7754 4.15625H5.46875V8.75781L9.03125 11.2812H13.4844ZM7.99219 12.7656L4.28125 10.0938H3.09375C2.42578 10.0938 1.90625 10.6504 1.90625 11.2812V14.7324C2.42578 14.4355 3.01953 14.25 3.6875 14.25C4.98633 14.25 6.13672 14.9922 6.76758 16.0312H10.0703C10.7012 14.9922 11.8516 14.25 13.1875 14.25C13.373 14.25 13.5586 14.2871 13.7812 14.3242V13.0625H8.99414C8.62305 13.0625 8.28906 12.9512 7.99219 12.7656ZM3.6875 19.5938C4.65234 19.5938 5.46875 18.8145 5.46875 17.8125C5.46875 16.8477 4.65234 16.0312 3.6875 16.0312C2.68555 16.0312 1.90625 16.8477 1.90625 17.8125C1.90625 18.8145 2.68555 19.5938 3.6875 19.5938ZM13.1875 19.5938C14.1523 19.5938 14.9688 18.8145 14.9688 17.8125C14.9688 16.8477 14.1523 16.0312 13.1875 16.0312C12.1855 16.0312 11.4062 16.8477 11.4062 17.8125C11.4062 18.8145 12.1855 19.5938 13.1875 19.5938ZM19.7188 17.2188H22.9844C23.4668 17.2188 23.875 17.627 23.875 18.1094C23.875 18.6289 23.4668 19 22.9844 19H18.8281C18.3086 19 17.9375 18.6289 17.9375 18.1094V3.26562C17.9375 2.7832 18.3086 2.375 18.8281 2.375C19.3105 2.375 19.7188 2.7832 19.7188 3.26562V17.2188Z" fill="currentColor"/>
</svg>
