<svg width="24" height="24" viewBox="0 0 24 24" fill="currentColor" xmlns="http://www.w3.org/2000/svg">
<path d="M15.2656 19.5938H12.8906V15.3262C15.5625 14.8438 17.5664 12.3945 17.3066 9.53711L16.7129 2.93164C16.6758 2.63477 16.416 2.375 16.1191 2.375H7.84375C7.54688 2.375 7.28711 2.63477 7.25 2.93164L6.65625 9.53711C6.39648 12.3945 8.40039 14.8438 11.0723 15.3262V19.5938H8.73438C8.21484 19.5938 7.84375 20.002 7.84375 20.4844C7.84375 21.0039 8.21484 21.375 8.73438 21.375H15.2656C15.748 21.375 16.1562 21.0039 16.1562 20.4844C16.1562 20.002 15.748 19.5938 15.2656 19.5938ZM8.4375 9.68555L8.91992 4.15625H11.7031L12 4.75L9.625 7.125L13.1875 10.6875L12 7.125L14.375 5.34375L14.0781 4.15625H15.043L15.5254 9.68555C15.7109 11.8008 14.1152 13.6562 12 13.6562C9.84766 13.6562 8.25195 11.8008 8.4375 9.68555Z" fill="currentColor"/>
</svg>
