<svg width="24" height="24" viewBox="0 0 24 24" fill="currentColor" xmlns="http://www.w3.org/2000/svg">
<path d="M12 5.34375C12.6309 5.34375 13.1875 5.90039 13.1875 6.53125C13.1875 7.19922 12.6309 7.71875 12 7.71875C11.332 7.71875 10.8125 7.19922 10.8125 6.53125C10.8125 5.90039 11.332 5.34375 12 5.34375ZM12 17.5156C10.8496 17.5156 9.92188 16.5879 9.92188 15.4375C9.92188 14.3242 10.8496 13.3594 12 13.3594C12.3711 13.3594 12.7051 13.4707 13.0391 13.6562L17.1211 10.873C17.5293 10.5762 18.0859 10.6875 18.3457 11.0957C18.6426 11.5039 18.5312 12.0605 18.123 12.3203L14.041 15.1406C14.041 15.252 14.0781 15.3262 14.0781 15.4375C14.0781 16.5879 13.1133 17.5156 12 17.5156ZM15.5625 7.125C16.1934 7.125 16.75 7.68164 16.75 8.3125C16.75 8.98047 16.1934 9.5 15.5625 9.5C14.8945 9.5 14.375 8.98047 14.375 8.3125C14.375 7.68164 14.8945 7.125 15.5625 7.125ZM6.65625 13.0625C5.98828 13.0625 5.46875 12.543 5.46875 11.875C5.46875 11.2441 5.98828 10.6875 6.65625 10.6875C7.28711 10.6875 7.84375 11.2441 7.84375 11.875C7.84375 12.543 7.28711 13.0625 6.65625 13.0625ZM8.4375 7.125C9.06836 7.125 9.625 7.68164 9.625 8.3125C9.625 8.98047 9.06836 9.5 8.4375 9.5C7.76953 9.5 7.25 8.98047 7.25 8.3125C7.25 7.68164 7.76953 7.125 8.4375 7.125ZM12 21.375C6.73047 21.375 2.5 17.1445 2.5 11.875C2.5 6.64258 6.73047 2.375 12 2.375C17.2324 2.375 21.5 6.64258 21.5 11.875C21.5 17.1445 17.2324 21.375 12 21.375ZM19.7188 11.875C19.7188 7.64453 16.2305 4.15625 12 4.15625C7.73242 4.15625 4.28125 7.64453 4.28125 11.875C4.28125 16.1426 7.73242 19.5938 12 19.5938C16.2305 19.5938 19.7188 16.1426 19.7188 11.875Z" fill="currentColor"/>
</svg>
