<svg width="24" height="24" viewBox="0 0 24 24" fill="currentColor" xmlns="http://www.w3.org/2000/svg">
<path d="M7.25 4.45312L8.17773 3.74805C8.58594 3.45117 9.14258 3.5625 9.43945 3.93359C9.73633 4.3418 9.625 4.89844 9.25391 5.19531L8.17773 5.9375H8.4375C9.2168 5.9375 9.88477 6.3457 10.3301 6.90234C10.0703 7.16211 9.81055 7.42188 9.625 7.71875H2.5C2.16602 7.71875 1.90625 8.01562 1.90625 8.3125V19C1.90625 19.334 2.16602 19.5938 2.5 19.5938H7.25V20.1875C7.25 20.6328 7.36133 21.041 7.54688 21.375H2.5C1.16406 21.375 0.125 20.3359 0.125 19V8.3125C0.125 7.01367 1.16406 5.9375 2.5 5.9375H2.72266L1.64648 5.19531C1.27539 4.89844 1.16406 4.3418 1.46094 3.93359C1.75781 3.5625 2.31445 3.45117 2.72266 3.74805L3.72461 4.49023L3.42773 3.5625C3.2793 3.11719 3.50195 2.59766 3.98438 2.44922C4.42969 2.30078 4.94922 2.52344 5.09766 3.00586L5.46875 4.11914L5.87695 2.96875C6.02539 2.52344 6.54492 2.26367 7.02734 2.44922C7.47266 2.59766 7.73242 3.11719 7.54688 3.59961L7.25 4.45312ZM12.8906 7.125C13.707 7.125 14.4863 7.5332 15.0059 8.20117L16.1562 9.64844L17.2695 8.20117C17.7891 7.5332 18.5684 7.125 19.3848 7.125C20.8691 7.125 22.0938 8.34961 22.0938 9.79688C22.0938 10.1309 22.0195 10.4277 21.9082 10.6875H22.0938C23.0586 10.6875 23.875 11.5039 23.875 12.4688V19.5938C23.875 20.5957 23.0586 21.375 22.0938 21.375H10.2188C9.2168 21.375 8.4375 20.5957 8.4375 19.5938V12.4688C8.4375 11.5039 9.2168 10.6875 10.2188 10.6875H10.3672C10.2559 10.4277 10.2188 10.1309 10.2188 9.79688C10.2188 8.34961 11.4062 7.125 12.8906 7.125ZM13.5957 9.27734C13.4102 9.05469 13.1504 8.90625 12.8906 8.90625C12.3711 8.90625 12 9.31445 12 9.79688C12 10.3164 12.3711 10.6875 12.8906 10.6875H14.709L13.5957 9.27734ZM10.2188 15.1406H15.2656V12.4688H10.2188V15.1406ZM10.2188 19.5938H15.2656V16.9219H10.2188V19.5938ZM22.0938 16.9219H17.0469V19.5938H22.0938V16.9219ZM17.0469 15.1406H22.0938V12.4688H17.0469V15.1406ZM19.3848 8.90625C19.125 8.90625 18.8652 9.05469 18.6797 9.27734L17.5664 10.6875H19.4219C19.9043 10.6875 20.3125 10.3164 20.3125 9.79688C20.3125 9.31445 19.9043 8.90625 19.3848 8.90625Z" fill="currentColor"/>
</svg>
