<svg width="24" height="24" viewBox="0 0 24 24" fill="currentColor" xmlns="http://www.w3.org/2000/svg">
<path d="M11.0723 4.04492L12 5.56641L12.8906 4.04492C13.4844 3.00586 14.5605 2.375 15.748 2.375H15.8594C17.6406 2.375 19.125 3.85938 19.125 5.64062C19.125 6.19727 18.9766 6.67969 18.7539 7.125H20.3125C21.6113 7.125 22.6875 8.20117 22.6875 9.5V19C22.6875 20.3359 21.6113 21.375 20.3125 21.375H3.6875C2.35156 21.375 1.3125 20.3359 1.3125 19V9.5C1.3125 8.20117 2.35156 7.125 3.6875 7.125H5.20898C4.98633 6.67969 4.875 6.19727 4.875 5.64062C4.875 3.85938 6.32227 2.375 8.14062 2.375H8.21484C9.40234 2.375 10.4785 3.00586 11.0723 4.04492ZM13.1133 7.125H15.8594C16.6758 7.125 17.3438 6.49414 17.3438 5.64062C17.3438 4.82422 16.6758 4.15625 15.8594 4.15625H15.748C15.1914 4.15625 14.709 4.45312 14.4121 4.93555L13.1133 7.125ZM12 9.72266L9.69922 12.4688C9.36523 12.8398 8.80859 12.877 8.4375 12.5801C8.06641 12.2461 8.0293 11.6895 8.32617 11.3184L10.3301 8.90625H3.6875C3.35352 8.90625 3.09375 9.20312 3.09375 9.5V14.25H20.9062V9.5C20.9062 9.20312 20.6094 8.90625 20.3125 8.90625H13.6328L15.6367 11.3184C15.9336 11.6895 15.8965 12.2461 15.5254 12.5801C15.1543 12.877 14.5977 12.8398 14.2637 12.4688L12 9.72266ZM3.09375 16.625V19C3.09375 19.334 3.35352 19.5938 3.6875 19.5938H20.3125C20.6094 19.5938 20.9062 19.334 20.9062 19V16.625H3.09375ZM10.8496 7.125L9.55078 4.93555C9.25391 4.45312 8.77148 4.15625 8.21484 4.15625H8.14062C7.28711 4.15625 6.65625 4.82422 6.65625 5.64062C6.65625 6.49414 7.28711 7.125 8.14062 7.125H10.8496Z" fill="currentColor"/>
</svg>
