<svg width="24" height="24" viewBox="0 0 24 24" fill="currentColor" xmlns="http://www.w3.org/2000/svg">
<path d="M12 5.56641L12.8906 4.04492C13.4844 3.00586 14.5605 2.375 15.748 2.375H15.8594C17.6406 2.375 19.125 3.85938 19.125 5.64062C19.125 6.19727 18.9766 6.67969 18.7539 7.125H19.7188C20.6836 7.125 21.5 7.94141 21.5 8.90625V11.2812C21.5 12.0605 20.9805 12.7285 20.3125 12.9883V19C20.3125 20.3359 19.2363 21.375 17.9375 21.375H6.0625C4.72656 21.375 3.6875 20.3359 3.6875 19V12.9883C2.98242 12.7285 2.5 12.0605 2.5 11.2812V8.90625C2.5 7.94141 3.2793 7.125 4.28125 7.125H5.20898C4.98633 6.67969 4.875 6.19727 4.875 5.64062C4.875 3.85938 6.32227 2.375 8.14062 2.375H8.21484C9.40234 2.375 10.4785 3.00586 11.0723 4.04492L12 5.56641ZM13.1875 8.90625V11.2812H19.7188V8.90625H13.1875ZM10.8125 8.90625H4.28125V11.2812H10.8125V8.90625ZM10.8125 13.0625H5.46875V19C5.46875 19.334 5.72852 19.5938 6.0625 19.5938H10.8125V13.0625ZM13.1875 19.5938H17.9375C18.2344 19.5938 18.5312 19.334 18.5312 19V13.0625H13.1875V19.5938ZM15.8594 7.125C16.6758 7.125 17.3438 6.49414 17.3438 5.64062C17.3438 4.82422 16.6758 4.15625 15.8594 4.15625H15.748C15.1914 4.15625 14.709 4.45312 14.4121 4.93555L13.1133 7.125H15.8594ZM10.8496 7.125L9.55078 4.93555C9.25391 4.45312 8.77148 4.15625 8.21484 4.15625H8.14062C7.28711 4.15625 6.65625 4.82422 6.65625 5.64062C6.65625 6.49414 7.28711 7.125 8.14062 7.125H10.8496Z" fill="currentColor"/>
</svg>
