<svg width="24" height="24" viewBox="0 0 24 24" fill="currentColor" xmlns="http://www.w3.org/2000/svg">
<path d="M12 2.375C17.2324 2.375 21.5 6.64258 21.5 11.875C21.5 17.1445 17.2324 21.375 12 21.375C6.73047 21.375 2.5 17.1445 2.5 11.875C2.5 6.64258 6.73047 2.375 12 2.375ZM12 19.5938C12.2598 19.5938 12.9648 19.334 13.7441 17.8125C14.0781 17.1445 14.3379 16.3652 14.5605 15.4375H9.40234C9.625 16.3652 9.88477 17.1445 10.2188 17.8125C10.998 19.334 11.7031 19.5938 12 19.5938ZM9.10547 13.6562H14.8574C14.9316 13.0996 14.9688 12.5059 14.9688 11.875C14.9688 11.2812 14.9316 10.6875 14.8574 10.0938H9.10547C9.03125 10.6875 9.03125 11.2812 9.03125 11.875C9.03125 12.5059 9.03125 13.0996 9.10547 13.6562ZM14.5605 8.3125C14.3379 7.42188 14.0781 6.64258 13.7441 5.97461C12.9648 4.45312 12.2598 4.15625 12 4.15625C11.7031 4.15625 10.998 4.45312 10.2188 5.97461C9.88477 6.64258 9.625 7.42188 9.40234 8.3125H14.5605ZM16.6387 10.0938C16.7129 10.6875 16.75 11.2812 16.75 11.875C16.75 12.5059 16.7129 13.0996 16.6387 13.6562H19.4961C19.6445 13.0996 19.7188 12.5059 19.7188 11.875C19.7188 11.2812 19.6445 10.6875 19.4961 10.0938H16.6387ZM15.1914 4.86133C15.7109 5.82617 16.1191 7.01367 16.3789 8.3125H18.8281C18.0488 6.79102 16.75 5.56641 15.1914 4.86133ZM8.77148 4.86133C7.21289 5.56641 5.91406 6.79102 5.13477 8.3125H7.58398C7.84375 7.01367 8.25195 5.82617 8.77148 4.86133ZM4.28125 11.875C4.28125 12.5059 4.31836 13.0996 4.4668 13.6562H7.32422C7.25 13.0996 7.25 12.5059 7.25 11.875C7.25 11.2812 7.25 10.6875 7.32422 10.0938H4.4668C4.31836 10.6875 4.28125 11.2812 4.28125 11.875ZM18.8281 15.4375H16.3789C16.1191 16.7734 15.7109 17.9609 15.1914 18.9258C16.75 18.2207 18.0488 16.9961 18.8281 15.4375ZM7.58398 15.4375H5.13477C5.91406 16.9961 7.21289 18.2207 8.77148 18.9258C8.25195 17.9609 7.84375 16.7734 7.58398 15.4375Z" fill="currentColor"/>
</svg>
