<svg width="24" height="24" viewBox="0 0 24 24" fill="currentColor" xmlns="http://www.w3.org/2000/svg">
<path d="M21.5 11.875C21.5 17.1445 17.2324 21.375 12 21.375C6.73047 21.375 2.5 17.1445 2.5 11.875C2.5 6.64258 6.73047 2.375 12 2.375C17.2324 2.375 21.5 6.64258 21.5 11.875ZM19.4219 9.83398L18.3828 9.61133C18.123 9.57422 17.8262 9.68555 17.7148 9.94531C17.4922 10.3906 16.9727 10.5762 16.5273 10.4277L16.0078 10.2793C15.7109 10.168 15.4141 10.2422 15.1914 10.4648C15.043 10.5762 15.043 10.7988 15.1914 10.9473L16.4531 12.209C16.6387 12.3945 16.75 12.6172 16.75 12.9141C16.75 13.3594 16.416 13.7676 15.9707 13.8789L15.7852 13.916C15.6367 13.9531 15.5625 14.0645 15.5625 14.2129V14.6582C15.5625 15.1777 15.377 15.6602 15.0801 16.1055L14.1152 17.3672C13.8926 17.6641 13.5586 17.8125 13.1875 17.8125C12.5195 17.8125 11.9629 17.293 11.9629 16.625V14.8438C11.9629 14.5469 11.7031 14.25 11.3691 14.25H10.1816C9.2168 14.25 8.40039 13.4707 8.40039 12.4688V11.4297C8.40039 10.9844 8.62305 10.5391 8.99414 10.2422L10.4785 9.16602C10.6641 9.01758 10.9238 8.90625 11.1836 8.90625C11.332 8.90625 11.4434 8.94336 11.5547 8.98047L12.7422 9.38867C13.0391 9.46289 13.2988 9.46289 13.5957 9.42578L14.8945 9.0918C15.2656 8.98047 15.5625 8.64648 15.5625 8.27539C15.5625 7.94141 15.377 7.64453 15.0801 7.49609L14.0039 6.97656C13.8555 6.90234 13.707 6.90234 13.5957 7.01367L13.4473 7.16211C13.2617 7.34766 13.0391 7.42188 12.7793 7.42188C12.6309 7.42188 12.5195 7.42188 12.3711 7.34766L11.8145 7.05078C11.5547 6.93945 11.2578 7.01367 11.0723 7.23633L10.5898 7.86719C10.3672 8.08984 9.99609 8.12695 9.77344 7.9043C9.66211 7.79297 9.58789 7.64453 9.58789 7.49609V5.97461C9.58789 5.75195 9.55078 5.56641 9.43945 5.38086L9.06836 4.75C6.24805 5.90039 4.24414 8.64648 4.24414 11.875C4.24414 16.1426 7.73242 19.5938 11.9629 19.5938C16.2305 19.5938 19.7188 16.1426 19.7188 11.875C19.7188 11.1699 19.6074 10.4648 19.4219 9.83398Z" fill="currentColor"/>
</svg>
