<svg width="24" height="24" viewBox="0 0 24 24" fill="currentColor" xmlns="http://www.w3.org/2000/svg">
<path d="M8.25195 8.16406C8.0293 8.38672 7.62109 8.38672 7.39844 8.16406C7.17578 7.94141 7.17578 7.5332 7.39844 7.31055L8.58594 6.12305C8.80859 5.90039 9.2168 5.90039 9.43945 6.12305C9.66211 6.3457 9.66211 6.75391 9.43945 6.97656L8.25195 8.16406ZM2.5 11.875C2.5 6.64258 6.73047 2.375 12 2.375C17.2324 2.375 21.5 6.64258 21.5 11.875C21.5 17.1445 17.2324 21.375 12 21.375C6.73047 21.375 2.5 17.1445 2.5 11.875ZM12 19.5938C12.1855 19.5938 12.4082 19.5938 12.6309 19.5938C12.5938 19.4824 12.5938 19.4082 12.5938 19.2969C12.5938 18.8145 12.1855 18.4062 11.7031 18.4062H10.8867C10.4414 18.4062 10.0332 18.2578 9.69922 17.9238L9.10547 17.3301C8.66016 16.8848 8.4375 16.291 8.4375 15.6602V15.5488C8.4375 14.7324 8.80859 13.9902 9.47656 13.5449L10.4785 12.877C10.8867 12.6172 11.332 12.4688 11.8145 12.4688H12.5938C13.1504 12.4688 13.707 12.6914 14.1152 13.0625L15.1172 13.916C15.377 14.1387 15.748 14.25 16.1191 14.25C16.4902 14.25 16.8984 14.4355 17.1582 14.6953L17.6777 15.2148C17.8262 15.3633 18.0488 15.4375 18.2715 15.4375C18.457 15.4375 18.6055 15.5117 18.7539 15.623C18.9766 15.1777 19.1621 14.7324 19.3105 14.25H19.0508C18.5312 14.25 18.0117 14.0645 17.6406 13.6562L16.9355 12.9883C16.8242 12.8398 16.75 12.6914 16.75 12.4688C16.75 12.2832 16.8242 12.0977 16.9355 11.9863L17.2324 11.6895C17.2695 11.6152 17.3438 11.541 17.3438 11.4297C17.3438 11.3555 17.2695 11.2441 17.2324 11.207L16.9727 10.9473C16.8242 10.7988 16.6016 10.6875 16.3789 10.6875H15.9707C15.748 10.6875 15.5625 10.502 15.5625 10.2793C15.5625 10.168 15.5996 10.0566 15.6738 9.98242L15.8594 9.79688C16.0449 9.61133 16.3047 9.5 16.5645 9.5H17.3438C17.6406 9.5 17.9375 9.24023 17.9375 8.90625C17.9375 8.60938 17.6406 8.3125 17.3438 8.3125H16.2305C15.8594 8.3125 15.5625 8.64648 15.5625 9.01758C15.5625 9.31445 15.3398 9.57422 15.0801 9.68555L14.3008 9.94531C14.0039 10.0195 13.8926 10.3535 14.0039 10.6133L14.041 10.6875C14.1895 10.9844 14.0039 11.2812 13.6699 11.2812C13.5586 11.2812 13.4102 11.2441 13.3359 11.1328L12.7422 10.3164C12.6309 10.2051 12.4824 10.0938 12.2969 10.0938C12.1113 10.0938 11.9258 10.2422 11.8516 10.3906L11.7031 10.6875C11.5176 11.0586 11.1094 11.2812 10.7012 11.2812C10.1074 11.2812 9.625 10.7988 9.625 10.2051V10.0566C9.625 9.72266 9.73633 9.38867 9.95898 9.16602L10.627 8.49805C10.7383 8.38672 10.8125 8.23828 10.8125 8.12695C10.8125 7.9043 10.9238 7.68164 11.1465 7.60742L12.1484 7.27344C12.4082 7.19922 12.7051 7.01367 12.8906 6.82812L13.6328 6.08594C13.707 6.01172 13.7812 5.90039 13.7812 5.78906C13.7812 5.56641 13.5586 5.34375 13.3359 5.34375H13.2988C13.2246 5.34375 13.1133 5.38086 13.0391 5.45508L11.5176 6.45703C11.4434 6.53125 11.332 6.53125 11.2578 6.53125C10.998 6.53125 10.8125 6.3457 10.8125 6.08594V5.75195C10.8125 5.49219 10.9238 5.26953 11.1094 5.12109L12.3711 4.19336C12.2227 4.19336 12.1113 4.15625 12 4.15625C7.73242 4.15625 4.28125 7.64453 4.28125 11.875C4.28125 16.1426 7.73242 19.5938 12 19.5938Z" fill="currentColor"/>
</svg>
