<svg width="24" height="24" viewBox="0 0 24 24" fill="currentColor" xmlns="http://www.w3.org/2000/svg">
<path d="M2.5 11.875C2.5 6.64258 6.73047 2.375 12 2.375C17.2324 2.375 21.5 6.64258 21.5 11.875C21.5 17.1445 17.2324 21.375 12 21.375C6.73047 21.375 2.5 17.1445 2.5 11.875ZM12 19.5938C16.2305 19.5938 19.7188 16.1426 19.7188 11.875C19.7188 7.64453 16.2305 4.15625 12 4.15625C7.73242 4.15625 4.28125 7.64453 4.28125 11.875C4.28125 16.1426 7.73242 19.5938 12 19.5938ZM17.7148 11.875L17.084 9.98242C16.8984 9.38867 17.1953 8.75781 17.7891 8.49805L19.7188 7.71875L20.3125 13.0625L18.5684 12.6543C18.1602 12.543 17.8262 12.2461 17.7148 11.875ZM4.98633 10.168L4.28125 8.90625L4.875 7.125L7.84375 4.15625L11.7031 2.96875L12.4453 4.3418C12.7051 4.78711 12.668 5.30664 12.334 5.71484L11.7402 6.38281C11.3691 6.82812 11.3691 7.45898 11.7402 7.9043L12.2227 8.49805C12.4453 8.75781 12.4453 9.0918 12.2969 9.35156C12.1113 9.61133 11.7773 9.75977 11.4805 9.64844L10.5898 9.35156C10.3301 9.27734 10.0703 9.27734 9.81055 9.42578L9.58789 9.53711C9.25391 9.68555 9.10547 10.0938 9.2168 10.4277C9.29102 10.6133 9.40234 10.7617 9.55078 10.8359L10.8496 11.5781C11.1836 11.8008 11.5918 11.875 12 11.875H13.6328C14.0781 11.875 14.5605 12.0977 14.8945 12.4316L15.0059 12.543C15.3398 12.877 15.5625 13.3594 15.5625 13.8047V14.1387C15.5625 14.7695 15.1914 15.3633 14.6348 15.6602L14.3008 15.8828C13.7812 16.1797 13.373 16.6621 13.1875 17.293L13.1504 17.4785C12.9648 18.0723 12.5195 18.5176 11.9258 18.7031C11.3691 18.8516 10.7754 18.4434 10.7754 17.8496V16.6992C10.7754 16.291 10.5527 15.9199 10.1816 15.7344C9.84766 15.5859 9.58789 15.2148 9.58789 14.8066V13.3223C9.58789 12.6543 9.17969 12.0605 8.51172 11.875L6.39648 11.2812C5.76562 11.0957 5.2832 10.6875 4.98633 10.168Z" fill="currentColor"/>
</svg>
