<svg width="24" height="24" viewBox="0 0 24 24" fill="currentColor" xmlns="http://www.w3.org/2000/svg">
<path d="M9.73633 15.1777C10.0703 15.252 10.2559 15.5859 10.1816 15.8828C10.1074 16.2168 9.77344 16.4023 9.47656 16.3281L8.28906 16.0312C7.95508 15.957 7.76953 15.623 7.84375 15.3262C7.91797 14.9922 8.25195 14.8066 8.54883 14.8809L9.73633 15.1777ZM11.7031 15.2891C11.3691 15.2148 11.1836 14.8809 11.2578 14.584L11.5547 13.3965C11.6289 13.0625 11.9629 12.877 12.2598 12.9512C12.5938 13.0254 12.7793 13.3594 12.7051 13.6562L12.4082 14.8438C12.334 15.1777 12 15.3633 11.7031 15.2891ZM14.8945 8.60938C14.7461 8.90625 14.375 9.01758 14.0781 8.86914C13.7812 8.7207 13.6699 8.34961 13.8184 8.05273L14.4121 6.86523C14.5605 6.56836 14.9316 6.45703 15.2285 6.60547C15.5254 6.75391 15.6367 7.125 15.4883 7.42188L14.8945 8.60938ZM21.5 11.875C21.5 17.1445 17.2324 21.375 12 21.375C6.73047 21.375 2.5 17.1445 2.5 11.875C2.5 6.64258 6.73047 2.375 12 2.375C17.2324 2.375 21.5 6.64258 21.5 11.875ZM14.5234 4.60156L13.9297 6.12305C13.8184 6.38281 13.5957 6.60547 13.3359 6.64258L12.7051 6.82812C12.0742 6.97656 11.8145 7.71875 12.1855 8.20117L12.7793 9.01758C13.002 9.31445 13.0391 9.72266 12.8164 10.0566L12.4082 10.6504C12.1484 11.0586 11.666 11.2812 11.1836 11.2812H11.1094C10.5156 11.2812 10.0703 11.875 10.2559 12.4316L10.4785 13.1738C10.627 13.7305 10.2188 14.25 9.66211 14.25C9.25391 14.25 8.88281 14.0273 8.73438 13.6934L8.36328 12.9883C8.10352 12.4688 7.39844 12.3203 6.95312 12.7656L6.39648 13.3223C6.17383 13.5449 5.87695 13.6562 5.58008 13.582L4.39258 13.3594C5.06055 16.9219 8.21484 19.5938 12 19.5938C13.7812 19.5938 15.4141 19 16.7129 17.998L16.4902 17.8125L15.7852 18.0723C15.0801 18.3691 14.2637 17.998 13.9297 17.293L13.707 16.8477C13.4102 16.1426 13.6699 15.3262 14.3379 14.9551L15.7109 14.1758C15.7852 14.1387 15.8594 14.0645 15.8965 13.9902L16.1191 13.6562C16.3418 13.2852 16.75 13.0625 17.1582 13.0625C17.5664 13.0625 17.9746 13.2852 18.1973 13.6562L18.2715 13.7676C18.3828 13.9531 18.6426 14.0645 18.9023 13.9902L19.459 13.8418C19.6074 13.2109 19.7188 12.5801 19.7188 11.875C19.7188 8.53516 17.5293 5.67773 14.5234 4.60156Z" fill="currentColor"/>
</svg>
