<svg width="24" height="24" viewBox="0 0 24 24" fill="currentColor" xmlns="http://www.w3.org/2000/svg">
<path d="M23.2441 7.45898L12.7422 3.71094C12.5195 3.63672 12.2598 3.5625 12 3.5625C11.7031 3.5625 11.4434 3.63672 11.1836 3.71094L0.71875 7.45898C0.347656 7.60742 0.125 7.94141 0.125 8.3125C0.125 8.7207 0.347656 9.05469 0.71875 9.20312L2.94531 9.98242C2.5 10.5762 2.16602 11.2441 2.01758 11.9863C1.60938 12.1719 1.3125 12.5801 1.3125 13.0625C1.3125 13.4336 1.46094 13.7676 1.7207 13.9902L0.830078 19.5195C0.755859 19.8906 1.05273 20.1875 1.38672 20.1875H3.57617C3.91016 20.1875 4.20703 19.8906 4.13281 19.5195L3.24219 13.9902C3.50195 13.7676 3.6875 13.4336 3.6875 13.0625C3.6875 12.6914 3.46484 12.3574 3.20508 12.1719C3.35352 11.5039 3.6875 10.9102 4.13281 10.4277L11.1836 12.9512C11.4434 13.0254 11.7031 13.0625 12 13.0625C12.2598 13.0625 12.5195 13.0254 12.7793 12.9512L23.2441 9.20312C23.6152 9.05469 23.875 8.7207 23.875 8.3125C23.875 7.94141 23.6152 7.60742 23.2441 7.45898ZM12.1855 11.2812C12 11.3184 11.8516 11.2812 11.8145 11.2812L6.61914 9.42578L12.1484 7.71875C12.4824 7.60742 12.6309 7.27344 12.5566 6.97656C12.4453 6.64258 12.1113 6.45703 11.8145 6.56836L4.76367 8.75781L3.57617 8.3125L11.7773 5.38086C11.9258 5.34375 12.0742 5.38086 12.1484 5.38086L20.3867 8.3125L12.1855 11.2812ZM16.8984 12.7285L17.3438 16.8848C17.3438 17.293 15.4883 18.4062 12 18.4062C8.47461 18.4062 6.65625 17.293 6.65625 16.8848L7.06445 12.7285L5.35742 12.1348L4.875 16.8105C4.875 19.0742 8.4375 20.1875 12 20.1875C15.5254 20.1875 19.125 19.0742 19.0879 16.8105L18.6055 12.1348L16.8984 12.7285Z" fill="currentColor"/>
</svg>
