<svg width="24" height="24" viewBox="0 0 24 24" fill="currentColor" xmlns="http://www.w3.org/2000/svg">
<g clip-path="url(#clip0_1169_476)">
<path d="M3.5 5.46875C3.5 4.48498 4.31014 3.6875 5.30952 3.6875H8.92857C9.92758 3.6875 10.7381 4.48498 10.7381 5.46875V9.03125C10.7381 10.0146 9.92758 10.8125 8.92857 10.8125H5.30952C4.31014 10.8125 3.5 10.0146 3.5 9.03125V5.46875ZM5.30952 9.03125H8.92857V5.46875H5.30952V9.03125ZM3.5 14.9688C3.5 13.9854 4.31014 13.1875 5.30952 13.1875H8.92857C9.92758 13.1875 10.7381 13.9854 10.7381 14.9688V18.5312C10.7381 19.5146 9.92758 20.3125 8.92857 20.3125H5.30952C4.31014 20.3125 3.5 19.5146 3.5 18.5312V14.9688ZM5.30952 18.5312H8.92857V14.9688H5.30952V18.5312ZM18.5794 3.6875C19.5784 3.6875 20.3889 4.48498 20.3889 5.46875V9.03125C20.3889 10.0146 19.5784 10.8125 18.5794 10.8125H14.9603C13.9613 10.8125 13.1508 10.0146 13.1508 9.03125V5.46875C13.1508 4.48498 13.9613 3.6875 14.9603 3.6875H18.5794ZM18.5794 5.46875H14.9603V9.03125H18.5794V5.46875ZM13.1508 14.9688C13.1508 13.9854 13.9613 13.1875 14.9603 13.1875H18.5794C19.5784 13.1875 20.3889 13.9854 20.3889 14.9688V18.5312C20.3889 19.5146 19.5784 20.3125 18.5794 20.3125H14.9603C13.9613 20.3125 13.1508 19.5146 13.1508 18.5312V14.9688ZM14.9603 18.5312H18.5794V14.9688H14.9603V18.5312Z" fill="currentColor"/>
</g>
<defs>
<clipPath id="clip0_1169_476">
<rect width="16.8889" height="19" fill="currentColor" transform="translate(3.5 2.5)"/>
</clipPath>
</defs>
</svg>
