<svg width="24" height="24" viewBox="0 0 24 24" fill="currentColor" xmlns="http://www.w3.org/2000/svg">
<path d="M21.7598 13.9902C20.5723 12.9883 19.1621 13.3594 18.457 13.916L16.2305 15.5859H16.082C16.1191 14.1758 15.0059 13.0625 13.5586 13.0625H8.21484C7.17578 13.0625 6.13672 13.4336 5.32031 14.0645L4.24414 14.8809H2.20312C1.68359 14.8809 1.3125 15.252 1.3125 15.7715C1.3125 16.2539 1.68359 16.6621 2.20312 16.6621H4.875L6.39648 15.4746C6.91602 15.0664 7.54688 14.8809 8.21484 14.8809H13.5586C14.5977 14.8809 14.6348 16.3652 13.5215 16.3652H11.2949C11.0352 16.3652 10.8125 16.5879 10.8125 16.8848C10.8125 17.1445 11.0352 17.3672 11.2949 17.3672H16.3047C16.6758 17.3672 17.0098 17.2559 17.3066 17.0332L19.5703 15.3262C19.8672 15.1035 20.3496 15.1035 20.6094 15.3262C21.0176 15.6602 20.9805 16.1797 20.6094 16.4766L16.8613 19.2969C16.5645 19.4824 16.2305 19.6309 15.8594 19.6309H2.20312C1.68359 19.5938 1.3125 20.002 1.3125 20.4844C1.3125 21.0039 1.68359 21.375 2.20312 21.375H15.8594C16.6016 21.375 17.3438 21.1523 17.9375 20.707L21.6484 17.8867C22.2793 17.4414 22.6504 16.7363 22.6504 15.957C22.6875 15.2148 22.3535 14.4727 21.7598 13.9902ZM7.25 11.875H16.7129C17.7148 11.875 18.5312 11.0957 18.5312 10.0938V4.15625C18.5312 3.19141 17.7148 2.375 16.75 2.375H7.28711C6.24805 2.375 5.46875 3.19141 5.46875 4.15625V10.0938C5.46875 11.0957 6.24805 11.875 7.25 11.875ZM7.25 4.15625H9.58789V7.125L11.9258 5.9375L14.3008 7.125V4.15625H16.75V10.0938H7.25V4.15625Z" fill="currentColor"/>
</svg>
