<svg width="24" height="24" viewBox="0 0 24 24" fill="currentColor" xmlns="http://www.w3.org/2000/svg">
<path d="M18.9023 7.125C18.2344 6.3457 16.6016 4.82422 14.3379 4.45312C13.4844 4.3418 12.668 4.60156 11.9629 5.1582C11.332 4.63867 10.4785 4.37891 9.625 4.49023C6.65625 4.97266 4.80078 7.45898 4.72656 7.57031C4.42969 7.94141 4.54102 8.49805 4.91211 8.79492C5.09766 8.90625 5.2832 8.98047 5.43164 8.98047C5.72852 8.98047 5.98828 8.83203 6.17383 8.60938C6.17383 8.57227 7.6582 6.60547 9.88477 6.27148C10.1816 6.23438 10.4414 6.27148 10.7012 6.41992L8.54883 8.64648C8.06641 9.0918 7.80664 9.68555 7.80664 10.3535C7.80664 10.9844 8.0293 11.6152 8.51172 12.0605C8.99414 12.543 9.58789 12.7656 10.2559 12.7656C10.8867 12.7656 11.5176 12.5059 11.9629 12.0234L12.4082 11.6152L17.0098 15.3633C17.084 15.4375 17.084 15.5488 17.0098 15.6602L16.0078 16.9961C15.9336 17.0703 15.7852 17.0703 15.7109 17.0332L14.8945 16.3281L13.9297 17.3672C13.8555 17.4785 13.7441 17.4785 13.6699 17.5156C13.5957 17.5156 13.5215 17.5156 13.4102 17.4414L12.2227 16.4023L11.6289 16.959L11.5176 17.0703C11.332 17.3301 10.998 17.4785 10.6641 17.5156C10.3301 17.5527 9.99609 17.4785 9.77344 17.293L6.43359 14.25H3.6875V7.16211H0.125V16.625H2.5C2.9082 16.625 3.2793 16.4023 3.50195 16.0312H5.72852L8.58594 18.6289C9.14258 19.0742 9.81055 19.2969 10.5156 19.2969C10.627 19.2969 10.7383 19.2969 10.8496 19.2969C11.3691 19.2598 11.8145 19.0742 12.2227 18.8145H12.2598C12.7051 19.1855 13.2988 19.3711 13.8555 19.2969C14.3379 19.2598 14.7832 19.0371 15.1172 18.7402C15.8965 19.0371 16.8242 18.8145 17.3809 18.1094L18.4199 16.8105C19.0879 15.957 18.9766 14.6953 18.123 14.0273L13.6699 10.3906L13.9668 10.0566C14.3008 9.72266 14.3008 9.16602 13.9668 8.79492C13.6328 8.46094 13.0762 8.46094 12.7051 8.79492L10.7012 10.7988C10.4785 11.0586 10.0332 11.0586 9.81055 10.7988C9.66211 10.6875 9.58789 10.5391 9.58789 10.3535C9.58789 10.168 9.66211 10.0195 9.81055 9.87109L13.002 6.64258C13.2617 6.3457 13.6699 6.19727 14.0781 6.27148C16.2676 6.60547 17.7891 8.60938 17.7891 8.60938C17.9004 8.75781 18.0488 8.86914 18.2344 8.90625H20.3125V15.4375C20.3125 16.0684 20.832 16.625 21.4629 16.625H23.875V7.16211L18.9023 7.125ZM1.90625 15.4375C1.57227 15.4375 1.3125 15.1777 1.3125 14.8809C1.3125 14.5469 1.57227 14.2871 1.90625 14.2871C2.20312 14.2871 2.5 14.5469 2.5 14.8809C2.5 15.1777 2.20312 15.4375 1.90625 15.4375ZM22.0938 15.4375C21.7598 15.4375 21.5 15.1777 21.5 14.8809C21.5 14.5469 21.7598 14.2871 22.0938 14.2871C22.3906 14.2871 22.6875 14.5469 22.6875 14.8809C22.6875 15.1777 22.3906 15.4375 22.0938 15.4375Z" fill="currentColor"/>
</svg>
