<svg width="24" height="24" viewBox="0 0 24 24" fill="currentColor" xmlns="http://www.w3.org/2000/svg">
<path d="M11.4062 13.0625C11.0723 13.0625 10.8125 13.3594 10.8125 13.6562V17.2188C10.8125 17.5527 11.0723 17.8125 11.4062 17.8125C11.7031 17.8125 12 17.5527 12 17.2188V13.6562C12 13.3594 11.7031 13.0625 11.4062 13.0625ZM13.7812 13.0625C13.4473 13.0625 13.1875 13.3594 13.1875 13.6562V17.2188C13.1875 17.5527 13.4473 17.8125 13.7441 17.8125C14.041 17.8125 14.375 17.5527 14.375 17.2188L14.3379 13.6562C14.3379 13.3594 14.0781 13.0625 13.7812 13.0625ZM17.6406 9.87109C17.1582 9.24023 16.3789 8.83203 15.5254 8.83203H15.043C14.8945 8.83203 14.7461 8.86914 14.6348 8.86914C14.1523 8.53516 13.5957 8.3125 13.002 8.3125H12.5566V5.04688C12.5566 3.59961 11.3691 2.375 9.88477 2.375C8.4375 2.375 7.21289 3.59961 7.21289 5.04688V11.3184C6.80469 11.1328 6.4707 11.1328 6.24805 11.1328C4.61523 11.1328 3.6875 12.5059 3.6875 13.7305C3.6875 14.2871 3.83594 14.8066 4.16992 15.252L7.10156 19.1484C8.14062 20.5586 9.84766 21.375 11.5918 21.375H15.6738C15.8965 21.375 16.1562 21.375 16.3418 21.3008C17.418 21.0781 18.3457 20.5586 19.0508 19.7793C19.8672 18.9629 20.3125 17.8496 20.3125 16.6621V12.5801C20.3125 11.0957 19.125 9.9082 17.6406 9.87109ZM18.5312 16.6621C18.5312 17.3672 18.2344 18.0723 17.752 18.5918C17.3066 19.0742 16.6758 19.4082 15.8965 19.5566C15.8223 19.5938 15.748 19.5938 15.6738 19.5938H11.5918C10.4043 19.5938 9.25391 19.0371 8.51172 18.0723L5.61719 14.2129C5.50586 14.0645 5.46875 13.8789 5.46875 13.7305C5.46875 13.0996 5.98828 12.9141 6.24805 12.9141C6.43359 12.9141 6.69336 12.9512 6.91602 13.248L7.95508 14.6211C8.06641 14.7695 8.25195 14.8809 8.4375 14.8809C8.8457 14.8809 9.03125 14.4727 9.03125 14.2871V5.04688C9.03125 4.56445 9.40234 4.15625 9.88477 4.15625C10.3672 4.15625 10.7754 4.56445 10.7754 5.04688V9.9082C10.7754 10.168 10.9609 10.502 11.3691 10.502C11.8145 10.502 11.8516 10.0938 12.4824 10.0938H13.002C13.7812 10.0938 13.6699 10.8359 14.3008 10.8359C14.5977 10.8359 14.6348 10.6133 15.043 10.6133H15.5254C16.5273 10.6133 16.1934 11.6523 17.0469 11.6523H17.5664C18.0859 11.6523 18.4941 12.0605 18.4941 12.5801V16.6621H18.5312ZM16.1562 13.0625C15.8223 13.0625 15.5625 13.3594 15.5625 13.6562V17.2188C15.5625 17.5527 15.8223 17.8125 16.1562 17.8125C16.4531 17.8125 16.75 17.5527 16.75 17.2188V13.6562C16.75 13.3594 16.4531 13.0625 16.1562 13.0625Z" fill="currentColor"/>
<path d="M5.67773 5.42505C5.67773 5.56177 5.57031 5.66919 5.44336 5.66919H2.12305L3.42188 6.89966C3.51953 6.98755 3.51953 7.1438 3.43164 7.23169C3.34375 7.32935 3.19727 7.32935 3.09961 7.24146L1.38086 5.60083C1.33203 5.552 1.3125 5.49341 1.3125 5.42505C1.3125 5.36646 1.33203 5.30786 1.38086 5.25903L3.09961 3.61841C3.19727 3.53052 3.34375 3.53052 3.43164 3.62817C3.51953 3.71606 3.51953 3.87231 3.42188 3.96021L2.12305 5.19067H5.44336C5.58008 5.19067 5.67773 5.2981 5.67773 5.42505Z" fill="currentColor"/>
<path d="M16.3906 3.61841L18.1094 5.25903C18.1582 5.30786 18.1875 5.36646 18.1875 5.43481C18.1875 5.49341 18.1582 5.552 18.1094 5.60083L16.3906 7.24146C16.3027 7.32935 16.1465 7.32935 16.0586 7.23169C15.9707 7.1438 15.9707 6.98755 16.0684 6.89966L17.3672 5.66919H14.0469C13.9102 5.66919 13.8125 5.56177 13.8125 5.43481C13.8125 5.2981 13.9102 5.20044 14.0469 5.20044H17.3672L16.0684 3.96021C15.9707 3.87231 15.9707 3.71606 16.0586 3.62817C16.1465 3.53052 16.293 3.53052 16.3906 3.61841Z" fill="currentColor"/>
</svg>
