<svg width="24" height="24" viewBox="0 0 24 24" fill="currentColor" xmlns="http://www.w3.org/2000/svg">
<path d="M12 2.375C6.65625 2.375 2.64844 6.82812 2.5 11.875V13.8789C2.5 15.4004 3.6875 16.625 5.20898 16.625H5.87695C6.61914 16.625 7.25 16.0312 7.25 15.252V10.3164C7.25 9.53711 6.61914 8.90625 5.87695 8.90625H5.20898C5.06055 8.90625 4.94922 8.94336 4.83789 8.98047C5.98828 6.16016 8.77148 4.19336 12 4.19336C15.1914 4.19336 17.9746 6.16016 19.125 8.94336C19.0137 8.94336 18.9023 8.90625 18.7539 8.90625H18.0859C17.3438 8.90625 16.75 9.53711 16.75 10.3164V15.252C16.75 16.0312 17.3438 16.625 18.0859 16.625H18.7539C19.0879 16.625 19.4219 16.5879 19.7188 16.4766V17.2188C19.7188 18.0723 19.0508 18.7031 18.2344 18.7031H14.1152C13.8184 18.1836 13.2246 17.8125 12.5938 17.8125H11.4062C10.4043 17.8125 9.625 18.6289 9.625 19.5938C9.625 20.5957 10.4043 21.375 11.3691 21.375H12.5938C13.2246 21.375 13.8184 21.041 14.1152 20.4844H18.2344C20.0156 20.4844 21.5 19.0371 21.5 17.2188V11.875C21.3145 6.82812 17.3066 2.375 12 2.375ZM5.20898 10.6875H5.46875V14.8438H5.20898C4.68945 14.8438 4.28125 14.3984 4.28125 13.8789V11.875C4.28125 11.8008 4.28125 11.7266 4.28125 11.6152C4.31836 11.0957 4.68945 10.6875 5.20898 10.6875ZM18.7539 14.8438H18.5312V10.6875H18.7539C19.2734 10.6875 19.6445 11.1328 19.6816 11.6152C19.6816 11.7266 19.7188 11.8008 19.7188 11.875V13.8789C19.7188 14.3984 19.2734 14.8438 18.7539 14.8438Z" fill="currentColor"/>
</svg>
