<svg width="24" height="24" viewBox="0 0 24 24" fill="currentColor" xmlns="http://www.w3.org/2000/svg">
<path d="M22.5762 16.3652C22.3535 15.8086 21.834 15.4375 21.2402 15.4375H21.5V13.6562C21.5 9.46289 18.7539 5.90039 14.9688 4.67578V4.45312C14.9688 3.63672 14.3008 2.96875 13.4844 2.96875H10.4785C9.66211 2.96875 9.03125 3.63672 9.03125 4.45312V4.67578C5.20898 5.90039 2.46289 9.46289 2.46289 13.6562V15.4375H2.72266C2.12891 15.4375 1.60938 15.8086 1.38672 16.3652C1.20117 16.8848 1.3125 17.5156 1.64648 17.9238C1.90625 18.2207 4.35547 20.7812 12 20.7812C19.6074 20.7812 22.0566 18.2207 22.3164 17.9238C22.6504 17.5156 22.7617 16.8848 22.5762 16.3652ZM4.24414 13.6562C4.24414 10.4648 6.24805 7.75586 8.99414 6.56836V13.3594C8.99414 13.8789 9.40234 14.25 9.88477 14.25C10.4043 14.25 10.7754 13.8789 10.7754 13.3594V4.75H13.1504V13.3594C13.1504 13.8789 13.5586 14.25 14.041 14.25C14.5605 14.25 14.9316 13.8789 14.9316 13.3594V6.56836C17.7148 7.75586 19.7188 10.4648 19.7188 13.6562V15.4375H4.24414V13.6562ZM12 19C7.10156 19 4.65234 17.8867 3.61328 17.2188H20.3496C19.3105 17.8867 16.8613 19 12 19Z" fill="currentColor"/>
</svg>
