<svg width="24" height="24" viewBox="0 0 24 24" fill="currentColor" xmlns="http://www.w3.org/2000/svg">
<path d="M13.7812 5.9375C14.7461 5.9375 15.5625 5.1582 15.5625 4.15625C15.5625 3.19141 14.7461 2.375 13.7812 2.375C12.7793 2.375 12 3.19141 12 4.15625C12 5.1582 12.7793 5.9375 13.7812 5.9375ZM9.36523 14.1758L7.84375 20.2988C7.84375 20.373 7.84375 20.4473 7.84375 20.4844C7.84375 21.041 8.28906 21.375 8.73438 21.375C9.10547 21.375 9.47656 21.1152 9.58789 20.707L10.8125 15.7344L9.81055 14.7324C9.625 14.5469 9.51367 14.3613 9.36523 14.1758ZM18.2344 8.3125C17.7148 8.3125 17.3438 8.7207 17.3438 9.20312V9.79688H15.9707L14.1152 7.68164C13.7441 7.34766 13.2617 7.125 12.7422 7.125C11.8887 7.125 11.1465 7.71875 10.9238 8.57227L10.1074 11.9121C10.0332 12.0977 10.0332 12.2461 10.0332 12.4316C10.0332 12.9512 10.2559 13.5078 10.627 13.8789L13.373 16.625C13.4473 16.6992 13.4473 16.7734 13.4473 16.8477V20.4844C13.4473 21.0039 13.8555 21.375 14.3379 21.375C14.8574 21.375 15.2285 21.0039 15.2285 20.4844V16.8477C15.2285 16.291 15.0059 15.7715 14.5977 15.3633L12.7793 13.5078L13.6699 9.94531L14.8945 11.2812C15.043 11.4668 15.3027 11.5781 15.5254 11.5781H17.3066V20.4844C17.3066 21.0039 17.7148 21.375 18.1973 21.375C18.6426 21.375 19.125 21.0039 19.125 20.4844V9.20312C19.125 8.7207 18.7168 8.3125 18.2344 8.3125ZM7.84375 13.0625C8.10352 13.0625 8.32617 12.877 8.40039 12.6172L9.95898 6.7168C9.95898 6.67969 9.95898 6.64258 9.95898 6.60547C9.95898 6.3457 9.77344 6.08594 9.51367 6.04883C9.25391 5.97461 8.99414 5.9375 8.77148 5.9375C7.39844 5.9375 6.17383 6.82812 5.80273 8.16406L4.875 11.8008C4.875 11.8379 4.83789 11.875 4.83789 11.9492C4.83789 12.209 5.02344 12.4316 5.32031 12.5059L7.69531 13.0625C7.73242 13.0625 7.76953 13.0625 7.84375 13.0625Z" fill="currentColor"/>
</svg>
