<svg width="24" height="24" viewBox="0 0 24 24" fill="currentColor" xmlns="http://www.w3.org/2000/svg">
<path d="M12 2.375C17.2324 2.375 21.5 6.64258 21.5 11.875C21.5 17.1445 17.2324 21.375 12 21.375C10.0332 21.375 8.25195 20.8184 6.73047 19.8164C6.32227 19.5566 6.21094 19 6.4707 18.5918C6.76758 18.1836 7.32422 18.0723 7.73242 18.332C8.95703 19.1484 10.4043 19.5938 12 19.5938C16.2305 19.5938 19.7188 16.1426 19.7188 11.875C19.7188 7.64453 16.2305 4.15625 12 4.15625C9.25391 4.15625 6.8418 5.60352 5.46875 7.71875H7.54688C8.0293 7.71875 8.4375 8.12695 8.4375 8.60938C8.4375 9.12891 8.0293 9.5 7.54688 9.5H3.39062C2.87109 9.5 2.5 9.12891 2.5 8.60938V4.45312C2.5 3.9707 2.87109 3.5625 3.39062 3.5625C3.87305 3.5625 4.28125 3.9707 4.28125 4.45312V6.3457C5.98828 3.9707 8.80859 2.375 12 2.375ZM12 7.125C12.4824 7.125 12.8906 7.5332 12.8906 8.01562V11.541L15.2656 13.916C15.6367 14.2871 15.6367 14.8438 15.2656 15.1777C14.9316 15.5488 14.375 15.5488 14.041 15.1777L11.3691 12.5059C11.1836 12.3574 11.1094 12.1348 11.1094 11.875V8.01562C11.1094 7.5332 11.4805 7.125 12 7.125Z" fill="currentColor"/>
</svg>
