<svg width="24" height="24" viewBox="0 0 24 24" fill="currentColor" xmlns="http://www.w3.org/2000/svg">
<path d="M22.3535 10.9102C22.7246 11.2441 22.7617 11.8008 22.4648 12.1719C22.1309 12.543 21.5742 12.5801 21.2031 12.2832L20.3125 11.5039V18.4062C20.3125 20.0762 18.9766 21.375 17.3438 21.375H6.65625C4.98633 21.375 3.6875 20.0762 3.6875 18.4062V11.5039L2.75977 12.2832C2.38867 12.5801 1.83203 12.543 1.49805 12.1719C1.20117 11.8008 1.23828 11.2441 1.60938 10.9102L11.4062 2.59766C11.7402 2.33789 12.2227 2.33789 12.5566 2.59766L22.3535 10.9102ZM6.65625 19.5938H8.4375V13.9531C8.4375 13.1367 9.06836 12.4688 9.92188 12.4688H14.0781C14.8945 12.4688 15.5625 13.1367 15.5625 13.9531V19.5938H17.3438C17.9746 19.5938 18.5312 19.0742 18.5312 18.4062V9.98242L12 4.45312L5.46875 9.98242V18.4062C5.46875 19.0742 5.98828 19.5938 6.65625 19.5938ZM10.2188 19.5938H13.7812V14.25H10.2188V19.5938Z" fill="currentColor"/>
</svg>
