<svg width="24" height="24" viewBox="0 0 24 24" fill="currentColor" xmlns="http://www.w3.org/2000/svg">
<path d="M8.14062 6.82812C7.13867 6.82812 6.35938 7.64453 6.35938 8.60938C6.35938 9.61133 7.13867 10.3906 8.14062 10.3906C9.10547 10.3906 9.92188 9.61133 9.92188 8.60938C9.92188 7.64453 9.10547 6.82812 8.14062 6.82812ZM19.0879 3.5625H4.83789C3.53906 3.5625 2.46289 4.63867 2.46289 5.9375V17.8125C2.46289 19.1484 3.53906 20.1875 4.83789 20.1875H19.0879C20.3867 20.1875 21.4629 19.1484 21.4629 17.8125V5.9375C21.4629 4.63867 20.4238 3.5625 19.0879 3.5625ZM19.6816 17.5898L14.5977 10.6875C14.4863 10.502 14.3008 10.3906 14.0781 10.3906C13.8184 10.3906 13.6328 10.502 13.4844 10.6875L9.55078 16.0312L8.17773 14.3242C8.0293 14.1758 7.84375 14.0645 7.62109 14.0645C7.39844 14.0645 7.21289 14.1758 7.06445 14.3242L4.28125 17.8125L4.24414 5.9375C4.24414 5.64062 4.54102 5.34375 4.83789 5.34375H19.0879C19.4219 5.34375 19.6816 5.64062 19.6816 5.9375V17.5898Z" fill="currentColor"/>
</svg>
