<svg width="24" height="24" viewBox="0 0 24 24" fill="currentColor" xmlns="http://www.w3.org/2000/svg">
<path d="M21.3516 13.6934L19.0879 4.49023C18.9395 3.93359 18.457 3.5625 17.9375 3.5625H6.0625C5.50586 3.5625 5.02344 3.93359 4.875 4.45312L2.61133 13.6934C2.53711 14.0645 2.5 14.4727 2.5 14.8438V17.8125C2.5 19.1484 3.53906 20.1875 4.875 20.1875H19.125C20.4238 20.1875 21.5 19.1484 21.5 17.8125V14.8438C21.5 14.4727 21.4258 14.0645 21.3516 13.6934ZM6.50781 5.34375H17.4551L19.3477 13.0625H16.1562C15.7852 13.0625 15.4883 13.2852 15.3398 13.582L14.4121 15.4375H9.55078L8.62305 13.582C8.47461 13.2852 8.17773 13.0625 7.84375 13.0625H4.61523L6.50781 5.34375ZM19.7188 17.8125C19.7188 18.1465 19.4219 18.4062 19.125 18.4062H4.875C4.54102 18.4062 4.28125 18.1465 4.28125 17.8125V14.8438H7.28711L8.21484 16.7363C8.36328 17.0332 8.66016 17.2188 9.03125 17.2188H14.9688C15.3027 17.2188 15.5996 17.0332 15.748 16.7363L16.6758 14.8438H19.7188V17.8125Z" fill="currentColor"/>
</svg>
