<svg width="24" height="24" viewBox="0 0 24 24" fill="currentColor" xmlns="http://www.w3.org/2000/svg">
<path d="M3.6875 4.75C3.6875 4.26758 4.05859 3.85938 4.57812 3.85938H19.4219C19.9043 3.85938 20.3125 4.26758 20.3125 4.75C20.3125 5.26953 19.9043 5.64062 19.4219 5.64062H4.57812C4.05859 5.64062 3.6875 5.26953 3.6875 4.75ZM10.8125 9.5C10.8125 9.01758 11.1836 8.60938 11.7031 8.60938H19.4219C19.9043 8.60938 20.3125 9.01758 20.3125 9.5C20.3125 10.0195 19.9043 10.3906 19.4219 10.3906H11.7031C11.1836 10.3906 10.8125 10.0195 10.8125 9.5ZM19.4219 13.3594C19.9043 13.3594 20.3125 13.7676 20.3125 14.25C20.3125 14.7695 19.9043 15.1406 19.4219 15.1406H11.7031C11.1836 15.1406 10.8125 14.7695 10.8125 14.25C10.8125 13.7676 11.1836 13.3594 11.7031 13.3594H19.4219ZM3.6875 19C3.6875 18.5176 4.05859 18.1094 4.57812 18.1094H19.4219C19.9043 18.1094 20.3125 18.5176 20.3125 19C20.3125 19.5195 19.9043 19.8906 19.4219 19.8906H4.57812C4.05859 19.8906 3.6875 19.5195 3.6875 19ZM4.65234 15.252C4.24414 15.5488 3.6875 15.2891 3.6875 14.8066V8.98047C3.6875 8.49805 4.24414 8.20117 4.65234 8.53516L8.17773 11.4297C8.4375 11.6523 8.4375 12.0977 8.17773 12.3574L4.65234 15.252Z" fill="currentColor"/>
</svg>
