<svg width="24" height="24" viewBox="0 0 24 24" fill="currentColor" xmlns="http://www.w3.org/2000/svg">
<path d="M18.0859 5.9375C15.2285 5.9375 13.0762 8.49805 12 10.1309C10.8867 8.49805 8.77148 5.9375 5.87695 5.9375C2.68555 5.9375 0.125 8.60938 0.125 11.875C0.125 15.1777 2.68555 17.8125 5.87695 17.8125C8.77148 17.8125 10.8867 15.2891 12 13.6562C13.0762 15.2891 15.2285 17.8125 18.0859 17.8125C21.2773 17.8125 23.875 15.1777 23.875 11.875C23.875 8.60938 21.2773 5.9375 18.0859 5.9375ZM5.87695 16.0312C3.6875 16.0312 1.90625 14.1758 1.90625 11.875C1.90625 9.61133 3.6875 7.71875 5.87695 7.71875C8.40039 7.71875 10.3672 10.7988 10.9609 11.875C10.3672 12.9883 8.40039 16.0312 5.87695 16.0312ZM18.0859 16.0312C15.5625 16.0312 13.5957 12.9883 13.002 11.875C13.6328 10.7988 15.5625 7.71875 18.0859 7.71875C20.2754 7.71875 22.0938 9.61133 22.0938 11.875C22.0938 14.1758 20.2754 16.0312 18.0859 16.0312Z" fill="currentColor"/>
</svg>
