<svg width="24" height="24" viewBox="0 0 24 24" fill="currentColor" xmlns="http://www.w3.org/2000/svg">
<path d="M22.9844 2.375C22.4648 2.375 22.0938 2.7832 22.0938 3.26562V7.71875H19.0137C19.0879 7.5332 19.125 7.34766 19.125 7.125V4.75C19.125 3.45117 18.0488 2.375 16.75 2.375H14.375C13.0391 2.375 12 3.45117 12 4.75V7.125C12 7.34766 12 7.5332 12.0742 7.71875H1.90625V3.26562C1.90625 2.7832 1.49805 2.375 1.01562 2.375C0.496094 2.375 0.125 2.7832 0.125 3.26562V20.4844C0.125 21.0039 0.496094 21.375 1.01562 21.375C1.49805 21.375 1.90625 21.0039 1.90625 20.4844V19H22.0938V20.4844C22.0938 21.0039 22.4648 21.375 22.9844 21.375C23.4668 21.375 23.875 21.0039 23.875 20.4844V3.26562C23.875 2.7832 23.4668 2.375 22.9844 2.375ZM13.7812 7.125V4.75C13.7812 4.45312 14.041 4.15625 14.375 4.15625H16.75C17.0469 4.15625 17.3438 4.45312 17.3438 4.75V7.125C17.3438 7.45898 17.0469 7.71875 16.75 7.71875H14.375C14.041 7.71875 13.7812 7.45898 13.7812 7.125ZM6.0625 17.2188C5.72852 17.2188 5.46875 16.959 5.46875 16.625V14.25C5.46875 13.9531 5.72852 13.6562 6.0625 13.6562H8.4375C8.73438 13.6562 9.03125 13.9531 9.03125 14.25V16.625C9.03125 16.959 8.73438 17.2188 8.4375 17.2188H6.0625ZM11.4062 17.2188C11.0723 17.2188 10.8125 16.959 10.8125 16.625V14.25C10.8125 13.9531 11.0723 13.6562 11.4062 13.6562H13.7812C14.0781 13.6562 14.375 13.9531 14.375 14.25V16.625C14.375 16.959 14.0781 17.2188 13.7812 17.2188H11.4062ZM16.0449 17.2188C16.1191 17.0332 16.1562 16.8477 16.1562 16.625V14.25C16.1562 12.9512 15.0801 11.875 13.7812 11.875H11.4062C10.8125 11.875 10.293 12.0977 9.92188 12.4316C9.51367 12.0977 8.99414 11.875 8.4375 11.875H6.0625C4.72656 11.875 3.6875 12.9512 3.6875 14.25V16.625C3.6875 16.8477 3.6875 17.0332 3.76172 17.2188H1.90625V9.5H22.0938V17.2188H16.0449Z" fill="currentColor"/>
</svg>
