<svg width="24" height="24" viewBox="0 0 24 24" fill="currentColor" xmlns="http://www.w3.org/2000/svg">
<path fill-rule="evenodd" clip-rule="evenodd" d="M6.9255 13.8148V11.5864C6.9255 10.9945 7.41296 10.4722 8.0397 10.4722H13.6107C13.9431 10.4722 14.2535 10.6369 14.4618 10.8861C14.4421 10.8859 14.4223 10.8858 14.4025 10.8858C11.936 10.8858 9.87375 12.6161 9.36324 14.929H8.0397C7.41296 14.929 6.9255 14.4416 6.9255 13.8148ZM10.0556 18.8287H6.3684C6.05504 18.8287 5.8113 18.585 5.8113 18.2716V4.93605C5.8113 4.62269 6.05504 4.37896 6.3684 4.37896H11.9394V7.12963C11.9394 7.75637 12.4269 8.24383 13.0536 8.24383H15.8043V11.0785C16.4291 11.2544 17.0058 11.5451 17.5104 11.9263V7.51264C17.5104 6.92072 17.2666 6.36362 16.8488 5.9458L14.2374 3.33439C13.8196 2.91657 13.2625 2.67284 12.6706 2.67284H6.3684C5.11493 2.67284 4.14001 3.68258 4.14001 4.90124V18.2716C4.14001 19.5251 5.11493 20.5 6.3684 20.5H11.7941C11.0913 20.0875 10.4948 19.5134 10.0556 18.8287ZM10.2681 7.12963H7.4826C7.16923 7.12963 6.9255 6.8859 6.9255 6.57253C6.9255 6.29398 7.16923 6.01543 7.4826 6.01543H10.2681C10.5466 6.01543 10.8252 6.29398 10.8252 6.57253C10.8252 6.8859 10.5466 7.12963 10.2681 7.12963ZM10.2681 9.35803H7.4826C7.16923 9.35803 6.9255 9.1143 6.9255 8.80093C6.9255 8.52238 7.16923 8.24383 7.4826 8.24383H10.2681C10.5466 8.24383 10.8252 8.52238 10.8252 8.80093C10.8252 9.1143 10.5466 9.35803 10.2681 9.35803Z" fill="currentColor"/>
<path d="M14.4025 10.5927C11.3898 10.5927 8.9488 13.0336 8.9488 16.0464C8.9488 19.0591 11.3898 21.5001 14.4025 21.5001C17.4152 21.5001 19.8562 19.0591 19.8562 16.0464C19.8562 13.0336 17.4152 10.5927 14.4025 10.5927ZM14.4025 20.4445C11.9615 20.4445 10.0044 18.4873 10.0044 16.0464C10.0044 13.6274 11.9615 11.6482 14.4025 11.6482C16.8215 11.6482 18.8007 13.6274 18.8007 16.0464C18.8007 18.4873 16.8215 20.4445 14.4025 20.4445ZM15.7439 18.1575C15.8759 18.2454 16.0298 18.2234 16.1178 18.0915L16.5356 17.5417C16.6236 17.4098 16.6016 17.2558 16.4696 17.1679L15.0182 16.0903V12.9677C15.0182 12.8357 14.8863 12.7038 14.7544 12.7038H14.0507C13.8967 12.7038 13.7868 12.8357 13.7868 12.9677V16.5961C13.7868 16.6621 13.8088 16.7501 13.8747 16.794L15.7439 18.1575Z" fill="currentColor"/>
</svg>
