<svg width="24" height="24" viewBox="0 0 24 24" fill="currentColor" xmlns="http://www.w3.org/2000/svg">
<path d="M17.0469 8.46094C17.4551 8.46094 17.7891 8.79492 17.7891 9.20312V9.35156H20.0156C20.4238 9.35156 20.7578 9.68555 20.7578 10.0938C20.7578 10.502 20.4238 10.8359 20.0156 10.8359H19.9414L19.8672 11.0215C19.5332 11.9121 19.0137 12.7656 18.3828 13.4336C18.4199 13.4707 18.457 13.4707 18.4941 13.5078L19.1992 13.916C19.5332 14.1387 19.6445 14.584 19.459 14.9551C19.2363 15.2891 18.791 15.4004 18.4199 15.2148L17.7148 14.7695C17.5664 14.6953 17.3809 14.584 17.2324 14.4727C16.8613 14.7324 16.416 14.9922 15.9707 15.1777L15.8594 15.252C15.4883 15.4004 15.043 15.252 14.8574 14.8809C14.709 14.4727 14.8574 14.0645 15.2285 13.8789L15.377 13.8418C15.5996 13.7305 15.8594 13.582 16.082 13.4707L15.5996 13.0254C15.3398 12.7285 15.3398 12.2461 15.5996 11.9492C15.8965 11.6523 16.3789 11.6523 16.6758 11.9492L17.1953 12.5059H17.2324C17.6777 12.0234 18.0488 11.4668 18.3457 10.8359H14.375C13.9297 10.8359 13.6328 10.502 13.6328 10.0938C13.6328 9.68555 13.9297 9.35156 14.375 9.35156H16.3047V9.20312C16.3047 8.79492 16.6016 8.46094 17.0469 8.46094ZM5.32031 12.6172L6.0625 11.0586L6.76758 12.6172H5.32031ZM21.5 4.75C22.7988 4.75 23.875 5.82617 23.875 7.125V16.625C23.875 17.9609 22.7988 19 21.5 19H2.5C1.16406 19 0.125 17.9609 0.125 16.625V7.125C0.125 5.82617 1.16406 4.75 2.5 4.75H21.5ZM21.5 6.53125H12V17.2188H21.5C21.7969 17.2188 22.0938 16.959 22.0938 16.625V7.125C22.0938 6.82812 21.7969 6.53125 21.5 6.53125ZM6.73047 8.90625C6.61914 8.64648 6.32227 8.46094 6.0625 8.46094C5.76562 8.46094 5.46875 8.64648 5.35742 8.90625L2.98242 14.25C2.83398 14.6211 2.98242 15.0664 3.35352 15.252C3.72461 15.4004 4.16992 15.252 4.35547 14.8809L4.68945 14.1016H7.39844L7.73242 14.8809C7.91797 15.252 8.36328 15.4004 8.73438 15.252C9.10547 15.0664 9.25391 14.6211 9.10547 14.25L6.73047 8.90625Z" fill="currentColor"/>
</svg>
