<svg width="24" height="24" viewBox="0 0 24 24" fill="currentColor" xmlns="http://www.w3.org/2000/svg">
<path d="M20.5352 3.85938C20.4238 3.67383 20.2383 3.5625 20.0527 3.5625C19.9043 3.5625 19.7188 3.67383 19.6074 3.85938C18.6797 5.45508 17.0098 6.27148 15.3027 6.27148C14.8945 6.27148 14.4863 6.23438 14.0781 6.12305C13.5957 6.01172 13.0762 5.9375 12.5938 5.9375C8.95703 5.9375 6.0625 8.86914 6.0625 12.5059C6.0625 12.8027 6.0625 13.1367 6.13672 13.4336C3.16797 16.0312 2.5 19.1113 2.5 19.1484C2.38867 19.6309 2.72266 20.0762 3.20508 20.1875C3.24219 20.1875 3.31641 20.1875 3.39062 20.1875C3.79883 20.1875 4.16992 19.9277 4.24414 19.4824C4.28125 19.334 4.76367 17.2559 6.69336 15.2891C7.73242 17.5156 9.99609 19 12.5938 19C13.4102 19 14.2266 18.8516 14.9688 18.5547C18.8652 17.2559 21.5 13.2852 21.5 8.53516C21.5 6.90234 21.1289 5.23242 20.5352 3.85938ZM14.4121 16.8477H14.375L14.3008 16.8848C13.7441 17.1074 13.1504 17.2188 12.5566 17.2188C10.5156 17.2188 8.80859 15.8828 8.14062 14.0645C9.66211 13.0254 11.7773 12.1348 14.709 11.875C15.1914 11.8008 15.5625 11.3926 15.4883 10.873C15.4512 10.3906 15.0059 10.0566 14.5234 10.0938C11.666 10.3535 9.51367 11.1328 7.80664 12.1719C7.95508 9.68555 10.0332 7.71875 12.5566 7.71875C12.9277 7.71875 13.2988 7.75586 13.6328 7.83008C14.1523 7.94141 14.709 8.01562 15.2656 8.01562C16.8613 8.01562 18.3086 7.49609 19.4961 6.60547C19.6445 7.23633 19.7188 7.9043 19.7188 8.53516C19.7188 12.4688 17.5664 15.8086 14.4121 16.8477Z" fill="currentColor"/>
</svg>
