<svg width="24" height="24" viewBox="0 0 24 24" fill="currentColor" xmlns="http://www.w3.org/2000/svg">
<path d="M15.3535 17.3438C15.0195 16.9727 15.0195 16.416 15.3535 16.082L18.582 12.8906H3.51562C2.99609 12.8906 2.625 12.4824 2.625 12V5.76563C2.625 5.24609 2.99609 4.875 3.51562 4.875C3.99805 4.875 4.40625 5.24609 4.40625 5.76563V11.1094H18.582L15.3535 7.84375C15.0195 7.50977 15.0195 6.95312 15.3535 6.61914C15.7246 6.24805 16.2812 6.24805 16.6152 6.61914L21.3652 11.3691C21.5137 11.5176 21.625 11.7402 21.625 12C21.625 12.2227 21.5137 12.4453 21.3281 12.5938L16.5781 17.3438C16.2441 17.7148 15.6875 17.7148 15.3535 17.3438Z" fill="currentColor"/>
</svg>
