<svg width="24" height="24" viewBox="0 0 24 24" fill="currentColor" xmlns="http://www.w3.org/2000/svg">
<path d="M4.0957 13.0625L2.01758 14.25C1.75781 14.3984 1.57227 14.6953 1.57227 15.0293C1.57227 15.3262 1.7207 15.623 2.01758 15.8086C2.27734 15.957 2.64844 15.957 2.9082 15.7715L4.98633 14.584C5.39453 14.3613 5.50586 13.8047 5.2832 13.3965C5.06055 12.9512 4.50391 12.8027 4.0957 13.0625ZM4.98633 4.45312L2.9082 3.26562C2.64844 3.08008 2.27734 3.08008 2.01758 3.22852C1.7207 3.41406 1.57227 3.71094 1.57227 4.00781C1.57227 4.3418 1.75781 4.63867 2.01758 4.78711L4.0957 5.97461C4.35547 6.16016 4.68945 6.16016 4.98633 6.01172C5.24609 5.82617 5.43164 5.5293 5.43164 5.23242C5.43164 4.89844 5.24609 4.60156 4.98633 4.45312ZM4.28125 9.5C4.28125 9.01758 3.87305 8.60938 3.39062 8.60938H1.01562C0.496094 8.60938 0.125 9.01758 0.125 9.5C0.125 10.0195 0.496094 10.3906 1.01562 10.3906H3.39062C3.87305 10.3906 4.28125 10.0195 4.28125 9.5ZM19.459 6.08594C19.6074 6.08594 19.7559 6.04883 19.9043 5.97461L21.9453 4.78711C22.3535 4.52734 22.502 4.00781 22.2422 3.59961C22.0195 3.1543 21.4629 3.00586 21.0547 3.26562L19.0137 4.45312C18.6426 4.63867 18.4941 5.04688 18.5684 5.45508C18.6797 5.82617 19.0508 6.08594 19.459 6.08594ZM22.9844 8.60938H20.6094C20.0898 8.60938 19.7188 9.01758 19.7188 9.5C19.7188 10.0195 20.0898 10.3906 20.6094 10.3906H22.9844C23.4668 10.3906 23.875 10.0195 23.875 9.5C23.875 9.01758 23.4668 8.60938 22.9844 8.60938ZM21.9453 14.25L19.8672 13.0625C19.6074 12.877 19.2734 12.877 18.9766 13.0254C18.7168 13.2109 18.5312 13.5078 18.5312 13.8047C18.5312 14.1387 18.7168 14.4355 18.9766 14.584L21.0547 15.7715C21.4629 16.0312 22.0195 15.8828 22.2422 15.4375C22.502 15.0293 22.3535 14.4727 21.9453 14.25ZM12 2.41211C8.21484 2.41211 5.46875 5.45508 5.46875 8.90625C5.46875 10.5391 6.0625 12.0234 7.06445 13.1738C7.69531 13.8789 8.62305 15.3633 8.99414 16.5879C8.99414 16.5879 8.99414 16.5879 8.99414 16.625H14.9688C14.9688 16.5879 14.9688 16.5879 14.9688 16.5879C15.3398 15.3633 16.2676 13.8789 16.8984 13.1738C17.9004 12.0605 18.5312 10.5762 18.5312 8.90625C18.5312 5.30664 15.5996 2.41211 12 2.41211ZM15.5625 12.0605C14.9688 12.6914 14.2637 13.7676 13.7441 14.8438H10.2188C9.69922 13.7676 8.99414 12.6914 8.40039 12.0605C7.6582 11.1699 7.25 10.0566 7.25 8.90625C7.25 6.60547 9.03125 4.19336 11.9629 4.15625C14.5977 4.15625 16.75 6.30859 16.75 8.90625C16.75 10.0566 16.3047 11.1699 15.5625 12.0605ZM9.03125 19.2598C9.03125 19.4824 9.06836 19.7051 9.2168 19.9277L9.84766 20.8555C10.0332 21.1523 10.4785 21.4121 10.8496 21.4121H13.1133C13.4844 21.4121 13.9297 21.1523 14.1152 20.8555L14.7461 19.9277C14.8574 19.7422 14.9688 19.4453 14.9688 19.2598V17.8496H9.03125V19.2598ZM11.4062 5.34375C9.73633 5.34375 8.4375 6.67969 8.4375 8.3125C8.4375 8.64648 8.69727 8.94336 9.03125 8.94336C9.32812 8.94336 9.625 8.64648 9.625 8.3125C9.625 7.34766 10.4043 6.53125 11.4062 6.53125C11.7031 6.53125 12 6.27148 12 5.97461C12 5.64062 11.7031 5.34375 11.4062 5.34375Z" fill="currentColor"/>
</svg>
