<svg width="24" height="24" viewBox="0 0 24 24" fill="currentColor" xmlns="http://www.w3.org/2000/svg">
<path d="M6.54492 7.27344C8.62305 5.19531 12 5.19531 14.0781 7.27344C16.082 9.24023 16.1562 12.4316 14.3379 14.5469L14.1152 14.7695C13.7812 15.1406 13.2246 15.1777 12.8535 14.8809C12.4824 14.5469 12.4453 13.9902 12.7793 13.6191L12.9648 13.3965C14.2266 11.9863 14.1523 9.87109 12.8164 8.53516C11.4434 7.125 9.17969 7.125 7.76953 8.53516L3.57617 12.7285C2.20312 14.1387 2.20312 16.3652 3.57617 17.7754C4.91211 19.0742 7.02734 19.1484 8.4375 17.9238L8.66016 17.7383C9.03125 17.4043 9.58789 17.4414 9.92188 17.8125C10.2559 18.1836 10.2188 18.7402 9.84766 19.0742L9.625 19.2598C7.50977 21.1152 4.31836 21.0039 2.31445 19.0371C0.236328 16.959 0.236328 13.5449 2.31445 11.4668L6.54492 7.27344ZM17.4551 16.5137C15.3398 18.5918 11.9629 18.5918 9.88477 16.5137C7.88086 14.5098 7.80664 11.3555 9.625 9.24023L9.81055 9.01758C10.1445 8.64648 10.7012 8.60938 11.0723 8.94336C11.4434 9.27734 11.4805 9.83398 11.1465 10.2051L10.998 10.3906C9.73633 11.8008 9.81055 13.916 11.1465 15.252C12.5195 16.625 14.7832 16.625 16.1934 15.252L20.3867 11.0586C21.7598 9.64844 21.7598 7.42188 20.3867 6.01172C19.0508 4.71289 16.9355 4.63867 15.5254 5.86328L15.3027 6.04883C14.9316 6.38281 14.375 6.3457 14.041 5.97461C13.707 5.60352 13.7441 5.04688 14.1152 4.71289L14.3379 4.52734C16.4531 2.67188 19.6445 2.7832 21.6484 4.75C23.7266 6.82812 23.7266 10.2051 21.6484 12.3203L17.4551 16.5137Z" fill="currentColor"/>
</svg>
