<svg width="24" height="24" viewBox="0 0 24 24" fill="currentColor" xmlns="http://www.w3.org/2000/svg">
<path d="M5.76562 4.15625C6.24805 4.15625 6.65625 4.56445 6.65625 5.04688V6.82812C6.65625 7.34766 6.24805 7.71875 5.76562 7.71875H3.98438C3.46484 7.71875 3.09375 7.34766 3.09375 6.82812V5.04688C3.09375 4.56445 3.46484 4.15625 3.98438 4.15625H5.76562ZM20.6094 5.04688C21.0918 5.04688 21.5 5.45508 21.5 5.9375C21.5 6.45703 21.0918 6.82812 20.6094 6.82812H9.32812C8.80859 6.82812 8.4375 6.45703 8.4375 5.9375C8.4375 5.45508 8.80859 5.04688 9.32812 5.04688H20.6094ZM20.6094 10.9844C21.0918 10.9844 21.5 11.3926 21.5 11.875C21.5 12.3945 21.0918 12.7656 20.6094 12.7656H9.32812C8.80859 12.7656 8.4375 12.3945 8.4375 11.875C8.4375 11.3926 8.80859 10.9844 9.32812 10.9844H20.6094ZM20.6094 16.9219C21.0918 16.9219 21.5 17.3301 21.5 17.8125C21.5 18.332 21.0918 18.7031 20.6094 18.7031H9.32812C8.80859 18.7031 8.4375 18.332 8.4375 17.8125C8.4375 17.3301 8.80859 16.9219 9.32812 16.9219H20.6094ZM3.09375 10.9844C3.09375 10.502 3.46484 10.0938 3.98438 10.0938H5.76562C6.24805 10.0938 6.65625 10.502 6.65625 10.9844V12.7656C6.65625 13.2852 6.24805 13.6562 5.76562 13.6562H3.98438C3.46484 13.6562 3.09375 13.2852 3.09375 12.7656V10.9844ZM5.76562 16.0312C6.24805 16.0312 6.65625 16.4395 6.65625 16.9219V18.7031C6.65625 19.2227 6.24805 19.5938 5.76562 19.5938H3.98438C3.46484 19.5938 3.09375 19.2227 3.09375 18.7031V16.9219C3.09375 16.4395 3.46484 16.0312 3.98438 16.0312H5.76562Z" fill="currentColor"/>
</svg>
