<svg width="24" height="24" viewBox="0 0 24 24" fill="currentColor" xmlns="http://www.w3.org/2000/svg">
<path d="M7.25 9.5V7.125C7.25 4.52734 9.36523 2.375 12 2.375C14.5977 2.375 16.75 4.52734 16.75 7.125V9.5H17.9375C19.2363 9.5 20.3125 10.5762 20.3125 11.875V19C20.3125 20.3359 19.2363 21.375 17.9375 21.375H6.0625C4.72656 21.375 3.6875 20.3359 3.6875 19V11.875C3.6875 10.5762 4.72656 9.5 6.0625 9.5H7.25ZM9.03125 9.5H14.9688V7.125C14.9688 5.49219 13.6328 4.15625 12 4.15625C10.3301 4.15625 9.03125 5.49219 9.03125 7.125V9.5ZM5.46875 19C5.46875 19.334 5.72852 19.5938 6.0625 19.5938H17.9375C18.2344 19.5938 18.5312 19.334 18.5312 19V11.875C18.5312 11.5781 18.2344 11.2812 17.9375 11.2812H6.0625C5.72852 11.2812 5.46875 11.5781 5.46875 11.875V19Z" fill="currentColor"/>
</svg>
