<svg width="24" height="24" viewBox="0 0 24 24" fill="currentColor" xmlns="http://www.w3.org/2000/svg">
<path d="M14.375 9.5H15.5625C16.8613 9.5 17.9375 10.5762 17.9375 11.875V19C17.9375 20.3359 16.8613 21.375 15.5625 21.375H3.6875C2.35156 21.375 1.3125 20.3359 1.3125 19V11.875C1.3125 10.5762 2.35156 9.5 3.6875 9.5H12.5938V7.125C12.5938 4.52734 14.709 2.375 17.3438 2.375C19.9414 2.375 22.0938 4.52734 22.0938 7.125V9.79688C22.0938 10.3164 21.6855 10.6875 21.2031 10.6875C20.6836 10.6875 20.3125 10.3164 20.3125 9.79688V7.125C20.3125 5.49219 18.9766 4.15625 17.3438 4.15625C15.6738 4.15625 14.375 5.49219 14.375 7.125V9.5ZM3.09375 11.875V19C3.09375 19.334 3.35352 19.5938 3.6875 19.5938H15.5625C15.8594 19.5938 16.1562 19.334 16.1562 19V11.875C16.1562 11.5781 15.8594 11.2812 15.5625 11.2812H3.6875C3.35352 11.2812 3.09375 11.5781 3.09375 11.875Z" fill="currentColor"/>
</svg>
