<svg width="24" height="24" viewBox="0 0 24 24" fill="currentColor" xmlns="http://www.w3.org/2000/svg">
<path d="M16.4531 6.82812C16.4531 7.16211 16.3789 7.5332 16.2305 7.9043C16.0449 8.57227 15.6738 9.35156 15.2285 10.0938C15.1172 10.3164 15.0059 10.502 14.8574 10.6875C14.709 10.9473 14.5234 11.207 14.375 11.4668V11.5039C13.6699 12.5059 13.002 13.3965 12.5195 13.9531C12.2598 14.3242 11.7031 14.3242 11.4434 13.9531C10.9609 13.3965 10.293 12.5059 9.625 11.5039C8.91992 10.502 8.25195 9.35156 7.88086 8.34961C7.84375 8.27539 7.80664 8.20117 7.76953 8.12695C7.62109 7.64453 7.54688 7.23633 7.54688 6.82812C7.54688 6.67969 7.54688 6.49414 7.54688 6.3457C7.80664 4.11914 9.69922 2.375 12 2.375C14.4492 2.375 16.4531 4.37891 16.4531 6.82812ZM12 8.01562C12.8164 8.01562 13.4844 7.38477 13.4844 6.53125C13.4844 5.71484 12.8164 5.04688 12 5.04688C11.1465 5.04688 10.5156 5.71484 10.5156 6.53125C10.5156 7.38477 11.1465 8.01562 12 8.01562ZM14.375 13.5449C14.8574 12.877 15.4141 12.0605 15.9336 11.2441C16.0078 11.1328 16.082 11.0215 16.1562 10.9102V19.2227L20.9062 17.5156V8.12695L16.8613 9.57422C16.9355 9.42578 17.0098 9.24023 17.084 9.05469C17.3066 8.53516 17.4922 7.97852 17.5664 7.42188L21.4629 6.01172C21.7598 5.90039 22.0566 5.9375 22.2793 6.12305C22.5391 6.27148 22.6875 6.56836 22.6875 6.82812V18.1094C22.6875 18.5176 22.4277 18.8516 22.0938 18.9629L15.5625 21.3379C15.3398 21.4121 15.1543 21.4121 14.9316 21.3379L8.73438 19.0742L2.5 21.3379C2.20312 21.4492 1.90625 21.4121 1.68359 21.2266C1.42383 21.0781 1.3125 20.7812 1.3125 20.4844V9.20312C1.3125 8.83203 1.53516 8.49805 1.86914 8.38672L6.35938 6.75391C6.35938 6.79102 6.35938 6.82812 6.35938 6.82812C6.35938 7.42188 6.4707 7.97852 6.65625 8.53516L3.09375 9.83398V19.2227L7.84375 17.5156V10.9102C7.88086 11.0215 7.95508 11.1328 8.0293 11.2441C8.54883 12.0605 9.10547 12.877 9.625 13.5449V17.5156L14.375 19.2227V13.5449Z" fill="currentColor"/>
</svg>
