<svg width="24" height="24" viewBox="0 0 24 24" fill="currentColor" xmlns="http://www.w3.org/2000/svg">
<path d="M15.1914 13.1367L13.2246 12.8398L12.3711 11.0957C12.2969 10.9473 12.1484 10.873 11.9629 10.873C11.8145 10.873 11.666 10.9473 11.5918 11.0957L10.7383 12.8398L8.77148 13.1367C8.4375 13.1738 8.28906 13.6191 8.54883 13.8789L9.95898 15.252L9.625 17.1816C9.58789 17.4414 9.81055 17.6641 10.0332 17.6641C10.1074 17.6641 10.1816 17.6641 10.2559 17.627L11.9629 16.6992L13.707 17.627C13.7812 17.6641 13.8555 17.6641 13.9297 17.6641C14.1523 17.6641 14.375 17.4414 14.3379 17.1816L14.0039 15.252L15.4141 13.8789C15.6738 13.6191 15.5254 13.1738 15.1914 13.1367ZM12 7.71875C8.21484 7.71875 5.17188 10.7988 5.17188 14.5469C5.17188 18.332 8.21484 21.375 12 21.375C15.748 21.375 18.791 18.332 18.791 14.5469C18.791 10.7988 15.748 7.71875 12 7.71875ZM12 19.5938C9.2168 19.5938 6.95312 17.3301 6.95312 14.5469C6.95312 11.8008 9.2168 9.5 12 9.5C14.7832 9.5 17.0098 11.8008 17.0098 14.5469C17.0098 17.3301 14.7461 19.5938 12 19.5938ZM7.50977 7.9043L5.02344 4.15625H7.62109L9.25391 7.05078C9.81055 6.82812 10.4043 6.67969 11.0352 6.60547L8.88281 2.85742C8.73438 2.56055 8.4375 2.375 8.14062 2.375H3.39062C3.05664 2.375 2.72266 2.56055 2.57422 2.85742C2.42578 3.1543 2.46289 3.48828 2.64844 3.78516L6.17383 9.05469C6.58203 8.64648 7.02734 8.23828 7.50977 7.9043ZM21.3887 2.85742C21.2402 2.56055 20.9062 2.375 20.5723 2.375H15.8594C15.5254 2.375 15.2285 2.56055 15.0801 2.85742L12.9277 6.60547C13.5586 6.67969 14.1523 6.82812 14.709 7.05078L16.3418 4.15625H18.9395L16.4531 7.9043C16.9355 8.23828 17.3809 8.64648 17.7891 9.05469L21.3145 3.78516C21.5 3.48828 21.5371 3.1543 21.3887 2.85742Z" fill="currentColor"/>
</svg>
