<svg width="24" height="24" viewBox="0 0 24 24" fill="currentColor" xmlns="http://www.w3.org/2000/svg">
<path d="M22.6875 4.45312V19.2969C22.6875 19.8164 22.2793 20.1875 21.7969 20.1875C21.2773 20.1875 20.9062 19.8164 20.9062 19.2969V19.1113L14.3008 17.293C13.9668 18.9629 12.5195 20.1875 10.8125 20.1875C8.80859 20.1875 7.25 18.5918 7.25 16.625C7.25 16.2168 7.28711 15.8086 7.43555 15.4375L3.09375 14.25V14.5469C3.09375 15.0664 2.68555 15.4375 2.20312 15.4375C1.68359 15.4375 1.3125 15.0664 1.3125 14.5469V9.20312C1.3125 8.7207 1.68359 8.3125 2.20312 8.3125C2.68555 8.3125 3.09375 8.7207 3.09375 9.20312V9.53711L20.9062 4.67578V4.45312C20.9062 3.9707 21.2773 3.5625 21.7969 3.5625C22.2793 3.5625 22.6875 3.9707 22.6875 4.45312ZM20.9062 17.2559V6.53125L3.09375 11.3926V12.3945L20.9062 17.2559ZM10.8125 18.4062C11.7031 18.4062 12.4824 17.7383 12.5566 16.8477L9.17969 15.9199C9.06836 16.1426 9.03125 16.3652 9.03125 16.625C9.03125 17.627 9.81055 18.4062 10.8125 18.4062Z" fill="currentColor"/>
</svg>
