<svg width="24" height="24" viewBox="0 0 24 24" fill="currentColor" xmlns="http://www.w3.org/2000/svg">
<path d="M14.375 8.3125H9.625C8.95703 8.3125 8.4375 8.86914 8.4375 9.5V14.25C8.4375 14.918 8.95703 15.4375 9.625 15.4375H14.375C15.0059 15.4375 15.5625 14.918 15.5625 14.25V9.5C15.5625 8.86914 15.0059 8.3125 14.375 8.3125ZM13.7812 13.6562H10.2188V10.0938H13.7812V13.6562ZM20.6094 12.7656C21.0918 12.7656 21.5 12.3945 21.5 11.875C21.5 11.3926 21.0918 10.9844 20.6094 10.9844H19.125V9.20312H20.6094C21.0918 9.20312 21.5 8.83203 21.5 8.3125C21.5 7.83008 21.0918 7.42188 20.6094 7.42188H19.125V7.125C19.125 5.82617 18.0488 4.75 16.75 4.75H16.4531V3.26562C16.4531 2.7832 16.0449 2.375 15.5625 2.375C15.043 2.375 14.6719 2.7832 14.6719 3.26562V4.75H12.8906V3.26562C12.8906 2.7832 12.4824 2.375 12 2.375C11.4805 2.375 11.1094 2.7832 11.1094 3.26562V4.75H9.32812V3.26562C9.32812 2.7832 8.91992 2.375 8.4375 2.375C7.91797 2.375 7.54688 2.7832 7.54688 3.26562V4.75H7.25C5.91406 4.75 4.875 5.82617 4.875 7.125V7.42188H3.39062C2.87109 7.42188 2.5 7.83008 2.5 8.3125C2.5 8.83203 2.87109 9.20312 3.39062 9.20312H4.875V10.9844H3.39062C2.87109 10.9844 2.5 11.3926 2.5 11.875C2.5 12.3945 2.87109 12.7656 3.39062 12.7656H4.875V14.5469H3.39062C2.87109 14.5469 2.5 14.9551 2.5 15.4375C2.5 15.957 2.87109 16.3281 3.39062 16.3281H4.875V16.625C4.875 17.9609 5.91406 19 7.25 19H7.54688V20.4844C7.54688 21.0039 7.91797 21.375 8.4375 21.375C8.91992 21.375 9.32812 21.0039 9.32812 20.4844V19H11.1094V20.4844C11.1094 21.0039 11.4805 21.375 12 21.375C12.4824 21.375 12.8906 21.0039 12.8906 20.4844V19H14.6719V20.4844C14.6719 21.0039 15.043 21.375 15.5625 21.375C16.0449 21.375 16.4531 21.0039 16.4531 20.4844V19H16.75C18.0488 19 19.125 17.9609 19.125 16.625V16.3281H20.6094C21.0918 16.3281 21.5 15.957 21.5 15.4375C21.5 14.9551 21.0918 14.5469 20.6094 14.5469H19.125V12.7656H20.6094ZM17.3438 16.625C17.3438 16.959 17.0469 17.2188 16.75 17.2188H7.25C6.91602 17.2188 6.65625 16.959 6.65625 16.625V7.125C6.65625 6.82812 6.91602 6.53125 7.25 6.53125H16.75C17.0469 6.53125 17.3438 6.82812 17.3438 7.125V16.625Z" fill="currentColor"/>
</svg>
