<svg width="24" height="24" viewBox="0 0 24 24" fill="currentColor" xmlns="http://www.w3.org/2000/svg">
<path d="M16.1562 2.375H7.84375C6.50781 2.375 5.46875 3.45117 5.46875 4.75V19C5.46875 20.3359 6.50781 21.375 7.84375 21.375H16.1562C17.4551 21.375 18.5312 20.3359 18.5312 19V4.75C18.5312 3.45117 17.4551 2.375 16.1562 2.375ZM16.75 19C16.75 19.334 16.4531 19.5938 16.1562 19.5938H7.84375C7.50977 19.5938 7.25 19.334 7.25 19V4.75C7.25 4.45312 7.50977 4.15625 7.84375 4.15625H16.1562C16.4531 4.15625 16.75 4.45312 16.75 4.75V19ZM12 16.9219C11.4805 16.9219 11.1094 17.3301 11.1094 17.8125C11.1094 18.332 11.4805 18.7031 12 18.7031C12.4824 18.7031 12.8906 18.332 12.8906 17.8125C12.8906 17.3301 12.4824 16.9219 12 16.9219Z" fill="currentColor"/>
</svg>
