<svg width="24" height="24" viewBox="0 0 24 24" fill="currentColor" xmlns="http://www.w3.org/2000/svg">
<path d="M1.90625 7.125V16.625C1.90625 16.959 2.16602 17.2188 2.5 17.2188H13.0391C12.8164 17.5156 12.668 17.8125 12.5938 18.1465L12.3711 19H2.5C1.16406 19 0.125 17.9609 0.125 16.625V7.125C0.125 5.82617 1.16406 4.75 2.5 4.75H19.125C20.4238 4.75 21.5 5.82617 21.5 7.125V9.53711C20.9062 9.61133 20.3867 9.87109 19.9414 10.3164L19.7188 10.5391V7.125C19.7188 6.82812 19.4219 6.53125 19.125 6.53125H2.5C2.16602 6.53125 1.90625 6.82812 1.90625 7.125ZM12.2969 12.4688C12.7793 12.4688 13.1875 12.877 13.1875 13.3594C13.1875 13.8789 12.7793 14.25 12.2969 14.25H4.57812C4.05859 14.25 3.6875 13.8789 3.6875 13.3594C3.6875 12.877 4.05859 12.4688 4.57812 12.4688H12.2969ZM3.6875 9.79688C3.6875 9.31445 4.05859 8.90625 4.57812 8.90625H15.8594C16.3418 8.90625 16.75 9.31445 16.75 9.79688C16.75 10.3164 16.3418 10.6875 15.8594 10.6875H4.57812C4.05859 10.6875 3.6875 10.3164 3.6875 9.79688ZM23.4297 11.6895C23.9863 12.2461 23.9863 13.1738 23.4297 13.7676L22.3164 14.8809L19.6816 12.2461L20.7949 11.1328C21.3516 10.5762 22.3164 10.5762 22.873 11.1328L23.4297 11.6895ZM14.041 17.8496L18.8652 13.0625L21.5 15.6973L16.6758 20.4844C16.5273 20.6328 16.3418 20.7441 16.1562 20.8184L13.8926 21.375C13.707 21.4121 13.4844 21.375 13.3359 21.2266C13.1875 21.0781 13.1504 20.8555 13.1875 20.6328L13.7441 18.4062C13.7812 18.2207 13.8926 18.0352 14.041 17.8496Z" fill="currentColor"/>
</svg>
