<svg width="24" height="24" viewBox="0 0 24 24" fill="currentColor" xmlns="http://www.w3.org/2000/svg">
<path d="M9.03125 11.875C9.03125 9.9082 10.3301 8.3125 12 8.3125C13.6328 8.3125 14.9688 9.9082 14.9688 11.875C14.9688 13.8418 13.6328 15.4375 12 15.4375C10.3301 15.4375 9.03125 13.8418 9.03125 11.875ZM1.3125 18.0352V6.56836C1.3125 5.67773 2.24023 5.08398 3.09375 5.34375C6.0625 6.12305 9.03125 5.38086 12 4.63867C15.1914 3.82227 18.4199 2.96875 21.6484 4.19336C22.2793 4.41602 22.6875 5.04688 22.6875 5.75195V17.1816C22.6875 18.1094 21.7227 18.7031 20.8691 18.4434C17.9004 17.627 14.9316 18.4062 12 19.1484C8.77148 19.9648 5.54297 20.7812 2.31445 19.5938C1.68359 19.3711 1.3125 18.7031 1.3125 18.0352ZM11.666 17.4043C13.7441 16.8848 16.082 16.2539 18.5312 16.3281C18.6797 15.1777 19.6816 14.25 20.9062 14.25V7.71875C19.5703 7.71875 18.5312 6.67969 18.5312 5.38086C16.7871 5.30664 14.9316 5.71484 12.8164 6.27148C12.6309 6.30859 12.4824 6.3457 12.2969 6.38281C10.2188 6.90234 7.88086 7.5332 5.43164 7.45898C5.2832 8.60938 4.28125 9.5 3.09375 9.5V16.0312C4.39258 16.0312 5.43164 17.1074 5.46875 18.4062C7.17578 18.4805 9.03125 18.0723 11.1465 17.5156C11.332 17.4785 11.4805 17.4414 11.666 17.4043Z" fill="currentColor"/>
</svg>
