<svg width="24" height="24" viewBox="0 0 24 24" fill="currentColor" xmlns="http://www.w3.org/2000/svg">
<path d="M22.0195 10.3164L23.8379 3.19141C23.9492 2.82031 23.6152 2.41211 23.207 2.375C22.9844 2.375 22.7617 2.52344 22.6504 2.70898L18.9766 8.53516C18.457 8.42383 17.9004 8.3125 17.3438 8.3125C14.6348 8.3125 12.0371 9.24023 9.99609 10.9844L5.83984 14.584C5.72852 14.6582 5.58008 14.7324 5.46875 14.7324C5.13477 14.7695 4.875 14.5098 4.875 14.1387V12.877L6.69336 11.7266C7.02734 11.5039 7.25 11.1328 7.25 10.7246V7.125C7.25 6.79102 6.95312 6.53125 6.61914 6.53125C6.50781 6.53125 6.39648 6.56836 6.28516 6.64258L3.65039 8.42383L1.01562 6.64258C0.941406 6.56836 0.830078 6.53125 0.71875 6.53125C0.384766 6.53125 0.125 6.79102 0.125 7.16211V10.7617C0.125 11.1328 0.310547 11.5039 0.644531 11.7266L2.5 12.877V15.4375C2.5 18.7402 5.13477 21.375 8.4375 21.375H17.3438C20.9434 21.375 23.875 18.4805 23.875 14.8438C23.875 13.0996 23.1699 11.5039 22.0195 10.3164ZM3.91016 11.3555L3.65039 11.5039L1.90625 10.3906V9.35156L3.65039 10.5391L5.46875 9.35156V10.3906L3.91016 11.3555ZM17.3438 19.5938H8.4375C6.39648 19.5938 4.72656 18.1836 4.35547 16.2539C4.68945 16.4395 5.06055 16.5508 5.43164 16.5508C5.98828 16.5508 6.54492 16.3281 6.95312 15.957L11.1465 12.3945C12.8906 10.9102 15.0801 10.0938 17.3438 10.0938C19.9414 10.0938 22.0938 12.2461 22.0938 14.8438C22.0938 17.4785 19.9414 19.5938 17.3438 19.5938ZM18.8281 12.4688C18.3086 12.4688 17.9375 12.8398 17.9375 13.3594C17.9375 13.8418 18.3086 14.25 18.8281 14.25C19.3105 14.25 19.7188 13.8418 19.7188 13.3594C19.7188 12.877 19.3105 12.4688 18.8281 12.4688Z" fill="currentColor"/>
</svg>
