<svg width="24" height="24" viewBox="0 0 24 24" fill="currentColor" xmlns="http://www.w3.org/2000/svg">
<g clip-path="url(#clip0_434_259)">
<path d="M14.3558 10.0893H16.37V12.3501L18.0665 13.6751V9.01077C18.0665 8.67148 17.7915 8.39648 17.4522 8.39648H11.3093L14.3558 10.7786V10.0893Z" fill="currentColor"/>
<path d="M9.07003 5.76428C12.5879 4.14999 16.7379 5.69285 18.3522 9.20714C19.095 10.8286 19.17 12.5821 18.6879 14.1607L20.2307 15.3678C21.0807 13.2071 21.0843 10.7179 20.0415 8.43928C18.0093 4.00357 12.7307 2.04285 8.29503 4.07856C7.78074 4.31428 7.2986 4.59642 6.85217 4.91071L8.3986 6.11785C8.61289 5.98928 8.83789 5.87142 9.07003 5.76428Z" fill="currentColor"/>
<path d="M14.9093 18.4893C13.2843 19.2357 11.52 19.3071 9.93789 18.8214C9.72003 18.7536 9.48789 18.8714 9.40932 19.0857L9.06289 20.0214C8.97717 20.2536 9.10217 20.5071 9.33789 20.5786C11.3557 21.2143 13.6093 21.1321 15.6843 20.1786C16.2307 19.9286 16.7379 19.6286 17.2022 19.2893L15.6629 18.0857C15.4236 18.2357 15.17 18.3714 14.9093 18.4893Z" fill="currentColor"/>
<path d="M14.3343 17.05H7.24503C6.90575 17.05 6.63075 16.775 6.63075 16.4358V12.0715L3.37718 13.5643C3.16289 13.6643 2.90575 13.5679 2.80932 13.3536L0.680747 8.71076C0.520033 8.36433 0.86289 7.99647 1.22003 8.12861L3.69146 9.04647C3.7236 8.96433 3.75575 8.88219 3.78789 8.80004L6.63432 11.025L7.47718 11.6858L8.33075 12.3536V15.3572H12.17L14.3343 17.05Z" fill="currentColor"/>
<path d="M16.9703 17.05V17.0537L16.9629 17.05H16.9703Z" fill="currentColor"/>
<path d="M23.37 20.6143L23.0129 21.0607C22.9021 21.2 22.7343 21.275 22.5664 21.275C22.4414 21.275 22.3164 21.2321 22.2093 21.15L18.4414 18.2035L16.97 17.0535L16.9736 17.05H16.9664L14.7986 15.3535L11.5593 12.8214L10.3414 11.8714L8.32714 10.2964L6.63428 8.9714L6.01286 8.48569L4.54143 7.33569L0.852142 4.45354C0.605714 4.24997 0.566428 3.89283 0.762857 3.64997L1.12 3.20354C1.23429 3.06069 1.39857 2.98926 1.56643 2.98926C1.69143 2.98926 1.82 3.02854 1.92357 3.11426L5.60214 5.98926L7.07357 7.13926L8.67714 8.39283L14.3521 12.8285L16.3664 14.4035L18.0093 15.6893L18.0629 15.7285L19.4843 16.8393L23.2771 19.8035C23.5271 20.0071 23.5664 20.3643 23.37 20.6143Z" fill="currentColor"/>
</g>
<defs>
<clipPath id="clip0_434_259">
<rect width="23.7643" height="19" fill="currentColor" transform="translate(0.119995 2.5)"/>
</clipPath>
</defs>
</svg>
