<svg width="24" height="24" viewBox="0 0 24 24" fill="currentColor" xmlns="http://www.w3.org/2000/svg">
<path d="M22.9844 19.5938H21.2031V16.0312H22.9844C23.4668 16.0312 23.875 15.6602 23.875 15.1406C23.875 14.6582 23.4668 14.25 22.9844 14.25H1.01562C0.496094 14.25 0.125 14.6582 0.125 15.1406C0.125 15.6602 0.496094 16.0312 1.01562 16.0312H2.79688V19.5938H1.01562C0.496094 19.5938 0.125 20.002 0.125 20.4844C0.125 21.0039 0.496094 21.375 1.01562 21.375H22.9844C23.4668 21.375 23.875 21.0039 23.875 20.4844C23.875 20.002 23.4668 19.5938 22.9844 19.5938ZM11.1094 19.5938H4.57812V16.0312H11.1094V19.5938ZM19.4219 19.5938H12.8906V16.0312H19.4219V19.5938Z" fill="currentColor"/>
</svg>
