<svg width="24" height="24" viewBox="0 0 24 24" fill="currentColor" xmlns="http://www.w3.org/2000/svg">
<path d="M17.6035 5.08398C16.6387 4.11914 15.043 4.11914 14.0781 5.08398L6.95312 12.209C5.35742 13.8418 5.35742 16.4766 6.95312 18.0723C8.58594 19.7051 11.2207 19.7051 12.8535 18.0723L18.4941 12.4316C18.8281 12.0977 19.3848 12.0977 19.7188 12.4316C20.0898 12.8027 20.0898 13.3594 19.7188 13.6934L14.0781 19.334C11.7773 21.6719 8.0293 21.6719 5.72852 19.334C3.39062 17.0332 3.39062 13.2852 5.72852 10.9473L12.8535 3.85938C14.4863 2.18945 17.1953 2.18945 18.8281 3.85938C20.498 5.49219 20.498 8.20117 18.8281 9.83398L12.0371 16.6621C10.8496 17.8496 8.91992 17.7383 7.88086 16.4395C6.99023 15.3262 7.10156 13.7305 8.10352 12.7285L13.7441 7.08789C14.0781 6.75391 14.6348 6.75391 14.9688 7.08789C15.3398 7.45898 15.3398 8.01562 14.9688 8.34961L9.36523 13.9902C8.99414 14.3613 8.95703 14.918 9.29102 15.3262C9.66211 15.8086 10.3301 15.8457 10.7754 15.4004L17.6035 8.57227C18.5684 7.64453 18.5684 6.04883 17.6035 5.08398Z" fill="currentColor"/>
</svg>
