<svg width="24" height="24" viewBox="0 0 24 24" fill="currentColor" xmlns="http://www.w3.org/2000/svg">
<path d="M21.0918 2.56055C20.832 2.375 20.4609 2.33789 20.1641 2.52344L2.94531 12.3203C2.64844 12.4688 2.46289 12.8027 2.5 13.1367C2.5 13.4707 2.72266 13.7676 3.01953 13.916L8.73438 16.291V20.4844C8.73438 20.8184 8.88281 21.1152 9.17969 21.3008C9.32812 21.3379 9.47656 21.375 9.58789 21.375C9.73633 21.375 9.92188 21.3379 10.0703 21.2637L14.1895 18.5918L17.8262 20.1504C17.9375 20.1875 18.0488 20.2246 18.1973 20.2246C18.3457 20.2246 18.4941 20.1504 18.6055 20.0762C18.8652 19.9648 19.0137 19.7051 19.0508 19.4453L21.4258 3.41406C21.5371 3.08008 21.3887 2.74609 21.0918 2.56055ZM16.1934 6.82812L9.25391 14.584L5.39453 12.9512L16.1934 6.82812ZM10.4785 18.8516V17.0332L12.1855 17.7754L10.4785 18.8516ZM17.4922 18.0352L10.9609 15.2891L19.2734 6.04883L17.4922 18.0352Z" fill="currentColor"/>
</svg>
