<svg width="24" height="24" viewBox="0 0 24 24" fill="currentColor" xmlns="http://www.w3.org/2000/svg">
<path d="M12.8906 9.5V14.25H13.7812C13.8926 14.25 14.0039 14.2871 14.1152 14.2871L17.9004 9.38867C17.9004 9.24023 17.9375 9.0918 17.9375 8.90625C17.9375 6.56836 17.084 4.41602 15.7852 3.00586C19.1992 4.23047 20.7949 6.93945 21.3145 8.83203C21.4258 9.20312 21.1289 9.5 20.7949 9.5H20.0527L15.4512 15.4746C15.5254 15.6602 15.5625 15.8457 15.5625 16.0312V19.5938C15.5625 20.5957 14.7461 21.375 13.7812 21.375H10.1816C9.2168 21.375 8.40039 20.5957 8.40039 19.5938V16.0312C8.40039 15.8457 8.4375 15.6602 8.51172 15.4746L3.91016 9.5H3.16797C2.83398 9.5 2.53711 9.20312 2.64844 8.83203C3.16797 6.93945 4.76367 4.23047 8.17773 3.00586C6.87891 4.41602 6.0625 6.56836 6.0625 8.90625C6.0625 9.0918 6.0625 9.24023 6.0625 9.38867L9.84766 14.2871C9.95898 14.2871 10.0703 14.25 10.2188 14.25H11.1094V9.5H7.25C7.25 9.31445 7.25 9.12891 7.25 8.90625C7.25 7.01367 7.80664 5.38086 8.73438 4.19336C9.625 3.00586 10.7754 2.375 12 2.375C13.1875 2.375 14.3379 3.00586 15.2285 4.19336C16.1562 5.38086 16.75 7.01367 16.75 8.90625C16.75 9.12891 16.7129 9.31445 16.7129 9.5H12.8906ZM10.1816 16.0312V19.5938H13.7812V16.0312H10.1816Z" fill="currentColor"/>
</svg>
