<svg width="24" height="24" viewBox="0 0 24 24" fill="currentColor" xmlns="http://www.w3.org/2000/svg">
<path d="M4.65234 14.3984L15.9336 3.11719C16.8613 2.18945 18.3828 2.18945 19.3105 3.11719L20.7578 4.56445C20.8691 4.67578 20.9805 4.82422 21.0547 4.93555C21.6855 5.86328 21.5742 7.125 20.7578 7.94141L9.47656 19.2227C9.43945 19.2598 9.36523 19.2969 9.32812 19.3711C8.95703 19.668 8.54883 19.8906 8.10352 20.0391L3.61328 21.3379C3.31641 21.4492 2.98242 21.375 2.75977 21.1152C2.5 20.8926 2.42578 20.5586 2.5 20.2617L3.83594 15.7715C3.98438 15.252 4.28125 14.7695 4.65234 14.3984ZM5.54297 16.291L4.68945 19.1855L7.58398 18.332C7.80664 18.2578 8.0293 18.1465 8.21484 17.9609L16.7129 9.46289L14.375 7.16211L5.91406 15.6602C5.87695 15.6602 5.87695 15.6973 5.83984 15.7344C5.69141 15.8828 5.61719 16.0684 5.54297 16.291Z" fill="currentColor"/>
</svg>
