<svg width="24" height="24" viewBox="0 0 24 24" fill="currentColor" xmlns="http://www.w3.org/2000/svg">
<path d="M3.09375 5.34375C3.09375 4.37891 3.87305 3.5625 4.875 3.5625C5.83984 3.5625 6.65625 4.37891 6.65625 5.34375C6.65625 6.3457 5.83984 7.125 4.875 7.125C3.87305 7.125 3.09375 6.3457 3.09375 5.34375ZM5.46875 8.3125C6.32227 8.3125 7.17578 8.60938 7.84375 9.0918C7.39844 9.46289 7.02734 9.94531 6.73047 10.4648C6.35938 10.2422 5.91406 10.0938 5.46875 10.0938H4.28125V17.2188H5.46875V16.625C5.46875 16.1426 5.83984 15.7344 6.35938 15.7344C6.8418 15.7344 7.25 16.1426 7.25 16.625V17.8125C7.25 18.4805 6.69336 19 6.0625 19H3.6875C3.01953 19 2.5 18.4805 2.5 17.8125V16.2539C1.08984 15.5859 0.125 14.1387 0.125 12.4688C0.125 10.2051 1.98047 8.3125 4.28125 8.3125H5.46875ZM2.5 10.9102C2.12891 11.3184 1.90625 11.875 1.90625 12.4688C1.90625 13.0996 2.12891 13.6562 2.5 14.0645V10.9102ZM18.5312 10.0938C18.0488 10.0938 17.6035 10.2422 17.2324 10.4648C16.9355 9.94531 16.5645 9.46289 16.1191 9.0918C16.7871 8.60938 17.6406 8.3125 18.5312 8.3125H19.7188C21.9824 8.3125 23.875 10.2051 23.875 12.4688C23.875 14.1387 22.873 15.5859 21.5 16.2539V17.8125C21.5 18.4805 20.9434 19 20.3125 19H17.9375C17.2695 19 16.75 18.4805 16.75 17.8125V16.625C16.75 16.1426 17.1211 15.7344 17.6406 15.7344C18.123 15.7344 18.5312 16.1426 18.5312 16.625V17.2188H19.7188V10.0938H18.5312ZM21.5 10.9102V14.0645C21.834 13.6562 22.0938 13.0996 22.0938 12.4688C22.0938 11.875 21.834 11.3184 21.5 10.9102ZM20.9062 5.34375C20.9062 6.3457 20.0898 7.125 19.125 7.125C18.123 7.125 17.3438 6.3457 17.3438 5.34375C17.3438 4.37891 18.123 3.5625 19.125 3.5625C20.0898 3.5625 20.9062 4.37891 20.9062 5.34375ZM9.92188 5.64062C9.92188 4.52734 10.8496 3.5625 12 3.5625C13.1133 3.5625 14.0781 4.52734 14.0781 5.64062C14.0781 6.79102 13.1133 7.71875 12 7.71875C10.8496 7.71875 9.92188 6.79102 9.92188 5.64062ZM12.5938 8.90625C14.8574 8.90625 16.75 10.7988 16.75 13.0625C16.75 14.7324 15.748 16.1797 14.375 16.8477V19C14.375 19.668 13.8184 20.1875 13.1875 20.1875H10.8125C10.1445 20.1875 9.625 19.668 9.625 19V16.8477C8.21484 16.1797 7.25 14.7324 7.25 13.0625C7.25 10.7988 9.10547 8.90625 11.4062 8.90625H12.5938ZM11.4062 18.4062H12.5938V10.6875H11.4062V18.4062ZM9.625 14.6582V11.5039C9.25391 11.9121 9.03125 12.4688 9.03125 13.0625C9.03125 13.6934 9.25391 14.25 9.625 14.6582ZM14.9688 13.0625C14.9688 12.4688 14.709 11.9121 14.375 11.5039V14.6582C14.709 14.25 14.9688 13.6934 14.9688 13.0625Z" fill="currentColor"/>
</svg>
