<svg width="24" height="24" viewBox="0 0 24 24" fill="currentColor" xmlns="http://www.w3.org/2000/svg">
<path d="M5.46875 15.1406V20.4844C5.46875 21.0039 5.83984 21.375 6.35938 21.375C6.8418 21.375 7.25 21.0039 7.25 20.4844V16.9219L5.46875 15.1406ZM3.09375 10.6875C3.09375 10.3906 3.35352 10.0938 3.6875 10.0938H6.0625C6.35938 10.0938 6.65625 10.3906 6.65625 10.6875V11.0215L7.84375 9.83398C7.91797 9.72266 8.0293 9.64844 8.14062 9.57422C7.73242 8.83203 6.95312 8.3125 6.0625 8.3125H3.6875C2.35156 8.3125 1.3125 9.38867 1.3125 10.6875V14.25C1.3125 14.918 1.83203 15.4375 2.46289 15.4375L2.5 20.4844C2.5 21.0039 2.87109 21.375 3.39062 21.375C3.87305 21.375 4.28125 21.0039 4.28125 20.4844V13.6562H3.09375V10.6875ZM4.875 7.125C6.17383 7.125 7.25 6.08594 7.25 4.75C7.25 3.45117 6.17383 2.375 4.875 2.375C3.53906 2.375 2.5 3.45117 2.5 4.75C2.5 6.08594 3.53906 7.125 4.875 7.125ZM19.125 7.125C20.4238 7.125 21.5 6.08594 21.5 4.75C21.5 3.45117 20.4238 2.375 19.125 2.375C17.7891 2.375 16.75 3.45117 16.75 4.75C16.75 6.08594 17.7891 7.125 19.125 7.125ZM16.75 16.9219V20.4844C16.75 21.0039 17.1211 21.375 17.6406 21.375C18.123 21.375 18.5312 21.0039 18.5312 20.4844V15.1406C18.4941 15.1406 18.4941 15.1406 18.4941 15.1406L16.75 16.9219ZM20.3125 8.3125H17.9375C17.0098 8.3125 16.2305 8.83203 15.8223 9.57422C15.9336 9.64844 16.0449 9.72266 16.1191 9.83398L17.3438 11.0215V10.6875C17.3438 10.3906 17.6035 10.0938 17.9375 10.0938H20.3125C20.6094 10.0938 20.9062 10.3906 20.9062 10.6875V13.6562H19.7188V20.4844C19.7188 21.0039 20.0898 21.375 20.6094 21.375C21.0918 21.375 21.5 21.0039 21.5 20.4844V15.4375C22.1309 15.4375 22.6875 14.918 22.6875 14.25V10.6875C22.6875 9.38867 21.6113 8.3125 20.3125 8.3125ZM17.6406 13.0254L15.2656 10.6504C14.8945 10.3164 14.3379 10.3164 14.0039 10.6504C13.6328 11.0215 13.6328 11.5781 14.0039 11.9121L14.8945 12.7656H9.06836L9.92188 11.9121C10.293 11.5781 10.293 11.0215 9.92188 10.6875C9.58789 10.3164 9.03125 10.3164 8.66016 10.6875L6.28516 13.0625C5.95117 13.3965 5.95117 13.9531 6.28516 14.2871L8.66016 16.6621C8.8457 16.8477 9.06836 16.9219 9.32812 16.9219C9.55078 16.9219 9.77344 16.8477 9.92188 16.6621C10.293 16.3281 10.293 15.7715 9.92188 15.4375L9.06836 14.5469H14.8945L14.0039 15.4375C13.6699 15.7715 13.6699 16.3281 14.0039 16.6621C14.1895 16.8477 14.4121 16.9219 14.6719 16.9219C14.8945 16.9219 15.1172 16.8477 15.2656 16.6621L17.6406 14.2871C18.0117 13.9531 18.0117 13.3965 17.6406 13.0254Z" fill="currentColor"/>
</svg>
