<svg width="24" height="24" viewBox="0 0 24 24" fill="currentColor" xmlns="http://www.w3.org/2000/svg">
<path d="M10.2188 4.15625C10.2188 3.19141 10.998 2.375 12 2.375C12.9648 2.375 13.7812 3.19141 13.7812 4.15625C13.7812 5.1582 12.9648 5.9375 12 5.9375C10.998 5.9375 10.2188 5.1582 10.2188 4.15625ZM10.5156 21.375C9.99609 21.375 9.625 21.0039 9.625 20.4844V10.6875L7.99219 13.5078C7.76953 13.9531 7.21289 14.1016 6.80469 13.8418C6.35938 13.6191 6.21094 13.0625 6.4707 12.6543L8.62305 8.79492C9.2168 7.79297 10.293 7.125 11.4805 7.125H12.4824C13.6699 7.125 14.7461 7.79297 15.3398 8.79492L17.4922 12.6543C17.752 13.0625 17.6035 13.6191 17.1582 13.8418C16.75 14.1016 16.1934 13.9531 15.9707 13.5078L14.375 10.6875V20.4844C14.375 21.0039 13.9668 21.375 13.4844 21.375C12.9648 21.375 12.5938 21.0039 12.5938 20.4844V15.4375H11.3691V20.4844C11.3691 21.0039 10.998 21.375 10.4785 21.375H10.5156ZM11.4805 8.90625C11.4434 8.90625 11.4062 8.90625 11.4062 8.94336V13.6562H12.5938V8.94336C12.5566 8.90625 12.5195 8.90625 12.4824 8.90625H11.4805ZM2.75977 2.67188C3.09375 2.30078 3.65039 2.30078 3.98438 2.67188L6.95312 5.64062C7.32422 5.97461 7.32422 6.53125 6.95312 6.86523C6.61914 7.23633 6.0625 7.23633 5.72852 6.86523L2.75977 3.89648C2.38867 3.5625 2.38867 3.00586 2.75977 2.67188ZM21.2031 3.89648L18.2344 6.86523C17.9004 7.23633 17.3438 7.23633 17.0098 6.86523C16.6387 6.53125 16.6387 5.97461 17.0098 5.64062L19.9785 2.67188C20.3125 2.30078 20.8691 2.30078 21.2031 2.67188C21.5742 3.00586 21.5742 3.5625 21.2031 3.89648ZM3.98438 21.1152C3.65039 21.4863 3.09375 21.4863 2.75977 21.1152C2.38867 20.7812 2.38867 20.2246 2.75977 19.8535L5.72852 16.8848C6.0625 16.5508 6.61914 16.5508 6.95312 16.8848C7.32422 17.2559 7.32422 17.8125 6.95312 18.1465L3.98438 21.1152ZM21.2031 21.1152C20.8691 21.4863 20.3125 21.4863 19.9785 21.1152L17.0098 18.1465C16.6387 17.8125 16.6387 17.2559 17.0098 16.8848C17.3438 16.5508 17.9004 16.5508 18.2344 16.8848L21.2031 19.8535C21.5742 20.2246 21.5742 20.7812 21.2031 21.1152Z" fill="currentColor"/>
</svg>
