<svg width="24" height="24" viewBox="0 0 24 24" fill="currentColor" xmlns="http://www.w3.org/2000/svg">
<path d="M5.46875 5.97461C6.43359 5.97461 7.25 5.1582 7.25 4.15625C7.25 3.19141 6.43359 2.375 5.46875 2.375C4.4668 2.375 3.6875 3.19141 3.6875 4.19336C3.6875 5.1582 4.4668 5.97461 5.46875 5.97461ZM2.5 20.4844C2.5 21.0039 2.87109 21.375 3.39062 21.375C3.87305 21.375 4.24414 21.0039 4.24414 20.4844V16.959C3.79883 16.5879 2.5 15.5488 2.5 15.5117V20.4844ZM21.4629 16.6992C21.3145 16.2168 20.832 15.957 20.3496 16.0684L15.043 17.5527C14.6719 17.0703 14.1152 16.7363 13.4473 16.6621L11.3691 8.98047C11.2207 8.49805 10.7383 8.23828 10.2559 8.34961C9.77344 8.49805 9.51367 8.98047 9.625 9.46289L10.1445 11.2812H8.36328L7.21289 8.42383C6.87891 7.64453 6.13672 7.125 5.2832 7.125H4.57812C3.42773 7.125 2.5 8.05273 2.5 9.20312V13.0254C2.5 13.2852 2.61133 14.1016 3.2793 14.6582L6.09961 16.8848C6.32227 17.0703 6.4707 17.293 6.50781 17.5527L7.25 20.707C7.36133 21.1152 7.76953 21.4863 8.32617 21.375C8.80859 21.2637 9.10547 20.7812 8.99414 20.2988L8.17773 16.8477C8.10352 16.4023 7.84375 15.9941 7.47266 15.6973L6.02539 14.584V10.3535L6.87891 12.3574C7.06445 12.8027 7.47266 13.0625 7.95508 13.0625H10.627L11.7402 17.1445C11.1836 17.5527 10.7754 18.2578 10.7754 19C10.7754 20.3359 11.8145 21.375 13.1133 21.375C14.3379 21.375 15.3027 20.4844 15.4512 19.2969L20.7578 17.8125C21.3145 17.6641 21.5742 17.1816 21.4629 16.6992ZM13.1504 19.5938C12.8164 19.5938 12.5938 19.334 12.5938 19C12.5938 18.7031 12.8535 18.4062 13.1504 18.4062C13.4473 18.4062 13.7441 18.7031 13.7441 19C13.7441 19.334 13.4844 19.5938 13.1504 19.5938ZM14.7832 15.7715C14.8574 16.1055 15.1914 16.291 15.4883 16.1797L19.8301 15.0293C20.1641 14.9551 20.3496 14.6211 20.2754 14.2871L19.0879 9.98242C19.0137 9.64844 18.6797 9.46289 18.3828 9.53711L14.041 10.7246C13.707 10.7988 13.5215 11.1328 13.5957 11.4297L14.7832 15.7715Z" fill="currentColor"/>
</svg>
