<svg width="24" height="24" viewBox="0 0 24 24" fill="currentColor" xmlns="http://www.w3.org/2000/svg">
<path d="M20.3125 14.2871L16.6758 12.7285C15.8594 12.3574 14.9316 12.6172 14.375 13.2852L13.373 14.5098C11.7031 13.5449 10.3301 12.1719 9.36523 10.5391L10.627 9.53711C11.2578 8.98047 11.5176 8.05273 11.1836 7.27344L9.58789 3.5625C9.2168 2.70898 8.28906 2.22656 7.36133 2.44922L3.98438 3.22852C3.09375 3.41406 2.5 4.19336 2.5 5.12109C2.5 14.1016 9.77344 21.375 18.7539 21.375C19.6816 21.375 20.4609 20.7812 20.6094 19.8906L21.3887 16.5137C21.6484 15.5859 21.166 14.6582 20.3125 14.2871ZM19.6816 16.1055L18.9023 19.4824C18.9023 19.5195 18.8281 19.5938 18.7539 19.5938C10.7754 19.5938 4.24414 13.0996 4.24414 5.12109C4.24414 5.04688 4.31836 4.97266 4.39258 4.97266L7.76953 4.19336L7.80664 4.15625C7.88086 4.15625 7.91797 4.23047 7.95508 4.26758L9.51367 7.9043C9.55078 7.97852 9.55078 8.05273 9.47656 8.08984L7.6582 9.57422C7.36133 9.83398 7.25 10.2793 7.43555 10.6504C8.66016 13.1367 10.7012 15.1777 13.1875 16.4023C13.5586 16.5879 14.041 16.5137 14.3008 16.1797L15.7852 14.3613C15.8223 14.3242 15.8965 14.2871 15.9707 14.3242L19.6074 15.8828C19.6816 15.957 19.7188 16.0312 19.6816 16.1055Z" fill="currentColor"/>
</svg>
