<svg width="24" height="24" viewBox="0 0 24 24" fill="currentColor" xmlns="http://www.w3.org/2000/svg">
<path d="M22.6875 11.875C22.6875 13.6934 19.9414 14.8438 18.5312 14.8438H15.4883L11.7773 20.7812C11.5547 21.1523 11.1836 21.375 10.7383 21.375H8.32617C7.95508 21.375 7.58398 21.2266 7.36133 20.9297C7.13867 20.6328 7.06445 20.2246 7.17578 19.8535L8.77148 14.8438H6.95312L5.50586 16.7734C5.2832 17.0703 4.94922 17.2188 4.57812 17.2188H2.46289C2.12891 17.2188 1.75781 17.0703 1.53516 16.7734C1.3125 16.4766 1.23828 16.1055 1.34961 15.7344L2.46289 11.875L1.3125 8.01562C1.23828 7.68164 1.3125 7.31055 1.53516 7.01367C1.75781 6.7168 2.12891 6.53125 2.46289 6.53125H4.57812C4.94922 6.53125 5.2832 6.7168 5.50586 7.01367L6.95312 8.90625H8.77148L7.17578 3.89648C7.06445 3.5625 7.13867 3.1543 7.36133 2.85742C7.58398 2.56055 7.95508 2.375 8.32617 2.375H10.7383C11.1465 2.375 11.5918 2.63477 11.7402 2.96875L15.4512 8.90625H18.4941C19.9414 8.90625 22.6875 10.0938 22.6875 11.875ZM20.8691 11.875C20.7949 11.5039 19.459 10.6875 18.4941 10.6875H14.4863L10.4043 4.15625H9.14258L11.1836 10.6875H6.0625L4.28125 8.3125H3.2793L4.31836 11.875L3.2793 15.4375H4.28125L6.0625 13.0625H11.1836L9.14258 19.5938H10.4043L14.4863 13.0625H18.4941C19.4961 13.0625 20.832 12.2832 20.8691 11.875Z" fill="currentColor"/>
</svg>
