<svg width="24" height="24" viewBox="0 0 24 24" fill="currentColor" xmlns="http://www.w3.org/2000/svg">
<g clip-path="url(#clip0_119_11)">
<path d="M8.88281 8.3125L7.47266 3.89648C7.36133 3.5625 7.43555 3.1543 7.6582 2.85742C7.88086 2.56055 8.25195 2.375 8.62305 2.375H11.0352C11.4434 2.375 11.8887 2.63477 12.0371 2.96875L15.748 8.90625H18.4941C19.9414 8.90625 22.6875 10.0938 22.6875 11.875C22.6875 13.6934 19.9414 14.8438 18.5312 14.8438H17.1953L23.5039 19.8164C23.9121 20.1133 23.9863 20.6699 23.6523 21.041C23.3555 21.4492 22.7988 21.5234 22.4277 21.1895L0.458984 3.9707C0.0507812 3.67383 -0.0234375 3.11719 0.310547 2.74609C0.607422 2.33789 1.16406 2.26367 1.53516 2.59766L8.88281 8.3125ZM11.332 10.2422L14.9316 13.0625H18.4941C19.4961 13.0625 20.832 12.2832 20.8691 11.875C20.7949 11.5039 19.459 10.6875 18.4941 10.6875H14.7832L10.7012 4.15625H9.43945L11.332 10.2422ZM1.3125 8.01562C1.23828 7.71875 1.3125 7.34766 1.53516 7.05078L3.31641 8.49805L4.31836 11.875L3.2793 15.4375H4.28125L6.0625 13.0625H9.14258L10.9238 14.4727L8.8457 19.5938H10.7012L12.9277 16.0684L14.3379 17.1816L12.0742 20.7812C11.8516 21.1523 11.4805 21.375 11.0352 21.375H8.62305C8.25195 21.375 7.88086 21.2266 7.6582 20.9297C7.43555 20.6328 7.36133 20.2246 7.47266 19.8535L9.06836 14.8438H6.95312L5.50586 16.7734C5.2832 17.0703 4.94922 17.2188 4.57812 17.2188H2.46289C2.12891 17.2188 1.75781 17.0703 1.53516 16.7734C1.3125 16.4766 1.23828 16.1055 1.34961 15.7344L2.46289 11.875L1.3125 8.01562Z" fill="currentColor"/>
</g>
<defs>
<clipPath id="clip0_119_11">
<rect width="24" height="24" fill="currentColor"/>
</clipPath>
</defs>
</svg>
