<svg width="24" height="24" viewBox="0 0 24 24" fill="currentColor" xmlns="http://www.w3.org/2000/svg">
<path d="M9.47656 7.86719C9.73633 7.68164 10.1074 7.68164 10.3672 7.86719L15.7109 11.1328C15.9707 11.2812 16.1562 11.5781 16.1562 11.875C16.1562 12.209 15.9707 12.5059 15.7109 12.6543L10.3672 15.9199C10.1074 16.0684 9.73633 16.1055 9.47656 15.9199C9.17969 15.7715 9.03125 15.4746 9.03125 15.1406V8.60938C9.03125 8.3125 9.17969 8.01562 9.47656 7.86719ZM21.5 11.875C21.5 17.1445 17.2324 21.375 12 21.375C6.73047 21.375 2.5 17.1445 2.5 11.875C2.5 6.64258 6.73047 2.375 12 2.375C17.2324 2.375 21.5 6.64258 21.5 11.875ZM12 4.15625C7.73242 4.15625 4.28125 7.64453 4.28125 11.875C4.28125 16.1426 7.73242 19.5938 12 19.5938C16.2305 19.5938 19.7188 16.1426 19.7188 11.875C19.7188 7.64453 16.2305 4.15625 12 4.15625Z" fill="currentColor"/>
</svg>
