<svg width="24" height="24" viewBox="0 0 24 24" fill="currentColor" xmlns="http://www.w3.org/2000/svg">
<path d="M19.7188 11.875C19.7188 12.3945 19.3105 12.7656 18.8281 12.7656H12.8906V18.7031C12.8906 19.2227 12.4824 19.6309 12 19.6309C11.4805 19.6309 11.1094 19.2227 11.1094 18.7031V12.7656H5.17188C4.65234 12.7656 4.28125 12.3945 4.28125 11.9121C4.28125 11.3926 4.65234 10.9844 5.17188 10.9844H11.1094V5.04688C11.1094 4.56445 11.4805 4.19336 12 4.19336C12.4824 4.19336 12.8906 4.56445 12.8906 5.04688V10.9844H18.8281C19.3105 10.9844 19.7188 11.3926 19.7188 11.875Z" fill="currentColor"/>
</svg>
