<svg width="24" height="24" viewBox="0 0 24 24" fill="currentColor" xmlns="http://www.w3.org/2000/svg">
<path d="M6.61914 4.15625H16.0449L17.3438 5.41797V8.3125H19.125V5.41797C19.125 4.97266 18.9023 4.49023 18.5684 4.15625L17.3438 2.93164C17.0098 2.59766 16.5273 2.375 16.082 2.375H6.61914C5.6543 2.375 4.875 3.19141 4.875 4.15625V7.23633V8.3125H6.65625L6.61914 4.15625ZM18.8281 9.5H5.17188C3.6875 9.5 2.5 10.7246 2.5 12.1719V16.3281C2.5 16.8477 2.87109 17.2188 3.39062 17.2188H5.46875V20.1875C5.46875 20.8555 5.98828 21.375 6.65625 21.375H17.3438C17.9746 21.375 18.5312 20.8555 18.5312 20.1875V17.2188H20.6094C21.0918 17.2188 21.5 16.8477 21.5 16.3281V12.1719C21.5 10.7246 20.2754 9.5 18.8281 9.5ZM16.75 19.5938H7.25V16.0312H16.75V19.5938ZM19.7188 15.4375H18.5312C18.5312 14.8066 17.9746 14.25 17.3438 14.25H6.65625C5.98828 14.25 5.46875 14.8066 5.46875 15.4375H4.28125V12.1719C4.28125 11.6895 4.65234 11.2812 5.17188 11.2812H18.8281C19.3105 11.2812 19.7188 11.6895 19.7188 12.1719V15.4375Z" fill="currentColor"/>
</svg>
