<svg width="24" height="24" viewBox="0 0 24 24" fill="currentColor" xmlns="http://www.w3.org/2000/svg">
<path d="M18.2715 9.12891C18.123 9.12891 18.0117 9.16602 17.9375 9.16602V8.68359C17.9375 7.08789 16.3047 5.9375 14.8574 5.9375H14.6719C14.6719 5.86328 14.709 5.75195 14.709 5.60352C14.709 3.82227 13.0762 2.375 10.998 2.375C8.91992 2.375 7.28711 3.82227 7.28711 5.60352C7.28711 5.75195 7.28711 5.86328 7.28711 5.9375H5.20898C3.72461 5.9375 2.5 7.19922 2.5 8.68359V11.1699C2.5 11.8008 2.72266 12.3945 3.13086 12.8398C2.72266 13.3223 2.5 13.916 2.5 14.5469V18.6289C2.5 20.1504 3.72461 21.375 5.20898 21.375H9.29102C9.92188 21.375 10.5527 21.1523 10.998 20.7441C11.4805 21.1523 12.0742 21.375 12.7051 21.375H14.8945C16.3047 21.375 17.9375 20.2617 17.9375 18.6289V16.5508C18.0117 16.5508 18.123 16.5508 18.2715 16.5508C20.0527 16.5508 21.5 14.9551 21.5 12.8398C21.5 10.7617 20.0527 9.12891 18.2715 9.12891ZM18.2715 14.7695C17.2695 14.7695 17.3066 13.8047 16.5645 13.8047C16.1562 13.8047 16.1562 14.1387 16.1562 14.5469V18.6289C16.1562 19.1855 15.4141 19.5938 14.8945 19.5938H12.7051C12.2969 19.5938 12 19.2969 12 18.8887C12 18.1465 12.9277 18.1836 12.9277 17.1816C12.9277 16.4023 12.0371 15.7344 10.998 15.7344C9.92188 15.7344 9.06836 16.4023 9.06836 17.1816C9.06836 18.1836 10.0332 18.1465 10.0332 18.8887C10.0703 19.2969 9.73633 19.5938 9.32812 19.5938H5.20898C4.68945 19.5938 4.28125 19.1855 4.28125 18.6289V14.5469C4.28125 14.1387 4.57812 13.8047 4.98633 13.8047C5.72852 13.8047 5.69141 14.7695 6.69336 14.7695C7.47266 14.7695 8.14062 13.916 8.14062 12.8398C8.14062 11.8008 7.47266 10.9102 6.69336 10.9102C5.69141 10.9102 5.72852 11.875 4.98633 11.875C4.57812 11.875 4.28125 11.5781 4.28125 11.1699V8.68359C4.28125 8.16406 4.68945 7.71875 5.20898 7.71875H9.29102C9.73633 7.71875 10.0703 7.71875 10.0703 7.31055C10.0703 6.56836 9.10547 6.60547 9.10547 5.60352C9.10547 4.82422 9.95898 4.15625 11.0352 4.15625C12.0742 4.15625 12.9648 4.82422 12.9648 5.60352C12.9277 6.60547 12 6.56836 12 7.31055C12 7.71875 12.2969 7.71875 12.7051 7.71875H14.8945C15.4141 7.71875 16.1562 8.16406 16.1562 8.68359V11.1699C16.1562 11.5781 16.1562 11.875 16.5645 11.875C17.3066 11.875 17.2695 10.9102 18.2715 10.9102C19.0508 10.9102 19.7188 11.8008 19.7188 12.8398C19.7188 13.916 19.0508 14.7695 18.2715 14.7695Z" fill="currentColor"/>
</svg>
