<svg width="24" height="24" viewBox="0 0 24 24" fill="currentColor" xmlns="http://www.w3.org/2000/svg">
<g clip-path="url(#clip0_2503_855)">
<path d="M7.54688 6.23438C7.84375 6.23438 8.14062 6.53125 8.14062 6.82812V7.42188C8.14062 7.75586 7.84375 8.01562 7.54688 8.01562H6.95312C6.61914 8.01562 6.35938 7.75586 6.35938 7.42188V6.82812C6.35938 6.53125 6.61914 6.23438 6.95312 6.23438H7.54688ZM3.6875 5.34375C3.6875 4.37891 4.4668 3.5625 5.46875 3.5625H9.03125C9.99609 3.5625 10.8125 4.37891 10.8125 5.34375V8.90625C10.8125 9.9082 9.99609 10.6875 9.03125 10.6875H5.46875C4.4668 10.6875 3.6875 9.9082 3.6875 8.90625V5.34375ZM5.46875 8.90625H9.03125V5.34375H5.46875V8.90625ZM6.35938 16.3281C6.35938 16.0312 6.61914 15.7344 6.95312 15.7344H7.54688C7.84375 15.7344 8.14062 16.0312 8.14062 16.3281V16.9219C8.14062 17.2559 7.84375 17.5156 7.54688 17.5156H6.95312C6.61914 17.5156 6.35938 17.2559 6.35938 16.9219V16.3281ZM3.6875 14.8438C3.6875 13.8789 4.4668 13.0625 5.46875 13.0625H9.03125C9.99609 13.0625 10.8125 13.8789 10.8125 14.8438V18.4062C10.8125 19.4082 9.99609 20.1875 9.03125 20.1875H5.46875C4.4668 20.1875 3.6875 19.4082 3.6875 18.4062V14.8438ZM5.46875 18.4062H9.03125V14.8438H5.46875V18.4062ZM17.0469 6.23438C17.3438 6.23438 17.6406 6.53125 17.6406 6.82812V7.42188C17.6406 7.75586 17.3438 8.01562 17.0469 8.01562H16.4531C16.1191 8.01562 15.8594 7.75586 15.8594 7.42188V6.82812C15.8594 6.53125 16.1191 6.23438 16.4531 6.23438H17.0469ZM18.5312 3.5625C19.4961 3.5625 20.3125 4.37891 20.3125 5.34375V8.90625C20.3125 9.9082 19.4961 10.6875 18.5312 10.6875H14.9688C13.9668 10.6875 13.1875 9.9082 13.1875 8.90625V5.34375C13.1875 4.37891 13.9668 3.5625 14.9688 3.5625H18.5312ZM18.5312 5.34375H14.9688V8.90625H18.5312V5.34375ZM17.9375 20.1875H16.75V19H17.9375V20.1875ZM19.125 19H20.3125V20.1875H19.125V19ZM20.3125 17.8125H16.75V16.625H15.5625V20.1875H13.1875V13.0625H16.75V14.25H19.125V13.0625H20.3125V17.8125Z" fill="currentColor"/>
</g>
<defs>
<clipPath id="clip0_2503_855">
<rect width="24" height="24" fill="currentColor"/>
</clipPath>
</defs>
</svg>
