<svg width="24" height="24" viewBox="0 0 24 24" fill="currentColor" xmlns="http://www.w3.org/2000/svg">
<path d="M12 2.375C6.73047 2.375 2.5 6.64258 2.5 11.875C2.5 17.1445 6.73047 21.375 12 21.375C17.2324 21.375 21.5 17.1445 21.5 11.875C21.5 6.64258 17.2324 2.375 12 2.375ZM12 19.5938C7.73242 19.5938 4.28125 16.1426 4.28125 11.875C4.28125 7.64453 7.73242 4.15625 12 4.15625C16.2305 4.15625 19.7188 7.64453 19.7188 11.875C19.7188 16.1426 16.2305 19.5938 12 19.5938ZM12 14.8438C11.332 14.8438 10.8125 15.3633 10.8125 16.0312C10.8125 16.6992 11.2949 17.2188 12 17.2188C12.6309 17.2188 13.1875 16.6992 13.1875 16.0312C13.1875 15.3633 12.6309 14.8438 12 14.8438ZM13.2246 7.125H11.332C9.88477 7.125 8.73438 8.27539 8.73438 9.72266C8.73438 10.2051 9.14258 10.6133 9.625 10.6133C10.1074 10.6133 10.5156 10.2051 10.5156 9.72266C10.5156 9.27734 10.8496 8.90625 11.2949 8.90625H13.1875C13.6699 8.90625 14.0781 9.27734 14.0781 9.72266C14.0781 10.0195 13.9297 10.2793 13.6699 10.4277L11.5547 11.6895C11.2578 11.875 11.1094 12.1719 11.1094 12.4688V13.0625C11.1094 13.5449 11.5176 13.9531 12 13.9531C12.4824 13.9531 12.8906 13.5449 12.8906 13.0625V12.9883L14.5605 11.9492C15.3398 11.4668 15.8223 10.6133 15.8223 9.72266C15.8594 8.27539 14.709 7.125 13.2246 7.125Z" fill="currentColor"/>
</svg>
