<svg width="24" height="24" viewBox="0 0 24 24" fill="currentColor" xmlns="http://www.w3.org/2000/svg">
<path d="M18.2344 13.0254C17.8633 12.6914 17.3066 12.6914 16.9727 13.0625C16.6016 13.3965 16.6016 13.9531 16.9727 14.2871L18.457 15.7344H14.8203L12.6309 12.877L11.5547 14.3613L13.6699 17.1816C13.8184 17.4043 14.0781 17.5156 14.375 17.5156H18.457L17.0098 19C16.6387 19.334 16.6387 19.8906 17.0098 20.2246C17.1582 20.4102 17.3809 20.4844 17.6406 20.4844C17.8633 20.4844 18.0859 20.4102 18.2344 20.2246L21.2031 17.2559C21.5371 16.9219 21.5371 16.3652 21.2031 15.9941L18.2344 13.0254ZM3.39062 8.01562H6.80469L8.95703 10.9102L10.0332 9.42578L7.95508 6.60547C7.76953 6.38281 7.50977 6.23438 7.25 6.23438H3.39062C2.87109 6.23438 2.5 6.64258 2.5 7.125C2.5 7.64453 2.87109 8.01562 3.39062 8.01562ZM18.457 8.01562L17.0098 9.5C16.6387 9.83398 16.6387 10.3906 17.0098 10.7246C17.1582 10.9102 17.3809 10.9844 17.6406 10.9844C17.8633 10.9844 18.0859 10.9102 18.2344 10.7246L21.2031 7.79297C21.5371 7.42188 21.5371 6.86523 21.2031 6.53125L18.2344 3.5625C17.9004 3.19141 17.3438 3.19141 17.0098 3.5625C16.6387 3.89648 16.6387 4.45312 17.0098 4.78711L18.457 6.23438H14.375C14.0781 6.23438 13.8184 6.38281 13.6328 6.60547L6.80469 15.7344H3.39062C2.87109 15.7344 2.5 16.1426 2.5 16.625C2.5 17.1445 2.87109 17.5156 3.39062 17.5156H7.25C7.50977 17.5156 7.76953 17.4043 7.95508 17.1816L14.8203 8.01562H18.457Z" fill="currentColor"/>
</svg>
