<svg width="24" height="24" viewBox="0 0 24 24" fill="currentColor" xmlns="http://www.w3.org/2000/svg">
<path d="M8.73438 8.12695C8.66016 7.86719 8.51172 7.64453 8.28906 7.5332C8.06641 7.42188 7.80664 7.42188 7.54688 7.49609L4.20703 8.75781C3.76172 8.90625 3.50195 9.42578 3.6875 9.9082C3.87305 10.3535 4.35547 10.5762 4.83789 10.4277L5.87695 10.0195L3.50195 14.0273C2.98242 14.8809 2.94531 15.957 3.39062 16.8848L3.46484 17.0703C3.98438 18.0723 5.02344 18.7031 6.13672 18.7031H7.54688C8.0293 18.7031 8.4375 18.332 8.4375 17.8496C8.4375 17.3301 8.0293 16.9219 7.54688 16.9219H6.13672C5.69141 16.9219 5.2832 16.6992 5.06055 16.291L4.98633 16.0684C4.80078 15.7344 4.80078 15.2891 5.02344 14.918L7.54688 10.7246L7.84375 12.0234C7.95508 12.4316 8.32617 12.6914 8.69727 12.6914C8.77148 12.6914 8.8457 12.6914 8.91992 12.6543C9.40234 12.543 9.69922 12.0605 9.58789 11.5781L8.73438 8.12695ZM9.10547 6.41992C9.51367 6.67969 10.0703 6.53125 10.3301 6.12305L10.9609 5.04688C11.3691 4.3418 12.5938 4.3418 13.002 5.04688L15.1543 8.64648L13.8555 8.23828C13.373 8.12695 12.8906 8.38672 12.7422 8.86914C12.5938 9.31445 12.8906 9.83398 13.3359 9.94531L16.7871 10.9844C16.8613 10.9844 16.9355 10.9844 17.0469 10.9844C17.1953 10.9844 17.3438 10.9473 17.4922 10.873C17.7148 10.7246 17.8633 10.502 17.9004 10.2422L18.4941 6.7168C18.5684 6.23438 18.2715 5.78906 17.7891 5.71484C17.2695 5.60352 16.8242 5.9375 16.75 6.41992L16.5645 7.49609L14.5605 4.15625C14.0039 3.22852 13.0391 2.67188 12 2.67188C10.9238 2.67188 9.95898 3.22852 9.40234 4.15625L8.77148 5.19531C8.54883 5.64062 8.66016 6.16016 9.10547 6.41992ZM20.4609 14.0273L19.6445 12.6172C19.3848 12.209 18.8281 12.0605 18.4199 12.3203C17.9746 12.5801 17.8633 13.0996 18.0859 13.5449L18.9395 14.918C19.1621 15.2891 19.1621 15.7344 18.9766 16.1055L18.9023 16.291C18.6797 16.6992 18.2715 16.9219 17.8262 16.9219H13.1504L14.0781 16.1055C14.4121 15.8086 14.4492 15.2148 14.1523 14.8809C13.8184 14.5098 13.2246 14.4727 12.8906 14.8066L10.2188 17.1816C9.99609 17.3301 9.92188 17.5898 9.92188 17.8125C9.92188 18.0723 9.99609 18.332 10.2188 18.4805L12.8906 20.8555C13.0391 21.0039 13.2617 21.0781 13.4844 21.0781C13.707 21.0781 13.9668 21.0039 14.1152 20.7812C14.4492 20.4473 14.4121 19.8535 14.041 19.5566L13.1504 18.7031H17.8262C18.9395 18.7031 19.9785 18.0723 20.498 17.0703L20.5723 16.8848C21.0176 15.957 20.9805 14.8809 20.4609 14.0273Z" fill="currentColor"/>
</svg>
