<svg width="24" height="24" viewBox="0 0 24 24" fill="currentColor" xmlns="http://www.w3.org/2000/svg">
<path d="M20.9062 3.85938V9.79688C20.9062 10.3164 20.498 10.6875 20.0156 10.6875H14.0781C13.5586 10.6875 13.1875 10.3164 13.1875 9.79688C13.1875 9.31445 13.5586 8.90625 14.0781 8.90625H17.7891C16.6758 6.79102 14.4492 5.34375 12 5.34375C8.36328 5.34375 5.46875 8.27539 5.46875 11.875C5.46875 15.5117 8.36328 18.4062 12 18.4062C13.5215 18.4062 15.0059 17.8867 16.1562 16.9219C16.5273 16.5879 17.084 16.6621 17.418 17.0332C17.7148 17.4043 17.6777 17.9609 17.3066 18.2949C15.8223 19.5195 13.9297 20.1875 11.9629 20.1875C7.39844 20.1875 3.6875 16.4766 3.6875 11.875C3.6875 7.31055 7.39844 3.59961 11.9629 3.59961C14.9316 3.59961 17.6406 5.19531 19.125 7.64453V3.85938C19.125 3.37695 19.4961 2.96875 20.0156 2.96875C20.498 2.96875 20.9062 3.37695 20.9062 3.85938Z" fill="currentColor"/>
</svg>
