<svg width="24" height="24" viewBox="0 0 24 24" fill="currentColor" xmlns="http://www.w3.org/2000/svg">
<path d="M14.7185 11.8718C14.6578 11.8643 14.5972 11.8643 14.5365 11.8643C13.5168 11.8643 12.6866 12.6944 12.6866 13.7141C12.6866 14.025 12.7625 14.3169 12.8989 14.5708C13.8731 14.0212 14.5669 13.0318 14.7185 11.8718Z" fill="currentColor"/>
<path d="M9.82838 18.8773V17.4937C9.69949 17.3345 9.57819 17.1677 9.46826 16.9933C9.42277 16.9251 9.38107 16.8531 9.33937 16.781C8.27418 16.3906 8.00882 16.2011 6.94362 15.2875L5.28328 16.2466C4.73362 15.587 4.29769 14.8364 4.00201 14.029L5.66235 13.0699C5.37426 11.5043 5.37426 11.2996 5.66235 9.73406L4.00201 8.775C4.29769 7.97137 4.73362 7.2208 5.28328 6.55742L6.94362 7.51648C8.15666 6.47781 8.33483 6.37546 9.83217 5.84855V3.92664C10.6813 3.7826 11.5456 3.7826 12.3947 3.92664V5.84476C13.8921 6.37546 14.0702 6.47402 15.2833 7.51269L16.9436 6.55363C17.4933 7.21322 17.9292 7.96378 18.2249 8.77121C18.2249 8.77121 19.0588 9.66583 19.4303 10.1776L19.7677 9.98046C20.124 9.77576 20.2984 9.35499 20.1923 8.95317C19.7563 7.34589 18.9072 5.90541 17.7624 4.76061C17.4705 4.46872 17.0194 4.41186 16.6631 4.61656L15.4576 5.31406C15.0672 5.03354 14.6502 4.79093 14.2105 4.59382V3.19503C14.2105 2.78184 13.9338 2.42172 13.5357 2.31558C11.9512 1.89481 10.2719 1.89481 8.68737 2.31558C8.28934 2.42172 8.01261 2.78184 8.01261 3.19503V4.59002C7.57289 4.79093 7.15591 5.02975 6.76546 5.31027L5.55621 4.61656C5.19988 4.41186 4.74879 4.46872 4.4569 4.76061C3.31209 5.90541 2.46297 7.34589 2.03082 8.96075C1.92468 9.35878 2.09906 9.77955 2.45539 9.98804L3.66084 10.6817C3.61535 11.1594 3.61535 11.6446 3.66084 12.1222L2.45539 12.8197C2.09906 13.0244 1.92468 13.4452 2.03082 13.847C2.46297 15.4581 3.31209 16.8986 4.4569 18.0434C4.74879 18.3353 5.19988 18.3921 5.55621 18.1874L6.76167 17.4899C7.15212 17.7704 7.5691 18.013 8.00882 18.2102V19.6052C8.00882 20.0183 8.28555 20.3785 8.68358 20.4846C10.2681 20.9054 11.9474 20.9054 13.5319 20.4846C13.8883 20.3898 14.146 20.0904 14.1991 19.734C13.2704 19.6848 12.3758 19.4232 11.5683 18.9645C10.9883 19.0062 10.4046 18.9759 9.82838 18.8773Z" fill="currentColor"/>
<path d="M8.61532 12.5314C8.77454 11.7392 9.08538 10.9962 9.54406 10.3214C10.2719 9.25246 11.3105 8.46019 12.4933 8.03563C12.0687 7.86125 11.5986 7.7627 11.1096 7.7627C9.10433 7.7627 7.47052 9.3965 7.47052 11.4018C7.47052 12.3874 7.86476 13.282 8.5016 13.9378C8.48644 13.4678 8.52435 12.9977 8.61532 12.5314Z" fill="currentColor"/>
<path d="M21.6365 19.5295L18.8503 16.7433L18.5509 16.4438C19.3659 15.2459 19.5706 13.8168 19.237 12.5166C19.1043 11.9972 18.8883 11.5007 18.5888 11.0458C18.2476 10.5302 17.8079 10.0716 17.2658 9.70385C17.1635 9.63562 17.0611 9.57117 16.9588 9.51052C16.2006 9.07459 15.3704 8.8623 14.5441 8.8623C14.2863 8.8623 14.0285 8.88505 13.7783 8.92296C13.0733 9.03668 12.3947 9.30203 11.792 9.71522C11.3068 10.0488 10.8746 10.4734 10.5259 10.9889C10.1695 11.512 9.93073 12.0806 9.80184 12.6606C9.64263 13.3733 9.65021 14.1011 9.80942 14.8024C10.0748 15.9548 10.7571 17.0124 11.8109 17.7288C12.0005 17.8577 12.1938 17.9715 12.3947 18.07C12.9709 18.3543 13.5888 18.5173 14.2143 18.559C14.3204 18.5666 14.4303 18.5704 14.5365 18.5704C15.2264 18.5704 15.9163 18.4226 16.5532 18.1307C16.7958 18.0207 17.0346 17.8881 17.262 17.7326L17.6638 18.1345L20.3515 20.8221C20.469 20.9396 20.6244 21.0003 20.7798 21.0003C20.9353 21.0003 21.0907 20.9396 21.2082 20.8221L21.6365 20.3937C21.8716 20.1511 21.8716 19.7645 21.6365 19.5295ZM13.4637 16.5537C12.7169 16.2694 12.1104 15.7008 11.7768 14.9806C11.5987 14.5939 11.5001 14.1656 11.5001 13.7145C11.5001 13.5287 11.519 13.343 11.5494 13.1648C11.7048 12.3195 12.209 11.5954 12.9065 11.1519C13.3765 10.8524 13.9338 10.6819 14.5289 10.6819C14.5782 10.6819 14.6237 10.6819 14.6729 10.6857C15.4993 10.7236 16.2423 11.0951 16.7654 11.6675C17.2469 12.1906 17.5463 12.8881 17.5615 13.65C17.5615 13.6728 17.5615 13.6917 17.5615 13.7145C17.5615 14.628 17.1521 15.4506 16.5115 16.0041C15.9808 16.4665 15.287 16.7433 14.5289 16.747C14.1574 16.747 13.7973 16.6788 13.4637 16.5537Z" fill="currentColor"/>
</svg>
