<svg width="24" height="24" viewBox="0 0 24 24" fill="currentColor" xmlns="http://www.w3.org/2000/svg">
<g clip-path="url(#clip0_434_272)">
<path d="M18.933 8.11816H8.32709C7.97455 8.11816 7.68881 8.40391 7.68881 8.75645V16.4678C7.68881 16.8203 7.97455 17.1061 8.32709 17.1061H18.9292C19.2818 17.1061 19.5675 16.8203 19.5675 16.4678V8.75645C19.5712 8.40391 19.2855 8.11816 18.933 8.11816ZM13.63 12.3078L15.7156 13.3506V9.88086H17.8085V15.3508H9.4478V9.88086H11.5408V13.3506L13.63 12.3078Z" fill="currentColor"/>
<path d="M2.06304 7.84377L4.63101 8.79748C5.45113 6.58947 7.10991 4.69319 9.42183 3.63557C14.0308 1.52033 19.5156 3.55764 21.6271 8.17033C23.7423 12.7905 21.7162 18.2492 17.096 20.3682C14.9363 21.3516 12.5984 21.4369 10.498 20.7801C10.2531 20.7022 10.1232 20.4387 10.2123 20.2012L10.5722 19.2289C10.6539 19.0063 10.8951 18.8875 11.1214 18.9543C12.7691 19.459 14.5986 19.3848 16.2871 18.6092C19.9423 16.9319 21.5418 12.6197 19.8644 8.96447C18.1908 5.31291 13.8787 3.70979 10.2234 5.38713C8.39761 6.2258 7.08394 7.72131 6.43452 9.46916L9.09898 10.4563C9.47007 10.5936 9.48863 11.1131 9.12866 11.2801L4.30445 13.4918C4.08179 13.5957 3.81831 13.4955 3.71441 13.2729L1.50269 8.44865C1.3357 8.08498 1.68823 7.70647 2.06304 7.84377Z" fill="currentColor"/>
</g>
<defs>
<clipPath id="clip0_434_272">
<rect width="21.4344" height="19" fill="currentColor" transform="translate(1.28003 2.5)"/>
</clipPath>
</defs>
</svg>
