<svg width="24" height="24" viewBox="0 0 24 24" fill="currentColor" xmlns="http://www.w3.org/2000/svg">
<path d="M19.9043 17.4043L15.8965 13.0254L17.3066 11.541C18.5684 10.168 18.7168 8.16406 17.6777 6.45703L16.5645 4.60156C15.9707 3.67383 15.1543 3.00586 14.2266 2.70898C12.9277 2.30078 11.0723 2.30078 9.77344 2.70898C8.8457 3.00586 8.0293 3.67383 7.47266 4.60156L6.17383 6.60547C5.20898 8.16406 5.43164 10.2051 6.69336 11.541L8.06641 13.0254L4.05859 17.4043C3.42773 18.0723 3.57617 19.1113 4.31836 19.5938L6.69336 21.1523C7.54688 21.709 8.36328 21.1523 8.58594 20.9297L12 17.2559L15.377 20.8926C15.5996 21.1523 16.416 21.709 17.2695 21.1523L19.6445 19.5938C20.3867 19.1113 20.5352 18.0723 19.9043 17.4043ZM15.8594 6.86523L16.1562 7.38477C16.7871 8.38672 16.7129 9.53711 15.9707 10.3164L14.6719 11.7266L13.1875 10.0938L14.8945 8.27539C15.3027 7.83008 15.5996 7.34766 15.8594 6.86523ZM10.293 4.41602C11.2578 4.08203 12.7051 4.08203 13.6699 4.41602C14.0039 4.52734 14.3379 4.71289 14.5977 5.00977C14.4863 5.49219 14.2266 6.41992 13.6328 7.01367L11.9629 8.79492L10.3301 6.97656C9.69922 6.38281 9.43945 5.45508 9.36523 4.97266C9.625 4.71289 9.95898 4.52734 10.293 4.41602ZM7.43555 19.5195L5.61719 18.332L9.29102 14.3613L10.7383 15.957L7.43555 19.5195ZM16.5273 19.5195L7.99219 10.3164C7.28711 9.57422 7.17578 8.42383 7.69531 7.5332L8.06641 6.86523C8.25195 7.34766 8.58594 7.83008 9.03125 8.23828L18.3086 18.332L16.5273 19.5195Z" fill="currentColor"/>
</svg>
