<svg width="24" height="24" viewBox="0 0 24 24" fill="currentColor" xmlns="http://www.w3.org/2000/svg">
<path d="M17.6406 7.71875C17.6406 8.57227 16.9727 9.20312 16.1562 9.20312C15.3027 9.20312 14.6719 8.57227 14.6719 7.71875C14.6719 6.90234 15.3027 6.23438 16.1562 6.23438C16.9727 6.23438 17.6406 6.90234 17.6406 7.71875ZM16.75 13.9902V17.0332C16.75 17.9609 16.2305 18.8516 15.4141 19.334L12.1484 21.2637C11.8516 21.4121 11.5176 21.4492 11.2578 21.2637C10.9609 21.1152 10.8125 20.8184 10.8125 20.4844V16.2539C10.8125 15.4004 10.4785 14.584 9.88477 13.9902C9.29102 13.3965 8.47461 13.0625 7.62109 13.0625H3.39062C3.05664 13.0625 2.75977 12.9141 2.61133 12.6172C2.42578 12.3574 2.42578 12.0234 2.61133 11.7266L4.54102 8.46094C5.02344 7.64453 5.91406 7.125 6.8418 7.125H9.88477C12.9277 2.26367 17.6406 2.07812 20.4238 2.59766C20.8691 2.67188 21.2031 3.00586 21.2773 3.45117C21.7969 6.23438 21.6113 10.9473 16.75 13.9902ZM9.81055 11.8008C10.293 12.0605 10.7383 12.3574 11.1094 12.7285C11.5176 13.1367 11.8145 13.582 12.0742 14.0645C15.9707 12.9512 17.8633 11.0957 18.791 9.35156C19.7188 7.64453 19.793 5.75195 19.6074 4.26758C18.123 4.08203 16.2305 4.15625 14.4863 5.08398C12.7793 6.01172 10.9238 7.9043 9.81055 11.8008ZM4.02148 15.2148C5.32031 13.9531 7.39844 13.9531 8.66016 15.2148C9.92188 16.4766 9.92188 18.5547 8.66016 19.8164C6.8418 21.6719 2.5 21.375 2.5 21.375C2.5 21.375 2.20312 17.0332 4.02148 15.2148ZM4.875 19C4.875 19 6.32227 19.1113 6.91602 18.4805C7.36133 18.0723 7.36133 17.3672 6.91602 16.959C6.50781 16.5137 5.80273 16.5137 5.39453 16.959C4.76367 17.5527 4.875 19 4.875 19Z" fill="currentColor"/>
</svg>
