<svg width="24" height="24" viewBox="0 0 24 24" fill="currentColor" xmlns="http://www.w3.org/2000/svg">
<path d="M17.9375 11.875H14.6719C13.8184 11.875 13.1875 12.543 13.1875 13.3594C13.1875 14.2129 13.8184 14.8438 14.6719 14.8438H18.2344C20.0156 14.8438 21.5 16.3281 21.5 18.1094C21.5 19.9277 20.0156 21.375 18.2344 21.375H7.6582C7.99219 21.041 8.36328 20.5586 8.77148 20.0391C8.88281 19.8906 8.99414 19.7422 9.06836 19.5938H18.2344C19.0508 19.5938 19.7188 18.9629 19.7188 18.1094C19.7188 17.293 19.0508 16.625 18.2344 16.625H14.6719C12.8535 16.625 11.4062 15.1777 11.4062 13.3594C11.4062 11.5781 12.8535 10.0938 14.6719 10.0938H16.3789C15.4141 8.86914 14.375 7.23633 14.375 5.9375C14.375 3.9707 15.9336 2.375 17.9375 2.375C19.9043 2.375 21.5 3.9707 21.5 5.9375C21.5 7.42188 20.1641 9.31445 19.125 10.5762C18.457 11.3555 17.9375 11.875 17.9375 11.875ZM19.3477 7.08789C19.6074 6.53125 19.7188 6.16016 19.7188 5.9375C19.7188 4.97266 18.9023 4.15625 17.9375 4.15625C16.9355 4.15625 16.1562 4.97266 16.1562 5.9375C16.1562 6.16016 16.2305 6.53125 16.4902 7.08789C16.7871 7.60742 17.1582 8.20117 17.5664 8.75781C17.6777 8.90625 17.7891 9.05469 17.9375 9.20312C18.0488 9.05469 18.1602 8.90625 18.2715 8.75781C18.6797 8.20117 19.0508 7.60742 19.3477 7.08789ZM7.25 20.0762C7.10156 20.2246 6.99023 20.3359 6.87891 20.4844L6.8418 20.5215C6.73047 20.6699 6.58203 20.8184 6.4707 20.9297C6.4707 20.9297 6.4707 20.9297 6.4707 20.9668C6.21094 21.2266 6.0625 21.375 6.0625 21.375C6.0625 21.375 5.50586 20.8555 4.83789 20.0762C3.79883 18.8145 2.5 16.9219 2.5 15.4375C2.5 13.4707 4.05859 11.875 6.0625 11.875C8.0293 11.875 9.625 13.4707 9.625 15.4375C9.625 16.7363 8.54883 18.3691 7.58398 19.5938C7.47266 19.7793 7.36133 19.9277 7.25 20.0762ZM7.47266 16.5879C7.73242 16.0312 7.84375 15.6602 7.84375 15.4375C7.84375 14.4727 7.02734 13.6562 6.0625 13.6562C5.06055 13.6562 4.28125 14.4727 4.28125 15.4375C4.28125 15.6602 4.35547 16.0312 4.61523 16.5879C4.91211 17.1074 5.2832 17.7012 5.69141 18.2578C5.80273 18.4062 5.91406 18.5547 6.0625 18.7031C6.17383 18.5547 6.28516 18.4062 6.39648 18.2578C6.80469 17.7012 7.17578 17.1074 7.47266 16.5879Z" fill="currentColor"/>
</svg>
