<svg width="24" height="24" viewBox="0 0 24 24" fill="currentColor" xmlns="http://www.w3.org/2000/svg">
<path d="M2.5 16.625C1.16406 16.625 0.125 15.5859 0.125 14.25V9.5C0.125 8.20117 1.16406 7.125 2.5 7.125H21.5C22.7988 7.125 23.875 8.20117 23.875 9.5V14.25C23.875 15.5859 22.7988 16.625 21.5 16.625H2.5ZM2.5 14.8438H21.5C21.7969 14.8438 22.0938 14.584 22.0938 14.25V9.5C22.0938 9.20312 21.7969 8.90625 21.5 8.90625H19.7188V10.6875C19.7188 11.0215 19.4219 11.2812 19.125 11.2812C18.791 11.2812 18.5312 11.0215 18.5312 10.6875V8.90625H16.1562V10.6875C16.1562 11.0215 15.8594 11.2812 15.5625 11.2812C15.2285 11.2812 14.9688 11.0215 14.9688 10.6875V8.90625H12.5938V10.6875C12.5938 11.0215 12.2969 11.2812 12 11.2812C11.666 11.2812 11.4062 11.0215 11.4062 10.6875V8.90625H9.03125V10.6875C9.03125 11.0215 8.73438 11.2812 8.4375 11.2812C8.10352 11.2812 7.84375 11.0215 7.84375 10.6875V8.90625H5.46875V10.6875C5.46875 11.0215 5.17188 11.2812 4.875 11.2812C4.54102 11.2812 4.28125 11.0215 4.28125 10.6875V8.90625H2.5C2.16602 8.90625 1.90625 9.20312 1.90625 9.5V14.25C1.90625 14.584 2.16602 14.8438 2.5 14.8438Z" fill="currentColor"/>
</svg>
