<svg width="24" height="24" viewBox="0 0 24 24" fill="currentColor" xmlns="http://www.w3.org/2000/svg">
<path d="M20.8691 12.209L3.76172 3.67383C3.31641 3.45117 2.79688 3.63672 2.57422 4.08203C2.35156 4.52734 2.53711 5.04688 2.98242 5.26953L18.6055 13.0625H3.6875C2.35156 13.0625 1.3125 14.1016 1.3125 15.4375V17.8125C1.3125 19.1484 2.35156 20.1875 3.6875 20.1875H20.3125C21.6113 20.1875 22.6875 19.1484 22.6875 17.8125V15.1406C22.6875 13.8789 21.9824 12.7656 20.8691 12.209ZM20.9062 17.8125C20.9062 18.1094 20.6094 18.4062 20.3125 18.4062H3.6875C3.35352 18.4062 3.09375 18.1094 3.09375 17.8125V15.4375C3.09375 15.1035 3.35352 14.8438 3.6875 14.8438H20.3125C20.6094 14.8438 20.9062 15.1035 20.9062 15.4375V17.8125ZM4.875 15.7344C4.35547 15.7344 3.98438 16.1055 3.98438 16.625C3.98438 17.1074 4.35547 17.5156 4.875 17.5156C5.35742 17.5156 5.76562 17.1074 5.76562 16.625C5.76562 16.1426 5.35742 15.7344 4.875 15.7344ZM7.84375 15.7344C7.32422 15.7344 6.95312 16.1055 6.95312 16.625C6.95312 17.1074 7.32422 17.5156 7.84375 17.5156C8.32617 17.5156 8.73438 17.1074 8.73438 16.625C8.73438 16.1426 8.32617 15.7344 7.84375 15.7344Z" fill="currentColor"/>
</svg>
