<svg width="24" height="24" viewBox="0 0 24 24" fill="currentColor" xmlns="http://www.w3.org/2000/svg">
<path d="M21.3145 4.60156L19.2734 2.56055C19.0508 2.375 18.7168 2.33789 18.4941 2.52344L13.8184 6.01172C13.5215 6.23438 13.373 6.56836 13.373 6.93945V9.24023L10.3672 12.2461C8.69727 11.3926 7.28711 12.2832 6.76758 12.8027L2.94531 16.625C2.35156 17.2188 2.35156 18.1836 2.94531 18.7773L5.09766 20.9297C5.39453 21.2266 5.76562 21.375 6.17383 21.375C6.54492 21.375 6.95312 21.2266 7.25 20.9297L11.1094 17.1074C12.0742 16.1426 12.2227 14.6582 11.6289 13.5078L14.5977 10.502H16.8613C17.2324 10.502 17.5664 10.3535 17.7891 10.0566L21.3145 5.38086C21.5371 5.1582 21.5 4.82422 21.3145 4.60156ZM9.81055 15.8457L6.13672 19.5195L4.31836 17.7012L8.0293 14.0273C8.51172 13.5449 9.32812 13.5449 9.81055 14.0273C10.3301 14.5469 10.3301 15.3262 9.81055 15.8457ZM16.6387 8.7207H15.1543V7.23633L18.7168 4.56445L19.3105 5.12109L16.6387 8.7207Z" fill="currentColor"/>
</svg>
