<svg width="24" height="24" viewBox="0 0 24 24" fill="currentColor" xmlns="http://www.w3.org/2000/svg">
<path d="M21.2031 19.8535L16.2305 14.8809C17.3066 13.582 17.9375 11.9121 17.9375 10.0938C17.9375 5.86328 14.4492 2.375 10.2188 2.375C5.95117 2.375 2.5 5.86328 2.5 10.0938C2.5 14.3613 5.95117 17.8125 10.2188 17.8125C12 17.8125 13.6699 17.2188 15.0059 16.1426L19.9785 21.1152C20.127 21.3008 20.3496 21.375 20.6094 21.375C20.832 21.375 21.0547 21.3008 21.2031 21.1152C21.5742 20.7812 21.5742 20.2246 21.2031 19.8535ZM10.2188 16.0312C6.91602 16.0312 4.28125 13.3965 4.28125 10.0938C4.28125 6.82812 6.91602 4.15625 10.2188 4.15625C13.4844 4.15625 16.1562 6.82812 16.1562 10.0938C16.1562 13.3965 13.4844 16.0312 10.2188 16.0312ZM13.1875 9.20312H7.21289C6.73047 9.20312 6.35938 9.61133 6.35938 10.0938C6.35938 10.6133 6.73047 10.9844 7.21289 10.9844H13.1504C13.6699 10.9844 14.0781 10.6133 14.0781 10.0938C14.0781 9.61133 13.6699 9.20312 13.1875 9.20312Z" fill="currentColor"/>
</svg>
