<svg width="24" height="24" viewBox="0 0 24 24" fill="currentColor" xmlns="http://www.w3.org/2000/svg">
<path d="M21.2031 19.8535L16.2305 14.8809C17.3066 13.582 17.9004 11.9121 17.9004 10.0938C17.9004 5.86328 14.4121 2.375 10.1816 2.375C5.91406 2.375 2.5 5.86328 2.5 10.0938C2.5 14.3613 5.95117 17.8125 10.1816 17.8125C11.9629 17.8125 13.6328 17.2188 14.9688 16.1426L19.9414 21.1152C20.127 21.3008 20.3496 21.375 20.6094 21.375C20.832 21.375 21.0547 21.3008 21.2031 21.1152C21.5742 20.7812 21.5742 20.2246 21.2031 19.8535ZM4.28125 10.0938C4.28125 6.82812 6.91602 4.15625 10.2188 4.15625C13.4844 4.15625 16.1562 6.82812 16.1562 10.0938C16.1562 13.3965 13.4844 16.0312 10.2188 16.0312C6.91602 16.0312 4.28125 13.3965 4.28125 10.0938Z" fill="currentColor"/>
</svg>
