<svg width="24" height="24" viewBox="0 0 24 24" fill="currentColor" xmlns="http://www.w3.org/2000/svg">
<path d="M19.793 5.49219L12.668 2.52344C12.4453 2.44922 12.2227 2.41211 12 2.41211C11.7402 2.41211 11.5176 2.44922 11.2949 2.52344L4.16992 5.49219C3.50195 5.78906 3.09375 6.41992 3.09375 7.125C3.09375 16.6992 10.1074 21.375 11.9629 21.375C13.8184 21.375 20.9062 16.7734 20.9062 7.125C20.9062 6.41992 20.4609 5.78906 19.793 5.49219ZM12 19.5938C8.36328 18.1094 4.875 13.4336 4.875 7.125L12 4.15625L19.125 7.125C19.125 13.582 15.4512 18.1465 12 19.5938ZM9.92188 11.541C9.77344 11.3926 9.55078 11.2812 9.32812 11.2812C8.80859 11.2812 8.4375 11.6895 8.4375 12.1719C8.4375 12.4316 8.51172 12.6543 8.69727 12.8027L10.4785 14.584C10.627 14.7695 10.8496 14.8438 11.1094 14.8438C11.1836 14.8438 11.5176 14.8066 11.7773 14.5098L15.3398 10.3535C15.4883 10.2051 15.5625 9.98242 15.5625 9.79688C15.5625 9.5 15.3398 8.90625 14.6719 8.90625C14.4121 8.90625 14.1523 8.98047 13.9668 9.20312L11.0352 12.6543L9.92188 11.541Z" fill="currentColor"/>
</svg>
