<svg width="24" height="24" viewBox="0 0 24 24" fill="currentColor" xmlns="http://www.w3.org/2000/svg">
<path d="M12 9.5C12 11.8008 10.1074 13.6562 7.84375 13.6562C5.54297 13.6562 3.6875 11.8008 3.6875 9.5C3.6875 7.23633 5.54297 5.34375 7.84375 5.34375C10.1074 5.34375 12 7.23633 12 9.5ZM7.25 7.71875V9.5C7.25 9.83398 7.50977 10.0938 7.84375 10.0938H9.03125C9.32812 10.0938 9.625 9.83398 9.625 9.5C9.625 9.20312 9.32812 8.90625 9.03125 8.90625H8.4375V7.71875C8.4375 7.42188 8.14062 7.125 7.84375 7.125C7.50977 7.125 7.25 7.42188 7.25 7.71875ZM17.9375 21.375C15.9336 21.375 14.375 19.7793 14.375 17.8125H9.625C9.625 19.7793 8.0293 21.375 6.0625 21.375C4.05859 21.375 2.5 19.7793 2.5 17.8125C1.16406 17.8125 0.125 16.7734 0.125 15.4375V4.75C0.125 3.45117 1.16406 2.375 2.5 2.375H13.1875C14.4863 2.375 15.5625 3.45117 15.5625 4.75V5.9375H17.1211C17.6777 5.9375 18.1973 6.16016 18.6055 6.56836L22.0566 10.0195C22.4648 10.4277 22.6875 10.9473 22.6875 11.5039V16.0312H22.9844C23.4668 16.0312 23.875 16.4395 23.875 16.9219C23.875 17.4414 23.4668 17.8125 22.9844 17.8125H21.5C21.5 19.7793 19.9043 21.375 17.9375 21.375ZM1.90625 4.75V15.4375C1.90625 15.7715 2.16602 16.0312 2.5 16.0312H2.94531C3.57617 14.9922 4.72656 14.25 6.0625 14.25C7.36133 14.25 8.51172 14.9922 9.14258 16.0312H13.1875C13.4844 16.0312 13.7812 15.7715 13.7812 15.4375V4.75C13.7812 4.45312 13.4844 4.15625 13.1875 4.15625H2.5C2.16602 4.15625 1.90625 4.45312 1.90625 4.75ZM20.832 11.2812C20.7949 11.2812 20.7949 11.2812 20.7949 11.2812L17.3438 7.83008C17.2695 7.75586 17.1953 7.71875 17.1211 7.71875H15.5625V11.2812H20.832ZM6.0625 19.5938C7.02734 19.5938 7.84375 18.8145 7.84375 17.8125C7.84375 16.8477 7.02734 16.0312 6.0625 16.0312C5.06055 16.0312 4.28125 16.8477 4.28125 17.8125C4.28125 18.8145 5.06055 19.5938 6.0625 19.5938ZM17.9375 16.0312C16.9355 16.0312 16.1562 16.8477 16.1562 17.8125C16.1562 18.8145 16.9355 19.5938 17.9375 19.5938C18.9023 19.5938 19.7188 18.8145 19.7188 17.8125C19.7188 16.8477 18.9023 16.0312 17.9375 16.0312Z" fill="currentColor"/>
</svg>
