<svg width="24" height="24" viewBox="0 0 24 24" fill="currentColor" xmlns="http://www.w3.org/2000/svg">
<path d="M8.40039 3.5625C8.40039 2.93164 8.95703 2.375 9.58789 2.375H14.375C15.0059 2.375 15.5625 2.93164 15.5625 3.5625V4.75H17.0469C18.1602 4.75 19.125 5.71484 19.125 6.82812V11.2441L20.0527 11.6152C21.5 12.1348 21.8711 13.9531 20.7949 15.0293L18.2344 17.5527C17.9004 17.9238 17.3438 17.9238 17.0098 17.5527C16.6387 17.2188 16.6387 16.6621 17.0098 16.291L19.5332 13.7676C19.7188 13.6191 19.6445 13.3594 19.459 13.248L12.0742 10.502C12 10.4648 11.9629 10.4648 11.8887 10.502L4.50391 13.248C4.31836 13.3594 4.24414 13.6191 4.42969 13.7676L6.95312 16.291C7.32422 16.6621 7.32422 17.2188 6.95312 17.5527C6.61914 17.9238 6.0625 17.9238 5.72852 17.5527L3.16797 15.0293C2.0918 13.9531 2.46289 12.1348 3.91016 11.6152L4.83789 11.2441V6.82812C4.83789 5.71484 5.80273 4.75 6.91602 4.75H8.40039V3.5625ZM6.61914 10.5762L11.2578 8.83203C11.7402 8.64648 12.2227 8.64648 12.7051 8.83203L17.3438 10.5762V6.82812C17.3438 6.67969 17.1953 6.53125 17.0469 6.53125H6.91602C6.76758 6.53125 6.61914 6.67969 6.61914 6.82812V10.5762ZM8.40039 19.5938C9.47656 19.5938 10.5898 19.0371 11.4062 18.3691C11.7402 18.0352 12.2227 18.0352 12.5566 18.3691C13.373 19.0371 14.4863 19.5938 15.5254 19.5938C16.6016 19.5938 17.7148 19.0371 18.5312 18.3691C18.8652 18.0352 19.3477 18.0352 19.6816 18.3691C20.3125 18.9258 21.166 19.334 21.9824 19.5195C22.4648 19.6309 22.7617 20.1133 22.6504 20.5957C22.5391 21.0781 22.0566 21.375 21.5742 21.2637C20.5352 21.041 19.6445 20.5215 19.0879 20.1504C18.0488 20.8555 16.8242 21.375 15.5254 21.375C14.2637 21.375 13.0391 20.8555 11.9629 20.1504C10.9238 20.8555 9.69922 21.375 8.40039 21.375C7.13867 21.375 5.91406 20.8555 4.83789 20.1504C4.31836 20.5215 3.42773 21.041 2.38867 21.2637C1.90625 21.375 1.42383 21.0781 1.3125 20.5957C1.20117 20.1133 1.49805 19.6309 1.98047 19.5195C2.83398 19.334 3.61328 18.8887 4.24414 18.3691C4.61523 18.0352 5.09766 18.0352 5.43164 18.3691C6.24805 19.0371 7.36133 19.5938 8.40039 19.5938Z" fill="currentColor"/>
</svg>
