<svg width="24" height="24" viewBox="0 0 24 24" fill="currentColor" xmlns="http://www.w3.org/2000/svg">
<path d="M9.625 16.9219C9.625 17.4414 9.2168 17.8125 8.73438 17.8125C8.21484 17.8125 7.84375 17.4414 7.84375 16.9219V13.9531C7.84375 13.4707 8.21484 13.0625 8.73438 13.0625C9.2168 13.0625 9.625 13.4707 9.625 13.9531V16.9219ZM12 13.0625C12.4824 13.0625 12.8906 13.4707 12.8906 13.9531V16.9219C12.8906 17.4414 12.4824 17.8125 12 17.8125C11.4805 17.8125 11.1094 17.4414 11.1094 16.9219V13.9531C11.1094 13.4707 11.4805 13.0625 12 13.0625ZM16.1562 16.9219C16.1562 17.4414 15.748 17.8125 15.2656 17.8125C14.7461 17.8125 14.375 17.4414 14.375 16.9219V13.9531C14.375 13.4707 14.7461 13.0625 15.2656 13.0625C15.748 13.0625 16.1562 13.4707 16.1562 13.9531V16.9219ZM10.3301 2.48633C10.7383 2.70898 10.9238 3.26562 10.7012 3.71094L7.6582 9.5H16.3047L13.2617 3.71094C13.0391 3.26562 13.2246 2.70898 13.6328 2.48633C14.0781 2.26367 14.6348 2.44922 14.8574 2.85742L18.3086 9.5H21.7969C22.2793 9.5 22.6875 9.9082 22.6875 10.3906C22.6875 10.9102 22.2793 11.2812 21.7969 11.2812H21.0547L18.9766 19.5938C18.6797 20.6328 17.752 21.375 16.6758 21.375H7.28711C6.21094 21.375 5.2832 20.6328 4.98633 19.5938L2.94531 11.2812H2.20312C1.68359 11.2812 1.3125 10.9102 1.3125 10.3906C1.3125 9.9082 1.68359 9.5 2.20312 9.5H5.6543L9.10547 2.85742C9.32812 2.44922 9.88477 2.26367 10.3301 2.48633ZM6.73047 19.1484C6.80469 19.4082 7.02734 19.5938 7.28711 19.5938H16.6758C16.9355 19.5938 17.1582 19.4082 17.2324 19.1484L19.1992 11.2812H4.76367L6.73047 19.1484Z" fill="currentColor"/>
</svg>
