<svg width="24" height="24" viewBox="0 0 24 24" fill="currentColor" xmlns="http://www.w3.org/2000/svg">
<path d="M4.875 2.375C5.2832 2.375 5.6543 2.70898 5.72852 3.11719L5.80273 3.5625H21.3887C22.168 3.5625 22.7617 4.3418 22.5391 5.08398L20.5352 12.209C20.3867 12.7285 19.9414 13.0625 19.3848 13.0625H7.62109L7.95508 14.8438H19.4219C19.9043 14.8438 20.3125 15.252 20.3125 15.7344C20.3125 16.2539 19.9043 16.625 19.4219 16.625H7.21289C6.80469 16.625 6.43359 16.3281 6.35938 15.9199L4.13281 4.15625H2.20312C1.68359 4.15625 1.3125 3.78516 1.3125 3.26562C1.3125 2.7832 1.68359 2.375 2.20312 2.375H4.875ZM18.9395 11.2812L20.6094 5.34375H6.17383L7.28711 11.2812H18.9395ZM6.0625 19.5938C6.0625 18.6289 6.8418 17.8125 7.84375 17.8125C8.80859 17.8125 9.625 18.6289 9.625 19.5938C9.625 20.5957 8.80859 21.375 7.84375 21.375C6.8418 21.375 6.0625 20.5957 6.0625 19.5938ZM20.3125 19.5938C20.3125 20.5957 19.4961 21.375 18.5312 21.375C17.5293 21.375 16.75 20.5957 16.75 19.5938C16.75 18.6289 17.5293 17.8125 18.5312 17.8125C19.4961 17.8125 20.3125 18.6289 20.3125 19.5938Z" fill="currentColor"/>
</svg>
