<svg width="24" height="24" viewBox="0 0 24 24" fill="currentColor" xmlns="http://www.w3.org/2000/svg">
<path d="M9.625 19.2969C9.625 19.8164 9.2168 20.1875 8.73438 20.1875H6.0625C4.05859 20.1875 2.5 18.6289 2.5 16.625V7.125C2.5 5.1582 4.05859 3.5625 6.0625 3.5625H8.73438C9.2168 3.5625 9.625 3.9707 9.625 4.45312C9.625 4.97266 9.2168 5.34375 8.73438 5.34375H6.0625C5.06055 5.34375 4.28125 6.16016 4.28125 7.125V16.625C4.28125 17.627 5.06055 18.4062 6.0625 18.4062H8.73438C9.2168 18.4062 9.625 18.8145 9.625 19.2969ZM21.2402 11.2812L16.5273 6.23438C16.1934 5.86328 15.6367 5.86328 15.2656 6.19727C14.8945 6.53125 14.8945 7.08789 15.2285 7.45898L18.5312 10.9844H9.29102C8.80859 10.9844 8.4375 11.3926 8.4375 11.875C8.4375 12.3945 8.80859 12.7656 9.29102 12.7656H18.4941L15.1543 16.3281C14.8203 16.6992 14.8203 17.2559 15.1914 17.5898C15.4141 17.7383 15.6367 17.8125 15.8223 17.8125C16.0449 17.8125 16.2676 17.7383 16.4531 17.5527L21.166 12.5059C21.5742 12.1719 21.5742 11.6152 21.2402 11.2812Z" fill="currentColor"/>
</svg>
