<svg width="24" height="24" viewBox="0 0 24 24" fill="currentColor" xmlns="http://www.w3.org/2000/svg">
<path d="M12 2.67188C6.91602 2.67188 2.79688 6.79102 2.79688 11.875C2.79688 16.959 6.91602 21.0781 12 21.0781C17.084 21.0781 21.2031 16.959 21.2031 11.875C21.2031 6.79102 17.084 2.67188 12 2.67188ZM12 19.2969C7.88086 19.2969 4.57812 15.9941 4.57812 11.875C4.57812 7.79297 7.88086 4.45312 12 4.45312C16.082 4.45312 19.4219 7.79297 19.4219 11.875C19.4219 15.9941 16.082 19.2969 12 19.2969ZM9.03125 11.2812C9.66211 11.2812 10.2188 10.7617 10.2188 10.0938C10.2188 9.46289 9.66211 8.90625 9.03125 8.90625C8.36328 8.90625 7.84375 9.46289 7.84375 10.0938C7.84375 10.7617 8.36328 11.2812 9.03125 11.2812ZM14.9688 11.2812C15.5996 11.2812 16.1562 10.7617 16.1562 10.0938C16.1562 9.46289 15.5996 8.90625 14.9688 8.90625C14.3008 8.90625 13.7812 9.46289 13.7812 10.0938C13.7812 10.7617 14.3008 11.2812 14.9688 11.2812ZM15.1172 13.9902C14.3379 14.918 13.1875 15.4375 12 15.4375C10.7754 15.4375 9.625 14.918 8.88281 13.9902C8.54883 13.6191 7.99219 13.582 7.62109 13.8789C7.25 14.1758 7.17578 14.7695 7.50977 15.1406C8.62305 16.4766 10.2559 17.2188 12 17.2188C13.707 17.2188 15.3398 16.4766 16.4531 15.1406C16.7871 14.7695 16.75 14.1758 16.3418 13.8789C15.9707 13.582 15.4141 13.6191 15.1172 13.9902Z" fill="currentColor"/>
</svg>
