<svg width="24" height="24" viewBox="0 0 24 24" fill="currentColor" xmlns="http://www.w3.org/2000/svg">
<path d="M5.46875 17.2188C5.46875 17.7383 5.06055 18.1094 4.57812 18.1094C4.05859 18.1094 3.6875 17.7383 3.6875 17.2188C3.6875 16.7363 4.05859 16.3281 4.57812 16.3281C5.06055 16.3281 5.46875 16.7363 5.46875 17.2188ZM6.65625 17.2188C6.65625 16.7363 7.02734 16.3281 7.54688 16.3281C8.0293 16.3281 8.4375 16.7363 8.4375 17.2188C8.4375 17.7383 8.0293 18.1094 7.54688 18.1094C7.02734 18.1094 6.65625 17.7383 6.65625 17.2188ZM11.4062 17.2188C11.4062 17.7383 10.998 18.1094 10.5156 18.1094C9.99609 18.1094 9.625 17.7383 9.625 17.2188C9.625 16.7363 9.99609 16.3281 10.5156 16.3281C10.998 16.3281 11.4062 16.7363 11.4062 17.2188ZM12.5938 17.2188C12.5938 16.7363 12.9648 16.3281 13.4844 16.3281C13.9668 16.3281 14.375 16.7363 14.375 17.2188C14.375 17.7383 13.9668 18.1094 13.4844 18.1094C12.9648 18.1094 12.5938 17.7383 12.5938 17.2188ZM16.1562 10.9844V13.3594H19.125V11.2812C19.125 11.0586 19.1992 10.873 19.3477 10.6875L22.3164 7.42188C22.6504 7.05078 23.207 7.05078 23.5781 7.38477C23.9121 7.71875 23.9492 8.27539 23.6152 8.64648L20.9062 11.6523V16.8848L23.6152 19.8906C23.9492 20.2617 23.9121 20.8184 23.5781 21.1523C23.207 21.4863 22.6504 21.4492 22.3164 21.1152L19.3477 17.8496C19.1992 17.6641 19.125 17.4414 19.125 17.2188V15.1406H17.3809C17.7148 15.7715 17.9375 16.4766 17.9375 17.2188C17.9375 19.5195 16.0449 21.375 13.7812 21.375H4.28125C1.98047 21.375 0.125 19.5195 0.125 17.2188C0.125 15.8086 0.792969 14.584 1.90625 13.8418V8.90625C1.90625 7.94141 2.68555 7.125 3.6875 7.125H4.28125V3.85938C4.28125 3.04297 4.91211 2.375 5.76562 2.375H11.1836C12.0371 2.375 12.7793 2.89453 13.1133 3.67383L15.9707 10.4277C16.0078 10.4648 16.0078 10.5391 16.0078 10.5762C16.082 10.6875 16.1562 10.8359 16.1562 10.9844ZM11.1836 4.15625H6.0625V7.34766L8.25195 10.0938H13.8926L11.4805 4.3418C11.4062 4.23047 11.332 4.15625 11.1836 4.15625ZM14.375 13.1367V11.875H7.84375C7.54688 11.875 7.28711 11.7637 7.13867 11.541L5.02344 8.90625H3.6875V13.1367C3.87305 13.0996 4.05859 13.0625 4.28125 13.0625H13.7812C13.9668 13.0625 14.1523 13.0996 14.375 13.1367ZM1.90625 17.2188C1.90625 18.5547 2.94531 19.5938 4.28125 19.5938H13.7812C15.0801 19.5938 16.1562 18.5547 16.1562 17.2188C16.1562 15.9199 15.0801 14.8438 13.7812 14.8438H4.28125C2.94531 14.8438 1.90625 15.9199 1.90625 17.2188Z" fill="currentColor"/>
</svg>
