<svg width="24" height="24" viewBox="0 0 24 24" fill="currentColor" xmlns="http://www.w3.org/2000/svg">
<path d="M21.4629 3.33984C21.3516 2.7832 20.8691 2.375 20.2754 2.375H3.6875C3.09375 2.375 2.61133 2.7832 2.5 3.33984L0.162109 15.2148C0.0878906 15.5859 0.199219 15.9199 0.421875 16.2168C0.644531 16.4766 0.941406 16.625 1.3125 16.625H11.0723V19.5938H8.10352C7.62109 19.5938 7.21289 20.002 7.21289 20.4844C7.21289 21.0039 7.62109 21.375 8.10352 21.375H15.8594C16.3418 21.375 16.75 21.0039 16.75 20.4844C16.75 20.002 16.3418 19.5938 15.8594 19.5938H12.8535V16.625H22.6504C23.0215 16.625 23.3555 16.4766 23.5781 16.2168C23.8008 15.9199 23.9121 15.5859 23.8379 15.2148L21.4629 3.33984ZM20.6465 8.3125H16.3418L15.9707 4.15625H19.793L20.6465 8.3125ZM14.5605 8.3125H9.40234L9.81055 4.15625H14.1523L14.5605 8.3125ZM4.16992 4.15625H7.99219L7.62109 8.3125H3.31641L4.16992 4.15625ZM2.98242 10.0938H7.43555L6.99023 14.8438H2.01758L2.98242 10.0938ZM8.77148 14.8438L9.2168 10.0938H14.7461L15.1914 14.8438H8.77148ZM16.9727 14.8438L16.5273 10.0938H20.9805L21.9453 14.8438H16.9727Z" fill="currentColor"/>
</svg>
