<svg width="24" height="24" viewBox="0 0 24 24" fill="currentColor" xmlns="http://www.w3.org/2000/svg">
<path d="M14.6348 5.56641L16.75 4.75L17.5293 2.67188C17.5664 2.48633 17.752 2.375 17.9375 2.375C18.0859 2.375 18.2715 2.48633 18.3086 2.67188L19.125 4.75L21.2031 5.56641C21.3887 5.60352 21.5 5.78906 21.5 5.9375C21.5 6.12305 21.3887 6.30859 21.2031 6.3457L19.125 7.125L18.3086 9.24023C18.2715 9.38867 18.0859 9.5 17.9375 9.5C17.752 9.5 17.5664 9.38867 17.5293 9.24023L16.75 7.125L14.6348 6.3457C14.4492 6.30859 14.375 6.12305 14.375 5.9375C14.375 5.78906 14.4492 5.60352 14.6348 5.56641ZM9.03125 5.12109C9.10547 4.89844 9.32812 4.75 9.55078 4.75C9.77344 4.75 9.99609 4.89844 10.1074 5.12109L12.0371 9.35156L16.2676 11.2812C16.4902 11.3926 16.6387 11.6152 16.6387 11.8379C16.6387 12.0605 16.4902 12.2832 16.2676 12.3945L12.0371 14.3242L10.1074 18.5547C9.99609 18.7773 9.77344 18.9258 9.55078 18.9258C9.32812 18.9258 9.10547 18.7773 9.03125 18.5547L7.06445 14.3242L2.83398 12.3945C2.61133 12.2832 2.5 12.0605 2.5 11.8379C2.5 11.6152 2.61133 11.3926 2.83398 11.2812L7.06445 9.35156L9.03125 5.12109ZM8.66016 10.0938C8.51172 10.4648 8.17773 10.7988 7.80664 10.9473L5.91406 11.8379L7.80664 12.7285C8.17773 12.877 8.51172 13.2109 8.66016 13.582L9.55078 15.4746L10.4414 13.582C10.5898 13.2109 10.9238 12.877 11.2949 12.7285L13.1875 11.8379L11.2949 10.9473C10.9238 10.7988 10.5898 10.4648 10.4414 10.0938L9.55078 8.20117L8.66016 10.0938ZM17.5293 14.5469C17.5664 14.3613 17.752 14.25 17.9375 14.25C18.0859 14.25 18.2715 14.3613 18.3086 14.5469L19.125 16.625L21.2031 17.4414C21.3887 17.4785 21.5 17.6641 21.5 17.8125C21.5 17.998 21.3887 18.1836 21.2031 18.2207L19.125 19L18.3086 21.1152C18.2715 21.2637 18.0859 21.375 17.9375 21.375C17.752 21.375 17.5664 21.2637 17.5293 21.1152L16.75 19L14.6348 18.2207C14.4492 18.1836 14.375 17.998 14.375 17.8125C14.375 17.6641 14.4492 17.4785 14.6348 17.4414L16.75 16.625L17.5293 14.5469Z" fill="currentColor"/>
</svg>
