<svg width="24" height="24" viewBox="0 0 24 24" fill="currentColor" xmlns="http://www.w3.org/2000/svg">
<path d="M11.9629 2.375C12.334 2.375 12.6309 2.59766 12.7793 2.89453L15.3398 8.12695L21.0176 8.98047C21.3516 9.01758 21.6113 9.27734 21.7227 9.57422C21.834 9.9082 21.7598 10.2422 21.5 10.502L17.3809 14.584L18.3457 20.3359C18.4199 20.6699 18.2715 21.041 18.0117 21.2266C17.7148 21.4121 17.3438 21.4492 17.0469 21.3008L11.9629 18.5547L6.87891 21.3008C6.58203 21.4492 6.24805 21.4121 5.95117 21.2266C5.69141 21.041 5.54297 20.6699 5.58008 20.3359L6.58203 14.584L2.46289 10.502C2.20312 10.2422 2.12891 9.9082 2.24023 9.57422C2.35156 9.27734 2.61133 9.01758 2.94531 8.98047L8.62305 8.12695L11.1836 2.89453C11.332 2.59766 11.6289 2.375 11.9629 2.375ZM11.9629 5.30664L10.0332 9.35156C9.88477 9.61133 9.66211 9.79688 9.36523 9.83398L4.94922 10.4648L8.14062 13.6191C8.36328 13.8418 8.4375 14.1387 8.40039 14.4355L7.6582 18.8516L11.5547 16.7734C11.8145 16.625 12.1484 16.625 12.4082 16.7734L16.3047 18.8516L15.5625 14.4355C15.4883 14.1387 15.5996 13.8418 15.8223 13.6191L18.9766 10.4648L14.5977 9.83398C14.3008 9.79688 14.041 9.61133 13.9297 9.35156L11.9629 5.30664Z" fill="currentColor"/>
</svg>
