<svg width="24" height="24" viewBox="0 0 24 24" fill="currentColor" xmlns="http://www.w3.org/2000/svg">
<path d="M12.8906 14.25C12.8906 14.7695 12.4824 15.1406 12 15.1406C11.4805 15.1406 11.1094 14.7695 11.1094 14.25V10.3906C11.1094 9.9082 11.4805 9.5 12 9.5C12.4824 9.5 12.8906 9.9082 12.8906 10.3906V14.25ZM9.03125 3.26562C9.03125 2.7832 9.40234 2.375 9.92188 2.375H14.0781C14.5605 2.375 14.9688 2.7832 14.9688 3.26562C14.9688 3.78516 14.5605 4.15625 14.0781 4.15625H12.8906V6.01172C14.4863 6.19727 15.9336 6.86523 17.084 7.9043L18.1973 6.79102C18.5312 6.45703 19.0879 6.45703 19.4219 6.79102C19.793 7.16211 19.793 7.71875 19.4219 8.05273L18.2715 9.20312C19.1621 10.4648 19.7188 12.0234 19.7188 13.6562C19.7188 17.9238 16.2305 21.375 12 21.375C7.73242 21.375 4.28125 17.9238 4.28125 13.6562C4.28125 9.72266 7.25 6.45703 11.1094 6.01172V4.15625H9.92188C9.40234 4.15625 9.03125 3.78516 9.03125 3.26562ZM12 19.5938C15.2656 19.5938 17.9375 16.959 17.9375 13.6562C17.9375 10.3906 15.2656 7.71875 12 7.71875C8.69727 7.71875 6.0625 10.3906 6.0625 13.6562C6.0625 16.959 8.69727 19.5938 12 19.5938Z" fill="currentColor"/>
</svg>
