<svg width="24" height="24" viewBox="0 0 24 24" fill="currentColor" xmlns="http://www.w3.org/2000/svg">
<path d="M19.3477 13.0996C18.8652 12.9512 18.3828 13.2109 18.2344 13.6934C17.4551 16.4766 14.8574 18.4062 11.9629 18.4062C9.47656 18.4062 7.25 16.9961 6.13672 14.8438H9.88477C10.3672 14.8438 10.7754 14.4727 10.7754 13.9531C10.7754 13.4707 10.4043 13.0625 9.88477 13.0625H3.94727C3.46484 13.0625 3.05664 13.4707 3.05664 13.9531V19.8906C3.05664 20.4102 3.46484 20.7812 3.94727 20.7812C4.4668 20.7812 4.83789 20.4102 4.83789 19.8906V16.1055C6.32227 18.5918 9.03125 20.1875 11.9629 20.1875C15.6367 20.1875 18.9023 17.7383 19.9414 14.2129C20.0898 13.7305 19.8301 13.248 19.3477 13.0996ZM20.0156 2.96875C19.4961 2.96875 19.125 3.37695 19.125 3.85938V7.68164C17.6406 5.19531 14.9316 3.5625 12 3.5625C8.32617 3.5625 5.02344 6.04883 3.98438 9.57422C3.87305 10.0195 4.13281 10.5391 4.61523 10.6504C5.09766 10.7988 5.58008 10.5391 5.69141 10.0566C6.50781 7.31055 9.10547 5.34375 12 5.34375C14.4492 5.34375 16.6758 6.79102 17.7891 8.90625H14.0781C13.5586 8.90625 13.1875 9.31445 13.1875 9.79688C13.1875 10.3164 13.5586 10.6875 14.0781 10.6875H20.0156C20.498 10.6875 20.9062 10.3164 20.9062 9.79688V3.85938C20.9062 3.37695 20.498 2.96875 20.0156 2.96875Z" fill="currentColor"/>
</svg>
