<svg width="24" height="24" viewBox="0 0 24 24" fill="currentColor" xmlns="http://www.w3.org/2000/svg">
<path d="M6.65625 7.71875C6.65625 7.08789 7.17578 6.53125 7.84375 6.53125C8.47461 6.53125 9.03125 7.08789 9.03125 7.71875C9.03125 8.38672 8.47461 8.90625 7.84375 8.90625C7.17578 8.90625 6.65625 8.38672 6.65625 7.71875ZM10.998 3.5625C11.6289 3.5625 12.2227 3.82227 12.668 4.26758L19.1992 10.7988C20.127 11.7266 20.127 13.248 19.1992 14.1758L14.2637 19.1113C13.3359 20.0391 11.8145 20.0391 10.8867 19.1113L4.35547 12.5801C3.91016 12.1348 3.6875 11.541 3.6875 10.9102V5.34375C3.6875 4.37891 4.4668 3.5625 5.46875 3.5625H10.998ZM5.61719 11.3184L12.1484 17.8496C12.3711 18.1094 12.7793 18.1094 13.002 17.8496L17.9375 12.9141C18.1973 12.6914 18.1973 12.2832 17.9375 12.0605L11.4062 5.5293C11.2949 5.41797 11.1465 5.34375 10.998 5.34375H5.46875V10.9102C5.46875 11.0586 5.50586 11.207 5.61719 11.3184Z" fill="currentColor"/>
</svg>
