<svg width="24" height="24" viewBox="0 0 24 24" fill="currentColor" xmlns="http://www.w3.org/2000/svg">
<path d="M20.0156 8.64648C21.9824 10.6133 21.9824 13.7676 20.0156 15.7344L15.8594 19.9277C15.5254 20.2988 14.9688 20.2988 14.5977 19.9648C14.2637 19.5938 14.2637 19.0371 14.5977 18.7031L18.7539 14.4727C20.0156 13.2109 20.0156 11.1699 18.7539 9.9082L14.0039 5.08398C13.6699 4.75 13.6699 4.19336 14.041 3.82227C14.375 3.48828 14.9316 3.48828 15.2656 3.85938L20.0156 8.64648ZM7.84375 7.71875C7.84375 8.38672 7.28711 8.90625 6.65625 8.90625C5.98828 8.90625 5.46875 8.38672 5.46875 7.71875C5.46875 7.08789 5.98828 6.53125 6.65625 6.53125C7.28711 6.53125 7.84375 7.08789 7.84375 7.71875ZM17.7148 10.502C18.6426 11.4297 18.6426 12.9512 17.7148 13.8789L12.7793 18.8145C11.8516 19.7422 10.3301 19.7422 9.40234 18.8145L3.16797 12.5801C2.72266 12.1348 2.5 11.541 2.5 10.9102V5.34375C2.5 4.37891 3.2793 3.5625 4.28125 3.5625H9.81055C10.4414 3.5625 11.0352 3.82227 11.4805 4.26758L17.7148 10.502ZM4.28125 5.34375V10.9102C4.28125 11.0586 4.31836 11.207 4.42969 11.3184L10.6641 17.5527C10.8867 17.8125 11.2949 17.8125 11.5176 17.5527L16.4531 12.6172C16.7129 12.3945 16.7129 11.9863 16.4531 11.7637L10.2188 5.5293C10.1074 5.41797 9.95898 5.34375 9.81055 5.34375H4.28125Z" fill="currentColor"/>
</svg>
