<svg width="24" height="24" viewBox="0 0 24 24" fill="currentColor" xmlns="http://www.w3.org/2000/svg">
<path d="M6.0625 9.5H3.6875C3.01953 9.5 2.5 10.0195 2.5 10.6504V18.9258C2.5 19.5566 3.01953 20.0762 3.6875 20.0762H6.0625C6.69336 20.0762 7.25 19.5566 7.25 18.9258V10.6875C7.25 10.0566 6.69336 9.5 6.0625 9.5ZM21.5 10.7988C21.5 9.46289 20.3496 8.34961 19.0137 8.34961H15.3027C15.6367 7.42188 15.8594 6.60547 15.8594 6.12305C15.8594 4.86133 14.8574 3.59961 13.2246 3.59961C11.5176 3.59961 11.0352 4.78711 10.6641 5.75195C9.47656 8.75781 8.4375 8.20117 8.4375 9.20312C8.4375 9.68555 8.80859 10.0938 9.32812 10.0938C9.51367 10.0938 9.69922 10.0566 9.84766 9.9082C12.7051 7.64453 12 5.38086 13.2246 5.38086C13.8555 5.38086 14.0781 5.82617 14.0781 6.12305C14.0781 6.41992 13.7812 7.60742 13.1133 8.79492C13.0391 8.94336 13.002 9.0918 13.002 9.24023C13.002 9.75977 13.4102 10.0938 13.8926 10.0938H18.9766C19.3848 10.1309 19.7188 10.4277 19.7188 10.7988C19.7188 11.1699 19.4219 11.5039 19.0508 11.5039C18.5684 11.541 18.1973 11.9492 18.1973 12.3945C18.1973 12.9883 18.6426 12.9883 18.6426 13.4707C18.6426 14.3984 17.3438 13.916 17.3438 15.0293C17.3438 15.4375 17.5664 15.5117 17.5664 15.8457C17.5664 16.6992 16.4531 16.3652 16.4531 17.3672C16.4531 17.5527 16.5273 17.5898 16.5273 17.7383C16.5273 18.1094 16.1934 18.4434 15.8223 18.4434H13.8555C12.8906 18.4434 11.9629 18.1094 11.2207 17.5527L9.84766 16.5137C9.69922 16.4023 9.51367 16.3281 9.32812 16.3281C8.80859 16.3281 8.40039 16.7734 8.40039 17.2188C8.40039 17.5156 8.54883 17.7754 8.77148 17.9609L10.1445 18.9629C11.2207 19.7793 12.5195 20.1875 13.8555 20.1875H15.8223C17.1211 20.1875 18.1973 19.1855 18.2715 17.8867C18.9395 17.4414 19.3477 16.6992 19.3477 15.8457C19.3477 15.7344 19.3477 15.623 19.3477 15.5117C19.9785 15.0664 20.4238 14.3242 20.4238 13.4707C20.4238 13.2852 20.3867 13.0996 20.3496 12.877C21.0176 12.4316 21.5 11.6895 21.5 10.7988Z" fill="currentColor"/>
</svg>
