<svg width="24" height="24" viewBox="0 0 24 24" fill="currentColor" xmlns="http://www.w3.org/2000/svg">
<path d="M6.0625 9.5C6.0625 8.86914 6.58203 8.3125 7.25 8.3125H16.75C17.3809 8.3125 17.9375 8.86914 17.9375 9.5V14.25C17.9375 14.918 17.3809 15.4375 16.75 15.4375H7.25C6.58203 15.4375 6.0625 14.918 6.0625 14.25V9.5ZM16.1562 10.0938H7.84375V13.6562H16.1562V10.0938ZM22.6875 7.125V10.0938C21.6855 10.0938 20.9062 10.9102 20.9062 11.875C20.9062 12.877 21.6855 13.6562 22.6875 13.6562V16.625C22.6875 17.9609 21.6113 19 20.3125 19H3.6875C2.35156 19 1.3125 17.9609 1.3125 16.625V13.6562C2.27734 13.6562 3.09375 12.877 3.09375 11.875C3.09375 10.9102 2.27734 10.0938 1.3125 10.0938V7.125C1.3125 5.82617 2.35156 4.75 3.6875 4.75H20.3125C21.6113 4.75 22.6875 5.82617 22.6875 7.125ZM3.09375 8.79492C4.13281 9.42578 4.875 10.5762 4.875 11.875C4.875 13.2109 4.13281 14.3613 3.09375 14.9922V16.625C3.09375 16.959 3.35352 17.2188 3.6875 17.2188H20.3125C20.6094 17.2188 20.9062 16.959 20.9062 16.625V14.9922C19.8301 14.3613 19.125 13.2109 19.125 11.875C19.125 10.5762 19.8301 9.42578 20.9062 8.79492V7.125C20.9062 6.82812 20.6094 6.53125 20.3125 6.53125H3.6875C3.35352 6.53125 3.09375 6.82812 3.09375 7.125V8.79492Z" fill="currentColor"/>
</svg>
