<svg width="24" height="24" viewBox="0 0 24 24" fill="currentColor" xmlns="http://www.w3.org/2000/svg">
<path d="M8.99414 8.86914C9.32812 8.53516 9.88477 8.53516 10.2188 8.86914L11.9629 10.6504L13.7441 8.86914C14.0781 8.53516 14.6348 8.53516 14.9688 8.86914C15.3398 9.24023 15.3398 9.79688 14.9688 10.1309L13.2246 11.875L14.9688 13.6191C15.3398 13.9902 15.3398 14.5469 14.9688 14.8809C14.6348 15.252 14.0781 15.252 13.7441 14.8809L11.9629 13.1367L10.2188 14.8809C9.88477 15.252 9.32812 15.252 8.99414 14.8809C8.62305 14.5469 8.62305 13.9902 8.99414 13.6191L10.7383 11.875L8.99414 10.1309C8.62305 9.79688 8.62305 9.24023 8.99414 8.86914ZM21.5 11.875C21.5 17.1445 17.2324 21.375 12 21.375C6.73047 21.375 2.5 17.1445 2.5 11.875C2.5 6.64258 6.73047 2.375 12 2.375C17.2324 2.375 21.5 6.64258 21.5 11.875ZM12 4.15625C7.73242 4.15625 4.28125 7.64453 4.28125 11.875C4.28125 16.1426 7.73242 19.5938 12 19.5938C16.2305 19.5938 19.7188 16.1426 19.7188 11.875C19.7188 7.64453 16.2305 4.15625 12 4.15625Z" fill="currentColor"/>
</svg>
