<svg width="24" height="24" viewBox="0 0 24 24" fill="currentColor" xmlns="http://www.w3.org/2000/svg">
<path d="M7.84375 5.9375C7.84375 7.27344 6.95312 8.42383 5.76562 8.79492V10.9844H12.2969V8.79492C11.0723 8.42383 10.2188 7.27344 10.2188 5.9375C10.2188 4.30469 11.5176 2.96875 13.1875 2.96875C14.8203 2.96875 16.1562 4.30469 16.1562 5.9375C16.1562 7.27344 15.2656 8.42383 14.0781 8.79492V10.9844H20.6836L18.4941 8.98047C18.123 8.64648 18.123 8.08984 18.457 7.71875C18.791 7.34766 19.3477 7.34766 19.7188 7.68164L23.5781 11.2441L23.6152 11.2812C23.7637 11.4297 23.875 11.6523 23.875 11.875C23.875 12.1348 23.7637 12.3574 23.6152 12.5059C23.6152 12.5059 23.5781 12.5059 23.5781 12.543L19.7188 16.1055C19.3477 16.4395 18.791 16.4023 18.457 16.0684C18.123 15.6973 18.123 15.1406 18.4941 14.8066L20.6836 12.7656H9.32812V14.9922C10.5156 15.3633 11.4062 16.5137 11.4062 17.8125C11.4062 19.4824 10.0703 20.7812 8.4375 20.7812C6.76758 20.7812 5.46875 19.4824 5.46875 17.8125C5.46875 16.5137 6.32227 15.3633 7.54688 14.9922V12.7656H1.01562C0.496094 12.7656 0.125 12.3945 0.125 11.875C0.125 11.3926 0.496094 10.9844 1.01562 10.9844H3.98438V8.79492C2.75977 8.42383 1.90625 7.27344 1.90625 5.9375C1.90625 4.30469 3.20508 2.96875 4.875 2.96875C6.50781 2.96875 7.84375 4.30469 7.84375 5.9375ZM4.875 4.75C4.20703 4.75 3.6875 5.30664 3.6875 5.9375C3.6875 6.60547 4.20703 7.125 4.875 7.125C5.50586 7.125 6.0625 6.60547 6.0625 5.9375C6.0625 5.30664 5.50586 4.75 4.875 4.75ZM8.4375 19C9.06836 19 9.625 18.4805 9.625 17.8125C9.625 17.1816 9.06836 16.625 8.4375 16.625C7.76953 16.625 7.25 17.1816 7.25 17.8125C7.25 18.4805 7.76953 19 8.4375 19ZM13.1875 7.125C13.8184 7.125 14.375 6.60547 14.375 5.9375C14.375 5.30664 13.8184 4.75 13.1875 4.75C12.5195 4.75 12 5.30664 12 5.9375C12 6.60547 12.5195 7.125 13.1875 7.125Z" fill="currentColor"/>
</svg>
