<svg width="24" height="24" viewBox="0 0 24 24" fill="currentColor" xmlns="http://www.w3.org/2000/svg">
<path d="M17.6406 16.291C17.9746 16.6621 17.9746 17.2188 17.6406 17.5527C17.2695 17.9238 16.7129 17.9238 16.3789 17.5527L12 13.1367L7.58398 17.5527C7.21289 17.9238 6.65625 17.9238 6.32227 17.5527C5.95117 17.2188 5.95117 16.6621 6.32227 16.291L10.7383 11.875L6.32227 7.45898C5.95117 7.08789 5.95117 6.53125 6.32227 6.19727C6.65625 5.82617 7.21289 5.82617 7.54688 6.19727L12 10.6504L16.416 6.23438C16.75 5.86328 17.3066 5.86328 17.6406 6.23438C18.0117 6.56836 18.0117 7.125 17.6406 7.49609L13.2246 11.875L17.6406 16.291Z" fill="currentColor"/>
</svg>
