<svg width="24" height="24" viewBox="0 0 24 24" fill="currentColor" xmlns="http://www.w3.org/2000/svg">
<path d="M10.7754 5.97461V7.75586L11.8887 8.86914C11.6289 7.57031 12.0371 6.27148 12.9648 5.34375C13.707 4.56445 14.709 4.19336 15.748 4.19336H15.7852L13.6328 6.30859L14.1895 9.64844L17.5293 10.2051L19.6816 8.08984C19.6816 9.12891 19.2734 10.168 18.4941 10.9102C18.1602 11.2812 17.752 11.541 17.3438 11.7266C17.3809 11.7637 17.4551 11.8379 17.5293 11.875L18.6797 13.0254C19.0508 12.8027 19.4219 12.5059 19.7559 12.1719C21.166 10.7988 21.7598 8.68359 21.2773 6.75391C21.166 6.27148 20.832 5.9375 20.3867 5.78906C19.9043 5.67773 19.4219 5.82617 19.125 6.12305L16.9727 8.3125L15.748 8.12695L15.5625 6.90234L17.752 4.75C18.0488 4.45312 18.1973 3.9707 18.0488 3.52539C17.9375 3.04297 17.5664 2.70898 17.1211 2.59766C15.1543 2.11523 13.1133 2.67188 11.7031 4.11914C11.2949 4.49023 10.998 4.89844 10.7383 5.34375H10.7754V5.97461ZM6.43359 19.2227C5.95117 19.7051 5.09766 19.7051 4.61523 19.2227C4.39258 19 4.24414 18.7031 4.24414 18.3691C4.24414 18.0352 4.39258 17.7383 4.61523 17.5156L9.625 12.4688L8.36328 11.207L3.39062 16.1797C2.79688 16.7734 2.5 17.5527 2.5 18.2949C2.46289 19.0742 2.79688 19.8906 3.39062 20.4473C3.94727 21.041 4.72656 21.3379 5.50586 21.3379C6.28516 21.3379 7.06445 21.041 7.6582 20.4473L11.4062 16.7363C11.0352 16.1426 10.8125 15.4746 10.8125 14.7695L6.43359 19.2227ZM21.0918 17.0703L16.75 12.7285C15.8594 11.875 14.5977 11.6895 13.5586 12.209L9.58789 8.23828V5.9375L4.875 2.375L2.5 4.75L6.0625 9.46289H8.36328L12.2969 13.3965C11.8145 14.4355 11.9629 15.7344 12.8164 16.5879L17.1582 20.9297C17.7148 21.4492 18.5684 21.4492 19.125 20.9297L21.0918 18.9629C21.6113 18.4805 21.6113 17.627 21.0918 17.0703Z" fill="currentColor"/>
</svg>
