<svg width="24" height="24" viewBox="0 0 24 24" fill="currentColor" xmlns="http://www.w3.org/2000/svg">
<path d="M5.76562 2.375H9.99609C10.8496 2.375 11.5918 2.89453 11.9258 3.71094L13.7812 8.3125H17.9375V6.79102C17.9375 5.90039 18.123 5.04688 18.5312 4.26758L18.6055 4.08203C18.8281 3.63672 19.3477 3.45117 19.793 3.67383C20.2383 3.89648 20.4238 4.41602 20.2012 4.86133L20.0898 5.04688C19.8301 5.60352 19.7188 6.19727 19.7188 6.79102V8.3125H21.7969C22.9102 8.3125 23.875 9.27734 23.875 10.3906V11.6152C23.875 12.4316 23.4668 13.2109 22.8359 13.7305L22.0566 14.3242C21.4629 13.9531 20.7578 13.7305 20.0156 13.6934L21.7227 12.3203C21.9453 12.1348 22.0938 11.875 22.0938 11.6152V10.3906C22.0938 10.2422 21.9453 10.0938 21.7969 10.0938H13.1875H13.1504H11.1094L11.666 10.6504C12.1484 11.1328 12.1484 11.875 11.666 12.3574L11.4434 12.543C11.5547 12.7285 11.6289 12.9141 11.666 13.0625H11.9629C12.6309 13.0625 13.1875 13.6191 13.1875 14.25V14.8438H16.6758C16.1562 15.3633 15.748 15.957 15.4883 16.625H11.666C11.6289 16.8105 11.5547 16.9961 11.4434 17.1816L11.666 17.3672C12.1484 17.8496 12.1484 18.5918 11.666 19.0742L10.8496 19.8906C10.3672 20.373 9.625 20.373 9.14258 19.8906L8.95703 19.668C8.77148 19.7793 8.58594 19.8535 8.4375 19.8906V20.1875C8.4375 20.8555 7.88086 21.375 7.25 21.375H6.0625C5.39453 21.375 4.875 20.8555 4.875 20.1875V19.8906C4.68945 19.8535 4.50391 19.7793 4.31836 19.668L4.13281 19.8906C3.65039 20.373 2.9082 20.373 2.42578 19.8906L1.60938 19.0742C1.12695 18.5918 1.12695 17.8496 1.60938 17.3672L1.83203 17.1816C1.7207 16.9961 1.64648 16.8105 1.60938 16.625H1.3125C0.644531 16.625 0.125 16.1055 0.125 15.4375V14.25C0.125 13.6191 0.644531 13.0625 1.3125 13.0625H1.60938C1.64648 12.9141 1.7207 12.7285 1.83203 12.543L1.60938 12.3574C1.12695 11.875 1.12695 11.1328 1.60938 10.6504L2.42578 9.83398C2.75977 9.5 3.24219 9.38867 3.6875 9.53711V4.45312C3.6875 3.33984 4.61523 2.375 5.76562 2.375ZM5.76562 4.15625C5.58008 4.15625 5.46875 4.30469 5.46875 4.45312V8.3125H11.8516L10.2559 4.37891C10.2188 4.23047 10.1074 4.15625 9.99609 4.15625H5.76562ZM6.65625 17.8125C8.28906 17.8125 9.625 16.5137 9.625 14.8438C9.625 13.2109 8.28906 11.875 6.65625 11.875C4.98633 11.875 3.6875 13.2109 3.6875 14.8438C3.6875 16.5137 4.98633 17.8125 6.65625 17.8125ZM16.4531 18.1094C16.4531 16.3281 17.9004 14.8438 19.7188 14.8438C21.5 14.8438 22.9844 16.3281 22.9844 18.1094C22.9844 19.9277 21.5 21.375 19.7188 21.375C17.9004 21.375 16.4531 19.9277 16.4531 18.1094ZM19.7188 19.5938C20.5352 19.5938 21.2031 18.9629 21.2031 18.1094C21.2031 17.293 20.5352 16.625 19.7188 16.625C18.8652 16.625 18.2344 17.293 18.2344 18.1094C18.2344 18.9629 18.8652 19.5938 19.7188 19.5938Z" fill="currentColor"/>
</svg>
