<svg width="24" height="24" viewBox="0 0 24 24" fill="currentColor" xmlns="http://www.w3.org/2000/svg">
<path d="M19.4219 5.34375C19.9043 5.34375 20.3125 5.75195 20.3125 6.23438C20.3125 6.75391 19.9043 7.125 19.4219 7.125H18.9766L18.0859 19.1855C17.9746 20.4473 16.9727 21.375 15.7109 21.375H8.25195C6.99023 21.375 5.98828 20.4473 5.87695 19.1855L4.98633 7.125H4.57812C4.05859 7.125 3.6875 6.75391 3.6875 6.23438C3.6875 5.75195 4.05859 5.34375 4.57812 5.34375H7.13867L8.51172 3.30273C8.88281 2.74609 9.55078 2.375 10.2559 2.375H13.707C14.4121 2.375 15.0801 2.74609 15.4512 3.30273L16.8242 5.34375H19.4219ZM10.2559 4.15625C10.1445 4.15625 10.0332 4.23047 9.99609 4.30469L9.29102 5.34375H14.6719L13.9668 4.30469C13.9297 4.23047 13.8184 4.15625 13.707 4.15625H10.2559ZM17.1953 7.125H6.76758L7.6582 19.0742C7.69531 19.3711 7.95508 19.5938 8.25195 19.5938H15.7109C16.0078 19.5938 16.2676 19.3711 16.3047 19.0742L17.1953 7.125Z" fill="currentColor"/>
</svg>
