<svg width="24" height="24" viewBox="0 0 24 24" fill="currentColor" xmlns="http://www.w3.org/2000/svg">
<path d="M0.125 6.23438C0.125 4.78711 1.3125 3.5625 2.79688 3.5625H12.2969C13.7441 3.5625 14.9688 4.78711 14.9688 6.23438V13.0625C14.9688 13.582 14.5605 13.9531 14.0781 13.9531C13.5586 13.9531 13.1875 13.582 13.1875 13.0625V6.23438C13.1875 5.75195 12.7793 5.34375 12.2969 5.34375H2.79688C2.27734 5.34375 1.90625 5.75195 1.90625 6.23438V13.0625C1.90625 13.582 1.49805 13.9531 1.01562 13.9531C0.496094 13.9531 0.125 13.582 0.125 13.0625V6.23438ZM22.6875 17.2188C22.6875 18.8887 21.3516 20.1875 19.7188 20.1875C18.0488 20.1875 16.75 18.8887 16.75 17.2188H10.8125C10.8125 18.8887 9.47656 20.1875 7.84375 20.1875C6.8418 20.1875 5.98828 19.7422 5.46875 19C4.91211 19.7422 4.05859 20.1875 3.09375 20.1875C1.42383 20.1875 0.125 18.8887 0.125 17.2188C0.125 15.5859 1.42383 14.25 3.09375 14.25C4.05859 14.25 4.91211 14.7324 5.46875 15.4375C5.98828 14.7324 6.8418 14.25 7.84375 14.25C8.80859 14.25 9.66211 14.7324 10.2188 15.4375H16.1562V8.60938C16.1562 8.12695 16.5273 7.71875 17.0469 7.71875H19.7188C20.3496 7.71875 20.9434 8.01562 21.3516 8.49805L23.5039 11.1699C23.7266 11.4297 23.875 11.7637 23.875 12.0977V16.0312C23.875 16.6992 23.3184 17.2188 22.6875 17.2188ZM19.9785 9.61133C19.9043 9.57422 19.8301 9.5 19.7188 9.5H17.9375V11.875H21.7969L19.9785 9.61133ZM19.7188 18.4062C20.3496 18.4062 20.9062 17.8867 20.9062 17.2188C20.9062 16.5879 20.3496 16.0312 19.7188 16.0312C19.0508 16.0312 18.5312 16.5879 18.5312 17.2188C18.5312 17.8867 19.0508 18.4062 19.7188 18.4062ZM7.84375 16.0312C7.17578 16.0312 6.65625 16.5879 6.65625 17.2188C6.65625 17.8867 7.17578 18.4062 7.84375 18.4062C8.47461 18.4062 9.03125 17.8867 9.03125 17.2188C9.03125 16.5879 8.47461 16.0312 7.84375 16.0312ZM3.09375 18.4062C3.72461 18.4062 4.28125 17.8867 4.28125 17.2188C4.28125 16.5879 3.72461 16.0312 3.09375 16.0312C2.42578 16.0312 1.90625 16.5879 1.90625 17.2188C1.90625 17.8867 2.42578 18.4062 3.09375 18.4062ZM5.17188 12.1719C5.17188 12.6914 4.76367 13.0625 4.28125 13.0625C3.76172 13.0625 3.39062 12.6914 3.39062 12.1719V7.42188C3.39062 6.93945 3.76172 6.53125 4.28125 6.53125C4.76367 6.53125 5.17188 6.93945 5.17188 7.42188V12.1719ZM8.4375 12.1719C8.4375 12.6914 8.0293 13.0625 7.54688 13.0625C7.02734 13.0625 6.65625 12.6914 6.65625 12.1719V7.42188C6.65625 6.93945 7.02734 6.53125 7.54688 6.53125C8.0293 6.53125 8.4375 6.93945 8.4375 7.42188V12.1719ZM11.7031 12.1719C11.7031 12.6914 11.2949 13.0625 10.8125 13.0625C10.293 13.0625 9.92188 12.6914 9.92188 12.1719V7.42188C9.92188 6.93945 10.293 6.53125 10.8125 6.53125C11.2949 6.53125 11.7031 6.93945 11.7031 7.42188V12.1719Z" fill="currentColor"/>
</svg>
