<svg width="24" height="24" viewBox="0 0 24 24" fill="currentColor" xmlns="http://www.w3.org/2000/svg">
<path d="M13.1875 5.64062C13.1875 3.85938 14.6348 2.375 16.4531 2.375H22.9844C23.4668 2.375 23.875 2.7832 23.875 3.26562C23.875 3.78516 23.4668 4.15625 22.9844 4.15625H16.4531C15.5996 4.15625 14.9688 4.82422 14.9688 5.64062V15.7715L15.8965 15.5117H15.9336C16.5645 14.0645 18.0117 13.0625 19.7188 13.0625C21.9824 13.0625 23.875 14.9551 23.875 17.2188C23.875 19.5195 21.9824 21.375 19.7188 21.375C17.4922 21.375 15.6738 19.668 15.5625 17.4414L1.23828 21.375C0.755859 21.4863 0.273438 21.2266 0.125 20.7441C0.0136719 20.2617 0.273438 19.7793 0.755859 19.6309L13.1875 16.2539V5.64062ZM19.7188 14.8438C18.3828 14.8438 17.3438 15.9199 17.3438 17.2188C17.3438 18.5547 18.3828 19.5938 19.7188 19.5938C21.0176 19.5938 22.0938 18.5547 22.0938 17.2188C22.0938 15.9199 21.0176 14.8438 19.7188 14.8438ZM0.978516 10.0938C0.792969 9.46289 1.16406 8.83203 1.79492 8.64648L3.53906 8.20117L4.28125 11.0586C4.39258 11.3555 4.68945 11.541 5.02344 11.4668L6.17383 11.1699C6.4707 11.0957 6.65625 10.7617 6.58203 10.4277L5.80273 7.57031L7.54688 7.125C8.17773 6.93945 8.80859 7.31055 8.99414 7.94141L10.5156 13.6934C10.7012 14.3242 10.3301 14.9551 9.69922 15.1406L3.94727 16.6621C3.31641 16.8477 2.68555 16.4766 2.5 15.8457L0.978516 10.0938Z" fill="currentColor"/>
</svg>
