<svg width="24" height="24" viewBox="0 0 24 24" fill="currentColor" xmlns="http://www.w3.org/2000/svg">
<path d="M15.4141 4.37891L18.9395 8.90625H20.6094C21.7227 8.90625 22.6875 9.87109 22.6875 10.9844V14.25H22.9844C23.4668 14.25 23.875 14.6582 23.875 15.1406C23.875 15.6602 23.4668 16.0312 22.9844 16.0312H20.832C20.8691 16.2539 20.9062 16.4395 20.9062 16.625C20.9062 18.5918 19.3105 20.1875 17.3438 20.1875C15.3398 20.1875 13.7812 18.5918 13.7812 16.625C13.7812 16.4395 13.7812 16.2539 13.8184 16.0312H10.1445C10.1816 16.2539 10.2188 16.4395 10.2188 16.625C10.2188 18.5918 8.62305 20.1875 6.65625 20.1875C4.65234 20.1875 3.09375 18.5918 3.09375 16.625C3.09375 16.4395 3.09375 16.2539 3.13086 16.0312H1.01562C0.496094 16.0312 0.125 15.6602 0.125 15.1406C0.125 14.6582 0.496094 14.25 1.01562 14.25H1.3125V10.9844C1.3125 9.87109 2.24023 8.90625 3.39062 8.90625H8.4375V5.64062C8.4375 4.52734 9.36523 3.5625 10.5156 3.5625H13.7812C14.4121 3.5625 15.0059 3.85938 15.4141 4.37891ZM10.2188 8.90625H16.6758L14.0039 5.49219C13.9668 5.41797 13.8555 5.34375 13.7812 5.34375H10.4785C10.3301 5.34375 10.1816 5.49219 10.1816 5.64062L10.2188 8.90625ZM3.98438 14.25C4.65234 13.5449 5.58008 13.0625 6.65625 13.0625C7.69531 13.0625 8.62305 13.5449 9.29102 14.25H14.6719C15.3398 13.5449 16.2676 13.0625 17.3438 13.0625C18.3828 13.0625 19.3105 13.5449 19.9785 14.25H20.9062V10.9844C20.9062 10.8359 20.7578 10.6875 20.6094 10.6875H3.39062C3.20508 10.6875 3.09375 10.8359 3.09375 10.9844V14.25H3.98438ZM6.65625 14.8438C5.6543 14.8438 4.875 15.6602 4.875 16.625C4.875 17.627 5.6543 18.4062 6.65625 18.4062C7.62109 18.4062 8.4375 17.627 8.4375 16.625C8.4375 15.6602 7.62109 14.8438 6.65625 14.8438ZM17.3438 18.4062C18.3086 18.4062 19.125 17.627 19.125 16.625C19.125 15.6602 18.3086 14.8438 17.3438 14.8438C16.3418 14.8438 15.5625 15.6602 15.5625 16.625C15.5625 17.627 16.3418 18.4062 17.3438 18.4062Z" fill="currentColor"/>
</svg>
