<svg width="24" height="24" viewBox="0 0 24 24" fill="currentColor" xmlns="http://www.w3.org/2000/svg">
<path d="M15.8594 9.5C16.9727 9.5 17.9375 10.4648 17.9375 11.5781V14.8438H19.125V10.0938C19.125 9.87109 19.1992 9.68555 19.3477 9.5L22.3164 6.23438C22.6504 5.90039 23.207 5.86328 23.5781 6.19727C23.9121 6.53125 23.9492 7.08789 23.6152 7.45898L20.9062 10.4648V15.6973L23.6152 18.7031C23.9492 19.0742 23.9121 19.6309 23.5781 19.9648C23.207 20.2988 22.6504 20.2617 22.3164 19.9277L19.3477 16.6621V16.625H17.3438C17.3438 18.5918 15.748 20.1875 13.7812 20.1875C11.7773 20.1875 10.2188 18.5918 10.2188 16.625H8.4375C8.4375 18.5918 6.8418 20.1875 4.875 20.1875C2.87109 20.1875 1.3125 18.5918 1.3125 16.625C0.607422 16.4766 0.125 15.8828 0.125 15.1406V11.5781C0.125 10.4648 1.05273 9.5 2.20312 9.5H4.875V5.64062C4.875 4.52734 5.80273 3.5625 6.95312 3.5625H10.1445C10.8496 3.5625 11.5176 3.9707 11.8887 4.56445L14.8203 9.35156C14.8574 9.38867 14.8945 9.46289 14.8945 9.5H15.8594ZM6.91602 5.34375C6.76758 5.34375 6.61914 5.49219 6.61914 5.64062V9.5H12.8164L10.3672 5.49219C10.3301 5.41797 10.2188 5.34375 10.1445 5.34375H6.91602ZM16.1562 13.9902V11.5781C16.1562 11.4297 16.0078 11.2812 15.8594 11.2812H2.16602C2.01758 11.2812 1.86914 11.4297 1.86914 11.5781V14.6582C2.53711 13.6934 3.61328 13.0625 4.83789 13.0625C6.17383 13.0625 7.32422 13.8047 7.95508 14.8438H10.6641C11.2949 13.8047 12.4453 13.0625 13.7812 13.0625C14.6719 13.0625 15.5254 13.4336 16.1562 13.9902ZM4.83789 14.8438C3.87305 14.8438 3.05664 15.6602 3.05664 16.625C3.05664 17.627 3.87305 18.4062 4.83789 18.4062C5.83984 18.4062 6.61914 17.627 6.61914 16.625C6.61914 15.6602 5.83984 14.8438 4.83789 14.8438ZM13.7812 18.4062C14.7461 18.4062 15.5625 17.627 15.5625 16.625C15.5625 15.6602 14.7461 14.8438 13.7812 14.8438C12.7793 14.8438 11.9629 15.6602 11.9629 16.625C11.9629 17.627 12.7793 18.4062 13.7812 18.4062Z" fill="currentColor"/>
</svg>
