<svg width="24" height="24" viewBox="0 0 24 24" fill="currentColor" xmlns="http://www.w3.org/2000/svg">
<g clip-path="url(#clip0_804_240)">
<path fill-rule="evenodd" clip-rule="evenodd" d="M0.125 6.03824V15.4375C0.125 16.7734 1.16406 17.8125 2.5 17.8125C2.5 19.7793 4.05859 21.375 6.0625 21.375C8.0293 21.375 9.625 19.7793 9.625 17.8125H14.375C14.375 19.7793 15.9336 21.375 17.9375 21.375C18.4473 21.375 18.9322 21.2678 19.3708 21.0747L17.3568 19.5012C16.9678 19.372 16.6434 19.1151 16.4302 18.7773L12.9155 16.0312H9.14258C8.51172 14.9922 7.36133 14.25 6.0625 14.25C4.72656 14.25 3.57617 14.9922 2.94531 16.0312H2.5C2.16602 16.0312 1.90625 15.7715 1.90625 15.4375V7.4299L0.125 6.03824ZM13.7812 9.9621V4.75C13.7812 4.45312 13.4844 4.15625 13.1875 4.15625H6.3501L4.07021 2.375H13.1875C14.4863 2.375 15.5625 3.45117 15.5625 4.75V5.9375H17.1211C17.6777 5.9375 18.1973 6.16016 18.6055 6.56836L22.0566 10.0195C22.4648 10.4277 22.6875 10.9473 22.6875 11.5039V16.0312H22.9844C23.4668 16.0312 23.875 16.4395 23.875 16.9219C23.875 17.206 23.7529 17.4458 23.5633 17.6047L13.7812 9.9621ZM17.1211 7.71875C17.1953 7.71875 17.2695 7.75586 17.3438 7.83008L20.7949 11.2812H15.5625V7.71875H17.1211ZM4.28125 17.8125C4.28125 16.8477 5.06055 16.0312 6.0625 16.0312C7.02734 16.0312 7.84375 16.8477 7.84375 17.8125C7.84375 18.8145 7.02734 19.5938 6.0625 19.5938C5.06055 19.5938 4.28125 18.8145 4.28125 17.8125Z" fill="currentColor"/>
<rect x="-0.0999756" y="3.6001" width="1.75" height="29.2376" rx="0.5" transform="rotate(-52 -0.0999756 3.6001)" fill="currentColor"/>
<path d="M3.1687 11.7695H2.42407V8.2002H4.46997V8.82031H3.1687V9.74072H4.37964V10.3584H3.1687V11.7695Z" fill="currentColor"/>
<path d="M5.92505 9.78467H6.16919C6.40845 9.78467 6.58504 9.74479 6.69897 9.66504C6.81291 9.58529 6.86987 9.45996 6.86987 9.28906C6.86987 9.11979 6.81128 8.99935 6.69409 8.92773C6.57853 8.85612 6.39868 8.82031 6.15454 8.82031H5.92505V9.78467ZM5.92505 10.3999V11.7695H5.16821V8.2002H6.20825C6.69328 8.2002 7.05216 8.2889 7.28491 8.46631C7.51766 8.64209 7.63403 8.90983 7.63403 9.26953C7.63403 9.47949 7.57625 9.66667 7.46069 9.83105C7.34513 9.99382 7.18156 10.1216 6.96997 10.2144L8.01978 11.7695H7.17993L6.32788 10.3999H5.92505Z" fill="currentColor"/>
<path d="M10.5247 11.7695H8.46899V8.2002H10.5247V8.82031H9.22583V9.604H10.4343V10.2241H9.22583V11.1445H10.5247V11.7695Z" fill="currentColor"/>
<path d="M13.3274 11.7695H11.2717V8.2002H13.3274V8.82031H12.0286V9.604H13.2371V10.2241H12.0286V11.1445H13.3274V11.7695Z" fill="currentColor"/>
</g>
<defs>
<clipPath id="clip0_804_240">
<rect width="24" height="24" fill="currentColor"/>
</clipPath>
</defs>
</svg>
