<svg width="24" height="24" viewBox="0 0 24 24" fill="currentColor" xmlns="http://www.w3.org/2000/svg">
<g clip-path="url(#clip0_1285_663)">
<path d="M12.5444 13.3901C12.3244 13.5638 12.0674 13.6814 11.7945 13.7335C11.5216 13.7856 11.2405 13.7706 10.9743 13.6898C10.7081 13.6089 10.4645 13.4645 10.2633 13.2684C10.0621 13.0723 9.90913 12.83 9.81695 12.5616C9.72477 12.2931 9.69601 12.0061 9.73301 11.724C9.77001 11.442 9.87172 11.1729 10.0298 10.939C10.1879 10.705 10.3978 10.5128 10.6424 10.3782C10.887 10.2435 11.1592 10.1702 11.4368 10.1643C11.9082 10.1685 12.3596 10.3605 12.6954 10.6998C12.7139 10.7187 12.7307 10.7392 12.7458 10.7611C13.141 10.1618 13.6263 9.63048 14.1838 9.1869C13.455 8.45786 12.4771 8.04978 11.4588 8.04978C10.4405 8.04978 9.4626 8.45786 8.7338 9.1869C8.3714 9.55012 8.08344 9.98391 7.88685 10.4628C7.69025 10.9417 7.58898 11.456 7.58898 11.9756C7.58898 12.4952 7.69025 13.0095 7.88685 13.4884C8.08344 13.9673 8.3714 14.4011 8.7338 14.7643C9.45204 15.4988 10.4223 15.9157 11.4368 15.9256C12.4406 15.9174 13.4041 15.5198 14.1334 14.8127L13.0227 13.9579C12.8328 13.798 12.671 13.606 12.5444 13.3901ZM18.3719 4.94819C18.2134 4.77727 18.0053 4.66332 17.7786 4.62323C17.5518 4.58313 17.3185 4.61904 17.1133 4.72562L15.9364 5.44174C15.5657 5.16766 15.1719 4.92801 14.7596 4.72562V3.39013C14.7674 3.15152 14.6928 2.91775 14.5489 2.73006C14.4049 2.54238 14.201 2.41285 13.9729 2.36432C12.3352 1.874 10.5949 1.874 8.95722 2.36432C8.73137 2.4187 8.52998 2.5495 8.38554 2.73561C8.2411 2.92173 8.16204 3.1523 8.16112 3.39013V4.72884C7.74978 4.93489 7.35519 5.17437 6.98113 5.44496L5.80429 4.72884C5.60114 4.61341 5.36563 4.57255 5.13675 4.61303C4.90786 4.6535 4.69932 4.77288 4.54564 4.95142C3.01952 6.60303 2.62619 7.53206 2.05979 9.32561C1.97686 9.55802 1.98008 9.81357 2.06883 10.0437C2.15758 10.2738 2.32569 10.4626 2.54123 10.574L3.71807 11.2869C3.67409 11.7471 3.67409 12.2106 3.71807 12.6708L2.54123 13.3417C2.32569 13.4532 2.15758 13.6419 2.06883 13.872C1.98008 14.1022 1.97686 14.3577 2.05979 14.5901C2.62619 16.374 3.00379 17.3127 4.54564 19.0063C4.70851 19.1713 4.91898 19.278 5.14575 19.3105C5.37252 19.3431 5.60348 19.2997 5.80429 19.1869L6.98113 18.4708C7.35487 18.7447 7.74947 18.9874 8.16112 19.1966V20.6224C8.1676 20.8568 8.24718 21.0829 8.38819 21.2675C8.52921 21.4521 8.72422 21.5855 8.94463 21.6482C10.5841 22.1256 12.3209 22.1256 13.9604 21.6482C14.0887 21.6246 14.2109 21.574 14.3192 21.4996C14.4275 21.4252 14.5196 21.3286 14.5897 21.2159C14.4675 20.8472 14.4059 20.4602 14.4072 20.0708C14.4055 19.4416 14.5709 18.8239 14.8855 18.2837C14.75 17.9801 14.6812 17.6497 14.6841 17.3159V16.9934C14.6841 16.9095 14.6841 16.8256 14.6841 16.745C14.2764 17.0453 13.8266 17.2802 13.3499 17.4417L12.6514 17.7095V19.7192C11.8573 19.8514 11.0477 19.8514 10.2536 19.7192V17.7095L9.55508 17.4417C8.90243 17.2164 8.29636 16.8685 7.76779 16.4159L7.21713 15.9321L5.5148 16.8998C5.00064 16.256 4.58863 15.5331 4.2939 14.7579L5.99623 13.7901L5.86407 13.0321C5.73509 12.3242 5.73509 11.598 5.86407 10.8901L5.99623 10.1772L4.2939 9.15141C4.59791 8.38078 5.00914 7.65932 5.5148 7.00948L7.21713 8.03529L7.78352 7.54497C8.29807 7.06154 8.90744 6.6964 9.57081 6.474L10.2694 6.20626V4.19658C11.0663 4.10947 11.8701 4.10947 12.6671 4.19658V6.20626L13.3656 6.474C14.029 6.6964 14.6384 7.06154 15.1529 7.54497L15.713 8.03529L17.4122 7.00948C17.6497 7.31641 17.8663 7.63976 18.0604 7.97722C18.9671 7.99437 19.858 8.22271 20.6658 8.64497C20.2159 7.1611 19.3411 6.02561 18.3719 4.95465V4.94819ZM12.5444 13.3901C12.3244 13.5638 12.0674 13.6814 11.7945 13.7335C11.5216 13.7856 11.2405 13.7706 10.9743 13.6898C10.7081 13.6089 10.4645 13.4645 10.2633 13.2684C10.0621 13.0723 9.90913 12.83 9.81695 12.5616C9.72477 12.2931 9.69601 12.0061 9.73301 11.724C9.77001 11.442 9.87172 11.1729 10.0298 10.939C10.1879 10.705 10.3978 10.5128 10.6424 10.3782C10.887 10.2435 11.1592 10.1702 11.4368 10.1643C11.9082 10.1685 12.3596 10.3605 12.6954 10.6998C12.7139 10.7187 12.7307 10.7392 12.7458 10.7611C13.141 10.1618 13.6263 9.63048 14.1838 9.1869C13.455 8.45786 12.4771 8.04978 11.4588 8.04978C10.4405 8.04978 9.4626 8.45786 8.7338 9.1869C8.3714 9.55012 8.08344 9.98391 7.88685 10.4628C7.69025 10.9417 7.58898 11.456 7.58898 11.9756C7.58898 12.4952 7.69025 13.0095 7.88685 13.4884C8.08344 13.9673 8.3714 14.4011 8.7338 14.7643C9.45204 15.4988 10.4223 15.9157 11.4368 15.9256C12.4406 15.9174 13.4041 15.5198 14.1334 14.8127L13.0227 13.9579C12.8328 13.798 12.671 13.606 12.5444 13.3901ZM12.5444 13.3901C12.3244 13.5638 12.0674 13.6814 11.7945 13.7335C11.5216 13.7856 11.2405 13.7706 10.9743 13.6898C10.7081 13.6089 10.4645 13.4645 10.2633 13.2684C10.0621 13.0723 9.90913 12.83 9.81695 12.5616C9.72477 12.2931 9.69601 12.0061 9.73301 11.724C9.77001 11.442 9.87172 11.1729 10.0298 10.939C10.1879 10.705 10.3978 10.5128 10.6424 10.3782C10.887 10.2435 11.1592 10.1702 11.4368 10.1643C11.9082 10.1685 12.3596 10.3605 12.6954 10.6998C12.7139 10.7187 12.7307 10.7392 12.7458 10.7611C13.141 10.1618 13.6263 9.63048 14.1838 9.1869C13.455 8.45786 12.4771 8.04978 11.4588 8.04978C10.4405 8.04978 9.4626 8.45786 8.7338 9.1869C8.3714 9.55012 8.08344 9.98391 7.88685 10.4628C7.69025 10.9417 7.58898 11.456 7.58898 11.9756C7.58898 12.4952 7.69025 13.0095 7.88685 13.4884C8.08344 13.9673 8.3714 14.4011 8.7338 14.7643C9.45204 15.4988 10.4223 15.9157 11.4368 15.9256C12.4406 15.9174 13.4041 15.5198 14.1334 14.8127L13.0227 13.9579C12.8328 13.798 12.671 13.606 12.5444 13.3901Z" fill="currentColor"/>
<path d="M22.0063 13.3321C22.0063 14.7579 21.207 15.4418 20.4518 15.9128C19.7753 16.3386 19.1334 16.5999 19.1334 17.0741V17.316C19.1361 17.3803 19.1257 17.4444 19.1029 17.5044C19.0802 17.5643 19.0455 17.6187 19.0011 17.6642C18.9567 17.7097 18.9036 17.7453 18.8452 17.7686C18.7867 17.792 18.7241 17.8026 18.6614 17.7999H16.893C16.8303 17.8026 16.7677 17.792 16.7093 17.7686C16.6508 17.7453 16.5977 17.7097 16.5533 17.6642C16.5089 17.6187 16.4743 17.5643 16.4515 17.5044C16.4287 17.4444 16.4183 17.3803 16.421 17.316V16.9934C16.4184 16.7755 16.4459 16.5583 16.5028 16.3483C16.7514 15.3805 17.5695 14.9128 18.2209 14.516L18.2681 14.487C18.9761 14.0837 19.4103 13.8418 19.4103 13.3192C19.4103 12.5934 18.545 12.1482 17.837 12.1482C17.606 12.1448 17.3761 12.1819 17.1573 12.2579C16.6696 12.4321 16.3298 12.8128 15.8987 13.3579C15.8187 13.4564 15.705 13.5197 15.5808 13.5347C15.4567 13.5497 15.3317 13.5153 15.2316 13.4386L15.0711 13.316L14.1271 12.5934C14.0797 12.557 14.04 12.5112 14.0103 12.4588C13.9805 12.4063 13.9614 12.3482 13.9541 12.288C13.9467 12.2277 13.9513 12.1666 13.9675 12.1083C13.9837 12.0499 14.0113 11.9955 14.0485 11.9483C14.3337 11.4875 14.6848 11.0732 15.09 10.7192C15.7928 10.1261 16.6662 9.78609 17.5758 9.75148C17.708 9.75148 17.8433 9.73535 17.9817 9.73535C18.8394 9.74825 19.674 10.0222 20.3795 10.5224C21.3235 11.1805 22.0063 12.1837 22.0063 13.3321Z" fill="currentColor"/>
<path d="M19.4418 20.0647C19.4439 20.2877 19.4026 20.5089 19.3203 20.7153C19.238 20.9217 19.1164 21.1093 18.9626 21.267C18.8088 21.4247 18.6258 21.5493 18.4245 21.6337C18.2231 21.718 18.0073 21.7604 17.7898 21.7582C17.5714 21.7635 17.3543 21.7233 17.1515 21.6401C16.9488 21.5569 16.7646 21.4323 16.6102 21.274C16.4557 21.1157 16.3342 20.9268 16.253 20.719C16.1718 20.5111 16.1326 20.2885 16.1378 20.0647C16.1349 19.6295 16.2961 19.2099 16.5878 18.8937C16.7618 18.7051 16.9777 18.5623 17.2171 18.4776C17.4035 18.407 17.6006 18.371 17.7992 18.3711C17.9838 18.3702 18.1671 18.4029 18.3405 18.4679C18.4695 18.5137 18.5922 18.5766 18.7055 18.655C18.9322 18.8094 19.118 19.0189 19.2465 19.2649C19.375 19.5109 19.4421 19.7856 19.4418 20.0647Z" fill="currentColor"/>
</g>
<defs>
<clipPath id="clip0_1285_663">
<rect width="20" height="20" fill="currentColor" transform="translate(2 2)"/>
</clipPath>
</defs>
</svg>
