<svg width="25" height="24" viewBox="0 0 25 24" fill="currentColor" xmlns="http://www.w3.org/2000/svg">
<path d="M7.01367 6.86523C9.12891 5.19531 12.1719 5.34375 14.1016 7.27344C15.6973 8.86914 16.0684 11.2812 15.1777 13.248L16.8848 14.584L20.4102 11.0586C21.7832 9.64844 21.7832 7.42188 20.4102 6.01172C19.0742 4.71289 16.959 4.63867 15.5488 5.86328L15.3262 6.04883C14.9551 6.38281 14.3984 6.3457 14.0645 5.97461C13.7305 5.60352 13.7676 5.04688 14.1387 4.71289L14.3613 4.52734C16.4766 2.67188 19.668 2.7832 21.6719 4.75C23.75 6.82812 23.75 10.2051 21.6719 12.3203L18.2949 15.6973L23.5273 19.8164C23.9355 20.1133 24.0098 20.6699 23.6758 21.041C23.3789 21.4492 22.8223 21.5234 22.4512 21.1895L0.482422 3.9707C0.0742188 3.67383 0 3.11719 0.333984 2.74609C0.630859 2.33789 1.1875 2.26367 1.55859 2.59766L7.01367 6.86523ZM8.49805 8.01562L13.7305 12.0977C14.1016 10.873 13.8047 9.5 12.8398 8.53516C11.6523 7.34766 9.83398 7.16211 8.49805 8.01562ZM9.9082 16.5137C8.79492 15.4004 8.27539 13.916 8.34961 12.4316L10.3535 14.0273C10.5391 14.4727 10.7988 14.8809 11.1699 15.252C11.7266 15.8457 12.4688 16.1797 13.2109 16.2539L15.2148 17.8496C13.3965 18.4062 11.3555 17.9609 9.9082 16.5137ZM4.45312 9.35156L5.86328 10.4648L3.59961 12.7285C2.22656 14.1387 2.22656 16.3652 3.59961 17.7754C4.93555 19.0742 7.05078 19.1484 8.46094 17.9238L8.68359 17.7383C9.05469 17.4043 9.61133 17.4414 9.94531 17.8125C10.2793 18.1836 10.2422 18.7402 9.87109 19.0742L9.64844 19.2598C7.5332 21.1152 4.3418 21.0039 2.33789 19.0371C0.259766 16.959 0.259766 13.5449 2.33789 11.4668L4.45312 9.35156Z" fill="currentColor"/>
</svg>
