<svg width="24" height="24" viewBox="0 0 24 24" fill="currentColor" xmlns="http://www.w3.org/2000/svg">
<path d="M9.29102 13.3223L6.24805 16.3652L4.50391 14.6211C4.28125 14.3984 3.98438 14.25 3.65039 14.25C3.50195 14.25 3.35352 14.2871 3.20508 14.3613C2.75977 14.5469 2.46289 14.9922 2.46289 15.4375V20.4844C2.5 21.0039 2.87109 21.375 3.39062 21.375H8.4375C8.88281 21.375 9.32812 21.1152 9.51367 20.6699C9.69922 20.2246 9.58789 19.7051 9.25391 19.3711L7.50977 17.627L10.5156 14.584C10.8867 14.25 10.8867 13.6934 10.5156 13.3594C10.1816 12.9883 9.625 12.9883 9.29102 13.3223ZM20.5723 2.375H15.5254C15.043 2.375 14.5977 2.67188 14.4121 3.11719C14.2266 3.5625 14.3379 4.08203 14.6719 4.41602L16.416 6.16016L13.4102 9.20312C13.0391 9.53711 13.0391 10.0938 13.4102 10.4277C13.7441 10.7988 14.3008 10.7988 14.6719 10.4277L17.6777 7.42188L19.4219 9.16602C19.6445 9.38867 19.9414 9.5 20.2754 9.5C20.4238 9.5 20.5723 9.5 20.7207 9.42578C21.2031 9.24023 21.5 8.79492 21.5 8.3125V3.26562C21.5 2.7832 21.0918 2.375 20.5723 2.375Z" fill="currentColor"/>
</svg>
