<svg width="24" height="24" viewBox="0 0 24 24" fill="currentColor" xmlns="http://www.w3.org/2000/svg">
<path d="M13.7812 13.6562H10.2188C6.58203 13.6562 3.6875 16.5879 3.6875 20.1875C3.6875 20.8555 4.20703 21.375 4.875 21.375H19.125C19.7559 21.375 20.3125 20.8555 20.3125 20.1875C20.3125 16.5879 17.3809 13.6562 13.7812 13.6562ZM5.46875 19.5938C5.76562 17.2559 7.76953 15.4375 10.2188 15.4375H13.7812C16.1934 15.4375 18.1973 17.2559 18.4941 19.5938H5.46875ZM12 11.875C14.5977 11.875 16.75 9.75977 16.75 7.125C16.75 4.52734 14.5977 2.375 12 2.375C9.36523 2.375 7.25 4.52734 7.25 7.125C7.25 9.75977 9.36523 11.875 12 11.875ZM12 4.15625C13.6328 4.15625 14.9688 5.49219 14.9688 7.125C14.9688 8.79492 13.6328 10.0938 12 10.0938C10.3301 10.0938 9.03125 8.79492 9.03125 7.125C9.03125 5.49219 10.3301 4.15625 12 4.15625Z" fill="currentColor"/>
</svg>
