<svg width="24" height="24" viewBox="0 0 24 24" fill="currentColor" xmlns="http://www.w3.org/2000/svg">
<path d="M23.207 12.4688C23.6152 12.6172 23.875 12.9883 23.875 13.3594C23.875 17.998 20.832 20.5586 18.9395 21.2637C18.7539 21.3379 18.457 21.4121 18.0859 21.2637C15.7109 20.3359 13.1875 17.4785 13.1875 13.3594C13.1875 12.9883 13.4473 12.6172 13.8184 12.4688L18.0859 10.7988C18.457 10.6504 18.791 10.7246 18.9395 10.7988L23.207 12.4688ZM18.5312 19.5566C19.793 18.9258 21.834 17.1445 22.0566 13.916L18.5312 12.543V19.5566ZM8.4375 11.875C5.80273 11.875 3.6875 9.75977 3.6875 7.125C3.6875 4.52734 5.80273 2.375 8.4375 2.375C11.0352 2.375 13.1875 4.52734 13.1875 7.125C13.1875 9.75977 11.0352 11.875 8.4375 11.875ZM8.4375 4.15625C6.76758 4.15625 5.46875 5.49219 5.46875 7.125C5.46875 8.79492 6.76758 10.0938 8.4375 10.0938C10.0703 10.0938 11.4062 8.79492 11.4062 7.125C11.4062 5.49219 10.0703 4.15625 8.4375 4.15625ZM15.7852 21.3379C15.1914 20.8555 14.5977 20.2988 14.0781 19.5938H1.94336C2.20312 17.2559 4.20703 15.4375 6.65625 15.4375H10.2188C10.9609 15.4375 11.666 15.6602 12.2969 15.957C12.1484 15.3262 12.0371 14.6582 12 13.916C11.4434 13.7676 10.8125 13.6562 10.2188 13.6562H6.65625C3.01953 13.6562 0.125 16.5879 0.125 20.1875C0.125 20.8555 0.644531 21.375 1.3125 21.375H15.5625C15.6367 21.375 15.7109 21.375 15.7852 21.3379Z" fill="currentColor"/>
</svg>
