<svg width="24" height="24" viewBox="0 0 24 24" fill="currentColor" xmlns="http://www.w3.org/2000/svg">
<path d="M12 6.53125C10.1816 6.53125 8.73438 8.01562 8.73438 9.79688C8.73438 11.6152 10.1816 13.0625 12 13.0625C13.7812 13.0625 15.2656 11.6152 15.2656 9.79688C15.2656 8.01562 13.7812 6.53125 12 6.53125ZM12 11.2812C11.1465 11.2812 10.5156 10.6504 10.5156 9.79688C10.5156 8.98047 11.1465 8.3125 12 8.3125C12.8164 8.3125 13.4844 8.98047 13.4844 9.79688C13.4844 10.6504 12.8164 11.2812 12 11.2812ZM12 2.375C6.73047 2.375 2.5 6.64258 2.5 11.875C2.5 17.1445 6.73047 21.375 12 21.375C17.2324 21.375 21.5 17.1445 21.5 11.875C21.5 6.64258 17.2324 2.375 12 2.375ZM12 19.5938C10.2559 19.5938 8.66016 19.0371 7.36133 18.0723C7.99219 16.8105 9.25391 16.0312 10.6641 16.0312H13.2988C14.709 16.0312 15.9707 16.8477 16.6016 18.0723C15.3027 19.0371 13.707 19.5938 12 19.5938ZM17.9375 16.8105C16.9355 15.252 15.2285 14.25 13.2988 14.25H10.6641C8.73438 14.25 7.02734 15.252 6.02539 16.8105C4.91211 15.4746 4.28125 13.7676 4.28125 11.875C4.28125 7.64453 7.73242 4.15625 12 4.15625C16.2305 4.15625 19.7188 7.64453 19.7188 11.875C19.7188 13.7676 19.0508 15.4746 17.9375 16.8105Z" fill="currentColor"/>
</svg>
