<svg width="24" height="24" viewBox="0 0 24 24" fill="currentColor" xmlns="http://www.w3.org/2000/svg">
<path d="M11.9629 14.25C14.1152 14.25 15.8223 12.543 15.8223 10.3906C15.8223 8.27539 14.0781 6.53125 11.9629 6.53125C9.84766 6.53125 8.14062 8.27539 8.14062 10.3906C8.10352 12.543 9.84766 14.25 11.9629 14.25ZM11.9629 8.3125C13.1133 8.3125 14.041 9.27734 14.041 10.3906C14.041 11.541 13.1133 12.4688 11.9629 12.4688C10.8496 12.4688 9.88477 11.541 9.88477 10.3906C9.88477 9.27734 10.8496 8.3125 11.9629 8.3125ZM19.125 8.3125C20.7578 8.3125 22.0938 7.01367 22.0938 5.34375C22.0938 3.71094 20.7578 2.375 19.125 2.375C17.4551 2.375 16.1562 3.71094 16.1562 5.34375C16.1562 7.01367 17.4551 8.3125 19.125 8.3125ZM13.8184 15.4375H10.1445C7.21289 15.4375 4.875 17.6641 4.875 20.4102C4.875 20.9668 5.32031 21.375 5.91406 21.375H18.0488C18.6426 21.375 19.125 20.9668 19.125 20.4102C19.125 17.6641 16.75 15.4375 13.8184 15.4375ZM6.73047 19.5938C7.10156 18.2578 8.47461 17.2188 10.1074 17.2188H13.8184C15.4512 17.2188 16.8242 18.2578 17.2324 19.5938H6.73047ZM20.5723 9.5H18.3086C17.8262 9.5 17.3809 9.64844 16.9727 9.83398C16.9727 10.0195 17.0098 10.2051 17.0098 10.3906C17.0098 11.6523 16.5645 12.8027 15.7852 13.6562H23.207C23.5781 13.6562 23.875 13.3594 23.875 12.9883C23.875 11.0586 22.3906 9.5 20.5723 9.5ZM6.91602 10.3906C6.91602 10.2051 6.95312 10.0195 6.99023 9.83398C6.58203 9.61133 6.13672 9.5 5.6543 9.5H3.39062C1.57227 9.5 0.125 11.0586 0.125 12.9883C0.125 13.3594 0.384766 13.6562 0.755859 13.6562H8.17773C7.39844 12.8027 6.91602 11.6523 6.91602 10.3906ZM4.875 8.3125C6.50781 8.3125 7.84375 7.01367 7.84375 5.34375C7.84375 3.71094 6.50781 2.375 4.875 2.375C3.20508 2.375 1.90625 3.71094 1.90625 5.34375C1.90625 7.01367 3.20508 8.3125 4.875 8.3125Z" fill="currentColor"/>
</svg>
