<svg width="24" height="24" viewBox="0 0 24 24" fill="currentColor" xmlns="http://www.w3.org/2000/svg">
<path d="M15.3398 15.4375H8.62305C5.87695 15.4375 3.6875 17.6641 3.6875 20.4102C3.6875 20.9668 4.0957 21.375 4.65234 21.375H19.3105C19.8672 21.375 20.3125 20.9668 20.3125 20.4102C20.3125 17.6641 18.0859 15.4375 15.3398 15.4375ZM5.54297 19.5938C5.91406 18.2578 7.13867 17.2188 8.62305 17.2188H15.3398C16.8242 17.2188 18.0488 18.2578 18.4199 19.5938H5.54297ZM12 6.53125C13.6328 6.53125 14.9688 7.86719 14.9688 9.5C14.9688 10.2422 14.6719 10.873 14.2637 11.3926C14.4121 11.541 14.5234 11.7266 14.6348 11.875H14.9688C15.5996 11.875 16.1562 11.541 16.4531 11.0586C16.6387 10.5762 16.75 10.0566 16.75 9.5C16.75 6.90234 14.5977 4.75 12 4.75C9.36523 4.75 7.25 6.90234 7.25 9.5C7.25 11.0215 7.95508 12.3574 9.03125 13.2109C9.03125 13.1738 9.03125 13.1367 9.03125 13.0625C9.03125 12.4316 9.29102 11.8379 9.69922 11.3926C9.29102 10.873 9.03125 10.2422 9.03125 9.5C9.03125 7.86719 10.3301 6.53125 12 6.53125ZM5.46875 10.6875C5.76562 10.6875 6.0625 10.4277 6.0625 10.0938V9.5C6.0625 6.23438 8.69727 3.5625 12 3.5625C15.2656 3.5625 17.9375 6.23438 17.9375 9.5V10.0938C17.9375 11.7637 16.6016 13.0625 14.9688 13.0625H13.7812C13.7812 12.4316 13.2246 11.875 12.5938 11.875H11.4062C10.7383 11.875 10.2188 12.4316 10.2188 13.0625C10.2188 13.7305 10.7383 14.25 11.4062 14.25H14.9688C17.2324 14.25 19.0879 12.3945 19.125 10.0938V9.5C19.125 5.60352 15.8965 2.375 12 2.375C8.06641 2.375 4.875 5.60352 4.875 9.5V10.0938C4.875 10.4277 5.13477 10.6875 5.46875 10.6875Z" fill="currentColor"/>
</svg>
