<svg width="25" height="24" viewBox="0 0 25 24" fill="currentColor" xmlns="http://www.w3.org/2000/svg">
<path d="M23.5273 19.8164L16.7734 14.4727V9.79688L20.9297 7.9043V15.1406C20.9297 15.6602 21.3008 16.0312 21.8203 16.0312C22.3027 16.0312 22.7109 15.6602 22.7109 15.1406V7.42188C22.7109 6.93945 22.4512 6.45703 22.0059 6.19727C21.5977 5.90039 21.041 5.86328 20.5957 6.08594L16.7734 7.83008V7.125C16.7734 5.82617 15.6973 4.75 14.3984 4.75H4.3418L1.55859 2.59766C1.1875 2.26367 0.630859 2.33789 0.333984 2.74609C0 3.11719 0.0742188 3.67383 0.482422 3.9707L22.4141 21.1523C22.5996 21.3379 22.7852 21.375 22.9707 21.375C23.2305 21.375 23.4902 21.2637 23.6758 21.041C24.0098 20.6699 23.9355 20.1133 23.5273 19.8164ZM14.9922 13.0996L6.64258 6.53125H14.3984C14.6953 6.53125 14.9922 6.82812 14.9922 7.125V13.0996ZM14.3984 17.2188H3.71094C3.37695 17.2188 3.11719 16.959 3.11719 16.625V8.27539L1.33594 6.90234C1.33594 6.97656 1.33594 7.05078 1.33594 7.125V16.625C1.33594 17.9609 2.375 19 3.71094 19H14.3984C14.9922 19 15.5488 18.7773 15.9941 18.4062L14.4727 17.2188C14.4355 17.2188 14.4355 17.2188 14.3984 17.2188Z" fill="currentColor"/>
</svg>
