<svg width="24" height="24" viewBox="0 0 24 24" fill="currentColor" xmlns="http://www.w3.org/2000/svg">
<path d="M21.9824 6.19727C21.5742 5.90039 21.0176 5.86328 20.5723 6.08594L16.75 7.83008V7.125C16.75 5.82617 15.6738 4.75 14.375 4.75H3.6875C2.35156 4.75 1.3125 5.82617 1.3125 7.125V16.625C1.3125 17.9609 2.35156 19 3.6875 19H14.375C15.6738 19 16.75 17.9609 16.75 16.625V15.9199L20.5723 17.7012C20.7578 17.7754 20.9805 17.8496 21.166 17.8496C21.4629 17.8496 21.7598 17.7383 21.9824 17.5898C22.4277 17.3301 22.6875 16.8477 22.6875 16.3281V7.42188C22.6875 6.93945 22.4277 6.45703 21.9824 6.19727ZM14.9688 16.625C14.9688 16.959 14.6719 17.2188 14.375 17.2188H3.6875C3.35352 17.2188 3.09375 16.959 3.09375 16.625V7.125C3.09375 6.82812 3.35352 6.53125 3.6875 6.53125H14.375C14.6719 6.53125 14.9688 6.82812 14.9688 7.125V16.625ZM20.9062 15.8828L16.75 13.9902V9.79688L20.9062 7.9043V15.8828Z" fill="currentColor"/>
</svg>
