<svg width="24" height="24" viewBox="0 0 24 24" fill="currentColor" xmlns="http://www.w3.org/2000/svg">
<path d="M12 9C6.48 9 2 11.24 2 14C2 16.24 4.94 18.13 9 18.77V22L13 18L9 14V16.73C5.85 16.17 4 14.83 4 14C4 12.94 7.04 11 12 11C16.96 11 20 12.94 20 14C20 14.73 18.54 15.89 16 16.53V18.58C19.53 17.81 22 16.05 22 14C22 11.24 17.52 9 12 9Z" fill="currentColor"/>
<path d="M8.00098 3.24756C8.00098 3.4139 7.97477 3.56543 7.92236 3.70215C7.86995 3.83887 7.7959 3.95736 7.7002 4.05762C7.60677 4.15788 7.49398 4.24105 7.36182 4.30713C7.22966 4.37093 7.08268 4.4165 6.9209 4.44385V4.46436C7.32422 4.51449 7.6307 4.64323 7.84033 4.85059C8.04997 5.05566 8.15479 5.32341 8.15479 5.65381C8.15479 5.87256 8.11719 6.07308 8.04199 6.25537C7.96908 6.43766 7.85742 6.59489 7.70703 6.72705C7.55664 6.85921 7.36637 6.96175 7.13623 7.03467C6.90609 7.10758 6.63379 7.14404 6.31934 7.14404C6.07096 7.14404 5.83626 7.12467 5.61523 7.08594C5.39648 7.0472 5.19027 6.97656 4.99658 6.87402V6.29297C5.19482 6.39779 5.40902 6.47868 5.63916 6.53564C5.87158 6.59261 6.09375 6.62109 6.30566 6.62109C6.5153 6.62109 6.69645 6.59831 6.84912 6.55273C7.00179 6.50716 7.12712 6.44222 7.2251 6.35791C7.32536 6.2736 7.39827 6.16992 7.44385 6.04688C7.4917 5.92383 7.51562 5.78597 7.51562 5.6333C7.51562 5.47835 7.48486 5.34619 7.42334 5.23682C7.36409 5.12516 7.27865 5.03402 7.16699 4.96338C7.05534 4.89046 6.91862 4.83691 6.75684 4.80273C6.59733 4.76855 6.41618 4.75146 6.21338 4.75146H5.75879V4.23535H6.21338C6.39795 4.23535 6.56201 4.21257 6.70557 4.16699C6.84912 4.12142 6.96875 4.05648 7.06445 3.97217C7.16243 3.88786 7.23649 3.7876 7.28662 3.67139C7.33675 3.55518 7.36182 3.42757 7.36182 3.28857C7.36182 3.17008 7.34131 3.06413 7.30029 2.9707C7.25928 2.87728 7.20117 2.79867 7.12598 2.73486C7.05078 2.66878 6.96077 2.61865 6.85596 2.58447C6.75114 2.55029 6.63493 2.5332 6.50732 2.5332C6.26351 2.5332 6.04818 2.57194 5.86133 2.64941C5.67676 2.72461 5.50016 2.82373 5.33154 2.94678L5.01709 2.51953C5.10368 2.44889 5.19938 2.38281 5.3042 2.32129C5.4113 2.25977 5.52751 2.20622 5.65283 2.16064C5.77816 2.11279 5.91146 2.0752 6.05273 2.04785C6.19629 2.02051 6.34782 2.00684 6.50732 2.00684C6.75342 2.00684 6.96875 2.0376 7.15332 2.09912C7.34017 2.16064 7.49626 2.24723 7.62158 2.35889C7.74691 2.46826 7.84147 2.59928 7.90527 2.75195C7.96908 2.90234 8.00098 3.06755 8.00098 3.24756Z" fill="currentColor"/>
<path d="M8.95801 4.93945C8.95801 4.7002 8.9694 4.46208 8.99219 4.2251C9.01725 3.98812 9.05941 3.76139 9.11865 3.54492C9.18018 3.32617 9.26335 3.12337 9.36816 2.93652C9.47298 2.74967 9.60628 2.58789 9.76807 2.45117C9.92985 2.31217 10.1235 2.20394 10.3491 2.12646C10.5747 2.04671 10.839 2.00684 11.1421 2.00684C11.1854 2.00684 11.2332 2.00798 11.2856 2.01025C11.3381 2.01253 11.3905 2.01709 11.4429 2.02393C11.4976 2.02848 11.5488 2.03532 11.5967 2.04443C11.6468 2.05127 11.6912 2.06038 11.73 2.07178V2.60156C11.6502 2.57422 11.5602 2.55371 11.46 2.54004C11.3597 2.52637 11.2606 2.51953 11.1626 2.51953C10.9575 2.51953 10.7764 2.5446 10.6191 2.59473C10.4642 2.64258 10.3298 2.71094 10.2158 2.7998C10.1019 2.88867 10.0062 2.99463 9.92871 3.11768C9.85352 3.24072 9.79199 3.37744 9.74414 3.52783C9.69629 3.67594 9.66097 3.83431 9.63818 4.00293C9.6154 4.17155 9.60059 4.34701 9.59375 4.5293H9.63477C9.68034 4.44727 9.73503 4.37093 9.79883 4.30029C9.86491 4.22738 9.94124 4.16585 10.0278 4.11572C10.1144 4.06331 10.2113 4.0223 10.3184 3.99268C10.4277 3.96305 10.5496 3.94824 10.6841 3.94824C10.9006 3.94824 11.0965 3.98242 11.272 4.05078C11.4474 4.11686 11.5967 4.21484 11.7197 4.34473C11.8428 4.47461 11.9373 4.63411 12.0034 4.82324C12.0718 5.01009 12.106 5.22428 12.106 5.46582C12.106 5.72559 12.0706 5.95915 12 6.1665C11.9294 6.37386 11.828 6.55046 11.6958 6.69629C11.5636 6.83984 11.4041 6.95036 11.2173 7.02783C11.0304 7.10531 10.8208 7.14404 10.5884 7.14404C10.3605 7.14404 10.1463 7.09961 9.9458 7.01074C9.74756 6.92188 9.57552 6.7863 9.42969 6.604C9.28385 6.42171 9.16878 6.19271 9.08447 5.91699C9.00016 5.64128 8.95801 5.31543 8.95801 4.93945ZM10.5815 6.62109C10.7183 6.62109 10.8424 6.59831 10.9541 6.55273C11.068 6.50488 11.166 6.43424 11.248 6.34082C11.3301 6.24512 11.3927 6.12549 11.436 5.98193C11.4816 5.8361 11.5044 5.66406 11.5044 5.46582C11.5044 5.30632 11.485 5.1639 11.4463 5.03857C11.4098 4.91097 11.354 4.80273 11.2788 4.71387C11.2036 4.625 11.109 4.55664 10.9951 4.50879C10.8835 4.46094 10.7524 4.43701 10.6021 4.43701C10.4494 4.43701 10.3092 4.46436 10.1816 4.51904C10.0563 4.57145 9.94922 4.64095 9.86035 4.72754C9.77148 4.81185 9.70199 4.90869 9.65186 5.01807C9.604 5.12744 9.58008 5.23682 9.58008 5.34619C9.58008 5.49886 9.60059 5.65153 9.6416 5.8042C9.6849 5.95459 9.74756 6.09017 9.82959 6.21094C9.9139 6.33171 10.0187 6.43083 10.144 6.5083C10.2694 6.5835 10.4152 6.62109 10.5815 6.62109Z" fill="currentColor"/>
<path d="M15.9546 4.57031C15.9546 4.97363 15.925 5.3348 15.8657 5.65381C15.8088 5.97282 15.7153 6.24284 15.5854 6.46387C15.4578 6.6849 15.2926 6.85352 15.0898 6.96973C14.887 7.08594 14.641 7.14404 14.3516 7.14404C14.0827 7.14404 13.848 7.08594 13.6475 6.96973C13.4492 6.85352 13.284 6.6849 13.1519 6.46387C13.022 6.24284 12.924 5.97282 12.8579 5.65381C12.7941 5.3348 12.7622 4.97363 12.7622 4.57031C12.7622 4.16699 12.7907 3.80583 12.8477 3.48682C12.9069 3.16781 12.9992 2.89893 13.1245 2.68018C13.2521 2.45915 13.4162 2.29053 13.6167 2.17432C13.8195 2.05811 14.0645 2 14.3516 2C14.6227 2 14.8586 2.05811 15.0591 2.17432C15.2596 2.28825 15.4259 2.45573 15.5581 2.67676C15.6903 2.89551 15.7894 3.16439 15.8555 3.4834C15.9215 3.80241 15.9546 4.16471 15.9546 4.57031ZM13.3945 4.57031C13.3945 4.91211 13.4116 5.21061 13.4458 5.46582C13.48 5.72103 13.5347 5.93408 13.6099 6.10498C13.6851 6.2736 13.783 6.4012 13.9038 6.48779C14.0269 6.5721 14.1761 6.61426 14.3516 6.61426C14.527 6.61426 14.6763 6.5721 14.7993 6.48779C14.9224 6.40348 15.0226 6.27702 15.1001 6.1084C15.1799 5.93978 15.2368 5.72786 15.271 5.47266C15.3075 5.21517 15.3257 4.91439 15.3257 4.57031C15.3257 4.22852 15.3075 3.93001 15.271 3.6748C15.2368 3.4196 15.1799 3.20768 15.1001 3.03906C15.0226 2.87044 14.9224 2.74398 14.7993 2.65967C14.6763 2.57536 14.527 2.5332 14.3516 2.5332C14.1761 2.5332 14.0269 2.57536 13.9038 2.65967C13.783 2.74398 13.6851 2.87044 13.6099 3.03906C13.5347 3.20768 13.48 3.4196 13.4458 3.6748C13.4116 3.93001 13.3945 4.22852 13.3945 4.57031Z" fill="currentColor"/>
<path d="M16.7031 3.08691C16.7031 2.7793 16.8079 2.52295 17.0176 2.31787C17.2272 2.11051 17.4813 2.00684 17.7798 2.00684C18.0828 2.00684 18.3381 2.11165 18.5454 2.32129C18.755 2.53092 18.8599 2.78613 18.8599 3.08691C18.8599 3.38542 18.755 3.63835 18.5454 3.8457C18.3358 4.05306 18.0806 4.15674 17.7798 4.15674C17.4836 4.15674 17.2295 4.05534 17.0176 3.85254C16.8079 3.64746 16.7031 3.39225 16.7031 3.08691ZM17.1235 3.08691C17.1235 3.26693 17.1885 3.42188 17.3184 3.55176C17.4505 3.67936 17.6066 3.74316 17.7866 3.74316C17.9712 3.74316 18.1261 3.67822 18.2515 3.54834C18.3768 3.41846 18.4395 3.26465 18.4395 3.08691C18.4395 2.90462 18.3768 2.74967 18.2515 2.62207C18.1261 2.49219 17.9712 2.42725 17.7866 2.42725C17.6043 2.42725 17.4482 2.49105 17.3184 2.61865C17.1885 2.74626 17.1235 2.90234 17.1235 3.08691Z" fill="currentColor"/>
</svg>
