<svg width="24" height="24" viewBox="0 0 24 24" fill="currentColor" xmlns="http://www.w3.org/2000/svg">
<path d="M20.3125 4.59082C20.3125 4.1084 19.9043 3.7002 19.4219 3.7002H5.76562C3.94727 3.7002 2.5 5.18457 2.5 6.96582V17.0596C2.5 18.8779 3.94727 20.3252 5.76562 20.3252H18.2344C20.0156 20.3252 21.5 18.8779 21.5 17.0596V10.5283C21.5 8.74707 20.0156 7.2627 18.2344 7.2627H6.95312C6.43359 7.2627 6.0625 7.6709 6.0625 8.15332C6.0625 8.67285 6.43359 9.04395 6.95312 9.04395H18.2344C19.0508 9.04395 19.7188 9.71191 19.7188 10.5283V17.0596C19.7188 17.9131 19.0508 18.5439 18.2344 18.5439H5.76562C4.91211 18.5439 4.28125 17.9131 4.28125 17.0596V6.96582C4.28125 6.14941 4.91211 5.48145 5.76562 5.48145H19.4219C19.9043 5.48145 20.3125 5.11035 20.3125 4.59082Z" fill="currentColor"/>
<path d="M16.2188 10.9995C16.4141 11.1948 16.4141 11.4878 16.2188 11.6636L11.0625 16.8198C10.8867 17.0151 10.5938 17.0151 10.418 16.8198L7.76172 14.1636C7.56641 13.9878 7.56641 13.6948 7.76172 13.4995C7.9375 13.3237 8.23047 13.3237 8.40625 13.4995L10.75 15.8433L15.5742 10.9995C15.75 10.8237 16.043 10.8237 16.2188 10.9995Z" fill="currentColor"/>
</svg>
