<svg width="24" height="24" viewBox="0 0 24 24" fill="currentColor" xmlns="http://www.w3.org/2000/svg">
<path d="M19.4219 3.5625C19.9043 3.5625 20.3125 3.9707 20.3125 4.45312C20.3125 4.97266 19.9043 5.34375 19.4219 5.34375H5.76562C4.91211 5.34375 4.28125 6.01172 4.28125 6.82812V16.9219C4.28125 17.7754 4.91211 18.4062 5.76562 18.4062H18.2344C19.0508 18.4062 19.7188 17.7754 19.7188 16.9219V10.3906C19.7188 9.57422 19.0508 8.90625 18.2344 8.90625H6.95312C6.43359 8.90625 6.0625 8.53516 6.0625 8.01562C6.0625 7.5332 6.43359 7.125 6.95312 7.125H18.2344C20.0156 7.125 21.5 8.60938 21.5 10.3906V16.9219C21.5 18.7402 20.0156 20.1875 18.2344 20.1875H5.76562C3.94727 20.1875 2.5 18.7402 2.5 16.9219V6.82812C2.5 5.04688 3.94727 3.5625 5.76562 3.5625H19.4219ZM15.5625 13.6562C15.5625 13.0254 16.082 12.4688 16.75 12.4688C17.3809 12.4688 17.9375 13.0254 17.9375 13.6562C17.9375 14.3242 17.3809 14.8438 16.75 14.8438C16.082 14.8438 15.5625 14.3242 15.5625 13.6562Z" fill="currentColor"/>
</svg>
