<svg width="24" height="24" viewBox="0 0 24 24" fill="currentColor" xmlns="http://www.w3.org/2000/svg">
<g clip-path="url(#clip0_2932_857)">
<path d="M12.1113 4.30469C12.0371 4.26758 11.9258 4.26758 11.8516 4.30469L2.42578 8.12695C2.0918 8.23828 1.90625 8.57227 1.90625 8.94336V20.4844C1.90625 21.0039 1.49805 21.375 1.01562 21.375C0.496094 21.375 0.125 21.0039 0.125 20.4844V8.94336C0.125 7.83008 0.755859 6.86523 1.75781 6.45703L11.1836 2.63477C11.7031 2.44922 12.2598 2.44922 12.7793 2.63477L22.2051 6.45703C23.207 6.86523 23.875 7.83008 23.875 8.94336V20.4844C23.875 21.0039 23.4668 21.375 22.9844 21.375C22.4648 21.375 22.0938 21.0039 22.0938 20.4844V8.94336C22.0938 8.57227 21.8711 8.23828 21.5371 8.12695L12.1113 4.30469ZM5.43164 11.2812V20.4844C5.43164 21.0039 5.06055 21.375 4.54102 21.375C4.05859 21.375 3.65039 21.0039 3.65039 20.4844V10.9844C3.65039 10.168 4.31836 9.5 5.13477 9.5H18.8281C19.6445 9.5 20.3125 10.168 20.3125 10.9844V20.4844C20.3125 21.0039 19.9043 21.375 19.4219 21.375C18.9023 21.375 18.5312 21.0039 18.5312 20.4844V11.2812H5.43164ZM16.4531 17.8125C16.9355 17.8125 17.3438 18.2207 17.3438 18.7031V20.4844C17.3438 21.0039 16.9355 21.375 16.4531 21.375H14.0781C13.5586 21.375 13.1875 21.0039 13.1875 20.4844V18.7031C13.1875 18.2207 13.5586 17.8125 14.0781 17.8125H16.4531ZM6.61914 13.9531C6.61914 13.4707 7.02734 13.0625 7.50977 13.0625H11.0723C11.5918 13.0625 11.9629 13.4707 11.9629 13.9531V15.7344C11.9629 16.2539 11.5918 16.625 11.0723 16.625H7.50977C7.02734 16.625 6.61914 16.2539 6.61914 15.7344V13.9531ZM11.0723 17.8125C11.5918 17.8125 11.9629 18.2207 11.9629 18.7031V20.4844C11.9629 21.0039 11.5918 21.375 11.0723 21.375H7.50977C7.02734 21.375 6.61914 21.0039 6.61914 20.4844V18.7031C6.61914 18.2207 7.02734 17.8125 7.50977 17.8125H11.0723Z" fill="currentColor"/>
</g>
<defs>
<clipPath id="clip0_2932_857">
<rect width="24" height="24" fill="currentColor"/>
</clipPath>
</defs>
</svg>
