<svg width="24" height="24" viewBox="0 0 24 24" fill="currentColor" xmlns="http://www.w3.org/2000/svg">
<path d="M21.4258 18.8145L19.0137 8.7207C18.791 7.79297 17.9746 7.125 17.0098 7.125H14.8574C15.1172 6.67969 15.2285 6.19727 15.2285 5.64062C15.2656 3.85938 13.7812 2.375 12 2.375C10.1816 2.375 8.69727 3.85938 8.69727 5.64062C8.69727 6.19727 8.80859 6.67969 9.06836 7.125H6.95312C5.98828 7.125 5.17188 7.79297 4.94922 8.7207L2.53711 18.8145C2.38867 19.4453 2.53711 20.1133 2.94531 20.5957C3.31641 21.1152 3.91016 21.375 4.57812 21.375H19.3848C20.0527 21.375 20.6465 21.1152 21.0176 20.5957C21.4258 20.1133 21.5742 19.4453 21.4258 18.8145ZM10.4785 5.64062C10.4785 4.82422 11.1465 4.15625 11.9629 4.15625C12.7793 4.15625 13.4473 4.82422 13.4473 5.64062C13.4473 6.45703 12.8164 7.125 12 7.125C11.1836 7.125 10.4785 6.45703 10.4785 5.64062ZM19.6445 19.4824C19.6074 19.5566 19.5332 19.5938 19.3848 19.5938H4.57812C4.42969 19.5938 4.35547 19.5566 4.31836 19.4824C4.28125 19.4453 4.24414 19.3711 4.28125 19.2598L6.69336 9.20312C6.69336 9.01758 6.8418 8.90625 6.95312 8.90625H16.9727C17.084 8.90625 17.2324 9.01758 17.2324 9.16602L19.6445 19.2598C19.7188 19.3711 19.6816 19.4453 19.6445 19.4824Z" fill="currentColor"/>
</svg>
