<svg width="24" height="24" viewBox="0 0 24 24" fill="currentColor" xmlns="http://www.w3.org/2000/svg">
<path d="M19.5703 8.05273C19.459 7.94141 19.6816 8.05273 20.2754 7.49609C21.2402 6.41992 21.5371 4.71289 21.4629 3.04297C21.4258 2.30078 20.5723 2.41211 20.3496 2.41211C19.0508 2.41211 17.4922 2.63477 16.416 3.63672C15.7109 4.30469 15.9707 4.45312 15.8223 4.26758L14.3379 2.7832C14.1152 2.56055 13.7441 2.56055 13.5215 2.7832L12.2227 4.04492C11.7773 4.52734 11.4805 5.08398 11.332 5.71484C10.9238 5.38086 10.5527 5.75195 10.5527 5.75195L9.29102 7.01367C8.8457 7.45898 8.54883 8.01562 8.40039 8.64648C7.99219 8.3125 7.62109 8.68359 7.62109 8.68359L6.35938 9.94531C4.98633 11.3184 4.98633 13.582 6.35938 14.9922L6.99023 15.623L2.75977 19.8906C2.38867 20.2246 2.38867 20.7812 2.75977 21.1523C2.9082 21.3008 3.13086 21.375 3.39062 21.375C3.61328 21.375 3.83594 21.3008 4.02148 21.1152L8.25195 16.8848L8.88281 17.5156C10.293 18.8887 12.5195 18.8887 13.9297 17.5156L15.1914 16.2168C15.4141 16.0312 15.4141 15.6973 15.2285 15.4746C15.8223 15.3262 16.416 15.0293 16.8613 14.5469L18.123 13.2852C18.3086 13.0996 18.3457 12.7656 18.1602 12.543C18.7539 12.3945 19.3477 12.0977 19.793 11.6152L21.0547 10.3535C21.2773 10.1309 21.2773 9.75977 21.0547 9.53711L19.5703 8.05273ZM8.66016 13.916L8.25195 14.3613L7.62109 13.7305C6.91602 13.0254 6.91602 11.9121 7.62109 11.207L8.0293 10.7617L8.66016 11.3926C9.03125 11.7637 9.2168 12.209 9.2168 12.6543C9.2168 13.1367 9.03125 13.582 8.66016 13.916ZM13.4844 5.30664L13.9297 4.89844L14.5605 5.5293C15.2285 6.23438 15.2656 7.34766 14.5605 8.05273L14.1152 8.46094L13.4844 7.83008C12.8164 7.16211 12.8164 6.01172 13.4844 5.30664ZM10.5527 8.27539L10.9609 7.83008L11.5918 8.46094C12.2969 9.16602 12.2969 10.3164 11.5918 10.9844L11.1836 11.3926L10.5527 10.7617C9.88477 10.0938 9.88477 8.94336 10.5527 8.27539ZM12.668 16.2539C11.9629 16.9219 10.8496 16.9219 10.1445 16.2539L9.51367 15.623L9.95898 15.1777C10.627 14.4727 11.7773 14.4727 12.4453 15.1777L13.0762 15.8086L12.668 16.2539ZM15.5996 13.2852C14.9316 13.9902 13.7812 13.9902 13.0762 13.2852L12.4453 12.6543L12.8906 12.2461C13.5586 11.541 14.709 11.541 15.377 12.2461L16.0078 12.877L15.5996 13.2852ZM18.5312 10.3535C17.8262 11.0586 16.7129 11.0586 16.0078 10.3535L15.377 9.72266L15.8223 9.31445C16.4902 8.60938 17.6406 8.60938 18.3457 9.31445L18.9395 9.94531L18.5312 10.3535ZM16.9727 6.90234C17.0098 6.16016 17.1953 5.34375 17.6406 4.86133C18.0859 4.49023 18.791 4.26758 19.6816 4.15625C19.6074 5.04688 19.3477 5.75195 19.0137 6.19727C18.5684 6.60547 17.8633 6.86523 16.9727 6.90234Z" fill="currentColor"/>
</svg>
