<svg width="25" height="24" viewBox="0 0 25 24" fill="currentColor" xmlns="http://www.w3.org/2000/svg">
<path d="M4.56445 13.0254C4.19336 13.3594 4.19336 13.9531 4.52734 14.2871C4.86133 14.6582 5.45508 14.6582 5.78906 14.3242C6.56836 13.5449 7.5332 12.9512 8.53516 12.543L6.97656 11.3184C6.08594 11.7637 5.26953 12.3574 4.56445 13.0254ZM0.408203 7.97852C0.0371094 8.3125 0.0371094 8.86914 0.371094 9.24023C0.705078 9.61133 1.26172 9.61133 1.63281 9.27734C2.04102 8.86914 2.48633 8.53516 2.96875 8.20117L1.52148 7.05078C1.11328 7.34766 0.742188 7.64453 0.408203 7.97852ZM11.9863 16.0312C10.873 16.0312 9.94531 16.9961 9.94531 18.1094C9.94531 19.2598 10.873 20.1875 11.9863 20.1875C13.1367 20.1875 14.1016 19.2598 14.1016 18.1094C14.1016 16.9961 13.1367 16.0312 11.9863 16.0312ZM13.6191 12.0234C15.3633 12.3203 16.959 13.0996 18.2207 14.3242C18.4062 14.4727 18.5918 14.5469 18.8145 14.5469C19.0371 14.5469 19.2598 14.4727 19.4453 14.2871C19.7793 13.9531 19.7793 13.3594 19.4082 13.0254C17.4785 11.1328 14.8438 10.0938 12.0234 10.0938C11.7637 10.0938 11.5039 10.1309 11.2441 10.168L6.41992 6.38281C8.16406 5.71484 10.0566 5.34375 12.0234 5.34375C15.9941 5.34375 19.7793 6.79102 22.377 9.27734C22.5625 9.42578 22.7852 9.5 22.9707 9.5C23.1934 9.5 23.416 9.42578 23.6016 9.24023C23.9355 8.86914 23.9355 8.3125 23.5645 7.97852C20.6699 5.19531 16.4395 3.5625 11.9863 3.5625C9.46289 3.5625 6.97656 4.11914 4.78711 5.12109L1.55859 2.59766C1.1875 2.26367 0.630859 2.33789 0.333984 2.74609C0 3.11719 0.0742188 3.67383 0.482422 3.9707L22.4512 21.1895C22.5996 21.3379 22.7852 21.375 22.9707 21.375C23.2305 21.375 23.4902 21.2637 23.6387 21.041C23.9727 20.6699 23.8984 20.1133 23.4902 19.8164L13.6191 12.0234Z" fill="currentColor"/>
</svg>
