<svg width="24" height="24" viewBox="0 0 24 24" fill="currentColor" xmlns="http://www.w3.org/2000/svg">
<path d="M11.9629 16.0312C10.8496 16.0312 9.92188 16.9961 9.92188 18.1094C9.92188 19.2598 10.8496 20.1875 11.9629 20.1875C13.0762 20.1875 14.0781 19.2598 14.0781 18.1094C14.0781 16.9961 13.1133 16.0312 11.9629 16.0312ZM23.5781 7.97852C20.6465 5.19531 16.416 3.5625 12 3.5625C7.54688 3.5625 3.31641 5.19531 0.384766 7.97852C0.0136719 8.3125 0.0136719 8.86914 0.347656 9.24023C0.681641 9.61133 1.23828 9.61133 1.60938 9.27734C4.20703 6.79102 7.99219 5.34375 12 5.34375C15.9707 5.34375 19.7559 6.79102 22.3535 9.27734C22.5391 9.42578 22.7617 9.5 22.9473 9.5C23.1699 9.5 23.3926 9.42578 23.5781 9.24023C23.9492 8.86914 23.9492 8.3125 23.5781 7.97852ZM12 10.0938C9.14258 10.0938 6.50781 11.1328 4.54102 13.0254C4.16992 13.3594 4.16992 13.9531 4.50391 14.2871C4.83789 14.6582 5.43164 14.6582 5.76562 14.3242C7.39844 12.7656 9.58789 11.875 12 11.875C14.375 11.875 16.5645 12.7656 18.1973 14.3242C18.3828 14.4727 18.5684 14.5469 18.791 14.5469C19.0137 14.5469 19.2363 14.4727 19.4219 14.2871C19.7559 13.9531 19.7559 13.3594 19.3848 13.0254C17.4551 11.1328 14.8203 10.0938 12 10.0938Z" fill="currentColor"/>
</svg>
