<svg width="24" height="24" viewBox="0 0 24 24" fill="currentColor" xmlns="http://www.w3.org/2000/svg">
<path d="M21.3145 6.75391C21.2402 6.27148 20.8691 5.9375 20.4238 5.78906C19.9414 5.67773 19.459 5.82617 19.1621 6.12305L16.9727 8.3125L15.748 8.12695L15.5625 6.90234L17.752 4.75C18.0859 4.41602 18.1973 3.93359 18.0859 3.48828C17.9375 3.04297 17.6035 2.67188 17.1211 2.56055C15.1543 2.07812 13.1504 2.63477 11.7031 4.08203C10.293 5.45508 9.73633 7.45898 10.1816 9.38867L3.35352 16.1797C2.79688 16.7734 2.5 17.5527 2.5 18.332C2.5 19.1113 2.79688 19.8906 3.35352 20.4844C3.87305 21.041 4.72656 21.375 5.50586 21.375C6.28516 21.375 7.06445 21.0781 7.6582 20.4844L14.4492 13.6934C16.3789 14.1387 18.3828 13.582 19.793 12.1719C21.2031 10.7617 21.7969 8.68359 21.3145 6.75391ZM18.5312 10.9102C17.4922 11.9863 15.9336 12.3574 14.5234 11.875L14.0039 11.6895L6.43359 19.2227C5.98828 19.7051 5.13477 19.7051 4.68945 19.2227C4.4668 19 4.31836 18.7031 4.31836 18.332C4.31836 17.998 4.4668 17.7012 4.68945 17.4414L12.2598 9.9082L12.1113 9.38867C11.5547 7.94141 11.8887 6.38281 12.9648 5.34375C13.707 4.56445 14.709 4.15625 15.7109 4.15625H15.748L13.6699 6.30859L14.2266 9.64844L17.5664 10.2422L19.7188 8.08984C19.7188 9.12891 19.3105 10.168 18.5312 10.9102ZM5.72852 17.5156C5.39453 17.5156 5.17188 17.7754 5.17188 18.1094C5.17188 18.4062 5.43164 18.7031 5.72852 18.7031C6.02539 18.7031 6.28516 18.4062 6.28516 18.1094C6.32227 17.8125 6.0625 17.5156 5.72852 17.5156Z" fill="currentColor"/>
</svg>
