<svg width="24" height="24" viewBox="0 0 24 24" fill="currentColor" xmlns="http://www.w3.org/2000/svg">
<path d="M6.08398 9.81604V21.7224C6.08398 22.476 7.94638 23.0856 10.2408 23.0856C12.5376 23.0856 14.3976 22.476 14.3976 21.7224V9.81604C13.4904 10.4376 11.8632 10.728 10.2408 10.728C8.61838 10.728 6.99118 10.4376 6.08398 9.81604ZM12.7224 16.2936C12.7224 17.8752 11.6112 19.1568 10.2432 19.1568C8.87278 19.1568 7.76398 17.8752 7.76398 16.2936C7.76398 14.712 8.87518 13.4304 10.2432 13.4304C11.6112 13.4304 12.7224 14.712 12.7224 16.2936Z" fill="currentColor"/>
<path d="M13.6536 7.86007L12.6144 6.77767L12.2184 6.36487H8.26563L7.86963 6.77767L6.83283 7.86007C6.36243 8.08087 6.08643 8.34967 6.08643 8.63767C6.08643 9.39127 7.94883 10.0009 10.2432 10.0009C12.54 10.0009 14.4 9.39127 14.4 8.63767C14.3976 8.34967 14.1216 8.08087 13.6536 7.86007Z" fill="currentColor"/>
<path d="M11.7408 4.31769C11.5056 4.30569 11.316 4.02969 11.316 3.68649C11.316 3.34329 11.5056 3.06729 11.7408 3.05529V2.24649C11.7408 2.13609 11.6832 2.03289 11.5896 1.97289C11.496 1.91289 11.3784 1.90809 11.2776 1.95609L8.92325 3.09849C8.81285 3.15369 8.74084 3.26409 8.74084 3.38889V5.41449H11.7384V4.31769H11.7408Z" fill="currentColor"/>
<path d="M17.5537 3.32166H13.3297C13.1281 3.32166 12.9673 3.48486 12.9673 3.68406C12.9673 3.88566 13.1305 4.04646 13.3297 4.04646H17.5513C17.7529 4.04646 17.9137 3.88326 17.9137 3.68406C17.9161 3.48486 17.7529 3.32166 17.5537 3.32166Z" fill="currentColor"/>
<path d="M13.3296 2.59446C13.368 2.59446 13.4088 2.58726 13.4496 2.57526L16.2168 1.62006C16.4064 1.55526 16.5072 1.34886 16.4424 1.15686C16.3776 0.967257 16.1688 0.866457 15.9792 0.931257L13.212 1.88886C13.0224 1.95366 12.9216 2.16006 12.9864 2.34966C13.0392 2.50086 13.1784 2.59446 13.3296 2.59446Z" fill="currentColor"/>
<path d="M16.1904 5.51527L13.4232 4.78807C13.2288 4.73767 13.0296 4.85287 12.9792 5.04727C12.9288 5.24167 13.044 5.44087 13.2384 5.49127L16.0056 6.21847C16.0368 6.22567 16.068 6.23047 16.0968 6.23047C16.2576 6.23047 16.4064 6.12247 16.4472 5.95927C16.5024 5.76487 16.3848 5.56567 16.1904 5.51527Z" fill="currentColor"/>
</svg>
