<svg width="24" height="24" viewBox="0 0 24 24" fill="currentColor" xmlns="http://www.w3.org/2000/svg">
<path d="M9.09369 6.48483C8.81049 6.48483 8.57529 6.49923 8.34489 6.47523C8.27289 6.46803 8.16249 6.35283 8.16009 6.28563C8.16009 6.21843 8.26569 6.11763 8.34489 6.09603C8.46009 6.06243 8.58969 6.08403 8.71449 6.08643C9.18489 6.08883 9.21849 6.06003 9.19209 5.58003C9.18729 5.50803 9.08169 5.39283 9.00969 5.38323C8.80569 5.35683 8.59449 5.39043 8.39289 5.36403C8.30409 5.35203 8.22969 5.24883 8.14809 5.18643C8.22969 5.11443 8.30409 4.99203 8.39289 4.98003C8.60409 4.94883 8.82729 4.97763 9.04088 4.96083C9.11288 4.95603 9.22329 4.89363 9.24009 4.83363C9.37689 4.37763 9.17769 3.92883 8.73369 3.73443C7.72329 3.29043 6.65049 3.15843 5.55849 3.14883C5.24169 3.14643 4.99209 3.32163 4.86729 3.63603C4.74969 3.93123 4.91049 4.13283 5.06409 4.36563C5.37369 4.83603 5.70969 5.30403 5.91849 5.82003C6.45129 7.12083 6.65769 8.50083 6.71529 9.90003C6.72489 10.1136 6.78729 10.1904 7.00569 10.1832C7.39689 10.1688 7.79049 10.1688 8.18409 10.1832C8.40489 10.1928 8.44329 10.104 8.47209 9.90003C8.58729 9.08643 8.72889 8.27523 8.87049 7.46403C8.92569 7.15443 9.00969 6.84723 9.09369 6.48483ZM7.60089 13.1592C8.86089 13.1592 10.1209 13.1616 11.3809 13.1592C11.7505 13.1592 11.8993 13.0368 11.8465 12.6768C11.8033 12.3864 11.6953 12.0696 11.5153 11.8464C11.3233 11.6088 11.0305 11.424 10.7473 11.292C9.17529 10.5624 7.53609 10.4112 5.85129 10.7976C5.12649 10.9632 4.41609 11.1912 3.82329 11.676C3.51369 11.9304 3.31929 12.2424 3.32649 12.66C3.33369 13.0512 3.43209 13.1592 3.81849 13.1616C5.08089 13.1592 6.34089 13.1592 7.60089 13.1592ZM5.26089 5.45283C4.84809 5.71683 4.73529 6.08403 4.88889 6.51123C5.05209 6.96483 5.37849 7.20243 5.83209 7.14483C5.64009 6.58083 5.45289 6.02643 5.26089 5.45283Z" fill="currentColor"/>
<path d="M9.09357 6.48487C9.00957 6.84967 8.92557 7.15447 8.87037 7.46647C8.72877 8.27767 8.58717 9.08887 8.47197 9.90247C8.44317 10.1065 8.40477 10.1953 8.18397 10.1857C7.79277 10.1713 7.39917 10.1713 7.00557 10.1857C6.78957 10.1929 6.72477 10.1161 6.71517 9.90247C6.65997 8.50327 6.45117 7.12327 5.91837 5.82247C5.70717 5.30647 5.37357 4.83607 5.06397 4.36807C4.91037 4.13527 4.74957 3.93367 4.86717 3.63847C4.99197 3.32407 5.24397 3.14887 5.55837 3.15127C6.64797 3.16087 7.72317 3.29527 8.73357 3.73687C9.17757 3.93127 9.37677 4.38007 9.23997 4.83607C9.22317 4.89367 9.11277 4.95607 9.04077 4.96327C8.82477 4.98007 8.60397 4.95127 8.39277 4.98247C8.30157 4.99687 8.22957 5.11687 8.14797 5.18887C8.22957 5.25127 8.30397 5.35447 8.39277 5.36647C8.59677 5.39287 8.80797 5.35927 9.00957 5.38567C9.08157 5.39527 9.18717 5.51047 9.19197 5.58247C9.21597 6.06247 9.18237 6.09127 8.71437 6.08887C8.58957 6.08887 8.45997 6.06727 8.34477 6.09847C8.26797 6.11767 8.15997 6.22087 8.15997 6.28567C8.15997 6.35047 8.27277 6.46567 8.34477 6.47527C8.57517 6.49927 8.81037 6.48487 9.09357 6.48487Z" fill="currentColor"/>
<path d="M7.60081 13.1592C6.34081 13.1592 5.08081 13.1592 3.82081 13.1592C3.43441 13.1592 3.33601 13.0488 3.32881 12.6576C3.32161 12.2376 3.51361 11.9256 3.82561 11.6736C4.41841 11.1888 5.12881 10.9632 5.85361 10.7952C7.53841 10.4088 9.17761 10.56 10.7496 11.2896C11.0328 11.4216 11.3256 11.6064 11.5176 11.844C11.6976 12.0672 11.8056 12.384 11.8488 12.6744C11.904 13.0344 11.7528 13.1544 11.3832 13.1568C10.1232 13.1592 8.86081 13.1592 7.60081 13.1592Z" fill="currentColor"/>
<path d="M5.26088 5.45288C5.45288 6.02408 5.64008 6.57848 5.83208 7.14488C5.37848 7.20248 5.05208 6.96488 4.88888 6.51128C4.73528 6.08648 4.84808 5.71688 5.26088 5.45288Z" fill="currentColor"/>
<path d="M19.116 13.9536H1.47363V20.8512H19.116V13.9536Z" fill="currentColor"/>
<path d="M19.428 19.1304H19.0968V20.2512H19.428V19.1304Z" fill="currentColor"/>
<path d="M20.0473 19.1304H19.7161V20.2512H20.0473V19.1304Z" fill="currentColor"/>
<path d="M20.6688 19.1304H20.3376V20.2512H20.6688V19.1304Z" fill="currentColor"/>
<path d="M21.288 19.1304H20.9568V20.2512H21.288V19.1304Z" fill="currentColor"/>
<path d="M21.9072 19.1304H21.576V20.2512H21.9072V19.1304Z" fill="currentColor"/>
<path d="M22.5264 19.1304H22.1952V20.2512H22.5264V19.1304Z" fill="currentColor"/>
<path d="M18.5352 11.6808C18.5232 11.6064 18.4968 11.5248 18.4488 11.4672C18.3984 11.4048 18.324 11.3568 18.2496 11.3232C17.844 11.1336 17.4192 11.0952 16.9848 11.196C16.7976 11.2392 16.6128 11.2968 16.4616 11.424C16.3824 11.4888 16.332 11.5704 16.3344 11.6784C16.3368 11.7792 16.3608 11.808 16.4616 11.808C16.584 11.808 16.704 11.808 16.8264 11.808V13.1808H18.0168V11.808C18.1512 11.808 18.2832 11.808 18.4176 11.808C18.5112 11.8056 18.5496 11.7744 18.5352 11.6808Z" fill="currentColor"/>
</svg>
