<svg width="24" height="24" viewBox="0 0 24 24" fill="currentColor" xmlns="http://www.w3.org/2000/svg">
<path d="M21.924 8.75035H10.3176C9.8136 8.75035 9.4008 9.16075 9.4008 9.66715V12.3047H9C8.9976 12.1991 8.9952 12.0815 8.9904 11.9471C8.9544 10.7591 8.8896 8.55115 9.8376 7.57435C10.1256 7.27915 10.488 7.12795 10.932 7.10635V7.62235C10.932 8.10715 11.3256 8.50075 11.8128 8.50075H16.4856C16.9704 8.50075 17.3664 8.10715 17.3664 7.62235V6.44395C17.3664 5.95915 16.9728 5.56555 16.4856 5.56555H11.8128C11.328 5.56555 10.932 5.95915 10.932 6.44395V6.53275C10.3296 6.55675 9.8208 6.76795 9.4248 7.17355C8.3088 8.32555 8.3784 10.6919 8.4144 11.9639C8.4192 12.0935 8.4216 12.2039 8.424 12.3047H8.1456V10.296C8.1456 9.79195 7.7352 9.37915 7.2288 9.37915H7.0608C6.5568 9.37915 6.144 9.78955 6.144 10.296V11.5247C5.6856 11.6447 4.5216 11.952 3.2472 12.2759C2.52 12.4607 1.2456 13.1423 1.2456 14.1263C1.2456 14.8271 1.2168 14.6951 1.2168 15.2303L6.144 15.1439V16.9127C6.144 17.4167 6.5544 17.8295 7.0608 17.8295H7.2288C7.7328 17.8295 8.1456 17.4191 8.1456 16.9127V14.8127H9.4008V17.5391C9.4008 18.0431 9.8112 18.4559 10.3176 18.4559H21.924C22.428 18.4559 22.8408 18.0455 22.8408 17.5391V9.66715C22.8384 9.16315 22.428 8.75035 21.924 8.75035ZM11.3928 6.44635C11.3928 6.21355 11.5824 6.02635 11.8128 6.02635H16.4856C16.7184 6.02635 16.9056 6.21595 16.9056 6.44635V7.62475C16.9056 7.85755 16.716 8.04475 16.4856 8.04475H11.8128C11.58 8.04475 11.3928 7.85515 11.3928 7.62475V6.44635ZM7.6704 16.9127C7.6704 17.1551 7.4736 17.3519 7.2312 17.3519H7.0632C6.8208 17.3519 6.624 17.1551 6.624 16.9127V10.296C6.624 10.0536 6.8208 9.85675 7.0632 9.85675H7.2312C7.4736 9.85675 7.6704 10.0536 7.6704 10.296V16.9127ZM22.3608 17.5415C22.3608 17.7839 22.164 17.9807 21.9216 17.9807H10.3176C10.0752 17.9807 9.8784 17.7839 9.8784 17.5415V9.66955C9.8784 9.42715 10.0752 9.23035 10.3176 9.23035H21.924C22.1664 9.23035 22.3632 9.42715 22.3632 9.66955V17.5415H22.3608Z" fill="currentColor"/>
</svg>
