<svg width="24" height="24" viewBox="0 0 24 24" fill="currentColor" xmlns="http://www.w3.org/2000/svg">
<path d="M16.5366 13.4927C16.4238 13.4663 16.2966 13.4615 16.179 13.4591C15.7182 13.4567 15.2574 13.4567 14.7894 13.4567H14.1294V2.93514C14.1294 2.22234 13.6806 1.65114 12.987 1.47594C12.9534 1.46634 12.9198 1.45434 12.8862 1.43994H12.8814H10.3638C10.3398 1.45434 10.3158 1.46394 10.2894 1.47114C9.52621 1.66794 9.10621 2.20314 9.10621 2.97834C9.10381 5.38314 9.10381 7.79034 9.10381 10.1951V13.4399L8.87341 13.4519C8.81821 13.4543 8.77021 13.4567 8.72221 13.4567H8.13661C7.73341 13.4543 7.33261 13.4543 6.92941 13.4615C6.29341 13.4735 5.77261 13.9991 5.76541 14.6327C5.75821 15.2927 5.75821 15.9527 5.76541 16.6127C5.77261 17.2943 6.29341 17.8151 6.98221 17.8199C7.37581 17.8223 7.77181 17.8223 8.16541 17.8223H8.71501H9.10381L9.10621 20.9855C9.10861 21.8615 9.74701 22.4975 10.6278 22.4975C11.295 22.4999 11.9622 22.4999 12.6294 22.4975C13.4862 22.4951 14.1342 21.8447 14.1318 20.9855V19.0031V17.8775L14.283 17.8391C14.3046 17.8343 14.3262 17.8271 14.3574 17.8271H14.9862C15.4158 17.8271 15.8454 17.8271 16.2774 17.8223C16.9446 17.8151 17.4702 17.2847 17.4726 16.6151C17.475 15.9695 17.475 15.3215 17.4726 14.6759C17.4678 14.0927 17.1006 13.6295 16.5366 13.4927ZM10.1238 3.04794C10.1238 2.62554 10.2894 2.46234 10.7142 2.46234H10.9182C11.463 2.46234 12.0078 2.46234 12.5502 2.46234C12.9318 2.46234 13.1094 2.63994 13.1094 3.01674C13.1094 6.37674 13.1094 9.73674 13.1094 13.0967C13.1094 13.1423 13.107 13.1855 13.1022 13.2359L13.0878 13.4519H12.1278V12.0983C12.1278 11.1719 12.1278 10.2431 12.1254 9.31674C12.1254 9.06714 11.9886 8.87514 11.7582 8.80314C11.5518 8.73834 11.3214 8.81754 11.2182 8.98314C11.1534 9.08874 11.1126 9.23034 11.1102 9.35034C11.103 10.2743 11.103 11.1959 11.103 12.1199V13.4423H10.1214V3.04794H10.1238ZM13.1094 20.9231C13.1094 21.2999 12.9318 21.4751 12.5502 21.4751C12.087 21.4751 11.6214 21.4751 11.1582 21.4751C10.9974 21.4751 10.8366 21.4751 10.6734 21.4751C10.299 21.4751 10.1262 21.3023 10.1238 20.9351C10.1214 20.1383 10.1214 19.3415 10.1214 18.5447V18.1223C10.1214 18.0911 10.1238 18.0623 10.1262 18.0263L10.1382 17.8295H13.083L13.0998 18.0239C13.1046 18.0671 13.1094 18.1103 13.1094 18.1511C13.1094 19.0751 13.1094 19.9991 13.1094 20.9231ZM16.335 14.5775C16.215 14.6999 16.0206 14.7863 15.8526 14.7887C15.2286 14.7959 14.607 14.7983 13.983 14.7983C13.7646 14.7983 13.5486 14.7983 13.3302 14.7983L7.38061 14.7959C7.16701 14.7959 6.98221 14.7191 6.87901 14.5871C6.79501 14.4815 6.76621 14.3447 6.79981 14.2055C6.84301 14.0255 6.97021 13.8119 7.33501 13.8119H7.33741C8.08621 13.8143 8.83501 13.8143 9.58381 13.8119H12.4422C13.5918 13.8119 14.7414 13.8095 15.891 13.8191C16.0518 13.8215 16.2462 13.9199 16.3518 14.0543C16.4574 14.1863 16.4478 14.4623 16.335 14.5775Z" fill="currentColor"/>
<path d="M17.9648 2.19528V1.73438H16.2216V4.38084H16.7382V3.30665H17.7827V2.84574H16.7382V2.19528H17.9648Z" fill="currentColor"/>
<path d="M18.2473 11.7606V9.11414H17.7306V10.7347L16.6825 9.11414H16.2216V11.7606H16.7382V10.1363L17.7864 11.7606H18.2473Z" fill="currentColor"/>
<path d="M18.225 22.4731L17.634 21.332C17.8905 21.2391 18.1172 21.0087 18.1172 20.637C18.1172 20.1946 17.7975 19.8267 17.2586 19.8267H16.2216V22.4731H16.7382V21.4175H17.1099L17.6266 22.4731H18.225ZM17.6005 20.637C17.6005 20.8414 17.4519 20.9863 17.2251 20.9863H16.7382V20.2876H17.2251C17.4519 20.2876 17.6005 20.4325 17.6005 20.637Z" fill="currentColor"/>
</svg>
