<svg width="24" height="24" viewBox="0 0 24 24" fill="currentColor" xmlns="http://www.w3.org/2000/svg">
<path d="M12 22.5696C6.17042 22.5696 1.43042 17.8296 1.43042 12C1.43042 6.17042 6.17042 1.43042 12 1.43042C17.8296 1.43042 22.5696 6.17042 22.5696 12C22.5696 17.8296 17.8296 22.5696 12 22.5696ZM12 2.36162C6.68402 2.36162 2.36162 6.68402 2.36162 12C2.36162 17.316 6.68402 21.6384 12 21.6384C17.316 21.6384 21.6384 17.316 21.6384 12C21.6384 6.68402 17.316 2.36162 12 2.36162Z" fill="currentColor"/>
<path d="M12 18.4176C8.4624 18.4176 5.5824 15.5376 5.5824 12C5.5824 8.46 8.4624 5.5824 12 5.5824C15.5376 5.5824 18.4176 8.4624 18.4176 12C18.4176 15.54 15.5376 18.4176 12 18.4176ZM12 6.4968C8.9664 6.4968 6.4968 8.9664 6.4968 12C6.4968 15.0336 8.9664 17.5032 12 17.5032C15.0336 17.5032 17.5032 15.0336 17.5032 12C17.5032 8.9664 15.0336 6.4968 12 6.4968Z" fill="currentColor"/>
<path d="M12 5.03997C12.5541 5.03997 13.0032 4.59082 13.0032 4.03677C13.0032 3.48272 12.5541 3.03357 12 3.03357C11.446 3.03357 10.9968 3.48272 10.9968 4.03677C10.9968 4.59082 11.446 5.03997 12 5.03997Z" fill="currentColor"/>
<path d="M12 20.9664C12.5541 20.9664 13.0032 20.5172 13.0032 19.9632C13.0032 19.4091 12.5541 18.96 12 18.96C11.446 18.96 10.9968 19.4091 10.9968 19.9632C10.9968 20.5172 11.446 20.9664 12 20.9664Z" fill="currentColor"/>
<path d="M8.01834 6.10552C8.57239 6.10552 9.02154 5.65637 9.02154 5.10232C9.02154 4.54827 8.57239 4.09912 8.01834 4.09912C7.46428 4.09912 7.01514 4.54827 7.01514 5.10232C7.01514 5.65637 7.46428 6.10552 8.01834 6.10552Z" fill="currentColor"/>
<path d="M15.9816 19.9007C16.5356 19.9007 16.9848 19.4515 16.9848 18.8975C16.9848 18.3434 16.5356 17.8943 15.9816 17.8943C15.4275 17.8943 14.9784 18.3434 14.9784 18.8975C14.9784 19.4515 15.4275 19.9007 15.9816 19.9007Z" fill="currentColor"/>
<path d="M5.10232 9.02154C5.65637 9.02154 6.10552 8.57239 6.10552 8.01834C6.10552 7.46428 5.65637 7.01514 5.10232 7.01514C4.54827 7.01514 4.09912 7.46428 4.09912 8.01834C4.09912 8.57239 4.54827 9.02154 5.10232 9.02154Z" fill="currentColor"/>
<path d="M18.8975 16.9848C19.4515 16.9848 19.9007 16.5356 19.9007 15.9816C19.9007 15.4275 19.4515 14.9784 18.8975 14.9784C18.3434 14.9784 17.8943 15.4275 17.8943 15.9816C17.8943 16.5356 18.3434 16.9848 18.8975 16.9848Z" fill="currentColor"/>
<path d="M4.03677 13.0032C4.59082 13.0032 5.03997 12.5541 5.03997 12C5.03997 11.446 4.59082 10.9968 4.03677 10.9968C3.48272 10.9968 3.03357 11.446 3.03357 12C3.03357 12.5541 3.48272 13.0032 4.03677 13.0032Z" fill="currentColor"/>
<path d="M19.9632 13.0032C20.5172 13.0032 20.9664 12.5541 20.9664 12C20.9664 11.446 20.5172 10.9968 19.9632 10.9968C19.4091 10.9968 18.96 11.446 18.96 12C18.96 12.5541 19.4091 13.0032 19.9632 13.0032Z" fill="currentColor"/>
<path d="M5.10232 16.9848C5.65637 16.9848 6.10552 16.5356 6.10552 15.9816C6.10552 15.4275 5.65637 14.9784 5.10232 14.9784C4.54827 14.9784 4.09912 15.4275 4.09912 15.9816C4.09912 16.5356 4.54827 16.9848 5.10232 16.9848Z" fill="currentColor"/>
<path d="M18.8975 9.02154C19.4515 9.02154 19.9007 8.57239 19.9007 8.01834C19.9007 7.46428 19.4515 7.01514 18.8975 7.01514C18.3434 7.01514 17.8943 7.46428 17.8943 8.01834C17.8943 8.57239 18.3434 9.02154 18.8975 9.02154Z" fill="currentColor"/>
<path d="M8.01834 19.9007C8.57239 19.9007 9.02154 19.4515 9.02154 18.8975C9.02154 18.3434 8.57239 17.8943 8.01834 17.8943C7.46428 17.8943 7.01514 18.3434 7.01514 18.8975C7.01514 19.4515 7.46428 19.9007 8.01834 19.9007Z" fill="currentColor"/>
<path d="M15.9816 6.10552C16.5356 6.10552 16.9848 5.65637 16.9848 5.10232C16.9848 4.54827 16.5356 4.09912 15.9816 4.09912C15.4275 4.09912 14.9784 4.54827 14.9784 5.10232C14.9784 5.65637 15.4275 6.10552 15.9816 6.10552Z" fill="currentColor"/>
</svg>
