<svg width="24" height="24" viewBox="0 0 24 24" fill="currentColor" xmlns="http://www.w3.org/2000/svg">
<path d="M2.72643 15.6553L0.64563 20.7985H3.78243L5.59683 15.6553H2.72643Z" fill="currentColor"/>
<path d="M4.44249 12.696L3.42969 15.1992H5.79849L6.68169 12.696H4.44249Z" fill="currentColor"/>
<path d="M5.99757 10.2769L5.22717 12.1801H7.02957L7.69917 10.2769H5.99757Z" fill="currentColor"/>
<path d="M12.5904 4.55524L12.6432 6.33124L12.4152 6.36724L12.36 6.42484C12.36 6.42484 12.1464 6.64804 11.8392 6.98644C11.6544 7.19044 11.6352 7.37524 11.652 7.49524C11.6688 7.61764 11.7264 7.70644 11.784 7.77364L11.7096 7.78564L10.9656 8.33284L10.9752 8.47444L9.54721 8.52244L8.04481 7.85764C7.79041 7.74484 7.56001 7.99924 7.50241 8.07124C7.50241 8.07124 6.98881 8.65444 6.82081 8.83684C6.68641 8.98324 6.69361 9.12484 6.70801 9.19684C6.74881 9.39364 6.93601 9.48484 6.97201 9.50164L8.69281 10.2648L12 9.81844L12.2184 10.0704L12.8184 10.0128L12.8304 10.2264L13.7208 10.1232L13.4568 4.50244L12.5904 4.55524ZM12.7272 9.34084L12.6336 9.55204L12.4368 9.57124L12.2448 9.38164L12.1176 9.23764L11.9256 8.83444L11.5656 8.71444L11.4648 8.61604L11.46 8.55844L11.9016 8.23204L12.2064 8.17924L12.7416 8.70244L12.7776 9.32404L12.7272 9.34084ZM12.1992 7.51204L12.1632 7.48324C12.1512 7.47364 12.1224 7.44724 12.12 7.42804C12.1176 7.40884 12.1344 7.36564 12.1896 7.30564C12.4008 7.07284 12.5664 6.89764 12.648 6.81124L13.0848 6.73924L13.1664 8.45764L12.1992 7.51204Z" fill="currentColor"/>
<path d="M15.3504 10.5528C15.3504 10.5528 15.3 10.5456 15.24 10.5168C15.1512 10.4784 15.0432 10.3992 15.0432 10.248C15.0432 9.99362 14.7192 3.19922 14.7192 3.19922L13.9128 3.24722L14.2728 10.7544L14.2848 10.9824C14.2848 10.9824 14.2776 11.28 14.5632 11.4072C14.652 11.4456 14.7672 11.4696 14.9184 11.4624C15.708 11.4504 23.3472 10.68 23.3472 10.68L23.3568 10.3464L15.3504 10.5528Z" fill="currentColor"/>
</svg>
