<svg width="24" height="24" viewBox="0 0 24 24" fill="currentColor" xmlns="http://www.w3.org/2000/svg">
<path d="M17.7335 6.2616C17.6711 6.2616 17.6087 6.2832 17.5583 6.3216C17.4335 6.4176 17.4095 6.5976 17.5055 6.7224C17.5607 6.7944 17.6423 6.8352 17.7335 6.8352C17.7959 6.8352 17.8559 6.8136 17.9063 6.7752C17.9663 6.7296 18.0071 6.6624 18.0167 6.5856C18.0263 6.5088 18.0071 6.4344 17.9591 6.3744C17.9063 6.3024 17.8223 6.2616 17.7335 6.2616Z" fill="currentColor"/>
<path d="M19.548 14.3521C19.4856 14.3521 19.4232 14.3737 19.3728 14.4121C19.248 14.5081 19.224 14.6881 19.32 14.8129C19.3752 14.8849 19.4568 14.9257 19.548 14.9257C19.6104 14.9257 19.6704 14.9041 19.7208 14.8657C19.7808 14.8201 19.8216 14.7529 19.8312 14.6761C19.8408 14.5993 19.8216 14.5249 19.7736 14.4649C19.7208 14.3929 19.6368 14.3521 19.548 14.3521Z" fill="currentColor"/>
<path d="M19.8335 9.92163C19.7711 9.92163 19.7087 9.94323 19.6583 9.98163C19.5335 10.0776 19.5095 10.2576 19.6055 10.3824C19.6607 10.4544 19.7423 10.4952 19.8335 10.4952C19.8959 10.4952 19.9559 10.4736 20.0063 10.4352C20.0663 10.3896 20.1071 10.3224 20.1167 10.2456C20.1263 10.1688 20.1071 10.0944 20.0591 10.0344C20.0063 9.96243 19.9223 9.92163 19.8335 9.92163Z" fill="currentColor"/>
<path d="M4.4519 14.3521C4.3631 14.3521 4.2791 14.3929 4.2239 14.4649C4.1783 14.5249 4.1567 14.5993 4.1663 14.6761C4.1759 14.7529 4.2143 14.8201 4.2767 14.8657C4.3271 14.9041 4.3871 14.9257 4.4495 14.9257C4.5383 14.9257 4.6223 14.8849 4.6775 14.8129C4.7735 14.6881 4.7495 14.5081 4.6247 14.4121C4.5767 14.3713 4.5167 14.3521 4.4519 14.3521Z" fill="currentColor"/>
<path d="M4.16638 10.4952C4.25518 10.4952 4.33918 10.4544 4.39438 10.3824C4.49038 10.2576 4.46638 10.0776 4.34158 9.98163C4.29118 9.94323 4.23118 9.92163 4.16638 9.92163C4.07758 9.92163 3.99358 9.96243 3.93838 10.0344C3.89278 10.0944 3.87118 10.1688 3.88078 10.2456C3.89038 10.3224 3.92878 10.3896 3.99118 10.4352C4.04158 10.4736 4.10158 10.4952 4.16638 10.4952Z" fill="currentColor"/>
<path d="M6.26636 6.83288C6.35516 6.83288 6.43916 6.79208 6.49436 6.72008C6.59036 6.59528 6.56636 6.41528 6.44156 6.31928C6.39116 6.28088 6.33116 6.25928 6.26636 6.25928C6.17756 6.25928 6.09356 6.30008 6.03836 6.37208C5.99276 6.43208 5.97116 6.50648 5.98076 6.58328C5.99036 6.66008 6.02876 6.72728 6.09116 6.77288C6.14156 6.81368 6.20156 6.83288 6.26636 6.83288Z" fill="currentColor"/>
<path d="M16.8815 2.95442C16.4279 2.75762 15.9983 2.93762 15.7367 3.41522C15.5087 3.33362 15.2759 3.25922 15.0383 3.19442C14.4215 3.02882 13.6607 3.19202 13.3727 4.15202C13.0511 5.22482 14.4791 6.09602 15.2447 6.56642C15.3263 6.61682 15.3983 6.66002 15.4607 6.70082C17.2247 7.82882 18.2759 9.77762 18.2759 11.9184C18.2759 14.6592 16.4951 17.0856 13.9439 17.8224L13.7063 17.8896L13.9631 18.7752L14.1791 18.7392C14.2175 18.732 14.2583 18.7296 14.3015 18.7296C14.7119 18.7296 15.0431 19.0632 15.0431 19.4712C15.0431 19.7688 14.8655 20.0376 14.5895 20.1552L14.3879 20.2416L14.6447 21.1272L14.8751 21.0696C16.2479 20.7288 17.4743 20.0736 18.5015 19.1976C18.7895 19.3056 19.1087 19.3968 19.3655 19.3968C19.5215 19.3968 19.6535 19.3632 19.7423 19.2816C21.5735 17.5944 22.6223 14.9088 22.6223 11.916C22.6223 7.98242 20.3687 4.46402 16.8815 2.95442ZM20.6495 10.3152C20.6207 10.5336 20.5079 10.728 20.3351 10.86C20.1911 10.9704 20.0183 11.0304 19.8359 11.0304C19.5791 11.0304 19.3391 10.9128 19.1831 10.7088C18.9071 10.3488 18.9743 9.83282 19.3343 9.55682C19.6847 9.28802 20.2199 9.36002 20.4887 9.70802C20.6207 9.88322 20.6783 10.0992 20.6495 10.3152ZM19.0463 13.9848C19.3967 13.716 19.9319 13.788 20.2007 14.136C20.3351 14.3112 20.3927 14.5272 20.3639 14.7432C20.3351 14.9616 20.2223 15.156 20.0495 15.288C19.9055 15.3984 19.7327 15.4584 19.5503 15.4584C19.2935 15.4584 19.0535 15.3408 18.8975 15.1368C18.6191 14.7792 18.6863 14.2608 19.0463 13.9848ZM18.2351 7.20002C18.0911 7.31042 17.9183 7.37042 17.7359 7.37042C17.4791 7.37042 17.2391 7.25282 17.0831 7.04882C16.8071 6.68882 16.8743 6.17282 17.2343 5.89682C17.5847 5.62802 18.1199 5.70002 18.3887 6.04802C18.5231 6.22322 18.5807 6.43922 18.5519 6.65522C18.5207 6.87362 18.4079 7.06562 18.2351 7.20002ZM19.4327 18.9C19.3679 18.924 19.1639 18.888 18.9215 18.816C19.3799 18.372 19.7903 17.8824 20.1479 17.3496C20.1503 17.3448 20.1551 17.34 20.1575 17.3352C20.2535 17.1936 20.3423 17.0472 20.4311 16.8984C20.4647 16.8432 20.4983 16.788 20.5295 16.7304C20.6015 16.6008 20.6711 16.4712 20.7383 16.3392C20.7791 16.26 20.8175 16.1784 20.8559 16.0968C20.9135 15.9744 20.9687 15.852 21.0215 15.7248C21.0623 15.6288 21.0959 15.5328 21.1343 15.4368C21.1799 15.3168 21.2255 15.1968 21.2663 15.0768C21.3023 14.9664 21.3335 14.8512 21.3671 14.7384C21.4007 14.6208 21.4367 14.5056 21.4679 14.388C21.6527 13.7424 21.7463 13.0728 21.7463 12.3936L21.7439 12.2832L21.7463 12.1104C21.7463 11.8656 21.7343 11.6232 21.7175 11.3832C21.7079 11.2656 21.6911 11.1504 21.6791 11.0328C21.6647 10.9152 21.6551 10.8 21.6359 10.6824C21.6119 10.5264 21.5807 10.3728 21.5495 10.2192C21.5351 10.152 21.5231 10.0824 21.5063 10.0152C21.4655 9.83282 21.4175 9.65282 21.3647 9.47522C21.3551 9.44402 21.3455 9.41042 21.3359 9.37922C20.7551 7.46402 19.5767 5.79602 17.9951 4.62962C17.9711 4.61042 17.9447 4.59122 17.9207 4.57442C17.7815 4.47362 17.6399 4.38002 17.4935 4.28642C17.4311 4.24802 17.3711 4.20722 17.3087 4.16882C17.1863 4.09442 17.0591 4.02242 16.9319 3.95522C16.8407 3.90482 16.7495 3.85922 16.6559 3.81362C16.5455 3.75842 16.4351 3.70562 16.3199 3.65522C16.2791 3.63602 16.2407 3.61442 16.1975 3.59762C16.2503 3.51602 16.3223 3.43202 16.4087 3.39362C16.4591 3.36962 16.5431 3.34562 16.6871 3.40802C19.9919 4.83842 22.1279 8.17682 22.1279 11.9136C22.1279 14.7288 21.1103 17.3472 19.4327 18.9Z" fill="currentColor"/>
<path d="M8.54156 6.69845C8.60396 6.66005 8.67597 6.61445 8.75757 6.56405C9.52317 6.09605 10.9488 5.22245 10.6272 4.15205C10.3392 3.19205 9.57837 3.02885 8.96157 3.19445C8.72396 3.25925 8.49356 3.33365 8.26556 3.41525C8.17676 3.25205 8.02556 3.05045 7.79516 2.94485C7.58876 2.85125 7.35356 2.85365 7.11836 2.95685C3.63116 4.46405 1.37756 7.98245 1.37756 11.9137C1.37756 14.9089 2.42876 17.5921 4.25756 19.2793C4.34876 19.3633 4.48316 19.3921 4.63676 19.3921C4.93676 19.3921 5.29916 19.2745 5.50076 19.1953C6.52796 20.0689 7.75436 20.7241 9.12476 21.0649L9.35516 21.1225L9.61196 20.2369L9.41037 20.1505C9.13437 20.0329 8.95676 19.7665 8.95676 19.4665C8.95676 19.0585 9.29036 18.7249 9.69836 18.7249C9.73916 18.7249 9.77997 18.7273 9.82076 18.7345L10.0368 18.7705L10.2936 17.8849L10.056 17.8177C7.50477 17.0809 5.72396 14.6521 5.72396 11.9137C5.72636 9.77765 6.77996 7.82645 8.54156 6.69845ZM3.51356 9.70805C3.78236 9.35765 4.31756 9.28805 4.66796 9.55685C5.02796 9.83285 5.09516 10.3513 4.81916 10.7089C4.66316 10.9129 4.42316 11.0305 4.16636 11.0305C3.98396 11.0305 3.81116 10.9705 3.66716 10.8601C3.49196 10.7257 3.38156 10.5337 3.35276 10.3153C3.32156 10.0993 3.37916 9.88325 3.51356 9.70805ZM5.10476 15.1369C4.94876 15.3409 4.70876 15.4585 4.45196 15.4585C4.26956 15.4585 4.09676 15.3985 3.95276 15.2881C3.77756 15.1537 3.66716 14.9617 3.63836 14.7433C3.60956 14.5249 3.66716 14.3089 3.80156 14.1361C4.07036 13.7857 4.60556 13.7161 4.95596 13.9849C5.31356 14.2609 5.38076 14.7793 5.10476 15.1369ZM4.59356 18.9193C2.88956 17.3473 1.87196 14.7289 1.87196 11.9137C1.87196 8.17685 4.00796 4.83845 7.31516 3.40565C7.45676 3.34325 7.54076 3.36725 7.59356 3.39125C7.67996 3.42965 7.75196 3.51365 7.80476 3.59525C7.76396 3.61205 7.72556 3.63365 7.68476 3.65285C7.57196 3.70325 7.45916 3.75605 7.34876 3.81125C7.25516 3.85685 7.16396 3.90485 7.07276 3.95285C6.94556 4.02245 6.82076 4.09205 6.69596 4.16645C6.63356 4.20485 6.57116 4.24325 6.50876 4.28405C6.36476 4.37525 6.22076 4.47125 6.08156 4.57205C6.05516 4.59125 6.03116 4.61045 6.00476 4.62965C4.42316 5.79605 3.24716 7.46165 2.66636 9.37685C2.65676 9.40805 2.64716 9.44165 2.63756 9.47525C2.58476 9.65285 2.53676 9.83285 2.49596 10.0129C2.47916 10.0801 2.46716 10.1497 2.45276 10.2193C2.42156 10.3729 2.39036 10.5265 2.36636 10.6825C2.34716 10.8001 2.33756 10.9177 2.32316 11.0353C2.30876 11.1505 2.29436 11.2657 2.28476 11.3833C2.26556 11.6233 2.25596 11.8681 2.25596 12.1105L2.25836 12.3025L2.25596 12.3937C2.25596 13.0753 2.34956 13.7497 2.53436 14.3881C2.56556 14.5177 2.60636 14.6449 2.64476 14.7721C2.67356 14.8705 2.69996 14.9713 2.73356 15.0697C2.77676 15.2017 2.82716 15.3289 2.87516 15.4585C2.90876 15.5449 2.93996 15.6313 2.97596 15.7177C3.03116 15.8497 3.08876 15.9793 3.15116 16.1089C3.18716 16.1833 3.22316 16.2577 3.25916 16.3321C3.32876 16.4689 3.39836 16.6033 3.47516 16.7377C3.50636 16.7905 3.53756 16.8433 3.56876 16.8961C3.65756 17.0473 3.74876 17.1961 3.84716 17.3401C3.84956 17.3449 3.85436 17.3497 3.85676 17.3521C4.21436 17.8825 4.62716 18.3745 5.08556 18.8185C4.84556 18.8881 4.64636 18.9313 4.59356 18.9193ZM6.91916 7.04885C6.76316 7.25285 6.52316 7.37045 6.26636 7.37045C6.08396 7.37045 5.91116 7.31045 5.76716 7.20005C5.59196 7.06565 5.48156 6.87365 5.45276 6.65525C5.42396 6.43685 5.48156 6.22085 5.61596 6.04805C5.88476 5.69765 6.41996 5.62805 6.77036 5.89685C7.12796 6.17045 7.19516 6.68885 6.91916 7.04885Z" fill="currentColor"/>
</svg>
