<svg width="24" height="24" viewBox="0 0 24 24" fill="currentColor" xmlns="http://www.w3.org/2000/svg">
<path d="M21.3383 21.9624C20.3303 19.5936 19.7903 18.2496 19.0511 16.2624C19.5191 16.2504 19.8983 16.2432 20.2415 16.2336C20.2319 14.9136 20.2247 13.6368 20.2175 12.396C14.4479 12.3936 8.61114 12.3936 2.71194 12.3912C2.72154 13.4376 2.73114 14.508 2.73834 15.5808C2.74314 16.2432 2.74074 16.2408 3.37914 16.2456C3.57594 16.248 3.77274 16.26 4.03194 16.2696C3.00954 18.4056 2.28714 19.9536 1.30554 21.9648C7.16394 21.9648 15.4967 21.9624 21.3383 21.9624ZM16.9823 20.7744C16.8287 20.7576 16.6271 20.5536 16.5671 20.3928C16.2791 19.6176 16.0295 18.828 15.7679 18.0432C15.7199 18.048 15.6719 18.0528 15.6239 18.06C15.6623 18.9528 15.6983 19.848 15.7343 20.7192C14.8223 20.7168 14.0567 20.7144 13.2215 20.712C13.1375 20.1432 13.0439 19.5216 12.9527 18.9C12.9047 18.888 12.8591 18.8784 12.8111 18.8664C12.6743 19.2768 12.5567 19.6944 12.3935 20.0928C12.2951 20.3352 12.1247 20.5488 11.9879 20.7744C11.8871 20.5392 11.7599 20.3112 11.6927 20.0664C11.5055 19.392 11.3447 18.7104 11.1743 18.0312C11.1287 18.0288 11.0855 18.0288 11.0399 18.0264C10.9655 18.5232 10.8863 19.02 10.8143 19.5168C10.6319 20.796 10.6343 20.7936 9.33114 20.7984C8.72874 20.8008 8.12634 20.82 7.43514 20.8344C7.47594 19.9104 7.51434 19.0512 7.55274 18.192C7.47354 18.1848 7.39194 18.1776 7.31274 18.1704C7.14474 18.8376 6.95034 19.5 6.82074 20.1744C6.72954 20.652 6.52314 20.8392 6.01914 20.8104C5.49114 20.7792 3.83754 20.8584 3.21594 20.8944C3.70554 19.956 3.91674 19.404 4.17114 18.8448C4.68714 17.7096 4.86714 17.5032 5.25594 16.6632C5.39994 16.3536 5.47674 16.2384 5.79834 16.2384C9.63834 16.248 13.4807 16.2432 17.3207 16.2552C17.4695 16.2552 17.7143 16.3656 17.7527 16.4592C18.3167 17.8104 18.7535 18.9984 19.5815 20.8272C18.9215 20.8128 17.5295 20.8296 16.9823 20.7744ZM4.12794 13.7448C9.05754 13.7496 14.0015 13.752 19.0175 13.7568C19.0127 14.0952 19.0055 14.4768 19.0007 14.8056C14.0351 14.8032 9.07914 14.8008 4.06074 14.7984C4.07994 14.4912 4.10394 14.0976 4.12794 13.7448Z" fill="currentColor"/>
<path d="M16.7424 11.364H5.97119L7.15199 8.41199H15.5616L16.7424 11.364Z" fill="currentColor"/>
<path d="M13.6584 7.41844H9.05518V4.64884L12.9672 4.62244L13.6584 7.41844Z" fill="currentColor"/>
<path d="M21.8411 2.03746L14.3848 4.3988L15.2354 7.08482L22.6917 4.72348L21.8411 2.03746Z" fill="currentColor"/>
</svg>
