<svg width="24" height="24" viewBox="0 0 24 24" fill="currentColor" xmlns="http://www.w3.org/2000/svg">
<path d="M23.1816 17.34C22.0584 14.6952 21.4536 13.1976 20.628 10.9776C21.1488 10.9656 21.5736 10.956 21.9552 10.9464C21.9456 9.47279 21.936 8.04719 21.9288 6.66239C15.4872 6.65999 8.97356 6.65999 2.38796 6.65759C2.39756 7.82639 2.40956 9.02159 2.41676 10.2168C2.42156 10.956 2.41916 10.9536 3.13196 10.9584C3.35036 10.9608 3.57116 10.9728 3.85916 10.9848C2.72156 13.368 1.91516 15.0984 0.818359 17.3424C7.35836 17.3424 16.6608 17.34 23.1816 17.34ZM18.3168 16.0152C18.1464 15.9984 17.9208 15.7704 17.8536 15.588C17.532 14.724 17.2536 13.8408 16.9608 12.9648C16.908 12.9696 16.8528 12.9768 16.8 12.9816C16.8408 13.98 16.884 14.976 16.9248 15.9504C15.9072 15.948 15.0528 15.9456 14.1216 15.9432C14.028 15.3072 13.9248 14.6136 13.8216 13.9224C13.7688 13.9104 13.716 13.8984 13.6632 13.884C13.5096 14.3424 13.38 14.808 13.1976 15.252C13.0872 15.5232 12.8976 15.7608 12.7464 16.0128C12.6336 15.7488 12.492 15.4944 12.4152 15.2208C12.2064 14.4672 12.0264 13.7064 11.8368 12.948C11.7864 12.9456 11.7384 12.9456 11.688 12.9432C11.604 13.4976 11.5152 14.052 11.4384 14.6064C11.2344 16.0344 11.2368 16.032 9.78476 16.0368C9.11276 16.0392 8.43836 16.0608 7.66796 16.0776C7.71356 15.0456 7.75676 14.088 7.79756 13.128C7.70876 13.1208 7.61756 13.1112 7.52876 13.104C7.34156 13.848 7.12556 14.5872 6.97916 15.3408C6.87596 15.8736 6.64796 16.0824 6.08396 16.0512C5.49596 16.0176 3.64796 16.104 2.95436 16.1448C3.50156 15.096 3.73676 14.4816 4.01996 13.8576C4.59596 12.5904 4.79756 12.36 5.23196 11.4216C5.39276 11.076 5.47676 10.9464 5.83676 10.9464C10.1232 10.9584 14.412 10.9536 18.7008 10.9656C18.8688 10.9656 19.14 11.088 19.1832 11.1936C19.812 12.7032 20.3016 14.028 21.2232 16.0704C20.484 16.0584 18.9264 16.0776 18.3168 16.0152ZM3.96716 8.16719C9.47036 8.17199 14.988 8.17679 20.5872 8.17919C20.58 8.55839 20.5728 8.98319 20.568 9.35039C15.0264 9.34799 9.49436 9.34559 3.89036 9.34319C3.91436 8.99999 3.94316 8.56079 3.96716 8.16719Z" fill="currentColor"/>
</svg>
