<svg width="24" height="24" viewBox="0 0 24 24" fill="currentColor" xmlns="http://www.w3.org/2000/svg">
<path d="M19.3656 3.92404H17.0136V1.75684H13.1376V3.92404H10.4208V1.75684H6.54724V3.92404H4.63684V10.8384H7.10884V21.1416V22.2432H8.21044H15.792H16.8936V21.1416V10.8384H19.3656V3.92404ZM13.8744 2.49124H16.2792V3.92404H13.8744V2.49124ZM7.28164 2.49124H9.68644V3.92404H7.28164V2.49124ZM15.7896 21.1416H8.21044V10.8384H15.792V21.1416H15.7896Z" fill="currentColor"/>
<path d="M12.096 15.1344C11.2992 15.1344 10.6488 14.4864 10.6488 13.6872C10.6488 12.888 11.2968 12.24 12.096 12.24C12.8952 12.24 13.5432 12.888 13.5432 13.6872C13.5432 14.484 12.8928 15.1344 12.096 15.1344ZM12.096 12.9744C11.7024 12.9744 11.3832 13.2936 11.3832 13.6872C11.3832 14.0808 11.7024 14.4 12.096 14.4C12.4896 14.4 12.8088 14.0808 12.8088 13.6872C12.8088 13.2936 12.4896 12.9744 12.096 12.9744Z" fill="currentColor"/>
<path d="M12.096 19.3824C11.2992 19.3824 10.6488 18.7344 10.6488 17.9352C10.6488 17.136 11.2968 16.488 12.096 16.488C12.8952 16.488 13.5432 17.136 13.5432 17.9352C13.5432 18.7344 12.8928 19.3824 12.096 19.3824ZM12.096 17.2248C11.7024 17.2248 11.3832 17.544 11.3832 17.9376C11.3832 18.3312 11.7024 18.6504 12.096 18.6504C12.4896 18.6504 12.8088 18.3312 12.8088 17.9376C12.8088 17.544 12.4896 17.2248 12.096 17.2248Z" fill="currentColor"/>
</svg>
