<svg width="24" height="24" viewBox="0 0 24 24" fill="currentColor" xmlns="http://www.w3.org/2000/svg">
<path d="M2.328 4.84319C2.3304 6.90479 2.328 8.96639 2.328 11.028C2.328 13.7592 2.328 16.4904 2.3304 19.2216C2.3328 20.5584 3.168 21.6288 4.4448 21.9288C4.6128 21.9696 4.7904 21.9888 4.9656 21.9888C9.6552 21.9912 14.3424 21.9936 19.032 21.9912C20.352 21.9912 21.5544 20.904 21.6312 19.5912C21.6864 18.6576 21.6672 17.7192 21.6672 16.7832C21.6696 12.804 21.66 8.82479 21.672 4.84319C21.6768 3.24959 20.5464 2.19359 19.3848 2.03759C19.368 2.03519 19.3512 2.01839 19.3344 2.00879C14.4432 2.00879 9.552 2.00879 4.6608 2.00879C4.536 2.04239 4.4112 2.07119 4.2888 2.10719C3.0912 2.45519 2.328 3.52559 2.328 4.84319ZM6.9912 17.6496C6.564 17.6496 6.132 17.6496 5.6808 17.6496C5.6808 18.432 5.6808 19.1952 5.6808 19.9824C5.556 19.9824 5.4672 19.9824 5.3568 19.9824C5.3568 19.2168 5.3568 18.4536 5.3568 17.6688C4.9032 17.6688 4.4712 17.6688 4.0248 17.6688C4.0248 17.112 4.0248 16.5768 4.0248 16.0032C4.2096 16.0032 4.3944 16.0032 4.5768 16.0032C4.7712 16.0032 4.968 15.996 5.1624 16.008C5.3064 16.0176 5.352 15.9696 5.352 15.8208C5.3448 14.736 5.3472 13.6512 5.3472 12.564C5.3472 12.4992 5.3472 12.4368 5.3472 12.3552C5.4552 12.3552 5.5464 12.3552 5.664 12.3552C5.664 13.56 5.664 14.7648 5.664 15.9912C6.1176 15.9912 6.5496 15.9912 6.9936 15.9912C6.9912 16.5552 6.9912 17.0928 6.9912 17.6496ZM15.9696 18.9792C15.5424 18.9792 15.1128 18.9792 14.6592 18.9792C14.6592 19.3224 14.6592 19.644 14.6592 19.9752C14.544 19.9752 14.4528 19.9752 14.3424 19.9752C14.3424 19.6512 14.3424 19.3344 14.3424 18.996C13.896 18.996 13.4664 18.996 13.02 18.996C13.02 18.4368 13.02 17.9016 13.02 17.34C13.4496 17.34 13.8816 17.34 14.3304 17.34C14.3304 15.6672 14.3304 14.0184 14.3304 12.348C14.4504 12.348 14.5392 12.348 14.652 12.348C14.652 14.0064 14.652 15.66 14.652 17.3304C15.1008 17.3304 15.528 17.3304 15.9696 17.3304C15.9696 17.8872 15.9696 18.4224 15.9696 18.9792ZM20.2992 15.6552C19.8696 15.6552 19.4448 15.6552 18.9912 15.6552C18.9912 17.1048 18.9912 18.5376 18.9912 19.98C18.8784 19.98 18.7896 19.98 18.6672 19.98C18.6672 18.5424 18.6672 17.1144 18.6672 15.6696C18.2232 15.6696 17.796 15.6696 17.352 15.6696C17.352 15.1104 17.352 14.568 17.352 14.0064C17.7792 14.0064 18.2064 14.0064 18.6576 14.0064C18.6576 13.4448 18.6576 12.9048 18.6576 12.3528C18.7728 12.3528 18.8616 12.3528 18.9768 12.3528C18.9768 12.8928 18.9768 13.4352 18.9768 13.9944C19.428 13.9944 19.8552 13.9944 20.2968 13.9944C20.2992 14.5536 20.2992 15.096 20.2992 15.6552ZM16.5 4.34879C18.4296 4.34879 20.0016 5.92559 19.9896 7.84559C19.9776 9.76799 18.4152 11.328 16.5 11.3328C14.5752 11.3376 13.008 9.76799 13.008 7.83599C13.008 5.90159 14.5632 4.34639 16.5 4.34879ZM11.6448 16.644C11.2104 16.644 10.7832 16.644 10.332 16.644C10.332 17.7648 10.332 18.8664 10.332 19.9776C10.2168 19.9776 10.1304 19.9776 10.0176 19.9776C10.0176 18.8808 10.0176 17.7792 10.0176 16.6536C9.5616 16.6536 9.132 16.6536 8.688 16.6536C8.688 16.0944 8.688 15.5568 8.688 15.0072C9.1224 15.0072 9.5496 15.0072 9.9984 15.0072C9.9984 14.1168 9.9984 13.2432 9.9984 12.3552C10.1136 12.3552 10.2048 12.3552 10.3224 12.3552C10.3224 13.2312 10.3224 14.1048 10.3224 14.9976C10.7712 14.9976 11.1984 14.9976 11.6448 14.9976C11.6448 15.5616 11.6448 16.092 11.6448 16.644ZM7.6392 4.34879C9.5424 4.42079 11.016 6.01679 10.9872 7.84079C10.9776 9.78959 9.4176 11.34 7.4736 11.3304C5.5728 11.3208 4.0032 9.73919 4.0104 7.84079C4.0176 5.82959 5.6712 4.27439 7.6392 4.34879Z" fill="currentColor"/>
<path d="M7.62962 7.68239C6.97442 7.02479 6.31201 6.35999 5.65921 5.70239C5.55841 5.79359 5.45041 5.89439 5.36401 5.97359C6.03601 6.64799 6.69601 7.31039 7.35362 7.97039C7.44482 7.87679 7.54802 7.77119 7.62962 7.68239Z" fill="currentColor"/>
<path d="M18.6456 5.98079C18.5496 5.88959 18.4416 5.78639 18.3456 5.69519C17.6736 6.36479 17.0136 7.02479 16.368 7.67039C16.4592 7.77119 16.56 7.88639 16.644 7.97999C17.3136 7.31039 17.9736 6.65039 18.6456 5.98079Z" fill="currentColor"/>
</svg>
