<svg width="24" height="24" viewBox="0 0 24 24" fill="currentColor" xmlns="http://www.w3.org/2000/svg">
<path d="M10.0128 14.3784C9.816 14.3256 9.648 14.172 9.4992 13.9056C9.4176 13.7592 9.3432 13.6536 9.2616 13.5696C9.0912 13.392 8.8752 13.308 8.6592 13.3272C8.4408 13.3488 8.2464 13.476 8.112 13.6872C7.704 14.328 7.5936 15.6888 8.3448 16.452C8.8368 16.9512 9.528 17.1528 10.152 16.9728C10.74 16.8048 11.16 16.3344 11.304 15.6864C11.3256 15.5856 11.3424 15.4512 11.364 15.3C11.4192 14.8752 11.4864 14.3472 11.7192 14.0208L11.7936 13.9152L11.9232 13.9248C11.9808 13.9296 12.0384 13.9296 12.0984 13.9224C12.264 13.908 12.4176 13.8576 12.5568 13.776L12.6288 13.7328L12.7128 13.7472C13.0416 13.8048 13.3176 14.0856 13.4544 14.3088C13.56 14.4816 13.5936 14.6544 13.5504 14.8176C13.4976 15.0144 13.344 15.1824 13.0776 15.3312C12.936 15.4104 12.8256 15.4872 12.7416 15.5688C12.564 15.7392 12.4776 15.9528 12.4992 16.1736C12.5208 16.392 12.648 16.5864 12.8592 16.7208C13.5 17.1288 14.8608 17.2368 15.624 16.488C16.1232 15.996 16.3248 15.3048 16.1448 14.6808C15.9768 14.0928 15.5064 13.6728 14.8584 13.5288C14.7576 13.5072 14.6232 13.4904 14.472 13.4712C14.0472 13.416 13.5192 13.3488 13.1928 13.116L13.0872 13.0416L13.0968 12.912C13.1016 12.8544 13.1016 12.7944 13.0944 12.7368C13.08 12.5736 13.0296 12.42 12.948 12.2784L12.9048 12.2064L12.9192 12.1224C12.9768 11.7936 13.2576 11.5176 13.4808 11.3808C13.6536 11.2752 13.8264 11.2416 13.9896 11.2848C14.1864 11.3376 14.3544 11.4912 14.5008 11.7576C14.58 11.9016 14.6568 12.0096 14.7384 12.0936C14.9088 12.2712 15.1248 12.3552 15.3432 12.336C15.5616 12.3144 15.756 12.1872 15.8904 11.976C16.2984 11.3352 16.4088 9.97445 15.6576 9.21125C15.1656 8.71205 14.4744 8.51285 13.8504 8.69045C13.2624 8.85845 12.8424 9.32885 12.6984 9.97685C12.6768 10.0776 12.66 10.212 12.6408 10.3608C12.5856 10.7856 12.5184 11.3136 12.2856 11.64L12.2112 11.7456L12.0816 11.736C12.024 11.7312 11.964 11.7312 11.904 11.7384C11.7408 11.7528 11.5872 11.8032 11.4456 11.8848L11.3736 11.928L11.2896 11.9136C10.9608 11.856 10.6824 11.5752 10.548 11.352C10.4424 11.1792 10.4088 11.0064 10.452 10.8432C10.5048 10.6464 10.6584 10.4784 10.9248 10.332C11.0712 10.2504 11.1768 10.176 11.2608 10.0944C11.4384 9.92405 11.5248 9.71045 11.5032 9.48965C11.4816 9.27125 11.3544 9.07685 11.1432 8.94245C10.5024 8.53445 9.1416 8.42405 8.3784 9.17525C7.8792 9.66725 7.6776 10.3608 7.8576 10.9824C8.0256 11.5704 8.496 11.9904 9.144 12.1344C9.2448 12.156 9.3816 12.1752 9.5304 12.1944C9.9552 12.2496 10.4832 12.3192 10.8072 12.5496L10.9128 12.624L10.9032 12.7536C10.8984 12.8112 10.8984 12.8712 10.9056 12.9288C10.92 13.092 10.9704 13.2456 11.052 13.3872L11.0952 13.4592L11.0808 13.5432C11.0232 13.872 10.7424 14.148 10.5192 14.2848C10.3488 14.3904 10.176 14.4216 10.0128 14.3784ZM11.9232 11.9544C12.4056 11.9112 12.8352 12.2712 12.8784 12.7536C12.9 12.9888 12.828 13.2168 12.6768 13.3968C12.5256 13.5768 12.3144 13.6872 12.0792 13.7088C12.0528 13.7112 12.0264 13.7112 12 13.7112C11.5488 13.7112 11.1648 13.3656 11.124 12.9096C11.0808 12.4272 11.4384 11.9976 11.9232 11.9544Z" fill="currentColor"/>
<path d="M12 13.7112C12.0264 13.7112 12.0528 13.7088 12.0792 13.7088C12.3144 13.6872 12.5256 13.5768 12.6768 13.3968C12.828 13.2168 12.9 12.9888 12.8784 12.7536C12.8352 12.2712 12.4056 11.9112 11.9232 11.9544C11.4408 11.9976 11.0808 12.4272 11.124 12.9096C11.1648 13.3656 11.5488 13.7112 12 13.7112ZM11.964 12.4128C12.1944 12.3888 12.3984 12.564 12.42 12.7944C12.4296 12.9072 12.396 13.0152 12.324 13.1016C12.252 13.188 12.1512 13.2408 12.0384 13.2504C11.808 13.2744 11.604 13.0992 11.5824 12.8688C11.5608 12.6384 11.7312 12.4344 11.964 12.4128Z" fill="currentColor"/>
<path d="M21.0528 5.41443H6.95998V5.19363H7.45198V4.34163C7.45198 4.11363 7.26718 3.92883 7.03918 3.92883H3.43198C3.20398 3.92883 3.01918 4.11363 3.01918 4.34163V5.19363H3.53998V5.41443H2.94478C2.40478 5.41443 1.96558 5.85363 1.96558 6.39363V19.0896C1.96558 19.6296 2.40478 20.0688 2.94478 20.0688H21.0504C21.5904 20.0688 22.0296 19.6296 22.0296 19.0896V6.39363C22.032 5.85363 21.5928 5.41443 21.0528 5.41443ZM3.47998 4.73283V4.38963H6.98878V4.73283H6.49678V5.41443H4.00078V4.73283H3.47998ZM20.4528 18.6552H3.53038V17.9784H20.4528V18.6552ZM6.89758 10.1904V10.8672H3.54478V10.1904H6.89758ZM3.54478 9.30963V8.63283H6.89758V9.30963H3.54478ZM6.89758 11.748V12.4248H3.54478V11.748H6.89758ZM6.89758 13.3056V13.9824H3.54478V13.3056H6.89758ZM6.89758 14.8632V15.54H3.54478V14.8632H6.89758ZM6.89758 16.4208V17.0976H3.54478V16.4208H6.89758ZM10.4496 12.9696C10.4472 12.9336 10.4448 12.9 10.4448 12.8664C10.1904 12.744 9.78238 12.6912 9.47278 12.6504C9.30718 12.6288 9.15838 12.6096 9.04558 12.5832C8.22718 12.4008 7.63198 11.8632 7.41598 11.1096C7.19038 10.3248 7.43758 9.45843 8.05678 8.84643C8.93758 7.98003 10.5216 7.99923 11.3928 8.55363C11.7192 8.76243 11.928 9.08643 11.9616 9.44403C11.9976 9.80163 11.856 10.1592 11.5776 10.4256C11.4648 10.5336 11.328 10.632 11.148 10.7328C10.9536 10.8408 10.9056 10.9224 10.896 10.9608C10.8864 10.9992 10.9008 11.0496 10.9392 11.1144C11.016 11.2416 11.1624 11.3856 11.2992 11.4432C11.4744 11.3544 11.664 11.3016 11.8608 11.2824C11.8944 11.28 11.9304 11.2776 11.964 11.2776C12.0864 11.0232 12.1392 10.6152 12.18 10.3056C12.2016 10.14 12.2208 9.99363 12.2448 9.88083C12.4272 9.06243 12.9648 8.46723 13.7184 8.25123C14.5032 8.02563 15.3696 8.27043 15.9816 8.89203C16.8456 9.77043 16.8288 11.3544 16.2744 12.228C16.0656 12.5544 15.7416 12.7632 15.384 12.7968C15.0264 12.8304 14.6688 12.6912 14.4024 12.4128C14.2944 12.3 14.196 12.1608 14.0952 11.9808C13.9872 11.7864 13.9056 11.7408 13.8672 11.7288C13.8288 11.7168 13.7784 11.7336 13.716 11.772C13.5888 11.8488 13.4448 11.9952 13.3872 12.132C13.476 12.3072 13.5288 12.4944 13.5456 12.6936C13.548 12.7272 13.5504 12.7632 13.5504 12.7968C13.8048 12.9192 14.2128 12.972 14.5224 13.0128C14.688 13.0344 14.8368 13.0536 14.9472 13.0776C15.7656 13.26 16.3608 13.7976 16.5768 14.5512C16.8024 15.336 16.5552 16.2048 15.936 16.8144C15.4536 17.2896 14.7576 17.4984 14.0856 17.4984C13.5336 17.4984 12.996 17.3568 12.6024 17.1072C12.276 16.8984 12.0672 16.5744 12.0336 16.2168C11.9976 15.8592 12.1392 15.5016 12.4152 15.2352C12.528 15.1272 12.6696 15.0264 12.8472 14.928C13.0416 14.82 13.0872 14.7384 13.0992 14.7C13.1088 14.6616 13.0944 14.6112 13.056 14.5488C12.9792 14.4216 12.8328 14.2776 12.696 14.22C12.5208 14.3088 12.3336 14.3616 12.1344 14.3784C12.1008 14.3808 12.0648 14.3832 12.0312 14.3832C11.9088 14.6376 11.856 15.0456 11.8152 15.3552C11.7936 15.5208 11.7744 15.6696 11.7504 15.7824C11.568 16.6008 11.0304 17.196 10.2768 17.412C9.49198 17.6376 8.62558 17.3904 8.01598 16.7712C7.15198 15.8928 7.16878 14.3088 7.72318 13.4376C7.93198 13.1112 8.25598 12.9024 8.61358 12.8688C8.96878 12.8328 9.32878 12.972 9.59518 13.2504C9.70318 13.3632 9.80158 13.5 9.90238 13.6824C10.0104 13.8768 10.092 13.9248 10.1304 13.9344C10.1688 13.944 10.2192 13.9296 10.2816 13.8912C10.4088 13.8144 10.5528 13.6704 10.6104 13.5312C10.5216 13.356 10.4688 13.1664 10.4496 12.9696ZM20.4528 17.0976H17.1V16.4208H20.4528V17.0976ZM20.4528 15.54H17.1V14.8632H20.4528V15.54ZM20.4528 13.9824H17.1V13.3056H20.4528V13.9824ZM20.4528 12.4248H17.1V11.748H20.4528V12.4248ZM20.4528 10.8672H17.1V10.1904H20.4528V10.8672ZM20.4528 9.30963H17.1V8.63283H20.4528V9.30963ZM20.4528 7.75203H3.53038V7.07523H20.4528V7.75203Z" fill="currentColor"/>
</svg>
