<svg width="24" height="24" viewBox="0 0 24 24" fill="currentColor" xmlns="http://www.w3.org/2000/svg">
<path d="M15.8274 22.4515L15.8274 14.4307H13.389L13.389 22.4515H15.8274Z" fill="currentColor"/>
<path d="M2.74085 3.10069H21.2616C21.48 3.10069 21.6576 2.92309 21.6576 2.70469V1.94629C21.6576 1.72789 21.48 1.55029 21.2616 1.55029H2.74085C2.52245 1.55029 2.34485 1.72789 2.34485 1.94629V2.70709C2.34485 2.92309 2.52245 3.10069 2.74085 3.10069Z" fill="currentColor"/>
<path d="M20.3161 8.39521V4.24561H11.0353H4.30566V8.39521V21.2544H11.0353V19.7184H12.6793V17.3712H11.0353V8.39521H20.3161Z" fill="currentColor"/>
<path d="M18.3477 16.1106V15.7842H17.4885V16.1106H18.3477Z" fill="currentColor"/>
<path d="M18.3484 17.7722V17.4458H17.4892V17.7722H18.3484Z" fill="currentColor"/>
<path d="M18.3492 19.4338V19.1074H17.49V19.4338H18.3492Z" fill="currentColor"/>
<path d="M18.3477 21.0954V20.769H17.4885V21.0954H18.3477Z" fill="currentColor"/>
<path d="M17.1649 15.5615H16.4185V21.3191H17.1649V15.5615Z" fill="currentColor"/>
</svg>
