<svg width="24" height="24" viewBox="0 0 24 24" fill="currentColor" xmlns="http://www.w3.org/2000/svg">
<path d="M7.49275 11.5056H5.02075V12.8136H7.49275V11.5056Z" fill="currentColor"/>
<path d="M12.0312 15.0264C14.1718 15.0264 15.9072 13.7434 15.9072 12.1608C15.9072 10.5781 14.1718 9.29517 12.0312 9.29517C9.8905 9.29517 8.15515 10.5781 8.15515 12.1608C8.15515 13.7434 9.8905 15.0264 12.0312 15.0264Z" fill="currentColor"/>
<path d="M3.21119 9.06958H2.41199V15.252H3.21119V9.06958Z" fill="currentColor"/>
<path d="M1.96594 9.66091V9.30811H1.04434V9.66091H1.96594Z" fill="currentColor"/>
<path d="M1.96655 11.4448V11.092H1.04495V11.4448H1.96655Z" fill="currentColor"/>
<path d="M1.96716 13.2285V12.8757H1.04556V13.2285H1.96716Z" fill="currentColor"/>
<path d="M1.96777 15.0125V14.6597H1.04617V15.0125H1.96777Z" fill="currentColor"/>
<path d="M3.672 13.5456V10.7952L4.5888 11.0184V13.3224L3.672 13.5456Z" fill="currentColor"/>
<path d="M16.6962 12.8142H19.1682V11.5062H16.6962V12.8142Z" fill="currentColor"/>
<path d="M20.9784 15.2502H21.7776V9.06784H20.9784V15.2502Z" fill="currentColor"/>
<path d="M22.2213 14.6592V15.012H23.1429V14.6592H22.2213Z" fill="currentColor"/>
<path d="M22.2219 12.8752V13.228H23.1435V12.8752H22.2219Z" fill="currentColor"/>
<path d="M22.2225 11.0915V11.4443H23.1441V11.0915H22.2225Z" fill="currentColor"/>
<path d="M22.2231 9.3076V9.6604H23.1447V9.3076H22.2231Z" fill="currentColor"/>
<path d="M20.5175 10.7759V13.5263L19.6007 13.3031V10.9967L20.5175 10.7759Z" fill="currentColor"/>
</svg>
