<svg width="24" height="24" viewBox="0 0 24 24" fill="currentColor" xmlns="http://www.w3.org/2000/svg">
<path d="M2.53442 19.5143C2.53442 19.8767 2.78162 20.1695 3.08402 20.1695H20.9136C21.216 20.1695 21.4632 19.8767 21.4632 19.5143V8.51514H2.53442V19.5143ZM16.092 12.2111C16.092 12.0383 16.2096 11.8967 16.356 11.8967H18.8928C19.0392 11.8967 19.1568 12.0359 19.1568 12.2111V12.9527C19.1568 13.1255 19.0392 13.2647 18.8928 13.2647H16.3536C16.2072 13.2647 16.0896 13.1255 16.0896 12.9527V12.2111H16.092ZM4.84562 12.1967C4.84562 12.0335 4.95842 11.8991 5.09522 11.8991H5.92802V10.9079C5.92802 10.7447 6.04082 10.6103 6.17762 10.6103H6.82802C6.96482 10.6103 7.07762 10.7423 7.07762 10.9079V11.8991H7.91042C8.04722 11.8991 8.16002 12.0311 8.16002 12.1967V12.9695C8.16002 13.1327 8.04722 13.2671 7.91042 13.2671H7.07762V14.2583C7.07762 14.4215 6.96482 14.5559 6.82802 14.5559H6.17762C6.04082 14.5559 5.92802 14.4239 5.92802 14.2583V13.2671H5.09522C4.95842 13.2671 4.84562 13.1351 4.84562 12.9695V12.1967Z" fill="currentColor"/>
<path d="M22.0992 5.58952H19.2312V4.44232C19.2312 4.10392 19.0008 3.83032 18.7176 3.83032H16.5048C16.2216 3.83032 15.9912 4.10392 15.9912 4.44232V5.58952H8.21281V4.44232C8.21281 4.10392 7.98241 3.83032 7.69921 3.83032H5.48401C5.20081 3.83032 4.97041 4.10392 4.97041 4.44232V5.58952H1.90081C1.61761 5.58952 1.38721 5.86312 1.38721 6.20152V7.22872C1.38721 7.56712 1.61761 7.84072 1.90081 7.84072H22.1016C22.3848 7.84072 22.6152 7.56712 22.6152 7.22872V6.20152C22.6152 5.86312 22.3848 5.58952 22.0992 5.58952Z" fill="currentColor"/>
</svg>
