<svg width="24" height="24" viewBox="0 0 24 24" fill="currentColor" xmlns="http://www.w3.org/2000/svg">
<path d="M2.6449 19.4281C2.6449 19.7857 2.8873 20.0737 3.1873 20.0737H20.8105C21.1105 20.0737 21.3529 19.7833 21.3529 19.4281V8.55371H2.6449V19.4281ZM16.0441 12.2089C16.0441 12.0385 16.1617 11.8993 16.3033 11.8993H18.8113C18.9553 11.8993 19.0705 12.0385 19.0705 12.2089V12.9433C19.0705 13.1137 18.9553 13.2529 18.8113 13.2529H16.3033C16.1593 13.2529 16.0441 13.1137 16.0441 12.9433V12.2089ZM9.6145 14.6377L11.7313 10.4017C11.7553 10.3537 11.8033 10.3225 11.8585 10.3225H14.1169C14.1673 10.3225 14.2153 10.3513 14.2417 10.3945C14.2657 10.4401 14.2657 10.4953 14.2369 10.5385L12.5857 13.1449H14.2585C14.3137 13.1449 14.3641 13.1761 14.3857 13.2265C14.4097 13.2769 14.4001 13.3345 14.3665 13.3777L9.8497 18.7441C9.8209 18.7777 9.7825 18.7945 9.7417 18.7945C9.7153 18.7945 9.6913 18.7873 9.6673 18.7729C9.6073 18.7369 9.5833 18.6625 9.6097 18.5977L11.1913 14.8417H9.7393C9.6913 14.8417 9.6457 14.8153 9.6193 14.7745C9.5953 14.7313 9.5929 14.6809 9.6145 14.6377ZM4.9297 12.1945C4.9297 12.0313 5.0401 11.9017 5.1769 11.9017H6.0001V10.9201C6.0001 10.7569 6.1105 10.6273 6.2473 10.6273H6.8905C7.0273 10.6273 7.1377 10.7593 7.1377 10.9201V11.8993H7.9609C8.0977 11.8993 8.2081 12.0313 8.2081 12.1921V12.9601C8.2081 13.1233 8.0977 13.2529 7.9609 13.2529H7.1377V14.2321C7.1377 14.3953 7.0273 14.5249 6.8905 14.5249H6.2473C6.1105 14.5249 6.0001 14.3929 6.0001 14.2321V13.2529H5.1769C5.0401 13.2529 4.9297 13.1209 4.9297 12.9601V12.1945Z" fill="currentColor"/>
<path d="M21.9816 5.66411H19.1472V4.53131C19.1472 4.19771 18.9192 3.92651 18.6384 3.92651H16.4496C16.1688 3.92651 15.9408 4.19771 15.9408 4.53131V5.66411H8.25604V4.53131C8.25604 4.19771 8.02804 3.92651 7.74724 3.92651H5.55844C5.27764 3.92651 5.04964 4.19771 5.04964 4.53131V5.66411H2.01844C1.73764 5.66411 1.50964 5.93531 1.50964 6.26891V7.28411C1.50964 7.61771 1.73764 7.88891 2.01844 7.88891H21.984C22.2648 7.88891 22.4928 7.61771 22.4928 7.28411V6.26891C22.4904 5.93291 22.2624 5.66411 21.9816 5.66411Z" fill="currentColor"/>
</svg>
