<svg width="24" height="24" viewBox="0 0 24 24" fill="currentColor" xmlns="http://www.w3.org/2000/svg">
<path d="M19.6872 10.3295V11.3327H18.684V9.32872H17.1144L15.1104 7.99192H13.0032V5.98552H15.6768V5.31592H7.65596V5.98552H10.3296V7.98952H8.20076L5.86076 9.99592H3.97916V11.9999H2.30876V8.99272H1.63916V17.3471H2.30876V14.6735H3.97916V17.3471H5.89436L8.23436 18.6839H18.684V17.0135H19.6872V17.6807H22.3608V10.3295H19.6872ZM3.97916 14.0063H2.30876V12.6695H3.97916V14.0063ZM5.64956 16.6799H4.64636V10.6631H5.64956V16.6799ZM10.9968 5.98552H12.3336V7.98952H10.9968V5.98552ZM19.6872 16.3439H18.684V11.9999H19.6872V16.3439ZM21.6912 17.0135H20.3544V10.9967H21.6912V17.0135Z" fill="currentColor"/>
</svg>
