<svg width="24" height="24" viewBox="0 0 24 24" fill="currentColor" xmlns="http://www.w3.org/2000/svg">
<path d="M6.74643 9.14168C6.27843 9.39848 5.55363 8.93048 5.07603 8.45528L4.31043 7.69208C3.97923 7.36328 4.02483 7.09688 4.21203 6.28808C4.30323 5.89688 4.40643 5.45288 4.40643 4.97048C4.40643 4.20728 4.14003 3.57128 3.59043 3.02408L3.06963 2.50328C3.02883 2.46248 2.97123 2.43848 2.91363 2.43848C2.85603 2.43848 2.79843 2.46248 2.75763 2.50328L1.57203 3.69128C1.48803 3.77528 1.48803 3.92168 1.57203 4.00568L2.09283 4.52648C2.23443 4.66808 2.28483 4.78568 2.28483 4.97768C2.28483 5.16728 2.23443 5.42408 2.14563 5.80568C2.05203 6.20408 1.94643 6.65768 1.94643 7.15208C1.94643 7.94648 2.22963 8.61608 2.81043 9.19448L3.57603 9.95768C4.92963 11.3065 6.49443 11.6977 7.76403 11.0041C7.93923 10.9081 9.50404 10.0993 10.5816 11.1745L10.7928 11.3857C10.8792 11.4721 11.0208 11.4721 11.1072 11.3857L12.2928 10.1977C12.336 10.1545 12.3576 10.0969 12.3576 10.0417C12.3576 9.98408 12.336 9.92888 12.2928 9.88568L12.0816 9.67448C11.2824 8.87768 10.248 8.47448 9.08643 8.50808C7.96563 8.53688 7.07523 8.96168 6.74643 9.14168Z" fill="currentColor"/>
<path d="M21.084 21.5617C21.144 21.5617 21.1992 21.5377 21.24 21.4969L22.4256 20.3089C22.4688 20.2657 22.4904 20.2081 22.4904 20.1529C22.4904 20.0977 22.4688 20.0401 22.4256 19.9969L20.736 18.3121C20.6952 18.2713 20.6376 18.2473 20.58 18.2473C20.52 18.2473 20.4648 18.2713 20.424 18.3121L19.2384 19.5001C19.152 19.5865 19.152 19.7281 19.2384 19.8145L20.928 21.4993C20.9688 21.5377 21.024 21.5617 21.084 21.5617Z" fill="currentColor"/>
<path d="M18.3097 19.817L20.7385 17.381C20.9281 17.1914 21.0313 16.9394 21.0313 16.6706C21.0313 16.4018 20.9257 16.1498 20.7361 15.9602L20.5321 15.7562C20.7553 15.4682 20.7289 15.0242 20.4673 14.7626C20.3233 14.621 20.1361 14.5418 19.9345 14.5418C19.7665 14.5418 19.6057 14.597 19.4737 14.7002L16.2169 11.4506C16.3177 11.3186 16.3729 11.1578 16.3729 10.9898C16.3729 10.7882 16.2937 10.5986 16.1521 10.457C15.8809 10.1882 15.4537 10.1666 15.1585 10.3946L14.7169 9.9554C14.5273 9.7658 14.2753 9.6626 14.0065 9.6626C13.7377 9.6626 13.4857 9.7682 13.2961 9.9578L10.8673 12.3914C10.6777 12.581 10.5745 12.8354 10.5745 13.1018C10.5745 13.3706 10.6801 13.6226 10.8697 13.8122L11.3113 14.2514C11.0881 14.5394 11.1145 14.9834 11.3761 15.245C11.6473 15.5162 12.0745 15.5354 12.3697 15.3074L15.6289 18.5594C15.4057 18.8474 15.4321 19.2914 15.6937 19.553C15.8353 19.6946 16.0249 19.7738 16.2265 19.7738C16.3945 19.7738 16.5553 19.7186 16.6873 19.6154L16.8913 19.8194C17.0809 20.009 17.3353 20.1122 17.6017 20.1122C17.8681 20.1122 18.1201 20.0066 18.3097 19.817ZM15.7513 11.297L12.2137 14.8418L12.1249 14.9306C12.0049 15.0506 11.8081 15.0506 11.6881 14.9306C11.5705 14.813 11.5705 14.609 11.6881 14.4938L11.7769 14.405L15.3121 10.8602L15.4009 10.7714C15.5209 10.6514 15.7177 10.6514 15.8401 10.7714C15.8977 10.829 15.9313 10.9082 15.9313 10.9898C15.9313 11.0738 15.9001 11.1506 15.8401 11.2106L15.7513 11.297ZM20.0689 15.605L16.5313 19.1498L16.4425 19.2386C16.3225 19.3586 16.1257 19.361 16.0033 19.2386C15.8857 19.121 15.8857 18.917 16.0033 18.7994L16.0921 18.7106L19.6297 15.1682L19.7185 15.0794C19.7785 15.0194 19.8553 14.9882 19.9369 14.9882C20.0185 14.9882 20.0977 15.0194 20.1553 15.0794C20.2705 15.1946 20.2729 15.401 20.1553 15.5186L20.0689 15.605Z" fill="currentColor"/>
</svg>
