<svg width="24" height="24" viewBox="0 0 24 24" fill="currentColor" xmlns="http://www.w3.org/2000/svg">
<path d="M12.4727 10.5913C10.6391 10.5985 9.01434 10.5481 7.39914 10.3585C6.41994 10.2433 5.44074 10.0849 4.47834 9.87132C3.66234 9.69132 2.84154 9.47532 2.14314 8.97132C1.60794 8.58492 1.57434 8.10252 2.13354 7.69452C2.53194 7.40412 2.98314 7.22892 3.45114 7.07772C4.93674 6.60252 6.46794 6.38412 8.01354 6.24252C9.93834 6.06732 11.8655 6.01692 13.7951 6.11052C14.9975 6.16812 16.1999 6.26652 17.3951 6.41052C18.2207 6.50892 19.0415 6.68412 19.8479 6.89052C20.3999 7.03212 20.9327 7.25772 21.4535 7.49532C21.6911 7.60332 21.9023 7.80012 22.0775 7.99932C22.2575 8.20332 22.2479 8.47932 22.0631 8.67852C21.8855 8.86812 21.6743 9.04092 21.4487 9.17292C20.9375 9.47052 20.3687 9.61932 19.8023 9.77772C18.8831 10.0369 17.9399 10.1569 16.9991 10.2913C15.4295 10.5169 13.8479 10.5529 12.4727 10.5913ZM11.5415 6.69852C10.2551 6.73452 8.87754 6.76572 7.50954 6.96252C6.50154 7.10892 5.48874 7.23852 4.53354 7.62012C4.36314 7.68972 4.19034 7.76412 4.03434 7.86252C3.57834 8.14812 3.58794 8.52252 4.05114 8.79132C4.18314 8.86812 4.31274 8.96172 4.45674 9.00972C4.87674 9.15132 5.29914 9.30252 5.73114 9.39612C7.20234 9.71052 8.69514 9.85692 10.1975 9.91932C11.9039 9.99132 13.6079 9.98172 15.3095 9.80652C16.4087 9.69372 17.5103 9.59532 18.5807 9.29292C19.0607 9.15612 19.5431 9.03132 19.9607 8.73372C20.2919 8.49852 20.3111 8.20812 19.9943 7.94892C19.5743 7.60572 19.0583 7.45932 18.5567 7.34412C17.7479 7.15692 16.9199 7.02492 16.0943 6.91932C14.6111 6.73212 13.1231 6.69852 11.5415 6.69852Z" fill="currentColor"/>
<path d="M22.1975 15C22.3631 15.324 22.2479 15.7344 21.9383 15.9984C21.4991 16.3752 20.9903 16.608 20.4527 16.8048C19.5263 17.1456 18.5687 17.34 17.6015 17.5104C16.1423 17.7696 14.6711 17.8608 13.1951 17.9136C11.5247 17.9736 9.85912 17.9016 8.19352 17.7528C7.16392 17.6616 6.15112 17.472 5.14552 17.2512C4.25512 17.0568 3.38872 16.7976 2.59192 16.344C2.21512 16.1304 1.88872 15.864 1.78072 15.4128C1.76632 15.3504 1.77352 15.2856 1.77112 15.2424C1.88632 15.3384 2.00152 15.4344 2.11672 15.5328C2.73832 16.0536 3.48232 16.3224 4.25032 16.5168C5.04472 16.7184 5.84872 16.8816 6.65512 17.0352C7.83592 17.2608 9.03352 17.3448 10.2311 17.376C11.3687 17.4048 12.5063 17.4072 13.6415 17.3784C15.5471 17.3304 17.4359 17.1048 19.2887 16.6344C19.9751 16.4592 20.6543 16.248 21.2783 15.8928C21.6599 15.6744 22.0175 15.432 22.1975 15Z" fill="currentColor"/>
<path d="M8.7551 11.0281C8.9879 11.0449 9.1871 11.0593 9.3983 11.0737C9.3983 13.0849 9.3983 15.0817 9.3983 17.1049C9.2015 17.0857 9.0191 17.0785 8.8391 17.0425C8.8007 17.0353 8.7599 16.9345 8.7575 16.8769C8.7503 16.4065 8.7527 15.9385 8.7527 15.4681C8.7527 14.0905 8.7527 12.7129 8.7527 11.3377C8.7551 11.2465 8.7551 11.1553 8.7551 11.0281Z" fill="currentColor"/>
<path d="M6.41516 10.7642C6.63116 10.8002 6.83516 10.8314 7.05116 10.8674C7.05116 12.8642 7.05116 14.8562 7.05116 16.877C6.83516 16.8482 6.62876 16.8218 6.41516 16.7954C6.41516 14.7842 6.41516 12.785 6.41516 10.7642Z" fill="currentColor"/>
<path d="M14.6327 11.0666C14.8367 11.0522 15.0383 11.0402 15.2567 11.0234C15.2567 13.0298 15.2567 15.0218 15.2567 17.0354C15.0575 17.057 14.8535 17.0786 14.6327 17.1026C14.6327 15.0818 14.6327 13.0826 14.6327 11.0666Z" fill="currentColor"/>
<path d="M5.86558 16.6945C5.84398 16.6969 5.82718 16.7017 5.80798 16.6993C5.24158 16.6225 5.24158 16.6225 5.24158 16.0537C5.24158 14.2921 5.24158 12.5305 5.24158 10.7713C5.24158 10.7113 5.24158 10.6489 5.24158 10.5649C5.45758 10.6033 5.65438 10.6369 5.86318 10.6753C5.86558 12.6817 5.86558 14.6857 5.86558 16.6945Z" fill="currentColor"/>
<path d="M10.5528 17.1626C10.344 17.1506 10.152 17.1386 9.948 17.1266C9.948 15.1202 9.948 13.1282 9.948 11.1194C10.1448 11.1194 10.3392 11.1194 10.5528 11.1194C10.5528 13.1306 10.5528 15.1322 10.5528 17.1626Z" fill="currentColor"/>
<path d="M13.464 11.1121C13.6752 11.1121 13.8672 11.1121 14.0736 11.1121C14.0736 13.1065 14.0736 15.1033 14.0736 17.1241C13.8744 17.1337 13.6752 17.1457 13.464 17.1553C13.464 15.1345 13.464 13.1353 13.464 11.1121Z" fill="currentColor"/>
<path d="M18.156 16.6898C18.156 16.6106 18.156 16.5506 18.156 16.4906C18.156 14.6114 18.1584 12.7322 18.1536 10.853C18.1536 10.6994 18.192 10.6274 18.3528 10.6178C18.492 10.6082 18.6288 10.5698 18.7944 10.541C18.7944 10.625 18.7944 10.685 18.7944 10.745C18.7944 12.617 18.792 14.4914 18.7992 16.3634C18.7992 16.5218 18.7416 16.5866 18.6 16.6106C18.4608 16.6322 18.3216 16.661 18.156 16.6898Z" fill="currentColor"/>
<path d="M16.9847 16.865C16.9847 14.8562 16.9847 12.8618 16.9847 10.8554C17.1887 10.817 17.3927 10.7786 17.6207 10.7354C17.6207 10.8242 17.6207 10.889 17.6207 10.9562C17.6207 12.8282 17.6183 14.7002 17.6255 16.5722C17.6255 16.7378 17.5823 16.805 17.4143 16.8074C17.2751 16.8122 17.1359 16.8458 16.9847 16.865Z" fill="currentColor"/>
<path d="M3.52316 16.1232C3.33596 16.0488 3.17036 15.996 3.01676 15.9192C2.95916 15.8904 2.89436 15.8064 2.89436 15.7464C2.88956 13.8048 2.88956 11.8656 2.89196 9.92401C2.89196 9.91201 2.89916 9.90001 2.91116 9.86401C3.09836 9.93601 3.28796 9.99841 3.46556 10.0848C3.50636 10.104 3.52076 10.212 3.52076 10.2792C3.52316 11.5776 3.52316 12.8736 3.52316 14.172C3.52316 14.8152 3.52316 15.4584 3.52316 16.1232Z" fill="currentColor"/>
<path d="M4.07754 10.2817C4.27194 10.3321 4.44714 10.3705 4.61514 10.4281C4.65834 10.4425 4.70154 10.5265 4.70154 10.5793C4.70874 10.9129 4.70634 11.2465 4.70634 11.5801C4.70634 13.1257 4.70634 14.6713 4.70634 16.2169C4.70634 16.2889 4.70634 16.3633 4.70634 16.4617C4.51194 16.4137 4.33914 16.3753 4.17114 16.3225C4.12794 16.3081 4.10154 16.2409 4.07274 16.1929C4.06314 16.1737 4.07034 16.1449 4.07034 16.1209C4.07034 14.2297 4.07034 12.3361 4.07034 10.4449C4.07034 10.3969 4.07514 10.3489 4.07754 10.2817Z" fill="currentColor"/>
<path d="M19.9584 10.2361C19.9584 10.3321 19.9584 10.3921 19.9584 10.4521C19.9584 12.3193 19.956 14.1841 19.9632 16.0513C19.9632 16.2337 19.9031 16.3057 19.7375 16.3345C19.6055 16.3561 19.4759 16.3945 19.3271 16.4305C19.3271 14.4169 19.3271 12.4249 19.3271 10.4209C19.5263 10.3657 19.7232 10.3057 19.9584 10.2361Z" fill="currentColor"/>
<path d="M20.5056 16.0801C20.5056 15.9889 20.5056 15.9289 20.5056 15.8665C20.5056 13.9921 20.508 12.1201 20.5032 10.2457C20.5032 10.1065 20.5368 10.0321 20.6736 9.99132C20.8248 9.94332 20.9664 9.86892 21.1296 9.79932C21.132 9.86412 21.1392 9.92172 21.1392 9.97932C21.1392 11.8585 21.1368 13.7377 21.144 15.6169C21.144 15.7705 21.1008 15.8545 20.9544 15.9001C20.8056 15.9481 20.6688 16.0153 20.5056 16.0801Z" fill="currentColor"/>
<path d="M7.60071 10.9272C7.78071 10.9416 7.94871 10.9488 8.11191 10.9752C8.15511 10.9824 8.19591 11.052 8.22231 11.1024C8.23911 11.1312 8.22471 11.1744 8.22471 11.2128C8.22471 13.0656 8.22471 14.9184 8.22471 16.7736C8.22471 16.8408 8.22471 16.908 8.22471 16.9992C8.00871 16.98 7.80951 16.9632 7.60071 16.944C7.60071 14.9376 7.60071 12.9432 7.60071 10.9272Z" fill="currentColor"/>
<path d="M16.4351 10.9128C16.4351 11.0136 16.4351 11.0856 16.4351 11.1576C16.4351 13.0056 16.4327 14.856 16.4375 16.704C16.4375 16.8672 16.4135 16.9584 16.2239 16.9512C16.0919 16.9464 15.9575 16.9728 15.7991 16.9872C15.7991 16.6056 15.7991 16.248 15.7991 15.8904C15.7991 14.3376 15.7991 12.7872 15.7991 11.2344C15.7991 10.9224 15.7895 10.9704 16.0487 10.9512C16.1663 10.9464 16.2815 10.9296 16.4351 10.9128Z" fill="currentColor"/>
<path d="M12.3071 11.1673C12.3287 11.1553 12.3335 11.1505 12.3383 11.1505C12.9311 11.0905 12.9311 11.0905 12.9311 11.6809C12.9311 13.4257 12.9311 15.1681 12.9311 16.9129C12.9311 16.9873 12.9311 17.0593 12.9311 17.1529C12.7199 17.1529 12.5207 17.1529 12.3071 17.1529C12.3071 15.1585 12.3071 13.1665 12.3071 11.1673Z" fill="currentColor"/>
<path d="M11.1216 11.1506C11.328 11.1506 11.5248 11.1506 11.7312 11.1506C11.7312 13.1522 11.7312 15.1466 11.7312 17.1554C11.532 17.1554 11.3328 17.1554 11.1216 17.1554C11.1216 15.1538 11.1216 13.157 11.1216 11.1506Z" fill="currentColor"/>
<path d="M1.96554 9.0769C2.08794 9.2209 2.19354 9.3409 2.29194 9.4657C2.32554 9.5089 2.35674 9.5713 2.35674 9.6265C2.35914 11.5681 2.35914 13.5097 2.35914 15.4513C2.35914 15.4633 2.35434 15.4753 2.34474 15.5161C2.17194 15.3793 2.01354 15.2521 1.98234 15.0265C1.97034 14.9401 1.96554 14.8537 1.96554 14.7673C1.96554 12.9001 1.96554 11.0329 1.96554 9.1657C1.96074 9.1417 1.96314 9.1201 1.96554 9.0769Z" fill="currentColor"/>
<path d="M21.9575 9.08902C21.9575 9.16102 21.9575 9.23542 21.9575 9.30742C21.9575 11.1482 21.9551 12.9914 21.9599 14.8322C21.9599 15.0674 21.8711 15.245 21.6791 15.4298C21.6719 15.3506 21.6647 15.3002 21.6647 15.2498C21.6647 13.3658 21.6575 11.4794 21.6743 9.59542C21.6767 9.42022 21.8135 9.24502 21.8903 9.06982C21.9143 9.07462 21.9359 9.08182 21.9575 9.08902Z" fill="currentColor"/>
<path d="M11.6424 7.10645C13.4328 7.12325 14.916 7.16405 16.3872 7.37525C17.088 7.47605 17.7768 7.65365 18.4656 7.82165C18.6576 7.86725 18.8376 7.98485 19.0128 8.08805C19.2816 8.24645 19.2864 8.52485 19.008 8.66645C18.696 8.82485 18.3744 8.97845 18.0384 9.06245C17.0376 9.31205 16.0176 9.48005 14.9832 9.51845C13.6248 9.57125 12.2664 9.63605 10.908 9.61445C9.744 9.59525 8.5776 9.48965 7.416 9.36245C6.7632 9.29045 6.1224 9.11285 5.4792 8.95925C5.28 8.91125 5.088 8.80805 4.908 8.70485C4.5648 8.50805 4.5648 8.21525 4.9272 8.03765C5.2392 7.88405 5.5704 7.74965 5.9088 7.66805C7.1424 7.36805 8.4 7.22885 9.6672 7.17605C10.428 7.14485 11.1888 7.12085 11.6424 7.10645ZM12.108 9.42965C12.264 9.42965 12.396 9.42965 12.5328 9.42965C12.5328 8.72405 12.5328 8.03285 12.5328 7.34165C12.3816 7.34165 12.2496 7.34165 12.108 7.34165C12.108 8.04005 12.108 8.72885 12.108 9.42965ZM10.1448 7.38725C10.1448 8.05445 10.1448 8.72405 10.1448 9.40565C10.2936 9.40565 10.4256 9.40565 10.584 9.40565C10.584 9.32405 10.584 9.24965 10.584 9.17765C10.584 8.69045 10.584 8.20085 10.584 7.71365C10.584 7.30085 10.572 7.29365 10.1448 7.38725ZM11.5464 9.43205C11.5464 8.72645 11.5464 8.03285 11.5464 7.34405C11.3976 7.34405 11.2632 7.34405 11.1312 7.34405C11.1312 8.04725 11.1312 8.73605 11.1312 9.43205C11.2728 9.43205 11.4 9.43205 11.5464 9.43205ZM13.092 9.43205C13.2408 9.42245 13.3752 9.41525 13.5144 9.40565C13.5144 8.71685 13.5144 8.04245 13.5144 7.35605C13.368 7.34885 13.236 7.34165 13.092 7.33445C13.092 8.04245 13.092 8.71925 13.092 9.43205ZM14.508 9.36245C14.508 8.70005 14.508 8.05685 14.508 7.40405C14.3616 7.39205 14.2296 7.38245 14.0904 7.37285C14.0904 8.05685 14.0904 8.71925 14.0904 9.39365C14.2344 9.38405 14.364 9.37445 14.508 9.36245ZM9.1488 7.41365C9.1488 8.04485 9.1464 8.64725 9.1512 9.25205C9.1512 9.28805 9.1944 9.34805 9.2232 9.35285C9.3408 9.36965 9.4608 9.36965 9.5808 9.37445C9.5808 8.70245 9.5808 8.05925 9.5808 7.39445C9.4392 7.39925 9.3072 7.40645 9.1488 7.41365ZM15.06 7.45925C15.06 8.08565 15.06 8.68565 15.06 9.29765C15.1464 9.29765 15.2208 9.29045 15.2904 9.30005C15.4656 9.31925 15.504 9.23525 15.4992 9.07445C15.4896 8.61365 15.4968 8.15045 15.4944 7.68965C15.4944 7.62485 15.4872 7.56005 15.4824 7.49045C15.336 7.47605 15.2088 7.46885 15.06 7.45925ZM8.1648 7.51445C8.1648 8.10245 8.1648 8.67365 8.1648 9.25925C8.316 9.27125 8.4528 9.28325 8.592 9.29285C8.592 8.67125 8.592 8.07845 8.592 7.46645C8.436 7.48565 8.304 7.50005 8.1648 7.51445ZM16.4808 9.17045C16.4808 8.64245 16.4808 8.12645 16.4808 7.59365C16.3368 7.57685 16.2 7.56005 16.056 7.54325C16.056 8.11685 16.056 8.66165 16.056 9.22325C16.2072 9.20645 16.3392 9.18965 16.4808 9.17045ZM7.6128 9.19445C7.6128 8.64725 7.6128 8.12165 7.6128 7.57205C7.4616 7.58885 7.3272 7.60565 7.1928 7.62245C7.1928 8.14565 7.1928 8.64245 7.1928 9.15125C7.3368 9.16565 7.4688 9.18005 7.6128 9.19445ZM17.4576 7.74485C17.3088 7.71845 17.1768 7.69685 17.0352 7.67045C17.0352 8.15525 17.0352 8.61845 17.0352 9.09845C17.1888 9.06965 17.3232 9.04565 17.4576 9.01925C17.4576 8.58725 17.4576 8.17685 17.4576 7.74485ZM6.6264 7.71845C6.54 7.72805 6.468 7.73765 6.396 7.74485C6.2424 7.75685 6.1728 7.82405 6.1872 7.99205C6.204 8.19365 6.192 8.40005 6.192 8.60165C6.192 9.00725 6.192 9.00725 6.5904 9.04565C6.6 9.04565 6.6096 9.03605 6.6264 9.02645C6.6264 8.59685 6.6264 8.16245 6.6264 7.71845ZM18.0216 8.87285C18.4656 8.78885 18.4776 8.76965 18.456 8.15765C18.4512 8.01125 18.3168 7.93204 18.0216 7.90084C18.0216 8.22485 18.0216 8.54885 18.0216 8.87285ZM5.6472 7.97285C5.2296 8.04245 5.2032 8.07365 5.2128 8.51045C5.2176 8.68085 5.328 8.75525 5.6472 8.79605C5.6472 8.52005 5.6472 8.24645 5.6472 7.97285Z" fill="currentColor"/>
</svg>
