<svg width="24" height="24" viewBox="0 0 24 24" fill="currentColor" xmlns="http://www.w3.org/2000/svg">
<path d="M16.6824 3.36009C16.7952 3.23529 16.7304 3.03369 16.4544 3.03369C16.176 3.03369 15.5736 3.09849 15.5736 3.09849C15.8352 3.19689 16.2096 3.40809 16.4232 3.65289C16.5072 3.55689 16.5744 3.48489 16.6824 3.36009Z" fill="currentColor"/>
<path d="M2.11446 13.2313C2.09766 13.7041 1.90326 16.1353 1.90326 16.3321C1.90326 16.5289 1.85526 16.9849 2.27766 17.1313C2.70246 17.2777 3.68166 17.4097 4.31766 17.4097C4.95366 17.4097 5.98086 17.3929 5.98086 17.3929V12.8569H2.70246C2.70246 12.8569 2.13126 12.7585 2.11446 13.2313Z" fill="currentColor"/>
<path d="M1.9681 17.4409C1.9033 17.8153 1.9969 18.7657 2.3281 19.5457C2.2633 18.8113 2.8009 18.0601 3.2257 17.7841C2.1673 17.6785 1.9681 17.4409 1.9681 17.4409Z" fill="currentColor"/>
<path d="M22.0872 15.569C21.072 15.569 20.3088 15.6266 19.6944 15.7442C19.5504 15.0554 18.7896 11.4266 18.4944 10.2458C18.168 8.94021 17.3856 6.95061 16.896 5.30181C16.4064 3.65301 15.5088 3.16341 14.2368 3.11541C12.9648 3.06741 6.35522 3.18021 6.35522 3.18021L6.37202 3.78501L6.56882 3.86661L6.38402 13.0034L7.23602 13.3226C7.20242 12.6626 7.44722 3.83541 7.44722 3.83541C7.44722 3.83541 12.7008 3.81861 14.1048 3.78741C15.5088 3.75381 15.7848 4.35861 15.9984 4.70181C16.2096 5.04501 16.5528 6.23541 16.9944 7.54101C17.436 8.84661 18.0864 11.3594 18.2184 11.9474C18.348 12.5282 19.032 15.8234 19.0488 15.9074C18.504 16.0802 18.0912 16.3226 17.6928 16.6394C17.0472 17.153 16.464 17.9258 16.464 18.3818C16.464 18.6026 16.4688 18.8378 16.4688 18.8378L14.6616 18.8642L14.652 18.6122L8.36162 18.7202C9.01442 19.4954 8.71442 20.9642 8.71442 20.9642C8.71442 20.9642 14.1576 20.9426 16.8672 20.8442C16.5888 18.4298 17.5656 17.4434 18.0432 17.0162C19.3536 15.8834 22.0968 16.0802 22.0968 16.0802C22.0968 16.0802 22.1064 15.569 22.0872 15.569Z" fill="currentColor"/>
<path d="M13.6969 16.5313C14.1121 16.5433 14.3545 16.5433 14.5585 16.5337C14.5345 15.9457 14.1145 13.4281 14.1145 13.4281L7.5697 13.3921C7.5697 13.3921 7.5793 13.4113 7.6897 13.5841C7.6897 13.5817 9.2785 15.7849 13.6969 16.5313Z" fill="currentColor"/>
<path d="M16.7088 16.8745L15.1008 16.9129L15.1368 18.1873C15.1368 18.1873 15.7944 18.1801 15.9912 18.1801C15.9936 17.4697 16.7088 16.8745 16.7088 16.8745Z" fill="currentColor"/>
<path d="M14.5969 16.9225L13.7521 16.9009C12.3529 16.8769 11.0401 16.3537 9.48728 15.5617C7.92008 14.7625 7.16888 13.7377 7.16888 13.7377L6.40808 13.4065C6.40808 13.4065 6.44408 15.8761 6.48248 17.3761C7.32968 17.5561 7.95368 18.2425 7.95368 18.2425L14.6305 18.1705L14.5969 16.9225Z" fill="currentColor"/>
</svg>
