<svg width="24" height="24" viewBox="0 0 24 24" fill="currentColor" xmlns="http://www.w3.org/2000/svg">
<path d="M21.3912 9.08642C21.3912 8.88482 21.36 8.68322 21.3408 8.45762C19.8936 9.15602 19.4232 9.86882 19.4232 11.3112C19.4232 13.3608 19.4256 15.4104 19.428 17.4576C19.428 17.9256 19.4712 18.444 18.7968 18.4512C18.12 18.4584 18.1512 17.9472 18.1512 17.4744C18.1536 15.6144 18.1704 13.7544 18.1464 11.8944C18.1272 10.344 17.2176 9.45121 15.6744 9.39842C15.4632 9.39121 15.252 9.37201 14.9208 9.35282C14.9208 8.94962 14.9208 8.63042 14.9208 8.31122C14.9208 6.63842 14.9352 4.96802 14.9184 3.29522C14.9064 2.19362 14.3616 1.65122 13.2696 1.64642C10.2504 1.63442 7.23124 1.63442 4.20964 1.64882C3.14884 1.65362 2.61364 2.19362 2.61124 3.24722C2.60404 9.07202 2.60164 14.8944 2.60884 20.7192C2.61124 21.8112 3.16084 22.3512 4.26004 22.356C7.27924 22.3632 10.2984 22.3632 13.32 22.3512C14.5128 22.3464 14.916 21.9288 14.9184 20.7288C14.9256 17.952 14.9208 15.1752 14.9208 12.3984C14.9208 12.084 14.9208 11.7672 14.9208 11.4696C16.0488 11.2968 16.188 11.4024 16.1904 12.3864C16.1952 14.2728 16.1784 16.1616 16.1976 18.048C16.2096 19.2288 16.8792 20.0664 17.976 20.3496C19.9368 20.8536 21.3768 19.764 21.3864 17.7432C21.4008 14.856 21.3936 11.9712 21.3912 9.08642ZM8.45284 19.248C7.08964 19.0392 6.09124 17.676 6.60964 16.3968C7.08244 15.228 7.89844 14.2008 8.65444 12.9648C9.33604 13.8216 9.93364 14.424 10.3392 15.1344C10.6848 15.7416 10.9824 16.4712 10.9896 17.1504C11.004 18.4536 9.70324 19.44 8.45284 19.248ZM12.948 9.37442C12.9504 9.86882 12.7104 10.0464 12.2544 10.044C11.5008 10.0392 10.7424 10.0872 9.99364 10.0224C9.73444 10.0008 9.41284 9.76801 9.26644 9.53762C8.67844 8.60402 8.15044 7.63442 7.59364 6.68162C7.37284 6.30482 7.09684 6.00482 6.61924 6.28562C6.15844 6.55682 6.23284 6.93122 6.46084 7.32722C6.94324 8.16481 7.41604 9.00482 8.00404 10.0344C6.91684 10.0344 6.06004 10.0344 5.14324 10.0344C4.73044 10.0344 4.60564 9.59761 4.60084 9.37201C4.55764 7.67761 4.57924 5.97842 4.57204 4.28162C4.56964 3.80882 4.77364 3.59042 5.24884 3.59042C7.59124 3.59522 9.93364 3.59282 12.2784 3.59042C12.7464 3.59042 12.9552 3.79922 12.9528 4.28162C12.9384 5.98082 12.9384 7.67762 12.948 9.37442Z" fill="currentColor"/>
<path d="M19.5696 9.13912C19.9416 8.68792 20.2944 8.31592 20.58 7.89832C20.7672 7.62472 21.0264 7.05112 20.9712 7.01272C20.5848 6.74152 20.0016 6.29752 19.7112 6.42472C18.936 6.77032 18.5832 6.36952 18.1584 5.91352C17.868 5.59912 17.5944 5.23432 17.2368 5.02312C16.98 4.87192 16.596 4.93672 16.2672 4.90552C16.2768 5.23432 16.1472 5.69272 16.3152 5.87512C17.2968 6.93352 18.348 7.92952 19.5696 9.13912Z" fill="currentColor"/>
</svg>
