<svg width="24" height="24" viewBox="0 0 24 24" fill="currentColor" xmlns="http://www.w3.org/2000/svg">
<path d="M21.144 8.23208C21.8064 8.23208 22.3464 8.76968 22.3464 9.43448C22.3464 9.73928 22.2312 10.0201 22.044 10.2313V13.7689C22.2312 13.9801 22.3464 14.2609 22.3464 14.5657C22.3464 15.2281 21.8088 15.7681 21.144 15.7681C20.8152 15.7681 20.5176 15.6361 20.2992 15.4201H17.6088C17.3928 15.6337 17.0928 15.7681 16.764 15.7681C16.4352 15.7681 16.1376 15.6361 15.9192 15.4201H12.9384C12.7224 15.6337 12.4224 15.7681 12.0936 15.7681C11.7648 15.7681 11.4672 15.6361 11.2488 15.4201H8.26564C8.04964 15.6337 7.74964 15.7681 7.42084 15.7681C7.09204 15.7681 6.79444 15.6361 6.57604 15.4201H3.57604C3.36004 15.6337 3.06004 15.7681 2.73124 15.7681C2.06884 15.7681 1.52884 15.2305 1.52884 14.5657C1.52884 14.2705 1.63444 13.9993 1.81204 13.7905V10.2097C1.63444 10.0009 1.52884 9.72968 1.52884 9.43448C1.52884 8.77208 2.06644 8.23208 2.73124 8.23208C3.06004 8.23208 3.35764 8.36408 3.57604 8.57768H6.57844C6.79444 8.36408 7.09444 8.23208 7.42324 8.23208C7.75204 8.23208 8.04964 8.36408 8.26804 8.57768H11.2512C11.4672 8.36408 11.7672 8.23208 12.096 8.23208C12.4248 8.23208 12.7224 8.36408 12.9408 8.57768H15.924C16.14 8.36408 16.44 8.23208 16.7688 8.23208C17.0976 8.23208 17.3952 8.36408 17.6136 8.57768H20.304C20.5176 8.36408 20.8152 8.23208 21.144 8.23208ZM21.144 9.80168C21.348 9.80168 21.5112 9.63608 21.5112 9.43448C21.5112 9.23048 21.3456 9.06728 21.144 9.06728C20.94 9.06728 20.7768 9.23288 20.7768 9.43448C20.7768 9.63848 20.94 9.80168 21.144 9.80168ZM16.764 9.80168C16.968 9.80168 17.1312 9.63608 17.1312 9.43448C17.1312 9.23048 16.9656 9.06728 16.764 9.06728C16.56 9.06728 16.3968 9.23288 16.3968 9.43448C16.3968 9.63848 16.5624 9.80168 16.764 9.80168ZM12.0936 9.80168C12.2976 9.80168 12.4608 9.63608 12.4608 9.43448C12.4608 9.23048 12.2952 9.06728 12.0936 9.06728C11.8896 9.06728 11.7264 9.23288 11.7264 9.43448C11.7264 9.63848 11.8896 9.80168 12.0936 9.80168ZM7.42084 9.80168C7.62484 9.80168 7.78804 9.63608 7.78804 9.43448C7.78804 9.23048 7.62244 9.06728 7.42084 9.06728C7.21684 9.06728 7.05364 9.23288 7.05364 9.43448C7.05364 9.63848 7.21924 9.80168 7.42084 9.80168ZM2.73124 9.80168C2.93524 9.80168 3.09844 9.63608 3.09844 9.43448C3.09844 9.23048 2.93284 9.06728 2.73124 9.06728C2.52724 9.06728 2.36404 9.23288 2.36404 9.43448C2.36404 9.63848 2.52964 9.80168 2.73124 9.80168ZM19.1016 13.8385C20.1168 13.8385 20.94 13.0153 20.94 12.0001C20.94 10.9849 20.1168 10.1617 19.1016 10.1617C18.0864 10.1617 17.2632 10.9849 17.2632 12.0001C17.2608 13.0153 18.084 13.8385 19.1016 13.8385ZM14.4288 13.8385C15.444 13.8385 16.2672 13.0153 16.2672 12.0001C16.2672 10.9849 15.444 10.1617 14.4288 10.1617C13.4136 10.1617 12.5904 10.9849 12.5904 12.0001C12.5904 13.0153 13.4136 13.8385 14.4288 13.8385ZM9.75844 13.8385C10.7736 13.8385 11.5968 13.0153 11.5968 12.0001C11.5968 10.9849 10.7736 10.1617 9.75844 10.1617C8.74324 10.1617 7.92004 10.9849 7.92004 12.0001C7.91764 13.0153 8.74084 13.8385 9.75844 13.8385ZM5.08564 13.8385C6.10084 13.8385 6.92404 13.0153 6.92404 12.0001C6.92404 10.9849 6.10084 10.1617 5.08564 10.1617C4.07044 10.1617 3.24724 10.9849 3.24724 12.0001C3.24724 13.0153 4.07044 13.8385 5.08564 13.8385ZM21.144 14.9329C21.348 14.9329 21.5112 14.7673 21.5112 14.5657C21.5112 14.3617 21.3456 14.1985 21.144 14.1985C20.94 14.1985 20.7768 14.3641 20.7768 14.5657C20.7768 14.7697 20.94 14.9329 21.144 14.9329ZM16.764 14.9329C16.968 14.9329 17.1312 14.7673 17.1312 14.5657C17.1312 14.3617 16.9656 14.1985 16.764 14.1985C16.56 14.1985 16.3968 14.3641 16.3968 14.5657C16.3968 14.7697 16.5624 14.9329 16.764 14.9329ZM12.0936 14.9329C12.2976 14.9329 12.4608 14.7673 12.4608 14.5657C12.4608 14.3617 12.2952 14.1985 12.0936 14.1985C11.8896 14.1985 11.7264 14.3641 11.7264 14.5657C11.7264 14.7697 11.8896 14.9329 12.0936 14.9329ZM7.42084 14.9329C7.62484 14.9329 7.78804 14.7673 7.78804 14.5657C7.78804 14.3617 7.62244 14.1985 7.42084 14.1985C7.21684 14.1985 7.05364 14.3641 7.05364 14.5657C7.05364 14.7697 7.21924 14.9329 7.42084 14.9329ZM2.73124 14.9329C2.93524 14.9329 3.09844 14.7673 3.09844 14.5657C3.09844 14.3617 2.93284 14.1985 2.73124 14.1985C2.52724 14.1985 2.36404 14.3641 2.36404 14.5657C2.36404 14.7697 2.52964 14.9329 2.73124 14.9329ZM21.144 7.64648C20.7576 7.64648 20.3904 7.76888 20.0856 7.99208H17.8248C17.52 7.76648 17.1528 7.64648 16.7664 7.64648C16.38 7.64648 16.0128 7.76888 15.708 7.99208H13.152C12.8472 7.76648 12.48 7.64648 12.0936 7.64648C11.7072 7.64648 11.34 7.76888 11.0352 7.99208H8.48164C8.17684 7.76648 7.80964 7.64648 7.42324 7.64648C7.03684 7.64648 6.66964 7.76888 6.36484 7.99208H3.78964C3.48484 7.76648 3.11764 7.64648 2.73124 7.64648C1.74484 7.64648 0.943237 8.44808 0.943237 9.43448C0.943237 9.77768 1.04164 10.1137 1.22644 10.3993V13.5985C1.04164 13.8865 0.943237 14.2201 0.943237 14.5633C0.943237 15.5497 1.74484 16.3513 2.73124 16.3513C3.11764 16.3513 3.48484 16.2289 3.78964 16.0033H6.36244C6.66724 16.2289 7.03444 16.3513 7.42084 16.3513C7.80724 16.3513 8.17444 16.2289 8.47924 16.0033H11.0328C11.3376 16.2289 11.7048 16.3513 12.0912 16.3513C12.4776 16.3513 12.8448 16.2289 13.1496 16.0033H15.7032C16.008 16.2289 16.3752 16.3513 16.7616 16.3513C17.148 16.3513 17.5152 16.2289 17.82 16.0033H20.0808C20.3856 16.2289 20.7528 16.3513 21.1392 16.3513C22.1256 16.3513 22.9272 15.5497 22.9272 14.5633C22.9272 14.2057 22.8216 13.8601 22.6248 13.5673V10.4305C22.8216 10.1377 22.9272 9.79208 22.9272 9.43448C22.932 8.44808 22.1304 7.64648 21.144 7.64648ZM19.1016 13.2529C18.4104 13.2529 17.8488 12.6913 17.8488 12.0001C17.8488 11.3089 18.4104 10.7473 19.1016 10.7473C19.7928 10.7473 20.3544 11.3089 20.3544 12.0001C20.3544 12.6913 19.7928 13.2529 19.1016 13.2529ZM14.4288 13.2529C13.7376 13.2529 13.176 12.6913 13.176 12.0001C13.176 11.3089 13.7376 10.7473 14.4288 10.7473C15.12 10.7473 15.6816 11.3089 15.6816 12.0001C15.6816 12.6913 15.12 13.2529 14.4288 13.2529ZM9.75844 13.2529C9.06724 13.2529 8.50564 12.6913 8.50564 12.0001C8.50564 11.3089 9.06724 10.7473 9.75844 10.7473C10.4496 10.7473 11.0112 11.3089 11.0112 12.0001C11.0112 12.6913 10.4496 13.2529 9.75844 13.2529ZM5.08564 13.2529C4.39444 13.2529 3.83284 12.6913 3.83284 12.0001C3.83284 11.3089 4.39444 10.7473 5.08564 10.7473C5.77684 10.7473 6.33844 11.3089 6.33844 12.0001C6.33844 12.6913 5.77684 13.2529 5.08564 13.2529Z" fill="currentColor"/>
</svg>
