<svg width="24" height="24" viewBox="0 0 24 24" fill="currentColor" xmlns="http://www.w3.org/2000/svg">
<path d="M12 2.55848C17.2056 2.55848 21.4416 6.79448 21.4416 12.0001C21.4416 17.2057 17.2056 21.4417 12 21.4417C6.79436 21.4417 2.55836 17.2057 2.55836 12.0001C2.55836 6.79448 6.79436 2.55848 12 2.55848ZM12 1.64648C6.28316 1.64648 1.64636 6.28328 1.64636 12.0001C1.64636 17.7169 6.28316 22.3537 12 22.3537C17.7168 22.3537 22.3536 17.7169 22.3536 12.0001C22.3536 6.28328 17.7168 1.64648 12 1.64648Z" fill="currentColor"/>
<path d="M18.9024 8.92084C17.8128 7.58884 16.536 7.31045 14.9808 8.04965C14.8584 8.10725 14.676 8.11444 14.5488 8.06884C12.8496 7.47124 11.1552 7.46884 9.45602 8.06404C9.31922 8.11204 9.12482 8.09765 8.99282 8.03285C7.49282 7.30085 6.12242 7.61285 5.07602 8.93765C4.83842 9.23765 4.84802 9.55204 5.09762 9.78244C5.34722 10.0128 5.70002 9.96964 5.97122 9.70804C6.22322 9.46324 6.47762 9.21605 6.76322 9.01925C7.13762 8.76485 7.55282 8.73844 8.00162 8.93524C7.06082 9.78964 6.59042 10.8456 6.52562 12.0696C6.46322 13.2216 6.58082 14.3544 7.22162 15.3576C7.61282 15.9696 8.16962 16.3776 8.92082 16.3848C9.84722 16.392 10.452 15.8568 10.8648 15.084C11.316 14.2392 11.412 13.3056 11.4168 12.372C11.424 11.1528 11.0832 10.0296 10.26 9.03364C11.4312 8.71924 12.552 8.72644 13.6992 9.02404C13.5168 9.30484 13.3392 9.54964 13.1904 9.81124C12.552 10.9536 12.492 12.1896 12.6408 13.4496C12.7224 14.1384 12.8952 14.808 13.3008 15.3864C13.7064 15.9696 14.244 16.3848 14.9832 16.3824C16.0296 16.38 16.68 15.7512 17.028 14.8512C17.2632 14.2392 17.3976 13.5672 17.4552 12.912C17.5824 11.4456 17.2128 10.1208 16.1184 9.06244C16.0728 9.01924 16.0464 8.95684 15.9792 8.85364C16.296 8.85364 16.5624 8.82004 16.8168 8.86084C17.3256 8.94244 17.664 9.30724 17.9928 9.66724C18.2712 9.97204 18.6192 10.0224 18.8856 9.78724C19.1592 9.54964 19.1616 9.23524 18.9024 8.92084ZM10.224 12.3528C10.212 12.9624 10.0896 13.572 9.98882 14.1768C9.95762 14.3616 9.84962 14.5392 9.74882 14.7024C9.31682 15.396 8.58962 15.408 8.19362 14.6952C7.98722 14.3232 7.85522 13.8936 7.77842 13.4736C7.63682 12.6984 7.62482 11.9112 7.88882 11.1504C8.11682 10.4904 8.52242 9.96244 9.13682 9.56884C9.97682 10.3368 10.2432 11.304 10.224 12.3528ZM16.2888 12.7944C16.2624 13.2696 16.1376 13.7424 16.044 14.2128C16.0176 14.34 15.9528 14.4624 15.888 14.5776C15.6984 14.9184 15.4584 15.2136 15.0288 15.2112C14.5992 15.2088 14.3496 14.916 14.172 14.5704C13.7904 13.8264 13.74 13.02 13.7736 12.204C13.7832 11.3016 14.0304 10.4904 14.6232 9.78964C14.8152 9.56164 14.9448 9.58564 15.1512 9.75604C16.116 10.5576 16.3536 11.628 16.2888 12.7944Z" fill="currentColor"/>
</svg>
