<svg width="24" height="24" viewBox="0 0 24 24" fill="currentColor" xmlns="http://www.w3.org/2000/svg">
<path d="M18.7463 8.73356C18.8135 8.81036 18.8903 8.89676 18.9551 8.96876C19.4615 8.46236 19.9607 7.96556 20.4671 7.45916C20.3951 7.38956 20.3135 7.31276 20.2415 7.24316C19.7327 7.74956 19.2335 8.24636 18.7463 8.73356Z" fill="currentColor"/>
<path d="M12.8184 8.73356C12.8856 8.81036 12.9624 8.89676 13.0272 8.96876C13.5336 8.46236 14.0328 7.96556 14.5392 7.45916C14.4672 7.38956 14.3856 7.31276 14.3136 7.24316C13.8048 7.74956 13.3056 8.24636 12.8184 8.73356Z" fill="currentColor"/>
<path d="M6.48718 7.23853C5.89438 7.23853 5.41438 7.71853 5.41438 8.31133C5.41438 8.43853 5.44078 8.56333 5.47678 8.69053L4.15198 10.0177V10.6489H4.78318V10.2697H5.16238V9.89053H5.54158L6.11038 9.32173C6.22558 9.36013 6.35038 9.38653 6.48958 9.38653C7.08238 9.38653 7.56238 8.90653 7.56238 8.31373C7.55998 7.71853 7.07998 7.23853 6.48718 7.23853ZM6.80158 8.37373C6.58798 8.37373 6.42238 8.21053 6.42238 7.99453C6.42238 7.78093 6.58798 7.61533 6.80158 7.61533C7.01518 7.61533 7.18078 7.78093 7.18078 7.99453C7.18078 8.21053 7.01758 8.37373 6.80158 8.37373Z" fill="currentColor"/>
<path d="M22.7496 6.59763C22.7544 5.39523 21.9 4.59843 21.024 4.48083C21.012 4.47843 21 4.46643 20.988 4.45923C17.2968 4.45923 6.70317 4.45923 3.01197 4.45923C2.91837 4.48323 2.82477 4.50723 2.73117 4.53363C1.82637 4.79523 1.25037 5.60163 1.25037 6.59763C1.25037 8.15283 1.25037 9.70803 1.25037 11.2656C1.25037 13.3272 1.25037 15.3888 1.25277 17.448C1.25517 18.456 1.88397 19.2648 2.84877 19.4904C2.97597 19.5216 3.11037 19.536 3.24237 19.536C6.77997 19.5384 17.22 19.5384 20.7576 19.536C21.7536 19.536 22.6608 18.7152 22.7208 17.724C22.7616 17.0208 22.7472 16.3128 22.7472 15.6048C22.7472 12.6048 22.74 9.60243 22.7496 6.59763ZM5.68317 11.496C4.24797 11.4888 3.06477 10.296 3.06957 8.86323C3.07437 7.34643 4.32237 6.17043 5.80797 6.22803C7.24317 6.28323 8.35437 7.48563 8.33517 8.86323C8.32797 10.332 7.14957 11.5032 5.68317 11.496ZM14.7864 18.768C14.4984 18.768 14.2656 18.5352 14.2656 18.2472C14.2656 17.9592 14.4984 17.7264 14.7864 17.7264C15.0744 17.7264 15.3072 17.9592 15.3072 18.2472C15.3072 18.5352 15.0744 18.768 14.7864 18.768ZM15.504 17.3088H14.0664V14.4744H15.504V17.3088ZM14.6184 14.0568V12.9528H14.952V14.0568H14.6184ZM13.1208 11.4624C11.6832 11.4624 10.5168 10.296 10.5168 8.85843C10.5168 7.42083 11.6832 6.25443 13.1208 6.25443C14.5584 6.25443 15.7248 7.42083 15.7248 8.85843C15.7248 10.296 14.5608 11.4624 13.1208 11.4624ZM16.932 18.768C16.644 18.768 16.4112 18.5352 16.4112 18.2472C16.4112 17.9592 16.644 17.7264 16.932 17.7264C17.22 17.7264 17.4528 17.9592 17.4528 18.2472C17.4528 18.5352 17.22 18.768 16.932 18.768ZM17.652 17.3088H16.2144V14.4744H17.652V17.3088ZM16.7664 14.0568V12.9528H17.1V14.0568H16.7664ZM19.2048 18.768C18.9168 18.768 18.684 18.5352 18.684 18.2472C18.684 17.9592 18.9168 17.7264 19.2048 17.7264C19.4928 17.7264 19.7256 17.9592 19.7256 18.2472C19.7256 18.5352 19.4904 18.768 19.2048 18.768ZM19.9224 17.3088H18.4848V14.4744H19.9224V17.3088ZM19.0368 14.0568V12.9528H19.3704V14.0568H19.0368ZM18.8472 11.496C17.3952 11.4984 16.212 10.3152 16.212 8.85843C16.212 7.39683 17.3856 6.22563 18.8472 6.22563C20.304 6.22563 21.4896 7.41603 21.48 8.86563C21.4704 10.3152 20.292 11.4936 18.8472 11.496Z" fill="currentColor"/>
<path d="M19.5384 14.8081H18.8712V15.4753H19.5384V14.8081Z" fill="currentColor"/>
<path d="M17.2656 14.8081H16.5984V15.4753H17.2656V14.8081Z" fill="currentColor"/>
<path d="M15.12 16.3464H14.4528V17.0136H15.12V16.3464Z" fill="currentColor"/>
</svg>
