<svg width="24" height="24" viewBox="0 0 24 24" fill="currentColor" xmlns="http://www.w3.org/2000/svg">
<path d="M21.8208 5.05926C21.2712 3.14646 19.3656 1.71606 17.4744 1.71606C13.8744 1.71606 10.272 1.74486 6.67196 1.79046C5.61596 1.80486 4.65836 2.16486 3.81116 2.82966C2.18396 4.10886 1.56956 6.12727 2.13116 8.13607C2.42156 9.17767 3.08876 9.94326 3.86876 10.6369C4.91516 11.5657 5.96396 12.4921 7.01036 13.4209C8.20076 14.4769 9.39596 15.5281 10.5816 16.5889C10.6824 16.6777 10.8 16.8193 10.8 16.9393C10.8096 18.0073 10.7904 22.2817 10.7904 22.2817H13.4232C13.4232 22.2817 13.404 18.0289 13.4088 16.9705C13.4088 16.8553 13.488 16.7113 13.5768 16.6297C14.304 15.9481 15.048 15.2809 15.7776 14.6017C17.3904 13.0993 19.0344 11.6257 20.6016 10.0753C22.0176 8.68086 22.3752 6.98646 21.8208 5.05926ZM10.7808 4.75446C10.536 4.80006 10.308 4.85047 10.0776 4.88647C9.13436 5.02806 8.18876 5.15767 7.24796 5.30406C6.59996 5.40247 6.05756 5.74087 5.51996 6.08647C5.32316 6.21367 5.32076 6.38407 5.42396 6.54967C5.45756 6.60247 5.64716 6.63607 5.68556 6.60007C5.96396 6.32407 6.26396 6.16327 6.67196 6.24486C6.75836 6.26167 6.88556 6.22087 6.95036 6.16086C7.25036 5.88486 7.56476 5.90407 7.90796 6.06006C7.99916 6.10086 8.13836 6.12487 8.22236 6.08647C8.62556 5.90886 9.00956 5.88246 9.39596 6.13206C9.46076 6.17286 9.57116 6.16087 9.65756 6.14887C10.02 6.09367 10.38 6.02646 10.7832 5.95686C10.7832 8.92087 10.7832 11.7817 10.7832 14.7001C10.308 14.2993 9.85436 13.9249 9.41276 13.5409C8.23916 12.5161 7.07276 11.4865 5.90156 10.4593C5.47196 10.0825 5.03516 9.71287 4.60796 9.33607C2.60396 7.57207 3.20156 4.38486 5.71196 3.49686C6.08876 3.36486 6.50156 3.29766 6.90236 3.28326C8.12636 3.24006 9.35276 3.23766 10.5792 3.22326C10.644 3.22326 10.7088 3.24006 10.788 3.25206C10.7808 3.75126 10.7808 4.24086 10.7808 4.75446ZM12.2112 5.73366C11.9616 5.73366 11.76 5.52966 11.76 5.28006C11.76 5.03046 11.9616 4.82887 12.2112 4.82887C12.4608 4.82887 12.6624 5.03046 12.6624 5.28006C12.6648 5.52966 12.4632 5.73366 12.2112 5.73366ZM20.52 7.46647C20.3712 8.08807 20.016 8.62327 19.56 9.06007C18.4752 10.0993 17.3712 11.1193 16.2672 12.1369C15.3696 12.9649 14.46 13.7785 13.5576 14.5969C13.5336 14.6185 13.5024 14.6257 13.4112 14.6737C13.4112 14.4241 13.4112 14.2225 13.4112 14.0233C13.3992 10.5481 13.392 7.07287 13.368 3.59766C13.3656 3.26886 13.4592 3.18246 13.7832 3.18726C14.9184 3.20166 16.056 3.19926 17.1912 3.18006C19.368 3.14166 21.06 5.22486 20.52 7.46647Z" fill="currentColor"/>
</svg>
