<svg width="24" height="24" viewBox="0 0 24 24" fill="currentColor" xmlns="http://www.w3.org/2000/svg">
<path d="M16.6943 18.415C16.2719 18.4102 15.8711 18.5398 15.5327 18.7942C14.8919 19.2742 13.5935 19.2694 13.1687 19.267C11.9375 19.2622 10.7063 19.2622 9.47515 19.2622H9.12475L7.97515 18.1006H5.91595L4.59595 18.9934V19.6006L6.69595 19.6102L6.68635 21.0646H4.59595V21.6718L5.91595 22.5646H7.97515L9.14875 21.4006L13.2551 21.403C14.1023 21.403 14.9015 21.403 15.6095 21.883C15.9167 22.0918 16.2767 22.2046 16.6487 22.207C17.1791 22.2142 17.6639 22.0006 18.0119 21.6502C18.3503 21.3118 18.5615 20.8486 18.5687 20.3326C18.5807 19.2886 17.7383 18.427 16.6943 18.415ZM17.4455 20.9902C17.2559 21.1798 17.0063 21.283 16.7375 21.283C16.4687 21.283 16.2191 21.1798 16.0295 20.9902C15.6383 20.599 15.6383 19.9654 16.0295 19.5742C16.2191 19.3846 16.4687 19.2814 16.7375 19.2814C17.0063 19.2814 17.2559 19.3846 17.4455 19.5742C17.8367 19.9654 17.8367 20.599 17.4455 20.9902Z" fill="currentColor"/>
<path d="M11.8536 6.5255C11.712 5.9015 10.9536 2.7407 9.852 1.6943C9.6648 1.5239 9.2448 1.4375 8.604 1.4375C8.3448 1.4375 8.1288 1.4519 8.0712 1.4567H5.5584C5.4384 1.4567 5.04 1.4807 4.7664 1.7495C4.5936 1.9175 4.5072 2.1407 4.5072 2.4143V7.0775V7.1423L4.572 7.1375L4.8648 7.1159L4.92 7.1111V7.0559V2.4143C4.92 2.2559 4.9632 2.1359 5.052 2.0471C5.2104 1.8911 5.472 1.8743 5.5488 1.8719H8.0832C8.2416 1.8599 8.4096 1.8551 8.5776 1.8551C9.0888 1.8551 9.468 1.9103 9.5664 1.9991C10.5552 2.9375 11.2968 5.9759 11.436 6.5759L11.448 6.6263L11.5008 6.6215L11.7984 6.5999L11.868 6.5951L11.8536 6.5255Z" fill="currentColor"/>
<path d="M6.83517 5.20312C6.46317 5.20312 6.16077 5.50552 6.16077 5.87752V6.95752L6.46797 6.93352V5.87512C6.46797 5.67352 6.63117 5.50793 6.83517 5.50793C7.03917 5.50793 7.20237 5.67112 7.20237 5.89672L7.34877 6.86632L7.65597 6.84232L7.50957 5.87272C7.50957 5.50552 7.20717 5.20312 6.83517 5.20312Z" fill="currentColor"/>
<path d="M11.76 11.4432C10.5288 11.5224 9.51117 12.5496 9.51117 13.7952L9.49437 14.4096H6.83757L3.42957 11.4144V10.5984H11.7744L11.76 11.4432Z" fill="currentColor"/>
<path d="M11.7864 10.2911H11.7192H3.66479C3.66959 9.89269 3.69599 8.83189 3.82319 8.39989C4.24319 7.56469 4.44479 7.41349 4.48319 7.39189L11.8632 6.84229L11.7864 10.2911Z" fill="currentColor"/>
<path d="M15.6647 5.02061C15.7439 4.98941 16.0463 4.88141 16.1327 5.03501C16.3079 5.34221 18.6047 8.57261 18.7007 8.70461C18.7103 8.71901 18.9359 9.06701 18.6023 9.38861C18.2879 9.69101 17.9015 10.0606 17.7143 10.2382L14.0687 6.42941L15.6647 5.02061Z" fill="currentColor"/>
<path d="M17.7696 13.3464V13.596L16.4328 13.2264L16.3968 13.2168L15.1344 11.7192L12.0696 11.4288L12.0864 10.5984H17.7696V13.3464Z" fill="currentColor"/>
<path d="M10.584 6.24955C10.5816 6.17275 10.5504 6.10075 10.4952 6.04795C10.44 5.99515 10.3704 5.97115 10.2912 5.96875C10.2144 5.97115 10.1424 6.00235 10.0896 6.05755L9.46802 6.71035L10.32 6.64795L10.5048 6.45355C10.5576 6.40075 10.5864 6.32635 10.584 6.24955Z" fill="currentColor"/>
<path d="M11.8727 12.7966C11.3207 12.7966 10.8695 13.2454 10.8695 13.7998C10.8695 14.3518 11.3207 14.803 11.8727 14.803C12.4247 14.803 12.8759 14.3518 12.8759 13.7998C12.8759 13.2454 12.4271 12.7966 11.8727 12.7966ZM11.8727 14.4934C11.4887 14.4934 11.1767 14.1814 11.1767 13.7974C11.1767 13.4134 11.4887 13.1014 11.8727 13.1014C12.2567 13.1014 12.5687 13.4134 12.5687 13.7974C12.5687 14.1814 12.2567 14.4934 11.8727 14.4934Z" fill="currentColor"/>
<path d="M15.8592 13.0608C15.816 13.0752 15.7728 13.0896 15.7344 13.104H15.8952L15.8592 13.0608Z" fill="currentColor"/>
<path d="M15.6383 12.7968H14.1095V12.7056H15.5615L15.3023 12.3984H13.7999V13.104H15.7343C15.7727 13.0896 15.8159 13.0752 15.8591 13.0608L15.6383 12.7968Z" fill="currentColor"/>
<path d="M19.2599 13.5143C19.1951 13.1423 18.4991 12.9887 18.0791 12.9311V13.2431C18.7391 13.3415 18.9599 13.5239 18.9599 13.5719C18.9599 13.6847 18.3671 13.9583 17.2679 13.9583C16.1687 13.9583 15.5759 13.6823 15.5759 13.5719C15.5759 13.5359 15.7007 13.4183 16.0775 13.3175L15.8975 13.1039H15.7367C15.4607 13.2119 15.3023 13.3535 15.2759 13.5191L14.9975 14.0543L13.7615 13.8599C13.7615 13.8383 13.7639 13.8191 13.7639 13.7999C13.7639 12.7559 12.9191 11.9111 11.8751 11.9111C10.8311 11.9111 9.98633 12.7559 9.98633 13.7999C9.98633 14.8439 10.8311 15.6887 11.8751 15.6887C12.7919 15.6887 13.5575 15.0335 13.7279 14.1671L14.8463 14.3423L13.9919 15.9959L14.6063 15.7847L14.7719 16.0703H15.5831L15.7487 16.3559L16.5407 16.0991L17.2967 16.3439L17.6759 16.0271L18.3383 16.2623L18.6407 15.9815L19.3559 16.1759L19.6343 15.8327L20.0591 15.9335L20.5655 15.5231L19.2599 13.5143ZM11.8727 15.3815C11.0015 15.3815 10.2911 14.6711 10.2911 13.7999C10.2911 12.9287 11.0015 12.2183 11.8727 12.2183C12.7439 12.2183 13.4543 12.9287 13.4543 13.7999C13.4543 14.6711 12.7463 15.3815 11.8727 15.3815ZM19.9871 15.5999L19.6847 15.5279L19.2503 14.6591L18.9743 14.7959L19.3967 15.6407L19.2479 15.8255L18.7367 15.6863L18.6071 14.9951L18.3047 15.0527L18.4367 15.7535L18.2711 15.9071L17.8031 15.7415V15.0215H17.4959V15.7775L17.2343 15.9959L16.7255 15.8303L16.8887 15.0527L16.5887 14.9903L16.4159 15.8159L15.8975 15.9839L15.8471 15.8975L16.0775 15.2423L15.7871 15.1391L15.5687 15.7583H14.9543L14.8583 15.5927L15.2183 14.9423L14.9591 14.7983L15.4391 13.8695C15.7727 14.1359 16.5407 14.2607 17.2703 14.2607C18.0143 14.2607 18.7991 14.1311 19.1207 13.8527L20.1599 15.4607L19.9871 15.5999Z" fill="currentColor"/>
</svg>
