<svg width="24" height="24" viewBox="0 0 24 24" fill="currentColor" xmlns="http://www.w3.org/2000/svg">
<path d="M6.50411 7.74731H4.46411V8.82732H6.50411V7.74731Z" fill="currentColor"/>
<path d="M2.96884 5.73608H2.30884V10.8385H2.96884V5.73608Z" fill="currentColor"/>
<path d="M1.94214 6.22546V5.93506H1.18134V6.22546H1.94214Z" fill="currentColor"/>
<path d="M1.94287 7.69738V7.40698H1.18207V7.69738H1.94287Z" fill="currentColor"/>
<path d="M1.94385 9.16931V8.87891H1.18305V9.16931H1.94385Z" fill="currentColor"/>
<path d="M1.94458 10.6412V10.3508H1.18378V10.6412H1.94458Z" fill="currentColor"/>
<path d="M3.35034 9.42962V7.16162L4.10634 7.34402V9.24722L3.35034 9.42962Z" fill="currentColor"/>
<path d="M17.4976 8.82764H19.5376V7.74764H17.4976V8.82764Z" fill="currentColor"/>
<path d="M21.0312 10.8389H21.6912V5.73647H21.0312V10.8389Z" fill="currentColor"/>
<path d="M22.0554 10.351V10.6414H22.8162V10.351H22.0554Z" fill="currentColor"/>
<path d="M22.0562 8.87903V9.16943H22.817V8.87903H22.0562Z" fill="currentColor"/>
<path d="M22.0569 7.40711V7.69751H22.8177V7.40711H22.0569Z" fill="currentColor"/>
<path d="M22.0576 5.93494V6.22534H22.8184V5.93494H22.0576Z" fill="currentColor"/>
<path d="M20.6496 7.14478V9.41517L19.8936 9.23037V7.32958L20.6496 7.14478Z" fill="currentColor"/>
<path d="M6.96948 6.27856V13.7642H17.0375V6.27856H6.96948ZM13.1087 11.1818H12.7367V9.53777L12.1703 10.7354H11.8943L11.3135 9.53777V11.1818H10.9415V8.72176H11.3135L12.0311 10.2506L12.7343 8.72176H13.1063V11.1818H13.1087Z" fill="currentColor"/>
<path d="M9.54956 18.264H14.4576V14.616H9.54956V18.264ZM11.2584 15.2376H12.1896C12.6696 15.2376 12.9768 15.5544 12.9768 15.984C12.9768 16.4136 12.6696 16.7256 12.1896 16.7256H11.6304V17.6952H11.2584V15.2376Z" fill="currentColor"/>
<path d="M12.6048 15.9841C12.6048 15.7225 12.432 15.5737 12.1704 15.5737H11.6328V16.3945H12.1704C12.432 16.3945 12.6048 16.2433 12.6048 15.9841Z" fill="currentColor"/>
</svg>
