<svg width="24" height="24" viewBox="0 0 24 24" fill="currentColor" xmlns="http://www.w3.org/2000/svg">
<path d="M2.07834 7.24569H1.29834V8.75769H2.07834V15.5305H1.29834V17.0425H2.07834V18.2521H8.61594V6.03369H2.07834V7.24569Z" fill="currentColor"/>
<path d="M22.7016 11.3762V9.86416H22.1496V8.57056H19.8936V15.7154H22.1496V14.4218H22.7016V12.9098H22.1496V11.3762H22.7016Z" fill="currentColor"/>
<path d="M9.84469 19.6298C9.84469 19.7498 9.94309 19.8482 10.0631 19.8482H11.4071C11.5271 19.8482 11.6255 19.7498 11.6255 19.6298V18.7058H9.84229V19.6298H9.84469Z" fill="currentColor"/>
<path d="M11.2463 4.8985H11.0327V4.1521H10.4423V4.8985H10.2287V6.0361H9.34314V18.2545H12.1319V6.0337H11.2463V4.8985ZM10.7375 16.7857C10.3343 16.7857 10.0079 16.4593 10.0079 16.0561C10.0079 15.6529 10.3343 15.3265 10.7375 15.3265C11.1407 15.3265 11.4671 15.6529 11.4671 16.0561C11.4671 16.4593 11.1407 16.7857 10.7375 16.7857ZM11.4671 8.2297C11.4671 8.6329 11.1407 8.9593 10.7375 8.9593C10.3343 8.9593 10.0079 8.6329 10.0079 8.2297C10.0079 7.8265 10.3343 7.5001 10.7375 7.5001C11.1407 7.5001 11.4671 7.8265 11.4671 8.2297Z" fill="currentColor"/>
<path d="M13.3631 19.6298C13.3631 19.7498 13.4615 19.8482 13.5815 19.8482H14.9255C15.0455 19.8482 15.1439 19.7498 15.1439 19.6298V18.7058H13.3607V19.6298H13.3631Z" fill="currentColor"/>
<path d="M14.7623 4.8985H14.5487V4.1521H13.9583V4.8985H13.7447V6.0361H12.8591V18.2545H15.6479V6.0337H14.7623V4.8985ZM14.2535 16.7857C13.8503 16.7857 13.5239 16.4593 13.5239 16.0561C13.5239 15.6529 13.8503 15.3265 14.2535 15.3265C14.6567 15.3265 14.9831 15.6529 14.9831 16.0561C14.9831 16.4593 14.6567 16.7857 14.2535 16.7857ZM14.9831 8.2297C14.9831 8.6329 14.6567 8.9593 14.2535 8.9593C13.8503 8.9593 13.5239 8.6329 13.5239 8.2297C13.5239 7.8265 13.8503 7.5001 14.2535 7.5001C14.6567 7.5001 14.9831 7.8265 14.9831 8.2297Z" fill="currentColor"/>
<path d="M16.8791 19.6298C16.8791 19.7498 16.9775 19.8482 17.0975 19.8482H18.4415C18.5615 19.8482 18.6599 19.7498 18.6599 19.6298V18.7058H16.8767V19.6298H16.8791Z" fill="currentColor"/>
<path d="M18.2808 4.8985H18.0672V4.1521H17.4768V4.8985H17.2632V6.0361H16.3776V18.2545H19.1664V6.0337H18.2808V4.8985ZM17.772 16.7857C17.3688 16.7857 17.0424 16.4593 17.0424 16.0561C17.0424 15.6529 17.3688 15.3265 17.772 15.3265C18.1752 15.3265 18.5016 15.6529 18.5016 16.0561C18.4992 16.4593 18.1728 16.7857 17.772 16.7857ZM18.4992 8.2297C18.4992 8.6329 18.1728 8.9593 17.7696 8.9593C17.3664 8.9593 17.04 8.6329 17.04 8.2297C17.04 7.8265 17.3664 7.5001 17.7696 7.5001C18.1728 7.5001 18.4992 7.8265 18.4992 8.2297Z" fill="currentColor"/>
</svg>
