<svg width="24" height="24" viewBox="0 0 24 24" fill="currentColor" xmlns="http://www.w3.org/2000/svg">
<path d="M3.06955 10.7087C2.63995 10.7087 2.28955 11.0591 2.28955 11.4887C2.28955 11.9183 2.63995 12.2687 3.06955 12.2687C3.49915 12.2687 3.84955 11.9183 3.84955 11.4887C3.84955 11.0591 3.49915 10.7087 3.06955 10.7087ZM3.06955 11.9783C2.80075 11.9783 2.57995 11.7599 2.57995 11.4887C2.57995 11.2175 2.80075 10.9991 3.06955 10.9991C3.33835 10.9991 3.55915 11.2175 3.55915 11.4887C3.55915 11.7599 3.34075 11.9783 3.06955 11.9783Z" fill="currentColor"/>
<path d="M12.7728 19.6583L13.0896 19.3415C13.2864 19.1423 13.2864 18.8207 13.0896 18.6239L8.8368 14.3735C8.6616 14.1983 8.3448 14.1191 8.1048 14.1839C8.0136 14.1911 7.62 14.2391 7.1472 14.5055L4.5864 11.9423C4.632 11.7911 4.656 11.6375 4.656 11.4863C4.656 10.6199 3.9504 9.91187 3.0816 9.91187C2.2128 9.91187 1.5072 10.6175 1.5072 11.4863C1.5072 12.3527 2.2128 13.0607 3.0816 13.0607C3.252 13.0607 3.4224 13.0319 3.588 12.9743L6.1152 15.4847C5.8272 15.9623 5.8008 16.3871 5.7984 16.4879C5.7408 16.7279 5.8296 17.0423 6.0024 17.2151L10.2672 21.4511C10.4664 21.6479 10.788 21.6479 10.9848 21.4487L11.2848 21.1487C11.4408 21.6167 11.8872 21.9551 12.4008 21.9551C13.0512 21.9551 13.5792 21.4271 13.5792 20.7767C13.5792 20.2607 13.2432 19.8143 12.7728 19.6583ZM6.5784 14.8799C6.4392 15.0071 6.3384 15.1319 6.2712 15.2279L3.7272 12.7007C3.6984 12.6743 3.6624 12.6575 3.624 12.6575C3.6048 12.6575 3.5856 12.6623 3.5688 12.6695C3.4104 12.7343 3.2472 12.7679 3.0816 12.7679C2.3736 12.7679 1.7976 12.1919 1.7976 11.4839C1.7976 10.7759 2.3736 10.1999 3.0816 10.1999C3.7896 10.1999 4.3656 10.7759 4.3656 11.4839C4.3656 11.6327 4.3368 11.7839 4.284 11.9279C4.2648 11.9807 4.2768 12.0407 4.3176 12.0815L6.8808 14.6447C6.7992 14.6975 6.696 14.7719 6.5784 14.8799ZM12.4032 21.4343C12.0408 21.4343 11.7456 21.1391 11.7456 20.7767C11.7456 20.4143 12.0408 20.1191 12.4032 20.1191C12.7656 20.1191 13.0608 20.4143 13.0608 20.7767C13.0608 21.1391 12.7656 21.4343 12.4032 21.4343Z" fill="currentColor"/>
<path d="M12.4032 20.4983C12.2496 20.4983 12.1272 20.6231 12.1272 20.7743C12.1272 20.9279 12.252 21.0503 12.4032 21.0503C12.5568 21.0503 12.6792 20.9255 12.6792 20.7743C12.6792 20.6231 12.5568 20.4983 12.4032 20.4983Z" fill="currentColor"/>
<path d="M7.68725 4.26724H7.12805V5.35444H7.68725V10.2144H7.12805V11.2992H7.68725V12.1704H12.3793V3.39844H7.68725V4.26724Z" fill="currentColor"/>
<path d="M22.4905 7.23357V6.14877H22.0945V5.21997H20.4745V10.3488H22.0945V9.41997H22.4905V8.33517H22.0945V7.23357H22.4905Z" fill="currentColor"/>
<path d="M13.2625 13.1592C13.2625 13.2456 13.3321 13.3176 13.4209 13.3176H14.3857C14.4721 13.3176 14.5441 13.248 14.5441 13.1592V12.4944H13.2649V13.1592H13.2625Z" fill="currentColor"/>
<path d="M14.268 2.58232H14.1144V2.04712H13.6896V2.58232H13.536V3.39832H12.9V12.1679H14.9016V3.39832H14.2656V2.58232H14.268ZM13.9032 11.1167C13.6152 11.1167 13.38 10.8815 13.38 10.5935C13.38 10.3055 13.6152 10.0703 13.9032 10.0703C14.1912 10.0703 14.4264 10.3055 14.4264 10.5935C14.4264 10.8815 14.1912 11.1167 13.9032 11.1167ZM14.4264 4.97512C14.4264 5.26312 14.1912 5.49832 13.9032 5.49832C13.6152 5.49832 13.38 5.26312 13.38 4.97512C13.38 4.68712 13.6152 4.45192 13.9032 4.45192C14.1912 4.45192 14.4264 4.68712 14.4264 4.97512Z" fill="currentColor"/>
<path d="M15.7872 13.1592C15.7872 13.2456 15.8568 13.3176 15.9456 13.3176H16.9104C16.9968 13.3176 17.0688 13.248 17.0688 13.1592V12.4944H15.7896V13.1592H15.7872Z" fill="currentColor"/>
<path d="M16.7928 2.58232H16.6392V2.04712H16.2144V2.58232H16.0608V3.39832H15.4248V12.1679H17.4264V3.39832H16.7904V2.58232H16.7928ZM16.428 11.1167C16.14 11.1167 15.9048 10.8815 15.9048 10.5935C15.9048 10.3055 16.14 10.0703 16.428 10.0703C16.716 10.0703 16.9512 10.3055 16.9512 10.5935C16.9512 10.8815 16.716 11.1167 16.428 11.1167ZM16.9512 4.97512C16.9512 5.26312 16.716 5.49832 16.428 5.49832C16.14 5.49832 15.9048 5.26312 15.9048 4.97512C15.9048 4.68712 16.14 4.45192 16.428 4.45192C16.716 4.45192 16.9512 4.68712 16.9512 4.97512Z" fill="currentColor"/>
<path d="M18.312 13.1592C18.312 13.2456 18.3816 13.3176 18.4704 13.3176H19.4352C19.5216 13.3176 19.5936 13.248 19.5936 13.1592V12.4944H18.312V13.1592Z" fill="currentColor"/>
<path d="M19.3177 2.58232H19.1641V2.04712H18.7393V2.58232H18.5857V3.39832H17.9497V12.1679H19.9513V3.39832H19.3153V2.58232H19.3177ZM18.9529 11.1167C18.6649 11.1167 18.4297 10.8815 18.4297 10.5935C18.4297 10.3055 18.6649 10.0703 18.9529 10.0703C19.2409 10.0703 19.4761 10.3055 19.4761 10.5935C19.4761 10.8815 19.2409 11.1167 18.9529 11.1167ZM19.4761 4.97512C19.4761 5.26312 19.2409 5.49832 18.9529 5.49832C18.6649 5.49832 18.4297 5.26312 18.4297 4.97512C18.4297 4.68712 18.6649 4.45192 18.9529 4.45192C19.2409 4.45192 19.4761 4.68712 19.4761 4.97512Z" fill="currentColor"/>
</svg>
