<svg width="24" height="24" viewBox="0 0 24 24" fill="currentColor" xmlns="http://www.w3.org/2000/svg">
<path d="M9.3241 12.1176C11.2225 12.1176 13.0057 12.1176 14.8129 12.1176C14.8321 11.9976 14.8561 11.9064 14.8561 11.8152C14.8537 10.3536 14.9017 8.88722 14.8249 7.42802C14.7841 6.63122 14.5321 5.84642 14.3809 5.05682C14.3065 4.67042 14.0929 4.53362 13.6921 4.54322C12.6337 4.56962 11.5753 4.56722 10.5169 4.54322C10.1257 4.53362 9.9385 4.65842 9.8113 5.04002C9.0385 7.34882 9.4465 9.72242 9.3241 12.1176ZM14.9137 14.9208C15.2689 14.9208 15.5737 14.9352 15.8785 14.9184C16.5097 14.88 16.9561 14.4168 16.9321 13.8456C16.9081 13.3032 16.4569 12.8808 15.8425 12.8784C13.3441 12.8688 10.8457 12.8688 8.3473 12.8784C7.7329 12.8808 7.2889 13.3032 7.2649 13.8528C7.2385 14.4216 7.6873 14.8824 8.3209 14.9184C8.6401 14.9352 8.9617 14.9208 9.2761 14.9208C9.3313 15.1944 9.3697 15.3912 9.4081 15.5832C11.2297 15.5832 13.0105 15.5832 14.8177 15.5832C14.8465 15.372 14.8729 15.1896 14.9137 14.9208ZM14.0881 19.8192C14.0041 21.1176 13.3969 21.7656 12.1705 21.8832C11.7241 21.9264 11.4073 22.1352 11.4385 22.596C11.4673 23.0328 11.7721 23.2728 12.2305 23.2488C12.4225 23.2392 12.6193 23.2368 12.8017 23.1912C14.5873 22.7328 15.8137 20.8776 15.5401 19.0464C15.4753 18.6192 15.2089 18.4176 14.7817 18.4176C13.2409 18.4176 11.7025 18.42 10.1617 18.4152C9.7105 18.4128 9.3793 18.6024 9.3649 19.0584C9.3481 19.5528 9.7033 19.7592 10.1665 19.7664C10.5649 19.7736 10.9633 19.7688 11.3809 19.7688C11.4769 20.3664 11.2441 21.156 12.1153 21.1512C12.9913 21.1464 12.6889 20.3256 12.8257 19.8168C13.2673 19.8192 13.6777 19.8192 14.0881 19.8192ZM12.1201 16.3368V16.3392C11.4673 16.3392 10.8121 16.3392 10.1593 16.3392C9.6841 16.3392 9.3505 16.5528 9.3601 17.0424C9.3697 17.5008 9.7057 17.6952 10.1497 17.6976C11.4385 17.6976 12.7273 17.6976 14.0137 17.6976C14.4745 17.6976 14.8369 17.52 14.8393 17.0208C14.8393 16.524 14.4937 16.3344 14.0233 16.3368C13.3897 16.3416 12.7561 16.3368 12.1201 16.3368ZM12.7777 3.16322C12.7777 2.71202 12.7825 2.33522 12.7753 1.95602C12.7657 1.40882 12.4873 1.04162 12.0793 1.09202C11.5969 1.15202 11.4169 1.48562 11.4193 1.94402C11.4217 2.33762 11.4193 2.73122 11.4193 3.16322C11.0305 3.16322 10.7377 3.12722 10.4617 3.17762C10.3129 3.20402 10.1905 3.37682 10.0537 3.48482C10.1857 3.59762 10.3177 3.80162 10.4521 3.80642C11.5441 3.83282 12.6385 3.83282 13.7305 3.80642C13.8697 3.80402 14.0041 3.60482 14.1409 3.49682C13.9921 3.38402 13.8553 3.20882 13.6897 3.17522C13.4209 3.12482 13.1305 3.16322 12.7777 3.16322Z" fill="currentColor"/>
<path d="M9.32402 12.1176C9.44642 9.72479 9.03842 7.35119 9.81602 5.03999C9.94322 4.66079 10.1304 4.53599 10.5216 4.54319C11.58 4.56719 12.6384 4.56959 13.6968 4.54319C14.0976 4.53359 14.3112 4.67039 14.3856 5.05679C14.5368 5.84639 14.7888 6.63119 14.8296 7.42799C14.904 8.88719 14.8584 10.3512 14.8608 11.8152C14.8608 11.9064 14.8344 11.9976 14.8176 12.1176C13.0056 12.1176 11.2224 12.1176 9.32402 12.1176Z" fill="currentColor"/>
<path d="M14.9137 14.9207C14.8729 15.1895 14.8465 15.3719 14.8153 15.5855C13.0105 15.5855 11.2297 15.5855 9.40566 15.5855C9.36726 15.3935 9.32886 15.1967 9.27366 14.9231C8.95926 14.9231 8.63766 14.9375 8.31846 14.9207C7.68486 14.8847 7.23606 14.4239 7.26246 13.8551C7.28646 13.3055 7.73046 12.8831 8.34486 12.8807C10.8433 12.8711 13.3417 12.8711 15.8401 12.8807C16.4569 12.8831 16.9081 13.3055 16.9297 13.8479C16.9537 14.4167 16.5073 14.8823 15.8761 14.9207C15.5737 14.9351 15.2665 14.9207 14.9137 14.9207Z" fill="currentColor"/>
<path d="M14.0881 19.8191C13.6753 19.8191 13.2673 19.8191 12.8233 19.8191C12.6865 20.3255 12.9913 21.1487 12.1129 21.1535C11.2417 21.1583 11.4769 20.3687 11.3785 19.7711C10.9609 19.7711 10.5625 19.7783 10.1641 19.7687C9.70091 19.7591 9.34571 19.5551 9.36251 19.0607C9.37691 18.6047 9.70811 18.4151 10.1593 18.4175C11.7001 18.4223 13.2385 18.4199 14.7793 18.4199C15.2089 18.4199 15.4753 18.6215 15.5377 19.0487C15.8113 20.8799 14.5849 22.7351 12.7993 23.1935C12.6145 23.2415 12.4177 23.2415 12.2281 23.2511C11.7673 23.2727 11.4649 23.0351 11.4361 22.5983C11.4073 22.1399 11.7217 21.9287 12.1681 21.8855C13.3969 21.7631 14.0065 21.1175 14.0881 19.8191Z" fill="currentColor"/>
<path d="M12.1201 16.3369C12.7537 16.3369 13.3897 16.3393 14.0233 16.3369C14.4937 16.3345 14.8393 16.5241 14.8393 17.0209C14.8393 17.5225 14.4769 17.6977 14.0137 17.6977C12.7249 17.6977 11.4361 17.6977 10.1497 17.6977C9.70567 17.6977 9.36967 17.5033 9.36007 17.0425C9.35047 16.5529 9.68407 16.3393 10.1593 16.3393C10.8121 16.3393 11.4673 16.3393 12.1201 16.3393C12.1201 16.3393 12.1201 16.3393 12.1201 16.3369Z" fill="currentColor"/>
<path d="M12.7776 3.16326C13.1304 3.16326 13.4208 3.12486 13.692 3.17766C13.8576 3.21126 13.9944 3.38646 14.1432 3.49926C14.0064 3.60726 13.872 3.80646 13.7328 3.80886C12.6408 3.83526 11.5464 3.83526 10.4544 3.80886C10.32 3.80646 10.188 3.60006 10.056 3.48726C10.1904 3.37926 10.3128 3.20646 10.464 3.18006C10.74 3.12966 11.0328 3.16566 11.4216 3.16566C11.4216 2.73126 11.424 2.33766 11.4216 1.94646C11.4192 1.48806 11.5992 1.15206 12.0816 1.09446C12.4896 1.04406 12.768 1.41126 12.7776 1.95846C12.7824 2.33526 12.7776 2.71206 12.7776 3.16326Z" fill="currentColor"/>
</svg>
