<svg width="24" height="24" viewBox="0 0 24 24" fill="currentColor" xmlns="http://www.w3.org/2000/svg">
<path d="M14.6112 6.85934C14.1336 6.85934 13.7352 6.88574 13.344 6.84494C13.2216 6.83294 13.0344 6.63854 13.0344 6.52574C13.0344 6.41294 13.2144 6.24254 13.3464 6.20414C13.5408 6.14894 13.7616 6.18494 13.9704 6.18734C14.7648 6.18974 14.82 6.14414 14.7792 5.33054C14.772 5.21054 14.592 5.01374 14.472 4.99694C14.1288 4.95134 13.7712 5.00894 13.428 4.96334C13.2792 4.94414 13.152 4.76894 13.0128 4.66574C13.1496 4.54334 13.2744 4.33694 13.428 4.31534C13.788 4.26254 14.16 4.31294 14.5248 4.28414C14.6448 4.27454 14.832 4.16894 14.8608 4.07054C15.0912 3.30014 14.7552 2.54174 14.004 2.21294C12.2952 1.46414 10.4784 1.23854 8.6352 1.22174C8.1 1.21694 7.6776 1.51214 7.464 2.04494C7.2648 2.54654 7.536 2.88734 7.7952 3.28094C8.3184 4.07534 8.8848 4.86974 9.2424 5.74094C10.1424 7.94174 10.4928 10.2745 10.5888 12.6409C10.6032 13.0009 10.7112 13.1329 11.0784 13.1185C11.7408 13.0945 12.4056 13.0921 13.0704 13.1185C13.4448 13.1329 13.5096 12.9841 13.56 12.6385C13.7544 11.2609 13.992 9.88814 14.232 8.51774C14.3256 7.99214 14.4696 7.47614 14.6112 6.85934ZM12.0864 18.1489C14.2176 18.1489 16.3488 18.1513 18.48 18.1465C19.104 18.1441 19.3584 17.9401 19.2672 17.3329C19.1928 16.8409 19.0128 16.3057 18.708 15.9289C18.3816 15.5257 17.8896 15.2137 17.4096 14.9905C14.7528 13.7545 11.9784 13.5001 9.1296 14.1529C7.9032 14.4337 6.7008 14.8177 5.7 15.6385C5.1744 16.0681 4.848 16.5961 4.8624 17.3041C4.8744 17.9641 5.0424 18.1489 5.6952 18.1513C7.824 18.1513 9.9552 18.1489 12.0864 18.1489ZM8.1264 5.11934C7.428 5.56334 7.2384 6.18734 7.4976 6.90974C7.7736 7.67774 8.3256 8.07854 9.0912 7.98254C8.7696 7.02254 8.4528 6.08414 8.1264 5.11934Z" fill="currentColor"/>
<path d="M14.6111 6.85934C14.4695 7.47614 14.3255 7.99214 14.2343 8.51774C13.9943 9.88814 13.7567 11.2609 13.5623 12.6385C13.5143 12.9841 13.4471 13.1329 13.0727 13.1185C12.4103 13.0921 11.7455 13.0921 11.0807 13.1185C10.7135 13.1329 10.6055 13.0009 10.5911 12.6409C10.4951 10.2721 10.1447 7.94174 9.2447 5.74094C8.8871 4.86734 8.3207 4.07534 7.7975 3.28094C7.5383 2.88734 7.2647 2.54654 7.4663 2.04494C7.6775 1.51214 8.1023 1.21694 8.6375 1.22174C10.4807 1.23854 12.2975 1.46414 14.0063 2.21294C14.7575 2.54174 15.0935 3.30254 14.8631 4.07054C14.8343 4.16894 14.6471 4.27454 14.5271 4.28414C14.1623 4.31294 13.7879 4.26254 13.4303 4.31534C13.2791 4.33694 13.1519 4.54334 13.0151 4.66574C13.1519 4.76894 13.2815 4.94414 13.4303 4.96334C13.7735 5.00894 14.1311 4.95134 14.4743 4.99694C14.5943 5.01374 14.7767 5.20814 14.7815 5.33054C14.8223 6.14414 14.7671 6.18974 13.9727 6.18734C13.7639 6.18734 13.5407 6.14894 13.3487 6.20414C13.2167 6.24254 13.0367 6.41294 13.0367 6.52574C13.0367 6.63614 13.2263 6.83294 13.3463 6.84494C13.7351 6.88574 14.1335 6.85934 14.6111 6.85934Z" fill="currentColor"/>
<path d="M12.0863 18.1491C9.95515 18.1491 7.82395 18.1515 5.69275 18.1491C5.03995 18.1491 4.87435 17.9643 4.85995 17.3019C4.84555 16.5939 5.17435 16.0659 5.69755 15.6363C6.69835 14.8155 7.90075 14.4339 9.12715 14.1507C11.9759 13.4979 14.7503 13.7523 17.4071 14.9883C17.8871 15.2115 18.3815 15.5235 18.7055 15.9267C19.0103 16.3035 19.1903 16.8411 19.2647 17.3307C19.3559 17.9379 19.1015 18.1443 18.4775 18.1443C16.3487 18.1515 14.2175 18.1491 12.0863 18.1491Z" fill="currentColor"/>
<path d="M8.12632 5.11914C8.45272 6.08634 8.76952 7.02234 9.09112 7.98234C8.32552 8.07834 7.77352 7.67754 7.49752 6.90954C7.24072 6.18714 7.42792 5.56314 8.12632 5.11914Z" fill="currentColor"/>
<path d="M17.4263 19.5962H7.44714V23.105H17.4263V19.5962Z" fill="currentColor"/>
</svg>
