<svg width="24" height="24" viewBox="0 0 24 24" fill="currentColor" xmlns="http://www.w3.org/2000/svg">
<path d="M20.5871 5.99051H19.6775C19.5599 5.65691 19.2431 5.41931 18.8687 5.41931H17.7239C17.3495 5.41931 17.0327 5.65931 16.9151 5.99051H15.7199V3.41291C15.7199 2.93771 15.3359 2.55371 14.8607 2.55371H9.13675C8.66155 2.55371 8.27755 2.93771 8.27755 3.41291V5.98811H7.08235C6.96475 5.65451 6.64795 5.41691 6.27355 5.41691H5.12875C4.75435 5.41691 4.43755 5.65691 4.31995 5.98811H3.41035C2.93515 5.98811 2.55115 6.37211 2.55115 6.84731V20.5849C2.55115 21.0601 2.93515 21.4441 3.41035 21.4441H20.5823C21.0575 21.4441 21.4415 21.0601 21.4415 20.5849V6.84971C21.4439 6.37451 21.0599 5.99051 20.5871 5.99051ZM9.99595 4.27211H14.0039V5.99051H9.99595V4.27211ZM9.09835 18.2905C8.92795 18.4585 8.70715 18.5425 8.48395 18.5425C8.26555 18.5425 8.04235 18.4585 7.87435 18.2905C7.53595 17.9521 7.53595 17.4073 7.87435 17.0689L10.7135 14.2297L11.9351 15.4513L9.09835 18.2905ZM16.6799 17.5489L15.5303 16.4017C15.4703 16.3393 15.3983 16.3009 15.3239 16.2721C15.2591 16.2457 15.1919 16.2337 15.1247 16.2337C14.9759 16.2337 14.8295 16.2889 14.7167 16.4017C14.5511 16.5649 14.5103 16.8049 14.5847 17.0089C14.6159 17.0809 14.6543 17.1553 14.7167 17.2153L15.8639 18.3625C15.6383 18.4729 15.3887 18.5377 15.1247 18.5377C14.2079 18.5377 13.4663 17.8225 13.4063 16.9249L13.3967 16.8073C13.3967 16.5961 13.4423 16.3969 13.5095 16.2097L9.95755 12.6601C9.77275 12.7273 9.57115 12.7729 9.35995 12.7729L9.24235 12.7609C8.34475 12.6985 7.62955 11.9593 7.62955 11.0425C7.62955 10.7785 7.69435 10.5289 7.80475 10.3033L8.95195 11.4505C9.01195 11.5129 9.08395 11.5513 9.16075 11.5801C9.22315 11.6065 9.29035 11.6185 9.35995 11.6185C9.50635 11.6185 9.65275 11.5633 9.76555 11.4505C9.93115 11.2873 9.97195 11.0473 9.89515 10.8433C9.86875 10.7713 9.82795 10.6969 9.76555 10.6369L8.61835 9.48491C8.84395 9.37931 9.09355 9.31451 9.35995 9.31451C10.2743 9.31451 11.0135 10.0273 11.0759 10.9273L11.0879 11.0425C11.0879 11.2537 11.0471 11.4529 10.9751 11.6425L14.5247 15.1921C14.7143 15.1225 14.9135 15.0793 15.1247 15.0793L15.2399 15.0913C16.1399 15.1537 16.8527 15.8929 16.8527 16.8073C16.8503 17.0737 16.7879 17.3233 16.6799 17.5489ZM16.2047 11.1697L14.9687 11.8081L13.4639 13.3129L12.8543 12.7009L14.3591 11.1961L14.9975 9.96011L16.2503 9.31211L16.8527 9.91451L16.2047 11.1697Z" fill="currentColor"/>
</svg>
