<svg width="24" height="24" viewBox="0 0 24 24" fill="currentColor" xmlns="http://www.w3.org/2000/svg">
<path d="M22.3609 11.2225C22.3585 11.7577 22.3417 12.2905 22.2337 12.8161C22.0609 13.6537 21.6649 14.3809 21.1105 15.0241C20.3209 15.9361 19.3393 16.5937 18.2737 17.1361C17.1577 17.7049 15.9865 18.1297 14.7769 18.4489C14.1433 18.6145 13.4977 18.7465 12.8569 18.8833C12.6169 18.9361 12.4129 18.8281 12.2329 18.6769C11.8825 18.3793 11.6641 17.9857 11.4697 17.5801C11.1721 16.9657 10.9537 16.3225 10.8049 15.6577C10.6393 14.9233 10.4761 14.1841 10.3657 13.4377C10.1929 12.2737 10.1449 11.1049 10.2625 9.92886C10.3897 8.63526 10.6201 7.36086 10.9969 6.11766C11.2153 5.39286 11.4841 4.68726 11.9473 4.07526C12.1177 3.84966 12.3097 3.63366 12.6025 3.58086C12.7537 3.55206 12.9193 3.56886 13.0753 3.59766C14.1505 3.78966 15.2089 4.06086 16.2409 4.42086C17.4457 4.83846 18.6025 5.35686 19.6537 6.08646C20.4697 6.65286 21.1801 7.32246 21.6865 8.18646C22.0393 8.78886 22.2601 9.43686 22.3081 10.1353C22.3297 10.4929 22.3417 10.8577 22.3609 11.2225ZM12.8977 4.83366C12.7801 4.80246 12.7345 4.83846 12.6961 4.94886C12.3553 5.90166 12.0505 6.86646 11.8393 7.85766C11.6449 8.76246 11.5105 9.67686 11.4649 10.6009C11.4097 11.7289 11.5105 12.8473 11.7073 13.9561C11.9233 15.1753 12.2713 16.3561 12.7057 17.5153C12.7369 17.6017 12.7753 17.6257 12.8713 17.6065C13.7977 17.4337 14.7073 17.2009 15.6025 16.9057C16.6969 16.5433 17.7553 16.1017 18.7273 15.4681C19.4065 15.0241 20.0185 14.5081 20.4697 13.8241C20.7265 13.4353 20.9377 13.0225 20.9977 12.5569C21.0553 12.1129 21.0745 11.6665 21.1081 11.2201C21.0985 11.2201 21.1729 10.1881 20.8513 9.34086C20.5537 8.55126 20.0233 7.93926 19.3801 7.41606C19.3825 7.40886 18.0265 6.21606 12.8977 4.83366Z" fill="currentColor"/>
<path d="M2.08324 7.95852C1.88644 7.55772 1.81684 7.14972 1.87924 6.70812C4.34644 5.88492 6.82804 5.05932 9.32644 4.22412C9.39124 4.41132 9.45364 4.59372 9.51604 4.77612C9.57364 4.94412 9.62644 5.11452 9.68884 5.28012C9.72724 5.38092 9.70324 5.42412 9.59524 5.46012C8.44804 5.83692 7.30324 6.22092 6.15844 6.60252C4.85284 7.03692 3.54724 7.47372 2.24164 7.90812C2.19124 7.92732 2.14084 7.94172 2.08324 7.95852Z" fill="currentColor"/>
<path d="M9.33127 17.0303C9.44167 17.3591 9.54487 17.6711 9.65047 17.9831C9.72967 18.2207 9.72967 18.2207 9.48727 18.3023C7.57207 18.9407 5.65447 19.5791 3.73927 20.2175C3.19207 20.3999 2.64487 20.5823 2.09047 20.7695C1.88647 20.3783 1.82167 19.9679 1.88167 19.5167C4.34887 18.6911 6.83047 17.8631 9.33127 17.0303Z" fill="currentColor"/>
<path d="M2.10483 17.5585C1.88883 17.1769 1.82883 16.7833 1.86963 16.3753C1.87443 16.3369 1.93443 16.2889 1.98003 16.2721C2.52483 16.0705 3.07203 15.8737 3.61923 15.6745C5.25843 15.0793 6.89763 14.4817 8.53683 13.8865C8.57763 13.8721 8.62083 13.8601 8.67843 13.8433C8.77923 14.1193 8.88003 14.3881 8.97603 14.6569C9.01683 14.7721 9.10083 14.9137 9.06483 15.0025C9.03363 15.0793 8.86083 15.1033 8.75043 15.1441C6.67443 15.9001 4.59603 16.6561 2.52003 17.4121C2.38083 17.4577 2.24163 17.5081 2.10483 17.5585Z" fill="currentColor"/>
<path d="M8.67843 7.43506C8.81523 7.81186 8.94243 8.16946 9.07683 8.52706C9.11283 8.62306 9.04563 8.63026 8.98803 8.65186C8.52003 8.82226 8.05443 8.99266 7.58643 9.16306C5.80083 9.81346 4.01763 10.4615 2.23203 11.1119C2.19123 11.1263 2.14803 11.1383 2.09043 11.1551C1.99443 10.8695 1.83123 10.6079 1.86483 10.2911C1.87923 10.1639 1.83603 10.0079 1.89603 9.91906C1.95363 9.83506 2.11443 9.81826 2.23203 9.77746C4.26243 9.03826 6.29283 8.29906 8.32563 7.55746C8.43363 7.51666 8.54883 7.48066 8.67843 7.43506Z" fill="currentColor"/>
<path d="M8.48163 11.8031C8.17683 11.9279 7.89363 12.0431 7.61043 12.1559C5.81763 12.8735 4.02483 13.5887 2.23203 14.3063C2.13603 14.3447 2.10243 14.3303 2.05203 14.2343C1.87923 13.9031 1.83843 13.5551 1.86003 13.1903C1.86483 13.1039 1.90803 13.0799 1.97523 13.0535C3.06243 12.6191 4.15203 12.1823 5.23923 11.7479C6.12003 11.3951 7.00323 11.0447 7.88403 10.6895C7.99203 10.6463 8.03043 10.6679 8.06883 10.7711C8.20083 11.1119 8.34003 11.4479 8.48163 11.8031Z" fill="currentColor"/>
</svg>
