<svg width="24" height="24" viewBox="0 0 24 24" fill="currentColor" xmlns="http://www.w3.org/2000/svg">
<path d="M15.7776 18.0886C15.3384 18.0838 14.9232 18.2182 14.5728 18.4822C13.908 18.9814 12.5592 18.9742 12.1152 18.9742C10.8384 18.967 9.55918 18.9694 8.27758 18.9694H7.91518L6.72238 17.7598H4.58398L3.21118 18.6886V19.3174L5.39278 19.327L5.38318 20.839H3.21118V21.4678L4.58158 22.3966H6.71998L7.93918 21.187L12.204 21.1894C13.0824 21.1894 13.9128 21.1894 14.6496 21.6886C14.9688 21.9046 15.3408 22.0222 15.7296 22.027C16.2816 22.0342 16.7832 21.811 17.1456 21.4486C17.496 21.0982 17.7168 20.6158 17.724 20.0806C17.736 18.9958 16.8648 18.1006 15.7776 18.0886ZM16.56 20.7622C16.3632 20.959 16.1016 21.067 15.8256 21.067C15.5472 21.067 15.2856 20.959 15.0912 20.7622C14.6856 20.3566 14.6856 19.6966 15.0912 19.291C15.288 19.0942 15.5496 18.9862 15.8256 18.9862C16.104 18.9862 16.3632 19.0942 16.56 19.291C16.9656 19.6966 16.9656 20.3566 16.56 20.7622Z" fill="currentColor"/>
<path d="M4.70642 8.40708H2.43362C2.43362 8.40708 2.03762 8.33988 2.02562 8.66628C2.01362 8.99508 1.87922 10.6775 1.87922 10.8143C1.87922 10.9511 1.84562 11.2655 2.13842 11.3687C2.43122 11.4719 3.11042 11.5607 3.55202 11.5607C3.99362 11.5607 4.70402 11.5487 4.70402 11.5487V8.40708H4.70642Z" fill="currentColor"/>
<path d="M1.92483 11.582C1.92483 11.582 2.06163 11.7476 2.79603 11.8196C2.50323 12.0116 2.12883 12.5324 2.17443 13.0412C1.94643 12.5012 1.87923 11.8436 1.92483 11.582Z" fill="currentColor"/>
<path d="M14.8321 11.959C14.0977 11.959 13.5049 12.5542 13.5049 13.2862C13.5049 14.0206 14.1001 14.6134 14.8321 14.6134C15.5665 14.6134 16.1593 14.0182 16.1593 13.2862C16.1593 12.5518 15.5665 11.959 14.8321 11.959ZM14.8153 13.6534C14.5969 13.6534 14.4193 13.4758 14.4193 13.2574C14.4193 13.039 14.5969 12.8614 14.8153 12.8614C15.0337 12.8614 15.2113 13.039 15.2113 13.2574C15.2113 13.4758 15.0337 13.6534 14.8153 13.6534Z" fill="currentColor"/>
<path d="M17.436 13.7446C17.3568 13.7446 17.2368 13.7038 17.244 13.5358C17.2512 13.3702 17.244 8.7334 17.244 8.7334H16.6632V12.1678C16.2696 11.5606 15.5976 11.1862 14.868 11.1862C13.6848 11.1862 12.7224 12.1486 12.7224 13.3318C12.7224 14.515 13.6848 15.4774 14.868 15.4774C15.7152 15.4774 16.4856 14.9758 16.8288 14.2006C16.8432 14.1694 16.8528 14.1358 16.8672 14.1022C16.9176 14.1214 16.9824 14.1358 17.064 14.1358C17.58 14.1526 22.1208 14.0422 22.1208 14.0422V13.8142C22.1208 13.8118 17.5152 13.7446 17.436 13.7446ZM16.572 13.9438C16.3128 14.659 15.6288 15.1414 14.868 15.1414C13.8696 15.1414 13.056 14.3278 13.056 13.3294C13.056 12.331 13.8696 11.5198 14.868 11.5198C15.6264 11.5198 16.3104 11.9998 16.572 12.715C16.644 12.9118 16.68 13.1206 16.68 13.3318C16.6776 13.5406 16.6416 13.747 16.572 13.9438Z" fill="currentColor"/>
<path d="M4.36328 11.9951C3.37928 11.9951 2.58008 12.7943 2.58008 13.7783C2.58008 14.7623 3.37928 15.5615 4.36328 15.5615C5.34728 15.5615 6.14648 14.7623 6.14648 13.7783C6.14648 12.7943 5.34728 11.9951 4.36328 11.9951ZM4.36328 12.3287C5.16248 12.3287 5.81288 12.9791 5.81288 13.7783C5.81288 14.5775 5.16248 15.2279 4.36328 15.2279C3.56408 15.2279 2.91368 14.5775 2.91368 13.7783C2.91368 12.9791 3.56408 12.3287 4.36328 12.3287Z" fill="currentColor"/>
<path d="M4.33443 12.6548C3.73443 12.6548 3.24963 13.1396 3.24963 13.7396C3.24963 14.3396 3.73443 14.8244 4.33443 14.8244C4.93443 14.8244 5.41923 14.3396 5.41923 13.7396C5.42163 13.142 4.93443 12.6548 4.33443 12.6548ZM4.32243 14.0396C4.14483 14.0396 3.99843 13.8956 3.99843 13.7156C3.99843 13.538 4.14243 13.3916 4.32243 13.3916C4.50243 13.3916 4.64643 13.5356 4.64643 13.7156C4.64403 13.8956 4.50003 14.0396 4.32243 14.0396Z" fill="currentColor"/>
<path d="M3.55676 3.12003L4.28636 3.08643L4.65836 7.50962L3.82796 7.54322L3.55676 3.12003Z" fill="currentColor"/>
<path d="M4.0824 7.73038L4.5744 7.69678L4.6416 8.15518H4.0824V7.73038Z" fill="currentColor"/>
<path d="M4.15921 2.92764L3.92401 2.93724C3.92401 2.93724 3.71521 2.42844 3.46561 2.41164C3.44881 2.17884 3.43201 2.07324 3.43201 2.07324C3.43201 2.07324 4.03921 2.31564 4.15921 2.92764Z" fill="currentColor"/>
<path d="M9.084 6.7629L6.7104 8.0613C6.7104 8.0613 5.8656 7.2885 5.4192 6.6549C4.9872 6.0669 4.9872 6.0669 4.9872 6.0669C4.9872 6.0669 4.8768 5.8797 5.1696 5.8293C5.4624 5.7789 6.324 5.5989 6.6432 6.2133C6.96 6.8277 6.9144 7.2549 6.9144 7.2549L8.7672 6.3957C8.7624 6.3957 9.1368 6.1581 9.084 6.7629Z" fill="currentColor"/>
<path d="M5.90401 8.92296C5.90401 8.92296 7.60321 9.73176 10.536 8.71896C10.7928 8.58696 10.9392 8.50776 11.0616 8.43336C10.8504 8.08536 9.75841 6.69336 9.75841 6.69336L5.76721 8.84616C5.76721 8.84856 5.77921 8.85576 5.90401 8.92296Z" fill="currentColor"/>
<path d="M13.1016 8.42847L13.3848 9.50127L12.8976 9.38847C12.8976 9.38847 12.4464 9.18447 12.288 8.91327C12.1296 8.64207 11.9256 8.16687 11.9256 8.16687C11.9256 8.16687 11.7336 7.63647 11.5176 7.45407C11.304 7.27407 11.1552 7.17087 11.0544 7.08207C10.9536 6.99087 10.8744 6.69807 10.8744 6.69807C10.8744 6.69807 10.8864 6.60687 10.9752 6.52767C11.0664 6.44847 11.1216 6.39087 11.2008 6.38127C11.28 6.36927 11.3376 6.33567 11.4048 6.42687C11.472 6.51807 11.664 6.68607 11.7336 6.79887C11.8008 6.91167 11.7456 6.95727 11.9376 7.13727C12.1296 7.31727 12.2544 7.43007 12.3888 7.47567C12.5256 7.52127 12.6024 7.50927 12.6936 7.66767C12.7848 7.83087 13.1016 8.42847 13.1016 8.42847Z" fill="currentColor"/>
<path d="M11.136 5.98779L11.0232 6.32619L10.74 6.53019L10.4232 6.57579L11.136 5.98779Z" fill="currentColor"/>
<path d="M10.1304 6.85902C10.1016 6.85902 10.0752 6.84702 10.0536 6.82542C10.0176 6.78222 10.02 6.71982 10.0632 6.68142L11.1816 5.69742C11.2248 5.65902 11.2872 5.66382 11.3256 5.70702C11.3616 5.75022 11.3592 5.81262 11.316 5.85102L10.1976 6.83502C10.176 6.84942 10.152 6.85902 10.1304 6.85902Z" fill="currentColor"/>
<path d="M12.1368 11.1909C12.1368 11.1909 11.64 11.6037 11.64 12.0933C11.5032 12.0933 11.0472 12.0981 11.0472 12.0981L11.0232 11.2149L12.1368 11.1909Z" fill="currentColor"/>
<path d="M10.6993 12.0861L10.6729 11.2221L10.0873 11.2077C9.11767 11.1909 8.20807 10.8285 7.13287 10.2789C6.04807 9.72453 5.52727 9.01653 5.52727 9.01653L4.99927 8.78613C4.99927 8.78613 5.02567 10.4973 5.05207 11.5365C5.64007 11.6613 6.06967 12.1365 6.06967 12.1365L10.6993 12.0861Z" fill="currentColor"/>
<path d="M15.8617 10.2862C15.1585 10.2862 14.6281 10.327 14.2033 10.4062C14.1841 10.315 14.1481 10.147 14.1025 9.93099L14.4673 9.75099L14.5273 9.79899L14.7241 9.69819L14.5201 9.26379L14.3161 9.35019L14.2921 9.41019L14.0209 9.53499C13.8193 8.57979 13.5169 7.17099 13.3729 6.59739C13.1473 5.69259 12.6049 4.31499 12.2641 3.17259C12.0457 2.43339 11.7073 2.03259 11.2585 1.83099C11.2609 1.82859 11.2609 1.82859 11.2609 1.82619C11.3377 1.73979 11.2945 1.60059 11.1025 1.60059C10.9105 1.60059 10.4929 1.64619 10.4929 1.64619C10.5049 1.65099 10.5217 1.65819 10.5337 1.66539C10.4977 1.66299 10.4593 1.66059 10.4209 1.65819C9.54246 1.62459 4.96326 1.70379 4.96326 1.70379L4.97526 2.12139L5.11206 2.17899L4.98486 8.50779L5.57526 8.72859C5.55366 8.27019 5.72166 2.15499 5.72166 2.15499C5.72166 2.15499 9.36006 2.14539 10.3321 2.12379C11.3041 2.10219 11.4961 2.51979 11.6425 2.75739C11.7889 2.99499 12.0265 3.82059 12.3313 4.72299C12.6361 5.62779 13.0897 7.36779 13.1785 7.77579C13.2673 8.17899 13.7473 10.4878 13.7545 10.519C13.3777 10.639 13.0897 10.807 12.8161 11.0254C12.3697 11.3806 11.9641 11.9182 11.9641 12.2326C11.9641 12.3862 11.9689 12.5494 11.9689 12.5494L10.7161 12.5686L10.7089 12.3934L6.35286 12.4702C6.80406 13.0078 6.59766 14.0254 6.59766 14.0254C6.59766 14.0254 10.3681 14.0086 12.2449 13.9414C12.0505 12.2686 12.7297 11.5846 13.0585 11.2894C13.9657 10.5022 15.8665 10.639 15.8665 10.639C15.8665 10.639 15.8761 10.2862 15.8617 10.2862Z" fill="currentColor"/>
<path d="M13.8816 1.97017L13.9104 2.61577L14.832 2.79577L15.2232 2.79097L15.2208 9.06697L14.7264 9.29977L14.8056 9.49897L15.2208 9.29977V10.0822L16.0392 10.0774L16.1304 1.96777L13.8816 1.97017Z" fill="currentColor"/>
</svg>
