<svg width="24" height="24" viewBox="0 0 24 24" fill="currentColor" xmlns="http://www.w3.org/2000/svg">
<path d="M11.8271 13.8671C11.8271 13.3631 11.8271 12.9431 11.8271 12.4751C10.6535 12.4751 9.51109 12.4751 8.32789 12.4751C8.32789 12.9191 8.32789 13.3559 8.32789 13.8287C8.15029 13.8455 8.00869 13.8599 7.82629 13.8791C7.82629 12.7319 7.82629 11.6207 7.82629 10.4759C7.97269 10.4759 8.11429 10.4759 8.31109 10.4759C8.31109 10.9319 8.31109 11.3831 8.31109 11.8559C9.49669 11.8559 10.6271 11.8559 11.8103 11.8559C11.8103 11.3927 11.8103 10.9583 11.8103 10.4855C11.9999 10.4687 12.1415 10.4567 12.3527 10.4375C12.3527 10.9247 12.3527 11.3735 12.3527 11.8535C13.5479 11.8535 14.6783 11.8535 15.8687 11.8535C15.8687 11.3927 15.8687 10.9415 15.8687 10.4639C16.0559 10.4543 16.1855 10.4495 16.3319 10.4423C16.3559 10.5167 16.3919 10.5767 16.3919 10.6391C16.3991 11.0639 16.3727 11.4911 16.4039 11.9135C16.4375 12.3383 16.2407 12.4367 15.8639 12.4319C14.7263 12.4175 13.5887 12.4271 12.3815 12.4271C12.3815 12.9071 12.3815 13.3559 12.3815 13.8383C12.1751 13.8503 12.0311 13.8575 11.8271 13.8671Z" fill="currentColor"/>
<path d="M8.06395 9.92398C7.25995 9.93118 6.58795 9.27598 6.59515 8.49358C6.60235 7.72318 7.24795 7.07278 8.02075 7.05598C8.81515 7.03918 9.47035 7.69198 9.46795 8.50078C9.46555 9.30958 8.86555 9.91678 8.06395 9.92398Z" fill="currentColor"/>
<path d="M16.1568 9.92376C15.3504 9.92856 14.7312 9.32856 14.7192 8.53416C14.7072 7.71816 15.3336 7.06536 16.1376 7.05576C16.9224 7.04616 17.6064 7.73016 17.5944 8.51016C17.5824 9.29016 16.9416 9.91896 16.1568 9.92376Z" fill="currentColor"/>
<path d="M8.02076 14.3951C8.85116 14.3879 9.46796 14.9927 9.47036 15.8231C9.47276 16.6031 8.83676 17.2535 8.06396 17.2631C7.27676 17.2727 6.59276 16.6007 6.59756 15.8159C6.59756 15.0407 7.23836 14.4023 8.02076 14.3951Z" fill="currentColor"/>
<path d="M12.0768 9.92418C11.2848 9.91698 10.6632 9.29298 10.6632 8.50578C10.6632 7.69938 11.3136 7.05138 12.1128 7.05618C12.8856 7.06338 13.524 7.70898 13.5264 8.48898C13.5288 9.30498 12.8976 9.93138 12.0768 9.92418Z" fill="currentColor"/>
<path d="M10.6632 15.816C10.6656 15 11.2992 14.3832 12.1224 14.3952C12.9144 14.4072 13.524 15.0288 13.5264 15.8256C13.5288 16.5984 12.8832 17.2536 12.1152 17.2632C11.3208 17.2728 10.6632 16.6176 10.6632 15.816Z" fill="currentColor"/>
<path d="M12.0936 2.47178C17.436 2.47178 21.7824 6.81818 21.7824 12.1606C21.7824 17.503 17.436 21.847 12.0936 21.847C6.75117 21.847 2.40717 17.5006 2.40717 12.1606C2.40717 6.82058 6.75357 2.47178 12.0936 2.47178ZM12.0936 1.45898C6.18237 1.45898 1.39197 6.24938 1.39197 12.1606C1.39197 18.0718 6.18237 22.8622 12.0936 22.8622C18.0048 22.8622 22.7952 18.0718 22.7952 12.1606C22.7952 6.24938 18.0048 1.45898 12.0936 1.45898Z" fill="currentColor"/>
</svg>
