<svg width="24" height="24" viewBox="0 0 24 24" fill="currentColor" xmlns="http://www.w3.org/2000/svg">
<path d="M16.4113 17.4265C16.0153 17.0209 15.5113 16.7641 14.9497 16.6849C13.8865 16.5337 12.6601 15.2953 12.2545 14.8873C11.0929 13.7137 9.92406 12.5449 8.75286 11.3761L8.42166 11.0449L8.43366 8.85135L6.48006 6.89535L4.37766 6.48975L3.80166 7.06575L5.78646 9.06735L4.39686 10.4401L2.41206 8.45535L1.83606 9.03135L2.24166 11.1337L4.19526 13.0873L6.41526 13.0969L10.3105 16.9969C11.1145 17.8009 11.8729 18.5593 12.0889 19.6897C12.1825 20.1793 12.4177 20.6257 12.7657 20.9833C13.2649 21.4921 13.9249 21.7489 14.5873 21.7489C15.2281 21.7489 15.8713 21.5089 16.3657 21.0265C17.3713 20.0473 17.3905 18.4321 16.4113 17.4265ZM14.6809 20.5849C14.3209 20.5849 13.9849 20.4457 13.7305 20.1913C13.4761 19.9369 13.3369 19.6009 13.3369 19.2409C13.3369 18.4993 13.9393 17.8969 14.6809 17.8969C15.0409 17.8969 15.3769 18.0361 15.6313 18.2905C15.8857 18.5449 16.0249 18.8809 16.0249 19.2409C16.0249 19.9825 15.4225 20.5849 14.6809 20.5849Z" fill="currentColor"/>
<path d="M22.0033 14.0282L19.6249 11.6354C19.3537 11.3666 18.9193 11.1218 18.4177 10.841C17.5657 10.361 16.6033 9.81862 16.2481 9.04583L16.5841 8.11463L15.5953 7.12582L14.2801 8.44102L11.4169 5.57542L10.4929 3.66022C10.3441 3.35782 9.84488 3.03382 9.20408 2.64022C9.03848 2.53942 8.89208 2.44822 8.79368 2.37862L8.61128 2.24902L6.80408 4.05622L6.93368 4.23862C7.00328 4.33462 7.09208 4.48102 7.19528 4.64902C7.58888 5.28742 7.91288 5.78902 8.21768 5.93782L10.1305 6.86182L12.9937 9.72503L11.6761 11.0402L12.6649 12.029L13.5985 11.693C14.3713 12.0458 14.9137 13.0106 15.3937 13.8626C15.6745 14.3642 15.9193 14.7962 16.1905 15.0698C16.9249 15.7994 17.8489 16.7162 18.5905 17.453C18.7105 17.5634 18.8569 17.6114 19.0177 17.6114C19.7425 17.6114 20.7457 16.6514 20.9761 16.421C21.2545 16.1426 22.6273 14.705 22.0033 14.0282ZM13.3657 9.35303L10.4713 6.45862L8.44808 5.46502C8.25848 5.37142 7.86008 4.72342 7.64408 4.37302C7.58888 4.28182 7.53608 4.19782 7.48808 4.12102L8.67608 2.93302C8.75048 2.98102 8.83688 3.03382 8.92808 3.08902C9.27608 3.30262 9.92648 3.70342 10.0177 3.89062L10.9609 5.84422L13.9057 8.81063L13.3657 9.35303ZM19.0777 16.3946L17.0689 14.3714L17.4433 13.9994L19.4521 16.0226L19.0777 16.3946ZM19.8265 15.6746L17.8177 13.6514L18.1921 13.2794L20.2009 15.3026L19.8265 15.6746ZM20.5705 14.9354L18.5617 12.9122L18.9361 12.5402L20.9449 14.5634L20.5705 14.9354Z" fill="currentColor"/>
</svg>
