<svg width="24" height="24" viewBox="0 0 24 24" fill="currentColor" xmlns="http://www.w3.org/2000/svg">
<path d="M7.2168 7.34424V14.501C7.2168 15.8426 8.3088 16.937 9.6528 16.937H10.2744V4.91064H9.6528C8.3088 4.91064 7.2168 6.00264 7.2168 7.34424Z" fill="currentColor"/>
<path d="M1.24805 11.9666H4.33685V9.91455H1.24805V11.9666Z" fill="currentColor"/>
<path d="M4.87683 9.45388V12.6411C4.87683 13.2723 5.39043 13.7883 6.02403 13.7883H6.66003V8.30908H6.02403C5.39043 8.30908 4.87683 8.82268 4.87683 9.45388Z" fill="currentColor"/>
<path d="M21.8401 9.91699V11.969H22.7521V9.91699H21.8401Z" fill="currentColor"/>
<path d="M17.5032 17.1265C17.364 17.1265 17.2512 17.2393 17.2512 17.3785C17.2512 17.5177 17.364 17.6305 17.5032 17.6305C17.6424 17.6305 17.7552 17.5177 17.7552 17.3785C17.7552 17.2417 17.6424 17.1265 17.5032 17.1265Z" fill="currentColor"/>
<path d="M14.8681 17.1265C14.7289 17.1265 14.6161 17.2393 14.6161 17.3785C14.6161 17.5177 14.7289 17.6305 14.8681 17.6305C15.0073 17.6305 15.1201 17.5177 15.1201 17.3785C15.1201 17.2417 15.0073 17.1265 14.8681 17.1265Z" fill="currentColor"/>
<path d="M13.1569 13.7812V19.09H19.2505V13.7812H13.1569ZM14.8681 18.1108C14.4649 18.1108 14.1361 17.782 14.1361 17.3788C14.1361 16.9756 14.4649 16.6468 14.8681 16.6468C15.2713 16.6468 15.6001 16.9756 15.6001 17.3788C15.5977 17.7844 15.2713 18.1108 14.8681 18.1108ZM15.4345 15.5428H15.1129V15.8644C15.1129 15.9964 15.0049 16.1044 14.8729 16.1044C14.7409 16.1044 14.6329 15.9964 14.6329 15.8644V15.5428H14.3113C14.1793 15.5428 14.0713 15.4348 14.0713 15.3028C14.0713 15.1708 14.1793 15.0628 14.3113 15.0628H14.6329V14.7412C14.6329 14.6092 14.7409 14.5012 14.8729 14.5012C15.0049 14.5012 15.1129 14.6092 15.1129 14.7412V15.0628H15.4345C15.5665 15.0628 15.6745 15.1708 15.6745 15.3028C15.6721 15.4348 15.5665 15.5428 15.4345 15.5428ZM17.5033 18.1108C17.1001 18.1108 16.7713 17.782 16.7713 17.3788C16.7713 16.9756 17.1001 16.6468 17.5033 16.6468C17.9065 16.6468 18.2353 16.9756 18.2353 17.3788C18.2329 17.7844 17.9065 18.1108 17.5033 18.1108ZM18.0745 15.5428H16.9513C16.8193 15.5428 16.7113 15.4348 16.7113 15.3028C16.7113 15.1708 16.8193 15.0628 16.9513 15.0628H18.0745C18.2065 15.0628 18.3145 15.1708 18.3145 15.3028C18.3121 15.4348 18.2065 15.5428 18.0745 15.5428Z" fill="currentColor"/>
<path d="M18.8664 4.91064H18.42H18.1008V13.2482H19.716V14.1026H19.7136V16.9826H21.3V14.501V14.1026V7.79064V7.34424V4.91064H18.8664Z" fill="currentColor"/>
<path d="M10.812 4.91064V16.937H12.6432V13.2482H17.5704V4.91064H10.812ZM15.9096 8.43864L12.8808 12.0362C12.8616 12.0578 12.8352 12.0698 12.8088 12.0698C12.792 12.0698 12.7752 12.065 12.7584 12.0554C12.7176 12.0314 12.7032 11.981 12.72 11.9378L13.7808 9.41785H12.8064C12.7728 9.41785 12.744 9.40104 12.7248 9.37224C12.708 9.34344 12.7056 9.30984 12.72 9.28104L14.1408 6.44184C14.1576 6.41064 14.1888 6.38905 14.2248 6.38905H15.7392C15.7728 6.38905 15.8064 6.40824 15.8232 6.43704C15.84 6.46824 15.8376 6.50424 15.8208 6.53304L14.7144 8.28024H15.8352C15.8712 8.28024 15.9048 8.30184 15.9216 8.33544C15.9384 8.37144 15.9336 8.41224 15.9096 8.43864Z" fill="currentColor"/>
</svg>
