<svg width="24" height="24" viewBox="0 0 24 24" fill="currentColor" xmlns="http://www.w3.org/2000/svg">
<path d="M21.8759 2.8606H20.7479V2.3542C20.7479 1.9702 20.4359 1.6582 20.0519 1.6582C19.6679 1.6582 19.3559 1.9702 19.3559 2.3542V2.8606H18.3839V2.3542C18.3839 1.9702 18.0719 1.6582 17.6879 1.6582C17.3039 1.6582 16.9919 1.9702 16.9919 2.3542V2.8606H16.0199V2.3542C16.0199 1.9702 15.7079 1.6582 15.3239 1.6582C14.9399 1.6582 14.6279 1.9702 14.6279 2.3542V2.8606H13.6559V2.3542C13.6559 1.9702 13.3439 1.6582 12.9599 1.6582C12.5759 1.6582 12.2639 1.9702 12.2639 2.3542V2.8606H11.2919V2.3542C11.2919 1.9702 10.9799 1.6582 10.5959 1.6582C10.2119 1.6582 9.89992 1.9702 9.89992 2.3542V2.8606H8.85832C8.57032 2.8606 8.33752 3.0934 8.33752 3.3814V10.6126L9.37912 9.5686V3.9022H9.89992V4.3966C9.89992 4.7806 10.2119 5.0926 10.5959 5.0926C10.9799 5.0926 11.2919 4.7806 11.2919 4.3966V3.9022H12.2639V4.3966C12.2639 4.7806 12.5759 5.0926 12.9599 5.0926C13.3439 5.0926 13.6559 4.7806 13.6559 4.3966V3.9022H14.6279V4.3966C14.6279 4.7806 14.9399 5.0926 15.3239 5.0926C15.7079 5.0926 16.0199 4.7806 16.0199 4.3966V3.9022H16.9919V4.3966C16.9919 4.7806 17.3039 5.0926 17.6879 5.0926C18.0719 5.0926 18.3839 4.7806 18.3839 4.3966V3.9022H19.3559V4.3966C19.3559 4.7806 19.6679 5.0926 20.0519 5.0926C20.4359 5.0926 20.7479 4.7806 20.7479 4.3966V3.9022H21.3527V21.2974H9.38392V17.0374L8.33992 18.0814V21.8206C8.33992 22.1086 8.57272 22.3414 8.86072 22.3414H21.8735C22.1615 22.3414 22.3943 22.1086 22.3943 21.8206V3.3814C22.3967 3.0934 22.1615 2.8606 21.8759 2.8606Z" fill="currentColor"/>
<path d="M14.7575 10.2812L15.7559 7.51402C15.8255 7.32442 15.7775 7.11082 15.6335 6.96922C15.4919 6.82522 15.2783 6.77962 15.0887 6.84682L12.3215 7.84762C12.2495 7.87402 12.1847 7.91482 12.2159 7.97002L2.20795 17.9756C1.78795 18.3092 1.60315 18.7532 1.60315 19.226C1.60315 19.6988 1.78795 20.1452 2.12395 20.4788C2.45755 20.8124 2.90395 20.9972 3.37675 20.9972C3.84955 20.9972 4.29355 20.8124 4.71595 20.4788L14.7215 10.4732C14.6879 10.418 14.7311 10.3532 14.7575 10.2812ZM3.89275 19.742C3.61675 20.018 3.13675 20.018 2.86075 19.742C2.72155 19.6052 2.64715 19.4204 2.64715 19.226C2.64715 19.0316 2.72395 18.8492 2.86075 18.7124L3.26155 18.3116L4.29115 19.3412L3.89275 19.742ZM4.86955 18.8492L3.83995 17.8196L12.7055 8.95162L13.7351 9.98122L4.86955 18.8492ZM13.9895 9.33562L13.2647 8.61322L14.0735 8.32042L14.2799 8.52682L13.9895 9.33562Z" fill="currentColor"/>
</svg>
