<svg width="24" height="24" viewBox="0 0 24 24" fill="currentColor" xmlns="http://www.w3.org/2000/svg">
<path d="M5.55359 21.7199H18.4584V4.07031H5.55359V21.7199ZM6.47279 17.2391H8.07599V20.8031H6.47279V17.2391ZM14.568 17.2391V20.8031H12.6264V17.2391H14.568ZM11.7144 20.8007H8.98799V17.2391H11.7144V20.8007ZM15.48 20.8007V17.2391H17.5368V20.8031H15.48V20.8007ZM17.5392 4.98951V16.2839H6.47279V4.98951H17.5392Z" fill="currentColor"/>
<path d="M18.5208 2.27979H5.47919C5.21519 2.27979 5.00159 2.49339 5.00159 2.75739C5.00159 3.02138 5.21519 3.23498 5.47919 3.23498H18.5208C18.7848 3.23498 18.9984 3.02138 18.9984 2.75739C18.9984 2.49339 18.7848 2.27979 18.5208 2.27979Z" fill="currentColor"/>
<path d="M12.0384 6.95996C12.0384 6.95996 11.8344 7.25276 11.5512 7.71356C10.4688 9.48716 8.24164 13.776 12.0384 13.776C16.4184 13.776 12.7872 8.07356 12.1344 7.10156C12.0744 7.01036 12.0384 6.95996 12.0384 6.95996ZM12.2976 12.5616C12.8136 12.324 12.8952 11.8392 12.7704 11.3232C12.6624 10.8864 13.3344 10.704 13.44 11.1384C13.6344 11.9352 13.4496 12.7944 12.648 13.164C12.2472 13.3488 11.892 12.7512 12.2976 12.5616Z" fill="currentColor"/>
</svg>
