<svg width="24" height="24" viewBox="0 0 24 24" fill="currentColor" xmlns="http://www.w3.org/2000/svg">
<path d="M3.77276 1.80469C3.77276 1.80469 3.61436 2.03029 3.39596 2.38789C2.55836 3.76069 0.835155 7.07749 3.77276 7.07749C7.16156 7.07749 4.35116 2.66629 3.84716 1.91269C3.80156 1.84309 3.77276 1.80469 3.77276 1.80469ZM3.97436 6.13669C4.37276 5.95189 4.43756 5.57749 4.33916 5.17909C4.25516 4.84309 4.77596 4.69909 4.85756 5.03509C5.00876 5.64949 4.86476 6.31669 4.24556 6.60229C3.93356 6.74629 3.65996 6.28309 3.97436 6.13669Z" fill="currentColor"/>
<path d="M21.4536 19.9896V15.4272C21.4536 14.9544 21.0744 14.5728 20.6016 14.5728C20.1288 14.5728 19.7496 14.9568 19.7496 15.4272V19.9896C19.4928 20.2224 19.3368 20.556 19.3368 20.928C19.3368 21.6288 19.9056 22.1952 20.6064 22.1952C21.3072 22.1952 21.8712 21.6288 21.8712 20.928C21.8736 20.556 21.7128 20.2224 21.4536 19.9896ZM20.6016 14.9856C20.844 14.9856 21.0408 15.1848 21.0408 15.4272V15.8232H20.6016V16.236H21.0408V16.6752H20.6016V17.088H21.0408V17.5272H20.6016V17.94H21.0408V18.3792H20.1648V15.4272C20.1648 15.1848 20.3616 14.9856 20.6016 14.9856Z" fill="currentColor"/>
<path d="M4.93675 19.0198H2.41675V12.8998H4.93675L5.22955 13.2862H5.72155C5.65675 12.9166 5.62315 12.5398 5.62315 12.1654C5.62315 10.4374 6.29515 8.81259 7.51915 7.59099C8.74075 6.36939 10.3655 5.69499 12.0935 5.69499H18.9575L19.2503 5.30859H21.7703V11.4286H19.2479L18.9551 11.0422H18.4631C18.5279 11.4142 18.5615 11.7886 18.5615 12.163C18.5615 13.891 17.8895 15.5158 16.6655 16.7374C15.4439 17.959 13.8191 18.631 12.0911 18.631H5.22715L4.93675 19.0198ZM3.11275 18.3238H4.59115L4.88395 17.9374H12.0935C13.6343 17.9374 15.0863 17.3374 16.1759 16.2478C17.2655 15.1558 17.8679 13.7062 17.8679 12.1654C17.8679 11.7022 17.8103 11.2342 17.6999 10.7782L17.5943 10.3462H19.3079L19.6007 10.7326H21.0791V6.00459H19.6007L19.3079 6.39099H12.0911C10.5503 6.39099 9.10075 6.99099 8.00875 8.08299C6.91915 9.17259 6.31675 10.6222 6.31675 12.1654C6.31675 12.631 6.37435 13.0966 6.48475 13.5526L6.59035 13.9846H4.87915L4.58635 13.5982H3.10795V18.3238H3.11275ZM12.0911 13.8238C11.1767 13.8238 10.4303 13.0798 10.4303 12.163C10.4303 11.2486 11.1743 10.5022 12.0911 10.5022C13.0079 10.5022 13.7519 11.2462 13.7519 12.163C13.7519 13.0798 13.0079 13.8238 12.0911 13.8238ZM12.0911 11.1982C11.5607 11.1982 11.1263 11.6302 11.1263 12.163C11.1263 12.6958 11.5583 13.1278 12.0911 13.1278C12.6239 13.1278 13.0559 12.6958 13.0559 12.163C13.0559 11.6326 12.6239 11.1982 12.0911 11.1982Z" fill="currentColor"/>
<path d="M13.5023 12.2041C13.3847 12.2041 13.2887 12.1081 13.2887 11.9905C13.2887 11.8729 13.3847 11.7769 13.5023 11.7769C14.8679 11.7769 15.9767 10.6657 15.9767 9.30247C15.9767 9.18487 16.0727 9.08887 16.1903 9.08887C16.3079 9.08887 16.4039 9.18487 16.4039 9.30247C16.4063 10.9009 15.1031 12.2041 13.5023 12.2041Z" fill="currentColor"/>
<path d="M10.4975 11.7959C10.6151 11.7959 10.7111 11.8919 10.7111 12.0095C10.7111 12.1271 10.6151 12.2231 10.4975 12.2231C9.13195 12.2231 8.02315 13.3343 8.02315 14.6975C8.02315 14.8151 7.92715 14.9111 7.80955 14.9111C7.69195 14.9111 7.59595 14.8151 7.59595 14.6975C7.59355 13.0991 8.89675 11.7959 10.4975 11.7959Z" fill="currentColor"/>
<path d="M12.2039 10.4978C12.2039 10.6154 12.1079 10.7114 11.9903 10.7114C11.8727 10.7114 11.7767 10.6154 11.7767 10.4978C11.7767 9.13219 10.6655 8.02339 9.30234 8.02339C9.18474 8.02339 9.08875 7.92739 9.08875 7.80979C9.08875 7.69219 9.18474 7.59619 9.30234 7.59619C10.9007 7.59379 12.2039 8.89699 12.2039 10.4978Z" fill="currentColor"/>
<path d="M11.7959 13.5027C11.7959 13.3851 11.8919 13.2891 12.0095 13.2891C12.1271 13.2891 12.2231 13.3851 12.2231 13.5027C12.2231 14.8683 13.3343 15.9771 14.6975 15.9771C14.8151 15.9771 14.9111 16.0731 14.9111 16.1907C14.9111 16.3083 14.8151 16.4043 14.6975 16.4043C13.0991 16.4067 11.7959 15.1035 11.7959 13.5027Z" fill="currentColor"/>
</svg>
