<svg width="24" height="24" viewBox="0 0 24 24" fill="currentColor" xmlns="http://www.w3.org/2000/svg">
<path d="M4.28638 2.99756C3.54478 2.99756 2.94238 3.59996 2.94238 4.34156C2.94238 5.08316 3.54478 5.68556 4.28638 5.68556C5.02798 5.68556 5.63038 5.08316 5.63038 4.34156C5.63038 3.59996 5.02798 2.99756 4.28638 2.99756ZM4.28638 5.18396C3.82078 5.18396 3.44158 4.80476 3.44158 4.33916C3.44158 3.87356 3.82078 3.49436 4.28638 3.49436C4.75198 3.49436 5.13118 3.87356 5.13118 4.33916C5.13118 4.80476 4.75198 5.18396 4.28638 5.18396Z" fill="currentColor"/>
<path d="M20.3736 20.8248C20.6374 20.8248 20.8512 20.611 20.8512 20.3472C20.8512 20.0835 20.6374 19.8696 20.3736 19.8696C20.1098 19.8696 19.896 20.0835 19.896 20.3472C19.896 20.611 20.1098 20.8248 20.3736 20.8248Z" fill="currentColor"/>
<path d="M21.0095 18.4226L21.5567 17.8754C21.8975 17.5346 21.8975 16.9778 21.5567 16.637L14.2295 9.30976C13.9295 9.00976 13.3823 8.86816 12.9695 8.98576C12.8111 8.99776 12.1343 9.07936 11.3183 9.54016L6.89995 5.12176C6.97915 4.86256 7.01995 4.59856 7.01995 4.33456C7.01995 2.83936 5.80315 1.62256 4.30795 1.62256C2.81275 1.62256 1.59595 2.83936 1.59595 4.33456C1.59595 5.82976 2.81275 7.04656 4.30795 7.04656C4.60315 7.04656 4.89355 6.99616 5.17915 6.89776L9.53755 11.225C9.04075 12.0506 8.99515 12.7802 8.99275 12.9554C8.89435 13.3682 9.04555 13.9106 9.34315 14.2082L16.6943 21.509C17.0375 21.8498 17.5919 21.8474 17.9327 21.5066L18.4487 20.9882C18.7199 21.797 19.4879 22.3754 20.3735 22.3754C21.4919 22.3754 22.4039 21.4658 22.4039 20.345C22.4039 19.4618 21.8207 18.6914 21.0095 18.4226ZM10.3343 10.1834C10.0919 10.4018 9.91915 10.6202 9.80635 10.7858L5.41915 6.43216C5.37115 6.38416 5.30875 6.36016 5.24395 6.36016C5.21275 6.36016 5.17915 6.36736 5.14795 6.37936C4.87435 6.49216 4.59355 6.54976 4.31035 6.54976C3.09115 6.54976 2.09755 5.55616 2.09755 4.33696C2.09755 3.11776 3.09115 2.12416 4.31035 2.12416C5.52955 2.12416 6.52315 3.11776 6.52315 4.33696C6.52315 4.59376 6.47515 4.85296 6.38155 5.10496C6.34795 5.19616 6.36955 5.29936 6.43915 5.36896L10.8575 9.78736C10.7135 9.87136 10.5359 10.001 10.3343 10.1834ZM20.3735 21.4826C19.7471 21.4826 19.2383 20.9738 19.2383 20.3474C19.2383 19.721 19.7471 19.2122 20.3735 19.2122C20.9999 19.2122 21.5087 19.721 21.5087 20.3474C21.5087 20.9738 20.9999 21.4826 20.3735 21.4826Z" fill="currentColor"/>
</svg>
