<svg width="24" height="24" viewBox="0 0 24 24" fill="currentColor" xmlns="http://www.w3.org/2000/svg">
<path d="M1.05115 12.7103L3.28555 14.2631L5.67355 11.0399L3.49195 9.6167L1.05115 12.7103Z" fill="currentColor"/>
<path d="M7.48552 6.03845L7.10872 5.60645L4.36072 9.43205L6.00712 10.5L7.79512 8.13845L7.39432 6.80165L7.48552 6.03845Z" fill="currentColor"/>
<path d="M9.9672 5.38811L9.2568 4.87451L7.7832 5.38571L8.2128 6.15851L7.9512 6.96731L8.8272 7.56011L13.4616 18.4105L13.6248 17.8537L14.3424 17.6857L14.4408 16.5673L10.1904 6.71051L9.9672 5.38811Z" fill="currentColor"/>
<path d="M15.8879 17.0063H15.1535L15.0647 17.5847L15.3767 17.7191C15.3767 17.7191 15.3767 17.7191 15.3983 18.2543C15.4199 18.7895 15.6647 19.1663 16.5335 19.1231H21.4103V18.7895C21.4103 18.7895 17.2919 18.7895 16.5335 18.7895C15.7775 18.7871 15.8879 17.0063 15.8879 17.0063Z" fill="currentColor"/>
<path d="M22.7687 12.2882C22.8671 12.2882 22.9487 12.2066 22.9487 12.1082V12.029C22.9487 11.9306 22.8671 11.849 22.7687 11.849H17.6039H17.4911L17.5751 11.5274H18.4655V11.1794H17.6687L17.7551 10.8554C17.7743 10.7834 17.7311 10.7114 17.6591 10.6922L17.5823 10.6706C17.5103 10.6514 17.4383 10.6946 17.4191 10.7666L17.3087 11.1794H15.8519V11.5274H17.2151L17.1311 11.849H16.8959H16.5767V13.2074H17.6063V12.2882H17.9327V14.6546H16.8959C16.7975 14.6546 16.7159 14.7362 16.7159 14.8346V14.9138C16.7159 15.0122 16.7975 15.0938 16.8959 15.0938H17.9327V17.1794H16.5791V18.2042H22.8119V17.1794H21.7295V15.0938H22.7663C22.8647 15.0938 22.9463 15.0122 22.9463 14.9138V14.8346C22.9463 14.7362 22.8647 14.6546 22.7663 14.6546H21.7295V12.2882H22.7687ZM21.3839 17.1818H18.2807V15.0962H21.3839V17.1818ZM21.3839 14.6546H18.2807V12.2882H21.3839V14.6546Z" fill="currentColor"/>
</svg>
