<svg width="24" height="24" viewBox="0 0 24 24" fill="currentColor" xmlns="http://www.w3.org/2000/svg">
<path d="M22.6152 14.4623V9.07191C22.62 8.98791 22.6104 8.74791 22.404 8.51271C22.1064 8.17431 21.5424 8.00391 20.7288 8.00391H3.28077C2.97597 8.00391 2.70477 8.02791 2.46957 8.07591C2.07837 8.15511 1.79037 8.30151 1.60317 8.51271C1.44717 8.68791 1.40397 8.86791 1.39437 8.98311C1.39197 9.01911 1.39197 9.05031 1.39437 9.07191V14.4623H1.12317V15.9959H22.8744V14.4623H22.6152ZM5.13597 8.57991H7.03437C6.92397 8.91111 6.95037 9.28071 6.95997 9.37911V11.1647C6.70077 10.9631 6.34317 10.7903 5.87757 10.7903C5.23917 10.7903 5.14797 10.2575 5.13837 10.1783V8.57991H5.13597ZM7.53357 11.3639H13.0656V12.8879H7.53357V11.3639ZM13.5648 8.57991H17.784V12.8879H13.6392V9.37911C13.6488 9.28071 13.6752 8.91111 13.5648 8.57991ZM13.0656 13.4615V14.4623H7.53357V13.4615H13.0656ZM13.6392 13.4615H17.784V14.4623H13.6392V13.4615ZM18.36 13.4615H22.0416V14.4623H18.36V13.4615ZM21.9576 8.87751C22.0464 8.96871 22.0416 9.02631 22.0416 9.02631V12.8879H18.36V8.57991H20.7288C21.5448 8.57991 21.8496 8.76471 21.9576 8.87751ZM12.8352 8.57991C12.8976 8.57991 12.9264 8.59911 12.9504 8.62551C13.0704 8.75751 13.0896 9.11751 13.0656 9.32871V10.7879H7.53357V9.36231L7.53117 9.32871C7.51197 9.17031 7.51677 8.77191 7.64637 8.62551C7.67037 8.59671 7.69917 8.57991 7.76157 8.57991H12.8352ZM3.28077 8.57991H4.55997V10.2047C4.59837 10.6055 4.92237 11.3639 5.87517 11.3639C6.50637 11.3639 6.85677 11.8439 6.95757 12.0095V12.8879H1.96797V9.06231L1.96557 9.02631C1.96557 9.02631 1.97517 8.96151 2.03517 8.89191C2.13837 8.77671 2.43837 8.57991 3.28077 8.57991ZM1.96797 13.4615H6.95997V14.4623H1.96797V13.4615Z" fill="currentColor"/>
</svg>
