<svg width="24" height="24" viewBox="0 0 24 24" fill="currentColor" xmlns="http://www.w3.org/2000/svg">
<path d="M21.7369 3.30469H2.09766V4.68949H21.7369V3.30469Z" fill="currentColor"/>
<path d="M12.2928 11.4336L14.544 12.0432L19.9656 10.5744L17.7144 9.96484L12.2928 11.4336Z" fill="currentColor"/>
<path d="M11.1673 12.9577L8.9161 12.3481L3.5929 13.7905L5.8441 14.4001L11.1673 12.9577Z" fill="currentColor"/>
<path d="M2.94729 18.6791C2.80569 18.7175 2.69289 18.8063 2.61609 18.9167H6.56889L11.1673 17.6711L8.91609 17.0615L2.94729 18.6791Z" fill="currentColor"/>
<path d="M19.8696 15.3142L17.6184 14.7046L12.2928 16.147L14.544 16.7566L19.8696 15.3142Z" fill="currentColor"/>
<path d="M20.5128 5.65921C20.6232 5.63041 20.7168 5.56801 20.7888 5.49121H16.632L12.2928 6.66721L14.544 7.27681L20.5128 5.65921Z" fill="currentColor"/>
<path d="M3.49695 9.05034L5.74815 9.65994L11.1673 8.19114L8.91615 7.58154L3.49695 9.05034Z" fill="currentColor"/>
<path d="M20.9161 14.393C20.8705 14.1914 20.7265 14.021 20.5129 13.9634L20.1505 13.865L19.8697 13.7882L14.5441 12.3482L14.2633 12.2714L13.9825 12.1946L11.7313 11.585L11.4505 11.5082L11.1697 11.4314L5.75046 9.96256L5.46966 9.88576L5.18886 9.80896L3.25926 9.28576C3.20886 9.27136 3.15606 9.26416 3.10566 9.26416C2.84646 9.26416 2.60886 9.43696 2.53686 9.69856C2.52726 9.73456 2.53206 9.77056 2.52966 9.80656C2.53206 9.84256 2.52726 9.87856 2.53686 9.91456C2.53686 9.91696 2.53926 9.91936 2.53926 9.92176C2.56566 10.1522 2.71206 10.3562 2.94966 10.421L3.18966 10.4858L3.49686 10.5698L8.91606 12.0386L9.19686 12.1154L9.47766 12.1922L11.7289 12.8018L12.0097 12.8786L12.2905 12.9554L17.6185 14.4002L17.8993 14.477L18.1801 14.5538L20.2033 15.1034C20.2537 15.1178 20.3065 15.125 20.3569 15.125C20.6161 15.125 20.8537 14.9522 20.9257 14.6906C20.9377 14.645 20.9329 14.6018 20.9353 14.5562C20.9329 14.5106 20.9377 14.4674 20.9257 14.4218C20.9257 14.4098 20.9185 14.4026 20.9161 14.393Z" fill="currentColor"/>
<path d="M20.5129 18.6792L14.5441 17.0616L14.2633 16.9848L13.9825 16.908L11.7313 16.2984L11.4505 16.2216L11.1697 16.1448L5.8441 14.7024L5.5633 14.6256L5.2801 14.5512L3.2569 14.004C3.2065 13.9896 3.1537 13.9824 3.1033 13.9824C2.8441 13.9824 2.6065 14.1552 2.5345 14.4168C2.5225 14.4624 2.5273 14.5056 2.5249 14.5512C2.5273 14.5968 2.5225 14.64 2.5345 14.6856C2.5369 14.6952 2.5441 14.7024 2.5465 14.7096C2.5921 14.9112 2.7361 15.0816 2.9497 15.1392L3.3121 15.2376L3.5929 15.3144L8.9185 16.7568L9.1993 16.8336L9.4801 16.9104L11.7313 17.52L12.0121 17.5968L12.2929 17.6736L16.8913 18.9192H20.8441C20.7673 18.8064 20.6545 18.7176 20.5129 18.6792Z" fill="currentColor"/>
<path d="M8.91611 7.27677L9.19691 7.35357L9.47771 7.43037L11.7289 8.03997L12.0097 8.11677L12.2905 8.19357L17.7097 9.66237L17.9905 9.73917L18.2713 9.81597L20.2009 10.3392C20.2513 10.3536 20.3041 10.3608 20.3545 10.3608C20.6137 10.3608 20.8513 10.188 20.9233 9.92637C20.9329 9.89037 20.9281 9.85437 20.9305 9.81837C20.9281 9.78237 20.9329 9.74637 20.9233 9.71037C20.9233 9.70797 20.9209 9.70557 20.9209 9.70317C20.8945 9.47277 20.7481 9.26877 20.5105 9.20397L20.2705 9.13917L19.9633 9.05517L14.5441 7.58157L14.2633 7.50477L13.9825 7.42797L11.7313 6.81837L11.4505 6.74157L11.1697 6.66477L6.83051 5.48877H2.67371C2.74571 5.56797 2.83931 5.62797 2.94971 5.65677L8.91611 7.27677Z" fill="currentColor"/>
<path d="M16.0992 19.5215H7.9032V20.6951H16.0992V19.5215Z" fill="currentColor"/>
<path d="M7.4881 19.5215H2.1073V20.6951H7.4881V19.5215Z" fill="currentColor"/>
<path d="M21.9024 19.5215H16.5216V20.6951H21.9024V19.5215Z" fill="currentColor"/>
</svg>
