<svg width="24" height="24" viewBox="0 0 24 24" fill="currentColor" xmlns="http://www.w3.org/2000/svg">
<path d="M21.6721 3.46816L20.0809 2.44336L13.9393 4.62736L12.7897 3.94816H9.88326V3.56896H11.1313V2.53696H7.60326V3.56896H8.85126V3.94816H5.60646L3.46806 2.71456L1.83606 4.41616L5.30166 8.90416L5.33526 8.87536V9.45376H12.8305L20.0473 3.65056L21.1129 4.33696L21.6721 3.46816ZM3.19686 4.48816L3.65286 4.01296L5.33526 4.98256V7.25536L3.19686 4.48816ZM12.4657 8.41936H6.36726V4.97776H12.5041L13.8289 5.76016L17.3161 4.52416L12.4657 8.41936ZM22.1641 6.47776C22.1641 6.90496 21.8185 7.25296 21.3913 7.25296C20.9641 7.25296 20.6185 6.90736 20.6185 6.47776C20.6185 6.05056 21.3913 4.69456 21.3913 4.69456C21.3913 4.69456 22.1641 6.05056 22.1641 6.47776Z" fill="currentColor"/>
<path d="M11.6785 16.0203C10.2961 16.0251 9.06972 15.9867 7.85052 15.8451C7.11132 15.7587 6.37452 15.6387 5.64732 15.4779C5.03292 15.3435 4.41132 15.1779 3.88572 14.7987C3.48252 14.5083 3.45612 14.1435 3.87852 13.8363C4.17852 13.6179 4.51932 13.4835 4.87212 13.3707C5.99292 13.0107 7.14732 12.8475 8.31372 12.7419C9.76572 12.6099 11.2201 12.5715 12.6745 12.6411C13.5817 12.6843 14.4889 12.7587 15.3913 12.8691C16.0129 12.9435 16.6321 13.0755 17.2393 13.2315C17.6545 13.3371 18.0577 13.5099 18.4489 13.6875C18.6265 13.7691 18.7873 13.9179 18.9193 14.0667C19.0561 14.2203 19.0489 14.4291 18.9073 14.5779C18.7729 14.7219 18.6145 14.8515 18.4441 14.9499C18.0601 15.1731 17.6305 15.2859 17.2033 15.4059C16.5097 15.6003 15.7993 15.6915 15.0889 15.7923C13.9081 15.9651 12.7153 15.9915 11.6785 16.0203ZM10.9753 13.0851C10.0057 13.1139 8.96652 13.1355 7.93452 13.2843C7.17372 13.3947 6.41052 13.4907 5.69052 13.7811C5.56092 13.8339 5.43132 13.8891 5.31372 13.9635C4.97052 14.1795 4.97772 14.4603 5.32572 14.6643C5.42652 14.7219 5.52252 14.7939 5.63052 14.8299C5.94732 14.9355 6.26412 15.0507 6.59052 15.1203C7.69932 15.3579 8.82732 15.4683 9.95772 15.5163C11.2441 15.5715 12.5305 15.5643 13.8121 15.4323C14.6401 15.3483 15.4705 15.2739 16.2793 15.0459C16.6417 14.9427 17.0065 14.8491 17.3209 14.6235C17.5705 14.4459 17.5849 14.2275 17.3449 14.0307C17.0281 13.7715 16.6393 13.6611 16.2601 13.5747C15.6505 13.4331 15.0265 13.3347 14.4049 13.2555C13.2913 13.1091 12.1681 13.0851 10.9753 13.0851Z" fill="currentColor"/>
<path d="M19.0129 19.3442C19.1377 19.5866 19.0513 19.8962 18.8185 20.0978C18.4873 20.381 18.1033 20.5586 17.6977 20.7074C16.9993 20.9642 16.2769 21.1106 15.5473 21.2402C14.4481 21.4346 13.3369 21.5042 12.2233 21.5426C10.9633 21.5882 9.70571 21.533 8.45291 21.4226C7.67771 21.353 6.91451 21.209 6.15371 21.0434C5.48171 20.897 4.82891 20.7002 4.22891 20.3594C3.94571 20.1986 3.69851 19.997 3.61691 19.6586C3.60491 19.613 3.60971 19.5626 3.60971 19.5314C3.69611 19.6034 3.78251 19.6778 3.86891 19.7498C4.33691 20.1434 4.89851 20.345 5.47691 20.4914C6.07691 20.6426 6.68171 20.7674 7.28891 20.8826C8.17931 21.053 9.08171 21.1178 9.98411 21.1394C10.8409 21.161 11.7001 21.1634 12.5569 21.1418C13.9945 21.1058 15.4177 20.9354 16.8145 20.5802C17.3329 20.4482 17.8441 20.2898 18.3145 20.021C18.6073 19.8554 18.8761 19.6706 19.0129 19.3442Z" fill="currentColor"/>
<path d="M8.87291 16.3491C9.04811 16.3611 9.19931 16.3731 9.35771 16.3827C9.35771 17.8995 9.35771 19.4067 9.35771 20.9307C9.20891 20.9163 9.07211 20.9091 8.93531 20.8851C8.90651 20.8803 8.87531 20.8035 8.87531 20.7603C8.87051 20.4051 8.87291 20.0523 8.87291 19.6971C8.87291 18.6579 8.87291 17.6211 8.87291 16.5819C8.87291 16.5147 8.87291 16.4451 8.87291 16.3491Z" fill="currentColor"/>
<path d="M7.10889 16.1523C7.27209 16.1787 7.42569 16.2027 7.58889 16.2291C7.58889 17.7339 7.58889 19.2363 7.58889 20.7603C7.42569 20.7387 7.26969 20.7195 7.10889 20.6979C7.10889 19.1811 7.10889 17.6739 7.10889 16.1523Z" fill="currentColor"/>
<path d="M13.3081 16.3779C13.4617 16.3683 13.6153 16.3563 13.7785 16.3467C13.7785 17.8611 13.7785 19.3611 13.7785 20.8803C13.6273 20.8971 13.4737 20.9115 13.3081 20.9307C13.3081 19.4067 13.3081 17.8995 13.3081 16.3779Z" fill="currentColor"/>
<path d="M6.69611 20.6234C6.67931 20.6258 6.66731 20.6282 6.65291 20.6282C6.22571 20.5706 6.22571 20.5706 6.22571 20.141C6.22571 18.8138 6.22571 17.4842 6.22571 16.157C6.22571 16.1114 6.22571 16.0658 6.22571 16.001C6.38891 16.0298 6.53771 16.0562 6.69611 16.0826C6.69611 17.597 6.69611 19.109 6.69611 20.6234Z" fill="currentColor"/>
<path d="M10.2289 20.9761C10.0705 20.9665 9.92655 20.9593 9.77295 20.9497C9.77295 19.4377 9.77295 17.9353 9.77295 16.4209C9.92175 16.4209 10.0681 16.4209 10.2289 16.4209C10.2289 17.9353 10.2289 19.4449 10.2289 20.9761Z" fill="currentColor"/>
<path d="M12.4249 16.4141C12.5857 16.4141 12.7297 16.4141 12.8833 16.4141C12.8833 17.9189 12.8833 19.4237 12.8833 20.9477C12.7321 20.9549 12.5833 20.9645 12.4249 20.9717C12.4249 19.4477 12.4249 17.9405 12.4249 16.4141Z" fill="currentColor"/>
<path d="M15.9649 20.6212C15.9649 20.5612 15.9649 20.5156 15.9649 20.47C15.9649 19.054 15.9673 17.6356 15.9625 16.2196C15.9625 16.102 15.9913 16.0492 16.1137 16.042C16.2193 16.0348 16.3225 16.006 16.4473 15.9844C16.4473 16.0492 16.4473 16.0924 16.4473 16.138C16.4473 17.5516 16.4449 18.9628 16.4497 20.3764C16.4497 20.4964 16.4065 20.5444 16.2985 20.5612C16.1929 20.578 16.0897 20.5972 15.9649 20.6212Z" fill="currentColor"/>
<path d="M15.0793 20.7533C15.0793 19.2389 15.0793 17.7341 15.0793 16.2221C15.2329 16.1933 15.3865 16.1645 15.5593 16.1309C15.5593 16.1981 15.5593 16.2461 15.5593 16.2965C15.5593 17.7077 15.5569 19.1213 15.5617 20.5325C15.5617 20.6573 15.5281 20.7077 15.4033 20.7101C15.3001 20.7125 15.1945 20.7365 15.0793 20.7533Z" fill="currentColor"/>
<path d="M4.9273 20.1915C4.7857 20.1363 4.6609 20.0955 4.5457 20.0379C4.5025 20.0163 4.4521 19.9515 4.4521 19.9083C4.4473 18.4443 4.4497 16.9827 4.4497 15.5187C4.4497 15.5091 4.4545 15.5019 4.4641 15.4731C4.6057 15.5283 4.7497 15.5739 4.8817 15.6411C4.9129 15.6555 4.9225 15.7371 4.9225 15.7875C4.9249 16.7667 4.9249 17.7459 4.9249 18.7227C4.9273 19.2075 4.9273 19.6899 4.9273 20.1915Z" fill="currentColor"/>
<path d="M5.34727 15.7876C5.49367 15.826 5.62567 15.8548 5.75287 15.898C5.78407 15.91 5.81767 15.9724 5.81767 16.0108C5.82247 16.2628 5.82007 16.5148 5.82007 16.7668C5.82007 17.9332 5.82007 19.0996 5.82007 20.2636C5.82007 20.3188 5.82007 20.374 5.82007 20.4484C5.67367 20.4124 5.54167 20.3836 5.41687 20.3428C5.38567 20.3332 5.36407 20.2804 5.34247 20.2468C5.33527 20.2324 5.34007 20.2108 5.34007 20.1916C5.34007 18.7636 5.34007 17.338 5.34007 15.91C5.34247 15.874 5.34487 15.838 5.34727 15.7876Z" fill="currentColor"/>
<path d="M17.3233 15.7539C17.3233 15.8259 17.3233 15.8715 17.3233 15.9171C17.3233 17.3259 17.3209 18.7323 17.3281 20.1411C17.3281 20.2779 17.2825 20.3331 17.1577 20.3547C17.0569 20.3715 16.9609 20.4003 16.8481 20.4267C16.8481 18.9075 16.8481 17.4051 16.8481 15.8955C16.9969 15.8499 17.1457 15.8067 17.3233 15.7539Z" fill="currentColor"/>
<path d="M17.7362 20.1605C17.7362 20.0909 17.7362 20.0453 17.7362 19.9997C17.7362 18.5861 17.7362 17.1749 17.7338 15.7613C17.7338 15.6581 17.7602 15.6005 17.8634 15.5693C17.9762 15.5333 18.0842 15.4781 18.2066 15.4253C18.209 15.4733 18.2138 15.5165 18.2138 15.5621C18.2138 16.9805 18.2114 18.3965 18.2162 19.8149C18.2162 19.9325 18.185 19.9949 18.0722 20.0285C17.9618 20.0621 17.8586 20.1101 17.7362 20.1605Z" fill="currentColor"/>
<path d="M8.00415 16.2749C8.14095 16.2869 8.26575 16.2893 8.39055 16.3109C8.42415 16.3157 8.45295 16.3685 8.47455 16.4069C8.48655 16.4285 8.47695 16.4621 8.47695 16.4885C8.47695 17.8853 8.47695 19.2845 8.47695 20.6813C8.47695 20.7317 8.47695 20.7821 8.47695 20.8517C8.31375 20.8373 8.16495 20.8229 8.00655 20.8109C8.00415 19.2989 8.00415 17.7941 8.00415 16.2749Z" fill="currentColor"/>
<path d="M14.6666 16.2627C14.6666 16.3395 14.6666 16.3923 14.6666 16.4475C14.6666 17.8419 14.6642 19.2363 14.669 20.6307C14.669 20.7555 14.6522 20.8227 14.5082 20.8179C14.4074 20.8131 14.3066 20.8347 14.1866 20.8443C14.1866 20.5563 14.1866 20.2875 14.1866 20.0163C14.1866 18.8451 14.1866 17.6763 14.1866 16.5051C14.1866 16.2699 14.1794 16.3059 14.3738 16.2915C14.4626 16.2867 14.5514 16.2747 14.6666 16.2627Z" fill="currentColor"/>
<path d="M11.5537 16.4547C11.5681 16.4451 11.5729 16.4427 11.5777 16.4403C12.0265 16.3947 12.0265 16.3947 12.0265 16.8411C12.0265 18.1563 12.0265 19.4715 12.0265 20.7867C12.0265 20.8419 12.0265 20.8971 12.0265 20.9667C11.8681 20.9667 11.7169 20.9667 11.5561 20.9667C11.5537 19.4667 11.5537 17.9619 11.5537 16.4547Z" fill="currentColor"/>
<path d="M10.6586 16.4429C10.8146 16.4429 10.961 16.4429 11.1194 16.4429C11.1194 17.9525 11.1194 19.4549 11.1194 20.9717C10.9706 20.9717 10.8194 20.9717 10.6586 20.9717C10.6586 19.4621 10.6586 17.9549 10.6586 16.4429Z" fill="currentColor"/>
<path d="M3.7537 14.8779C3.8473 14.9859 3.9265 15.0771 4.0009 15.1707C4.0273 15.2043 4.0489 15.2499 4.0489 15.2907C4.0513 16.7547 4.0513 18.2187 4.0489 19.6827C4.0489 19.6923 4.0441 19.7019 4.0369 19.7307C3.9073 19.6275 3.7873 19.5315 3.7633 19.3611C3.7537 19.2963 3.7489 19.2315 3.7489 19.1667C3.7489 17.7579 3.7489 16.3491 3.7489 14.9427C3.7513 14.9283 3.7537 14.9115 3.7537 14.8779Z" fill="currentColor"/>
<path d="M18.8305 14.8875C18.8305 14.9427 18.8305 14.9979 18.8305 15.0531C18.8305 16.4427 18.8281 17.8299 18.8329 19.2195C18.8329 19.3971 18.7657 19.5315 18.6217 19.6707C18.6169 19.6107 18.6097 19.5723 18.6097 19.5363C18.6097 18.1155 18.6049 16.6923 18.6169 15.2715C18.6169 15.1395 18.7225 15.0075 18.7801 14.8755C18.7969 14.8779 18.8137 14.8827 18.8305 14.8875Z" fill="currentColor"/>
<path d="M11.0522 13.3921C12.4034 13.4041 13.5218 13.4353 14.6306 13.5937C15.1586 13.6681 15.6794 13.8049 16.1978 13.9297C16.3418 13.9657 16.4786 14.0521 16.6106 14.1313C16.8122 14.2513 16.817 14.4601 16.6058 14.5681C16.3706 14.6881 16.1282 14.8033 15.8738 14.8657C15.1178 15.0529 14.3498 15.1801 13.5698 15.2113C12.545 15.2497 11.5202 15.3001 10.4978 15.2833C9.61937 15.2689 8.73856 15.1873 7.86496 15.0937C7.37296 15.0409 6.88816 14.9041 6.40576 14.7913C6.25456 14.7553 6.11056 14.6785 5.97376 14.5993C5.71456 14.4505 5.71456 14.2297 5.98816 14.0953C6.22336 13.9801 6.47296 13.8793 6.72976 13.8169C7.66096 13.5913 8.60896 13.4857 9.56416 13.4473C10.1354 13.4209 10.709 13.4041 11.0522 13.3921ZM11.4026 15.1441C11.5202 15.1441 11.621 15.1441 11.7242 15.1441C11.7242 14.6137 11.7242 14.0905 11.7242 13.5697C11.6114 13.5697 11.5106 13.5697 11.4026 13.5697C11.4026 14.0977 11.4026 14.6161 11.4026 15.1441ZM9.92176 13.6033C9.92176 14.1073 9.92176 14.6113 9.92176 15.1249C10.0346 15.1249 10.133 15.1249 10.253 15.1249C10.253 15.0625 10.253 15.0073 10.253 14.9521C10.253 14.5849 10.253 14.2153 10.253 13.8481C10.253 13.5409 10.2458 13.5337 9.92176 13.6033ZM10.9802 15.1465C10.9802 14.6137 10.9802 14.0905 10.9802 13.5721C10.8674 13.5721 10.7666 13.5721 10.6658 13.5721C10.6658 14.1025 10.6658 14.6209 10.6658 15.1465C10.7738 15.1465 10.8698 15.1465 10.9802 15.1465ZM12.1466 15.1465C12.2594 15.1393 12.3602 15.1321 12.4634 15.1273C12.4634 14.6089 12.4634 14.1001 12.4634 13.5817C12.353 13.5769 12.2522 13.5697 12.1466 13.5649C12.1466 14.0977 12.1466 14.6089 12.1466 15.1465ZM13.2122 15.0937C13.2122 14.5945 13.2122 14.1097 13.2122 13.6177C13.1018 13.6105 13.0034 13.6009 12.8978 13.5937C12.8978 14.1097 12.8978 14.6089 12.8978 15.1177C13.0082 15.1105 13.1042 15.1033 13.2122 15.0937ZM9.17297 13.6249C9.17297 14.1025 9.17296 14.5561 9.17536 15.0097C9.17536 15.0361 9.20896 15.0817 9.23056 15.0865C9.31936 15.0985 9.41057 15.0985 9.49937 15.1033C9.49937 14.5969 9.49937 14.1097 9.49937 13.6105C9.39137 13.6153 9.29057 13.6177 9.17297 13.6249ZM13.6298 13.6585C13.6298 14.1313 13.6298 14.5825 13.6298 15.0433C13.6946 15.0433 13.7498 15.0385 13.805 15.0433C13.937 15.0577 13.9658 14.9953 13.9634 14.8729C13.9562 14.5249 13.961 14.1769 13.961 13.8289C13.961 13.7809 13.9562 13.7305 13.9514 13.6777C13.8386 13.6705 13.7426 13.6657 13.6298 13.6585ZM8.42896 13.6993C8.42896 14.1433 8.42896 14.5729 8.42896 15.0145C8.54416 15.0241 8.64497 15.0313 8.75297 15.0409C8.75297 14.5705 8.75297 14.1241 8.75297 13.6633C8.63537 13.6777 8.53456 13.6897 8.42896 13.6993ZM14.7002 14.9497C14.7002 14.5513 14.7002 14.1625 14.7002 13.7617C14.5922 13.7497 14.489 13.7377 14.381 13.7233C14.381 14.1553 14.381 14.5657 14.381 14.9905C14.4938 14.9761 14.5946 14.9641 14.7002 14.9497ZM8.01376 14.9665C8.01376 14.5537 8.01376 14.1577 8.01376 13.7449C7.90096 13.7593 7.79776 13.7713 7.69696 13.7833C7.69696 14.1769 7.69696 14.5513 7.69696 14.9353C7.80496 14.9449 7.90336 14.9545 8.01376 14.9665ZM15.437 13.8745C15.3242 13.8553 15.2258 13.8385 15.1202 13.8193C15.1202 14.1841 15.1202 14.5345 15.1202 14.8969C15.2354 14.8753 15.3362 14.8561 15.437 14.8369C15.437 14.5081 15.437 14.1985 15.437 13.8745ZM7.26976 13.8529C7.20496 13.8601 7.14976 13.8673 7.09456 13.8721C6.97936 13.8817 6.92656 13.9321 6.93616 14.0593C6.94816 14.2129 6.93856 14.3665 6.93856 14.5201C6.93856 14.8249 6.93856 14.8249 7.23856 14.8561C7.24576 14.8561 7.25296 14.8489 7.26736 14.8417C7.26976 14.5153 7.26976 14.1889 7.26976 13.8529ZM15.8642 14.7265C16.2002 14.6641 16.2074 14.6497 16.193 14.1865C16.1882 14.0761 16.0874 14.0161 15.8642 13.9921C15.8642 14.2369 15.8642 14.4793 15.8642 14.7265ZM6.53056 14.0449C6.21376 14.0977 6.19696 14.1217 6.20416 14.4505C6.20656 14.5801 6.29056 14.6353 6.53056 14.6665C6.53056 14.4577 6.53056 14.2513 6.53056 14.0449Z" fill="currentColor"/>
</svg>
