<svg width="24" height="24" viewBox="0 0 24 24" fill="currentColor" xmlns="http://www.w3.org/2000/svg">
<path d="M21.3504 2.19336C19.6944 2.19576 18.0384 2.19576 16.3824 2.19576H11.784C11.4384 2.19576 11.2464 2.39016 11.2464 2.74536C11.244 4.30296 11.244 5.85816 11.2464 7.41576C11.2464 7.76856 11.4336 7.95816 11.7864 7.96056C12.0504 7.96296 12.312 7.96296 12.5736 7.96296H12.8952C13.2264 7.96296 13.308 8.04456 13.308 8.37816V20.0062C13.308 20.4118 13.452 20.5822 13.8528 20.6518C14.2584 20.7238 14.6616 20.7958 15.0648 20.8678C15.5208 20.9494 15.9768 21.031 16.4328 21.1102C16.5192 21.1246 16.6152 21.1246 16.704 21.1102C17.1984 21.0238 17.6904 20.935 18.1824 20.8462L19.2528 20.6542C19.716 20.5726 19.8288 20.4382 19.8288 19.9726L19.8312 8.45016C19.8312 8.41176 19.8336 8.37096 19.8288 8.33256C19.824 8.28936 19.8096 8.15256 19.9008 8.05416C19.9944 7.95336 20.136 7.95816 20.1816 7.95816C20.448 7.96536 20.7168 7.96296 20.9856 7.96296L21.2472 7.96056C21.3408 7.96056 21.432 7.96056 21.5136 7.94616C21.696 7.91256 21.7992 7.78296 21.9 7.57896V2.56776C21.78 2.30616 21.612 2.19336 21.3504 2.19336ZM13.3104 5.07576V5.48856C13.3104 5.86536 13.3104 6.24216 13.3128 6.61896C13.3128 6.66696 13.3152 6.79656 13.2216 6.88536C13.1496 6.95256 13.0608 6.96216 13.0056 6.96216C12.9912 6.96216 12.9768 6.96216 12.9672 6.95976C12.828 6.95016 12.6888 6.95496 12.5496 6.95976C12.516 6.95976 12.4056 6.96456 12.324 6.88296C12.24 6.80376 12.24 6.69336 12.24 6.65736C12.2424 5.60616 12.2424 4.55496 12.24 3.50136C12.24 3.46536 12.24 3.35256 12.324 3.26856C12.4104 3.18696 12.5232 3.18936 12.5616 3.19176C12.6936 3.19656 12.828 3.19896 12.9624 3.19176C13.0032 3.18936 13.128 3.18216 13.2216 3.26856C13.3056 3.34776 13.3128 3.45576 13.3128 3.53016C13.308 3.90456 13.3104 4.27896 13.3104 4.65096V5.07576ZM14.328 8.20776C14.3496 7.96776 14.64 7.96056 14.6424 7.96056C14.9904 7.95816 15.336 7.95816 15.684 7.95816H16.56C17.2032 7.95816 17.8464 7.95816 18.4896 7.95576C18.5448 7.95576 18.6624 7.95576 18.7464 8.03976C18.804 8.09736 18.8304 8.17416 18.8304 8.27496C18.828 8.76936 18.828 9.26136 18.828 9.75576V10.4614C18.828 10.4998 18.8208 10.5334 18.8136 10.5646L18.7656 10.831L18.4104 10.6702C18.3 10.6198 18.1944 10.5742 18.0912 10.5238L17.6952 10.339C16.6752 9.86616 15.6576 9.39096 14.64 8.91576C14.5224 8.86056 14.3688 8.78856 14.3328 8.64216C14.2992 8.49576 14.3136 8.34216 14.328 8.20776ZM14.3184 12.6502L17.9592 14.3422C18.1848 14.4478 18.408 14.551 18.6312 14.6614C18.6624 14.6758 18.8184 14.7622 18.8208 14.9134C18.8256 15.1534 18.8256 15.3958 18.8256 15.6478V16.147L18.4224 15.9694C18.3216 15.9262 18.228 15.8854 18.1368 15.8422L14.772 14.2678C14.6808 14.227 14.592 14.1862 14.5056 14.1406C14.4168 14.0926 14.328 13.9846 14.3232 13.8718C14.3184 13.6438 14.3184 13.4134 14.3184 13.1686V12.6502ZM18.3264 19.7926L17.7936 19.891C17.4192 19.963 17.0424 20.0326 16.6656 20.0902C16.6296 20.095 16.596 20.0974 16.56 20.0974C16.4472 20.0974 16.3392 20.0734 16.2408 20.0542C16.2048 20.047 16.1688 20.0398 16.1328 20.0326C15.6144 19.9414 15.0984 19.8478 14.5824 19.747C14.46 19.723 14.3232 19.5958 14.3232 19.459C14.316 19.015 14.3184 18.571 14.3208 18.127V17.9014L14.4312 17.6758L14.604 17.719L18.4224 19.4974L18.3264 19.7926ZM18.828 18.5662L18.3096 18.3286C18.1176 18.2398 17.9376 18.1582 17.76 18.0766L16.764 17.6134C16.1256 17.3158 15.4896 17.0182 14.8488 16.723C14.3592 16.4974 14.316 16.4302 14.316 15.8974V15.1822L14.8176 15.4102C14.9904 15.4894 15.156 15.5638 15.3192 15.6406L16.3416 16.1158C17.088 16.4638 17.832 16.8118 18.5784 17.1574C18.6432 17.1886 18.84 17.2774 18.828 17.5462C18.8208 17.7046 18.8232 17.8654 18.8232 18.0382L18.828 18.5662ZM18.828 12.895V13.6318L17.772 13.147C16.9128 12.7486 16.0512 12.3478 15.192 11.947C14.9616 11.839 14.7336 11.7334 14.5056 11.6206C14.4432 11.5894 14.3256 11.4958 14.3208 11.3638C14.316 11.0614 14.316 10.759 14.316 10.4446V9.91416L14.6568 10.0486C14.7216 10.0726 14.7768 10.0942 14.832 10.1206L17.8464 11.5294C18.0864 11.6422 18.3288 11.755 18.5712 11.863C18.7488 11.9422 18.8328 12.0718 18.828 12.2662C18.8256 12.4726 18.8256 12.6838 18.828 12.895ZM20.8944 6.95976H14.7288C14.3976 6.95976 14.316 6.88056 14.316 6.55656V5.79576C14.316 5.05656 14.3184 4.31736 14.3112 3.57816C14.3112 3.48696 14.3208 3.37176 14.4048 3.28776C14.4888 3.20376 14.6136 3.19416 14.7024 3.19176C16.6392 3.19656 18.5784 3.19656 20.5152 3.19176H20.5176C20.6064 3.19176 20.7192 3.20376 20.8032 3.28536C20.8872 3.36936 20.8968 3.48216 20.8968 3.57096C20.892 4.31976 20.892 5.07096 20.8944 5.82216V6.95976Z" fill="currentColor"/>
<path d="M12.1344 16.4133L11.7336 15.7173C11.196 14.7885 10.6608 13.8597 10.1256 12.9285C10.0128 12.7341 9.85201 12.6429 9.62161 12.6405C8.08081 12.6381 6.54241 12.6381 5.00161 12.6405C4.77601 12.6405 4.62481 12.7197 4.52401 12.8901C4.11121 13.5981 3.70321 14.3085 3.29281 15.0165L2.09521 17.1045V17.3301L2.34961 17.7789C2.54641 18.1269 2.74321 18.4749 2.94241 18.8229C3.18481 19.2429 3.42721 19.6653 3.67201 20.0853C3.95041 20.5653 4.22641 21.0429 4.50241 21.5229C4.61281 21.7149 4.76401 21.8037 4.97761 21.8037C6.53281 21.8061 8.09041 21.8061 9.64561 21.8037C9.86161 21.8037 10.0128 21.7149 10.1208 21.5229C10.2528 21.2877 10.3896 21.0549 10.5264 20.8221L11.2536 19.5645C11.6424 18.8901 12.0312 18.2157 12.4224 17.5437C12.5544 17.3157 12.5544 17.1165 12.4176 16.8981C12.3216 16.7397 12.228 16.5765 12.1344 16.4133ZM11.328 17.4117C10.7184 18.4773 10.1064 19.5405 9.48721 20.6013C9.42241 20.7117 9.27361 20.7981 9.14881 20.8005C8.53201 20.8029 7.91521 20.8053 7.29841 20.8053C6.69121 20.8053 6.08161 20.8029 5.47441 20.8005C5.35201 20.8005 5.20321 20.7117 5.13841 20.5989C4.51921 19.5405 3.90721 18.4773 3.29761 17.4117C3.23761 17.3061 3.23761 17.1405 3.29761 17.0349C3.62161 16.4685 3.94561 15.9045 4.27201 15.3405C4.55281 14.8509 4.83601 14.3613 5.11681 13.8717C5.20801 13.7109 5.34481 13.6413 5.51281 13.6413C5.96161 13.6461 6.41041 13.6461 6.85681 13.6437H7.32961H7.75681C8.21521 13.6437 8.67361 13.6437 9.13201 13.6413C9.13441 13.6413 9.13441 13.6413 9.13681 13.6413C9.30481 13.6413 9.42001 13.7109 9.50641 13.8573C9.77761 14.3301 10.0488 14.8005 10.32 15.2709C10.6584 15.8589 10.9968 16.4469 11.3328 17.0349C11.3904 17.1405 11.388 17.3061 11.328 17.4117Z" fill="currentColor"/>
<path d="M7.32243 14.8027C8.72403 14.8051 9.87603 15.9619 9.86883 17.3587C9.86403 18.7507 8.70963 19.8955 7.31523 19.8955C5.91123 19.8931 4.75443 18.7363 4.76163 17.3443C4.76643 15.9379 5.91603 14.7979 7.32243 14.8027ZM8.48883 17.3515C8.47923 16.6963 7.99683 16.1755 7.32003 16.1707C6.65523 16.1659 6.15363 16.6723 6.14163 17.3419C6.12963 17.9803 6.66483 18.5179 7.31043 18.5275C7.94163 18.5347 8.48643 17.9923 8.48883 17.3515Z" fill="currentColor"/>
</svg>
