<svg width="24" height="24" viewBox="0 0 24 24" fill="currentColor" xmlns="http://www.w3.org/2000/svg">
<path d="M21.8976 6.9458H19.7016V5.1554H20.616C20.8704 5.1554 21.0792 4.949 21.0792 4.6922C21.0792 4.4378 20.8728 4.229 20.616 4.229H13.2816C13.0272 4.229 12.8184 4.4354 12.8184 4.6922C12.8184 4.9466 13.0248 5.1554 13.2816 5.1554H14.196V6.9458H3.85436C3.59996 6.9458 3.39116 7.1522 3.39116 7.409V8.3522H1.63916V9.27621H3.85436C4.10876 9.27621 4.31756 9.0698 4.31756 8.813V7.8698H21.4368V14.3978C21.4176 14.3978 21.4008 14.3978 21.3792 14.3978C20.4168 14.3978 19.9344 13.7042 19.6464 13.049C19.32 13.7618 18.8184 14.3978 17.9136 14.3978C17.0088 14.3978 16.6224 13.8194 16.392 13.0298C16.1232 13.8386 15.4296 14.3978 14.6208 14.3978C13.812 14.3978 13.3104 13.8002 13.0416 13.0682C12.8112 13.8386 11.9448 14.417 11.2704 14.417C10.596 14.417 9.80636 13.8578 9.57596 13.049C9.34556 13.8962 8.59436 14.3786 7.86236 14.417C7.13036 14.4554 6.60956 13.7426 6.16796 13.0298C5.64716 14.3954 4.71836 14.4338 4.31996 14.3786V11.1626C4.31996 10.9082 4.11356 10.6994 3.85676 10.6994H1.69676V11.6234H3.39116V19.3058C3.39116 19.5602 3.59756 19.769 3.85436 19.769H21.8976C22.152 19.769 22.3608 19.5626 22.3608 19.3058V7.4066C22.3608 7.1522 22.1544 6.9458 21.8976 6.9458Z" fill="currentColor"/>
</svg>
