<svg width="24" height="24" viewBox="0 0 24 24" fill="currentColor" xmlns="http://www.w3.org/2000/svg">
<path d="M9.34326 11.9494C11.1649 11.9494 12.8737 11.9494 14.6089 11.9494C14.6257 11.8342 14.6521 11.7454 14.6521 11.659C14.6497 10.2574 14.6953 8.85097 14.6233 7.45177C14.5849 6.68857 14.3425 5.93497 14.1985 5.17657C14.1265 4.80697 13.9225 4.67497 13.5385 4.68457C12.5233 4.70857 11.5081 4.70857 10.4929 4.68457C10.1185 4.67497 9.93846 4.79497 9.81606 5.15977C9.06966 7.37737 9.46086 9.65497 9.34326 11.9494ZM14.7025 14.6398C15.0409 14.6398 15.3361 14.6542 15.6265 14.6374C16.2313 14.6014 16.6609 14.155 16.6369 13.6078C16.6153 13.0894 16.1833 12.6838 15.5905 12.6814C13.1953 12.6718 10.7977 12.6718 8.40246 12.6814C7.81446 12.6838 7.38726 13.0894 7.36326 13.615C7.33926 14.1598 7.76886 14.6038 8.37606 14.6374C8.68326 14.6542 8.99046 14.6398 9.29286 14.6398C9.34566 14.9014 9.38406 15.091 9.42006 15.2758C11.1673 15.2758 12.8761 15.2758 14.6089 15.2758C14.6401 15.0742 14.6641 14.8966 14.7025 14.6398ZM13.9129 19.3366C13.8337 20.5822 13.2505 21.2038 12.0745 21.3166C11.6449 21.3574 11.3425 21.559 11.3713 22.0006C11.3977 22.4206 11.6905 22.6486 12.1321 22.627C12.3145 22.6174 12.5041 22.615 12.6817 22.5718C14.3953 22.1326 15.5713 20.3518 15.3097 18.595C15.2473 18.1846 14.9929 17.9926 14.5801 17.9926C13.1017 17.9926 11.6257 17.995 10.1473 17.9902C9.71526 17.9878 9.39846 18.1702 9.38406 18.6094C9.36966 19.0846 9.70806 19.2814 10.1521 19.2886C10.5337 19.2958 10.9153 19.291 11.3161 19.291C11.4097 19.8646 11.1841 20.6206 12.0193 20.6158C12.8593 20.611 12.5689 19.8238 12.7009 19.3366C13.1257 19.3366 13.5169 19.3366 13.9129 19.3366ZM12.0265 15.9982V16.0006C11.4001 16.0006 10.7713 16.0006 10.1449 16.0006C9.68886 16.0006 9.36966 16.2046 9.37926 16.675C9.38886 17.1166 9.71046 17.3014 10.1377 17.3014C11.3737 17.3014 12.6097 17.3014 13.8457 17.3014C14.2897 17.3014 14.6353 17.131 14.6377 16.651C14.6377 16.1758 14.3065 15.9934 13.8553 15.9958C13.2433 16.0006 12.6337 15.9982 12.0265 15.9982ZM12.6553 3.36217C12.6553 2.93017 12.6601 2.56777 12.6529 2.20537C12.6433 1.67977 12.3769 1.32697 11.9857 1.37497C11.5225 1.43257 11.3497 1.75177 11.3521 2.19337C11.3545 2.57017 11.3521 2.94697 11.3521 3.36457C10.9777 3.36457 10.6993 3.33097 10.4329 3.37897C10.2889 3.40537 10.1713 3.57097 10.0417 3.67417C10.1689 3.78217 10.2937 3.97897 10.4233 3.98137C11.4721 4.00777 12.5209 4.00777 13.5673 3.98137C13.6993 3.97897 13.8289 3.78697 13.9609 3.68377C13.8169 3.57577 13.6873 3.40777 13.5289 3.37657C13.2721 3.32377 12.9937 3.36217 12.6553 3.36217Z" fill="currentColor"/>
<path d="M9.34323 11.9495C9.46083 9.65265 9.06963 7.37745 9.81603 5.16225C9.93843 4.79745 10.116 4.67745 10.4928 4.68705C11.508 4.71105 12.5232 4.71105 13.5384 4.68705C13.9224 4.67745 14.1288 4.80945 14.1984 5.17905C14.3448 5.93745 14.5848 6.69105 14.6232 7.45425C14.6952 8.85345 14.6496 10.2599 14.652 11.6615C14.652 11.7479 14.628 11.8367 14.6088 11.9519C12.8736 11.9495 11.1648 11.9495 9.34323 11.9495Z" fill="currentColor"/>
<path d="M14.7024 14.6399C14.664 14.8967 14.6376 15.0743 14.6088 15.2759C12.876 15.2759 11.1696 15.2759 9.42001 15.2759C9.38401 15.0911 9.34561 14.9015 9.29281 14.6399C8.99281 14.6399 8.68321 14.6543 8.37601 14.6375C7.76881 14.6039 7.33681 14.1599 7.36321 13.6151C7.38721 13.0895 7.81201 12.6839 8.40241 12.6815C10.7976 12.6719 13.1952 12.6719 15.5904 12.6815C16.1808 12.6839 16.6152 13.0895 16.6368 13.6079C16.6608 14.1551 16.2336 14.5991 15.6264 14.6375C15.336 14.6543 15.0432 14.6399 14.7024 14.6399Z" fill="currentColor"/>
<path d="M13.9129 19.3366C13.5169 19.3366 13.1257 19.3366 12.6985 19.3366C12.5689 19.8238 12.8593 20.611 12.0169 20.6158C11.1817 20.6206 11.4073 19.8622 11.3137 19.291C10.9129 19.291 10.5313 19.2982 10.1497 19.2886C9.7057 19.279 9.3649 19.0822 9.3817 18.6094C9.3961 18.1702 9.7129 17.9902 10.1449 17.9902C11.6233 17.995 13.0993 17.9926 14.5777 17.9926C14.9905 17.9926 15.2449 18.1846 15.3073 18.595C15.5689 20.3518 14.3929 22.1302 12.6793 22.5718C12.5041 22.6174 12.3145 22.6198 12.1297 22.627C11.6881 22.6486 11.3977 22.4206 11.3689 22.0006C11.3401 21.559 11.6425 21.3574 12.0721 21.3166C13.2481 21.2038 13.8337 20.5822 13.9129 19.3366Z" fill="currentColor"/>
<path d="M12.0265 15.9981C12.6361 15.9981 13.2433 16.0005 13.8529 15.9981C14.3041 15.9957 14.6377 16.1781 14.6353 16.6533C14.6353 17.1333 14.2873 17.3037 13.8433 17.3037C12.6073 17.3037 11.3713 17.3037 10.1353 17.3037C9.70812 17.3037 9.38652 17.1165 9.37692 16.6773C9.36732 16.2093 9.68652 16.0029 10.1425 16.0029C10.7689 16.0029 11.3977 16.0029 12.0241 16.0029C12.0265 16.0005 12.0265 16.0005 12.0265 15.9981Z" fill="currentColor"/>
<path d="M12.6551 3.36217C12.9935 3.36217 13.2719 3.32377 13.5311 3.37657C13.6895 3.40777 13.8191 3.57817 13.9631 3.68377C13.8335 3.78697 13.7039 3.97897 13.5695 3.98137C12.5207 4.00537 11.4719 4.00537 10.4255 3.98137C10.2959 3.97897 10.1711 3.78217 10.0439 3.67417C10.1735 3.57097 10.2911 3.40537 10.4351 3.37897C10.7015 3.33097 10.9799 3.36457 11.3543 3.36457C11.3543 2.94937 11.3567 2.57257 11.3543 2.19337C11.3519 1.75417 11.5247 1.43257 11.9879 1.37497C12.3791 1.32697 12.6479 1.67977 12.6551 2.20297C12.6599 2.56777 12.6551 2.93017 12.6551 3.36217Z" fill="currentColor"/>
</svg>
