<svg width="24" height="24" viewBox="0 0 24 24" fill="currentColor" xmlns="http://www.w3.org/2000/svg">
<path d="M22.0105 9.91699C22.0033 10.1618 21.8017 10.361 21.5545 10.361C21.3073 10.361 21.1057 10.1642 21.0985 9.91699H12.4585C12.4513 10.1618 12.2496 10.361 12.0024 10.361C11.7552 10.361 11.5536 10.1642 11.5464 9.91699H2.90645C2.89925 10.1618 2.69765 10.361 2.45045 10.361C2.20325 10.361 2.00165 10.1642 1.99445 9.91699H1.24805V14.0834H22.7521V9.91699H22.0105ZM3.45605 13.529H2.33525C2.14805 13.529 1.99445 13.3778 1.99445 13.1882C1.99445 13.001 2.14565 12.8474 2.33525 12.8474H3.45605C3.64325 12.8474 3.79685 12.9986 3.79685 13.1882C3.79445 13.3778 3.64325 13.529 3.45605 13.529ZM9.52805 13.529H8.40725C8.22005 13.529 8.06645 13.3778 8.06645 13.1882C8.06645 13.001 8.21765 12.8474 8.40725 12.8474H9.52805C9.71525 12.8474 9.86885 12.9986 9.86885 13.1882C9.86885 13.3778 9.71525 13.529 9.52805 13.529ZM15.6001 13.529H14.4793C14.2921 13.529 14.1385 13.3778 14.1385 13.1882C14.1385 13.001 14.2897 12.8474 14.4793 12.8474H15.6001C15.7873 12.8474 15.9409 12.9986 15.9409 13.1882C15.9409 13.3778 15.7873 13.529 15.6001 13.529ZM21.6721 13.529H20.5513C20.3641 13.529 20.2105 13.3778 20.2105 13.1882C20.2105 13.001 20.3617 12.8474 20.5513 12.8474H21.6721C21.8593 12.8474 22.0129 12.9986 22.0129 13.1882C22.0129 13.3778 21.8593 13.529 21.6721 13.529Z" fill="currentColor"/>
</svg>
