<svg width="24" height="24" viewBox="0 0 24 24" fill="currentColor" xmlns="http://www.w3.org/2000/svg">
<path d="M11.9999 1.84082C6.3239 1.84082 1.7063 6.39842 1.7063 12C1.7063 17.6016 6.3239 22.1592 11.9999 22.1592C17.6759 22.1592 22.2935 17.6016 22.2935 12C22.2935 6.39842 17.6759 1.84082 11.9999 1.84082ZM9.7199 19.3296C9.5231 19.3968 9.3215 19.4304 9.1175 19.4304C7.0967 19.4304 4.7039 16.3632 3.9503 14.4096C3.4319 13.0608 3.8303 12.6576 4.1135 12.5376C4.2551 12.4776 4.6823 12.4536 5.0183 12.4416C8.4335 12.7848 9.9767 15.864 10.1615 17.2176C10.2911 18.1896 10.3295 19.1184 9.7199 19.3296ZM10.1399 9.90722C10.6319 9.41522 11.3471 9.16802 12.0599 9.16802C12.7727 9.16802 13.4855 9.41522 13.9799 9.90722C14.4935 10.4208 14.7743 11.1024 14.7743 11.8272C14.7743 12.552 14.4911 13.2336 13.9799 13.7472C13.4687 14.2608 12.7871 14.5416 12.0599 14.5416C11.3351 14.5416 10.6535 14.2584 10.1399 13.7472C9.6263 13.2336 9.3455 12.5544 9.3455 11.8272C9.3455 11.1024 9.6287 10.4208 10.1399 9.90722ZM19.9175 14.4096C19.1639 16.3632 16.7711 19.4304 14.7503 19.4304C14.5439 19.4304 14.3423 19.3992 14.1479 19.3296C13.5359 19.1184 13.5743 18.1896 13.7087 17.2176C13.8935 15.8664 15.4367 12.7872 18.8207 12.444C19.1855 12.4536 19.6151 12.48 19.7567 12.5376C20.0399 12.6576 20.4383 13.0608 19.9175 14.4096ZM19.3463 10.884C18.9023 11.0424 18.4943 11.0256 18.2543 10.8384C17.3447 10.1304 15.7799 9.92882 14.7983 9.85682C14.6927 9.71042 14.5775 9.56882 14.4455 9.43682C13.1951 8.18642 10.9199 8.18642 9.6719 9.43682C9.5423 9.56642 9.4271 9.70562 9.3239 9.85202C8.3471 9.91922 6.7319 10.1136 5.8007 10.8384C5.6711 10.9392 5.4887 10.992 5.2799 10.992C5.1047 10.992 4.9103 10.956 4.7087 10.884C4.3607 10.7592 3.9623 10.5024 3.8831 10.1568C3.8543 10.0488 3.8495 9.92642 3.8519 9.84482C3.8471 9.70802 4.4759 7.95122 5.9567 6.42722C7.5479 4.79042 9.5375 3.96242 11.8679 3.96242C14.2583 3.96242 16.4183 4.88162 18.1103 6.61922C19.5215 8.06882 20.2079 9.67922 20.2031 9.85682C20.2055 9.92642 20.2007 10.0488 20.1719 10.164C20.0951 10.5048 19.6943 10.7592 19.3463 10.884Z" fill="currentColor"/>
</svg>
