<svg width="24" height="24" viewBox="0 0 24 24" fill="currentColor" xmlns="http://www.w3.org/2000/svg">
<path d="M21.5855 3.59521C21.5783 3.83041 21.3863 4.02001 21.1487 4.02001C20.9111 4.02001 20.7191 3.83041 20.7119 3.59521H12.4367C12.4295 3.83041 12.2375 4.02001 11.9999 4.02001C11.7623 4.02001 11.5703 3.83041 11.5631 3.59521H3.2903C3.2831 3.83041 3.0911 4.02001 2.8535 4.02001C2.6159 4.02001 2.4239 3.83041 2.4167 3.59521H1.7063V7.58401H22.2959V3.59521H21.5855ZM3.8183 7.05361H2.7455C2.5655 7.05361 2.4191 6.90721 2.4191 6.72721C2.4191 6.54721 2.5655 6.40081 2.7455 6.40081H3.8183C3.9983 6.40081 4.1447 6.54721 4.1447 6.72721C4.1447 6.90721 3.9983 7.05361 3.8183 7.05361ZM9.6335 7.05361H8.5607C8.3807 7.05361 8.2343 6.90721 8.2343 6.72721C8.2343 6.54721 8.3807 6.40081 8.5607 6.40081H9.6335C9.8135 6.40081 9.9599 6.54721 9.9599 6.72721C9.9575 6.90721 9.8135 7.05361 9.6335 7.05361ZM15.4463 7.05361H14.3735C14.1935 7.05361 14.0471 6.90721 14.0471 6.72721C14.0471 6.54721 14.1935 6.40081 14.3735 6.40081H15.4463C15.6263 6.40081 15.7727 6.54721 15.7727 6.72721C15.7727 6.90721 15.6263 7.05361 15.4463 7.05361ZM21.2615 7.05361H20.1887C20.0087 7.05361 19.8623 6.90721 19.8623 6.72721C19.8623 6.54721 20.0087 6.40081 20.1887 6.40081H21.2615C21.4415 6.40081 21.5879 6.54721 21.5879 6.72721C21.5855 6.90721 21.4391 7.05361 21.2615 7.05361Z" fill="currentColor"/>
<path d="M21.2448 20.4023C20.2968 18.1751 19.788 16.9127 19.0944 15.0407C19.5336 15.0311 19.8912 15.0215 20.2128 15.0143C20.2056 13.7735 20.1984 12.5711 20.1888 11.4047C14.7624 11.4023 9.27359 11.4023 3.72719 11.3999C3.73439 12.3839 3.74639 13.3919 3.75119 14.3999C3.75599 15.0215 3.75358 15.0215 4.35359 15.0239C4.53839 15.0263 4.72319 15.0359 4.96799 15.0455C4.00559 17.0543 3.32639 18.5111 2.40479 20.4023C7.91519 20.4047 15.7512 20.4023 21.2448 20.4023ZM17.148 19.2863C17.004 19.2719 16.8144 19.0799 16.7568 18.9263C16.4856 18.1967 16.2528 17.4551 16.0056 16.7159C15.96 16.7207 15.9144 16.7255 15.8712 16.7303C15.9072 17.5703 15.9408 18.4127 15.9768 19.2311C15.1176 19.2287 14.4 19.2263 13.6152 19.2263C13.536 18.6911 13.4496 18.1079 13.3632 17.5223C13.3176 17.5127 13.2744 17.5007 13.2288 17.4911C13.0992 17.8775 12.9888 18.2687 12.8352 18.6431C12.7416 18.8711 12.5832 19.0703 12.4536 19.2839C12.36 19.0631 12.2376 18.8471 12.1752 18.6167C12 17.9831 11.8488 17.3399 11.688 16.7015C11.6472 16.6991 11.604 16.6991 11.5632 16.6967C11.4936 17.1647 11.4192 17.6303 11.352 18.0983C11.1816 19.3007 11.1816 19.2983 9.95759 19.3031C9.39119 19.3055 8.82479 19.3247 8.17439 19.3367C8.21279 18.4679 8.24879 17.6591 8.28479 16.8503C8.21039 16.8431 8.13359 16.8359 8.05919 16.8311C7.90079 17.4599 7.71839 18.0815 7.59599 18.7151C7.50959 19.1639 7.31519 19.3415 6.84239 19.3127C6.34559 19.2839 4.79039 19.3583 4.20479 19.3919C4.66559 18.5087 4.86479 17.9903 5.10239 17.4647C5.58719 16.3967 5.75759 16.2023 6.12239 15.4127C6.25679 15.1223 6.32879 15.0119 6.63359 15.0119C10.2456 15.0215 13.8576 15.0167 17.4696 15.0287C17.6112 15.0287 17.8392 15.1319 17.8776 15.2207C18.408 16.4927 18.8208 17.6087 19.596 19.3295C18.972 19.3223 17.6616 19.3391 17.148 19.2863ZM5.05919 12.6743C9.69599 12.6791 14.3448 12.6815 19.0632 12.6863C19.0584 13.0055 19.0512 13.3631 19.0464 13.6727C14.376 13.6703 9.71519 13.6679 4.99679 13.6679C5.01359 13.3775 5.03759 13.0055 5.05919 12.6743Z" fill="currentColor"/>
</svg>
