<svg width="24" height="24" viewBox="0 0 24 24" fill="currentColor" xmlns="http://www.w3.org/2000/svg">
<path d="M8.97835 2.33057H2.16235V16.8914H8.97835V2.33057Z" fill="currentColor"/>
<path d="M4.27912 21.4945C3.20872 21.4945 2.33752 20.6233 2.33752 19.5529C2.33752 18.4825 3.20872 17.6113 4.27912 17.6113C5.34952 17.6113 6.22073 18.4825 6.22073 19.5529C6.22073 20.6233 5.35192 21.4945 4.27912 21.4945ZM4.27912 18.0025C3.42472 18.0025 2.72872 18.6985 2.72872 19.5529C2.72872 20.4073 3.42472 21.1033 4.27912 21.1033C5.13352 21.1033 5.82953 20.4073 5.82953 19.5529C5.82953 18.6985 5.13352 18.0025 4.27912 18.0025Z" fill="currentColor"/>
<path d="M4.27915 17.784C5.25355 17.784 6.04795 18.576 6.04795 19.5528C6.04795 20.5272 5.25595 21.3216 4.27915 21.3216C3.30475 21.3216 2.51035 20.5296 2.51035 19.5528C2.51275 18.5784 3.30475 17.784 4.27915 17.784ZM4.27915 21.276C5.22955 21.276 6.00475 20.5032 6.00475 19.5528C6.00475 18.6024 5.23195 17.8296 4.27915 17.8296C3.32875 17.8296 2.55595 18.6024 2.55595 19.5528C2.55595 20.5032 3.32875 21.276 4.27915 21.276ZM4.27915 17.436C3.11035 17.436 2.16235 18.384 2.16235 19.5528C2.16235 20.7216 3.11035 21.6696 4.27915 21.6696C5.44795 21.6696 6.39595 20.7216 6.39595 19.5528C6.39595 18.384 5.44795 17.436 4.27915 17.436ZM4.27915 20.928C3.52075 20.928 2.90395 20.3112 2.90395 19.5528C2.90395 18.7944 3.52075 18.1776 4.27915 18.1776C5.03755 18.1776 5.65435 18.7944 5.65435 19.5528C5.65435 20.3112 5.03755 20.928 4.27915 20.928Z" fill="currentColor"/>
<path d="M4.27919 20.3306C3.85199 20.3306 3.50159 19.9826 3.50159 19.553C3.50159 19.1234 3.84959 18.7754 4.27919 18.7754C4.70879 18.7754 5.05679 19.1234 5.05679 19.553C5.05679 19.9802 4.70879 20.3306 4.27919 20.3306Z" fill="currentColor"/>
<path d="M4.27913 18.9505C4.61033 18.9505 4.88153 19.2217 4.88153 19.5529C4.88153 19.8841 4.61033 20.1553 4.27913 20.1553C3.94794 20.1553 3.67674 19.8841 3.67674 19.5529C3.67674 19.2217 3.94794 18.9505 4.27913 18.9505ZM4.27913 18.6001C3.75354 18.6001 3.32874 19.0249 3.32874 19.5505C3.32874 20.0761 3.75354 20.5009 4.27913 20.5009C4.80473 20.5009 5.22953 20.0761 5.22953 19.5505C5.22953 19.0249 4.80473 18.6001 4.27913 18.6001Z" fill="currentColor"/>
<path d="M8.41675 17.4072H5.96155V17.424C6.53515 17.784 6.92395 18.4104 6.95275 19.1304H8.41915V17.4072H8.41675Z" fill="currentColor"/>
<path fill-rule="evenodd" clip-rule="evenodd" d="M21.8376 16.4379L17.8968 16.8219H10.704V16.2939H21.8376V16.4379Z" fill="currentColor"/>
<path d="M10.3944 17.1147L8.90637 17.7603V18.6243L10.7088 17.8371L10.3944 17.1147ZM10.1592 17.8179C10.056 17.8179 9.96957 17.7339 9.96957 17.6283C9.96957 17.5227 10.0536 17.4387 10.1592 17.4387C10.2624 17.4387 10.3488 17.5227 10.3488 17.6283C10.3488 17.7339 10.2648 17.8179 10.1592 17.8179Z" fill="currentColor"/>
<path fill-rule="evenodd" clip-rule="evenodd" d="M16.3559 17.2465L10.8983 17.4385L10.7303 17.0977H16.3559V17.2465Z" fill="currentColor"/>
</svg>
