<svg width="24" height="24" viewBox="0 0 24 24" fill="currentColor" xmlns="http://www.w3.org/2000/svg">
<path d="M6.9648 21.9428C4.0296 21.9428 1.6416 19.5548 1.6416 16.6196C1.6416 13.6844 4.0296 11.2964 6.9648 11.2964C9.9 11.2964 12.288 13.6844 12.288 16.6196C12.288 19.5548 9.9 21.9428 6.9648 21.9428ZM6.9648 12.5372C4.7112 12.5372 2.88 14.3684 2.88 16.6196C2.88 18.8708 4.7112 20.702 6.9624 20.702C9.2136 20.702 11.0448 18.8708 11.0448 16.6196C11.0448 14.3684 9.216 12.5372 6.9648 12.5372Z" fill="currentColor"/>
<path d="M6.96479 13.3149C5.13839 13.3149 3.65759 14.7957 3.65759 16.6221C3.65759 18.4485 5.13839 19.9293 6.96479 19.9293C8.79119 19.9293 10.272 18.4485 10.272 16.6221C10.2696 14.7933 8.78879 13.3149 6.96479 13.3149ZM8.28479 14.8053C8.42159 14.6685 8.64239 14.6685 8.77919 14.8053C8.91599 14.9421 8.91599 15.1629 8.77919 15.2997C8.64239 15.4365 8.42159 15.4365 8.28479 15.2997C8.14799 15.1629 8.14799 14.9421 8.28479 14.8053ZM6.96479 14.0541C7.15679 14.0541 7.31519 14.2101 7.31519 14.4045C7.31519 14.5965 7.15919 14.7549 6.96479 14.7549C6.77279 14.7549 6.61439 14.5989 6.61439 14.4045C6.61439 14.2101 6.77039 14.0541 6.96479 14.0541ZM4.74719 16.9701C4.55519 16.9701 4.39679 16.8141 4.39679 16.6197C4.39679 16.4277 4.55279 16.2693 4.74719 16.2693C4.93919 16.2693 5.09759 16.4253 5.09759 16.6197C5.09519 16.8141 4.93919 16.9701 4.74719 16.9701ZM5.64239 18.4341C5.50559 18.5709 5.28479 18.5709 5.14799 18.4341C5.01119 18.2973 5.01119 18.0765 5.14799 17.9397C5.28479 17.8029 5.50559 17.8029 5.64239 17.9397C5.77919 18.0765 5.77919 18.2997 5.64239 18.4341ZM5.64239 15.2997C5.50559 15.4365 5.28479 15.4365 5.14799 15.2997C5.01119 15.1629 5.01119 14.9421 5.14799 14.8053C5.28479 14.6685 5.50559 14.6685 5.64239 14.8053C5.77919 14.9421 5.77919 15.1629 5.64239 15.2997ZM6.96479 19.1877C6.77279 19.1877 6.61439 19.0317 6.61439 18.8373C6.61439 18.6453 6.77039 18.4869 6.96479 18.4869C7.15679 18.4869 7.31519 18.6429 7.31519 18.8373C7.31279 19.0293 7.15679 19.1877 6.96479 19.1877ZM6.99839 17.7789C6.35759 17.7789 5.83919 17.2605 5.83919 16.6197C5.83919 15.9789 6.35759 15.4605 6.99839 15.4605C7.63919 15.4605 8.15759 15.9789 8.15759 16.6197C8.15759 17.2605 7.63679 17.7789 6.99839 17.7789ZM8.77919 18.4341C8.64239 18.5709 8.42159 18.5709 8.28479 18.4341C8.14799 18.2973 8.14799 18.0765 8.28479 17.9397C8.42159 17.8029 8.64239 17.8029 8.77919 17.9397C8.91599 18.0765 8.91599 18.2997 8.77919 18.4341ZM9.17999 16.9701C8.98799 16.9701 8.82959 16.8141 8.82959 16.6197C8.82959 16.4277 8.98559 16.2693 9.17999 16.2693C9.37199 16.2693 9.53039 16.4253 9.53039 16.6197C9.53039 16.8141 9.37439 16.9701 9.17999 16.9701Z" fill="currentColor"/>
<path d="M15.8496 3.2998C14.6976 3.2998 13.7616 4.2334 13.7616 5.3878C13.7616 6.5398 14.6952 7.4758 15.8496 7.4758C17.0016 7.4758 17.9376 6.5422 17.9376 5.3878C17.9376 4.2358 17.0016 3.2998 15.8496 3.2998ZM15.8496 6.1534C15.4272 6.1534 15.084 5.8102 15.084 5.3878C15.084 4.9654 15.4272 4.6222 15.8496 4.6222C16.272 4.6222 16.6152 4.9654 16.6152 5.3878C16.6152 5.8102 16.272 6.1534 15.8496 6.1534Z" fill="currentColor"/>
<path d="M15.8496 8.7214C14.0112 8.7214 12.516 7.2262 12.516 5.3878C12.516 3.5494 14.0112 2.0542 15.8496 2.0542C17.688 2.0542 19.1832 3.5494 19.1832 5.3878C19.1808 7.2262 17.6856 8.7214 15.8496 8.7214ZM15.8496 2.8318C14.4384 2.8318 13.2912 3.979 13.2912 5.3902C13.2912 6.8014 14.4384 7.9486 15.8496 7.9486C17.2608 7.9486 18.408 6.8014 18.408 5.3902C18.408 3.979 17.2584 2.8318 15.8496 2.8318Z" fill="currentColor"/>
<path d="M20.0735 15.1582C19.2839 15.1582 18.6407 15.799 18.6407 16.591C18.6407 17.3806 19.2815 18.0238 20.0735 18.0238C20.8631 18.0238 21.5063 17.383 21.5063 16.591C21.5063 15.799 20.8655 15.1582 20.0735 15.1582ZM20.0735 17.1142C19.7831 17.1142 19.5479 16.879 19.5479 16.5886C19.5479 16.2982 19.7831 16.063 20.0735 16.063C20.3639 16.063 20.5991 16.2982 20.5991 16.5886C20.5991 16.879 20.3639 17.1142 20.0735 17.1142Z" fill="currentColor"/>
<path d="M20.0736 18.8757C18.8136 18.8757 17.7864 17.8509 17.7864 16.5885C17.7864 15.3285 18.8112 14.3013 20.0736 14.3013C21.3336 14.3013 22.3608 15.3261 22.3608 16.5885C22.3608 17.8509 21.3336 18.8757 20.0736 18.8757ZM20.0736 14.8365C19.1064 14.8365 18.3192 15.6237 18.3192 16.5909C18.3192 17.5581 19.1064 18.3453 20.0736 18.3453C21.0408 18.3453 21.828 17.5581 21.828 16.5909C21.828 15.6237 21.0408 14.8365 20.0736 14.8365Z" fill="currentColor"/>
<path d="M7.61517 11.0087C8.11197 10.5263 10.98 7.74954 12.3456 6.44394C12.324 6.32154 12.3048 6.20634 12.2904 6.09594C12.2496 5.87754 12.2256 5.65434 12.2256 5.42394C12.2256 5.25594 12.24 5.09514 12.2616 4.93194C12.2712 4.85514 12.2808 4.78554 12.2952 4.71834C12.3 4.69194 12.3072 4.66554 12.312 4.63674C12.3264 4.57434 12.3408 4.51674 12.3552 4.46634C12.384 4.36074 12.4152 4.25994 12.4536 4.15674L4.82397 11.4239C5.50077 11.1383 6.24477 10.9799 7.02477 10.9799C7.22397 10.9775 7.42077 10.9895 7.61517 11.0087Z" fill="currentColor"/>
<path d="M20.1072 13.987C20.1168 13.987 20.1264 13.9846 20.136 13.9846C20.784 13.9846 21.3768 14.2198 21.8376 14.6086C21.4728 13.3006 20.1192 8.45016 19.524 6.15576C19.3776 6.87336 19.0224 7.51656 18.5232 8.01816C18.672 8.55336 19.6152 11.9446 20.1072 13.987Z" fill="currentColor"/>
<path d="M17.9112 18.0356L11.9688 19.4396C11.7792 19.7756 11.556 20.0876 11.304 20.3756C11.2536 20.4332 11.2032 20.4884 11.1528 20.5412C10.9512 20.7548 10.7352 20.954 10.5024 21.134C11.5296 20.8964 15.8568 19.9028 19.3152 19.1324C18.7296 18.9404 18.2352 18.5468 17.9112 18.0356Z" fill="currentColor"/>
</svg>
