<svg width="24" height="24" viewBox="0 0 24 24" fill="currentColor" xmlns="http://www.w3.org/2000/svg">
<path d="M9.78968 6.45117C5.43368 6.45117 1.90088 9.98397 1.90088 14.34C1.90088 18.696 5.43368 22.2288 9.78968 22.2288C14.1457 22.2288 17.6785 18.696 17.6785 14.34C17.6785 9.98157 14.1457 6.45117 9.78968 6.45117ZM17.0761 13.8432L15.3745 13.992L15.3505 13.7088L17.0521 13.56L17.0761 13.8432ZM17.0041 13.212L15.3217 13.5096L15.2713 13.2288L16.9537 12.9312L17.0041 13.212ZM16.8793 12.5856L15.2305 13.0272L15.1561 12.7512L16.8049 12.3096L16.8793 12.5856ZM16.6993 11.976L15.0937 12.5592L14.9953 12.2928L16.6009 11.7096L16.6993 11.976ZM16.4665 11.3832L14.9185 12.1056L14.7985 11.8488L16.3465 11.1264L16.4665 11.3832ZM14.8921 14.3376C14.8921 17.1552 12.6073 19.44 9.78968 19.44C6.97208 19.44 4.68728 17.1552 4.68728 14.3376C4.68728 11.52 6.97208 9.23517 9.78968 9.23517C12.6073 9.23517 14.8921 11.52 14.8921 14.3376ZM16.1833 10.812L14.7049 11.6664L14.5633 11.4192L16.0417 10.5648L16.1833 10.812ZM15.8521 10.2672L14.4529 11.2464L14.2897 11.0136L15.6889 10.0344L15.8521 10.2672ZM15.4753 9.75357L14.1673 10.8504L13.9849 10.632L15.2929 9.53517L15.4753 9.75357ZM15.0529 9.27597L13.8457 10.4832L13.6441 10.2816L14.8513 9.07437L15.0529 9.27597ZM14.5921 8.83677L13.4953 10.1448L13.2769 9.96237L14.3737 8.65437L14.5921 8.83677ZM14.0929 8.44077L13.1137 9.83997L12.8809 9.67677L13.8601 8.27757L14.0929 8.44077ZM13.5625 8.08797L12.7081 9.56637L12.4609 9.42477L13.3153 7.94637L13.5625 8.08797ZM13.0033 7.78077L12.2809 9.32877L12.0241 9.20877L12.7465 7.66077L13.0033 7.78077ZM12.4201 7.52637L11.8369 9.13197L11.5705 9.03357L12.1537 7.42797L12.4201 7.52637ZM11.8177 7.32237L11.3761 8.97117L11.1001 8.89677L11.5417 7.24797L11.8177 7.32237ZM10.9177 7.12317L11.1985 7.17357L10.9009 8.85597L10.6201 8.80557L10.9177 7.12317ZM10.2841 7.05357L10.5673 7.07757L10.4185 8.77917L10.1353 8.75517L10.2841 7.05357ZM9.64808 7.03677H9.93368V8.74557H9.64808V7.03677ZM9.29528 7.05357L9.44408 8.75517L9.16088 8.77917L9.01208 7.07757L9.29528 7.05357ZM8.66168 7.12317L8.95928 8.80557L8.67848 8.85597L8.38088 7.17357L8.66168 7.12317ZM8.03768 7.25037L8.47928 8.89917L8.20328 8.97357L7.76168 7.32477L8.03768 7.25037ZM7.42568 7.43037L8.00888 9.03597L7.74248 9.13437L7.15928 7.52877L7.42568 7.43037ZM6.83288 7.66077L7.55528 9.20877L7.29848 9.32877L6.57608 7.78077L6.83288 7.66077ZM6.26168 7.94397L7.11608 9.42237L6.86888 9.56397L6.01448 8.08557L6.26168 7.94397ZM5.71928 8.27517L6.69848 9.67437L6.46568 9.83757L5.48648 8.43837L5.71928 8.27517ZM5.20568 8.65437L6.30248 9.96237L6.08408 10.1448L4.98728 8.83677L5.20568 8.65437ZM4.72808 9.07437L5.93528 10.2816L5.73368 10.4832L4.52648 9.27597L4.72808 9.07437ZM4.28888 9.53757L5.59688 10.6344L5.41448 10.8528L4.10648 9.75597L4.28888 9.53757ZM3.89048 10.0344L5.28968 11.0136L5.12648 11.2464L3.72728 10.2672L3.89048 10.0344ZM3.53768 10.5648L5.01608 11.4192L4.87448 11.6664L3.39608 10.812L3.53768 10.5648ZM3.23288 11.124L4.78088 11.8464L4.66088 12.1032L3.11288 11.3808L3.23288 11.124ZM2.97848 11.7072L4.58408 12.2904L4.48568 12.5568L2.88008 11.976L2.97848 11.7072ZM2.77448 12.312L4.42328 12.7536L4.34888 13.0296L2.70008 12.588L2.77448 12.312ZM2.62568 12.9312L4.30808 13.2288L4.25768 13.5096L2.57528 13.212L2.62568 12.9312ZM2.52968 13.56L4.23128 13.7088L4.20728 13.992L2.50568 13.8432L2.52968 13.56ZM2.48888 14.196H4.19768V14.4816H2.48888V14.196ZM2.50328 14.832L4.20488 14.6832L4.22888 14.9664L2.52728 15.1152L2.50328 14.832ZM2.57528 15.4656L4.25768 15.168L4.30808 15.4488L2.62568 15.7464L2.57528 15.4656ZM2.70008 16.0896L4.34888 15.648L4.42328 15.924L2.77448 16.3656L2.70008 16.0896ZM2.88008 16.7016L4.48568 16.1184L4.58408 16.3848L2.97848 16.968L2.88008 16.7016ZM3.11288 17.2944L4.66088 16.572L4.78088 16.8288L3.23288 17.5512L3.11288 17.2944ZM3.39608 17.8656L4.87448 17.0112L5.01608 17.2584L3.53768 18.1128L3.39608 17.8656ZM3.72728 18.4104L5.12648 17.4312L5.28968 17.664L3.89048 18.6432L3.72728 18.4104ZM4.10648 18.9216L5.41448 17.8248L5.59688 18.0432L4.28888 19.14L4.10648 18.9216ZM4.52648 19.4016L5.73368 18.1944L5.93528 18.396L4.72808 19.6032L4.52648 19.4016ZM4.98728 19.8408L6.08408 18.5328L6.30248 18.7152L5.20568 20.0232L4.98728 19.8408ZM5.48648 20.2368L6.46568 18.8376L6.69848 19.0008L5.71928 20.4L5.48648 20.2368ZM6.01688 20.5896L6.87128 19.1112L7.11848 19.2528L6.26408 20.7312L6.01688 20.5896ZM6.57608 20.8944L7.29848 19.3464L7.55528 19.4664L6.83288 21.0144L6.57608 20.8944ZM7.15928 21.1512L7.74248 19.5456L8.00888 19.644L7.42568 21.2496L7.15928 21.1512ZM7.76168 21.3528L8.20328 19.704L8.47928 19.7784L8.03768 21.4272L7.76168 21.3528ZM8.66168 21.5544L8.38088 21.504L8.67848 19.8216L8.95928 19.872L8.66168 21.5544ZM9.29528 21.624L9.01208 21.6L9.16088 19.8984L9.44408 19.9224L9.29528 21.624ZM9.93128 21.6384H9.64808V19.9296H9.93368V21.6384H9.93128ZM10.2841 21.624L10.1353 19.9224L10.4185 19.8984L10.5673 21.6L10.2841 21.624ZM10.9177 21.5544L10.6201 19.872L10.9009 19.8216L11.1985 21.504L10.9177 21.5544ZM11.5417 21.4272L11.1001 19.7784L11.3761 19.704L11.8177 21.3528L11.5417 21.4272ZM12.1537 21.2472L11.5705 19.6416L11.8369 19.5432L12.4201 21.1488L12.1537 21.2472ZM12.7465 21.0144L12.0241 19.4664L12.2809 19.3464L13.0033 20.8944L12.7465 21.0144ZM13.3177 20.7336L12.4633 19.2552L12.7105 19.1136L13.5649 20.592L13.3177 20.7336ZM13.8601 20.4L12.8809 19.0008L13.1137 18.8376L14.0929 20.2368L13.8601 20.4ZM14.3737 20.0232L13.2769 18.7152L13.4953 18.5328L14.5921 19.8408L14.3737 20.0232ZM14.8513 19.6008L13.6441 18.3936L13.8457 18.192L15.0529 19.3992L14.8513 19.6008ZM15.2905 19.14L13.9825 18.0432L14.1649 17.8248L15.4729 18.9216L15.2905 19.14ZM15.6889 18.6432L14.2897 17.664L14.4529 17.4312L15.8521 18.4104L15.6889 18.6432ZM16.0417 18.1128L14.5633 17.2584L14.7049 17.0112L16.1833 17.8656L16.0417 18.1128ZM16.3465 17.5536L14.7985 16.8312L14.9185 16.5744L16.4665 17.2968L16.3465 17.5536ZM16.6009 16.9704L14.9953 16.3872L15.0937 16.1208L16.6993 16.704L16.6009 16.9704ZM16.8049 16.3656L15.1561 15.924L15.2305 15.648L16.8793 16.0896L16.8049 16.3656ZM16.9561 15.7464L15.2737 15.4488L15.3241 15.168L17.0065 15.4656L16.9561 15.7464ZM17.0497 15.1176L15.3481 14.9688L15.3721 14.6856L17.0737 14.8344L17.0497 15.1176ZM15.3841 14.4816V14.196H17.0929V14.4816H15.3841Z" fill="currentColor"/>
<path d="M12.4081 2.28698C12.8257 2.16458 13.3009 1.96298 13.7281 1.86698C14.6089 1.67018 14.7121 1.73498 15.0265 2.56058C15.0769 2.69258 15.0985 2.83178 15.1393 2.98778C15.7081 3.09098 16.2409 3.18938 16.7089 3.27338C17.1769 3.11738 17.1697 2.63498 17.6521 2.38058C18.4897 2.28698 19.0849 2.92058 19.6489 3.43178C19.7809 4.01498 19.3201 4.25978 19.2553 4.76378C19.5385 5.16698 19.8697 5.63498 20.1457 6.02858C20.6209 6.23018 20.9329 5.83898 21.4393 5.98058C22.0057 6.58778 22.1761 7.38938 22.0705 8.21498C21.7441 8.65658 21.2545 8.54138 20.8705 8.90858C20.7961 9.31658 20.7001 9.84698 20.6089 10.3558C20.7721 10.831 21.3913 10.807 21.5329 11.2726C21.3457 12.3142 21.1657 12.6142 20.2825 13.3342C19.8601 13.3606 19.6033 12.919 19.0753 12.9238C18.7105 13.183 18.2689 13.495 17.8153 13.8142C17.7385 14.2606 18.1201 14.6782 17.7793 15.2086C17.6425 15.3742 17.3209 15.4702 17.0113 15.5638C15.7321 15.9574 15.5521 15.8614 15.0889 14.5534C14.5561 14.4718 14.0257 14.2054 13.4857 14.2726C13.0753 14.4742 13.0489 14.9278 12.7201 15.1126C11.7169 15.0862 11.2513 14.8246 10.5649 13.8934C10.5529 13.507 10.9177 13.2622 10.9633 12.7942C10.8073 12.307 10.3537 11.9206 10.1185 11.4982C9.64331 11.2966 9.32651 11.6758 8.88011 11.5582C8.41451 11.323 8.39531 10.7662 8.20811 10.3054C8.27291 9.91658 8.07371 9.49898 8.34731 9.10538C8.63771 8.86778 9.12491 8.96378 9.38411 8.58218C9.55211 8.07098 9.62411 7.53578 9.57611 6.98378C9.29531 6.68138 8.82971 6.59978 8.68091 6.10778C8.88251 5.33018 9.23771 4.60538 9.96251 4.17338C10.4401 4.22138 10.7017 4.64858 11.2153 4.57418C11.5777 4.31978 11.9929 4.02698 12.3673 3.76298C12.5785 3.23018 12.0169 2.53418 12.4081 2.28698ZM12.6385 5.14298C10.9585 6.31178 10.2697 8.35178 10.9129 10.2622C11.5393 12.1174 13.2913 13.2958 15.3169 13.2214C17.9785 13.1254 19.7209 11.0638 19.5025 8.26778C19.3177 5.89898 16.9777 4.03418 14.5585 4.39658C14.0521 4.47338 13.6825 4.51178 13.0633 4.80218" fill="currentColor"/>
</svg>
