<svg width="24" height="24" viewBox="0 0 24 24" fill="currentColor" xmlns="http://www.w3.org/2000/svg">
<path d="M15.288 10.2554H8.70959V19.4498H15.288V10.2554Z" fill="currentColor"/>
<path d="M8.56556 6.51123H4.64636V7.56483H8.56556V6.51123Z" fill="currentColor"/>
<path d="M11.9664 9.34571C13.6896 9.34571 15.0864 8.3131 15.0864 7.03931C15.0864 5.76552 13.6896 4.73291 11.9664 4.73291C10.2433 4.73291 8.84644 5.76552 8.84644 7.03931C8.84644 8.3131 10.2433 9.34571 11.9664 9.34571Z" fill="currentColor"/>
<path d="M3.18715 4.55029H2.54395V9.52789H3.18715V4.55029Z" fill="currentColor"/>
<path d="M2.18774 5.02539V4.74219H1.44614V5.02539H2.18774Z" fill="currentColor"/>
<path d="M2.18652 6.46191V6.17871H1.44492V6.46191H2.18652Z" fill="currentColor"/>
<path d="M2.18762 7.89795V7.61475H1.44602V7.89795H2.18762Z" fill="currentColor"/>
<path d="M2.1864 9.33447V9.05127H1.4448V9.33447H2.1864Z" fill="currentColor"/>
<path d="M3.5592 8.15514V5.93994L4.296 6.11994V7.97514L3.5592 8.15514Z" fill="currentColor"/>
<path d="M15.4343 7.56689L19.3535 7.56689V6.51329H15.4343V7.56689Z" fill="currentColor"/>
<path d="M20.8137 9.52783H21.4569V4.55023H20.8137V9.52783Z" fill="currentColor"/>
<path d="M21.8135 9.05127V9.33447H22.5551V9.05127H21.8135Z" fill="currentColor"/>
<path d="M21.8123 7.61475V7.89795H22.5539V7.61475H21.8123Z" fill="currentColor"/>
<path d="M21.8135 6.17871V6.46191H22.5551V6.17871H21.8135Z" fill="currentColor"/>
<path d="M21.8123 4.74219V5.02539H22.5539V4.74219H21.8123Z" fill="currentColor"/>
<path d="M20.4408 5.92334V8.13854L19.704 7.95854V6.10334L20.4408 5.92334Z" fill="currentColor"/>
</svg>
