<svg width="24" height="24" viewBox="0 0 24 24" fill="currentColor" xmlns="http://www.w3.org/2000/svg">
<path d="M11.7335 13.6938C11.7335 13.1946 11.7335 12.7746 11.7335 12.3114C10.5695 12.3114 9.43667 12.3114 8.26067 12.3114C8.26067 12.7506 8.26067 13.185 8.26067 13.6554C8.08307 13.6722 7.94387 13.6866 7.76147 13.7058C7.76147 12.5682 7.76147 11.4642 7.76147 10.329C7.90787 10.329 8.04707 10.329 8.24387 10.329C8.24387 10.7826 8.24387 11.229 8.24387 11.6994C9.42227 11.6994 10.5431 11.6994 11.7167 11.6994C11.7167 11.2386 11.7167 10.8066 11.7167 10.3386C11.9063 10.3218 12.0455 10.3098 12.2543 10.293C12.2543 10.7778 12.2543 11.2218 12.2543 11.697C13.4423 11.697 14.5631 11.697 15.7439 11.697C15.7439 11.2386 15.7439 10.7922 15.7439 10.317C15.9287 10.3074 16.0583 10.3026 16.2023 10.2954C16.2263 10.3674 16.2623 10.4298 16.2623 10.4922C16.2695 10.9146 16.2431 11.337 16.2743 11.757C16.3055 12.177 16.1135 12.2754 15.7391 12.2706C14.6111 12.2562 13.4807 12.2658 12.2831 12.2658C12.2831 12.7434 12.2831 13.1874 12.2831 13.6674C12.0791 13.677 11.9375 13.6842 11.7335 13.6938Z" fill="currentColor"/>
<path d="M7.99909 9.78178C7.19989 9.78898 6.53509 9.13858 6.54229 8.36098C6.54949 7.59538 7.19029 6.95218 7.95829 6.93538C8.74789 6.91858 9.39829 7.56658 9.39349 8.37058C9.38869 9.16978 8.79349 9.77218 7.99909 9.78178Z" fill="currentColor"/>
<path d="M16.0319 9.7796C15.2303 9.7844 14.6159 9.1892 14.6039 8.39961C14.5919 7.59081 15.2135 6.94281 16.0103 6.93321C16.7903 6.92361 17.4671 7.60281 17.4551 8.37801C17.4479 9.1508 16.8119 9.7772 16.0319 9.7796Z" fill="currentColor"/>
<path d="M7.95592 14.2173C8.78152 14.2101 9.39112 14.8125 9.39352 15.6357C9.39592 16.4085 8.76472 17.0565 7.99672 17.0661C7.21432 17.0757 6.53752 16.4085 6.53992 15.6285C6.54472 14.8605 7.18072 14.2245 7.95592 14.2173Z" fill="currentColor"/>
<path d="M11.9808 9.77957C11.1936 9.77237 10.5768 9.15317 10.5768 8.37077C10.5768 7.57157 11.2224 6.92597 12.0168 6.93317C12.7824 6.94037 13.4184 7.58117 13.4208 8.35637C13.4232 9.16516 12.7968 9.78677 11.9808 9.77957Z" fill="currentColor"/>
<path d="M10.5815 15.6282C10.5839 14.8194 11.2127 14.205 12.0311 14.217C12.8183 14.2266 13.4231 14.8458 13.4255 15.6378C13.4279 16.4058 12.7871 17.0562 12.0239 17.0658C11.2319 17.0754 10.5791 16.425 10.5815 15.6282Z" fill="currentColor"/>
<path d="M12 2.39264C17.2968 2.39264 21.6072 6.70304 21.6072 11.9998C21.6072 17.2966 17.2968 21.607 12 21.607C6.70316 21.607 2.39276 17.2966 2.39276 11.9998C2.39276 6.70304 6.70316 2.39264 12 2.39264ZM12 1.37744C6.13436 1.37744 1.37756 6.13424 1.37756 11.9998C1.37756 17.8654 6.13436 22.6222 12 22.6222C17.8656 22.6222 22.6224 17.8654 22.6224 11.9998C22.6224 6.13424 17.8656 1.37744 12 1.37744Z" fill="currentColor"/>
</svg>
