<svg width="24" height="24" viewBox="0 0 24 24" fill="currentColor" xmlns="http://www.w3.org/2000/svg">
<path d="M12.2688 11.3853C12.5578 11.3853 12.792 11.151 12.792 10.8621C12.792 10.5731 12.5578 10.3389 12.2688 10.3389C11.9799 10.3389 11.7456 10.5731 11.7456 10.8621C11.7456 11.151 11.9799 11.3853 12.2688 11.3853Z" fill="currentColor"/>
<path d="M9.57837 8.90137L16.38 9.01897L16.7112 9.65497L12.8448 9.31417L9.04797 9.47017L9.57837 8.90137Z" fill="currentColor"/>
<path d="M3.99122 15.0984C2.39522 15.0984 1.44482 14.136 1.44482 12.5256C1.44482 11.0832 2.48642 10.0752 3.97442 10.0752C5.59922 10.0752 12.3936 9.79439 12.4632 9.79199L20.4 10.5456C20.496 10.5624 22.4352 10.9536 22.548 12.5496C22.6056 13.368 22.4064 14.0376 21.9696 14.4888C21.5808 14.8896 21.036 15.0888 20.3808 15.06C19.4352 15.0216 11.796 15.0624 7.23362 15.0864C5.59922 15.0912 4.36802 15.0984 3.99122 15.0984ZM12.4536 10.0992C12.4056 10.1016 5.60402 10.3848 3.97442 10.3848C2.64722 10.3848 1.75442 11.2464 1.75442 12.5256C1.75442 13.9632 2.57042 14.7888 3.99122 14.7888C4.36802 14.7888 5.59922 14.7816 7.22882 14.7744C11.796 14.7504 19.4376 14.712 20.3904 14.748C20.952 14.772 21.42 14.6064 21.7464 14.2704C22.1208 13.8864 22.2888 13.2984 22.2384 12.5688C22.1424 11.208 20.3736 10.8528 20.3568 10.8504L12.4536 10.0992Z" fill="currentColor"/>
<path d="M20.388 11.436C20.0496 11.436 19.7472 11.5704 19.5192 11.784H5.40959C5.14079 11.2872 4.61519 10.9512 4.01279 10.9512C3.13679 10.9512 2.42639 11.6616 2.42639 12.5376C2.42639 13.4136 3.13679 14.124 4.01279 14.124C4.59359 14.124 5.09999 13.812 5.37599 13.3464H5.90159C5.86079 13.4184 5.83679 13.4976 5.83439 13.5864C5.82719 13.8768 6.05519 14.1168 6.34319 14.124C6.63359 14.1312 6.87359 13.9032 6.88079 13.6152C6.88319 13.5168 6.85679 13.4256 6.81359 13.3464H8.08079C8.03999 13.4184 8.01599 13.4976 8.01359 13.5864C8.00639 13.8768 8.23439 14.1168 8.52239 14.124C8.81279 14.1312 9.05279 13.9032 9.05999 13.6152C9.06239 13.5168 9.03599 13.4256 8.99279 13.3464H10.2984C10.2576 13.4184 10.2336 13.4976 10.2312 13.5864C10.224 13.8768 10.452 14.1168 10.74 14.124C11.0304 14.1312 11.2704 13.9032 11.2776 13.6152C11.28 13.5168 11.2536 13.4256 11.2104 13.3464H12.6192C12.5784 13.4184 12.5544 13.4976 12.552 13.5864C12.5448 13.8768 12.7728 14.1168 13.0608 14.124C13.3512 14.1312 13.5912 13.9032 13.5984 13.6152C13.6008 13.5168 13.5744 13.4256 13.5312 13.3464H14.928C14.8872 13.4184 14.8632 13.4976 14.8608 13.5864C14.8536 13.8768 15.0816 14.1168 15.3696 14.124C15.66 14.1312 15.9 13.9032 15.9072 13.6152C15.9096 13.5168 15.8832 13.4256 15.84 13.3464H17.2752C17.2344 13.4184 17.2104 13.4976 17.208 13.5864C17.2008 13.8768 17.4288 14.1168 17.7168 14.124C18.0072 14.1312 18.2472 13.9032 18.2544 13.6152C18.2568 13.5168 18.2304 13.4256 18.1872 13.3464H19.2864C19.5072 13.7232 19.9104 13.9776 20.3784 13.9776C21.0816 13.9776 21.6504 13.4088 21.6504 12.7056C21.66 12.0048 21.0912 11.436 20.388 11.436Z" fill="currentColor"/>
</svg>
