<svg width="24" height="24" viewBox="0 0 24 24" fill="currentColor" xmlns="http://www.w3.org/2000/svg">
<path d="M11.2344 18.7729H10.9296V20.6185H11.2344V18.7729Z" fill="currentColor"/>
<path d="M12.9624 8.29199H10.9296V16.1664H11.2344V8.53199H12.6576V16.1664H12.9624V8.29199Z" fill="currentColor"/>
<path d="M12.9624 18.7729H12.6576V20.6185H12.9624V18.7729Z" fill="currentColor"/>
<path d="M7.97999 1.95605V3.07446L7.68959 2.55845C7.66559 2.51525 7.66559 2.46005 7.69199 2.41925L7.97999 1.95605Z" fill="currentColor"/>
<path d="M15.8112 1.95605V3.07446L16.1016 2.55845C16.1256 2.51525 16.1256 2.46005 16.0992 2.41925L15.8112 1.95605Z" fill="currentColor"/>
<path d="M12.132 15.5664H11.76V16.164H12.132V15.5664Z" fill="currentColor"/>
<path d="M12.132 14.5317H11.76V15.1293H12.132V14.5317Z" fill="currentColor"/>
<path d="M12.132 13.4976H11.76V14.0952H12.132V13.4976Z" fill="currentColor"/>
<path d="M12.132 20.0205H11.76V20.6181H12.132V20.0205Z" fill="currentColor"/>
<path d="M12.132 18.9839H11.76V19.5815H12.132V18.9839Z" fill="currentColor"/>
<path d="M12.132 12.4629H11.76V13.0605H12.132V12.4629Z" fill="currentColor"/>
<path d="M12.132 11.4287H11.76V12.0263H12.132V11.4287Z" fill="currentColor"/>
<path d="M12.132 10.3921H11.76V10.9897H12.132V10.3921Z" fill="currentColor"/>
<path d="M12.132 9.35742H11.76V9.95502H12.132V9.35742Z" fill="currentColor"/>
<path d="M12.132 8.32324H11.76V8.92084H12.132V8.32324Z" fill="currentColor"/>
<path d="M5.43359 16.6533H18.564V17.4525H18.2112L16.5192 18.0069V18.2829L7.55759 18.3141L7.55519 18.0837C7.55519 18.0837 5.89199 17.4837 5.82959 17.4837C5.76719 17.4837 5.43359 17.4837 5.43359 17.4837V16.6533Z" fill="currentColor"/>
<path d="M18.5664 22.7589H5.43604V21.9597H5.78884L7.48083 21.4053V21.1293L16.4424 21.0981L16.4448 21.3285C16.4448 21.3285 18.108 21.9285 18.1704 21.9285C18.2328 21.9285 18.5664 21.9285 18.5664 21.9285V22.7589Z" fill="currentColor"/>
<path d="M14.5824 18.7729H13.6584V20.6185H14.5824V18.7729Z" fill="currentColor"/>
<path d="M13.6608 1.24072V1.71352C13.1592 1.65592 12.6888 1.77352 12.3168 2.05672C12.06 2.25352 11.8416 2.31352 11.4864 2.04472C11.0232 1.69192 10.4136 1.71112 10.1088 1.74952V1.24072H9.18721L9.18481 16.1855H10.1088V3.15592C10.1544 3.15832 10.2024 3.15832 10.2504 3.16072C10.3632 3.16552 10.5648 3.23032 10.7808 3.29752C11.1216 3.40312 11.5488 3.53752 11.9328 3.54712C11.9448 3.54712 11.9568 3.54712 11.9688 3.54712C12.3936 3.54712 12.816 3.36712 13.1256 3.23512C13.2744 3.17032 13.4184 3.11032 13.5 3.09832C13.5504 3.09112 13.6056 3.08632 13.6584 3.08392L13.656 16.1855H14.58V1.24072H13.6608ZM13.452 2.77912C13.332 2.79832 13.1856 2.86072 13.0032 2.93752C12.696 3.06952 12.3144 3.23272 11.9448 3.22312C11.604 3.21352 11.2032 3.08872 10.8792 2.98792C10.632 2.91112 10.4208 2.84392 10.2672 2.83672C10.212 2.83432 10.1616 2.83192 10.1088 2.82952V2.07832C10.3464 2.04472 10.8984 2.00632 11.292 2.30392C11.8416 2.72152 12.2352 2.52952 12.5136 2.31592C12.8304 2.07352 13.2264 1.97992 13.6608 2.03992V2.76232C13.5912 2.76472 13.5192 2.76952 13.452 2.77912Z" fill="currentColor"/>
<path d="M10.1088 18.7729H9.18481V20.6185H10.1088V18.7729Z" fill="currentColor"/>
<path d="M8.30159 18.7729L8.29919 20.6185H8.73839L8.74079 18.7729H8.30159Z" fill="currentColor"/>
<path d="M8.67834 1.55518H8.23914V16.1856H8.67834V1.55518Z" fill="currentColor"/>
<path d="M15.5496 1.55518H15.1104V16.1856H15.5496V1.55518Z" fill="currentColor"/>
<path d="M15.1224 18.7729V20.6185H15.5616V18.7729H15.1224Z" fill="currentColor"/>
</svg>
