<svg width="24" height="24" viewBox="0 0 24 24" fill="currentColor" xmlns="http://www.w3.org/2000/svg">
<path d="M12.7512 11.0711C12.5376 10.8983 12.2736 10.8047 12.0024 10.8047C11.9592 10.8047 11.9184 10.8071 11.8752 10.8119C11.5584 10.8455 11.2728 11.0015 11.0712 11.2487C10.8696 11.4959 10.7784 11.8079 10.812 12.1271C10.8456 12.4439 11.0016 12.7295 11.2488 12.9311C11.496 13.1327 11.808 13.2263 12.1272 13.1903C12.444 13.1567 12.7296 13.0031 12.9312 12.7535C13.1328 12.5063 13.224 12.1943 13.1904 11.8751C13.1544 11.5559 13.0008 11.2703 12.7512 11.0711Z" fill="currentColor"/>
<path d="M22.2384 10.9224C21.6456 5.27755 16.5696 1.17115 10.9248 1.76155C8.1912 2.04955 5.7312 3.38395 4.0008 5.51995C2.2704 7.65595 1.476 10.3392 1.764 13.0752C2.052 15.8088 3.3864 18.2688 5.5224 19.9992C7.3728 21.4968 9.6336 22.2936 11.9808 22.2936C12.3432 22.2936 12.7104 22.2744 13.0752 22.236C18.72 21.6432 22.8312 16.5696 22.2384 10.9224ZM13.0248 21.7392C10.4232 22.0152 7.8696 21.2568 5.8368 19.6104C3.804 17.964 2.532 15.624 2.2608 13.0224C1.9872 10.4208 2.7432 7.86715 4.3896 5.83435C6.036 3.80155 8.376 2.53195 10.9776 2.25835C11.3232 2.22235 11.6664 2.20315 12.0072 2.20315C16.9512 2.20315 21.2136 5.94955 21.7416 10.9752C22.3056 16.3464 18.396 21.1752 13.0248 21.7392Z" fill="currentColor"/>
<path d="M20.4144 11.1144C20.1792 8.86798 19.08 6.84478 17.3256 5.42398C15.5688 4.00318 13.3656 3.35038 11.1168 3.58558C8.8704 3.82078 6.8496 4.91998 5.4264 6.67438C4.0032 8.43118 3.3504 10.6368 3.588 12.8832C3.8256 15.1296 4.9224 17.1528 6.6768 18.5736C8.1984 19.8048 10.056 20.46 11.9856 20.46C12.2856 20.46 12.5856 20.4432 12.8856 20.412C15.1344 20.1768 17.1552 19.0776 18.576 17.3232C19.9968 15.5688 20.652 13.3632 20.4144 11.1144ZM11.4384 4.68238C13.44 4.53598 15.4296 5.21278 16.908 6.54478C17.2968 6.89518 17.2464 7.59118 16.9608 7.80958C16.6776 8.02558 14.484 9.56398 14.484 9.56398C14.3904 9.47038 14.2944 9.37918 14.1912 9.29518C13.5648 8.78878 12.8088 8.51998 12.0072 8.51998C11.8824 8.51998 11.7576 8.52478 11.6376 8.53918C11.5776 8.54638 11.5176 8.55838 11.46 8.56558C11.46 8.56558 10.6728 6.03118 10.5384 5.63278C10.404 5.23438 10.9272 4.72078 11.4384 4.68238ZM13.9272 13.56C13.788 13.7328 13.6248 13.8816 13.4496 14.0088C13.1016 14.2608 12.6936 14.4192 12.2544 14.4648C12.156 14.4768 12.0576 14.4792 11.9592 14.4792C11.4456 14.4744 10.9488 14.304 10.524 13.992C10.4952 13.9704 10.464 13.9512 10.4352 13.9272C10.0488 13.6152 9.7704 13.2024 9.6264 12.7368C9.5784 12.5832 9.5448 12.4224 9.528 12.2568C9.4896 11.9016 9.5304 11.5488 9.6408 11.22C9.7344 10.9392 9.876 10.6752 10.068 10.4376C10.2144 10.2576 10.3824 10.1016 10.5672 9.97198C10.9104 9.72958 11.3088 9.57838 11.7384 9.53278C11.82 9.52318 11.9016 9.52078 11.9832 9.52078C11.9904 9.52078 11.9952 9.52078 12.0024 9.52078C12.528 9.52078 13.0224 9.68878 13.4472 9.99838C13.4832 10.0248 13.5216 10.044 13.5576 10.0728C13.9392 10.38 14.2128 10.7856 14.3568 11.2416C14.4072 11.4024 14.4432 11.5704 14.4624 11.7432C14.5008 12.1056 14.4576 12.4656 14.3424 12.8016C14.2536 13.0728 14.1144 13.3296 13.9272 13.56ZM4.8624 10.2912C5.3304 8.34478 6.5856 6.65518 8.3112 5.65438C8.76 5.39518 9.3672 5.47678 9.4944 5.89198C9.6216 6.30718 9.5256 5.98558 9.5256 5.98558L10.44 8.88718C10.0032 9.10558 9.6096 9.41518 9.2928 9.80638C8.9016 10.2912 8.6544 10.8576 8.5608 11.4576C7.5624 11.4504 5.9112 11.4336 5.4792 11.4336C5.0472 11.4336 4.716 10.9032 4.8624 10.2912ZM9.4632 18.0336C9.3624 18.3312 8.9592 18.4152 8.6568 18.4152C8.5152 18.4152 8.3568 18.3744 8.1864 18.2712C6.4776 17.2296 5.2536 15.516 4.8288 13.5672C4.7184 13.056 4.9224 12.5088 5.4192 12.5136C5.9184 12.516 8.5632 12.5304 8.5632 12.5304C8.6952 13.3872 9.1296 14.1552 9.8088 14.7072C10.0032 14.8656 10.212 14.9976 10.4304 15.108C10.4304 15.1032 9.5616 17.736 9.4632 18.0336ZM16.7976 17.5488C15.4584 18.7032 13.74 19.3368 11.9928 19.3368C11.76 19.3368 11.5272 19.3248 11.2944 19.3032C10.7712 19.2528 10.3368 18.8088 10.4712 18.4128C10.6032 18.0168 11.448 15.4368 11.448 15.4368C11.6256 15.4656 11.8032 15.48 11.9856 15.48C12.1128 15.48 12.24 15.4728 12.3648 15.4584C13.1736 15.3744 13.9128 15.0168 14.4768 14.4432C15.288 15.0384 16.584 15.9936 16.9824 16.2864C17.3808 16.5792 17.2608 17.1504 16.7976 17.5488ZM18.6936 15.0048C18.4824 15.4752 17.964 15.7728 17.6016 15.504C17.2392 15.2352 15.8928 14.232 15.0792 13.6224C15.3984 13.0176 15.5328 12.3312 15.4608 11.6352C15.4152 11.208 15.2928 10.8048 15.1056 10.4328C15.1056 10.4328 17.3256 8.87518 17.6232 8.65678C17.9208 8.43838 18.5568 8.64718 18.792 9.22798C19.5456 11.0808 19.5096 13.1856 18.6936 15.0048Z" fill="currentColor"/>
</svg>
