<svg width="104" height="70" viewBox="0 0 104 70" fill="none" xmlns="http://www.w3.org/2000/svg">
<path d="M87.2279 55.7706H0.305664L9.99754 0.802002H96.9207L87.2279 55.7706Z" fill="#E6E6E6"/>
<path fill-rule="evenodd" clip-rule="evenodd" d="M9.95841 0.755127H96.9767L87.2674 55.8175H0.25L9.95841 0.755127ZM10.0371 0.848874L0.361725 55.7237H87.1887L96.865 0.848874H10.0371Z" fill="black"/>
<path d="M103.737 7.18237L94.0428 62.151H7.12061L16.8134 7.18237H103.737Z" fill="#FAFAFA"/>
<path fill-rule="evenodd" clip-rule="evenodd" d="M16.7738 7.1355H103.792L94.0818 62.1978H7.06445L16.7738 7.1355ZM16.8525 7.22925L7.17618 62.1041H94.0032L103.68 7.22925H16.8525Z" fill="black"/>
<path d="M103.737 7.18237L103.259 9.89635H16.3354L16.8136 7.18237H103.737Z" fill="#E4002B"/>
<path d="M18.3132 9.12018C18.6337 9.12018 18.8935 8.86038 18.8935 8.53989C18.8935 8.2194 18.6337 7.95959 18.3132 7.95959C17.9927 7.95959 17.7329 8.2194 17.7329 8.53989C17.7329 8.86038 17.9927 9.12018 18.3132 9.12018Z" fill="#FAFAFA"/>
<path d="M20.3479 9.12018C20.6684 9.12018 20.9282 8.86038 20.9282 8.53989C20.9282 8.2194 20.6684 7.95959 20.3479 7.95959C20.0274 7.95959 19.7676 8.2194 19.7676 8.53989C19.7676 8.86038 20.0274 9.12018 20.3479 9.12018Z" fill="#FAFAFA"/>
<path d="M22.321 9.12018C22.6415 9.12018 22.9013 8.86038 22.9013 8.53989C22.9013 8.2194 22.6415 7.95959 22.321 7.95959C22.0005 7.95959 21.7407 8.2194 21.7407 8.53989C21.7407 8.86038 22.0005 9.12018 22.321 9.12018Z" fill="#FAFAFA"/>
<path fill-rule="evenodd" clip-rule="evenodd" d="M76.6297 39.1748H79.1351V39.7581C79.4756 39.8217 79.8079 39.9105 80.1288 40.0232L80.42 39.5191L82.5894 40.7722L82.2981 41.2773C82.558 41.5008 82.8013 41.7435 83.0251 42.0041L83.5301 41.7129L84.7833 43.8822L84.2792 44.1735C84.3918 44.4943 84.4806 44.8266 84.5442 45.1671H85.1276V47.6724H84.5442C84.4806 48.0129 84.3918 48.3452 84.2792 48.6661L84.7833 48.9573L83.5301 51.1267L83.025 50.8354C82.8015 51.0952 82.5588 51.3385 82.2982 51.5623L82.5894 52.0673L80.42 53.3204L80.1288 52.8164C79.8079 52.929 79.4756 53.0178 79.1351 53.0814V53.6647H76.6297V53.0814C76.2892 53.0178 75.9569 52.929 75.636 52.8164L75.3447 53.3204L73.1754 52.0673L73.4666 51.5622C73.2068 51.3387 72.9635 51.096 72.7396 50.8354L72.2346 51.1267L70.9815 48.9573L71.4856 48.6661C71.3729 48.3453 71.2841 48.0135 71.2205 47.6724H70.6372V45.1671H71.2205C71.2841 44.8266 71.373 44.4943 71.4856 44.1735L70.9815 43.8822L72.2346 41.7129L72.7398 42.0042C72.9633 41.7443 73.206 41.501 73.4666 41.2772L73.1754 40.7722L75.3447 39.5191L75.636 40.0232C75.9569 39.9105 76.2892 39.8217 76.6297 39.7581V39.1748ZM76.946 39.4911V40.0247L76.8139 40.0467C76.4019 40.1154 76.0021 40.2225 75.6208 40.3651L75.4954 40.412L75.2291 39.9512L73.6072 40.888L73.8736 41.3498L73.7704 41.4349C73.452 41.6974 73.16 41.9903 72.8972 42.308L72.8121 42.411L72.3504 42.1447L71.4136 43.7666L71.8744 44.0328L71.8275 44.1582C71.6849 44.5395 71.5778 44.9393 71.5092 45.3513L71.4871 45.4834H70.9535V47.3561H71.4872L71.5092 47.4883C71.5778 47.9011 71.6849 48.3 71.8275 48.6813L71.8744 48.8067L71.4136 49.073L72.3504 50.6948L72.8122 50.4285L72.8974 50.5317C73.1599 50.85 73.4528 51.142 73.7705 51.4048L73.8735 51.4899L73.6072 51.9515L75.2291 52.8884L75.4954 52.4275L75.6208 52.4744C76.0021 52.6171 76.4019 52.7241 76.8139 52.7928L76.946 52.8148V53.3484H78.8188V52.8148L78.9509 52.7928C79.3629 52.7241 79.7627 52.6171 80.144 52.4744L80.2694 52.4275L80.5357 52.8884L82.1575 51.9515L81.8912 51.4897L81.9944 51.4046C82.3128 51.1421 82.6047 50.8492 82.8676 50.5315L82.9527 50.4286L83.4143 50.6948L84.3512 49.073L83.8903 48.8067L83.9372 48.6813C84.0799 48.3 84.1869 47.9002 84.2556 47.4883L84.2776 47.3561H84.8113V45.4834H84.2776L84.2556 45.3513C84.1869 44.9393 84.0799 44.5395 83.9372 44.1582L83.8903 44.0328L84.3512 43.7666L83.4143 42.1447L82.9525 42.4111L82.8674 42.3079C82.6049 41.9895 82.312 41.6976 81.9943 41.4348L81.8913 41.3496L82.1575 40.888L80.5357 39.9512L80.2694 40.412L80.144 40.3651C79.7627 40.2225 79.3629 40.1154 78.9509 40.0467L78.8188 40.0247V39.4911H76.946Z" fill="white"/>
<path d="M42.0763 43.1326C41.9807 43.1326 41.9038 43.0557 41.9038 42.9601C41.9038 41.163 41.1154 40.1599 39.8441 39.1249C39.7701 39.0649 39.7588 38.9562 39.8188 38.8821C39.8788 38.808 39.9876 38.7968 40.0616 38.8568C40.0616 38.8568 40.0626 38.8568 40.0626 38.8577C41.4126 39.9564 42.2488 41.0261 42.2488 42.9601C42.2479 43.0557 42.171 43.1326 42.0763 43.1326Z" fill="black"/>
<path d="M27.3068 43.1325C27.2111 43.1325 27.1343 43.0556 27.1343 42.96C27.1343 41.026 27.9705 39.9564 29.3205 38.8577C29.3946 38.7977 29.5024 38.808 29.5633 38.882C29.6233 38.9561 29.613 39.0639 29.539 39.1248C29.539 39.1248 29.538 39.1248 29.538 39.1258C28.2668 40.1607 27.4783 41.1638 27.4783 42.961C27.4793 43.0556 27.4024 43.1325 27.3068 43.1325Z" fill="black"/>
<path d="M40.5988 31.3186C40.5031 31.3186 40.4263 31.2417 40.4263 31.1461C40.4263 31.0945 40.4497 31.0448 40.49 31.012C41.7969 29.948 41.9028 28.4368 41.9028 26.7156C41.9028 26.62 41.9797 26.5431 42.0753 26.5431C42.171 26.5431 42.2478 26.62 42.2478 26.7156C42.2478 28.5268 42.1316 30.1205 40.7075 31.2801C40.6775 31.3045 40.6391 31.3186 40.5988 31.3186Z" fill="black"/>
<path d="M28.7843 31.2258C28.7449 31.2258 28.7065 31.2117 28.6756 31.1873C27.2515 30.0277 27.1353 28.4762 27.1353 26.7156C27.1353 26.62 27.2121 26.5431 27.3078 26.5431C27.4034 26.5431 27.4803 26.62 27.4803 26.7156C27.4803 28.4462 27.5843 29.8542 28.894 30.9201C28.9681 30.9801 28.9793 31.0889 28.9184 31.1629C28.8846 31.2033 28.8359 31.2258 28.7843 31.2258Z" fill="black"/>
<path d="M44.2916 35.0169H40.5997C40.5041 35.0169 40.4272 34.94 40.4272 34.8444C40.4272 34.7487 40.5041 34.6719 40.5997 34.6719H44.2916C44.3873 34.6719 44.4641 34.7487 44.4641 34.8444C44.4641 34.94 44.3863 35.0169 44.2916 35.0169Z" fill="black"/>
<path d="M28.7843 35.0169H25.0924C24.9968 35.0169 24.9199 34.94 24.9199 34.8444C24.9199 34.7487 24.9968 34.6719 25.0924 34.6719H28.7843C28.8799 34.6719 28.9568 34.7487 28.9568 34.8444C28.9568 34.94 28.879 35.0169 28.7843 35.0169Z" fill="black"/>
<path d="M34.6915 42.3948C34.5959 42.3948 34.519 42.3179 34.519 42.2223V30.4074C34.519 30.3117 34.5959 30.2349 34.6915 30.2349C34.7872 30.2349 34.864 30.3117 34.864 30.4074V42.2223C34.864 42.317 34.7872 42.3948 34.6915 42.3948Z" fill="black"/>
<path d="M34.6915 42.3948C31.3353 42.3911 28.6156 39.6715 28.6118 36.3153V31.882C28.6118 29.0434 30.9415 27.2791 34.6915 27.2791C38.6121 27.2791 40.7712 28.914 40.7712 31.882V36.3153C40.7674 39.6715 38.0478 42.3911 34.6915 42.3948ZM34.6915 27.6231C31.9193 27.6231 28.9568 28.7415 28.9568 31.8811V36.3144C28.9549 39.4821 31.5209 42.0508 34.6878 42.0536C37.8556 42.0555 40.4243 39.4896 40.4271 36.3228C40.4271 36.32 40.4271 36.3172 40.4271 36.3153V31.882C40.4262 28.1762 36.8337 27.6231 34.6915 27.6231Z" fill="black"/>
<path d="M31.1581 28.3431C31.0878 28.3431 31.024 28.2999 30.9978 28.2343C30.8984 27.9849 30.8403 27.7215 30.8271 27.4534C30.8337 25.3263 32.554 23.6013 34.6812 23.5901H34.7009C36.8253 23.6004 38.5456 25.3197 38.5559 27.444C38.5465 27.6934 38.494 27.939 38.3993 28.1696C38.3628 28.2578 38.2615 28.299 38.1734 28.2615C38.0862 28.2249 38.045 28.1256 38.0806 28.0384C38.1593 27.8471 38.2034 27.6437 38.2118 27.4375C38.1987 25.5053 36.634 23.9426 34.7009 23.9341H34.6821C32.7471 23.9435 31.1815 25.51 31.1721 27.445C31.1843 27.6718 31.234 27.8959 31.3184 28.1068C31.354 28.1949 31.31 28.2962 31.2218 28.3309C31.2012 28.3384 31.1796 28.3431 31.1581 28.3431Z" fill="black"/>
<path d="M52.2014 27.4056H50.1323C49.4658 27.4056 48.9258 26.8656 48.9258 26.1991C48.9258 25.5325 49.4658 24.9926 50.1323 24.9926H52.2014C52.868 24.9926 53.408 25.5325 53.408 26.1991C53.408 26.8647 52.868 27.4056 52.2014 27.4056Z" fill="#CCCCCC"/>
<path d="M66.3386 32.4913H64.2695C63.603 32.4913 63.063 31.9513 63.063 31.2848C63.063 30.6182 63.603 30.0782 64.2695 30.0782H66.3386C67.0052 30.0782 67.5452 30.6182 67.5452 31.2848C67.5452 31.9513 67.0052 32.4913 66.3386 32.4913Z" fill="#CCCCCC"/>
<path d="M72.8899 32.4913H70.8208C70.1543 32.4913 69.6143 31.9513 69.6143 31.2848C69.6143 30.6182 70.1543 30.0782 70.8208 30.0782H72.8899C73.5564 30.0782 74.0965 30.6182 74.0965 31.2848C74.0965 31.9513 73.5564 32.4913 72.8899 32.4913Z" fill="#CCCCCC"/>
<path d="M79.4411 32.4913H77.3721C76.7055 32.4913 76.1655 31.9513 76.1655 31.2848C76.1655 30.6182 76.7055 30.0782 77.3721 30.0782H79.4411C80.1077 30.0782 80.6477 30.6182 80.6477 31.2848C80.6477 31.9513 80.1077 32.4913 79.4411 32.4913Z" fill="#CCCCCC"/>
<path d="M66.5113 27.4909H56.857C56.1904 27.4909 55.6504 26.9509 55.6504 26.2844C55.6504 25.6179 56.1904 25.0779 56.857 25.0779H66.5113C67.1779 25.0779 67.7179 25.6179 67.7179 26.2844C67.7179 26.9509 67.1779 27.4909 66.5113 27.4909Z" fill="#CCCCCC"/>
<path d="M59.7877 32.3188H50.1323C49.4658 32.3188 48.9258 31.7788 48.9258 31.1123C48.9258 30.4457 49.4658 29.9058 50.1323 29.9058H59.7867C60.4533 29.9058 60.9933 30.4457 60.9933 31.1123C60.9933 31.7788 60.4542 32.3188 59.7877 32.3188Z" fill="#CCCCCC"/>
<path d="M78.7521 27.4909H71.3384C70.6718 27.4909 70.1318 26.9509 70.1318 26.2844C70.1318 25.6179 70.6718 25.0779 71.3384 25.0779H78.7521C79.4187 25.0779 79.9587 25.6179 79.9587 26.2844C79.9587 26.9509 79.4178 27.4909 78.7521 27.4909Z" fill="#CCCCCC"/>
<path d="M52.2014 37.5771H50.1323C49.4658 37.5771 48.9258 37.0371 48.9258 36.3706C48.9258 35.704 49.4658 35.1641 50.1323 35.1641H52.2014C52.868 35.1641 53.408 35.704 53.408 36.3706C53.408 37.0371 52.868 37.5771 52.2014 37.5771Z" fill="#CCCCCC"/>
<path d="M66.5113 37.6624H56.857C56.1904 37.6624 55.6504 37.1225 55.6504 36.4559C55.6504 35.7894 56.1904 35.2494 56.857 35.2494H66.5113C67.1779 35.2494 67.7179 35.7894 67.7179 36.4559C67.7179 37.1225 67.1779 37.6624 66.5113 37.6624Z" fill="#CCCCCC"/>
<path d="M78.7521 37.6624H71.3384C70.6718 37.6624 70.1318 37.1225 70.1318 36.4559C70.1318 35.7894 70.6718 35.2494 71.3384 35.2494H78.7521C79.4187 35.2494 79.9587 35.7894 79.9587 36.4559C79.9587 37.1225 79.4178 37.6624 78.7521 37.6624Z" fill="#CCCCCC"/>
<path d="M75.4756 41.7142C75.4765 41.0477 76.0165 40.5086 76.6821 40.5077H78.7512C79.4178 40.5077 79.9578 41.0477 79.9578 41.7142C79.9578 42.3808 79.4178 42.9207 78.7512 42.9207H76.6821C76.0165 42.9207 75.4765 42.3808 75.4756 41.7142Z" fill="#CCCCCC"/>
<path d="M61.1665 41.8004C61.1674 41.1339 61.7074 40.5948 62.3731 40.5939H72.0274C72.694 40.5939 73.234 41.1339 73.234 41.8004C73.234 42.4669 72.694 43.0069 72.0274 43.0069H62.3731C61.7074 43.0069 61.1674 42.4669 61.1665 41.8004Z" fill="#CCCCCC"/>
<path d="M48.9258 41.8004C48.9267 41.1339 49.4667 40.5948 50.1323 40.5939H57.5461C58.2127 40.5939 58.7527 41.1339 58.7527 41.8004C58.7527 42.4669 58.2127 43.0069 57.5461 43.0069H50.1323C49.4667 43.0069 48.9267 42.4669 48.9258 41.8004Z" fill="#CCCCCC"/>
<path d="M80.2308 67.4232L74.7666 67.4937L74.7816 68.6532L80.2457 68.5827L80.2308 67.4232Z" fill="#E6E6E6"/>
<path d="M82.1929 68.837L81.4129 68.8351L80.9301 67.9745L81.4514 67.1167L82.1761 67.1186C81.6961 66.5074 80.8111 66.4015 80.1998 66.8824C79.5886 67.3624 79.4826 68.2473 79.9636 68.8586C80.4436 69.4698 81.3286 69.5757 81.9398 69.0948C82.0354 69.0207 82.1208 68.9336 82.1929 68.837Z" fill="#E6E6E6"/>
<path d="M72.8301 68.837L73.6101 68.8351L74.0929 67.9745L73.5716 67.1167L72.8469 67.1186C73.3269 66.5074 74.212 66.4015 74.8232 66.8824C75.4345 67.3624 75.5404 68.2473 75.0594 68.8586C74.5785 69.4698 73.6944 69.5757 73.0832 69.0948C72.9885 69.0207 72.9032 68.9336 72.8301 68.837Z" fill="#E6E6E6"/>
<path d="M87.0565 43.8497C89.1944 43.8497 90.9274 42.1166 90.9274 39.9788C90.9274 37.8411 89.1944 36.108 87.0565 36.108C84.9186 36.108 83.1855 37.8411 83.1855 39.9788C83.1855 42.1166 84.9186 43.8497 87.0565 43.8497Z" fill="#2F2E41"/>
<path d="M88.625 61.7095L88.9231 63.1157L94.4919 62.6357L94.0513 60.5592L88.625 61.7095Z" fill="#FFB8B8"/>
<path d="M88.1919 66.1062L87.2554 61.6851L88.9635 61.3232L89.5382 64.0363C89.7379 64.9794 89.1351 65.9056 88.1919 66.1062Z" fill="#2F2E41"/>
<path d="M85.1367 61.6335L84.5105 62.9281L79.2192 61.1272L80.1446 59.2167L85.1367 61.6335Z" fill="#FFB8B8"/>
<path d="M83.6928 63.6735L84.9012 61.177L86.4734 61.9382L84.5037 66.0059C83.6356 65.5859 83.2718 64.5416 83.6928 63.6735Z" fill="#2F2E41"/>
<path d="M74.7133 59.078C75.3976 59.2055 76.0558 58.7537 76.1823 58.0703C76.1955 57.9971 76.203 57.9231 76.2039 57.849L84.9283 49.8055L82.7617 48.1274L74.8633 56.5665C74.1648 56.6078 73.6314 57.2068 73.6727 57.9053C73.7064 58.4893 74.1367 58.974 74.7133 59.078Z" fill="#FFB8B8"/>
<path d="M86.5709 44.024C88.162 44.024 89.4518 42.7342 89.4518 41.1432C89.4518 39.5521 88.162 38.2623 86.5709 38.2623C84.9798 38.2623 83.6899 39.5521 83.6899 41.1432C83.6899 42.7342 84.9798 44.024 86.5709 44.024Z" fill="#FFB8B8"/>
<path d="M89.1566 58.0787C87.1353 58.0787 84.7016 57.6531 83.1997 55.9113L83.1659 55.8719L83.2006 55.8335C83.2119 55.8213 84.3163 54.5585 83.2138 52.3076L81.6969 52.7745L80.1875 50.7814L81.0237 48.2728L84.4466 45.5157C84.9369 45.1229 85.5341 44.8866 86.1603 44.8369C87.2937 44.7272 88.3981 44.4132 89.4191 43.9088C89.8859 43.682 90.4006 43.5695 90.9209 43.5807L90.9884 43.5826C91.6325 43.6004 92.1406 44.1376 92.1219 44.7826C92.1209 44.8013 92.12 44.8201 92.1191 44.8388C91.8866 47.8453 91.4769 55.1079 92.6816 57.6081L92.7125 57.6728L92.6431 57.6906C91.4984 57.9465 90.3294 58.0768 89.1566 58.0787Z" fill="#E4002B"/>
<path d="M83.5961 55.8728C83.5961 55.8728 75.9714 55.1688 75.1502 57.3981C74.3289 59.6265 75.2673 60.6821 76.6755 61.1517C78.0826 61.6205 81.4848 62.2073 81.4848 62.2073L83.0102 60.3305L86.9983 60.5649C86.9983 60.5649 91.442 63.142 92.6711 65.8991C93.2083 67.115 94.3698 67.9362 95.6945 68.0384C96.6798 68.1068 97.5555 67.7347 97.5555 66.1953C97.5555 62.6761 92.6289 57.6325 92.6289 57.6325L83.5961 55.8728Z" fill="#2F2E41"/>
<path d="M77.7896 59.333C77.7896 59.333 79.7836 58.7462 82.9505 60.2714Z" fill="#2F2E41"/>
<path d="M83.6963 39.3058C84.8213 39.9929 86.0897 40.4101 87.4032 40.5273L87.0122 40.0595C87.2963 40.1645 87.5963 40.2245 87.8991 40.2357C88.2066 40.2451 88.501 40.1073 88.6913 39.8654C88.8469 39.6142 88.8694 39.302 88.7522 39.0311C88.6332 38.7649 88.4476 38.5324 88.2141 38.358C87.3722 37.6914 86.2519 37.4918 85.231 37.8246C84.886 37.9277 84.5775 38.1255 84.3404 38.3964C84.1032 38.673 84.0216 39.0508 84.1219 39.4005" fill="#2F2E41"/>
<path d="M87.0356 37.0034C87.5475 35.8147 88.3135 34.7525 89.28 33.8928C89.9007 33.3416 90.6253 32.8673 91.4438 32.7238C92.2622 32.5804 93.1838 32.826 93.6853 33.4879C94.096 34.0288 94.1728 34.7534 94.1269 35.4312C94.0819 36.109 93.93 36.7793 93.945 37.459C93.9938 39.7558 95.896 41.5782 98.1938 41.5295C98.775 41.5173 99.346 41.3832 99.8719 41.1367C99.166 41.5276 98.6147 42.1454 97.9594 42.616C97.3031 43.0866 96.4388 43.4091 95.6944 43.0979C94.906 42.7688 94.545 41.8754 94.2628 41.0701L93.0038 37.4759C92.79 36.8646 92.565 36.2356 92.1282 35.7584C91.6913 35.2803 90.9825 34.9897 90.3816 35.2297C89.926 35.4115 89.6297 35.8465 89.3691 36.2628C89.1094 36.679 88.8347 37.1215 88.395 37.3399C87.9553 37.5584 87.3047 37.4234 87.1603 36.9546" fill="#2F2E41"/>
<path d="M86.9563 54.4317L86.147 55.2622L90.0608 59.0759L90.8701 58.2454L86.9563 54.4317Z" fill="#E6E6E6"/>
<path d="M90.1092 58.315C89.662 58.7734 89.6723 59.5074 90.1308 59.9546C90.5892 60.4018 91.3233 60.3915 91.7705 59.933C92.2176 59.4746 92.2073 58.7406 91.7489 58.2934C91.2905 57.8472 90.5564 57.8565 90.1092 58.315ZM91.2952 59.4709C91.1039 59.6677 90.7889 59.6715 90.593 59.4802C90.3961 59.289 90.3923 58.974 90.5836 58.7781C90.7748 58.5812 91.0898 58.5775 91.2858 58.7687C91.4827 58.9599 91.4864 59.274 91.2952 59.4709Z" fill="#E6E6E6"/>
<path d="M85.7658 52.8766L86.3161 53.4297L86.0489 54.3793L85.0739 54.6174L84.5629 54.1037C84.4701 54.8753 85.0214 55.5765 85.7929 55.6683C86.5645 55.7612 87.2657 55.2099 87.3576 54.4384C87.4504 53.6668 86.8992 52.9656 86.1276 52.8737C86.0067 52.8587 85.8848 52.8597 85.7658 52.8766Z" fill="#E6E6E6"/>
<path d="M88.0237 58.088C87.9741 58.088 87.9244 58.0852 87.8747 58.0796C87.2784 58.0102 86.8078 57.5406 86.7394 56.9443C86.6587 56.2365 87.1669 55.5962 87.8756 55.5156C87.9244 55.51 87.9731 55.5072 88.0219 55.5072C88.079 55.5072 88.1372 55.5119 88.1934 55.5203L92.1319 51.327L91.7203 49.9564L93.7856 49.0311L94.3641 50.4458C94.7625 51.4301 94.4681 52.5588 93.6394 53.2226L89.3034 56.6715C89.3081 56.7137 89.31 56.7559 89.3109 56.7981C89.3109 57.1646 89.1544 57.5143 88.8816 57.7599C88.6472 57.9718 88.3406 58.089 88.0237 58.088Z" fill="#FFB8B8"/>
<path d="M91.1035 44.1432C91.6632 43.8947 92.3185 44.1469 92.567 44.7056C92.5735 44.7197 92.5791 44.7338 92.5848 44.7478L94.6229 49.8908L91.456 52.002L91.1035 44.1432Z" fill="#E4002B"/>
</svg>
