<svg width="553" height="374" viewBox="0 0 553 374" fill="none" xmlns="http://www.w3.org/2000/svg">
<path d="M463.883 293.42H0.297913L51.9929 0.25H515.578L463.883 293.42Z" fill="#E6E6E6"/>
<path fill-rule="evenodd" clip-rule="evenodd" d="M51.7832 0H515.876L464.093 293.67H0L51.7832 0ZM52.2027 0.5L0.595882 293.17H463.673L515.28 0.5H52.2027Z" fill="black"/>
<path d="M551.928 34.2798L500.228 327.45H36.6429L88.3429 34.2798H551.928Z" fill="#FAFAFA"/>
<path fill-rule="evenodd" clip-rule="evenodd" d="M88.1331 34.0298H552.226L500.438 327.7H36.345L88.1331 34.0298ZM88.5527 34.5298L36.9409 327.2H500.018L551.63 34.5298H88.5527Z" fill="black"/>
<path d="M551.928 34.2798L549.378 48.7548H85.793L88.343 34.2798H551.928Z" fill="#E4002B"/>
<path d="M96.3429 44.6099C98.0522 44.6099 99.4379 43.2242 99.4379 41.5149C99.4379 39.8056 98.0522 38.4199 96.3429 38.4199C94.6336 38.4199 93.2479 39.8056 93.2479 41.5149C93.2479 43.2242 94.6336 44.6099 96.3429 44.6099Z" fill="#FAFAFA"/>
<path d="M107.193 44.6099C108.902 44.6099 110.288 43.2242 110.288 41.5149C110.288 39.8056 108.902 38.4199 107.193 38.4199C105.484 38.4199 104.098 39.8056 104.098 41.5149C104.098 43.2242 105.484 44.6099 107.193 44.6099Z" fill="#FAFAFA"/>
<path d="M117.713 44.6099C119.422 44.6099 120.808 43.2242 120.808 41.5149C120.808 39.8056 119.422 38.4199 117.713 38.4199C116.004 38.4199 114.618 39.8056 114.618 41.5149C114.618 43.2242 116.004 44.6099 117.713 44.6099Z" fill="#FAFAFA"/>
<path d="M217.953 84.6846H135.553V167.085H217.953V84.6846Z" fill="#E6E6E6"/>
<path d="M342.318 84.6846H259.918V167.085H342.318V84.6846Z" fill="#E6E6E6"/>
<path d="M218.673 197.105H136.273V279.505H218.673V197.105Z" fill="#E6E6E6"/>
<path d="M459.883 84.6846H377.483V167.085H459.883V84.6846Z" fill="#E6E6E6"/>
<path d="M459.883 197.105H377.483V279.505H459.883V197.105Z" fill="#E6E6E6"/>
<path d="M342.318 197.105H259.918V279.505H342.318V197.105Z" fill="#E6E6E6"/>
<path fill-rule="evenodd" clip-rule="evenodd" d="M171.299 95.1616H182.216V97.654C183.563 97.9122 184.877 98.2648 186.15 98.7034L187.394 96.548L196.85 102.006L195.606 104.162C196.632 105.053 197.595 106.016 198.486 107.042L200.642 105.798L206.1 115.254L203.945 116.498C204.383 117.771 204.736 119.085 204.994 120.432H207.486V131.349H204.994C204.736 132.695 204.383 134.009 203.945 135.282L206.1 136.526L200.642 145.982L198.486 144.738C197.595 145.764 196.632 146.727 195.606 147.618L196.85 149.774L187.394 155.232L186.15 153.077C184.877 153.515 183.563 153.868 182.216 154.126V156.619H171.299V154.126C169.953 153.868 168.639 153.515 167.366 153.077L166.122 155.232L156.666 149.774L157.91 147.618C156.884 146.727 155.921 145.764 155.029 144.738L152.874 145.982L147.416 136.526L149.571 135.282C149.133 134.009 148.78 132.695 148.522 131.349H146.029V120.432H148.522C148.78 119.085 149.133 117.771 149.571 116.498L147.416 115.254L152.874 105.798L155.029 107.042C155.921 106.016 156.884 105.053 157.91 104.162L156.666 102.006L166.122 96.548L167.366 98.7034C168.639 98.2648 169.953 97.9122 171.299 97.654V95.1616ZM172.986 96.8485V99.0752L172.281 99.1922C170.555 99.4782 168.883 99.929 167.282 100.525L166.614 100.775L165.504 98.8522L158.97 102.624L160.08 104.546L159.53 105.001C158.196 106.101 156.969 107.328 155.868 108.662L155.414 109.212L153.492 108.102L149.72 114.636L151.642 115.746L151.393 116.415C150.797 118.015 150.346 119.687 150.06 121.413L149.943 122.119H147.716V129.662H149.943L150.06 130.367C150.346 132.093 150.797 133.765 151.393 135.365L151.642 136.034L149.72 137.144L153.492 143.678L155.414 142.568L155.868 143.118C156.969 144.452 158.196 145.679 159.53 146.78L160.08 147.234L158.97 149.156L165.504 152.928L166.614 151.006L167.282 151.255C168.883 151.851 170.555 152.302 172.281 152.588L172.986 152.705V154.932H180.529V152.705L181.235 152.588C182.961 152.302 184.633 151.851 186.233 151.255L186.902 151.006L188.012 152.928L194.546 149.156L193.436 147.234L193.986 146.78C195.32 145.679 196.547 144.452 197.647 143.118L198.102 142.568L200.024 143.678L203.796 137.144L201.873 136.034L202.123 135.365C202.719 133.765 203.17 132.093 203.456 130.367L203.573 129.662H205.799V122.119H203.573L203.456 121.413C203.17 119.687 202.719 118.015 202.123 116.415L201.873 115.746L203.796 114.636L200.024 108.102L198.102 109.212L197.647 108.662C196.547 107.328 195.32 106.101 193.986 105.001L193.436 104.546L194.546 102.624L188.012 98.8522L186.902 100.775L186.233 100.525C184.633 99.929 182.961 99.4782 181.235 99.1922L180.529 99.0752V96.8485H172.986Z" fill="white"/>
<path fill-rule="evenodd" clip-rule="evenodd" d="M413.23 207.577H424.147V210.069C425.493 210.327 426.807 210.68 428.08 211.118L429.324 208.963L438.78 214.421L437.536 216.577C438.562 217.468 439.525 218.431 440.416 219.457L442.572 218.213L448.03 227.669L445.875 228.913C446.313 230.186 446.666 231.5 446.924 232.847H449.416V243.764H446.924C446.666 245.11 446.313 246.424 445.875 247.697L448.03 248.941L442.572 258.397L440.416 257.153C439.525 258.179 438.562 259.142 437.536 260.034L438.78 262.189L429.324 267.647L428.08 265.492C426.807 265.93 425.493 266.283 424.147 266.541V269.034H413.23V266.541C411.883 266.283 410.569 265.93 409.296 265.492L408.052 267.647L398.596 262.189L399.84 260.034C398.814 259.142 397.851 258.179 396.96 257.153L394.804 258.397L389.346 248.941L391.501 247.697C391.063 246.424 390.71 245.11 390.452 243.764H387.96V232.847H390.452C390.71 231.5 391.063 230.186 391.501 228.913L389.346 227.669L394.804 218.213L396.96 219.457C397.851 218.431 398.814 217.468 399.84 216.577L398.596 214.421L408.052 208.963L409.296 211.118C410.569 210.68 411.883 210.327 413.23 210.069V207.577ZM414.916 209.264V211.49L414.211 211.607C412.485 211.893 410.813 212.344 409.213 212.94L408.544 213.19L407.434 211.267L400.9 215.039L402.01 216.961L401.46 217.416C400.126 218.516 398.899 219.743 397.799 221.077L397.344 221.627L395.422 220.517L391.65 227.051L393.573 228.161L393.323 228.83C392.727 230.43 392.276 232.102 391.99 233.828L391.873 234.534H389.647V242.077H391.873L391.99 242.782C392.276 244.508 392.727 246.18 393.323 247.781L393.573 248.449L391.65 249.559L395.422 256.093L397.344 254.983L397.799 255.533C398.899 256.867 400.126 258.094 401.46 259.195L402.01 259.649L400.9 261.571L407.434 265.343L408.544 263.421L409.213 263.67C410.813 264.266 412.485 264.717 414.211 265.003L414.916 265.12V267.347H422.46V265.12L423.165 265.003C424.891 264.717 426.563 264.266 428.163 263.67L428.832 263.421L429.942 265.343L436.476 261.571L435.366 259.649L435.916 259.195C437.25 258.094 438.477 256.867 439.578 255.533L440.032 254.983L441.954 256.093L445.726 249.559L443.804 248.449L444.053 247.781C444.649 246.18 445.1 244.508 445.386 242.782L445.503 242.077H447.73V234.534H445.503L445.386 233.828C445.1 232.102 444.649 230.43 444.053 228.83L443.804 228.161L445.726 227.051L441.954 220.517L440.032 221.627L439.578 221.077C438.477 219.743 437.25 218.516 435.916 217.416L435.366 216.961L436.476 215.039L429.942 211.267L428.832 213.19L428.163 212.94C426.563 212.344 424.891 211.893 423.165 211.607L422.46 211.49V209.264H414.916Z" fill="white"/>
<path fill-rule="evenodd" clip-rule="evenodd" d="M270.384 103.315C270.384 98.8086 274.043 95.1567 278.548 95.1567H323.453C323.522 95.1567 323.584 95.1627 323.608 95.1651L323.613 95.1655C323.618 95.166 323.621 95.1663 323.624 95.1666C326.414 95.1456 329.144 96.5546 330.686 99.1208C333.006 102.986 331.751 107.994 327.887 110.313L327.86 110.33L313.144 117.727H323.453C326.597 117.727 329.323 119.513 330.683 122.11L330.686 122.116C333.006 125.981 331.751 130.99 327.881 133.304L327.854 133.32L313.982 140.297H323.688C328.198 140.297 331.851 143.949 331.851 148.455C331.851 152.962 328.193 156.614 323.688 156.614H279.293C279.19 156.614 279.062 156.606 278.986 156.601C278.981 156.601 278.976 156.6 278.971 156.6C276.058 156.748 273.158 155.329 271.55 152.649C269.23 148.784 270.485 143.776 274.349 141.457L274.376 141.441L289.092 134.044H279.293C277.655 134.044 276.13 133.557 274.851 132.727C273.533 132.058 272.371 131.022 271.554 129.659C269.235 125.794 270.49 120.786 274.354 118.467L274.381 118.451L288.254 111.474H278.548C274.037 111.474 270.384 107.821 270.384 103.315ZM278.548 96.8436C274.973 96.8436 272.071 99.7418 272.071 103.315C272.071 106.889 274.968 109.787 278.548 109.787H295.362L275.196 119.929C272.15 121.777 271.166 125.735 273.001 128.791C273.655 129.882 274.587 130.709 275.65 131.241L275.695 131.263L275.736 131.291C276.759 131.964 277.979 132.357 279.293 132.357H296.204L275.191 142.919C272.145 144.767 271.161 148.725 272.996 151.781C274.278 153.917 276.595 155.046 278.925 154.913L278.969 154.911L279.013 154.913C279.08 154.916 279.125 154.919 279.161 154.921C279.211 154.925 279.243 154.927 279.293 154.927H323.688C327.263 154.927 330.164 152.029 330.164 148.455C330.164 144.881 327.267 141.984 323.688 141.984H306.874L327.041 131.841C330.065 130.014 331.058 126.105 329.284 123.059L329.264 123.039L329.204 122.923C328.127 120.84 325.954 119.414 323.453 119.414H306.032L327.045 108.851C330.091 107.004 331.074 103.046 329.24 99.9896C328.015 97.9519 325.845 96.8314 323.621 96.8536L323.613 96.8536C323.544 96.8536 323.482 96.8477 323.458 96.8453L323.453 96.8448C323.447 96.8443 323.443 96.8439 323.44 96.8436H278.548ZM329.204 122.921L329.204 122.921L329.204 122.921Z" fill="white"/>
<path fill-rule="evenodd" clip-rule="evenodd" d="M146.739 214.005C146.739 209.499 150.398 205.847 154.903 205.847H199.808C199.877 205.847 199.939 205.853 199.963 205.855L199.968 205.855C199.973 205.856 199.976 205.856 199.979 205.857C202.769 205.836 205.499 207.245 207.041 209.811C209.361 213.676 208.106 218.684 204.242 221.003L204.215 221.02L189.499 228.417H199.808C202.952 228.417 205.677 230.203 207.038 232.8L207.041 232.806C209.361 236.67 208.107 241.685 204.235 243.994L204.209 244.01L190.337 250.987H200.043C204.553 250.987 208.206 254.639 208.206 259.145C208.206 263.652 204.548 267.304 200.043 267.304H155.648C155.545 267.304 155.417 267.296 155.341 267.291C155.336 267.29 155.331 267.29 155.326 267.29C152.413 267.438 149.513 266.019 147.905 263.339C145.585 259.474 146.84 254.466 150.704 252.147L150.731 252.131L165.447 244.734H155.648C154.009 244.734 152.485 244.247 151.206 243.417C149.888 242.748 148.726 241.712 147.909 240.349C145.59 236.484 146.845 231.476 150.709 229.157L150.736 229.141L164.609 222.164H154.903C150.392 222.164 146.739 218.511 146.739 214.005ZM154.903 207.534C151.328 207.534 148.426 210.432 148.426 214.005C148.426 217.579 151.323 220.477 154.903 220.477H171.717L151.551 230.619C148.505 232.467 147.521 236.425 149.356 239.481C150.01 240.572 150.942 241.399 152.005 241.931L152.05 241.953L152.091 241.981C153.114 242.654 154.334 243.047 155.648 243.047H172.559L151.546 253.609C148.5 255.457 147.516 259.415 149.351 262.471C150.633 264.606 152.95 265.736 155.28 265.603L155.324 265.601L155.368 265.603C155.435 265.606 155.48 265.609 155.516 265.611C155.565 265.615 155.598 265.617 155.648 265.617H200.043C203.618 265.617 206.519 262.719 206.519 259.145C206.519 255.571 203.622 252.674 200.043 252.674H183.229L203.396 242.531C206.42 240.708 207.414 236.796 205.639 233.749L205.619 233.729L205.559 233.613C204.482 231.53 202.309 230.104 199.808 230.104H182.387L203.4 219.541C206.446 217.694 207.429 213.736 205.595 210.68C204.37 208.642 202.2 207.521 199.976 207.544L199.968 207.544C199.899 207.544 199.837 207.538 199.812 207.535L199.808 207.535C199.802 207.534 199.798 207.534 199.795 207.534H154.903Z" fill="white"/>
<path fill-rule="evenodd" clip-rule="evenodd" d="M384.262 140.865H398.512C399.034 130.177 407.866 121.67 418.683 121.67C429.5 121.67 438.332 130.177 438.854 140.865H453.104C452.574 122.309 437.366 107.43 418.683 107.43C400 107.43 384.791 122.309 384.262 140.865ZM382.248 141.865C382.248 121.742 398.561 105.43 418.683 105.43C438.805 105.43 455.118 121.742 455.118 141.865V142.865H436.878V141.865C436.878 131.817 428.731 123.67 418.683 123.67C408.635 123.67 400.488 131.817 400.488 141.865V142.865H382.248V141.865Z" fill="white"/>
<path fill-rule="evenodd" clip-rule="evenodd" d="M269.312 255.02H283.562C284.084 244.332 292.916 235.825 303.733 235.825C314.55 235.825 323.382 244.332 323.904 255.02H338.154C337.625 236.465 322.416 221.585 303.733 221.585C285.05 221.585 269.841 236.465 269.312 255.02ZM267.298 256.02C267.298 235.898 283.611 219.585 303.733 219.585C323.855 219.585 340.168 235.898 340.168 256.02V257.02H321.928V256.02C321.928 245.972 313.781 237.825 303.733 237.825C293.685 237.825 285.538 245.972 285.538 256.02V257.02H267.298V256.02Z" fill="white"/>
<path d="M297.718 323.3H381.843L385.738 315.19L386.333 315.48L382.258 323.965H298.383V356.17H390.018V356.835H297.718V323.3Z" fill="#2F2E41"/>
<path d="M377.733 373.1C381.582 373.1 384.703 369.979 384.703 366.13C384.703 362.28 381.582 359.16 377.733 359.16C373.884 359.16 370.763 362.28 370.763 366.13C370.763 369.979 373.884 373.1 377.733 373.1Z" fill="#3F3D56"/>
<path d="M309.008 373.1C312.857 373.1 315.978 369.979 315.978 366.13C315.978 362.28 312.857 359.16 309.008 359.16C305.159 359.16 302.038 362.28 302.038 366.13C302.038 369.979 305.159 373.1 309.008 373.1Z" fill="#3F3D56"/>
<path d="M227.998 222.37C230.381 222.37 232.313 220.438 232.313 218.055C232.313 215.672 230.381 213.74 227.998 213.74C225.615 213.74 223.683 215.672 223.683 218.055C223.683 220.438 225.615 222.37 227.998 222.37Z" fill="#3F3D56"/>
<path d="M275.758 244.5L275.638 244.115H406.788L387.068 309.19H295.948L275.758 244.5Z" fill="#F2F2F2"/>
<path d="M258.618 217.06H233.638V216.395H259.128L263.513 232.91L262.868 233.08L258.618 217.06Z" fill="#2F2E41"/>
<path d="M406.783 261.88H272.188V262.545H406.783V261.88Z" fill="#2F2E41"/>
<path d="M399.303 286.345H279.898V287.01H399.303V286.345Z" fill="#2F2E41"/>
<path d="M339.718 239.965H339.053V312.675H339.718V239.965Z" fill="#2F2E41"/>
<path d="M309.341 239.967L308.677 240.011L313.443 312.723L314.106 312.679L309.341 239.967Z" fill="#2F2E41"/>
<path d="M369.417 239.924L364.681 312.636L365.345 312.679L370.081 239.967L369.417 239.924Z" fill="#2F2E41"/>
<path d="M264.863 240.065L264.728 239.635H414.038L391.588 313.01H287.848L264.863 240.065ZM413.143 240.3H265.633L288.333 312.345H391.098L413.143 240.3Z" fill="#2F2E41"/>
<path d="M223.338 330.75H181.863V372.225H223.338V330.75Z" fill="#E6E6E6"/>
<path fill-rule="evenodd" clip-rule="evenodd" d="M181.615 330.502H223.586V372.472H181.615V330.502ZM182.111 330.997V371.977H223.09V330.997H182.111Z" fill="black"/>
<path d="M241.793 361.575L223.343 372.225V330.75L241.793 320.095V361.575Z" fill="#E6E6E6"/>
<path fill-rule="evenodd" clip-rule="evenodd" d="M242.041 319.666V361.717L223.095 372.653V330.607L242.041 319.666ZM223.591 330.892V371.796L241.545 361.431V320.523L223.591 330.892Z" fill="black"/>
<path d="M181.863 330.75H223.343L241.793 320.095H200.318L181.863 330.75Z" fill="#FAFAFA"/>
<path fill-rule="evenodd" clip-rule="evenodd" d="M200.252 319.847H242.717L223.409 330.997H180.939L200.252 319.847ZM200.384 320.342L182.787 330.502H223.277L240.869 320.342H200.384Z" fill="black"/>
<path d="M201.743 287.895H213.618L209.788 318.935H201.743V287.895Z" fill="#A0616A"/>
<path d="M225.313 325.515V326.41H200.018V316.635H216.433C221.338 316.635 225.313 320.61 225.313 325.515Z" fill="black"/>
<path d="M142.588 333.709H154.463L150.633 364.754H142.588V333.709Z" fill="#A0616A"/>
<path d="M166.158 371.33V372.225H140.863V362.45H157.278C162.183 362.455 166.158 366.43 166.158 371.33Z" fill="black"/>
<path d="M105.463 272.535C107.218 274.69 110.223 275.365 112.728 274.165C115.723 272.73 116.988 269.134 115.553 266.139L137.788 192.515L125.838 187.375L107.148 263.52C106.843 263.695 106.548 263.895 106.278 264.115C103.723 266.215 103.363 269.985 105.463 272.535Z" fill="#A0616A"/>
<path d="M143.513 126.945C144.028 130.575 147.388 133.1 151.018 132.585L172.973 147.895L181.573 139.535L156.568 124.605C156.488 124.225 156.373 123.85 156.228 123.49C154.863 120.11 151.018 118.475 147.638 119.84C144.788 120.975 143.083 123.91 143.513 126.945Z" fill="#A0616A"/>
<path d="M143.943 255.935C143.943 255.935 125.983 270.51 133.838 278.825C141.693 287.145 139.383 356.145 139.383 356.145L155.098 359.38L167.723 264.63L143.943 255.935Z" fill="black"/>
<path d="M158.328 228.915L130.598 237.375C130.598 237.375 128.633 266.735 130.018 270.43C131.403 274.125 133.368 280.67 141.688 282.52C150.008 284.37 193.813 262.89 193.813 262.89C193.353 265.665 200.193 313.345 200.193 313.345C205.738 314.27 217.358 310.67 216.433 309.285C215.508 307.9 212.953 287.825 212.953 258.25C212.953 228.675 168.298 247.23 168.298 247.23L162.498 238.53L158.328 228.915Z" fill="black"/>
<path d="M148.213 184.345L152.828 170.105C152.828 170.105 175.998 153.755 174.763 152.47C173.528 151.185 153.313 136.215 153.313 136.215C157.053 133.55 157.523 124.345 158.698 124.15C159.873 123.955 188.123 138.52 190.128 151.755C192.133 164.99 158.123 195.345 158.123 195.345L155.798 196.475L148.213 184.345Z" fill="#E4002B"/>
<path d="M119.398 176.06C113.778 179.035 112.123 187.63 112.123 187.63C112.123 187.63 128.323 228.625 129.313 229.285C130.303 229.945 129.643 243.17 129.973 245.815C130.303 248.46 166.888 242.765 168.873 243.755C170.858 244.745 163.363 184.32 163.363 184.32L147.163 167.79C147.163 167.79 147.823 167.79 147.163 167.79C146.503 167.79 129.308 165.805 129.308 165.805C129.308 165.805 125.018 173.085 119.398 176.06Z" fill="#E4002B"/>
<path d="M129.648 225.32L121.323 255.935C121.323 255.935 112.863 256.18 108.563 254.195C104.263 252.21 112.123 187.63 112.123 187.63L117.413 182.01L129.648 225.32Z" fill="#E4002B"/>
<path d="M161.064 146.889C161.285 138.488 154.654 131.499 146.254 131.278C137.853 131.057 130.864 137.688 130.643 146.088C130.422 154.489 137.053 161.478 145.453 161.699C153.854 161.92 160.843 155.289 161.064 146.889Z" fill="#A0616A"/>
<path d="M149.213 146.945C142.983 149.515 140.423 159.515 144.308 165.02C137.913 163.27 127.748 165.255 123.308 160.33C118.868 155.405 116.233 148.685 116.963 142.095C117.693 135.505 126.138 124.03 132.383 121.8C137.468 119.985 143.213 120.9 148.118 123.16C153.023 125.42 157.228 128.925 161.313 132.455C162.893 133.825 164.503 135.245 165.478 137.095C166.453 138.945 166.683 141.335 165.498 143.06C163.708 145.67 159.923 145.555 156.763 145.585C153.598 145.615 149.613 145.725 149.408 148.88L149.213 146.945Z" fill="black"/>
<path fill-rule="evenodd" clip-rule="evenodd" d="M189.992 342.225C189.992 340.378 191.492 338.878 193.343 338.878H211.768C211.787 338.878 211.803 338.88 211.813 338.88C211.823 338.881 211.833 338.882 211.838 338.883L211.841 338.883C212.985 338.876 214.101 339.456 214.734 340.506C215.688 342.095 215.169 344.148 213.586 345.101L213.575 345.108L207.537 348.143H211.768C213.048 348.143 214.158 348.864 214.721 349.918L214.734 349.941C215.688 351.525 215.175 353.583 213.591 354.532L213.58 354.538L207.888 357.398H211.868C213.718 357.398 215.219 358.893 215.219 360.745C215.219 362.591 213.719 364.091 211.868 364.091H193.648C193.615 364.091 193.585 364.089 193.565 364.088L193.563 364.088C193.546 364.087 193.535 364.086 193.526 364.086C192.326 364.153 191.133 363.568 190.471 362.468C189.517 360.878 190.037 358.826 191.619 357.873L191.631 357.866L197.669 354.831H193.648C192.974 354.831 192.35 354.628 191.826 354.291C191.281 354.016 190.807 353.59 190.472 353.034L190.471 353.033C189.517 351.443 190.037 349.391 191.619 348.438L191.631 348.431L197.323 345.571H193.343C191.492 345.571 189.992 344.076 189.992 342.225ZM193.343 339.571C191.874 339.571 190.684 340.761 190.684 342.225C190.684 343.693 191.873 344.878 193.343 344.878H200.243L191.966 349.038C190.717 349.798 190.311 351.419 191.064 352.676C191.335 353.123 191.715 353.463 192.151 353.679L192.17 353.688L192.187 353.7C192.609 353.975 193.109 354.138 193.648 354.138H200.587L191.966 358.473C190.717 359.233 190.311 360.855 191.065 362.111C191.591 362.987 192.542 363.452 193.497 363.394L193.508 363.393H193.518C193.551 363.393 193.581 363.395 193.601 363.396L193.603 363.397C193.626 363.398 193.637 363.398 193.648 363.398H211.868C213.337 363.398 214.527 362.208 214.527 360.745C214.527 359.276 213.337 358.091 211.868 358.091H204.968L213.246 353.931C214.481 353.184 214.888 351.581 214.162 350.333L214.15 350.321L214.126 350.274C213.682 349.419 212.793 348.836 211.768 348.836H204.619L213.24 344.501C214.489 343.742 214.895 342.12 214.141 340.863C213.637 340.027 212.748 339.567 211.836 339.576L211.833 339.576C211.814 339.576 211.798 339.575 211.788 339.574C211.777 339.573 211.767 339.572 211.762 339.571L211.759 339.571H193.343Z" fill="white"/>
<path fill-rule="evenodd" clip-rule="evenodd" d="M238.813 330.23C239.166 330.356 239.441 330.658 239.625 331.078C239.902 331.707 239.956 332.545 239.844 333.379C239.731 334.219 239.445 335.088 239.007 335.79L239 335.801L235.397 340.982L237.69 339.656C237.69 339.656 237.69 339.656 237.69 339.656C238.09 339.424 238.501 339.386 238.864 339.564C239.213 339.736 239.467 340.083 239.628 340.516C239.666 340.603 239.699 340.693 239.728 340.787L239.762 340.879H239.755C239.913 341.448 239.932 342.13 239.84 342.809C239.727 343.648 239.443 344.518 239.008 345.219L239 345.231L235.597 350.123L237.746 348.881C238.028 348.718 238.319 348.648 238.6 348.689C238.881 348.73 239.125 348.879 239.318 349.097C239.696 349.526 239.897 350.239 239.897 351.1C239.897 351.969 239.693 352.868 239.361 353.626C239.034 354.376 238.565 355.023 238.01 355.344L227.377 361.483C227.356 361.495 227.337 361.505 227.326 361.51L227.324 361.511C227.315 361.516 227.311 361.518 227.308 361.519C226.95 361.759 226.555 361.855 226.181 361.741C225.805 361.626 225.513 361.317 225.321 360.876C225.044 360.248 224.99 359.41 225.102 358.575C225.215 357.736 225.501 356.866 225.939 356.165L225.946 356.154L229.549 350.972L227.375 352.229L227.374 352.23C226.963 352.464 226.543 352.499 226.176 352.306C225.802 352.191 225.512 351.887 225.316 351.447C225.039 350.819 224.985 349.98 225.097 349.145C225.21 348.306 225.496 347.436 225.934 346.735L225.941 346.724L229.344 341.832L227.195 343.074C226.913 343.237 226.622 343.306 226.341 343.265C226.059 343.224 225.816 343.076 225.623 342.857C225.245 342.429 225.043 341.715 225.043 340.855C225.043 339.986 225.248 339.086 225.579 338.329C225.907 337.579 226.376 336.931 226.931 336.611L237.685 330.404C237.705 330.392 237.725 330.381 237.747 330.371C238.091 330.171 238.464 330.105 238.813 330.23ZM239.381 340.616L239.135 340.706C239.001 340.343 238.816 340.13 238.631 340.039C238.458 339.954 238.236 339.951 237.956 340.113L233.609 342.627L238.562 335.504C238.952 334.877 239.215 334.084 239.32 333.309C239.425 332.528 239.364 331.798 239.141 331.291C238.995 330.957 238.809 330.791 238.635 330.728C238.464 330.667 238.249 330.686 237.999 330.837L237.974 330.851L237.959 330.856L227.195 337.069C226.78 337.308 226.371 337.838 226.064 338.541C225.76 339.236 225.572 340.064 225.572 340.855C225.572 341.654 225.763 342.216 226.02 342.507C226.145 342.649 226.28 342.722 226.418 342.742C226.557 342.762 226.728 342.733 226.931 342.616L231.132 340.188L226.379 347.02C225.989 347.648 225.726 348.441 225.621 349.216C225.516 349.997 225.577 350.726 225.8 351.233C225.959 351.591 226.158 351.752 226.348 351.805L226.38 351.814L226.408 351.829C226.584 351.929 226.813 351.94 227.111 351.77C227.111 351.77 227.112 351.77 227.111 351.77L231.337 349.328L226.384 356.45C225.994 357.078 225.731 357.871 225.626 358.646C225.521 359.427 225.582 360.157 225.805 360.663C225.957 361.013 226.153 361.179 226.336 361.235C226.518 361.291 226.75 361.258 227.02 361.076L227.032 361.068C227.053 361.055 227.074 361.045 227.085 361.039L227.087 361.038C227.101 361.031 227.104 361.03 227.107 361.028L227.111 361.026L237.746 354.886C238.161 354.646 238.57 354.116 238.877 353.414C239.181 352.719 239.368 351.891 239.368 351.1C239.368 350.3 239.178 349.739 238.921 349.447C238.796 349.306 238.661 349.233 238.523 349.213C238.384 349.192 238.213 349.222 238.01 349.339C238.01 349.339 238.01 349.339 238.01 349.339L233.809 351.767L238.562 344.935C238.95 344.307 239.212 343.514 239.316 342.739C239.421 341.957 239.362 341.227 239.141 340.721L239.381 340.616Z" fill="white"/>
</svg>
