<svg width="572" height="309" viewBox="0 0 572 309" fill="none" xmlns="http://www.w3.org/2000/svg">
<path d="M572 198.115C572.03 214.665 567.515 230.9 558.94 245.055C558.94 262.365 550.87 278.055 537.78 289.49C534.505 292.355 530.975 294.915 527.24 297.145C527.09 297.24 526.935 297.33 526.78 297.42C526.5 297.585 526.22 297.75 525.935 297.92L525.67 298.075C513.28 304.98 499.315 308.565 485.13 308.485H108.585C82.6201 308.485 59.1151 299.445 42.0852 284.835C25.0552 270.225 14.5602 250.005 14.5602 227.705C5.02517 213.02 -0.0348196 195.88 0.000180349 178.37C0.000180349 128.8 39.6202 88.6149 88.5001 88.6149C90.2301 88.6149 91.9451 88.6749 93.6501 88.7699C124.32 36.47 193.5 0 273.87 0C323.28 0 368.445 13.775 403.04 36.535C416.145 29.125 430.945 25.24 446 25.26C494.87 25.26 534.5 65.4449 534.5 115.015C534.495 118.15 534.325 121.285 534 124.405C557.905 141.325 572.08 168.825 572 198.115Z" fill="#E6E6E6"/>
<path opacity="0.1" d="M206.5 226.46C314.748 226.46 402.5 224.109 402.5 221.21C402.5 218.31 314.748 215.96 206.5 215.96C98.2524 215.96 10.5002 218.31 10.5002 221.21C10.5002 224.109 98.2524 226.46 206.5 226.46Z" fill="#6C63FF"/>
<g opacity="0.7">
<path d="M133.5 182.46H71.0002V216.96H133.5V182.46Z" fill="#65617D" fill-opacity="0.3"/>
<path opacity="0.1" d="M112 188.46H93.0002V192.46H112V188.46Z" fill="black"/>
<path opacity="0.1" d="M109.625 188.96H95.3752V191.96H109.625V188.96Z" fill="black"/>
<path d="M197 182.46H134.5V216.96H197V182.46Z" fill="#65617D" fill-opacity="0.3"/>
<path opacity="0.1" d="M175.5 188.46H156.5V192.46H175.5V188.46Z" fill="black"/>
<path opacity="0.1" d="M173.125 188.96H158.875V191.96H173.125V188.96Z" fill="black"/>
<path d="M133.5 146.96H71.0002V181.46H133.5V146.96Z" fill="#65617D" fill-opacity="0.3"/>
<path opacity="0.1" d="M112 152.96H93.0002V156.96H112V152.96Z" fill="black"/>
<path opacity="0.1" d="M109.625 153.46H95.3752V156.46H109.625V153.46Z" fill="black"/>
<path d="M197 146.96H134.5V181.46H197V146.96Z" fill="#65617D" fill-opacity="0.3"/>
<path opacity="0.1" d="M175.5 152.96H156.5V156.96H175.5V152.96Z" fill="black"/>
<path opacity="0.1" d="M173.125 153.46H158.875V156.46H173.125V153.46Z" fill="black"/>
<path d="M133.5 110.96H71.0002V145.46H133.5V110.96Z" fill="#65617D" fill-opacity="0.3"/>
<path opacity="0.1" d="M112 116.96H93.0002V120.96H112V116.96Z" fill="black"/>
<path opacity="0.1" d="M109.625 117.46H95.3752V120.46H109.625V117.46Z" fill="black"/>
<path d="M197 110.96H134.5V145.46H197V110.96Z" fill="#65617D" fill-opacity="0.3"/>
<path opacity="0.1" d="M175.5 116.96H156.5V120.96H175.5V116.96Z" fill="black"/>
<path opacity="0.1" d="M173.125 117.46H158.875V120.46H173.125V117.46Z" fill="black"/>
<path d="M197 74.96H134.5V109.46H197V74.96Z" fill="#65617D" fill-opacity="0.3"/>
<path opacity="0.1" d="M175.5 80.96H156.5V84.96H175.5V80.96Z" fill="black"/>
<path opacity="0.1" d="M173.125 81.46H158.875V84.46H173.125V81.46Z" fill="black"/>
</g>
<g opacity="0.7">
<path d="M260.5 181.96H198V216.46H260.5V181.96Z" fill="#65617D" fill-opacity="0.3"/>
<path opacity="0.1" d="M239 187.96H220V191.96H239V187.96Z" fill="black"/>
<path opacity="0.1" d="M236.625 188.46H222.375V191.46H236.625V188.46Z" fill="black"/>
<path d="M324 181.96H261.5V216.46H324V181.96Z" fill="#65617D" fill-opacity="0.3"/>
<path opacity="0.1" d="M302.5 187.96H283.5V191.96H302.5V187.96Z" fill="black"/>
<path opacity="0.1" d="M300.125 188.46H285.875V191.46H300.125V188.46Z" fill="black"/>
<path d="M260.5 146.46H198V180.96H260.5V146.46Z" fill="#65617D" fill-opacity="0.3"/>
<path opacity="0.1" d="M239 152.46H220V156.46H239V152.46Z" fill="black"/>
<path opacity="0.1" d="M236.625 152.96H222.375V155.96H236.625V152.96Z" fill="black"/>
<path d="M324 146.46H261.5V180.96H324V146.46Z" fill="#65617D" fill-opacity="0.3"/>
<path opacity="0.1" d="M302.5 152.46H283.5V156.46H302.5V152.46Z" fill="black"/>
<path opacity="0.1" d="M300.125 152.96H285.875V155.96H300.125V152.96Z" fill="black"/>
<path d="M260.5 110.46H198V144.96H260.5V110.46Z" fill="#65617D" fill-opacity="0.3"/>
<path opacity="0.1" d="M239 116.46H220V120.46H239V116.46Z" fill="black"/>
<path opacity="0.1" d="M236.625 116.96H222.375V119.96H236.625V116.96Z" fill="black"/>
<path d="M324 110.46H261.5V144.96H324V110.46Z" fill="#65617D" fill-opacity="0.3"/>
<path opacity="0.1" d="M302.5 116.46H283.5V120.46H302.5V116.46Z" fill="black"/>
<path opacity="0.1" d="M300.125 116.96H285.875V119.96H300.125V116.96Z" fill="black"/>
<path d="M324 74.46H261.5V108.96H324V74.46Z" fill="#65617D" fill-opacity="0.3"/>
<path opacity="0.1" d="M302.5 80.46H283.5V84.46H302.5V80.46Z" fill="black"/>
<path opacity="0.1" d="M300.125 80.96H285.875V83.96H300.125V80.96Z" fill="black"/>
</g>
<path d="M358.68 153.835C358.595 153.065 358.13 152.39 357.435 152.045C356.255 151.54 354.89 152.09 354.385 153.27C354.375 153.295 354.365 153.32 354.355 153.345L343.25 176.71L340.75 268.71H344.75L346.25 176.915L358.47 155.285C358.69 154.835 358.76 154.325 358.68 153.835Z" fill="#3F3D56"/>
<path opacity="0.1" d="M537.78 289.49C534.505 292.355 530.975 294.915 527.24 297.145C527.18 297.225 527.115 297.305 527.045 297.375C526.65 297.71 526.175 297.95 525.67 298.065C513.28 304.97 499.315 308.555 485.13 308.475H210.22C178.72 305.235 159.5 300.94 159.5 296.225C159.5 292.57 171.04 289.165 190.91 286.315C192.97 286.015 195.12 285.725 197.355 285.445C198.73 285.27 200.14 285.105 201.58 284.945L204.025 284.66C205.84 284.455 207.7 284.25 209.61 284.055H209.765L211.765 283.855C213.455 283.68 215.18 283.515 216.94 283.355L218.22 283.24L221.485 282.95C223.605 282.76 225.77 282.58 227.985 282.405C229.82 282.26 231.69 282.12 233.585 281.975C252.815 280.55 274.985 279.475 299.11 278.78L306 278.545L308.32 278.495L313.22 278.385L315.185 278.345L317.25 278.305L318.72 278.28L325.62 278.17L329.165 278.12H329.89C338.275 278.02 346.815 277.97 355.51 277.965C372.7 277.965 389.37 278.17 405.255 278.56C414.375 278.78 423.215 279.06 431.78 279.4H431.86C456.55 280.37 478.65 281.8 496.94 283.575L497.275 283.61C501.97 284.065 506.415 284.55 510.585 285.05C514.51 285.52 518.195 286.015 521.615 286.52C522.8 286.695 523.95 286.875 525.07 287.05L525.355 287.1C530.095 287.865 534.255 288.645 537.78 289.49Z" fill="#6C63FF"/>
<path d="M527.24 297.144C527.18 297.224 527.115 297.304 527.045 297.374C526.65 297.709 526.175 297.949 525.67 298.064C524.66 298.349 523.62 298.514 522.57 298.564H522.255C521.655 298.584 521.055 298.564 520.46 298.504C520.025 298.439 519.585 298.414 519.145 298.419H519.085C518.445 298.509 517.815 298.664 517.21 298.884C515.855 299.254 514.465 299.454 513.06 299.474H512.56C510.99 299.474 509.4 299.419 507.825 299.429C507.57 299.429 507.325 299.429 507.06 299.429C504.36 299.499 501.675 299.929 498.975 299.974H498.11C495.465 299.909 492.76 299.344 490.655 297.744C490.23 297.464 489.885 297.079 489.655 296.624C489.475 296.144 489.415 295.629 489.48 295.124C489.53 294.219 489.705 293.234 490.385 292.624C490.81 292.294 491.3 292.059 491.825 291.929C492.74 291.634 493.66 291.349 494.575 291.064C495.49 290.779 496.535 290.474 497.52 290.184L497.71 290.124L498.26 289.959L498.615 289.839C499.045 289.699 499.46 289.514 499.845 289.279C500.355 288.954 500.785 288.524 501.11 288.014C501.165 287.924 501.225 287.829 501.275 287.734C501.325 287.639 501.275 287.579 501.24 287.499C501.155 286.874 501.09 286.234 500.98 285.624C499.575 285.299 498.29 284.574 497.285 283.534C496.42 282.679 495.695 281.694 495.13 280.619C493.885 278.279 493.245 275.664 492.315 273.179C490.89 269.399 488.815 265.909 486.725 262.449C484.815 259.259 482.895 256.059 480.725 253.044C479.28 251.044 477.725 249.139 476.295 247.134C472.25 241.539 469.35 235.204 467.755 228.484C467.51 227.195 467.165 225.929 466.72 224.694C465.86 222.594 464.285 220.884 463.065 218.964C461.755 216.894 460.855 214.59 460.42 212.18C460.17 210.81 459.75 209.33 458.385 209.18L458.24 209.464C455.41 214.964 452.505 220.565 448.24 225.055C447.56 225.715 446.935 226.434 446.375 227.199C445.925 227.944 445.525 228.714 445.175 229.509C444.5 230.934 443.605 232.249 442.52 233.395C442.2 233.719 441.845 234.014 441.47 234.279C440.97 234.644 440.415 234.919 439.825 235.104C439.595 235.174 439.355 235.229 439.115 235.264C439.115 235.324 439.14 235.379 439.145 235.439C439.15 235.499 439.175 235.569 439.185 235.634C439.92 239.634 439.605 243.759 438.27 247.599C438.235 247.719 438.195 247.834 438.15 247.954C437.945 248.514 437.72 249.064 437.475 249.604C436.865 250.929 436.14 252.199 435.57 253.544C435.475 253.774 435.38 254.004 435.295 254.234C433.295 259.589 433.795 265.569 433.535 271.324C433.51 272.584 433.365 273.834 433.09 275.064C432.75 276.449 432.205 277.879 431.905 279.309C431.63 280.379 431.61 281.504 431.84 282.584L431.72 282.629C431.185 282.829 430.64 283.009 430.095 283.179V283.254C430.29 284.374 430.48 285.494 430.675 286.609C430.84 287.569 431.035 288.609 431.705 289.289C431.885 289.439 432.055 289.609 432.205 289.789C432.6 290.409 432.25 291.229 432.325 291.964C432.435 293.004 433.395 293.889 433.245 294.924C433.11 295.554 432.67 296.074 432.075 296.314C431.83 296.424 431.57 296.509 431.305 296.559L431.14 296.594C430.84 296.649 430.54 296.679 430.24 296.709C426.515 297.079 422.74 297.449 419.05 296.819C418.32 296.694 417.595 296.529 416.855 296.469C415.92 296.429 414.985 296.464 414.055 296.584C407.21 297.234 400.325 297.364 393.46 296.984C391.675 296.884 389.625 296.594 388.68 295.069C387.895 293.804 388.18 292.169 388.575 290.724C388.69 290.194 388.895 289.684 389.18 289.224C389.21 289.174 389.25 289.129 389.29 289.084C390.21 287.939 391.94 287.869 393.43 287.914L398.3 288.059C398.78 288.099 399.26 288.059 399.73 287.949C400.52 287.719 401.12 287.089 401.86 286.734C402.79 286.289 403.96 286.234 404.63 285.474L404.715 285.364C404.835 285.204 404.945 285.034 405.045 284.864C405.045 284.829 405.09 284.794 405.115 284.759C405.135 284.729 405.155 284.699 405.175 284.669C405.79 283.859 406.865 283.589 407.74 283.074C407.87 282.999 408 282.909 408.115 282.809L408.215 282.719C407.275 282.049 406.45 281.219 405.785 280.274C405.53 279.999 405.34 279.664 405.23 279.304C405.17 279.034 405.19 278.749 405.29 278.489C405.31 278.424 405.34 278.364 405.37 278.304L405.395 278.254C405.735 277.584 406.435 276.979 406.82 276.294C406.835 276.274 406.845 276.249 406.855 276.224C407.385 275.224 407.49 273.674 406.705 272.869C407.105 266.284 408.915 259.869 409.315 253.264C409.475 250.649 409.41 248.024 409.53 245.399C409.65 242.774 409.93 240.229 410.225 237.654C410.885 231.769 412.485 226.004 412.26 220.094C412.24 219.544 412.265 218.99 412.33 218.445C412.33 218.404 412.33 218.365 412.33 218.325C412.49 217.115 412.87 215.94 413.445 214.865C414.17 213.65 414.99 212.49 415.9 211.404C418.975 207.404 422.67 203.405 423.765 198.485C424.33 195.945 425.58 193.62 426.825 191.335C427.56 189.975 428.325 188.58 429.5 187.58C430.135 187.14 430.725 186.635 431.265 186.08C432.085 185.02 432.115 183.555 432.6 182.295C432.85 181.64 433.235 181.04 433.425 180.365C433.425 180.295 433.46 180.23 433.475 180.16C433.585 179.48 433.645 178.79 433.65 178.1C433.65 177.9 433.68 177.705 433.705 177.51C433.995 175.535 434.57 173.61 435.41 171.795C435.515 171.565 435.615 171.33 435.715 171.1C433.41 169.755 431.375 167.99 429.715 165.895C429.155 165.22 428.665 164.48 428.26 163.7C427.23 161.655 426.995 159.325 426.51 157.085C425.35 151.745 422.695 146.715 422.325 141.255C422.215 139.59 422.325 137.87 421.745 136.295C421.585 135.87 421.395 135.455 421.18 135.055C421.09 134.885 421.005 134.715 420.915 134.555L420.815 134.365L420.56 133.865L420.15 134.185C409.92 142.195 399.18 149.53 388 156.145L387.04 156.715C386.54 156.955 386.105 157.315 385.77 157.755C385.73 157.82 385.695 157.885 385.66 157.95C385.43 158.425 385.37 158.95 385.16 159.45C384.71 160.595 383.555 161.325 382.375 161.665C380.24 162.215 377.975 161.92 376.05 160.85C375.805 160.725 375.55 160.595 375.33 160.45C374.745 160.775 374.13 161.035 373.49 161.235C371.49 161.815 369.395 161.79 367.325 161.785C365.255 161.78 363.14 161.785 361.18 162.465C359.87 162.91 358.6 163.645 357.24 163.715C357.085 163.725 356.925 163.725 356.77 163.715C355.995 163.625 355.24 163.405 354.54 163.06L354.13 162.875C353.92 162.775 353.71 162.66 353.51 162.54C353.29 162.405 353.09 162.245 352.905 162.065C352.64 161.8 352.45 161.47 352.345 161.11C352.275 160.85 352.275 160.575 352.345 160.315C352.365 160.2 352.425 160.09 352.515 160.015C352.605 159.96 352.705 159.935 352.81 159.94C353.385 159.935 353.955 159.98 354.52 160.085C354.85 160.13 355.185 160.15 355.52 160.14H355.7C356.295 160.075 356.84 159.77 357.2 159.29C357.255 159.215 357.3 159.135 357.33 159.05C357.39 158.91 357.42 158.76 357.42 158.605C357.425 158.565 357.425 158.53 357.42 158.49C357.21 158.395 357 158.3 356.8 158.185C356.695 158.13 356.595 158.07 356.495 158.01L356.435 157.97C356.255 157.85 356.09 157.71 355.935 157.555C355.84 157.46 355.75 157.35 355.68 157.235C355.545 157.055 355.445 156.85 355.385 156.635C354.975 156.55 354.545 156.56 354.14 156.67C353.595 156.82 353.045 157.14 352.505 157.25C352.23 157.32 351.945 157.305 351.68 157.215C350.9 156.935 350.625 155.985 350.46 155.17C350.43 155.015 350.395 154.855 350.37 154.695C350.315 154.39 350.315 154.07 350.37 153.765C350.61 153.065 351.075 152.465 351.685 152.05L353.325 150.675L353.445 150.575C353.445 150.44 353.39 150.305 353.37 150.17C353.31 149.86 353.31 149.545 353.37 149.235C353.61 148.54 354.075 147.94 354.685 147.525L358.315 144.47C358.995 143.9 359.735 143.3 360.62 143.24C361.935 143.15 362.985 144.24 363.97 145.115C365.21 146.215 366.715 147.115 368.37 147.225C369.16 147.26 369.945 147.155 370.695 146.905L371.12 146.765C371.03 146.58 370.94 146.395 370.855 146.21C370.71 145.905 370.565 145.595 370.425 145.285C372.555 145.15 374.49 143.98 376.105 142.58C377.72 141.18 379.105 139.525 380.735 138.15C382.495 136.65 384.515 135.535 386.3 134.09C390.45 130.725 393.205 125.78 397.645 122.815C399.185 121.78 400.965 120.955 402.015 119.415C402.34 118.915 402.585 118.415 402.92 117.915C403.985 116.415 405.81 115.725 407.315 114.685C408.82 113.645 410.13 112.12 411.355 110.655C412.225 109.61 413.1 108.565 413.93 107.49C414.695 106.065 415.34 104.575 416.14 103.17C416.82 101.985 417.61 100.865 418.505 99.8296C418.71 99.4296 418.92 99.0296 419.145 98.6396C419.37 98.2496 419.535 97.9846 419.745 97.6396C419.89 97.4146 420.04 97.1996 420.195 96.9796C419.74 96.1746 419.305 95.4796 419.1 95.1746L419 95.0396C418.56 94.5696 418.09 94.1296 417.59 93.7196C417.065 93.6396 416.55 93.5296 416.04 93.3896C409.695 91.6496 405.3 85.8796 405.31 79.3046C405.305 79.2896 405.305 79.2746 405.31 79.2596C405.31 76.9696 405.855 74.7096 406.9 72.6696C407.11 72.2596 407.335 71.8646 407.58 71.4796C407.35 71.4096 407.13 71.3196 406.915 71.2096C406.55 71.0296 406.23 70.7696 405.985 70.4446C405.78 70.1546 405.65 69.8246 405.6 69.4746C405.515 68.6496 405.64 67.8196 405.96 67.0546C406.095 66.6846 406.25 66.3246 406.425 65.9746C406.44 65.9546 406.45 65.9346 406.46 65.9096C408.695 61.4096 413.46 58.6446 418.22 58.4496C423.355 58.2446 428.355 60.6546 432.405 64.1046C433.615 65.0946 434.695 66.2346 435.625 67.4896C437.74 70.4296 438.695 74.1896 438.975 77.9146C439.08 79.0646 439.06 80.2246 438.915 81.3746C438.86 81.7846 438.78 82.1896 438.665 82.5846C438.6 82.8196 438.515 83.0546 438.425 83.2896C438.335 83.5246 438.28 83.6296 438.2 83.7896V83.8146C438.125 83.9746 438.04 84.1246 437.955 84.2746L437.91 84.3396L437.845 84.4446C437.885 84.5396 437.93 84.6396 437.975 84.7346C438.02 84.8296 438.06 84.9196 438.11 85.0096H438.17C439.17 85.0896 440.095 85.2296 441.115 85.3096C441.595 85.3346 442.07 85.4046 442.535 85.5296C443.535 85.8296 444.29 86.5596 445.13 87.1496C447.21 88.6196 449.77 89.3046 451.815 90.8246C454.815 93.0646 456.315 96.7646 458.135 100.08C460.535 104.52 464.445 108.3 466.17 113.05C466.95 115.205 467.735 117.36 468.52 119.51C470.055 123.725 471.59 127.96 473.675 131.935C476.575 137.465 480.5 142.435 482.825 148.245C483.055 148.825 483.49 149.305 484.045 149.595C487.215 154.07 490.03 158.78 492.47 163.69C493.755 166.285 494.97 168.98 495.345 171.855C495.64 174.415 495.425 177.005 494.72 179.485C494.32 180.955 493.83 182.405 493.255 183.815C493.03 184.31 492.86 184.83 492.755 185.36C492.755 185.415 492.755 185.47 492.755 185.525C492.655 186.485 493.02 187.435 493.12 188.395C493.205 189.17 493.115 189.95 492.865 190.685C492.825 190.8 492.78 190.915 492.735 191.03C492.425 191.615 492.16 192.225 491.95 192.85C491.93 192.925 491.92 193.005 491.91 193.08C491.745 194.165 492.175 195.26 492.41 196.345C493.29 200.265 493.13 204.344 492.91 208.344C492.795 210.344 494.41 211.95 495.76 213.425C498.26 216.19 500.215 219.425 502.1 222.645C503.13 224.28 503.995 226.009 504.685 227.814C505.4 229.874 505.685 232.054 506.08 234.189C507.355 240.789 511.52 246.619 512.65 253.234C513.175 256.264 514.51 259.094 516.515 261.424C517.12 262.049 517.675 262.719 518.18 263.424C518.53 263.989 518.805 264.594 519.005 265.224C519.495 266.694 519.73 268.239 519.69 269.789C519.61 270.529 519.655 271.279 519.815 272.009C520.285 273.544 521.965 274.389 522.66 275.834C523.355 277.279 522.875 279.129 523.16 280.769C523.385 282.089 524.1 283.279 525.16 284.099C524.76 284.449 524.34 284.769 523.91 285.099C524.31 285.409 524.655 285.774 524.945 286.189C525.14 286.464 525.31 286.764 525.445 287.074C526.105 288.609 526.125 290.434 526.665 292.074C526.895 292.754 527.22 293.474 527.02 294.164C526.935 294.364 526.875 294.569 526.85 294.784C526.85 295.234 527.32 295.529 527.5 295.939C527.63 296.354 527.53 296.814 527.24 297.144Z" fill="url(#paint0_linear_628_25445)"/>
<path d="M421.42 102.145C424.48 101.32 427.205 99.5951 429.875 97.8901L439.18 91.9651C436.655 91.7651 434.475 89.9651 433.18 87.7851C431.885 85.6051 431.35 83.0701 430.91 80.5801C426.91 82.1401 423.445 84.7851 420.215 87.5801C418.935 88.6851 416.215 90.3551 415.82 92.0801C415.425 93.8051 417.945 95.2051 418.92 96.3601C419.255 96.7451 422.41 101.87 421.42 102.145Z" fill="#FBBEBE"/>
<path opacity="0.1" d="M421.42 102.145C424.48 101.32 427.205 99.5951 429.875 97.8901L439.18 91.9651C436.655 91.7651 434.475 89.9651 433.18 87.7851C431.885 85.6051 431.35 83.0701 430.91 80.5801C426.91 82.1401 423.445 84.7851 420.215 87.5801C418.935 88.6851 416.215 90.3551 415.82 92.0801C415.425 93.8051 417.945 95.2051 418.92 96.3601C419.255 96.7451 422.41 101.87 421.42 102.145Z" fill="black"/>
<path d="M370.575 151.085C368.935 151.925 367.19 152.785 365.355 152.665C363.705 152.56 362.2 151.665 360.96 150.57C359.96 149.7 358.93 148.615 357.615 148.705C356.735 148.765 355.995 149.36 355.315 149.925L351.69 152.96C351.08 153.37 350.62 153.965 350.375 154.66C350.305 155.13 350.33 155.61 350.46 156.07C350.625 156.88 350.9 157.825 351.68 158.1C352.46 158.375 353.31 157.785 354.135 157.56C355.16 157.3 356.25 157.62 356.97 158.395C357.265 158.685 357.445 159.075 357.47 159.485C357.47 160.39 356.47 160.985 355.55 161.03C354.63 161.075 353.75 160.775 352.84 160.83C352.615 160.8 352.405 160.96 352.375 161.19C352.375 161.195 352.375 161.195 352.375 161.2C352.26 161.84 352.48 162.5 352.96 162.94C353.435 163.375 353.99 163.715 354.59 163.94C355.29 164.285 356.045 164.505 356.82 164.59C358.355 164.69 359.765 163.84 361.22 163.345C363.18 162.685 365.29 162.665 367.36 162.67C369.43 162.675 371.53 162.705 373.515 162.125C375.5 161.545 377.385 160.26 378.16 158.345C378.25 158.165 378.28 157.96 378.245 157.765C378.17 157.555 378.02 157.375 377.825 157.265C375.035 155.2 373.905 152.69 370.765 151.205L370.575 151.085Z" fill="#FBBEBE"/>
<path opacity="0.1" d="M370.575 151.085C368.935 151.925 367.19 152.785 365.355 152.665C363.705 152.56 362.2 151.665 360.96 150.57C359.96 149.7 358.93 148.615 357.615 148.705C356.735 148.765 355.995 149.36 355.315 149.925L351.69 152.96C351.08 153.37 350.62 153.965 350.375 154.66C350.305 155.13 350.33 155.61 350.46 156.07C350.625 156.88 350.9 157.825 351.68 158.1C352.46 158.375 353.31 157.785 354.135 157.56C355.16 157.3 356.25 157.62 356.97 158.395C357.265 158.685 357.445 159.075 357.47 159.485C357.47 160.39 356.47 160.985 355.55 161.03C354.63 161.075 353.75 160.775 352.84 160.83C352.615 160.8 352.405 160.96 352.375 161.19C352.375 161.195 352.375 161.195 352.375 161.2C352.26 161.84 352.48 162.5 352.96 162.94C353.435 163.375 353.99 163.715 354.59 163.94C355.29 164.285 356.045 164.505 356.82 164.59C358.355 164.69 359.765 163.84 361.22 163.345C363.18 162.685 365.29 162.665 367.36 162.67C369.43 162.675 371.53 162.705 373.515 162.125C375.5 161.545 377.385 160.26 378.16 158.345C378.25 158.165 378.28 157.96 378.245 157.765C378.17 157.555 378.02 157.375 377.825 157.265C375.035 155.2 373.905 152.69 370.765 151.205L370.575 151.085Z" fill="black"/>
<path opacity="0.1" d="M429.125 97.7601C427.555 96.7451 425.6 96.5201 423.835 97.1451C422.095 97.7701 420.53 98.8151 419.28 100.18C418.03 101.45 416.95 102.88 416.065 104.425C415.215 105.925 414.565 107.495 413.715 108.99C412.215 111.665 410.255 114.025 408.285 116.365C407.06 117.82 405.82 119.295 404.25 120.365C402.68 121.435 400.925 122.09 399.86 123.575C399.525 124.045 399.285 124.575 398.955 125.05C397.91 126.58 396.135 127.4 394.59 128.425C390.16 131.375 387.405 136.285 383.265 139.63C381.48 141.07 379.465 142.2 377.71 143.67C376.075 145.035 374.71 146.67 373.08 148.07C371.45 149.47 369.535 150.625 367.41 150.755C368.83 153.92 370.525 157.025 372.96 159.49C375.395 161.955 379.045 163.53 382.37 162.565C383.55 162.225 384.705 161.505 385.155 160.365C385.295 159.78 385.495 159.21 385.745 158.66C386.08 158.22 386.515 157.865 387.01 157.625C400.36 149.835 413.08 141.02 425.065 131.26C428.28 128.64 431.47 126.295 434.77 123.76C435.955 122.92 437.045 121.96 438.035 120.9C440.85 117.54 441.37 112.82 439.355 108.925C438.47 107.47 437.455 106.095 436.325 104.82C434.265 102.14 431.84 99.7651 429.125 97.7601Z" fill="black"/>
<path d="M407.64 283.245C406.765 283.745 405.69 284.025 405.075 284.835C404.875 285.095 404.74 285.4 404.525 285.65C403.86 286.43 402.68 286.465 401.755 286.91C401.015 287.26 400.415 287.91 399.63 288.115C399.16 288.225 398.675 288.265 398.195 288.225L393.335 288.08C391.795 288.035 389.99 288.115 389.095 289.37C388.805 289.83 388.6 290.34 388.485 290.87C388.11 292.305 387.805 293.93 388.59 295.19C389.53 296.69 391.59 296.995 393.365 297.095C400.22 297.475 407.1 297.34 413.935 296.695C414.86 296.575 415.795 296.54 416.725 296.58C417.465 296.64 418.19 296.805 418.92 296.93C422.605 297.555 426.375 297.19 430.095 296.82C430.725 296.79 431.345 296.66 431.93 296.43C432.525 296.19 432.96 295.67 433.095 295.045C433.25 294.015 432.285 293.14 432.18 292.105C432.105 291.375 432.455 290.56 432.055 289.94C431.905 289.755 431.74 289.59 431.555 289.44C430.885 288.745 430.69 287.73 430.525 286.78L429.65 281.645C429.625 281.285 429.475 280.94 429.23 280.675C429.045 280.545 428.835 280.455 428.61 280.42C424.8 279.56 420.895 280.345 417.11 280.825C415.16 281.11 413.19 281.21 411.225 281.12C410.375 281.065 410.045 280.965 409.41 281.52C408.775 282.075 408.435 282.78 407.64 283.245Z" fill="black"/>
<path d="M499.645 289.425C498.975 289.8 498.26 290.08 497.515 290.26C495.55 290.835 493.59 291.43 491.635 292.055C491.115 292.185 490.625 292.42 490.2 292.745C489.52 293.345 489.345 294.325 489.295 295.245C489.23 295.75 489.29 296.265 489.47 296.745C489.705 297.195 490.05 297.575 490.47 297.855C492.71 299.55 495.635 300.075 498.445 300.075C501.255 300.075 504.045 299.6 506.855 299.525C510.25 299.435 513.735 299.915 517 298.965C517.625 298.735 518.27 298.575 518.93 298.495C519.37 298.49 519.805 298.515 520.24 298.58C521.99 298.755 523.76 298.59 525.45 298.105C525.96 297.99 526.435 297.755 526.83 297.42C527.235 297.07 527.38 296.51 527.2 296.01C527.02 295.605 526.56 295.31 526.555 294.865C526.58 294.65 526.635 294.44 526.72 294.245C526.925 293.56 526.595 292.845 526.365 292.17C525.72 290.24 525.825 288.02 524.67 286.345C523.515 284.67 521.395 283.98 519.38 283.715C517.74 283.485 516.075 283.53 514.455 283.855C512.63 284.245 510.925 285.06 509.135 285.58C507.06 286.175 504.885 286.385 502.735 286.185C501.305 286.065 501.795 286.29 501.31 287.49C500.965 288.29 500.38 288.965 499.645 289.425Z" fill="black"/>
<path d="M419.75 95.2099C427.758 95.2099 434.25 88.7181 434.25 80.7099C434.25 72.7018 427.758 66.21 419.75 66.21C411.742 66.21 405.25 72.7018 405.25 80.7099C405.25 88.7181 411.742 95.2099 419.75 95.2099Z" fill="#FBBEBE"/>
<path d="M524.87 284.24C520.37 288.105 514.295 289.795 508.37 289.855C505.87 289.88 503.275 289.61 501.145 288.315C500.995 287.495 500.935 286.61 500.785 285.79C498.2 285.25 496.195 283.145 494.945 280.815C493.695 278.485 493.06 275.895 492.13 273.425C490.71 269.665 488.63 266.2 486.55 262.76C484.64 259.59 482.725 256.41 480.55 253.415C479.11 251.415 477.55 249.535 476.125 247.54C472.09 241.985 469.19 235.69 467.6 229.01C467.355 227.73 467.01 226.47 466.565 225.245C465.705 223.155 464.13 221.455 462.915 219.55C461.605 217.495 460.705 215.205 460.27 212.805C460.025 211.445 459.605 209.975 458.24 209.835C455.37 215.41 452.445 221.075 448.105 225.61C447.425 226.265 446.8 226.975 446.24 227.74C445.79 228.48 445.39 229.25 445.04 230.04C444.365 231.46 443.47 232.76 442.39 233.9C441.485 234.87 440.285 235.525 438.98 235.76C439.945 240.565 439.37 245.55 437.34 250.01C436.735 251.33 436.01 252.59 435.44 253.925C433.11 259.425 433.65 265.63 433.405 271.595C433.385 272.845 433.235 274.09 432.965 275.31C432.36 277.75 431.11 280.345 431.715 282.785C425.445 285.18 418.48 285.03 411.84 284.02C410.54 283.9 409.28 283.52 408.135 282.895C407.195 282.23 406.37 281.405 405.705 280.465C405.45 280.19 405.26 279.86 405.15 279.5C404.89 278.36 406.15 277.5 406.735 276.5C407.32 275.5 407.425 273.915 406.62 273.095C407.02 266.55 408.83 260.16 409.23 253.595C409.39 250.995 409.325 248.385 409.445 245.78C409.565 243.175 409.845 240.64 410.135 238.08C410.795 232.235 412.395 226.505 412.17 220.63C412.1 218.82 412.515 217.03 413.375 215.435C414.1 214.225 414.915 213.075 415.825 211.995C418.895 208.03 422.585 204.055 423.68 199.16C424.245 196.635 425.495 194.325 426.735 192.055C427.47 190.7 428.235 189.315 429.405 188.32C430.04 187.88 430.635 187.375 431.17 186.82C431.99 185.765 432.02 184.32 432.505 183.06C432.755 182.41 433.14 181.81 433.325 181.14C433.48 180.4 433.555 179.645 433.55 178.89C433.71 176.47 434.64 174.13 435.62 171.915C433.315 170.58 431.28 168.825 429.62 166.745C429.06 166.07 428.575 165.335 428.17 164.56C427.14 162.53 426.905 160.215 426.42 157.99C425.265 152.68 422.61 147.685 422.24 142.26C422.13 140.605 422.24 138.895 421.665 137.33C421.4 136.67 421.09 136.025 420.735 135.405C420.385 134.795 420.12 134.145 419.945 133.465C419.625 131.99 420.065 130.465 419.945 128.965C419.825 127.64 419.26 126.4 418.98 125.105C418.695 123.42 418.645 121.705 418.835 120.005C418.96 118.005 419.395 115.94 419.225 113.965C418.67 107.355 420.95 100.82 425.5 95.9948L425.615 95.8798C426.57 94.8798 427.615 93.9948 428.475 92.9348C429.645 91.5148 430.475 89.8448 431.71 88.4648C432.25 87.8498 432.86 87.2998 433.395 86.6798C433.885 86.0298 434.43 85.4198 435.02 84.8598C435.625 84.2949 436.475 84.0698 437.28 84.2548C437.38 84.9998 437.615 85.7198 437.97 86.3848C439.01 86.4648 439.935 86.6099 440.97 86.6899C441.45 86.7148 441.925 86.7848 442.39 86.9098C443.365 87.2048 444.145 87.9098 444.98 88.5148C447.06 89.9798 449.615 90.6598 451.66 92.1698C454.66 94.3948 456.16 98.0698 457.97 101.365C460.365 105.78 464.27 109.535 465.97 114.255L468.315 120.675C469.85 124.865 471.385 129.07 473.465 133.02C476.36 138.52 480.28 143.475 482.605 149.23C482.835 149.805 483.27 150.28 483.82 150.57C486.985 155.01 489.8 159.69 492.235 164.57C493.52 167.15 494.735 169.83 495.105 172.685C495.65 176.72 494.55 180.8 493.02 184.57C492.775 185.11 492.605 185.68 492.52 186.27C492.42 187.225 492.785 188.165 492.885 189.12C492.98 190.01 492.85 190.915 492.5 191.74C492.19 192.32 491.925 192.925 491.715 193.55C491.445 194.7 491.925 195.87 492.185 197.02C493.065 200.915 492.905 204.95 492.685 208.94C492.57 210.94 494.185 212.525 495.53 213.99C498.03 216.735 499.98 219.945 501.865 223.15C502.89 224.775 503.755 226.495 504.445 228.29C505.16 230.335 505.445 232.5 505.84 234.625C507.11 241.18 511.27 246.975 512.4 253.55C512.925 256.56 514.26 259.375 516.26 261.685C516.865 262.31 517.42 262.98 517.925 263.685C518.27 264.245 518.545 264.845 518.745 265.475C519.235 266.935 519.47 268.47 519.43 270.01C519.35 270.745 519.395 271.49 519.555 272.215C520.025 273.74 521.705 274.58 522.395 276.015C523.085 277.45 522.61 279.29 522.895 280.92C523.11 282.235 523.815 283.42 524.87 284.24Z" fill="#E4002B"/>
<path d="M373.575 146.585C371.935 147.425 370.19 148.285 368.355 148.165C366.705 148.06 365.2 147.165 363.96 146.07C362.96 145.2 361.93 144.115 360.615 144.205C359.735 144.265 358.995 144.86 358.315 145.425L354.69 148.46C354.08 148.87 353.62 149.465 353.375 150.16C353.305 150.63 353.33 151.11 353.46 151.57C353.625 152.38 353.9 153.325 354.68 153.6C355.46 153.875 356.31 153.285 357.135 153.06C358.16 152.8 359.25 153.12 359.97 153.895C360.265 154.185 360.445 154.575 360.47 154.985C360.47 155.89 359.47 156.485 358.55 156.53C357.63 156.575 356.75 156.275 355.84 156.33C355.615 156.3 355.405 156.46 355.375 156.69C355.375 156.695 355.375 156.695 355.375 156.7C355.26 157.34 355.48 158 355.96 158.44C356.435 158.875 356.99 159.215 357.59 159.44C358.29 159.785 359.045 160.005 359.82 160.09C361.355 160.19 362.765 159.34 364.22 158.845C366.18 158.185 368.29 158.165 370.36 158.17C372.43 158.175 374.53 158.205 376.515 157.625C378.5 157.045 380.385 155.76 381.16 153.845C381.25 153.665 381.28 153.46 381.245 153.265C381.17 153.055 381.02 152.875 380.825 152.765C378.035 150.7 376.905 148.19 373.765 146.705L373.575 146.585Z" fill="#FBBEBE"/>
<path d="M412.695 71.7998C411.83 71.9398 411.095 72.5247 410.275 72.8497C409.16 73.2797 407.915 73.2148 406.855 72.6698C406.49 72.4898 406.17 72.2297 405.92 71.9097C405.25 70.9797 405.485 69.6298 405.895 68.5398C407.835 63.3848 413.015 60.1948 418.145 59.9898C423.275 59.7848 428.265 62.1798 432.31 65.6048C433.515 66.5948 434.595 67.7248 435.525 68.9698C437.635 71.8948 438.59 75.6298 438.87 79.3298C439.035 80.8848 438.935 82.4548 438.565 83.9697C438.205 85.4597 437.255 86.7397 435.935 87.5147C434.505 88.2447 432.79 88.0147 431.345 87.3147C429.9 86.6147 428.66 85.5097 427.42 84.4548C426.86 83.9147 426.195 83.4897 425.465 83.2097C424.725 82.9447 423.895 83.1397 423.35 83.7097C422.68 84.5147 422.85 85.8347 422.24 86.7097C421.63 87.5847 420.36 87.7097 419.29 87.7097C418.22 87.7097 417.135 87.6197 416.495 86.7697C415.91 85.9997 415.995 84.8747 416.215 83.9047C416.435 82.9347 416.81 81.9747 416.715 80.9797C416.51 78.9797 414.76 77.7497 414.215 75.9097C413.86 74.7047 414.64 74.1948 414.56 73.1048C414.5 72.1448 413.47 71.6748 412.695 71.7998Z" fill="black"/>
<path opacity="0.1" d="M458.25 209.71V209.835C455.38 215.41 452.455 221.075 448.115 225.61C447.435 226.265 446.81 226.975 446.25 227.74C445.8 228.48 445.4 229.25 445.05 230.04C444.375 231.46 443.48 232.76 442.4 233.9L438.78 235.71L450.28 175.71L458.25 209.71Z" fill="black"/>
<path opacity="0.1" d="M441.535 118.9C440.545 119.96 439.455 120.92 438.27 121.76C434.97 124.26 431.77 126.62 428.565 129.26C425.98 131.365 423.36 133.425 420.705 135.44C420.355 134.83 420.09 134.18 419.915 133.5C419.595 132.025 420.035 130.5 419.915 129C419.795 127.675 419.23 126.435 418.95 125.14C418.665 123.455 418.615 121.74 418.805 120.04C418.93 118.04 419.365 115.975 419.195 114C418.635 107.375 420.93 100.825 425.5 95.9947L425.615 95.8796C426.155 95.5646 426.725 95.3097 427.315 95.1197C429.08 94.4997 431.035 94.7347 432.605 95.7597C435.325 97.7647 437.745 100.14 439.805 102.82C440.935 104.095 441.95 105.47 442.835 106.925C444.855 110.81 444.34 115.535 441.535 118.9Z" fill="black"/>
<path d="M432.125 93.2601C430.555 92.2451 428.6 92.0201 426.835 92.6451C425.095 93.2701 423.53 94.3151 422.28 95.6801C421.03 96.9501 419.95 98.3801 419.065 99.9251C418.215 101.425 417.565 102.995 416.715 104.49C415.215 107.165 413.255 109.525 411.285 111.865C410.06 113.32 408.82 114.795 407.25 115.865C405.68 116.935 403.925 117.59 402.86 119.075C402.525 119.545 402.285 120.075 401.955 120.55C400.91 122.08 399.135 122.9 397.59 123.925C393.16 126.875 390.405 131.785 386.265 135.13C384.48 136.57 382.465 137.7 380.71 139.17C379.075 140.535 377.71 142.17 376.08 143.57C374.45 144.97 372.535 146.125 370.41 146.255C371.83 149.42 373.525 152.525 375.96 154.99C378.395 157.455 382.045 159.03 385.37 158.065C386.55 157.725 387.705 157.005 388.155 155.865C388.295 155.28 388.495 154.71 388.745 154.16C389.08 153.72 389.515 153.365 390.01 153.125C403.36 145.335 416.08 136.52 428.065 126.76C431.28 124.14 434.47 121.795 437.77 119.26C438.955 118.42 440.045 117.46 441.035 116.4C443.85 113.04 444.37 108.32 442.355 104.425C441.47 102.97 440.455 101.595 439.325 100.32C437.265 97.6401 434.84 95.2651 432.125 93.2601Z" fill="#E4002B"/>
<g opacity="0.1">
<path d="M420.29 85.6948C419.29 85.6948 418.135 85.6048 417.495 84.7548C416.915 83.9848 416.995 82.8598 417.215 81.8898C417.435 80.9198 417.81 79.9598 417.715 78.9648C417.51 76.9648 415.76 75.7348 415.215 73.8948C414.86 72.6898 415.64 72.1798 415.56 71.0898C415.49 70.1448 414.465 69.6748 413.69 69.7998C412.825 69.9398 412.09 70.5248 411.27 70.8498C410.155 71.2798 408.91 71.2148 407.85 70.6698C407.485 70.4898 407.165 70.2298 406.915 69.9098C406.245 68.9798 406.48 67.6298 406.89 66.5398C406.89 66.4998 406.925 66.4648 406.94 66.4248C406.52 67.0948 406.17 67.7998 405.89 68.5398C405.48 69.6298 405.245 70.9798 405.915 71.9098C406.165 72.2298 406.485 72.4898 406.85 72.6698C407.91 73.2148 409.155 73.2798 410.27 72.8498C411.09 72.5248 411.825 71.9398 412.69 71.7998C413.465 71.6748 414.49 72.1448 414.56 73.0898C414.64 74.1798 413.86 74.6898 414.215 75.8948C414.75 77.7348 416.5 78.9848 416.715 80.9648C416.815 81.9648 416.45 82.9248 416.215 83.8898C415.98 84.8548 415.915 85.9848 416.495 86.7548C417.135 87.6048 418.28 87.6848 419.29 87.6948C420.3 87.7048 421.6 87.6348 422.24 86.6948C422.515 86.2248 422.7 85.6998 422.775 85.1598C422.095 85.6448 421.14 85.7048 420.29 85.6948Z" fill="black"/>
<path d="M436.935 85.5149C435.505 86.2449 433.79 86.0149 432.345 85.3149C430.9 84.6149 429.66 83.5099 428.42 82.4549C427.86 81.9149 427.195 81.4899 426.465 81.2099C425.725 80.9449 424.895 81.1399 424.35 81.7099C424.01 82.2099 423.795 82.7899 423.725 83.3899C424.25 83.0799 424.885 83.0149 425.465 83.2049C426.195 83.4849 426.86 83.9099 427.42 84.4499C428.66 85.5049 429.92 86.6149 431.345 87.3099C432.77 88.0049 434.505 88.2399 435.935 87.5099C437.2 86.7699 438.12 85.5599 438.5 84.1449C438.085 84.7149 437.55 85.1799 436.935 85.5149Z" fill="black"/>
</g>
<path d="M312.5 300.46C320.784 300.46 327.5 293.744 327.5 285.46C327.5 277.176 320.784 270.46 312.5 270.46C304.216 270.46 297.5 277.176 297.5 285.46C297.5 293.744 304.216 300.46 312.5 300.46Z" fill="#3F3D56"/>
<path opacity="0.1" d="M312.5 300.46C320.784 300.46 327.5 293.744 327.5 285.46C327.5 277.176 320.784 270.46 312.5 270.46C304.216 270.46 297.5 277.176 297.5 285.46C297.5 293.744 304.216 300.46 312.5 300.46Z" fill="black"/>
<path d="M312.5 294.96C317.747 294.96 322 290.707 322 285.46C322 280.213 317.747 275.96 312.5 275.96C307.253 275.96 303 280.213 303 285.46C303 290.707 307.253 294.96 312.5 294.96Z" fill="#65617D"/>
<path opacity="0.1" d="M312.5 294.96C317.747 294.96 322 290.707 322 285.46C322 280.213 317.747 275.96 312.5 275.96C307.253 275.96 303 280.213 303 285.46C303 290.707 307.253 294.96 312.5 294.96Z" fill="black"/>
<path d="M301 261.96L310.84 284.21C311.265 285.175 312.39 285.615 313.355 285.19C313.77 285.01 314.105 284.685 314.305 284.28L326 260.46L301 261.96Z" fill="#3F3D56"/>
<path opacity="0.1" d="M301 261.96L310.84 284.21C311.265 285.175 312.39 285.615 313.355 285.19C313.77 285.01 314.105 284.685 314.305 284.28L326 260.46L301 261.96Z" fill="black"/>
<path d="M219 300.46C227.284 300.46 234 293.744 234 285.46C234 277.176 227.284 270.46 219 270.46C210.716 270.46 204 277.176 204 285.46C204 293.744 210.716 300.46 219 300.46Z" fill="#3F3D56"/>
<path opacity="0.1" d="M219 300.46C227.284 300.46 234 293.744 234 285.46C234 277.176 227.284 270.46 219 270.46C210.716 270.46 204 277.176 204 285.46C204 293.744 210.716 300.46 219 300.46Z" fill="black"/>
<path d="M219 294.96C224.247 294.96 228.5 290.707 228.5 285.46C228.5 280.213 224.247 275.96 219 275.96C213.753 275.96 209.5 280.213 209.5 285.46C209.5 290.707 213.753 294.96 219 294.96Z" fill="#65617D"/>
<path opacity="0.1" d="M219 294.96C224.247 294.96 228.5 290.707 228.5 285.46C228.5 280.213 224.247 275.96 219 275.96C213.753 275.96 209.5 280.213 209.5 285.46C209.5 290.707 213.753 294.96 219 294.96Z" fill="black"/>
<path d="M207.5 261.96L217.34 284.21C217.765 285.175 218.89 285.615 219.855 285.19C220.27 285.01 220.605 284.685 220.805 284.28L232.5 260.46L207.5 261.96Z" fill="#3F3D56"/>
<path opacity="0.1" d="M207.5 261.96L217.34 284.21C217.765 285.175 218.89 285.615 219.855 285.19C220.27 285.01 220.605 284.685 220.805 284.28L232.5 260.46L207.5 261.96Z" fill="black"/>
<path d="M361.18 154.835C361.095 154.065 360.63 153.39 359.935 153.045C358.755 152.54 357.39 153.09 356.885 154.27C356.875 154.295 356.865 154.32 356.855 154.345L348.25 175.71L345.75 271.71H349.75L351.25 175.915L360.97 156.285C361.19 155.835 361.26 155.325 361.18 154.835Z" fill="#3F3D56"/>
<path d="M184.25 264.21L197.75 255.71L343.5 254.46L347.25 264.21H184.25Z" fill="#E4002B"/>
<path d="M184.25 273.209V264.209L349.89 262.609L349.73 268.709H187.25V273.209H184.25Z" fill="#3F3D56"/>
<path d="M205.25 305.71C213.534 305.71 220.25 298.994 220.25 290.71C220.25 282.426 213.534 275.71 205.25 275.71C196.966 275.71 190.25 282.426 190.25 290.71C190.25 298.994 196.966 305.71 205.25 305.71Z" fill="#3F3D56"/>
<path d="M205.25 300.21C210.497 300.21 214.75 295.957 214.75 290.71C214.75 285.463 210.497 281.21 205.25 281.21C200.003 281.21 195.75 285.463 195.75 290.71C195.75 295.957 200.003 300.21 205.25 300.21Z" fill="#65617D"/>
<path d="M193.75 267.21L203.59 289.46C204.015 290.425 205.14 290.865 206.105 290.44C206.52 290.26 206.855 289.935 207.055 289.53L218.75 265.71L193.75 267.21Z" fill="#3F3D56"/>
<path d="M321.75 305.71C330.034 305.71 336.75 298.994 336.75 290.71C336.75 282.426 330.034 275.71 321.75 275.71C313.466 275.71 306.75 282.426 306.75 290.71C306.75 298.994 313.466 305.71 321.75 305.71Z" fill="#3F3D56"/>
<path d="M321.75 300.21C326.997 300.21 331.25 295.957 331.25 290.71C331.25 285.463 326.997 281.21 321.75 281.21C316.503 281.21 312.25 285.463 312.25 290.71C312.25 295.957 316.503 300.21 321.75 300.21Z" fill="#65617D"/>
<path d="M310.25 267.21L320.09 289.46C320.515 290.425 321.64 290.865 322.605 290.44C323.02 290.26 323.355 289.935 323.555 289.53L335.25 265.71L310.25 267.21Z" fill="#3F3D56"/>
<defs>
<linearGradient id="paint0_linear_628_25445" x1="438.94" y1="299.972" x2="438.94" y2="58.4355" gradientUnits="userSpaceOnUse">
<stop stop-color="#808080" stop-opacity="0.25"/>
<stop offset="0.54" stop-color="#808080" stop-opacity="0.12"/>
<stop offset="1" stop-color="#808080" stop-opacity="0.1"/>
</linearGradient>
</defs>
</svg>
