<svg width="302" height="216" viewBox="0 0 302 216" fill="none" xmlns="http://www.w3.org/2000/svg">
<path d="M253.164 159.957H1.08704L29.1962 0.546265H281.273L253.164 159.957Z" fill="#E6E6E6"/>
<path fill-rule="evenodd" clip-rule="evenodd" d="M29.0821 0.410278H281.435L253.278 160.093H0.925049L29.0821 0.410278ZM29.3103 0.682153L1.24906 159.821H253.05L281.111 0.682153H29.3103Z" fill="black"/>
<path d="M301.036 19.05L272.927 178.464H20.8524L48.9616 19.05H301.036Z" fill="#FAFAFA"/>
<path fill-rule="evenodd" clip-rule="evenodd" d="M48.8474 18.9141H301.198L273.041 178.6H20.6903L48.8474 18.9141ZM49.0755 19.1859L21.0143 178.328H272.813L300.874 19.1859H49.0755Z" fill="black"/>
<path d="M301.036 19.05L299.652 26.9208H47.575L48.9615 19.05H301.036Z" fill="#E4002B"/>
<path d="M53.3116 24.667C54.241 24.667 54.9945 23.9135 54.9945 22.9841C54.9945 22.0546 54.241 21.3011 53.3116 21.3011C52.3821 21.3011 51.6287 22.0546 51.6287 22.9841C51.6287 23.9135 52.3821 24.667 53.3116 24.667Z" fill="#FAFAFA"/>
<path d="M59.2112 24.667C60.1407 24.667 60.8941 23.9135 60.8941 22.9841C60.8941 22.0546 60.1407 21.3011 59.2112 21.3011C58.2818 21.3011 57.5283 22.0546 57.5283 22.9841C57.5283 23.9135 58.2818 24.667 59.2112 24.667Z" fill="#FAFAFA"/>
<path d="M64.9341 24.667C65.8636 24.667 66.617 23.9135 66.617 22.9841C66.617 22.0546 65.8636 21.3011 64.9341 21.3011C64.0047 21.3011 63.2512 22.0546 63.2512 22.9841C63.2512 23.9135 64.0047 24.667 64.9341 24.667Z" fill="#FAFAFA"/>
<path d="M100.411 81.8882L110.411 68.3842L105.87 55.8372H115.487L117.556 63.3844H117.594L121.979 55.8372H132.362L123.379 68.3842L128.648 81.8882H118.899L116.275 73.384H116.237L110.911 81.8882H100.411Z" fill="#E6E6E6"/>
<path d="M198.294 81.8882L208.294 68.3842L203.753 55.8372H213.37L215.439 63.3844H215.477L219.862 55.8372H230.245L221.262 68.3842L226.531 81.8882H216.782L214.158 73.384H214.12L208.794 81.8882H198.294Z" fill="#E6E6E6"/>
<path fill-rule="evenodd" clip-rule="evenodd" d="M233.969 149.48C191.909 107.417 123.844 107.417 81.7801 149.48L71.3989 139.099C119.196 91.3021 196.556 91.3019 244.351 139.099L233.969 149.48Z" fill="#E6E6E6"/>
<path d="M53.3278 202.759H56.4598L57.9496 190.685H53.3278V202.759Z" fill="#FFB6B6"/>
<path d="M42.0124 202.759H45.1416L46.6315 190.685H42.0096L42.0124 202.759Z" fill="#FFB6B6"/>
<path d="M35.3949 132.911L39.6362 166.662L41.9444 196.226H47.2813L50.0299 166.2L49.5677 144.259L52.8003 165.275L52.1723 196.226H58.1073L63.1941 165.738L62.77 130.818L35.3949 132.911Z" fill="black"/>
<path d="M53.2626 79.3547H44.0977L41.2539 83.2208L33.8616 86.6573L38.2496 113.51L35.2481 133.49C35.2481 133.49 56.2668 139.937 63.1969 131.987C63.9554 130.984 62.6287 129.945 62.906 128.502L61.5792 112.651L61.8103 85.1511L54.6491 82.5737L53.2626 79.3547Z" fill="#890000"/>
<path d="M28.6497 131.473L30.561 123.763L35.1176 124.241L32.8067 132.321C32.9182 132.553 32.997 132.805 33.0378 133.072C33.2553 134.524 32.2548 135.878 30.803 136.098C29.3512 136.315 27.9972 135.315 27.777 133.863C27.6383 132.936 27.9972 132.05 28.6497 131.473Z" fill="#FFB6B6"/>
<path d="M36.303 86.0293L35.2318 86.0239C32.1351 87.0815 31.412 89.5909 31.2244 90.257C30.3217 93.4706 30.6915 96.9424 30.338 100.257C30.058 102.875 29.7154 105.498 29.7698 108.135C29.8242 110.816 30.3489 113.462 30.2565 116.153C30.1341 119.81 29.5877 123.428 29.1907 127.061C29.1527 127.403 29.1146 127.746 29.0765 128.088L35.2454 128.121L40.0413 98.299L35.7511 89.4196C35.7021 87.9216 37.7956 85.9016 36.303 86.0293Z" fill="#890000"/>
<path d="M63.9745 60.5247L66.0027 67.7892L70.3146 67.2101L67.8977 59.6058C67.9955 59.3828 68.0635 59.1409 68.0961 58.888C68.2647 57.5042 67.2778 56.2454 65.894 56.0795C64.5101 55.911 63.2513 56.8979 63.0855 58.2817C62.9767 59.1653 63.341 59.9945 63.9745 60.5247Z" fill="#FFB6B6"/>
<path d="M54.97 90.3874C55.4267 92.1301 57.1314 93.2475 58.9122 92.9621C61.7016 92.5135 65.5894 91.5374 67.4055 89.4793L72.93 85.6677L74.6129 84.1859C75.5346 83.373 75.8717 82.0816 75.4612 80.9234L68.8546 62.2646L63.7379 63.8116C65.1109 67.8816 66.5654 71.9298 67.8596 76.0242C68.0091 76.4946 68.1042 76.9649 68.4658 77.3292C66.1087 78.2047 63.9908 79.7054 62.384 81.6385C62.0659 82.0218 61.7587 82.4296 61.3291 82.677C60.2117 83.3268 59.097 83.1664 58.0965 84.1207C57.7132 84.4877 57.3788 84.9037 57.077 85.3387C56.922 85.5643 56.7752 85.7954 56.6338 86.0292C56.5441 86.1788 56.2587 86.5213 56.2587 86.6953C55.1141 87.5517 54.6084 89.0117 54.97 90.3874Z" fill="#890000"/>
<path d="M48.6244 78.2809C52.9638 78.2809 56.4816 74.7631 56.4816 70.4237C56.4816 66.0843 52.9638 62.5665 48.6244 62.5665C44.285 62.5665 40.7672 66.0843 40.7672 70.4237C40.7672 74.7631 44.285 78.2809 48.6244 78.2809Z" fill="#FFB6B6"/>
<path d="M54.6464 65.4973C54.4099 66.6392 55.9433 68.0883 55.7067 69.2247C55.5491 69.9969 55.3642 70.807 54.7797 71.3861C54.2332 71.9217 53.4176 72.1664 52.8194 72.6504C52.012 73.3056 51.6775 74.3904 51.9956 75.3229C52.2077 75.9373 52.6753 76.5844 52.6346 77.1798C52.6264 77.3293 52.5856 77.4761 52.4986 77.6175C52.137 78.2238 51.2208 78.2972 50.4568 78.2972H46.637C43.8503 78.2945 41.4143 76.4566 40.5959 73.7895C40.4709 73.3926 40.3431 73.0174 40.2071 72.6939C39.658 71.3834 39.2556 70.0213 39.0136 68.6402C38.7852 67.3515 40.025 66.7153 40.5606 65.5C41.1424 64.1624 41.0962 62.4143 42.5208 61.7726C43.9481 61.1256 45.4571 62.0663 47.0285 61.8053L47.0883 61.7944C48.9642 61.4573 50.9843 59.9864 52.8194 60.4323C53.877 60.6906 54.8884 61.2316 55.6034 61.9657C55.0977 62.2321 54.554 62.4143 53.9967 62.5149C54.747 62.504 55.5083 62.6046 56.2342 62.8112C56.4272 63.1619 56.555 63.5425 56.5985 63.9395C56.6665 64.5349 54.9428 64.8503 54.6736 65.413C54.6627 65.4402 54.6519 65.4701 54.6464 65.4973Z" fill="black"/>
<path d="M64.4312 203.197C64.4012 203.833 63.6563 205.418 63.0473 205.6C61.2121 206.149 52.4659 205.91 52.1315 204.684C51.3105 205.442 52.1125 198.561 53.1347 199.445C55.2227 201.247 56.6827 200.418 56.9709 198.961L57.3189 198.08L57.3869 198.178C57.5989 198.488 57.0742 197.558 57.4467 197.536C57.4902 197.533 58.4635 199.496 58.7761 199.719L58.8006 199.76C59.6407 201.117 61.1877 201.867 62.7727 201.688C63.2648 201.633 63.7759 201.794 64.0886 202.174C64.3197 202.452 64.4475 202.811 64.4312 203.197Z" fill="black"/>
<path d="M53.1837 203.197C53.1538 203.833 52.4089 205.418 51.7999 205.6C49.9647 206.149 41.2185 205.91 40.8841 204.684C40.063 205.442 40.865 198.561 41.8873 199.445C43.9753 201.247 45.4353 200.418 45.7235 198.961L46.0715 198.08L46.1394 198.178C46.3515 198.488 45.8268 197.558 46.1992 197.536C46.2427 197.533 47.216 199.496 47.5287 199.719L47.5532 199.76C48.3933 201.117 49.9402 201.867 51.5253 201.688C52.0174 201.633 52.5285 201.794 52.8412 202.174C53.0722 202.452 53.2 202.811 53.1837 203.197Z" fill="black"/>
<path d="M228.394 196.707L223.576 195.277L221.415 208.62L224.68 209.591L228.394 196.707Z" fill="#FFB6B6"/>
<path d="M244.6 204.088L244.274 203.313L243.98 202.62L243.64 201.818L243.621 201.777L243.056 200.437L240.291 193.879L240.144 193.529H240.141L239.845 192.819L235.218 194.771L239.611 202.46L240.446 203.92L240.903 204.719L241.226 205.282L241.925 206.505L242.254 206.367L242.259 206.364L242.273 206.358V206.353C242.477 206.187 242.683 206.021 242.887 205.853C243.292 205.518 243.7 205.181 244.1 204.839C244.301 204.667 244.5 204.496 244.698 204.322L244.6 204.088Z" fill="#FFB6B6"/>
<path d="M268.705 167.516C268.702 167.51 268.694 167.486 268.68 167.448L268.669 167.423C268.642 167.344 268.609 167.26 268.574 167.165C267.761 164.979 266.823 162.842 265.766 160.762C265.132 159.487 264.368 158.28 263.487 157.16C263.457 157.125 263.427 157.086 263.398 157.051L263.294 156.932L262.642 157.296L262.617 157.309L252.691 162.842L249.82 164.441L249.73 164.492L249.545 166.692L242.161 166.901H242.112L239.608 166.972L236.052 167.072L234.312 167.121C232.787 167.165 231.346 167.815 230.305 168.929C229.22 170.085 228.644 171.629 228.706 173.214C228.712 173.388 228.725 173.562 228.744 173.731L231.273 193.017L231.275 193.042L231.591 193.482L238.157 202.688L241.609 202.142L243.646 201.815L245.302 201.554L245.008 201.057L240.478 193.387L240.538 193.257C241.036 192.145 240.981 190.867 240.394 189.798L240.604 188.613C241.041 186.166 240.484 185.111 239.78 183.779C239.165 182.703 238.722 181.536 238.461 180.326L238.129 178.749C239.288 178.769 240.408 178.807 241.493 178.856C242.354 178.894 243.2 178.94 244.029 178.989C244.075 178.991 244.122 178.994 244.165 178.997C244.747 179.03 245.321 179.065 245.894 179.103C247.645 179.212 249.336 179.315 250.986 179.367C254.325 179.47 257.49 179.356 260.641 178.616C260.703 178.603 260.763 178.586 260.826 178.57C261.59 178.385 262.356 178.162 263.123 177.896C263.552 177.746 263.985 177.583 264.417 177.404C264.537 177.352 264.659 177.3 264.779 177.251C265.11 177.105 265.423 176.917 265.708 176.694C265.725 176.681 265.744 176.667 265.76 176.651C266.149 176.343 266.5 175.99 266.804 175.601C266.807 175.598 266.81 175.598 266.807 175.596C267.283 174.625 267.742 173.644 268.185 172.649C268.422 172.116 268.658 171.577 268.887 171.039C269.134 169.75 269.107 168.489 268.705 167.516Z" fill="black"/>
<path d="M268.574 167.168C268.256 169.098 266.981 170.737 265.184 171.515C265.086 171.558 264.988 171.599 264.885 171.64C264.458 171.822 264.023 171.996 263.58 172.165C262.375 172.627 261.119 173.046 259.809 173.421C255.146 174.758 249.798 175.549 243.521 175.838C241.591 175.927 239.568 175.968 237.453 175.96C236.996 175.96 236.534 175.957 236.066 175.952L232.407 190.881C232.189 191.767 231.917 192.637 231.588 193.488C231.39 194.007 231.17 194.521 230.93 195.021L228.84 199.423L227.586 199.502L222.842 199.809L222.524 199.831L223.614 192.428C223.34 187.749 223.772 183.056 224.895 178.508L226.773 170.9C226.754 170.74 226.743 170.58 226.738 170.419C226.675 168.834 227.252 167.29 228.337 166.134C229.375 165.02 230.819 164.367 232.344 164.327L235.598 164.234L241.658 164.063L247.539 163.897H247.558L250.19 160.645L250.462 160.373V160.645C250.459 160.643 250.459 160.645 250.462 160.645L250.413 160.588L251.152 158.609L251.147 157.212L261.353 154.164L261.435 154.262C261.448 154.275 261.459 154.292 261.473 154.305C261.755 154.634 262.03 154.96 262.297 155.278C262.827 155.915 263.324 156.529 263.792 157.125C264.757 158.351 265.583 159.49 266.293 160.566C266.924 161.51 267.5 162.489 268.022 163.495C268.09 163.628 268.155 163.766 268.21 163.902C268.637 164.93 268.764 166.064 268.574 167.168Z" fill="black"/>
<path d="M226.181 207.623L225.033 215.36L222.785 214.833L222.88 212.612L221.352 214.496L215.379 213.095C214.936 212.992 214.574 212.677 214.408 212.255C214.131 211.546 214.482 210.746 215.191 210.469L220.732 208.297L221.235 206.146L221.79 206.312L225.322 207.367L226.181 207.623Z" fill="black"/>
<path d="M245.089 201.59L245.299 201.557L245.005 201.06L245.089 201.59Z" fill="#2F2E41"/>
<path d="M244.755 201.462L249.382 207.769L247.411 208.977L245.919 207.332L246.161 209.746L240.932 212.954C240.546 213.191 240.068 213.223 239.652 213.038C238.956 212.728 238.641 211.916 238.951 211.22L241.359 205.777L240.204 203.895L240.715 203.623L243.967 201.886L244.755 201.462Z" fill="black"/>
<path d="M220.468 102.877C220.561 101.733 221.425 100.797 222.562 100.621C223.919 100.406 225.191 101.333 225.406 102.69L229.215 109.707L226.773 113.567L223.157 105.555C223.013 105.569 222.866 105.569 222.722 105.555C221.358 105.436 220.352 104.237 220.468 102.877Z" fill="#FFB6B6"/>
<path d="M223.979 107.575L228.94 106.102L236.33 120.498L252.846 128.877C253.186 129.051 253.51 129.252 253.814 129.486C256.549 131.579 257.071 135.494 254.978 138.229C252.882 140.962 248.972 141.481 246.234 139.393L229.666 126.715L223.979 107.575Z" fill="#E4002B"/>
<path d="M262.133 131.269C260.203 130.636 262.136 129.135 261.065 126.384L254.564 126.756L246.452 137.686C242.42 144.591 246.721 148.232 247.039 148.824L248.839 154.496L249.831 159.993L250.152 160.757L269.159 167.701C270.439 165.678 269.912 161.885 265.29 154.077L264.953 141.777C265.858 135.921 266.5 135.271 262.133 131.269Z" fill="#E4002B"/>
<path d="M277.878 176.305C277.415 177.357 276.295 177.958 275.162 177.757C273.81 177.515 272.908 176.224 273.15 174.872L271.842 166.996L275.412 164.144L276.214 172.899C276.355 172.934 276.494 172.98 276.627 173.04C277.875 173.597 278.435 175.057 277.878 176.305Z" fill="#FFB6B6"/>
<path d="M276.094 170.718L270.923 170.493L268.639 154.474L255.763 141.16C255.497 140.885 255.258 140.586 255.048 140.268C253.145 137.397 253.931 133.526 256.802 131.625C259.676 129.728 263.542 130.513 265.445 133.382L276.967 150.774L276.094 170.718Z" fill="#E4002B"/>
<path d="M265.086 107.991C268.938 111.3 270.711 114.07 268.555 120.527C266.619 126.326 260.63 126.979 256.019 123.997C251.753 121.237 250.252 115.99 252.55 111.46C255.035 106.564 260.57 104.114 265.086 107.991Z" fill="black"/>
<path d="M263.862 121.55C266.214 118.404 265.643 113.959 262.576 111.509C259.436 109 254.858 109.514 252.349 112.651L252.286 112.733C249.858 115.927 250.475 120.487 253.664 122.92C256.859 125.359 261.426 124.744 263.862 121.55Z" fill="#FFB6B6"/>
<path d="M260.353 107.953L265.154 110.675L261.527 117.077C258.789 116.006 255.924 114.959 255.222 113.505C255.293 113.048 255.429 112.608 255.628 112.192C255.212 112.434 254.836 112.744 254.521 113.108C252.947 112.673 251.506 111.855 250.323 110.729C251.952 106.423 256.495 105.283 260.353 107.953Z" fill="black"/>
<path d="M266.905 109.549C266.886 110.196 266.981 110.841 267.182 111.455L266.543 111.156C267.16 111.841 267.487 112.695 267.835 113.516C268.18 114.34 268.582 115.182 269.292 115.783C270.001 116.384 271.108 116.667 271.88 116.216C272.807 115.677 272.843 114.429 272.633 113.396C272.391 112.203 271.97 111.053 271.383 109.987C271.059 109.326 270.586 108.753 270.001 108.309C269.387 107.885 268.541 107.698 267.886 107.999C267.31 108.304 266.935 108.894 266.905 109.549Z" fill="black"/>
<path d="M251.99 122.243L253.352 123.015L259.738 119.761L255.032 123.915C259.442 125.889 264.629 124.187 267.011 119.984C268.653 117.083 267.636 113.399 264.735 111.757L259.583 108.837C260.16 115.626 258.838 120.998 251.99 122.243Z" fill="black"/>
</svg>
