<svg width="308" height="208" viewBox="0 0 308 208" fill="none" xmlns="http://www.w3.org/2000/svg">
<path d="M252.899 160.522H0.824463L28.9336 1.10767H281.008L252.899 160.522Z" fill="#E6E6E6"/>
<path fill-rule="evenodd" clip-rule="evenodd" d="M28.8196 0.97168H281.17L253.013 160.657H0.662476L28.8196 0.97168ZM29.0477 1.24355L0.986485 160.386H252.785L280.846 1.24355H29.0477Z" fill="black"/>
<path d="M300.773 19.6115L272.661 179.025H20.5871L48.699 19.6115H300.773Z" fill="#FAFAFA"/>
<path fill-rule="evenodd" clip-rule="evenodd" d="M48.5849 19.4755H300.935L272.775 179.161H20.425L48.5849 19.4755ZM48.813 19.7473L20.7491 178.889H272.547L300.611 19.7473H48.813Z" fill="black"/>
<path d="M300.773 19.6115L299.387 27.4822H47.3124L48.699 19.6115H300.773Z" fill="#E4002B"/>
<path d="M53.0489 25.231C53.9784 25.231 54.7318 24.4776 54.7318 23.5481C54.7318 22.6187 53.9784 21.8652 53.0489 21.8652C52.1195 21.8652 51.366 22.6187 51.366 23.5481C51.366 24.4776 52.1195 25.231 53.0489 25.231Z" fill="#FAFAFA"/>
<path d="M58.9487 25.231C59.8781 25.231 60.6316 24.4776 60.6316 23.5481C60.6316 22.6187 59.8781 21.8652 58.9487 21.8652C58.0192 21.8652 57.2657 22.6187 57.2657 23.5481C57.2657 24.4776 58.0192 25.231 58.9487 25.231Z" fill="#FAFAFA"/>
<path d="M64.6689 25.231C65.5983 25.231 66.3518 24.4776 66.3518 23.5481C66.3518 22.6187 65.5983 21.8652 64.6689 21.8652C63.7394 21.8652 62.986 22.6187 62.986 23.5481C62.986 24.4776 63.7394 25.231 64.6689 25.231Z" fill="#FAFAFA"/>
<path d="M103.218 82.45L113.218 68.946L108.677 56.3989H118.294L120.363 63.9462H120.401L124.786 56.3989H135.169L126.186 68.946L131.455 82.45H121.706L119.082 73.9457H119.044L113.718 82.45H103.218Z" fill="#E6E6E6"/>
<path d="M201.101 82.45L211.101 68.946L206.56 56.3989H216.177L218.246 63.9462H218.284L222.669 56.3989H233.052L224.069 68.946L229.338 82.45H219.589L216.965 73.9457H216.927L211.601 82.45H201.101Z" fill="#E6E6E6"/>
<path fill-rule="evenodd" clip-rule="evenodd" d="M236.773 150.044C194.713 107.981 126.648 107.981 84.5843 150.044L74.2031 139.663C122 91.8662 199.361 91.866 247.155 139.663L236.773 150.044Z" fill="#E6E6E6"/>
<path d="M278.947 185.469H255.974C255.849 183.628 255.86 181.782 256.006 179.944C256.925 168.591 263.102 157.773 272.422 151.224C271.231 155.465 271.843 159.684 273.083 163.917C272.909 163.974 272.735 164.026 272.577 164.091C271.318 164.556 270.166 165.266 269.179 166.177C268.907 166.432 268.616 166.805 268.757 167.161C268.882 167.457 269.252 167.558 269.576 167.623C270.353 167.773 271.131 167.919 271.9 168.061C272.52 168.186 273.14 168.3 273.76 168.425C274.048 168.474 274.339 168.534 274.627 168.591C274.668 168.689 274.692 168.781 274.736 168.871C276.19 172.881 277.778 176.927 278.523 181.035C278.708 182.065 278.833 183.106 278.904 184.153C278.931 184.591 278.947 185.031 278.947 185.469Z" fill="#F2F2F2"/>
<path d="M174.194 170.418C170.29 172.791 167.81 176.462 165.785 180.572C164.023 180.975 162.394 181.828 161.062 183.052C160.782 183.307 160.491 183.68 160.641 184.036C160.766 184.335 161.138 184.433 161.459 184.498C162.229 184.648 163.014 184.797 163.784 184.936C163.71 185.11 163.634 185.292 163.561 185.466H137.76C138.932 183.886 140.229 182.405 141.64 181.035C141.947 180.727 142.259 180.439 142.583 180.14C145.873 177.168 149.649 174.784 153.746 173.093C160.198 170.399 167.258 169.474 174.194 170.418Z" fill="#F2F2F2"/>
<path d="M161.921 181.271C161.921 182.032 162.065 182.783 162.351 183.49C162.46 183.764 162.59 184.028 162.74 184.281C162.933 184.61 163.158 184.922 163.411 185.211C164.539 186.497 166.171 187.236 167.884 187.236H254.843C258.135 187.236 260.802 184.569 260.802 181.277C260.802 177.984 258.135 175.317 254.843 175.317H167.884C164.591 175.317 161.927 177.982 161.921 181.271Z" fill="#E6E6E6"/>
<path d="M115.491 184.675C117.421 186.962 119.509 189.112 121.738 191.108H300.98C303.209 189.112 305.297 186.962 307.228 184.675H115.491Z" fill="#3F3D56"/>
<path d="M203.643 163.162V185.953H219.61V163.162C219.61 162.824 219.393 162.528 219.069 162.427C218.996 162.403 218.917 162.392 218.841 162.392H204.415C203.991 162.392 203.646 162.735 203.643 163.162ZM209.875 170.991C209.883 170.051 210.652 169.295 211.596 169.303C212.525 169.311 213.276 170.062 213.284 170.991V173.637C213.278 174.578 212.512 175.339 211.571 175.333C210.636 175.328 209.88 174.572 209.875 173.637V170.991Z" fill="#2F2E41"/>
<path d="M203.594 185.224V187.421C203.594 187.657 203.787 187.85 204.024 187.853H219.23C219.466 187.853 219.66 187.66 219.66 187.421V185.224H203.594Z" fill="#3F3D56"/>
<path d="M178.527 128.824V170.437C178.527 171.541 179.422 172.435 180.528 172.438H242.195C243.299 172.438 244.193 171.543 244.196 170.437V128.824C244.193 127.72 243.299 126.828 242.195 126.825H180.528C179.422 126.828 178.53 127.72 178.527 128.824Z" fill="#3F3D56"/>
<path d="M179.974 129.34V169.923C179.974 170.513 180.452 170.991 181.042 170.991H241.681C242.271 170.991 242.75 170.513 242.75 169.923V129.34C242.75 128.75 242.271 128.272 241.681 128.269H181.042C180.452 128.272 179.974 128.75 179.974 129.34Z" fill="#FAFAFA" stroke="black" stroke-width="0.5" stroke-miterlimit="10"/>
<path d="M192.339 188.37C192.464 188.527 192.654 188.617 192.855 188.617H228.93C229.297 188.617 229.594 188.318 229.594 187.954C229.594 187.908 229.588 187.864 229.58 187.818L229.02 185.159C228.974 184.939 228.816 184.756 228.607 184.678C228.531 184.648 228.452 184.634 228.37 184.634H193.413C193.331 184.634 193.252 184.65 193.176 184.678C192.967 184.759 192.809 184.939 192.763 185.159L192.203 187.818C192.162 188.014 192.211 188.215 192.339 188.37Z" fill="#2F2E41"/>
<path d="M228.003 185.776H227.109C227.049 185.776 227 185.727 227 185.667V185.219C227 185.159 227.049 185.11 227.109 185.11H228.003C228.063 185.11 228.112 185.159 228.112 185.219V185.667C228.112 185.727 228.063 185.776 228.003 185.776Z" fill="#3F3D56"/>
<path d="M225.782 185.776H224.888C224.828 185.776 224.779 185.727 224.779 185.667V185.219C224.779 185.159 224.828 185.11 224.888 185.11H225.782C225.842 185.11 225.891 185.159 225.891 185.219V185.667C225.891 185.727 225.842 185.776 225.782 185.776Z" fill="#3F3D56"/>
<path d="M223.558 185.776H222.664C222.604 185.776 222.555 185.727 222.555 185.667V185.219C222.555 185.159 222.604 185.11 222.664 185.11H223.558C223.618 185.11 223.667 185.159 223.667 185.219V185.667C223.667 185.727 223.621 185.776 223.558 185.776Z" fill="#3F3D56"/>
<path d="M221.337 185.776H220.442C220.383 185.776 220.334 185.727 220.334 185.667V185.219C220.334 185.159 220.383 185.11 220.442 185.11H221.337C221.397 185.11 221.446 185.159 221.446 185.219V185.667C221.446 185.727 221.397 185.776 221.337 185.776Z" fill="#3F3D56"/>
<path d="M219.116 185.776H218.221C218.161 185.776 218.112 185.727 218.112 185.667V185.219C218.112 185.159 218.161 185.11 218.221 185.11H219.116C219.176 185.11 219.224 185.159 219.224 185.219V185.667C219.224 185.727 219.176 185.776 219.116 185.776Z" fill="#3F3D56"/>
<path d="M216.892 185.776H215.997C215.937 185.776 215.889 185.727 215.889 185.667V185.219C215.889 185.159 215.937 185.11 215.997 185.11H216.892C216.952 185.11 217.001 185.159 217.001 185.219V185.667C217.001 185.727 216.952 185.776 216.892 185.776Z" fill="#3F3D56"/>
<path d="M214.671 185.776H213.776C213.716 185.776 213.667 185.727 213.667 185.667V185.219C213.667 185.159 213.716 185.11 213.776 185.11H214.671C214.73 185.11 214.779 185.159 214.779 185.219V185.667C214.779 185.727 214.73 185.776 214.671 185.776Z" fill="#3F3D56"/>
<path d="M212.449 185.776H211.555C211.495 185.776 211.446 185.727 211.446 185.667V185.219C211.446 185.159 211.495 185.11 211.555 185.11H212.449C212.509 185.11 212.558 185.159 212.558 185.219V185.667C212.558 185.727 212.509 185.776 212.449 185.776Z" fill="#3F3D56"/>
<path d="M210.225 185.776H209.331C209.271 185.776 209.222 185.727 209.222 185.667V185.219C209.222 185.159 209.271 185.11 209.331 185.11H210.225C210.285 185.11 210.334 185.159 210.334 185.219V185.667C210.334 185.727 210.285 185.776 210.225 185.776Z" fill="#3F3D56"/>
<path d="M208.004 185.776H207.11C207.05 185.776 207.001 185.727 207.001 185.667V185.219C207.001 185.159 207.05 185.11 207.11 185.11H208.004C208.064 185.11 208.113 185.159 208.113 185.219V185.667C208.113 185.727 208.064 185.776 208.004 185.776Z" fill="#3F3D56"/>
<path d="M205.783 185.776H204.888C204.829 185.776 204.78 185.727 204.78 185.667V185.219C204.78 185.159 204.829 185.11 204.888 185.11H205.783C205.843 185.11 205.892 185.159 205.892 185.219V185.667C205.889 185.727 205.843 185.776 205.783 185.776Z" fill="#3F3D56"/>
<path d="M203.559 185.776H202.665C202.605 185.776 202.556 185.727 202.556 185.667V185.219C202.556 185.159 202.605 185.11 202.665 185.11H203.559C203.619 185.11 203.668 185.159 203.668 185.219V185.667C203.668 185.727 203.619 185.776 203.559 185.776Z" fill="#3F3D56"/>
<path d="M201.338 185.776H200.443C200.383 185.776 200.335 185.727 200.335 185.667V185.219C200.335 185.159 200.383 185.11 200.443 185.11H201.338C201.398 185.11 201.447 185.159 201.447 185.219V185.667C201.447 185.727 201.398 185.776 201.338 185.776Z" fill="#3F3D56"/>
<path d="M199.114 185.776H198.219C198.16 185.776 198.111 185.727 198.111 185.667V185.219C198.111 185.159 198.16 185.11 198.219 185.11H199.114C199.174 185.11 199.223 185.159 199.223 185.219V185.667C199.223 185.727 199.174 185.776 199.114 185.776Z" fill="#3F3D56"/>
<path d="M196.893 185.776H195.998C195.938 185.776 195.889 185.727 195.889 185.667V185.219C195.889 185.159 195.938 185.11 195.998 185.11H196.893C196.952 185.11 197.001 185.159 197.001 185.219V185.667C197.001 185.727 196.952 185.776 196.893 185.776Z" fill="#3F3D56"/>
<path d="M194.671 185.776H193.777C193.717 185.776 193.668 185.727 193.668 185.667V185.219C193.668 185.159 193.717 185.11 193.777 185.11H194.671C194.731 185.11 194.78 185.159 194.78 185.219V185.667C194.78 185.727 194.731 185.776 194.671 185.776Z" fill="#3F3D56"/>
<path d="M228.031 186.888H227.136C227.076 186.888 227.027 186.839 227.027 186.779V186.331C227.027 186.271 227.076 186.222 227.136 186.222H228.031C228.09 186.222 228.139 186.271 228.139 186.331V186.779C228.139 186.839 228.09 186.888 228.031 186.888Z" fill="#3F3D56"/>
<path d="M225.809 186.888H224.915C224.855 186.888 224.806 186.839 224.806 186.779V186.331C224.806 186.271 224.855 186.222 224.915 186.222H225.809C225.869 186.222 225.918 186.271 225.918 186.331V186.779C225.915 186.839 225.869 186.888 225.809 186.888Z" fill="#3F3D56"/>
<path d="M223.585 186.888H222.691C222.631 186.888 222.582 186.839 222.582 186.779V186.331C222.582 186.271 222.631 186.222 222.691 186.222H223.585C223.645 186.222 223.694 186.271 223.694 186.331V186.779C223.694 186.839 223.645 186.888 223.585 186.888Z" fill="#3F3D56"/>
<path d="M221.364 186.888H220.47C220.41 186.888 220.361 186.839 220.361 186.779V186.331C220.361 186.271 220.41 186.222 220.47 186.222H221.364C221.424 186.222 221.473 186.271 221.473 186.331V186.779C221.473 186.839 221.424 186.888 221.364 186.888Z" fill="#3F3D56"/>
<path d="M219.14 186.888H218.246C218.186 186.888 218.137 186.839 218.137 186.779V186.331C218.137 186.271 218.186 186.222 218.246 186.222H219.14C219.2 186.222 219.249 186.271 219.249 186.331V186.779C219.249 186.839 219.2 186.888 219.14 186.888Z" fill="#3F3D56"/>
<path d="M216.919 186.888H216.024C215.965 186.888 215.916 186.839 215.916 186.779V186.331C215.916 186.271 215.965 186.222 216.024 186.222H216.919C216.979 186.222 217.028 186.271 217.028 186.331V186.779C217.028 186.839 216.979 186.888 216.919 186.888Z" fill="#3F3D56"/>
<path d="M214.698 186.888H213.803C213.743 186.888 213.695 186.839 213.695 186.779V186.331C213.695 186.271 213.743 186.222 213.803 186.222H214.698C214.758 186.222 214.807 186.271 214.807 186.331V186.779C214.807 186.839 214.758 186.888 214.698 186.888Z" fill="#3F3D56"/>
<path d="M212.474 186.888H211.579C211.52 186.888 211.471 186.839 211.471 186.779V186.331C211.471 186.271 211.52 186.222 211.579 186.222H212.474C212.534 186.222 212.583 186.271 212.583 186.331V186.779C212.583 186.839 212.534 186.888 212.474 186.888Z" fill="#3F3D56"/>
<path d="M210.253 186.888H209.358C209.298 186.888 209.249 186.839 209.249 186.779V186.331C209.249 186.271 209.298 186.222 209.358 186.222H210.253C210.312 186.222 210.361 186.271 210.361 186.331V186.779C210.361 186.839 210.312 186.888 210.253 186.888Z" fill="#3F3D56"/>
<path d="M208.031 186.888H207.137C207.077 186.888 207.028 186.839 207.028 186.779V186.331C207.028 186.271 207.077 186.222 207.137 186.222H208.031C208.091 186.222 208.14 186.271 208.14 186.331V186.779C208.137 186.839 208.091 186.888 208.031 186.888Z" fill="#3F3D56"/>
<path d="M205.807 186.888H204.913C204.853 186.888 204.804 186.839 204.804 186.779V186.331C204.804 186.271 204.853 186.222 204.913 186.222H205.807C205.867 186.222 205.916 186.271 205.916 186.331V186.779C205.916 186.839 205.867 186.888 205.807 186.888Z" fill="#3F3D56"/>
<path d="M203.586 186.888H202.692C202.632 186.888 202.583 186.839 202.583 186.779V186.331C202.583 186.271 202.632 186.222 202.692 186.222H203.586C203.646 186.222 203.695 186.271 203.695 186.331V186.779C203.695 186.839 203.646 186.888 203.586 186.888Z" fill="#3F3D56"/>
<path d="M201.362 186.888H200.468C200.408 186.888 200.359 186.839 200.359 186.779V186.331C200.359 186.271 200.408 186.222 200.468 186.222H201.362C201.422 186.222 201.471 186.271 201.471 186.331V186.779C201.471 186.839 201.422 186.888 201.362 186.888Z" fill="#3F3D56"/>
<path d="M199.141 186.888H198.247C198.187 186.888 198.138 186.839 198.138 186.779V186.331C198.138 186.271 198.187 186.222 198.247 186.222H199.141C199.201 186.222 199.25 186.271 199.25 186.331V186.779C199.25 186.839 199.201 186.888 199.141 186.888Z" fill="#3F3D56"/>
<path d="M196.92 186.888H196.025C195.966 186.888 195.917 186.839 195.917 186.779V186.331C195.917 186.271 195.966 186.222 196.025 186.222H196.92C196.98 186.222 197.029 186.271 197.029 186.331V186.779C197.029 186.839 196.98 186.888 196.92 186.888Z" fill="#3F3D56"/>
<path d="M194.696 186.888H193.801C193.742 186.888 193.693 186.839 193.693 186.779V186.331C193.693 186.271 193.742 186.222 193.801 186.222H194.696C194.756 186.222 194.805 186.271 194.805 186.331V186.779C194.805 186.839 194.756 186.888 194.696 186.888Z" fill="#3F3D56"/>
<path d="M217.365 188.22H208.692C208.632 188.22 208.583 188.171 208.583 188.111V187.663C208.583 187.603 208.632 187.554 208.692 187.554H217.365C217.425 187.554 217.474 187.603 217.474 187.663V188.111C217.471 188.171 217.425 188.22 217.365 188.22Z" fill="#3F3D56"/>
<path d="M184.09 133.861H240.828C240.953 133.859 241.051 133.755 241.048 133.63C241.045 133.511 240.947 133.413 240.828 133.41H184.09C183.965 133.413 183.867 133.516 183.87 133.641C183.87 133.761 183.968 133.859 184.09 133.861Z" fill="#3F3D56"/>
<path d="M236.964 132.257C237.694 132.257 238.286 131.653 238.286 130.906C238.286 130.16 237.694 129.555 236.964 129.555C236.235 129.555 235.643 130.16 235.643 130.906C235.643 131.653 236.235 132.257 236.964 132.257Z" fill="#3F3D56"/>
<path d="M232.397 132.257C233.126 132.257 233.718 131.653 233.718 130.906C233.718 130.16 233.126 129.555 232.397 129.555C231.667 129.555 231.075 130.16 231.075 130.906C231.075 131.653 231.667 132.257 232.397 132.257Z" fill="#3F3D56"/>
<path d="M227.829 132.257C228.559 132.257 229.151 131.653 229.151 130.906C229.151 130.16 228.559 129.555 227.829 129.555C227.1 129.555 226.508 130.16 226.508 130.906C226.508 131.653 227.1 132.257 227.829 132.257Z" fill="#3F3D56"/>
<path d="M186.597 130.134C186.597 130.267 186.706 130.379 186.839 130.379H190.082C190.218 130.376 190.324 130.262 190.321 130.129C190.319 129.998 190.213 129.892 190.082 129.889H186.839C186.706 129.889 186.597 130.001 186.597 130.134Z" fill="#3F3D56"/>
<path d="M186.597 131.056C186.597 131.189 186.706 131.301 186.839 131.301H190.082C190.218 131.298 190.324 131.186 190.321 131.05C190.319 130.92 190.213 130.814 190.082 130.811H186.839C186.706 130.811 186.597 130.923 186.597 131.056Z" fill="#3F3D56"/>
<path d="M186.597 131.977C186.597 132.113 186.706 132.222 186.839 132.225H190.082C190.218 132.222 190.324 132.108 190.321 131.975C190.319 131.844 190.213 131.738 190.082 131.735H186.839C186.706 131.733 186.597 131.841 186.597 131.977Z" fill="#3F3D56"/>
<path d="M186.434 139.103H187.6C187.953 139.103 188.239 139.389 188.239 139.742C188.239 140.096 187.953 140.381 187.6 140.381H186.434C186.08 140.381 185.795 140.096 185.795 139.742C185.795 139.391 186.08 139.103 186.434 139.103Z" fill="#E6E6E6"/>
<path d="M199.766 139.103H200.933C201.286 139.103 201.572 139.389 201.572 139.742C201.572 140.096 201.286 140.381 200.933 140.381H199.766C199.413 140.381 199.127 140.096 199.127 139.742C199.127 139.391 199.413 139.103 199.766 139.103Z" fill="#E6E6E6"/>
<path d="M203.545 139.103H204.712C205.065 139.103 205.351 139.389 205.351 139.742C205.351 140.096 205.065 140.381 204.712 140.381H203.545C203.192 140.381 202.906 140.096 202.906 139.742C202.906 139.391 203.192 139.103 203.545 139.103Z" fill="#E6E6E6"/>
<path d="M190.06 138.997H197.306C197.659 138.997 197.945 139.283 197.945 139.636C197.945 139.989 197.659 140.275 197.306 140.275H190.06C189.707 140.275 189.421 139.989 189.421 139.636C189.421 139.283 189.707 138.997 190.06 138.997Z" fill="#E6E6E6"/>
<path d="M207.838 138.997H215.084C215.437 138.997 215.723 139.283 215.723 139.636C215.723 139.989 215.437 140.275 215.084 140.275H207.838C207.485 140.275 207.199 139.989 207.199 139.636C207.199 139.283 207.485 138.997 207.838 138.997Z" fill="#E6E6E6"/>
<path d="M189.99 141.993H191.156C191.51 141.993 191.795 142.279 191.795 142.632C191.795 142.986 191.51 143.271 191.156 143.271H189.99C189.636 143.271 189.351 142.986 189.351 142.632C189.351 142.279 189.636 141.993 189.99 141.993Z" fill="#E6E6E6"/>
<path d="M203.323 141.993H204.489C204.842 141.993 205.128 142.279 205.128 142.632C205.128 142.986 204.842 143.271 204.489 143.271H203.323C202.969 143.271 202.684 142.986 202.684 142.632C202.684 142.279 202.969 141.993 203.323 141.993Z" fill="#E6E6E6"/>
<path d="M207.102 141.993H208.268C208.621 141.993 208.907 142.279 208.907 142.632C208.907 142.986 208.621 143.271 208.268 143.271H207.102C206.748 143.271 206.463 142.986 206.463 142.632C206.46 142.279 206.748 141.993 207.102 141.993Z" fill="#E6E6E6"/>
<path d="M193.616 141.887H200.862C201.215 141.887 201.501 142.173 201.501 142.526C201.501 142.879 201.215 143.165 200.862 143.165H193.616C193.263 143.165 192.978 142.879 192.978 142.526C192.978 142.173 193.263 141.887 193.616 141.887Z" fill="#E6E6E6"/>
<path d="M211.394 141.887H218.64C218.993 141.887 219.279 142.173 219.279 142.526C219.279 142.879 218.993 143.165 218.64 143.165H211.394C211.041 143.165 210.756 142.879 210.756 142.526C210.756 142.173 211.041 141.887 211.394 141.887Z" fill="#E6E6E6"/>
<path d="M193.546 144.883H194.712C195.066 144.883 195.351 145.169 195.351 145.522C195.351 145.876 195.066 146.161 194.712 146.161H193.546C193.192 146.161 192.907 145.876 192.907 145.522C192.904 145.169 193.192 144.883 193.546 144.883Z" fill="#E6E6E6"/>
<path d="M206.879 144.883H208.045C208.398 144.883 208.684 145.169 208.684 145.522C208.684 145.876 208.398 146.161 208.045 146.161H206.879C206.525 146.161 206.24 145.876 206.24 145.522C206.24 145.169 206.525 144.883 206.879 144.883Z" fill="#E6E6E6"/>
<path d="M210.658 144.883H211.824C212.177 144.883 212.463 145.169 212.463 145.522C212.463 145.876 212.177 146.161 211.824 146.161H210.658C210.304 146.161 210.019 145.876 210.019 145.522C210.016 145.169 210.304 144.883 210.658 144.883Z" fill="#E6E6E6"/>
<path d="M197.173 144.774H204.418C204.772 144.774 205.057 145.06 205.057 145.413C205.057 145.767 204.772 146.052 204.418 146.052H197.173C196.819 146.052 196.534 145.767 196.534 145.413C196.531 145.063 196.819 144.774 197.173 144.774Z" fill="#E6E6E6"/>
<path d="M214.95 144.774H222.196C222.549 144.774 222.835 145.06 222.835 145.413C222.835 145.767 222.549 146.052 222.196 146.052H214.95C214.597 146.052 214.312 145.767 214.312 145.413C214.309 145.063 214.597 144.774 214.95 144.774Z" fill="#E6E6E6"/>
<path d="M197.102 147.771H198.268C198.622 147.771 198.907 148.056 198.907 148.41C198.907 148.763 198.622 149.048 198.268 149.048H197.102C196.749 149.048 196.463 148.763 196.463 148.41C196.46 148.056 196.749 147.771 197.102 147.771Z" fill="#E6E6E6"/>
<path d="M210.435 147.771H211.601C211.954 147.771 212.24 148.056 212.24 148.41C212.24 148.763 211.954 149.048 211.601 149.048H210.435C210.081 149.048 209.796 148.763 209.796 148.41C209.793 148.056 210.081 147.771 210.435 147.771Z" fill="#E6E6E6"/>
<path d="M214.211 147.771H215.377C215.731 147.771 216.016 148.056 216.016 148.41C216.016 148.763 215.731 149.048 215.377 149.048H214.211C213.858 149.048 213.572 148.763 213.572 148.41C213.572 148.056 213.858 147.771 214.211 147.771Z" fill="#E6E6E6"/>
<path d="M200.729 147.664H207.974C208.328 147.664 208.613 147.95 208.613 148.303C208.613 148.657 208.328 148.942 207.974 148.942H200.729C200.375 148.942 200.09 148.657 200.09 148.303C200.087 147.95 200.375 147.664 200.729 147.664Z" fill="#E6E6E6"/>
<path d="M199.766 159.257H200.933C201.286 159.257 201.572 159.543 201.572 159.896C201.572 160.25 201.286 160.535 200.933 160.535H199.766C199.413 160.535 199.127 160.25 199.127 159.896C199.127 159.546 199.413 159.257 199.766 159.257Z" fill="#E6E6E6"/>
<path d="M203.545 159.257H204.712C205.065 159.257 205.351 159.543 205.351 159.896C205.351 160.25 205.065 160.535 204.712 160.535H203.545C203.192 160.535 202.906 160.25 202.906 159.896C202.906 159.546 203.192 159.257 203.545 159.257Z" fill="#E6E6E6"/>
<path d="M207.838 159.366H215.084C215.437 159.366 215.723 159.651 215.723 160.005C215.723 160.358 215.437 160.644 215.084 160.644H207.838C207.485 160.644 207.199 160.358 207.199 160.005C207.199 159.651 207.485 159.366 207.838 159.366Z" fill="#E6E6E6"/>
<path d="M186.434 159.257H187.6C187.953 159.257 188.239 159.543 188.239 159.896C188.239 160.25 187.953 160.535 187.6 160.535H186.434C186.08 160.535 185.795 160.25 185.795 159.896C185.795 159.546 186.08 159.257 186.434 159.257Z" fill="#E6E6E6"/>
<path d="M190.06 159.366H197.306C197.659 159.366 197.945 159.651 197.945 160.005C197.945 160.358 197.659 160.644 197.306 160.644H190.06C189.707 160.644 189.421 160.358 189.421 160.005C189.421 159.651 189.707 159.366 190.06 159.366Z" fill="#E6E6E6"/>
<path d="M189.99 156.37H191.156C191.51 156.37 191.795 156.655 191.795 157.009C191.795 157.362 191.51 157.648 191.156 157.648H189.99C189.636 157.648 189.351 157.362 189.351 157.009C189.351 156.655 189.636 156.37 189.99 156.37Z" fill="#E6E6E6"/>
<path d="M203.323 156.37H204.489C204.842 156.37 205.128 156.655 205.128 157.009C205.128 157.362 204.842 157.648 204.489 157.648H203.323C202.969 157.648 202.684 157.362 202.684 157.009C202.684 156.655 202.969 156.37 203.323 156.37Z" fill="#E6E6E6"/>
<path d="M207.102 156.37H208.268C208.621 156.37 208.907 156.655 208.907 157.009C208.907 157.362 208.621 157.648 208.268 157.648H207.102C206.748 157.648 206.463 157.362 206.463 157.009C206.46 156.655 206.748 156.37 207.102 156.37Z" fill="#E6E6E6"/>
<path d="M193.616 156.476H200.862C201.215 156.476 201.501 156.761 201.501 157.115C201.501 157.468 201.215 157.754 200.862 157.754H193.616C193.263 157.754 192.978 157.468 192.978 157.115C192.978 156.761 193.263 156.476 193.616 156.476Z" fill="#E6E6E6"/>
<path d="M193.546 153.48H194.712C195.066 153.48 195.351 153.765 195.351 154.119C195.351 154.472 195.066 154.758 194.712 154.758H193.546C193.192 154.758 192.907 154.472 192.907 154.119C192.904 153.768 193.192 153.48 193.546 153.48Z" fill="#E6E6E6"/>
<path d="M206.879 153.48H208.045C208.398 153.48 208.684 153.765 208.684 154.119C208.684 154.472 208.398 154.758 208.045 154.758H206.879C206.525 154.758 206.24 154.472 206.24 154.119C206.24 153.768 206.525 153.48 206.879 153.48Z" fill="#E6E6E6"/>
<path d="M210.658 153.48H211.824C212.177 153.48 212.463 153.765 212.463 154.119C212.463 154.472 212.177 154.758 211.824 154.758H210.658C210.304 154.758 210.019 154.472 210.019 154.119C210.016 153.768 210.304 153.48 210.658 153.48Z" fill="#E6E6E6"/>
<path d="M197.173 153.586H204.418C204.772 153.586 205.057 153.871 205.057 154.225C205.057 154.578 204.772 154.864 204.418 154.864H197.173C196.819 154.864 196.534 154.578 196.534 154.225C196.531 153.874 196.819 153.586 197.173 153.586Z" fill="#E6E6E6"/>
<path d="M197.102 150.593H198.268C198.622 150.593 198.907 150.878 198.907 151.232C198.907 151.585 198.622 151.87 198.268 151.87H197.102C196.749 151.87 196.463 151.585 196.463 151.232C196.46 150.878 196.749 150.593 197.102 150.593Z" fill="#E6E6E6"/>
<path d="M210.435 150.593H211.601C211.954 150.593 212.24 150.878 212.24 151.232C212.24 151.585 211.954 151.87 211.601 151.87H210.435C210.081 151.87 209.796 151.585 209.796 151.232C209.793 150.878 210.081 150.593 210.435 150.593Z" fill="#E6E6E6"/>
<path d="M214.211 150.593H215.377C215.731 150.593 216.016 150.878 216.016 151.232C216.016 151.585 215.731 151.87 215.377 151.87H214.211C213.858 151.87 213.572 151.585 213.572 151.232C213.572 150.878 213.858 150.593 214.211 150.593Z" fill="#E6E6E6"/>
<path d="M200.729 150.699H207.974C208.328 150.699 208.613 150.984 208.613 151.338C208.613 151.691 208.328 151.976 207.974 151.976H200.729C200.375 151.976 200.09 151.691 200.09 151.338C200.087 150.984 200.375 150.699 200.729 150.699Z" fill="#E6E6E6"/>
<path d="M193.249 200.751C193.201 200.775 193.152 200.8 193.103 200.822C192.793 200.974 192.483 201.126 192.17 201.276C191.232 201.722 190.283 202.146 189.321 202.548C186.79 203.606 184.196 204.5 181.551 205.221C181.108 202.45 180.675 195.914 180.262 191.108C180.183 190.202 180.107 189.362 180.028 188.617C179.955 187.641 179.813 186.668 179.609 185.711C179.59 185.635 179.561 185.564 179.522 185.496C179.566 185.879 179.609 187.027 179.65 188.617C179.672 189.362 179.694 190.205 179.715 191.108C179.819 195.735 179.928 202.029 180.039 205.615C179.729 205.691 179.419 205.767 179.109 205.838C178.913 205.884 178.715 205.93 178.519 205.971C178.28 206.025 178.038 206.077 177.799 206.126C177.549 206.18 177.296 206.229 177.046 206.278C172.943 207.086 168.77 207.488 164.588 207.488C164.311 207.488 164.034 207.485 163.756 207.483C163.672 207.483 163.588 207.48 163.501 207.477C163.256 207.472 163.003 207.469 162.745 207.461C157.802 207.325 152.892 206.615 148.113 205.351L148.306 191.105L148.338 188.614L148.352 187.671C148.243 187.976 148.175 188.294 148.156 188.614C148.077 189.221 147.999 190.08 147.92 191.105C147.615 195.052 147.303 201.417 146.976 205.041C143.135 203.948 140.326 202.95 136.814 201.194C136.678 201.126 136.539 201.058 136.406 200.99C136.43 200.819 136.457 200.648 136.482 200.474C136.879 197.709 136.411 194.112 136.852 191.108C137.186 188.788 137.534 186.562 137.882 184.675C138.304 182.402 138.733 180.616 139.157 179.746C139.647 178.743 140.136 177.756 140.609 176.812C140.813 176.405 141.014 176.008 141.213 175.613C141.319 175.401 141.425 175.195 141.531 174.988C142.006 174.058 142.455 173.196 142.866 172.435C143.154 171.9 143.42 171.416 143.665 170.992C143.95 170.491 144.206 170.078 144.413 169.765C145.957 167.427 148.251 165.685 150.919 164.831L150.986 164.812L151.052 164.839L151.125 164.872L155.361 163.322L157.253 158.768L166.967 158.17L168.536 159.363L169.338 159.975L170.194 160.625L171.769 161.824L172.214 161.963L172.878 162.166L177.424 163.561L177.47 163.542L177.538 163.561C179.966 164.339 182.092 165.853 183.617 167.895C183.769 168.091 183.908 168.292 184.044 168.498C184.414 169.045 184.911 169.909 185.498 170.994C185.74 171.44 185.996 171.924 186.265 172.438C186.428 172.748 187.828 177.117 189.19 181.578C190.463 185.757 191.702 190.017 191.866 191.11C191.896 191.311 191.925 191.518 191.955 191.719C192.14 192.984 192.322 194.256 192.496 195.498C192.757 197.342 193.01 199.12 193.252 200.707C193.244 200.721 193.247 200.735 193.249 200.751Z" fill="#E4002B"/>
<path opacity="0.2" d="M182.956 184.664L181.067 177.378L179.4 183.666L182.956 184.664Z" fill="black"/>
<path d="M289.969 200.993C289.833 201.061 289.694 201.131 289.561 201.197C286.051 202.953 283.24 203.951 279.398 205.044C279.075 201.422 278.76 195.055 278.455 191.107C278.376 190.082 278.295 189.223 278.219 188.617C278.2 188.293 278.134 187.975 278.023 187.674L278.036 188.617L278.069 191.107L278.262 205.354C273.482 206.618 268.572 207.325 263.63 207.463C263.371 207.469 263.119 207.474 262.874 207.48C262.787 207.482 262.703 207.485 262.618 207.485C262.341 207.488 262.064 207.491 261.786 207.491C256.577 207.493 251.39 206.865 246.333 205.617C246.442 202.034 246.551 195.737 246.657 191.11C246.678 190.205 246.7 189.365 246.722 188.62C246.765 187.029 246.809 185.882 246.85 185.499C246.812 185.567 246.784 185.64 246.763 185.713C246.556 186.67 246.417 187.644 246.344 188.62C246.265 189.365 246.189 190.207 246.11 191.11C245.697 195.917 245.265 202.453 244.821 205.223C242.176 204.5 239.58 203.608 237.051 202.551C235.719 201.996 234.409 201.395 233.123 200.753C233.367 199.152 233.623 197.36 233.884 195.501C234.088 194.06 234.3 192.576 234.515 191.113C234.849 188.851 246.173 164.423 248.842 163.566L248.91 163.547L248.957 163.566L253.502 162.172L254.166 161.968L254.612 161.829L256.186 160.63L257.042 159.98L257.844 159.369L259.413 158.175L269.127 158.773L271.019 163.327L275.255 164.877L275.329 164.844L275.394 164.817L275.462 164.836C278.129 165.693 280.426 167.433 281.968 169.771C282.177 170.083 282.43 170.497 282.715 170.997C282.96 171.421 283.227 171.905 283.515 172.44C283.925 173.202 284.374 174.064 284.85 174.993C284.953 175.197 285.062 175.407 285.168 175.619C285.366 176.01 285.567 176.41 285.771 176.818C286.244 177.761 286.734 178.748 287.223 179.751C287.647 180.621 288.077 182.407 288.498 184.68C288.846 186.57 289.194 188.796 289.529 191.113C289.969 194.117 289.499 197.714 289.898 200.479C289.917 200.65 289.945 200.821 289.969 200.993Z" fill="#E4002B"/>
<path d="M261.482 156.538C267.721 156.538 272.778 151.481 272.778 145.242C272.778 139.003 267.721 133.946 261.482 133.946C255.243 133.946 250.186 139.003 250.186 145.242C250.186 151.481 255.243 156.538 261.482 156.538Z" fill="#FFB6B6"/>
<path opacity="0.2" d="M243.416 184.664L245.303 177.378L246.972 183.666L243.416 184.664Z" fill="black"/>
<path d="M293.661 179.917C292.987 189.223 293.686 193.321 289.955 200.996C286.562 202.657 283.028 204.011 279.396 205.044C279.018 205.15 278.64 205.253 278.259 205.354C273.48 206.618 268.57 207.325 263.627 207.464C263.369 207.469 263.116 207.474 262.871 207.48C262.784 207.483 262.7 207.485 262.616 207.485C262.338 207.488 262.061 207.491 261.784 207.491C256.575 207.493 251.387 206.865 246.33 205.617C245.825 205.492 245.319 205.362 244.816 205.223C242.171 204.5 239.574 203.608 237.046 202.551C235.714 201.996 234.403 201.395 233.117 200.754C232.826 200.607 232.535 200.46 232.247 200.31C230.774 197.72 229.936 194.568 229.917 190.781C230.945 184.254 291.407 174.289 293.661 179.917Z" fill="#2F2E41"/>
<path opacity="0.2" d="M293.661 181.51C293.696 180.934 293.735 180.338 293.778 179.719C291.524 174.091 231.059 184.055 230.04 190.577C230.042 191.175 230.067 191.757 230.11 192.323C232.582 185.885 290.023 176.418 293.661 181.51Z" fill="black"/>
<path d="M228.419 180.355L233.381 177.873L229.246 166.707L228.156 161.076C227.71 158.768 225.475 157.259 223.167 157.705C222.441 157.846 221.767 158.173 221.204 158.654C219.461 160.146 219.216 162.754 220.649 164.548L224.695 169.605L228.419 180.355Z" fill="#FFB6B6"/>
<path d="M233.384 175.806L226.766 179.115L231.788 194.851C232.522 197.149 234.403 198.897 236.752 199.454C239.672 200.15 242.706 198.872 244.251 196.3L257.567 173.474C259.53 170.203 258.524 165.964 255.302 163.923C252.023 161.846 247.682 162.822 245.607 166.1C245.471 166.312 245.349 166.533 245.237 166.761L237.108 184.08L233.384 175.806Z" fill="#E4002B"/>
<path d="M162.049 155.758C168.914 155.758 174.479 150.193 174.479 143.328C174.479 136.463 168.914 130.898 162.049 130.898C155.184 130.898 149.619 136.463 149.619 143.328C149.619 150.193 155.184 155.758 162.049 155.758Z" fill="#A0616A"/>
<path d="M149.769 134.761C150.78 133.399 152.232 132.431 153.344 131.148C153.953 130.444 154.458 129.647 155.146 129.019C156.419 127.85 158.199 127.372 159.929 127.312C163.77 127.214 167.427 128.949 169.779 131.988C170.681 131.458 171.584 130.928 172.489 130.401C172.845 131.339 173.204 132.279 173.56 133.217C174.245 132.622 175.281 132.695 175.877 133.38C176.336 133.908 176.41 134.666 176.062 135.273C176.276 134.609 177.261 134.468 177.804 134.906C178.348 135.343 178.492 136.126 178.405 136.817C178.177 138.372 177.029 139.631 175.502 140C174.322 140.264 172.951 139.987 172.008 140.74C171.252 141.344 171.024 142.445 170.252 143.029C169.3 143.75 167.957 143.415 166.774 143.576C164.705 143.853 163.069 145.971 163.316 148.042C163.129 147.387 162.933 146.716 162.509 146.186C162.085 145.655 161.369 145.297 160.717 145.49C159.64 145.813 159.464 147.281 159.725 148.374C160.418 151.275 163.039 155.962 163.039 155.962C159.632 157.305 155.576 156.036 152.947 153.485C150.318 150.935 148.95 147.325 148.355 143.714C147.846 140.65 147.917 137.257 149.769 134.761Z" fill="#2F2E41"/>
<path d="M275.638 151.468C278.004 146.047 276.663 141.058 273.782 138.41V138.407C272.648 135.868 271.142 133.908 269.418 133.448C268.583 132.913 267.776 132.285 266.879 131.964C266.033 131.648 265.095 131.689 264.282 132.081L263.826 131.958C263.437 130.966 262.98 130.944 262.474 131.599C260.522 130.691 258.766 130.284 257.2 130.284C252.097 130.284 249.079 134.604 248.28 139.826L252.545 140.963L254.027 138.6L253.342 141.175L255.696 141.8C259.28 146.466 254.992 157.224 249.558 163.21C250.852 162.851 252.14 162.55 253.421 162.305L258.084 155.47L255.193 161.693C256.694 161.473 258.606 161.685 260.699 162.109C261.403 161.19 261.776 159.961 261.411 158.868C262.007 160.021 262.417 161.261 262.629 162.542C267.042 163.618 273.064 164.173 276.307 164.581C278.925 163.724 278.934 154.059 275.638 151.468Z" fill="#2F2E41"/>
<path d="M277.177 133.027C278.909 136.907 275.416 138.573 272.213 138.527C269.32 138.483 266.86 136.453 266.713 133.563C266.566 130.672 268.787 128.209 271.677 128.062C274.567 127.913 275.997 130.384 277.177 133.027Z" fill="#2F2E41"/>
<path d="M196.819 196.164L193.967 191.406L203.453 184.21L207.398 180.045C209.016 178.337 211.71 178.264 213.417 179.882C213.953 180.39 214.347 181.029 214.562 181.736C215.231 183.933 214.037 186.263 211.865 187.005L205.734 189.098L196.819 196.164Z" fill="#A0616A"/>
<path d="M198.883 196.007L194.44 199.71L193.241 200.708L193.103 200.824C192.793 200.977 192.483 201.129 192.17 201.278C191.232 201.724 190.283 202.148 189.321 202.551C186.79 203.608 184.196 204.503 181.551 205.223C181.048 205.362 180.545 205.493 180.036 205.618C179.726 205.694 179.417 205.77 179.107 205.841C178.911 205.887 178.712 205.933 178.517 205.974C178.277 206.028 178.035 206.08 177.796 206.129C177.546 206.183 177.293 206.232 177.043 206.281C175.678 204.981 174.906 203.179 174.906 201.295C174.906 201.235 174.906 201.172 174.909 201.11L175.621 182.815L175.937 174.705C176.037 170.891 179.164 167.854 182.978 167.865C183.19 167.865 183.402 167.876 183.612 167.895C183.764 168.091 183.902 168.292 184.038 168.498C184.408 169.045 184.906 169.91 185.493 170.994C185.735 171.44 185.99 171.924 186.26 172.438C186.423 172.748 187.823 177.117 189.185 181.578L188.584 186.238L187.499 194.639L191.947 191.719L195.079 189.661L195.449 190.281L196.417 191.893L198.285 195.004L198.883 196.007Z" fill="#E4002B"/>
<path d="M196.447 190.779C196.444 191.156 196.436 191.526 196.417 191.893C196.371 192.905 196.254 193.911 196.066 194.906C195.759 196.578 195.212 198.195 194.443 199.707C194.34 199.908 194.231 200.109 194.119 200.305C193.834 200.457 193.54 200.604 193.249 200.748C193.201 200.773 193.152 200.797 193.103 200.819C191.866 201.433 190.604 202.01 189.321 202.545C186.79 203.603 184.196 204.497 181.551 205.218C181.048 205.357 180.545 205.487 180.036 205.612C179.047 205.857 178.049 206.077 177.04 206.275C172.938 207.083 168.764 207.485 164.583 207.485C164.306 207.485 164.028 207.483 163.751 207.48C163.667 207.48 163.582 207.477 163.495 207.474C163.251 207.469 162.998 207.466 162.74 207.458C157.797 207.322 152.887 206.613 148.107 205.348C147.727 205.248 147.349 205.144 146.971 205.038C143.339 204.005 139.804 202.651 136.411 200.99C132.681 193.318 133.383 189.218 132.706 179.912C134.092 176.448 157.552 178.895 175.616 182.807C180.518 183.87 185.02 185.039 188.579 186.233C192.254 187.462 194.919 188.71 195.963 189.884C196.207 190.132 196.376 190.441 196.447 190.779Z" fill="#2F2E41"/>
<path opacity="0.2" d="M132.711 181.51C132.676 180.934 132.638 180.338 132.594 179.719C134.848 174.091 195.313 184.055 196.333 190.577C196.33 191.175 196.305 191.757 196.262 192.323C193.788 185.885 136.346 176.418 132.711 181.51Z" fill="black"/>
</svg>
