<svg width="324" height="207" viewBox="0 0 324 207" fill="none" xmlns="http://www.w3.org/2000/svg">
<path d="M252.743 160.507H0.668457L28.7776 1.09546H280.852L252.743 160.507Z" fill="#E6E6E6"/>
<path fill-rule="evenodd" clip-rule="evenodd" d="M28.6634 0.959473H281.014L252.857 160.643H0.506348L28.6634 0.959473ZM28.8916 1.23135L0.830355 160.371H252.629L280.69 1.23135H28.8916Z" fill="black"/>
<path d="M300.617 19.5992L272.505 179.013H20.4309L48.5428 19.5992H300.617Z" fill="#FAFAFA"/>
<path fill-rule="evenodd" clip-rule="evenodd" d="M48.4289 19.4633H300.779L272.619 179.149H20.269L48.4289 19.4633ZM48.657 19.7351L20.5931 178.877H272.391L300.455 19.7351H48.657Z" fill="black"/>
<path d="M300.617 19.5992L299.231 27.47H47.1562L48.5428 19.5992H300.617Z" fill="#E4002B"/>
<path d="M52.8902 25.2162C53.8196 25.2162 54.5731 24.4627 54.5731 23.5332C54.5731 22.6038 53.8196 21.8503 52.8902 21.8503C51.9607 21.8503 51.2073 22.6038 51.2073 23.5332C51.2073 24.4627 51.9607 25.2162 52.8902 25.2162Z" fill="#FAFAFA"/>
<path d="M58.7898 25.2162C59.7193 25.2162 60.4727 24.4627 60.4727 23.5332C60.4727 22.6038 59.7193 21.8503 58.7898 21.8503C57.8604 21.8503 57.1069 22.6038 57.1069 23.5332C57.1069 24.4627 57.8604 25.2162 58.7898 25.2162Z" fill="#FAFAFA"/>
<path d="M64.5127 25.2162C65.4422 25.2162 66.1957 24.4627 66.1957 23.5332C66.1957 22.6038 65.4422 21.8503 64.5127 21.8503C63.5833 21.8503 62.8298 22.6038 62.8298 23.5332C62.8298 24.4627 63.5833 25.2162 64.5127 25.2162Z" fill="#FAFAFA"/>
<path fill-rule="evenodd" clip-rule="evenodd" d="M117.507 44.1031C117.957 44.1031 118.322 44.4683 118.322 44.9188V165.732C118.322 166.182 117.957 166.547 117.507 166.547C117.056 166.547 116.691 166.182 116.691 165.732V44.9188C116.691 44.4683 117.056 44.1031 117.507 44.1031Z" fill="black"/>
<path d="M149.237 54.9509L143.62 60.2987L91.6947 65.0266L90.822 55.4294L142.747 50.7042L149.237 54.9509Z" fill="#890000"/>
<path d="M151.116 94.9737L144.561 99.1171L92.7144 93.5518L93.7448 83.9736L145.589 89.5362L151.116 94.9737Z" fill="#E4002B"/>
<path d="M80.885 73.9551L87.1626 69.3984L139.257 71.6088L138.849 81.2359L86.7521 79.0255L80.885 73.9551Z" fill="#E4002B"/>
<path d="M94.6636 106.409L100.938 101.855L153.032 104.062L152.625 113.69L100.531 111.482L94.6636 106.409Z" fill="#890000"/>
<path d="M283.605 67.364C285.887 67.1916 288.181 67.1575 290.487 67.2425C291.087 67.2646 291.592 66.796 291.614 66.1958C291.636 65.5956 291.168 65.0911 290.567 65.069C288.187 64.9812 285.81 65.0162 283.441 65.1952C282.842 65.2404 282.394 65.7626 282.439 66.3615C282.484 66.9604 283.006 67.4093 283.605 67.364Z" fill="#E6E6E6"/>
<path d="M296.022 65.4746C295.425 65.4089 294.888 65.8396 294.822 66.4366C294.757 67.0336 295.187 67.5708 295.784 67.6366C298.058 67.8869 300.341 68.2374 302.631 68.6698C303.221 68.7813 303.79 68.3932 303.901 67.8031C304.013 67.2129 303.624 66.6441 303.034 66.5326C300.696 66.091 298.358 65.7318 296.022 65.4746Z" fill="#E6E6E6"/>
<path d="M278.363 68.0163C278.955 67.9125 279.35 67.3488 279.246 66.7572C279.143 66.1656 278.579 65.7702 277.987 65.874C275.661 66.2821 273.346 66.8466 271.044 67.5874C270.472 67.7714 270.158 68.384 270.342 68.9558C270.526 69.5275 271.138 69.8418 271.71 69.6578C273.913 68.9487 276.132 68.4078 278.363 68.0163Z" fill="#E6E6E6"/>
<path d="M308.356 67.6718C307.772 67.5329 307.185 67.894 307.046 68.4783C306.908 69.0626 307.269 69.6489 307.853 69.7878C310.093 70.3203 312.338 70.9172 314.584 71.5615C315.162 71.7271 315.764 71.3933 315.929 70.8159C316.095 70.2386 315.761 69.6363 315.184 69.4708C312.911 68.8189 310.634 68.2131 308.356 67.6718Z" fill="#E6E6E6"/>
<path d="M266.789 71.5407C267.337 71.2962 267.584 70.6533 267.339 70.1047C267.095 69.5561 266.452 69.3096 265.903 69.5541C263.78 70.5006 261.672 71.6123 259.582 72.9047C259.071 73.2207 258.913 73.8909 259.229 74.4017C259.545 74.9125 260.215 75.0705 260.726 74.7545C262.734 73.513 264.755 72.4471 266.789 71.5407Z" fill="#E6E6E6"/>
<path d="M320.372 71.0335C319.799 70.8535 319.189 71.172 319.009 71.745C318.829 72.318 319.147 72.9285 319.72 73.1085C320.829 73.4567 321.937 73.8133 323.046 74.176L323.722 72.1089C322.607 71.7439 321.49 71.3847 320.372 71.0335Z" fill="#E6E6E6"/>
<path d="M256.375 77.7436C256.854 77.3809 256.948 76.6988 256.585 76.2201C256.222 75.7414 255.54 75.6474 255.062 76.0102C253.236 77.3941 251.426 78.9278 249.633 80.6217C249.197 81.0342 249.178 81.7225 249.59 82.159C250.003 82.5955 250.691 82.6149 251.127 82.2024C252.865 80.5605 254.614 79.0781 256.375 77.7436Z" fill="#E6E6E6"/>
<path d="M200.965 85.0954C203.32 84.9149 205.551 85.1481 207.566 85.8405C208.135 86.0357 208.753 85.7334 208.948 85.1654C209.143 84.5974 208.841 83.9787 208.273 83.7836C205.932 82.9792 203.397 82.7276 200.798 82.9268C200.199 82.9727 199.751 83.4954 199.797 84.0942C199.843 84.6931 200.366 85.1413 200.965 85.0954Z" fill="#E6E6E6"/>
<path d="M195.813 86.0856C196.388 85.9128 196.715 85.3064 196.542 84.7312C196.369 84.156 195.763 83.8298 195.187 84.0025C192.907 84.6874 190.626 85.6615 188.415 86.8725C187.889 87.1611 187.696 87.822 187.984 88.3488C188.273 88.8755 188.934 89.0686 189.46 88.78C191.551 87.6348 193.692 86.7226 195.813 86.0856Z" fill="#E6E6E6"/>
<path d="M247.399 85.9974C247.804 85.5544 247.774 84.8665 247.331 84.461C246.888 84.0554 246.2 84.0859 245.794 84.5289C244.256 86.2091 242.732 88.0164 241.223 89.9576C240.855 90.4318 240.94 91.115 241.415 91.4836C241.889 91.8522 242.572 91.7667 242.941 91.2925C244.416 89.395 245.902 87.6325 247.399 85.9974Z" fill="#E6E6E6"/>
<path d="M213.348 86.7405C212.899 86.3412 212.212 86.3813 211.813 86.83C211.413 87.2787 211.453 87.9661 211.902 88.3654C213.397 89.6952 214.691 91.4726 215.692 93.7766C215.931 94.3274 216.571 94.58 217.122 94.3408C217.673 94.1015 217.926 93.4609 217.686 92.91C216.573 90.3477 215.103 88.3017 213.348 86.7405Z" fill="#E6E6E6"/>
<path d="M184.966 91.663C185.448 91.3055 185.55 90.6245 185.192 90.1418C184.835 89.6592 184.154 89.5578 183.671 89.9153C181.72 91.3605 179.872 92.9876 178.185 94.7573C177.771 95.1921 177.788 95.8805 178.222 96.2948C178.657 96.7091 179.346 96.6925 179.76 96.2576C181.359 94.5799 183.113 93.0353 184.966 91.663Z" fill="#E6E6E6"/>
<path d="M239.786 95.5837C240.13 95.0907 240.008 94.413 239.515 94.0698C239.022 93.7267 238.344 93.8481 238.001 94.341C237.337 95.2959 236.675 96.2785 236.016 97.2895C235.454 98.1537 234.893 99.002 234.334 99.8345C234 100.333 234.133 101.009 234.631 101.343C235.13 101.678 235.806 101.545 236.14 101.046C236.704 100.205 237.271 99.349 237.839 98.4766C238.486 97.4838 239.135 96.5197 239.786 95.5837Z" fill="#E6E6E6"/>
<path d="M219.35 98.394C219.235 97.8046 218.663 97.4206 218.074 97.5362C217.484 97.6518 217.1 98.2233 217.216 98.8127C217.615 100.847 217.85 103.143 217.89 105.719C217.899 106.32 218.394 106.799 218.994 106.79C219.595 106.78 220.074 106.286 220.065 105.685C220.023 102.998 219.777 100.572 219.35 98.394Z" fill="#E6E6E6"/>
<path d="M176.362 100.365C176.71 99.8757 176.596 99.1967 176.106 98.8487C175.617 98.5006 174.938 98.6153 174.59 99.1047C173.146 101.135 171.921 103.291 170.986 105.53C170.754 106.084 171.015 106.721 171.57 106.952C172.124 107.184 172.761 106.922 172.992 106.368C173.859 104.293 175.002 102.278 176.362 100.365Z" fill="#E6E6E6"/>
<path d="M233.457 104.951C233.803 104.46 233.685 103.782 233.194 103.436C232.703 103.09 232.024 103.208 231.679 103.699C230.471 105.413 229.275 107.053 228.091 108.621C227.729 109.1 227.824 109.782 228.303 110.144C228.782 110.506 229.464 110.411 229.826 109.932C231.025 108.344 232.236 106.685 233.457 104.951Z" fill="#E6E6E6"/>
<path d="M219.886 111.227C219.931 110.628 219.482 110.106 218.883 110.061C218.284 110.015 217.762 110.464 217.717 111.063C217.631 112.2 217.512 113.381 217.361 114.606C217.259 115.426 217.146 116.233 217.02 117.028C216.925 117.621 217.33 118.178 217.923 118.272C218.516 118.366 219.074 117.962 219.168 117.368C219.298 116.549 219.415 115.717 219.52 114.873C219.675 113.616 219.797 112.401 219.886 111.227Z" fill="#E6E6E6"/>
<path d="M171.479 111.391C171.588 110.801 171.197 110.234 170.606 110.125C170.016 110.017 169.449 110.407 169.34 110.998C169.115 112.226 168.984 113.469 168.959 114.718C168.933 116.049 168.974 117.354 169.08 118.625C169.13 119.224 169.655 119.668 170.254 119.618C170.852 119.568 171.297 119.043 171.247 118.444C171.147 117.25 171.109 116.02 171.134 114.761C171.156 113.635 171.274 112.51 171.479 111.391Z" fill="#E6E6E6"/>
<path d="M226.912 113.677C227.288 113.208 227.213 112.524 226.744 112.148C226.276 111.772 225.591 111.847 225.216 112.316C223.898 113.959 222.596 115.511 221.311 116.976C220.915 117.427 220.96 118.115 221.411 118.511C221.863 118.907 222.55 118.862 222.946 118.41C224.253 116.92 225.575 115.343 226.912 113.677Z" fill="#E6E6E6"/>
<path d="M215.472 127.816C215.038 127.673 214.754 127.284 214.725 126.855C214.282 127.195 213.645 127.145 213.261 126.726C212.856 126.283 212.886 125.595 213.329 125.189C214.155 124.433 214.99 123.639 215.834 122.805C216.008 122.121 216.173 121.426 216.326 120.72C216.454 120.134 217.034 119.762 217.621 119.889C217.897 119.95 218.126 120.11 218.277 120.324C218.695 119.992 219.303 120.01 219.701 120.388C220.137 120.801 220.155 121.49 219.741 121.925C219.086 122.615 218.435 123.283 217.789 123.929C217.499 125.018 217.184 126.082 216.844 127.121C216.657 127.692 216.042 128.003 215.472 127.816Z" fill="#E6E6E6"/>
<path d="M172.215 123.989C172.055 123.41 171.456 123.07 170.877 123.23C170.298 123.39 169.958 123.989 170.118 124.568C170.855 127.238 171.934 129.676 173.34 131.786C173.673 132.286 174.349 132.421 174.848 132.088C175.348 131.755 175.483 131.08 175.15 130.58C173.887 128.684 172.897 126.464 172.215 123.989Z" fill="#E6E6E6"/>
<path d="M210.283 130.636C210.756 130.265 210.838 129.581 210.467 129.109C210.096 128.637 209.412 128.555 208.94 128.926C206.823 130.589 204.778 131.992 202.809 133.156C202.292 133.462 202.121 134.128 202.427 134.645C202.733 135.162 203.399 135.334 203.916 135.028C205.975 133.811 208.1 132.352 210.283 130.636Z" fill="#E6E6E6"/>
<path d="M214.841 132.317C215.087 131.769 214.841 131.126 214.293 130.881C213.745 130.635 213.101 130.881 212.856 131.429C211.888 133.594 210.791 135.623 209.575 137.524C209.251 138.03 209.399 138.702 209.905 139.026C210.411 139.35 211.083 139.202 211.407 138.696C212.682 136.703 213.83 134.579 214.841 132.317Z" fill="#E6E6E6"/>
<path d="M178.85 134.598C178.374 134.231 177.691 134.318 177.324 134.793C176.957 135.268 177.044 135.951 177.519 136.319C179.623 137.946 182.079 139.077 184.841 139.599C185.431 139.71 186 139.322 186.112 138.732C186.223 138.142 185.835 137.573 185.245 137.462C182.824 137.004 180.685 136.018 178.85 134.598Z" fill="#E6E6E6"/>
<path d="M198.572 137.719C199.127 137.489 199.392 136.854 199.163 136.298C198.934 135.743 198.298 135.479 197.743 135.708C195.24 136.741 192.898 137.356 190.728 137.612C190.132 137.682 189.705 138.222 189.775 138.819C189.846 139.415 190.386 139.842 190.983 139.772C193.374 139.49 195.91 138.817 198.572 137.719Z" fill="#E6E6E6"/>
<path d="M208.12 143.216C208.501 142.753 208.435 142.067 207.971 141.686C207.507 141.304 206.822 141.37 206.44 141.834C204.967 143.625 203.366 145.285 201.646 146.824C201.198 147.225 201.16 147.912 201.561 148.36C201.961 148.807 202.649 148.846 203.096 148.445C204.896 146.835 206.574 145.095 208.12 143.216Z" fill="#E6E6E6"/>
<path d="M26.2246 149.811C27.4628 149.811 28.6145 149.842 29.6894 149.901C30.2891 149.934 30.802 149.475 30.8349 148.875C30.8679 148.275 30.4084 147.762 29.8087 147.729C28.6906 147.668 27.499 147.636 26.2246 147.636V149.811Z" fill="#E6E6E6"/>
<path d="M35.2713 148.35C34.6806 148.241 34.1137 148.632 34.0052 149.223C33.8967 149.814 34.2876 150.381 34.8784 150.489C37.4689 150.965 39.4939 151.665 41.255 152.508C41.7967 152.768 42.4461 152.539 42.7055 151.997C42.9648 151.455 42.7359 150.806 42.1942 150.547C40.257 149.619 38.0481 148.86 35.2713 148.35Z" fill="#E6E6E6"/>
<path d="M198.744 151.929C199.232 151.579 199.344 150.9 198.994 150.412C198.645 149.923 197.965 149.811 197.477 150.161C195.617 151.493 193.647 152.717 191.576 153.84C191.048 154.126 190.852 154.786 191.138 155.314C191.425 155.842 192.085 156.038 192.613 155.752C194.758 154.589 196.805 153.318 198.744 151.929Z" fill="#E6E6E6"/>
<path d="M46.9544 153.377C46.4587 153.038 45.7819 153.165 45.4428 153.66C45.1036 154.156 45.2305 154.833 45.7262 155.172C46.1445 155.458 46.5683 155.754 47.0019 156.056C48.392 157.025 49.8821 158.065 51.6079 159.087C52.1246 159.394 52.7917 159.223 53.0979 158.706C53.4042 158.19 53.2336 157.523 52.7169 157.216C51.0669 156.238 49.6665 155.262 48.2894 154.302C47.8445 153.992 47.4021 153.683 46.9544 153.377Z" fill="#E6E6E6"/>
<path d="M187.634 158.187C188.184 157.945 188.433 157.303 188.191 156.754C187.949 156.204 187.307 155.955 186.757 156.197C184.663 157.12 182.484 157.958 180.226 158.72C179.657 158.911 179.351 159.528 179.543 160.098C179.735 160.667 180.352 160.972 180.921 160.78C183.235 160 185.475 159.139 187.634 158.187Z" fill="#E6E6E6"/>
<path d="M57.3825 159.593C56.831 159.355 56.1911 159.61 55.9532 160.161C55.7154 160.713 55.9697 161.352 56.5212 161.59C58.4465 162.421 60.6537 163.212 63.2529 163.935C63.8316 164.095 64.4311 163.757 64.592 163.178C64.7529 162.599 64.4143 162 63.8356 161.839C61.3262 161.141 59.2124 160.382 57.3825 159.593Z" fill="#E6E6E6"/>
<path d="M175.648 162.388C176.227 162.229 176.568 161.63 176.409 161.051C176.25 160.472 175.651 160.131 175.072 160.29C172.854 160.9 170.572 161.445 168.232 161.934C167.644 162.057 167.267 162.633 167.39 163.221C167.513 163.809 168.089 164.186 168.677 164.063C171.056 163.566 173.382 163.01 175.648 162.388Z" fill="#E6E6E6"/>
<path d="M163.276 165.076C163.868 164.977 164.268 164.416 164.168 163.824C164.069 163.232 163.508 162.832 162.916 162.931C160.633 163.314 158.304 163.65 155.932 163.944C155.336 164.018 154.913 164.561 154.987 165.157C155.061 165.753 155.604 166.176 156.2 166.102C158.599 165.805 160.959 165.465 163.276 165.076Z" fill="#E6E6E6"/>
<path d="M68.9963 163.061C68.4074 162.943 67.8343 163.325 67.7164 163.914C67.5984 164.503 67.9802 165.076 68.5691 165.194C70.6722 165.615 72.9829 165.997 75.5346 166.331C76.1301 166.408 76.676 165.989 76.7539 165.393C76.8319 164.798 76.4122 164.252 75.8167 164.174C73.309 163.846 71.0469 163.472 68.9963 163.061Z" fill="#E6E6E6"/>
<path d="M150.746 166.7C151.344 166.642 151.782 166.111 151.725 165.513C151.667 164.915 151.136 164.477 150.538 164.535C148.225 164.757 145.878 164.944 143.501 165.101C142.902 165.141 142.448 165.659 142.488 166.258C142.528 166.857 143.045 167.311 143.645 167.271C146.041 167.113 148.41 166.924 150.746 166.7Z" fill="#E6E6E6"/>
<path d="M81.1169 164.761C80.5188 164.706 79.9892 165.146 79.934 165.744C79.8787 166.342 80.3188 166.871 80.9169 166.927C83.1021 167.128 85.4387 167.299 87.9413 167.436C88.541 167.468 89.0537 167.008 89.0863 166.409C89.1189 165.809 88.6592 165.296 88.0595 165.264C85.582 165.129 83.2728 164.96 81.1169 164.761Z" fill="#E6E6E6"/>
<path d="M138.172 167.579C138.772 167.551 139.235 167.042 139.207 166.442C139.179 165.842 138.67 165.378 138.07 165.407C135.736 165.516 133.378 165.601 131 165.664C130.399 165.68 129.926 166.18 129.942 166.78C129.958 167.381 130.457 167.855 131.058 167.839C133.449 167.775 135.822 167.69 138.172 167.579Z" fill="#E6E6E6"/>
<path d="M93.4023 165.492C92.802 165.473 92.2999 165.944 92.2809 166.544C92.262 167.144 92.7332 167.646 93.3335 167.665C94.4879 167.702 95.6736 167.732 96.8917 167.755C98.0753 167.777 99.2587 167.799 100.441 167.819C101.042 167.83 101.537 167.351 101.548 166.751C101.558 166.15 101.08 165.655 100.479 165.645C99.2979 165.624 98.1154 165.602 96.9325 165.58C95.7234 165.557 94.547 165.528 93.4023 165.492Z" fill="#E6E6E6"/>
<path d="M105.934 165.731C105.333 165.723 104.84 166.203 104.831 166.803C104.823 167.404 105.303 167.898 105.903 167.906C108.278 167.939 110.647 167.966 113.007 167.982C113.608 167.986 114.098 167.502 114.102 166.902C114.106 166.301 113.623 165.811 113.022 165.807C110.668 165.791 108.304 165.764 105.934 165.731Z" fill="#E6E6E6"/>
<path d="M125.587 167.949C126.188 167.94 126.668 167.447 126.659 166.846C126.651 166.245 126.157 165.765 125.557 165.774C123.211 165.807 120.849 165.822 118.474 165.824C117.873 165.825 117.386 166.312 117.387 166.913C117.388 167.513 117.875 168 118.475 167.999C120.859 167.997 123.231 167.981 125.587 167.949Z" fill="#E6E6E6"/>
<path d="M224.919 187.493V197.009L232.116 197.242L231.816 187.493H224.919Z" fill="#AA8977"/>
<path d="M223.494 192.789C223.397 192.789 223.301 192.803 223.209 192.827C221.909 193.197 214.392 199.909 212.119 201.957C211.839 202.21 211.69 202.571 211.709 202.949C211.73 203.324 211.915 203.667 212.22 203.884C213.943 205.127 217.475 207.09 221.76 206.296C223.731 205.932 225.721 205.7 227.475 205.499C231.232 205.064 234.198 204.722 234.198 203.392C234.198 201.136 233.578 195.187 232.798 194.94C232.727 194.918 232.646 194.972 232.551 195.105C231.36 196.775 227.265 195.886 227.091 195.848L227.045 195.837L227.018 195.799C227.007 195.766 225.003 192.789 223.494 192.789Z" fill="black"/>
<path d="M211.456 187.493V197.009L218.652 197.242L218.353 187.493H211.456Z" fill="#AA8977"/>
<path d="M208.555 119.366L207.538 120.642L204.028 154.996L210.529 190.742L219 191.09L219.231 156.97L230.142 125.864L227.937 118.554L208.555 119.366Z" fill="black"/>
<path d="M226.428 124.937L230.142 125.864L232.812 190.742L223.179 189.929L216.795 144.085L226.428 124.937Z" fill="black"/>
<path d="M206.32 206.712C203.017 206.712 200.336 205.252 198.903 204.268C198.471 203.971 198.202 203.498 198.169 202.973C198.134 202.443 198.34 201.935 198.737 201.579C202.294 198.379 208.446 192.96 209.689 192.604C211.298 192.142 213.459 195.222 213.737 195.63C214.185 195.723 217.872 196.427 218.911 194.969C219.109 194.692 219.294 194.679 219.416 194.719C220.528 195.075 220.977 202.228 220.977 203.395C220.977 204.931 218.07 205.268 214.047 205.733C212.296 205.934 210.311 206.165 208.348 206.527C207.647 206.655 206.973 206.712 206.32 206.712Z" fill="black"/>
<path d="M181.514 76.6577C180.285 73.9416 180.747 71.0978 182.547 70.3067C184.347 69.5155 186.802 71.0761 188.034 73.7921C188.539 74.8714 188.771 76.0568 188.705 77.2504L193.765 88.8268L188.061 91.116L183.681 79.4607C182.732 78.713 181.99 77.7506 181.514 76.6577Z" fill="#AA8977"/>
<path d="M216.475 81.5731C219.558 84.4822 219.365 89.4439 216.064 92.1029L199.901 105.126C198.137 106.548 195.518 106.045 194.407 104.071C190.16 97.1951 189.358 96.8172 186.889 89.7675L193.852 87.3315L197.778 92.247L206.347 82.1359C208.936 79.0828 213.56 78.8245 216.475 81.5731Z" fill="#E4002B"/>
<path d="M218.853 76.6115L221.499 81.9375L211.505 86.7633L211.627 78.2237L218.853 76.6115Z" fill="#AA8977"/>
<path d="M211.54 80.6406C216.506 80.6406 220.531 76.6153 220.531 71.6497C220.531 66.6842 216.506 62.6588 211.54 62.6588C206.574 62.6588 202.549 66.6842 202.549 71.6497C202.549 76.6153 206.574 80.6406 211.54 80.6406Z" fill="#AA8977"/>
<path d="M211.48 84.686L220.7 79.2377C227.461 83.9792 233.092 85.0884 233.271 93.3453L232.026 113.043L232.099 121.525C232.129 125.087 229.253 127.99 225.691 127.99H212.527C209.044 127.99 206.448 124.777 207.182 121.37L209.667 109.832L207.013 87.3423L211.48 84.686Z" fill="#E4002B"/>
<path d="M201.089 73.3924L201.236 78.781L173.915 83.9765C173.801 84.3273 173.431 84.5883 172.991 84.6018L161.874 84.939C161.327 84.9553 160.873 84.5855 160.86 84.1152C160.61 80.2247 160.789 76.519 160.528 73.1151C160.515 72.6448 160.944 72.2506 161.491 72.2343L172.608 71.8971C173.154 71.8808 173.608 72.2478 173.622 72.7182L173.624 72.8351L200.902 73.387L201.089 73.3924Z" fill="black"/>
<path d="M197.18 79.3818C195.981 76.6522 196.478 73.8138 198.286 73.0416C200.094 72.2722 202.533 73.86 203.729 76.5923C204.224 77.6771 204.439 78.8652 204.36 80.0587L209.283 91.6923L203.552 93.9162L199.308 82.212C198.373 81.4507 197.642 80.4801 197.18 79.3818Z" fill="#AA8977"/>
<path d="M232.077 84.7078C235.128 87.6522 234.875 92.6112 231.544 95.2321L215.229 108.065C213.448 109.465 210.836 108.932 209.746 106.947C205.578 100.02 205.241 100.963 202.856 93.8863L209.281 89.8354L213.253 95.1668L221.942 85.1564C224.571 82.1277 229.195 81.9238 232.077 84.7078Z" fill="#E4002B"/>
<path d="M220.786 76.1737L219.125 77.3645C219.125 77.3645 218.636 72.1744 217.962 71.9433C217.287 71.7122 216.377 72.9085 216.377 72.9085L215.711 74.8578L213.511 73.9416C213.511 73.9416 210.964 72.5713 210.064 72.2641C209.164 71.9569 209.3 69.3496 209.3 69.3496C209.3 69.3496 198.495 70.8286 200.119 64.6C200.119 64.6 200.679 60.0189 201.875 60.9297C203.071 61.8404 203.087 59.5839 203.087 59.5839L205.798 59.0021C205.798 59.0021 209.517 53.9914 216.855 58.2544C224.193 62.5174 220.786 76.1737 220.786 76.1737Z" fill="black"/>
</svg>
