<svg width="302" height="192" viewBox="0 0 302 192" fill="none" xmlns="http://www.w3.org/2000/svg">
<path d="M253.161 160.126H1.08691L29.1961 0.711914H281.27L253.161 160.126Z" fill="#E6E6E6"/>
<path fill-rule="evenodd" clip-rule="evenodd" d="M29.0819 0.575928H281.432L253.275 160.262H0.924805L29.0819 0.575928ZM29.31 0.847803L1.24881 159.99H253.047L281.108 0.847803H29.31Z" fill="black"/>
<path d="M301.036 19.2157L272.927 178.63H20.8496L48.9615 19.2157H301.036Z" fill="#FAFAFA"/>
<path fill-rule="evenodd" clip-rule="evenodd" d="M48.8473 19.0797H301.198L273.041 178.765H20.6875L48.8473 19.0797ZM49.0754 19.3516L21.0115 178.494H272.812L300.874 19.3516H49.0754Z" fill="black"/>
<path d="M301.036 19.2157L299.649 27.0865H47.5747L48.9613 19.2157H301.036Z" fill="#E4002B"/>
<path d="M53.3113 24.8353C54.2408 24.8353 54.9942 24.0818 54.9942 23.1524C54.9942 22.2229 54.2408 21.4695 53.3113 21.4695C52.3819 21.4695 51.6284 22.2229 51.6284 23.1524C51.6284 24.0818 52.3819 24.8353 53.3113 24.8353Z" fill="#FAFAFA"/>
<path d="M59.2107 24.8353C60.1402 24.8353 60.8936 24.0818 60.8936 23.1524C60.8936 22.2229 60.1402 21.4695 59.2107 21.4695C58.2813 21.4695 57.5278 22.2229 57.5278 23.1524C57.5278 24.0818 58.2813 24.8353 59.2107 24.8353Z" fill="#FAFAFA"/>
<path d="M64.9339 24.8353C65.8633 24.8353 66.6168 24.0818 66.6168 23.1524C66.6168 22.2229 65.8633 21.4695 64.9339 21.4695C64.0044 21.4695 63.251 22.2229 63.251 23.1524C63.251 24.0818 64.0044 24.8353 64.9339 24.8353Z" fill="#FAFAFA"/>
<path d="M116.313 49.5868H71.5078V94.3918H116.313V49.5868Z" fill="#E6E6E6"/>
<path d="M177.892 49.5868H133.087V94.3918H177.892V49.5868Z" fill="#E6E6E6"/>
<path d="M241.854 53.6056L197.667 46.1993L190.261 90.386L234.447 97.7923L241.854 53.6056Z" fill="#E6E6E6"/>
<path fill-rule="evenodd" clip-rule="evenodd" d="M189.789 66.1433H196.697V67.7203C197.55 67.884 198.381 68.1068 199.186 68.3842L199.972 67.0219L205.953 70.4754L205.167 71.8374C205.817 72.4008 206.425 73.0094 206.989 73.6588L208.351 72.8727L211.804 78.8538L210.443 79.6397C210.721 80.4463 210.943 81.2785 211.106 82.1296H212.683V89.0366H211.106C210.942 89.8896 210.719 90.7206 210.442 91.5261L211.804 92.3124L208.351 98.2934L206.989 97.5074C206.425 98.1567 205.817 98.7654 205.167 99.3288L205.953 100.691L199.972 104.144L199.186 102.782C198.38 103.059 197.548 103.282 196.697 103.446V105.02H189.789V103.446C188.936 103.282 188.105 103.059 187.3 102.782L186.514 104.144L180.533 100.691L181.319 99.3288C180.669 98.7654 180.061 98.1567 179.497 97.5074L178.135 98.2934L174.682 92.3124L176.044 91.5264C175.765 90.7199 175.543 89.8876 175.38 89.0366H173.803V82.1296H175.38C175.543 81.2771 175.765 80.4459 176.043 79.6397L174.682 78.8538L178.135 72.8727L179.497 73.6588C180.061 73.0094 180.669 72.4008 181.319 71.8374L180.533 70.4754L186.514 67.0219L187.3 68.3836C188.106 68.1049 188.938 67.8835 189.789 67.7203V66.1433ZM190.857 67.2105V68.6188L190.411 68.6931C189.318 68.8752 188.259 69.1573 187.248 69.5364L186.824 69.6952L186.123 68.4797L181.99 70.8661L182.692 72.081L182.343 72.3683C181.5 73.0644 180.724 73.8396 180.028 74.6833L179.741 75.0316L178.526 74.3304L176.14 78.4631L177.355 79.1646L177.196 79.588C176.817 80.5989 176.535 81.6556 176.353 82.7507L176.279 83.1967H174.87V87.9694H176.279L176.353 88.4153C176.535 89.5079 176.817 90.5674 177.196 91.5782L177.355 92.0016L176.14 92.7031L178.526 96.8358L179.741 96.1346L180.028 96.4828C180.724 97.3266 181.5 98.1018 182.343 98.7979L182.692 99.0852L181.99 100.3L186.123 102.686L186.824 101.472L187.247 101.629C188.259 102.006 189.316 102.291 190.411 102.473L190.857 102.547V103.953H195.629V102.547L196.075 102.473C197.167 102.291 198.227 102.006 199.239 101.629L199.662 101.472L200.363 102.686L204.496 100.3L203.794 99.0852L204.143 98.7979C204.986 98.1018 205.762 97.3266 206.458 96.4828L206.745 96.1346L207.96 96.8358L210.346 92.7031L209.132 92.0021L209.289 91.5793C209.666 90.5669 209.951 89.5097 210.133 88.4155L210.207 87.9694H211.616V83.1967H210.207L210.133 82.7509C209.951 81.6583 209.669 80.5988 209.29 79.588L209.131 79.1646L210.346 78.4631L207.96 74.3304L206.745 75.0316L206.458 74.6833C205.762 73.8396 204.986 73.0644 204.143 72.3683L203.794 72.081L204.496 70.8661L200.363 68.4797L199.662 69.6943L199.239 69.5368C198.227 69.1598 197.17 68.8751 196.075 68.6931L195.629 68.619V67.2105H190.857Z" fill="#E4002B"/>
<path d="M245.951 142.87C244.372 141.856 243.918 139.751 244.932 138.175C245.041 138.006 245.163 137.848 245.299 137.702L242.746 101.469L250.1 102.181L250.301 137.666C251.596 139.039 251.533 141.201 250.163 142.495C249.013 143.577 247.273 143.732 245.951 142.87Z" fill="#A0616A"/>
<path d="M244.41 113.641C244.062 113.39 243.844 112.993 243.823 112.564L243.284 102.798C243.165 100.637 244.821 98.7853 246.985 98.6656C248.833 98.5651 250.5 99.7695 250.987 101.556L253.355 110.286C253.559 111.044 253.113 111.824 252.354 112.031L245.62 113.858C245.201 113.975 244.758 113.893 244.41 113.641Z" fill="#890000"/>
<path d="M231.874 187.414H227.997L226.153 172.458H231.876L231.874 187.414Z" fill="#A0616A"/>
<path d="M225.226 186.307H232.706V191.016H220.518C220.518 188.414 222.627 186.307 225.226 186.307Z" fill="black"/>
<path d="M246.425 187.414H242.548L240.702 172.458H246.425V187.414Z" fill="#A0616A"/>
<path d="M239.777 186.307H247.257V191.016H235.068C235.068 188.414 237.175 186.307 239.777 186.307Z" fill="black"/>
<path d="M231.692 179.88L227.423 179.676C226.668 179.641 226.072 179.021 226.067 178.265C224.941 160.895 223.383 142.269 225.768 135.072C225.762 134.287 226.396 133.645 227.181 133.64C227.252 133.64 227.325 133.645 227.396 133.653L244.473 136.133C245.171 136.231 245.691 136.826 245.691 137.53C247.871 146.051 247.969 161.499 247.887 177.553C247.893 178.339 247.262 178.98 246.474 178.986C246.471 178.986 246.465 178.986 246.463 178.986H241.86C241.159 178.988 240.56 178.477 240.454 177.784L237.616 159.734C237.521 159.131 236.955 158.717 236.352 158.813C235.862 158.889 235.484 159.283 235.425 159.775L233.171 178.627C233.084 179.342 232.478 179.88 231.757 179.88C231.738 179.883 231.714 179.88 231.692 179.88Z" fill="black"/>
<path d="M234.696 137.533C230.933 135.442 227.991 134.893 226.572 134.752C226.191 134.714 225.843 134.523 225.607 134.221C225.365 133.917 225.259 133.528 225.313 133.145L229.405 102.766C229.883 99.1523 232.203 96.0448 235.53 94.5549C238.752 93.0732 242.509 93.3695 245.459 95.3325C245.601 95.4249 245.737 95.5201 245.872 95.6179C249.29 98.1219 250.867 102.437 249.869 106.553C247.36 116.819 246.498 133.648 246.351 136.916C246.326 137.487 245.962 137.984 245.429 138.183C243.885 138.743 242.257 139.034 240.614 139.039C238.543 139.055 236.506 138.536 234.696 137.533Z" fill="#890000"/>
<path d="M238.119 90.4306C242.408 90.4306 245.886 86.953 245.886 82.6631C245.886 78.3732 242.408 74.8956 238.119 74.8956C233.829 74.8956 230.351 78.3732 230.351 82.6631C230.351 86.953 233.829 90.4306 238.119 90.4306Z" fill="#A0616A"/>
<path d="M243.616 88.8075C242.167 90.3517 239.475 89.5225 239.288 87.4128C239.274 87.2496 239.274 87.0838 239.291 86.9207C239.388 85.9854 239.927 85.1372 239.799 84.153C239.769 83.9083 239.679 83.6745 239.533 83.4733C238.377 81.9263 235.667 84.1638 234.576 82.7637C233.907 81.9046 234.693 80.5533 234.182 79.5936C233.505 78.3267 231.501 78.952 230.243 78.2587C228.842 77.4866 228.927 75.3415 229.848 74.0365C230.971 72.4433 232.94 71.5951 234.884 71.4727C236.827 71.3504 238.758 71.8751 240.574 72.5847C242.637 73.3894 244.682 74.4987 245.952 76.3121C247.496 78.517 247.643 81.4832 246.87 84.0605C246.403 85.632 244.801 87.5487 243.616 88.8075Z" fill="black"/>
<path d="M249.768 96.3602C249.632 95.7213 248.466 94.8486 246.794 94.1363C241.348 91.9314 235.18 92.4588 230.188 95.5609C229.835 95.5799 229.538 95.8328 229.465 96.178L223.848 121.022L223.116 124.257L222.633 126.4L221.901 129.627L221.512 131.351C221.417 131.777 221.684 132.201 222.111 132.299C222.146 132.308 222.179 132.313 222.214 132.316L246.471 134.409C246.492 134.409 246.517 134.412 246.541 134.412C246.957 134.409 247.3 134.086 247.327 133.672L247.558 130.157L247.805 126.4L247.914 124.771L248.159 121.022L249.774 96.401V96.3792L249.768 96.3602Z" fill="#E4002B"/>
<path d="M209.969 97.9262C210.007 98.0975 210.034 98.2715 210.045 98.4455L223.633 106.284L226.937 104.383L230.457 108.992L223.391 114.027L207.892 101.798C206.174 102.434 204.262 101.556 203.626 99.8375C202.99 98.1193 203.868 96.208 205.586 95.5718C207.305 94.9356 209.216 95.8138 209.852 97.532C209.898 97.6598 209.936 97.793 209.969 97.9262Z" fill="#A0616A"/>
<path d="M224.117 105.615C224.071 105.188 224.22 104.764 224.525 104.459L231.441 97.5429C232.972 96.0122 235.457 96.0122 236.988 97.5429C238.298 98.8506 238.513 100.898 237.504 102.45L232.581 110.038C232.151 110.696 231.27 110.884 230.612 110.457L224.759 106.659C224.397 106.428 224.161 106.044 224.117 105.615Z" fill="#890000"/>
<path d="M248.156 121.022L247.912 124.771L223.117 124.257L223.848 121.022H248.156Z" fill="#CCCCCC"/>
<path d="M247.806 126.4L247.558 130.157L221.904 129.627L222.636 126.4H247.806Z" fill="#CCCCCC"/>
<path d="M238.271 67.5686C232.806 67.5686 228.328 71.9104 228.157 77.3724H226.251C225.9 77.3724 225.618 77.6552 225.618 78.0059V80.537C225.618 80.8878 225.9 81.1705 226.251 81.1705H247.759C248.11 81.1705 248.393 80.8878 248.393 80.537V77.6905C248.393 72.1008 243.86 67.5686 238.271 67.5686Z" fill="#E4002B"/>
<path d="M97.9233 184.972H94.2611L93.7119 170.843H97.9233V184.972Z" fill="#FFB8B8"/>
<path d="M98.8584 188.523H87.0454V188.374C87.0454 185.834 89.1035 183.776 91.6428 183.776H98.8584V188.523Z" fill="black"/>
<path d="M118.556 184.972H122.221L122.767 170.843H118.556V184.972Z" fill="#FFB8B8"/>
<path d="M117.623 183.776H124.839C127.378 183.776 129.436 185.834 129.436 188.374V188.523H117.623V183.776Z" fill="black"/>
<path d="M118.653 183.162C118.023 183.159 117.479 182.724 117.34 182.109L108.26 142.505C108.219 142.299 108.034 142.149 107.822 142.155H107.819C107.607 142.152 107.422 142.302 107.384 142.511L99.0459 181.848C98.9126 182.468 98.3635 182.911 97.73 182.914H93.7579C93.0157 182.914 92.4121 182.313 92.4121 181.568C92.4121 181.541 92.4121 181.517 92.4148 181.49L95.3728 131.63L96.5636 131.277H96.5854L119.969 131.481L124.953 181.286C125.026 182.025 124.485 182.683 123.746 182.754C123.738 182.754 123.729 182.757 123.721 182.757L118.76 183.156C118.724 183.162 118.689 183.162 118.653 183.162Z" fill="black"/>
<path d="M108.997 85.64C113.049 85.64 116.334 82.3547 116.334 78.3021C116.334 74.2495 113.049 70.9642 108.997 70.9642C104.944 70.9642 101.659 74.2495 101.659 78.3021C101.659 82.3547 104.944 85.64 108.997 85.64Z" fill="#FFB8B8"/>
<path d="M104.5 137.095C103.211 137.111 101.931 136.929 100.696 136.56C98.4805 135.891 96.6371 134.336 95.604 132.264C95.4409 131.954 95.4055 131.595 95.5034 131.261C96.3136 128.498 100.223 114.138 97.7274 102.722C97.015 99.5166 97.6376 96.1616 99.4483 93.4239C101.218 90.7078 104.013 88.8265 107.197 88.212C107.61 88.1305 108.026 88.0652 108.434 88.0136C111.96 87.5786 115.494 88.7422 118.072 91.1836C120.728 93.674 122.131 97.2192 121.902 100.854L119.986 131.633C119.959 132.104 119.687 132.522 119.268 132.74C117.06 133.903 110.424 137.095 104.5 137.095Z" fill="#890000"/>
<path d="M117.289 72.9C115.717 68.9524 111.601 66.6387 107.412 67.3483L109.725 69.2188C106.851 69.3167 103.823 69.1101 101.77 71.1247C102.423 71.1056 103.279 72.5031 103.934 72.4868C102.714 72.5112 101.604 73.3704 101.066 74.466C100.566 75.5916 100.449 76.8504 100.734 78.052C100.976 79.251 102.817 82.0568 103.312 83.1742C103.227 80.2542 108.975 73.2915 111.781 74.0174C110.356 74.5476 109.116 75.4855 108.224 76.7171C110.133 75.7547 112.294 75.4013 114.41 75.7058C114.894 75.8172 115.391 75.8444 115.883 75.7873C116.859 75.5943 117.493 74.6482 117.3 73.6721C117.245 73.3948 117.126 73.1338 116.949 72.9109L117.289 72.9Z" fill="black"/>
<path d="M103.994 135.249C103.809 135.249 103.624 135.211 103.456 135.135L89.5303 129.056C88.9186 128.795 88.5923 128.121 88.7663 127.479L97.9856 92.6545C98.6979 89.9629 101.455 88.3588 104.146 89.0711C104.179 89.0793 104.212 89.0875 104.244 89.0983L107.931 90.1505L105.337 133.979C105.31 134.417 105.071 134.817 104.695 135.045C104.483 135.178 104.241 135.246 103.994 135.249Z" fill="#E4002B"/>
<path d="M129.768 127.479L129.156 125.168L128.27 121.81L127.843 120.201L126.957 116.851L120.554 92.6572C119.844 89.9683 117.093 88.3643 114.404 89.0711C114.369 89.0793 114.334 89.0902 114.298 89.1011L110.614 90.1532L112.441 120.981L112.629 124.2L112.748 126.228V126.231L112.939 129.431L113.208 133.982C113.254 134.692 113.839 135.244 114.548 135.249C114.733 135.249 114.915 135.208 115.087 135.135L129.012 129.056C129.616 128.795 129.942 128.121 129.768 127.479Z" fill="#E4002B"/>
<path d="M127.84 120.201L112.621 124.197L112.433 120.981L126.951 116.851L127.84 120.201Z" fill="#CCCCCC"/>
<path d="M129.153 125.171L112.931 129.431L112.74 126.231V126.228L128.267 121.81L129.153 125.171Z" fill="#CCCCCC"/>
<path d="M105.916 121.674L105.726 124.831L90.8027 120.386L91.6782 117.08L105.916 121.674Z" fill="#CCCCCC"/>
<path d="M105.603 126.911L90.373 121.995L89.4976 125.309L105.419 130.054L105.603 126.911Z" fill="#CCCCCC"/>
<path d="M108.969 64.5643C114.132 64.5643 118.363 68.6669 118.523 73.8271H120.323C120.652 73.8271 120.921 74.0935 120.921 74.4252V76.815C120.921 77.144 120.655 77.4131 120.323 77.4131H100.003C99.6739 77.4131 99.4048 77.1467 99.4048 76.815V74.1262C99.4075 68.8464 103.69 64.5643 108.969 64.5643Z" fill="#E4002B"/>
<path d="M108.091 119.024C108.254 119.043 108.417 119.075 108.578 119.119L119.828 109.473L119.17 105.933L124.382 104.242L126.155 110.394C126.448 111.417 126.035 112.507 125.135 113.075L110.889 122.09C110.916 123.822 109.535 125.25 107.803 125.277C106.071 125.304 104.644 123.923 104.617 122.191C104.589 120.459 105.971 119.032 107.702 119.005C107.833 119.005 107.961 119.01 108.091 119.024Z" fill="#FFB8B8"/>
<path d="M119.855 93.046C121.413 92.611 122.968 93.7964 123.49 95.8137L125.991 105.503C126.179 106.229 125.815 107.001 125.246 107.083L118.58 108.043C118.066 108.116 117.615 107.591 117.596 106.898L117.337 97.3607C117.283 95.2917 118.346 93.4674 119.855 93.046Z" fill="#890000"/>
<path fill-rule="evenodd" clip-rule="evenodd" d="M79.6255 94.8714C80.7882 92.4652 83.6838 91.4593 86.0891 92.6217L110.065 104.208C110.102 104.226 110.133 104.245 110.146 104.252L110.148 104.254C110.15 104.255 110.152 104.257 110.154 104.257C111.649 104.966 112.743 106.423 112.904 108.191C113.145 110.853 111.183 113.203 108.522 113.444L108.503 113.446L98.7372 113.599L104.241 116.259C105.92 117.07 106.915 118.727 106.971 120.465L106.971 120.468C107.212 123.131 105.25 125.481 102.586 125.718L102.568 125.72L93.3614 125.866L98.5435 128.37C100.952 129.534 101.96 132.426 100.797 134.832C99.6343 137.238 96.7388 138.244 94.3335 137.082L70.63 125.627C70.575 125.601 70.5088 125.563 70.4692 125.541C70.4667 125.54 70.4642 125.538 70.4619 125.537C68.868 124.864 67.6862 123.358 67.5186 121.513C67.2771 118.85 69.2395 116.5 71.9009 116.259L71.9195 116.257L81.6853 116.105L76.4534 113.576C75.5787 113.154 74.89 112.501 74.4215 111.727C73.8902 111.03 73.5374 110.178 73.453 109.239C73.2117 106.577 75.1741 104.227 77.8353 103.985L77.8539 103.984L87.0612 103.838L81.8791 101.334C79.4709 100.17 78.4628 97.2773 79.6255 94.8714ZM85.6539 93.5224C83.7451 92.6 81.4481 93.3987 80.5261 95.3066C79.604 97.2147 80.4031 99.5094 82.3143 100.433L91.2918 104.771L77.9077 104.983C75.8048 105.184 74.2583 107.043 74.4493 109.149C74.5168 109.9 74.8011 110.582 75.2316 111.14L75.2497 111.164L75.2649 111.189C75.6374 111.812 76.1872 112.337 76.8887 112.676L85.9178 117.039L71.9731 117.257C69.8703 117.457 68.3238 119.317 68.5148 121.422C68.6484 122.893 69.594 124.094 70.8722 124.624L70.8964 124.634L70.9194 124.647C70.9545 124.666 70.9777 124.679 70.9963 124.69C71.0218 124.704 71.0386 124.714 71.0652 124.726L94.7687 136.181C96.6774 137.103 98.9744 136.305 99.8964 134.397C100.819 132.489 100.019 130.194 98.1082 129.27L89.1307 124.932L102.515 124.72C104.602 124.525 106.14 122.694 105.979 120.61L105.973 120.594L105.971 120.517C105.934 119.127 105.142 117.805 103.806 117.159L94.5047 112.664L108.449 112.447C110.552 112.246 112.099 110.387 111.908 108.281C111.78 106.878 110.91 105.719 109.717 105.157L109.712 105.155C109.676 105.137 109.644 105.118 109.632 105.111L109.629 105.109C109.626 105.108 109.624 105.106 109.623 105.105L85.6539 93.5224ZM105.972 120.515L105.972 120.516Z" fill="#E4002B"/>
<path d="M90.6393 130.214C92.3549 129.765 93.3825 128.012 92.9339 126.296C92.885 126.114 92.8225 125.935 92.7436 125.763L99.9048 103.285L94.8289 102.222L88.2631 124.26C86.6971 125.111 86.118 127.071 86.969 128.637C87.6813 129.95 89.1984 130.6 90.6393 130.214Z" fill="#FFB8B8"/>
<path d="M100.104 92.2357C101.561 92.3853 102.382 94.0247 102.02 96.0637L100.28 105.859C100.15 106.593 99.5463 107.175 99.0433 107.05L93.16 105.579C92.7059 105.465 92.5401 104.824 92.7984 104.179L96.3273 95.3188C97.094 93.3939 98.6899 92.0916 100.104 92.2357Z" fill="#890000"/>
</svg>
