<svg width="553" height="379" viewBox="0 0 553 379" fill="none" xmlns="http://www.w3.org/2000/svg">
<g clip-path="url(#clip0_1135_185)">
<path d="M463.776 293.21H0.467163L52.1224 0.38916H515.447L463.776 293.21Z" fill="#E6E6E6"/>
<path fill-rule="evenodd" clip-rule="evenodd" d="M51.7958 0H515.911L464.103 293.599H0.0032959L51.7958 0ZM52.4492 0.778159L0.931221 292.821H463.449L514.983 0.778159H52.4492Z" fill="black"/>
<path d="M551.763 34.3789L500.108 327.2H36.7831L88.4539 34.3789H551.763Z" fill="#FAFAFA"/>
<path fill-rule="evenodd" clip-rule="evenodd" d="M88.1272 33.9902H552.227L500.434 327.59H36.3191L88.1272 33.9902ZM88.7806 34.7684L37.2471 326.812H499.781L551.299 34.7684H88.7806Z" fill="black"/>
<path d="M551.763 34.3789L549.224 48.8371H85.9155L88.4539 34.3789H551.763Z" fill="#E4002B"/>
<path d="M96.4428 44.6976C98.1543 44.6976 99.5418 43.311 99.5418 41.6005C99.5418 39.89 98.1543 38.5034 96.4428 38.5034C94.7312 38.5034 93.3438 39.89 93.3438 41.6005C93.3438 43.311 94.7312 44.6976 96.4428 44.6976Z" fill="#FAFAFA"/>
<path d="M107.297 44.6976C109.009 44.6976 110.396 43.311 110.396 41.6005C110.396 39.89 109.009 38.5034 107.297 38.5034C105.586 38.5034 104.198 39.89 104.198 41.6005C104.198 43.311 105.586 44.6976 107.297 44.6976Z" fill="#FAFAFA"/>
<path d="M117.809 44.6976C119.52 44.6976 120.908 43.311 120.908 41.6005C120.908 39.89 119.52 38.5034 117.809 38.5034C116.097 38.5034 114.71 39.89 114.71 41.6005C114.71 43.311 116.097 44.6976 117.809 44.6976Z" fill="#FAFAFA"/>
<path d="M372.535 177.436C372.721 164.254 373.08 138.995 372.815 134.964C371.149 109.223 348.942 87.3718 322.234 85.2241C320.568 85.0841 318.886 85.0062 317.251 84.9907C302.69 84.8351 289.843 89.3795 279.066 98.4995C268.368 107.542 261.344 120.879 260.27 134.155C259.974 137.89 260.067 165.126 260.098 177.81C249.306 190.151 242.797 206.072 242.797 223.472C242.797 262.644 275.78 294.409 316.488 294.409C357.195 294.409 390.179 262.644 390.179 223.472C390.179 205.901 383.545 189.824 372.55 177.436H372.535ZM284.034 159.772C284.439 145.018 285.591 128.817 288.69 123.774C294.655 114.063 304.481 108.351 315.647 108.118C316.036 108.118 316.441 108.118 316.83 108.118C328.152 108.227 338.072 113.829 344.036 123.463C347.384 128.863 348.568 144.707 348.895 159.741C339.115 155.118 328.121 152.535 316.503 152.535C304.886 152.535 293.845 155.134 284.049 159.772H284.034Z" fill="#E6E6E6"/>
<path fill-rule="evenodd" clip-rule="evenodd" d="M325.847 217.682C327.14 215.877 327.903 213.667 327.903 211.27C327.903 205.169 322.95 200.22 316.846 200.22C310.741 200.22 305.789 205.169 305.789 211.27C305.789 213.667 306.552 215.877 307.845 217.682C303.827 220.515 301.211 225.184 301.211 230.459C301.211 239.082 308.203 246.085 316.846 246.085C325.489 246.085 332.481 239.097 332.481 230.459C332.481 225.184 329.865 220.515 325.847 217.682Z" fill="#FAFAFA"/>
<path fill-rule="evenodd" clip-rule="evenodd" d="M305.4 211.27C305.4 204.954 310.526 199.831 316.846 199.831C323.165 199.831 328.292 204.954 328.292 211.27C328.292 213.612 327.588 215.782 326.384 217.59C330.323 220.511 332.87 225.19 332.87 230.459C332.87 239.312 325.704 246.474 316.846 246.474C307.988 246.474 300.821 239.296 300.821 230.459C300.821 225.19 303.368 220.511 307.308 217.59C306.104 215.782 305.4 213.612 305.4 211.27ZM316.846 200.609C310.956 200.609 306.178 205.384 306.178 211.27C306.178 213.583 306.914 215.714 308.161 217.456L308.389 217.774L308.069 218C304.15 220.763 301.6 225.315 301.6 230.459C301.6 238.867 308.418 245.696 316.846 245.696C325.274 245.696 332.092 238.882 332.092 230.459C332.092 225.315 329.541 220.763 325.623 218L325.302 217.774L325.53 217.456C326.777 215.714 327.513 213.583 327.513 211.27C327.513 205.384 322.735 200.609 316.846 200.609Z" fill="white"/>
<path d="M172.625 370.03H163.78L162.456 335.962H172.625V370.03Z" fill="#FFB8B8"/>
<path d="M174.884 378.606H146.385V378.248C146.385 372.132 151.353 367.167 157.473 367.167H174.884V378.621V378.606Z" fill="black"/>
<path d="M222.412 370.03H231.257L232.581 335.962H222.412V370.03Z" fill="#FFB8B8"/>
<path d="M220.154 367.151H237.564C243.684 367.151 248.652 372.116 248.652 378.232V378.59H220.154V367.136V367.151Z" fill="black"/>
<path d="M222.646 365.673C221.119 365.673 219.811 364.615 219.484 363.136L197.573 267.625C197.48 267.127 197.028 266.769 196.514 266.784C196 266.784 195.549 267.142 195.455 267.64L175.335 362.498C175.008 363.992 173.684 365.066 172.158 365.066H162.581C160.79 365.066 159.342 363.619 159.342 361.829C159.342 361.767 159.342 361.704 159.342 361.642L166.474 241.401L169.34 240.545H169.386L225.807 241.043L237.829 361.144C238 362.918 236.708 364.506 234.917 364.692C234.901 364.692 234.886 364.692 234.855 364.692L222.879 365.657C222.786 365.657 222.708 365.657 222.614 365.657L222.646 365.673Z" fill="black"/>
<path d="M199.348 130.498C209.127 130.498 217.055 122.575 217.055 112.802C217.055 103.029 209.127 95.1069 199.348 95.1069C189.569 95.1069 181.642 103.029 181.642 112.802C181.642 122.575 189.569 130.498 199.348 130.498Z" fill="#FFB8B8"/>
<path d="M188.494 254.583C185.38 254.614 182.296 254.194 179.322 253.291C173.98 251.673 169.526 247.937 167.035 242.926C166.646 242.179 166.552 241.323 166.786 240.514C168.732 233.853 178.169 199.225 172.158 171.693C170.445 163.974 171.94 155.881 176.301 149.267C180.568 142.715 187.311 138.186 194.988 136.707C195.985 136.505 196.997 136.349 197.978 136.225C206.481 135.182 215.015 137.983 221.244 143.866C227.644 149.874 231.039 158.418 230.479 167.18L225.854 241.401C225.791 242.537 225.137 243.549 224.125 244.062C218.799 246.848 202.79 254.552 188.494 254.552V254.583Z" fill="#890000"/>
<path d="M219.344 99.7758C215.56 90.2511 205.624 84.6795 195.518 86.3914L201.108 90.9047C194.178 91.1382 186.875 90.6402 181.907 95.4959C183.48 95.4492 185.551 98.8264 187.124 98.7797C184.18 98.842 181.502 100.912 180.194 103.558C178.995 106.281 178.699 109.316 179.384 112.195C179.96 115.09 184.414 121.86 185.598 124.552C185.395 117.518 199.255 100.725 206.029 102.468C202.588 103.744 199.598 106.017 197.449 108.974C202.058 106.655 207.259 105.799 212.367 106.53C213.535 106.795 214.734 106.857 215.918 106.732C218.27 106.266 219.796 103.978 219.344 101.628C219.204 100.959 218.924 100.336 218.503 99.7913H219.313L219.344 99.7758Z" fill="black"/>
<path d="M187.28 250.132C186.828 250.132 186.392 250.038 185.987 249.851L152.381 235.191C150.901 234.553 150.123 232.934 150.543 231.393L172.781 147.414C174.494 140.925 181.159 137.049 187.653 138.777C187.731 138.792 187.809 138.824 187.887 138.839L196.779 141.376L190.519 247.066C190.456 248.124 189.88 249.089 188.977 249.633C188.463 249.945 187.887 250.116 187.295 250.116L187.28 250.132Z" fill="#E4002B"/>
<path d="M249.462 231.393L247.983 225.822L245.834 217.729L244.806 213.838L242.657 205.761L227.208 147.414C225.495 140.925 218.861 137.065 212.367 138.761C212.274 138.777 212.196 138.808 212.118 138.839L203.226 141.376L207.633 215.721L208.085 223.487L208.381 228.374L208.848 236.094L209.502 247.066C209.611 248.778 211.028 250.116 212.741 250.116C213.193 250.116 213.629 250.023 214.034 249.836L247.64 235.175C249.119 234.537 249.898 232.919 249.478 231.378L249.462 231.393Z" fill="#E4002B"/>
<path d="M244.806 213.839L208.085 223.472L207.633 215.722L242.672 205.761L244.806 213.839Z" fill="#CCCCCC"/>
<path d="M247.983 225.822L208.832 236.093L208.381 228.374L245.849 217.713L247.983 225.822Z" fill="#CCCCCC"/>
<path d="M191.905 217.387L191.453 225.013L155.433 214.29L157.551 206.306L191.905 217.387Z" fill="#CCCCCC"/>
<path d="M191.157 230.024L154.405 218.165L152.287 226.165L190.706 237.588L191.157 230.024Z" fill="#CCCCCC"/>
<path d="M225.542 148.349C229.295 147.29 233.048 150.154 234.31 155.025L240.352 178.401C240.803 180.16 239.931 182.012 238.545 182.214L222.459 184.533C221.228 184.704 220.138 183.444 220.092 181.778L219.469 158.776C219.328 153.78 221.898 149.391 225.542 148.364V148.349Z" fill="#890000"/>
<path d="M177.889 146.403C181.409 146.761 183.386 150.714 182.514 155.632L178.31 179.257C177.998 181.031 176.534 182.432 175.32 182.12L161.117 178.572C160.027 178.292 159.622 176.751 160.245 175.195L168.763 153.826C170.617 149.189 174.463 146.045 177.874 146.387L177.889 146.403Z" fill="#890000"/>
<path d="M188.977 194.478C172.952 178.463 146.961 178.463 130.937 194.478C114.912 210.492 114.912 236.467 130.937 252.482C146.961 268.496 172.952 268.496 188.977 252.482C205.001 236.467 205.001 210.492 188.977 194.478ZM138.069 201.621C143.909 195.785 151.68 192.563 159.949 192.563C166.303 192.563 172.376 194.478 177.5 198.011L134.456 241.027C130.921 235.907 129.006 229.853 129.006 223.487C129.006 215.223 132.229 207.457 138.069 201.621ZM159.949 254.412C153.595 254.412 147.522 252.497 142.398 248.964L185.442 205.948C188.977 211.068 190.892 217.122 190.892 223.487C190.892 231.752 187.669 239.518 181.829 245.354C175.989 251.19 168.218 254.412 159.949 254.412Z" fill="#FF1515"/>
<path d="M197.153 211.006C197.542 211.053 197.947 211.13 198.321 211.239L225.464 187.972L223.876 179.444L236.459 175.366L240.741 190.198C241.458 192.657 240.445 195.303 238.281 196.672L203.896 218.414C203.958 222.585 200.625 226.024 196.452 226.102C192.278 226.164 188.837 222.834 188.759 218.663C188.697 214.492 192.029 211.053 196.203 210.975C196.514 210.975 196.826 210.975 197.137 211.021L197.153 211.006Z" fill="#FFB8B8"/>
<path d="M155.044 237.993C159.186 236.919 161.662 232.686 160.588 228.546C160.479 228.11 160.323 227.674 160.12 227.254L177.391 173.047L165.135 170.479L149.297 223.628C145.513 225.682 144.127 230.413 146.183 234.18C147.896 237.339 151.571 238.911 155.044 237.977V237.993Z" fill="#FFB8B8"/>
<path d="M529.634 267.733C526.005 265.399 524.962 260.574 527.298 256.948C527.547 256.559 527.827 256.201 528.139 255.858L522.268 172.642L539.164 174.276L539.632 255.781C542.606 258.924 542.466 263.905 539.305 266.877C536.673 269.367 532.671 269.725 529.618 267.749L529.634 267.733Z" fill="#A0616A"/>
<path d="M526.099 200.609C525.305 200.033 524.806 199.131 524.744 198.134L523.498 175.708C523.218 170.743 527.033 166.495 532.001 166.214C536.252 165.981 540.083 168.751 541.189 172.844L546.624 192.905C547.091 194.648 546.063 196.438 544.319 196.921L528.84 201.107C527.89 201.372 526.862 201.185 526.068 200.609H526.099Z" fill="#890000"/>
<path d="M497.289 370.046H488.381L484.145 335.698H497.289V370.046Z" fill="#A0616A"/>
<path d="M482.012 367.493H499.204V378.31H471.204C471.204 372.333 476.048 367.493 482.028 367.493H482.012Z" fill="black"/>
<path d="M530.724 370.046H521.816L517.58 335.698H530.724V370.046Z" fill="#A0616A"/>
<path d="M515.447 367.493H532.639V378.31H504.639C504.639 372.333 509.482 367.493 515.462 367.493H515.447Z" fill="black"/>
<path d="M496.868 352.739L487.057 352.272C485.329 352.195 483.958 350.763 483.943 349.035C481.358 309.147 477.776 266.364 483.258 249.836C483.258 248.03 484.706 246.552 486.512 246.536C486.684 246.536 486.839 246.536 487.011 246.567L526.254 252.263C527.858 252.481 529.058 253.851 529.058 255.469C534.072 275.032 534.29 310.516 534.103 347.386C534.103 349.191 532.67 350.669 530.864 350.685C530.864 350.685 530.848 350.685 530.833 350.685H520.259C518.639 350.685 517.269 349.518 517.035 347.93L510.51 306.47C510.292 305.085 508.984 304.135 507.598 304.353C506.477 304.525 505.605 305.427 505.465 306.563L500.279 349.86C500.076 351.494 498.69 352.739 497.024 352.739C496.977 352.739 496.915 352.739 496.868 352.739Z" fill="black"/>
<path d="M503.783 255.485C495.14 250.676 488.381 249.415 485.111 249.089C484.239 249.011 483.429 248.559 482.884 247.875C482.323 247.174 482.09 246.287 482.214 245.4L491.62 175.63C492.726 167.335 498.052 160.192 505.698 156.768C513.095 153.359 521.738 154.044 528.513 158.557C528.84 158.775 529.151 158.993 529.462 159.211C537.311 164.97 540.94 174.868 538.65 184.33C532.889 207.908 530.895 246.552 530.568 254.069C530.521 255.376 529.68 256.528 528.45 256.979C524.9 258.271 521.162 258.94 517.378 258.956C512.628 258.987 507.941 257.788 503.783 255.485Z" fill="#890000"/>
<path d="M511.647 147.29C521.503 147.29 529.494 139.305 529.494 129.455C529.494 119.604 521.503 111.619 511.647 111.619C501.791 111.619 493.801 119.604 493.801 129.455C493.801 139.305 501.791 147.29 511.647 147.29Z" fill="#A0616A"/>
<path d="M524.277 143.57C520.944 147.119 514.762 145.22 514.326 140.364C514.294 139.991 514.294 139.617 514.326 139.228C514.544 137.08 515.789 135.135 515.494 132.863C515.431 132.302 515.213 131.758 514.886 131.306C512.239 127.758 506.01 132.894 503.503 129.672C501.961 127.696 503.767 124.599 502.599 122.389C501.042 119.478 496.432 120.91 493.551 119.323C490.343 117.548 490.53 112.615 492.648 109.627C495.233 105.969 499.749 104.024 504.219 103.744C508.688 103.464 513.127 104.678 517.3 106.296C522.034 108.148 526.737 110.701 529.665 114.856C533.216 119.914 533.558 126.731 531.783 132.66C530.708 136.271 527.018 140.66 524.308 143.555L524.277 143.57Z" fill="black"/>
<path d="M538.417 160.923C538.105 159.46 535.427 157.453 531.58 155.819C519.06 150.761 504.888 151.975 493.411 159.087C492.601 159.134 491.916 159.709 491.745 160.503L478.835 217.558L477.153 224.997L476.048 229.915L474.366 237.323L473.478 241.276C473.26 242.257 473.867 243.237 474.848 243.455C474.926 243.47 475.004 243.486 475.082 243.486L530.833 248.295C530.833 248.295 530.942 248.295 530.989 248.295C531.939 248.295 532.733 247.548 532.795 246.599L533.325 238.521L533.885 229.884L534.134 226.149L534.695 217.542L538.417 161.001V160.908V160.923Z" fill="#E4002B"/>
<path d="M479.458 182.167C479.349 181.186 479.692 180.206 480.392 179.506L496.292 163.615C499.812 160.098 505.511 160.098 509.031 163.615C512.036 166.619 512.535 171.319 510.214 174.883L498.893 192.314C497.912 193.824 495.887 194.259 494.361 193.279L480.906 184.548C480.081 184.019 479.536 183.132 479.427 182.151L479.458 182.167Z" fill="#890000"/>
<path d="M534.71 217.558L534.15 226.164L477.169 224.997L478.851 217.558H534.71Z" fill="#CCCCCC"/>
<path d="M533.901 229.915L533.34 238.537L474.381 237.323L476.063 229.915H533.901Z" fill="#CCCCCC"/>
<path d="M438.859 122.217C422.835 106.203 396.844 106.203 380.819 122.217C364.795 138.232 364.795 164.207 380.819 180.221C396.844 196.236 422.835 196.236 438.859 180.221C454.884 164.207 454.884 138.232 438.859 122.217ZM387.952 129.361C393.791 123.525 401.562 120.303 409.832 120.303C416.185 120.303 422.259 122.217 427.382 125.75L384.339 168.767C380.804 163.647 378.888 157.593 378.888 151.227C378.888 142.963 382.112 135.197 387.952 129.361ZM409.832 182.151C403.478 182.151 397.404 180.237 392.281 176.704L435.324 133.688C438.859 138.808 440.775 144.862 440.775 151.227C440.775 159.491 437.551 167.257 431.711 173.093C425.872 178.93 418.101 182.151 409.832 182.151Z" fill="#FF1515"/>
<path d="M446.942 164.502C447.035 164.892 447.082 165.296 447.113 165.701L478.337 183.707L485.921 179.334L494.019 189.917L477.776 201.481L442.145 173.389C438.19 174.852 433.798 172.829 432.35 168.891C430.886 164.938 432.911 160.549 436.851 159.102C440.806 157.639 445.198 159.662 446.646 163.6C446.755 163.896 446.848 164.191 446.911 164.502H446.942Z" fill="#A0616A"/>
</g>
<defs>
<clipPath id="clip0_1135_185">
<rect width="552.23" height="378.606" fill="white"/>
</clipPath>
</defs>
</svg>
