<svg width="104" height="70" viewBox="0 0 104 70" fill="none" xmlns="http://www.w3.org/2000/svg">
<path d="M87.2279 55.2353H0.305664L9.99754 0.266724H96.9207L87.2279 55.2353Z" fill="#E6E6E6"/>
<path fill-rule="evenodd" clip-rule="evenodd" d="M9.95841 0.219849H96.9767L87.2674 55.2822H0.25L9.95841 0.219849ZM10.0371 0.313596L0.361725 55.1884H87.1887L96.865 0.313596H10.0371Z" fill="black"/>
<path d="M103.737 6.64709L94.0428 61.6157H7.12061L16.8134 6.64709H103.737Z" fill="#FAFAFA"/>
<path fill-rule="evenodd" clip-rule="evenodd" d="M16.7738 6.60022H103.792L94.0818 61.6626H7.06445L16.7738 6.60022ZM16.8525 6.69397L7.17618 61.5688H94.0032L103.68 6.69397H16.8525Z" fill="black"/>
<path d="M103.737 6.64709L103.259 9.36107H16.3354L16.8136 6.64709H103.737Z" fill="#E4002B"/>
<path d="M18.3132 8.58491C18.6337 8.58491 18.8935 8.3251 18.8935 8.00461C18.8935 7.68412 18.6337 7.42432 18.3132 7.42432C17.9927 7.42432 17.7329 7.68412 17.7329 8.00461C17.7329 8.3251 17.9927 8.58491 18.3132 8.58491Z" fill="#FAFAFA"/>
<path d="M20.3479 8.58491C20.6684 8.58491 20.9282 8.3251 20.9282 8.00461C20.9282 7.68412 20.6684 7.42432 20.3479 7.42432C20.0274 7.42432 19.7676 7.68412 19.7676 8.00461C19.7676 8.3251 20.0274 8.58491 20.3479 8.58491Z" fill="#FAFAFA"/>
<path d="M22.321 8.58491C22.6415 8.58491 22.9013 8.3251 22.9013 8.00461C22.9013 7.68412 22.6415 7.42432 22.321 7.42432C22.0005 7.42432 21.7407 7.68412 21.7407 8.00461C21.7407 8.3251 22.0005 8.58491 22.321 8.58491Z" fill="#FAFAFA"/>
<path d="M44.3592 16.0988H28.9092V31.5483H44.3592V16.0988Z" fill="#E6E6E6"/>
<path d="M67.6775 16.0988H52.2275V31.5483H67.6775V16.0988Z" fill="#E6E6E6"/>
<path d="M44.4939 37.1769H29.0439V52.6264H44.4939V37.1769Z" fill="#E6E6E6"/>
<path d="M89.721 16.0988H74.271V31.5483H89.721V16.0988Z" fill="#E6E6E6"/>
<path d="M89.721 37.1769H74.271V52.6264H89.721V37.1769Z" fill="#E6E6E6"/>
<path d="M34.5462 25.2279L34.5266 24.9175C34.5397 23.8338 35.1078 23.1607 35.8672 22.7379C36.6003 22.2758 37.2744 22.0976 37.3203 21.8061C37.3531 21.6345 37.2547 21.4227 36.7522 21.4227C36.3162 21.4227 36.065 21.6402 36.0059 21.9645L33.2188 21.958C33.5816 19.8974 35.3788 18.959 37.3672 18.959C39.2169 18.959 40.5575 20.0483 40.2866 21.568C40.055 22.8757 39.0912 23.4635 38.3778 23.906C37.79 24.2557 37.4731 24.4873 37.3278 24.9429L37.2153 25.2269H34.5462V25.2279ZM34.0241 27.1103C34.1497 26.3903 34.7113 25.8025 35.8203 25.8025C36.9238 25.8025 37.2866 26.3903 37.1609 27.1103C37.0353 27.8434 36.4541 28.4181 35.3506 28.4181C34.2622 28.4181 33.8984 27.8303 34.0241 27.1103Z" fill="#FAFAFA"/>
<path d="M67.6775 37.1769H52.2275V52.6264H67.6775V37.1769Z" fill="#E6E6E6"/>
<path d="M80.1019 24.97L80.0822 24.6597C80.0954 23.576 80.6635 22.9029 81.4229 22.4801C82.156 22.0179 82.83 21.8398 82.876 21.5483C82.9088 21.3767 82.8104 21.1648 82.3079 21.1648C81.8719 21.1648 81.6207 21.3823 81.5616 21.7067L78.7744 21.7001C79.1372 19.6396 80.9344 18.7012 82.9229 18.7012C84.7725 18.7012 86.1132 19.7905 85.8422 21.3102C85.6107 22.6179 84.6469 23.2057 83.9335 23.6482C83.3457 23.9979 83.0288 24.2294 82.8835 24.685L82.771 24.9691H80.1019V24.97ZM79.5797 26.8525C79.7054 26.1325 80.2669 25.5447 81.376 25.5447C82.4794 25.5447 82.8422 26.1325 82.7166 26.8525C82.591 27.5856 82.0097 28.1603 80.9063 28.1603C79.8179 28.1603 79.4541 27.5725 79.5797 26.8525Z" fill="#FAFAFA"/>
<path d="M58.6317 46.454L58.612 46.1437C58.6251 45.06 59.1933 44.3869 59.9526 43.9641C60.6858 43.502 61.3598 43.3238 61.4058 43.0323C61.4386 42.8607 61.3401 42.6489 60.8376 42.6489C60.4017 42.6489 60.1505 42.8663 60.0914 43.1907L57.3042 43.1841C57.667 41.1236 59.4642 40.1852 61.4526 40.1852C63.3023 40.1852 64.643 41.2745 64.372 42.7942C64.1405 44.1019 63.1767 44.6897 62.4633 45.1322C61.8755 45.4819 61.5586 45.7134 61.4133 46.1691L61.3008 46.4531H58.6317V46.454ZM58.1105 48.3365C58.2361 47.6165 58.7976 47.0287 59.9067 47.0287C61.0101 47.0287 61.373 47.6165 61.2473 48.3365C61.1217 49.0696 60.5405 49.6443 59.437 49.6443C58.3476 49.6443 57.9848 49.0565 58.1105 48.3365Z" fill="#FAFAFA"/>
<path d="M92.1879 68.2043L91.3582 68.1977L90.9907 64.9213L92.216 64.9316L92.1879 68.2043Z" fill="#A0616A"/>
<path d="M89.5293 69.5242C89.5274 69.7286 89.6924 69.8964 89.8968 69.8983L91.5468 69.9123L91.8356 69.3264L91.9415 69.9152L92.564 69.9208L92.4065 67.8218L92.1899 67.8077L91.3059 67.7468L91.0209 67.728L91.0162 68.3224L89.6906 69.2214C89.5912 69.2889 89.5303 69.4024 89.5293 69.5242Z" fill="#2F2E41"/>
<path d="M96.4115 68.2043L95.5819 68.1977L95.2144 64.9213L96.4397 64.9316L96.4115 68.2043Z" fill="#A0616A"/>
<path d="M93.7529 69.5242C93.7511 69.7286 93.9161 69.8964 94.1205 69.8983L95.7704 69.9123L96.0592 69.3264L96.1651 69.9152L96.7876 69.9208L96.6301 67.8218L96.4136 67.8077L95.5295 67.7468L95.2445 67.728L95.2398 68.3224L93.9142 69.2214C93.8148 69.2889 93.7539 69.4024 93.7529 69.5242Z" fill="#2F2E41"/>
<path d="M88.9314 41.7151L92.2961 41.821L95.4836 42.5298C95.4836 42.5298 95.1648 42.9197 96.227 43.9819C96.227 43.9819 97.6436 46.4615 96.6517 48.8699L96.227 58.5033C96.227 58.5033 97.4664 65.2943 96.5195 67.4562L95.2679 67.534L93.1501 58.5821L92.1179 48.9411L91.622 58.433C91.622 58.433 93.5186 64.9484 92.3214 67.5349L90.9657 67.4571L88.6464 58.4339C88.6464 58.4339 87.6545 48.0215 87.7961 46.0378C87.9395 44.0522 88.9314 41.7151 88.9314 41.7151Z" fill="#2F2E41"/>
<path d="M100.231 26.4924C99.7707 26.6115 99.4951 27.0812 99.6141 27.5405C99.6685 27.7514 99.7969 27.923 99.9648 28.0364V28.0374L99.8991 29.618L101.109 30.1776L101.205 27.7458H101.197C101.302 27.5593 101.338 27.3333 101.28 27.1093C101.16 26.649 100.69 26.3734 100.231 26.4924Z" fill="#A0616A"/>
<path d="M93.4705 32.1322C93.2165 31.8801 93.0693 31.5388 93.0636 31.1676C93.0561 30.6698 93.3055 30.217 93.7311 29.9582C94.2215 29.6601 94.8336 29.6901 95.2921 30.0351L99.0899 32.8944L99.7668 28.7751L101.22 29.2429L100.873 34.6072C100.849 34.9821 100.637 35.3131 100.306 35.4912C99.9749 35.6693 99.5821 35.6656 99.2549 35.479L93.7658 32.3563C93.6571 32.2944 93.5577 32.2185 93.4705 32.1322Z" fill="#E4002B"/>
<path d="M87.6799 24.1882C87.9227 24.5969 87.7886 25.1247 87.3799 25.3675C87.1924 25.4791 86.9805 25.51 86.7827 25.4725L86.7817 25.4734L85.7149 26.6415L84.4614 26.1878L86.1049 24.3925L86.1105 24.3991C86.1677 24.1928 86.3008 24.0072 86.4995 23.8891C86.9092 23.6454 87.437 23.7794 87.6799 24.1882Z" fill="#A0616A"/>
<path d="M88.1401 32.9038L82.0435 31.2567C81.6807 31.1582 81.3985 30.8854 81.2888 30.5254C81.1792 30.1654 81.2616 29.782 81.5082 29.498L85.0388 25.4443L86.4001 26.1353L83.9804 29.5373L88.6913 30.1804C89.2595 30.2582 89.716 30.6679 89.8538 31.2248C89.9738 31.7085 89.8323 32.2054 89.477 32.5541C89.2116 32.8138 88.8667 32.9525 88.5085 32.9525C88.3867 32.9525 88.2629 32.9366 88.1401 32.9038Z" fill="#E4002B"/>
<path d="M96.8317 43.1316L88.3061 43.5226C88.0717 43.1673 88.1355 42.632 88.4636 41.9626C89.7021 39.4352 88.7617 34.6532 88.1289 32.1632C87.9517 31.4648 88.428 30.7702 89.1452 30.698L89.9486 30.6174L90.6921 28.3496H93.2946L94.3746 29.5833L96.2064 30.6961C95.8727 34.131 94.4524 38.9815 96.4764 41.4142C96.9189 41.9467 97.0446 42.5223 96.8317 43.1316Z" fill="#E4002B"/>
<path d="M91.6624 28.403C93.0625 28.403 94.1974 27.268 94.1974 25.8681C94.1974 24.4681 93.0625 23.3331 91.6624 23.3331C90.2624 23.3331 89.1274 24.4681 89.1274 25.8681C89.1274 27.268 90.2624 28.403 91.6624 28.403Z" fill="#A0616A"/>
<path d="M94.5302 24.2453C94.8827 22.96 91.0389 21.8575 90.2927 22.8925C90.1886 22.7453 89.8052 22.6563 89.629 22.7013C89.4527 22.7463 89.3046 22.8597 89.1602 22.9684C88.9615 23.1212 88.7552 23.2787 88.6333 23.4981C88.5105 23.7165 88.4918 24.0147 88.6568 24.204C88.788 24.355 89.0177 25.1565 89.2146 25.1959C89.3514 25.224 89.4677 25.2465 89.5671 25.2624C89.6552 25.1331 89.8811 24.9709 89.8652 24.8153C89.9993 24.9034 89.9496 25.059 89.9233 25.2184C89.8333 25.748 87.8121 29.8504 88.9699 28.642C89.0843 28.7095 89.2268 28.7733 89.3899 28.8304C89.6674 28.4123 89.8943 27.9192 90.0443 27.4036L90.0452 27.413C90.0968 27.8611 90.424 28.2286 90.858 28.3542C92.5961 28.8576 94.0024 28.1189 94.4861 26.7868C94.309 26.4277 94.2321 26.4661 94.248 26.4558C94.4693 26.3068 94.773 26.4043 94.8677 26.6536C94.8958 26.7268 94.9212 26.7896 94.9437 26.8364C95.194 25.9365 95.494 26.0658 94.5302 24.2453Z" fill="#2F2E41"/>
<path d="M93.3308 23.3125L93.1536 22.4051C93.1386 22.3291 93.1246 22.2457 93.1593 22.1763C93.2033 22.0863 93.3168 22.0498 93.4161 22.0638C93.5146 22.0779 93.5886 22.1688 93.6871 22.1857C94.0293 22.2457 94.4812 21.9082 94.604 22.7632C94.6546 23.1194 95.2236 23.1569 95.414 23.4625C95.6043 23.7682 95.6268 24.2097 95.368 24.46C95.1608 24.6597 94.829 24.6822 94.5599 24.5809C94.2908 24.4788 94.0752 24.2735 93.8868 24.056C93.6983 23.8385 93.5277 23.6041 93.3102 23.4157" fill="#2F2E41"/>
<path d="M94.6661 24.6934C93.9723 24.5968 93.4998 24.3446 93.2608 23.9434C92.9486 23.4194 93.1577 22.8419 93.167 22.8175L93.3133 22.8719C93.3114 22.8775 93.1211 23.4053 93.3958 23.8647C93.6095 24.2218 94.0436 24.4487 94.6876 24.5378L94.6661 24.6934Z" fill="#E4002B"/>
</svg>
