<svg width="553" height="417" viewBox="0 0 553 417" fill="none" xmlns="http://www.w3.org/2000/svg">
<path d="M463.883 293.425H0.297913L51.9879 0.25H515.578L463.883 293.425Z" fill="#E6E6E6"/>
<path fill-rule="evenodd" clip-rule="evenodd" d="M51.7782 0H515.876L464.093 293.675H0L51.7782 0ZM52.1977 0.5L0.595865 293.175H463.673L515.28 0.5H52.1977Z" fill="black"/>
<path d="M551.928 34.28L500.228 327.455H36.6429L88.338 34.28H551.928Z" fill="#FAFAFA"/>
<path fill-rule="evenodd" clip-rule="evenodd" d="M88.1281 34.03H552.226L500.438 327.705H36.345L88.1281 34.03ZM88.5477 34.53L36.9409 327.205H500.018L551.63 34.53H88.5477Z" fill="black"/>
<path d="M551.928 34.28L549.378 48.755H85.7929L88.3379 34.28H551.928Z" fill="#E4002B"/>
<path d="M96.3379 44.615C98.0472 44.615 99.4329 43.2294 99.4329 41.52C99.4329 39.8107 98.0472 38.425 96.3379 38.425C94.6286 38.425 93.2429 39.8107 93.2429 41.52C93.2429 43.2294 94.6286 44.615 96.3379 44.615Z" fill="#FAFAFA"/>
<path d="M107.188 44.615C108.897 44.615 110.283 43.2294 110.283 41.52C110.283 39.8107 108.897 38.425 107.188 38.425C105.479 38.425 104.093 39.8107 104.093 41.52C104.093 43.2294 105.479 44.615 107.188 44.615Z" fill="#FAFAFA"/>
<path d="M117.713 44.615C119.422 44.615 120.808 43.2294 120.808 41.52C120.808 39.8107 119.422 38.425 117.713 38.425C116.004 38.425 114.618 39.8107 114.618 41.52C114.618 43.2294 116.004 44.615 117.713 44.615Z" fill="#FAFAFA"/>
<path d="M235.248 84.6899H152.848V167.09H235.248V84.6899Z" fill="#E6E6E6"/>
<path d="M359.618 84.6899H277.218V167.09H359.618V84.6899Z" fill="#E6E6E6"/>
<path d="M235.968 197.11H153.568V279.51H235.968V197.11Z" fill="#E6E6E6"/>
<path d="M477.183 84.6899H394.783V167.09H477.183V84.6899Z" fill="#E6E6E6"/>
<path d="M477.183 197.11H394.783V279.51H477.183V197.11Z" fill="#E6E6E6"/>
<path d="M182.913 133.38L182.808 131.725C182.878 125.945 185.908 122.355 189.958 120.1C193.868 117.635 197.463 116.685 197.708 115.13C197.883 114.215 197.358 113.085 194.678 113.085C192.353 113.085 191.013 114.245 190.698 115.975L175.833 115.94C177.768 104.95 187.353 99.9453 197.958 99.9453C207.823 99.9453 214.973 105.755 213.528 113.86C212.293 120.835 207.153 123.97 203.348 126.33C200.213 128.195 198.523 129.43 197.748 131.86L197.148 133.375H182.913V133.38ZM180.128 143.42C180.798 139.58 183.793 136.445 189.708 136.445C195.593 136.445 197.528 139.58 196.858 143.42C196.188 147.33 193.088 150.395 187.203 150.395C181.398 150.395 179.458 147.26 180.128 143.42Z" fill="#FAFAFA"/>
<path d="M359.618 197.11H277.218V279.51H359.618V197.11Z" fill="#E6E6E6"/>
<path d="M307.278 245.795L307.173 244.14C307.243 238.36 310.273 234.77 314.323 232.515C318.233 230.05 321.828 229.1 322.073 227.545C322.248 226.63 321.723 225.5 319.043 225.5C316.718 225.5 315.378 226.66 315.063 228.39L300.198 228.355C302.133 217.365 311.718 212.36 322.323 212.36C332.188 212.36 339.338 218.17 337.893 226.275C336.658 233.25 331.518 236.385 327.713 238.745C324.578 240.61 322.888 241.845 322.113 244.275L321.513 245.79H307.278V245.795ZM304.493 255.835C305.163 251.995 308.158 248.86 314.073 248.86C319.958 248.86 321.893 251.995 321.223 255.835C320.553 259.745 317.453 262.81 311.568 262.81C305.763 262.81 303.823 259.675 304.493 255.835Z" fill="#FAFAFA"/>
<path d="M425.878 132.005L425.773 130.35C425.843 124.57 428.873 120.98 432.923 118.725C436.833 116.26 440.428 115.31 440.673 113.755C440.848 112.84 440.323 111.71 437.643 111.71C435.318 111.71 433.978 112.87 433.663 114.6L418.798 114.565C420.733 103.575 430.318 98.5703 440.923 98.5703C450.788 98.5703 457.938 104.38 456.493 112.485C455.258 119.46 450.118 122.595 446.313 124.955C443.178 126.82 441.488 128.055 440.713 130.485L440.113 132H425.878V132.005ZM423.093 142.045C423.763 138.205 426.758 135.07 432.673 135.07C438.558 135.07 440.493 138.205 439.823 142.045C439.153 145.955 436.053 149.02 430.168 149.02C424.363 149.02 422.423 145.885 423.093 142.045Z" fill="#FAFAFA"/>
<path d="M165.108 259.81L183.498 234.975L175.148 211.9H192.833L196.638 225.78H196.708L204.773 211.9H223.868L207.348 234.975L217.038 259.81H199.108L194.283 244.17H194.213L184.418 259.81H165.108Z" fill="#FAFAFA"/>
<path d="M289.758 149.845L308.148 125.01L299.798 101.935H317.483L321.288 115.815H321.358L329.423 101.935H348.518L331.998 125.01L341.688 149.845H323.758L318.933 134.205H318.863L309.068 149.845H289.758Z" fill="#FAFAFA"/>
<path d="M408.358 262.81L426.748 237.975L418.398 214.9H436.083L439.888 228.78H439.958L448.023 214.9H467.118L450.598 237.975L460.288 262.81H442.358L437.533 247.17H437.463L427.668 262.81H408.358Z" fill="#FAFAFA"/>
<path d="M520.893 402.61L513.413 404.68L501.863 376.81L512.908 373.755L520.893 402.61Z" fill="#FFB8B8"/>
<path d="M452.408 406.58H444.643L440.953 376.64H452.408V406.58Z" fill="#FFB8B8"/>
<path d="M439.098 404.36H454.068V413.785H429.673C429.673 408.58 433.893 404.36 439.098 404.36Z" fill="#890000"/>
<path d="M458.283 399.645L431.058 395.11L446.338 332.725L469.073 247.41L469.298 248.925C469.318 249.04 471.438 260.185 502.953 255.24L503.228 255.195L503.303 255.465L528.643 394.475L497.623 399.645L482.078 297.025L458.283 399.645Z" fill="#890000"/>
<path d="M477.828 194.825V178.995C477.828 167.28 487.323 157.785 499.038 157.785C510.753 157.785 520.248 167.28 520.248 178.995V194.825C520.248 196.4 518.973 197.675 517.398 197.675H480.673C479.108 197.67 477.833 196.395 477.828 194.825Z" fill="black"/>
<path d="M443.048 239.245C445.143 242.07 449.128 242.665 451.953 240.57C452.253 240.345 452.533 240.095 452.793 239.825L473.428 249.105L471.553 237.5L452.243 230.465C449.518 228.215 445.483 228.6 443.228 231.325C441.348 233.605 441.273 236.88 443.048 239.245Z" fill="#FFB8B8"/>
<path d="M485.923 309.045C479.438 309.045 472.728 308.08 467.088 305.205C461.033 302.185 456.513 296.775 454.608 290.285C451.668 280.98 455.373 271.835 458.958 262.99C461.178 257.51 463.278 252.335 463.823 247.235L464.013 245.425C464.863 237.29 465.593 230.265 469.648 227.63C471.748 226.265 474.573 226.185 478.283 227.39L513.138 238.71L511.858 304.87L511.648 304.94C511.458 305.01 499.173 309.045 485.923 309.045Z" fill="#890000"/>
<path d="M477.673 206.795C477.673 206.795 494.768 201.73 508.068 203.63C508.068 203.63 500.468 245.42 503.003 259.35C505.538 273.28 458.998 264.73 468.493 251.435L471.658 235.605C471.658 235.605 465.328 229.275 471.023 221.675L477.673 206.795Z" fill="#E4002B"/>
<path d="M469.263 307.79L448.193 303.84L460.853 248.095C461.348 246.515 467.438 209.78 472.613 207.84C476.373 206.515 480.213 205.45 484.118 204.645L484.868 204.495L480.643 210.83L463.823 251.135L469.263 307.79Z" fill="#890000"/>
<path d="M496.018 318.385L496.033 317.905C496.053 317.375 497.923 264.48 497.298 243.21C496.668 221.865 503.578 203.38 503.648 203.2L503.703 203.05L503.858 203.005C512.798 200.45 520.553 208.075 520.633 208.15L520.743 208.26L518.198 229.265L518.888 308.385L496.018 318.385Z" fill="#890000"/>
<path d="M494.683 197.3C503.271 197.3 510.233 190.338 510.233 181.75C510.233 173.162 503.271 166.2 494.683 166.2C486.095 166.2 479.133 173.162 479.133 181.75C479.133 190.338 486.095 197.3 494.683 197.3Z" fill="#FFB8B8"/>
<path d="M472.813 180.26C472.823 170.995 480.328 163.49 489.593 163.48H492.758C502.023 163.49 509.528 170.995 509.538 180.26V180.575H502.848L500.568 174.185L500.113 180.575H496.653L495.503 177.35L495.273 180.575H472.818V180.26H472.813Z" fill="black"/>
<path d="M493.153 199.45C492.513 198.58 492.423 197.425 492.928 196.47C496.283 190.09 500.978 178.3 494.743 171.025L494.293 170.5H512.393V197.675L495.948 200.575C495.783 200.605 495.613 200.62 495.443 200.62C494.543 200.625 493.688 200.19 493.153 199.45Z" fill="black"/>
<path d="M420.273 87.2503C384.188 56.8003 330.248 61.3703 299.803 97.4553C269.353 133.54 273.923 187.48 310.008 217.925C343.763 246.405 393.653 244.49 425.123 213.505L529.988 301.99C533.313 304.8 538.283 304.385 541.088 301.06C543.893 297.735 543.483 292.765 540.158 289.96L540.148 289.95L435.283 201.465C460.528 165.23 454.023 115.73 420.273 87.2503ZM413.513 192.945C390.698 219.98 350.288 223.405 323.253 200.59C296.218 177.775 292.793 137.365 315.608 110.33C338.423 83.2953 378.833 79.8703 405.868 102.685C432.903 125.5 436.328 165.91 413.513 192.945Z" fill="black"/>
<path opacity="0.3" d="M323.258 200.59C297.778 179.09 293.053 141.64 312.388 114.485C311.163 115.72 309.978 117.01 308.838 118.36C286.023 145.395 289.448 185.805 316.483 208.62C343.518 231.435 383.928 228.01 406.743 200.975C407.883 199.625 408.958 198.24 409.963 196.82C386.448 220.45 348.738 222.09 323.258 200.59Z" fill="#3C3C3C"/>
<path d="M499.678 266.436C503.093 267.271 506.538 265.18 507.373 261.76C507.463 261.395 507.518 261.026 507.543 260.651L529.343 254.6L520.478 246.875L501.133 253.806C497.598 253.816 494.738 256.69 494.748 260.225C494.763 263.18 496.798 265.751 499.678 266.436Z" fill="#FFB8B8"/>
<path d="M508.738 263.23L507.413 250.625L525.623 240.575L513.748 226.2L515.683 210.055L520.508 207.985L520.658 208.18C522.933 211.105 542.888 236.85 542.888 240.035C542.888 243.305 539.073 252.905 533.848 255.515C528.813 258.035 509.893 262.93 509.093 263.135L508.738 263.23Z" fill="#890000"/>
<path d="M510.448 405.27L524.878 401.275L527.393 410.36L503.878 416.865C502.493 411.855 505.433 406.66 510.448 405.27Z" fill="#890000"/>
</svg>
