<svg width="64" height="64" viewBox="0 0 64 64" fill="none" xmlns="http://www.w3.org/2000/svg">
<path d="M63.6875 32.1238C63.6912 35.5886 63.1259 39.031 62.014 42.3122C61.9503 42.4997 61.8847 42.6862 61.8181 42.8728C60.6406 46.1296 58.9381 49.1707 56.7772 51.8772C56.1322 52.6862 55.4487 53.4615 54.7269 54.204C54.005 54.9474 53.2475 55.6543 52.4534 56.3255C48.0256 60.0801 42.6481 62.539 36.9116 63.4315H36.9106C36.1794 63.5449 35.4406 63.6331 34.6953 63.6968C33.8075 63.7718 32.9094 63.8093 32 63.8103C23.4594 63.8215 15.2778 60.3735 9.32094 54.2527C9.11376 54.0409 8.90938 53.8262 8.70875 53.6078C8.20813 53.065 7.72626 52.5053 7.26407 51.9288C7.00438 51.6044 6.75126 51.2753 6.50376 50.9407C4.98126 48.8839 3.71469 46.6489 2.73125 44.2865C2.31219 43.2806 1.94563 42.2522 1.63438 41.2078C1.61188 41.1338 1.59032 41.0597 1.56876 40.9857C1.52188 40.8263 1.47688 40.666 1.43282 40.5047C0.687508 37.7739 0.310632 34.9549 0.312507 32.1238C0.312507 14.624 14.4997 0.437256 32 0.437256C49.5003 0.437256 63.6875 14.624 63.6875 32.1238Z" fill="#F2F2F2"/>
<path d="M60.305 45.3571C60.4615 45.5559 60.6237 45.7537 60.7859 45.9524C60.2272 47.0999 59.599 48.2117 58.9053 49.2823C58.8537 49.2458 58.8022 49.2092 58.7506 49.1726C58.7422 49.168 58.7347 49.1633 58.7272 49.1576C58.535 49.0208 58.3419 48.8858 58.1497 48.7489V48.748C57.9912 48.208 57.9022 47.6511 57.8862 47.0887C58.1534 47.0277 58.3194 46.7615 58.2584 46.4943C58.2256 46.3518 58.1319 46.2309 58.0015 46.1643C57.9762 46.1202 57.9584 46.0884 57.9331 46.0434C57.934 46.0321 57.9359 46.0199 57.9369 46.0087C58.084 44.8378 59.5765 44.429 60.305 45.3571Z" fill="white"/>
<path d="M61.9876 41.3447C62.1001 41.654 62.2023 41.9672 62.2951 42.2831C62.2314 42.4706 62.1657 42.6571 62.0992 42.8437C62.0739 42.7453 62.0476 42.6468 62.0204 42.5484C61.8676 42.0009 61.6848 41.4628 61.472 40.9359C61.2976 40.5038 61.1045 40.081 60.8926 39.6666C59.7404 37.4176 58.0707 35.4733 56.0214 33.9949C55.1739 33.799 54.4079 33.348 53.8248 32.7031C53.6148 32.4715 53.4385 32.2109 53.3026 31.9287C53.3889 31.9165 53.4751 31.8997 53.5595 31.8818C53.5857 31.8762 53.6129 31.8697 53.6392 31.864L53.6495 31.8622C53.9139 31.8012 54.0789 31.5369 54.017 31.2725C53.9898 31.1553 53.9204 31.0522 53.8229 30.9828C53.7751 30.9481 53.7264 30.9144 53.6785 30.8806C53.6054 30.8272 53.5314 30.7766 53.4573 30.7241C53.4498 30.7194 53.4423 30.7138 53.4348 30.7081C53.3504 30.6481 53.2661 30.59 53.1826 30.5291C53.2473 30.32 53.3589 30.1288 53.5098 29.9703C54.0339 29.4294 54.9695 29.4416 55.5807 29.8822C56.1929 30.3228 56.5004 31.0944 56.5398 31.8462C56.5745 32.4903 56.4357 33.1277 56.2529 33.7493C56.2989 33.783 56.3467 33.8149 56.3926 33.8496C57.2364 34.4749 58.0173 35.1817 58.7232 35.9598C58.3154 34.9924 58.1673 33.7305 58.2732 32.8615C58.3942 31.8715 58.8751 30.9312 59.2689 29.9947C59.7404 28.8698 61.3492 28.8548 61.8029 29.9872C61.8076 29.9985 61.8123 30.0088 61.816 30.02C61.7401 30.096 61.667 30.1747 61.5967 30.2563C61.3548 30.5384 61.3867 30.9631 61.6689 31.205C61.8114 31.3278 61.9998 31.385 62.1864 31.3625L62.2004 31.3606C62.2585 31.6943 62.2923 32.0328 62.2998 32.3721C62.3232 34.2902 61.5461 36.1323 60.1548 37.4532C60.1098 37.4954 60.0657 37.5367 60.0198 37.577C60.4539 38.1948 60.8439 38.8416 61.187 39.5147C61.4907 40.1072 61.7589 40.7184 61.9876 41.3447Z" fill="white"/>
<path d="M57.0585 51.8481C56.4135 52.6572 55.7301 53.4325 55.0082 54.1749L52.5351 54.1768L39.2348 54.1918L36.8404 54.1946L35.2485 54.1965L32.8804 54.1984L31.0588 54.2003L27.6942 54.204L25.7095 54.2068L21.5301 54.2106L19.5351 54.2134L14.0067 54.219L10.5342 54.2228L9.60228 54.2237C9.3951 54.0118 9.19072 53.7971 8.99009 53.5787C8.48947 53.0359 8.0076 52.4762 7.54541 51.8997L9.47479 51.8978L10.7892 51.8969L13.8323 51.8931L19.7048 51.8875L21.6895 51.8856L22.492 51.8847H22.4948L23.1248 51.8838L23.407 51.8828L24.1298 51.8819H24.4354L26.5785 51.88L31.2013 51.8744L33.2357 51.8725L35.1838 51.8706L37.0101 51.8688L39.6304 51.866L53.6254 51.8519L57.0585 51.8481Z" fill="#CCCCCC"/>
<path d="M29.6947 50.8704C30.6528 51.4882 31.9316 51.2125 32.5494 50.2535C32.615 50.1513 32.6722 50.0435 32.7191 49.931L48.2347 51.1497L47.4847 47.3061L31.4816 47.1533C30.3969 46.7821 29.2166 47.3605 28.8453 48.4451C28.5341 49.3535 28.8857 50.3557 29.6947 50.8704Z" fill="#A0616A"/>
<path d="M38.8588 25.839C38.8588 25.839 41.2025 23.964 44.015 27.3389C45.9116 29.6151 49.5706 43.3734 49.8744 49.0751C49.9513 50.5216 48.8413 51.7572 47.3938 51.8341C47.3272 51.8378 47.2606 51.8388 47.1941 51.8369L38.9244 51.6925L38 46.4942L44.5287 46.5711L38.8588 25.839Z" fill="#E4002B"/>
<path d="M13.7515 19.3769C13.5658 20.5019 14.328 21.565 15.453 21.7497C15.573 21.7694 15.6949 21.7787 15.8158 21.7769L20.8737 36.4942L24.1015 34.2761L17.8708 19.5354C17.7799 18.3926 16.7796 17.5395 15.6368 17.6304C14.6805 17.7073 13.9005 18.4291 13.7515 19.3769Z" fill="#A0616A"/>
<path d="M40.1515 24.3569C37.9053 26.9124 32.3665 31.416 27.8037 34.5172C26.8175 35.1875 25.8762 35.7912 25.024 36.2965C24.4484 36.6377 23.9131 36.933 23.4312 37.174C22.1337 37.8199 20.5578 37.2921 19.9118 35.9946C19.8828 35.9356 19.8556 35.8756 19.8303 35.8146L16.6709 28.1714L17.764 27.4468L20.4593 25.659L21.0715 25.254L23.599 31.2735L26.2643 29.1342L27.919 27.8058L35.4621 21.7526L36.1128 21.5594L37.6306 23.0407L38.704 24.0887L39.7137 24.2641C39.8646 24.2903 40.0109 24.3212 40.1515 24.3569Z" fill="#E4002B"/>
<path d="M43.9229 32.5504L43.6398 51.9944L20.7686 51.3382L24.4211 43.2759C24.3948 43.0172 26.0242 41.2013 26.0148 40.9323C25.9867 40.1439 26.5754 39.4136 26.6711 38.5886C26.8661 36.8871 25.7495 30.4617 26.2642 29.1342C26.4836 28.5417 26.7648 27.9736 27.1023 27.4393C27.3948 26.9968 27.6948 26.6987 27.9817 26.5909L28.8273 24.6203L29.5773 23.4953L35.462 21.7526L36.1126 21.5594L37.6304 23.0407L38.7039 24.0887L39.7136 24.2641C39.8645 24.2903 40.0107 24.3212 40.1514 24.3569C40.8282 24.5134 41.4601 24.8256 41.9945 25.27C43.757 26.7671 43.9623 29.5833 43.9229 32.5504Z" fill="#E4002B"/>
<path d="M25.4148 22.6524L25.4102 22.6534C24.8467 22.7059 24.348 22.2915 24.2955 21.7281L23.762 16.0377C23.6655 15.0186 23.7752 13.9902 24.0836 13.0134C24.6892 11.1084 26.0064 9.51005 27.7614 8.55195C28.668 8.05884 29.6645 7.75417 30.6911 7.65573C34.893 7.25543 36.4286 8.13009 39.0236 14.5386C41.6186 20.9472 39.558 20.2375 39.558 20.2375C39.5711 20.3744 39.5561 20.5131 39.5148 20.6444C39.4333 20.9003 39.2552 21.115 39.0189 21.2434C38.898 21.309 38.7648 21.3503 38.627 21.3634C33.6602 22.6262 28.6483 23.9555 25.4148 22.6524Z" fill="#2F2E41"/>
<path d="M34.6614 13.0481C36.4043 15.6261 35.7264 19.1285 33.1483 20.8703C31.9127 21.7056 30.3968 22.0169 28.9324 21.7356C27.4699 21.46 26.1789 20.6107 25.3474 19.376C23.6074 16.797 24.2871 13.2946 26.8671 11.5547C28.0999 10.7232 29.6121 10.4119 31.0727 10.6904C32.5352 10.965 33.828 11.8144 34.6614 13.0481Z" fill="#9E616A"/>
<path d="M22.0008 16.6695C21.9249 15.8633 22.0111 15.0496 22.2558 14.278C22.3121 12.389 22.8605 10.6781 25.164 10.7503C25.8765 10.3632 26.6593 10.1232 27.4655 10.0444L28.6036 9.93192C28.6168 9.93098 28.629 9.92911 28.6421 9.92817C31.959 9.61974 34.898 12.0581 35.2074 15.3749L35.2177 15.4892L32.8093 15.7245L31.7724 13.5065L31.824 15.8211L30.5799 15.943L30.0568 14.8236L30.0821 15.9908C28.2352 17.6173 25.434 17.7026 22.0121 16.783L22.0008 16.6695Z" fill="#2F2E41"/>
<path d="M29.7048 22.0693C29.6842 22.2568 29.717 22.4462 29.7986 22.6159C29.8398 22.7031 29.8933 22.7837 29.957 22.8559C30.0114 22.9177 30.0733 22.9721 30.1408 23.019C30.3405 23.1577 30.5823 23.2215 30.8252 23.1971C30.8402 23.1952 30.8552 23.1934 30.8702 23.1915C30.8852 23.1896 30.9002 23.1868 30.9152 23.184C30.9302 23.1812 30.9452 23.1784 30.9602 23.1746C30.9752 23.1709 30.9902 23.1671 31.0052 23.1634L31.8461 22.9281L32.7883 20.3013L33.0039 22.6065L36.8261 21.5425L35.9092 11.7618L29.3945 12.404L29.5736 12.5765C30.167 13.154 30.5898 13.8852 30.7952 14.6877C30.9986 15.5014 31.0614 16.3433 30.9808 17.1776C30.9058 18.0213 30.7492 18.8566 30.5139 19.6703C30.3095 20.3913 30.0639 21.1 29.777 21.7918C29.7405 21.88 29.7161 21.9737 29.7048 22.0693Z" fill="#2F2E41"/>
<path d="M30.5743 52.9075C30.4628 52.9075 30.3521 52.8822 30.2509 52.8344L12.2021 53.2947C11.8243 53.1156 11.6631 52.6638 11.8421 52.286C11.934 52.0919 12.1046 51.9457 12.31 51.8847L24.1178 48.3636C24.2396 48.327 24.3699 48.3224 24.4946 48.3495L42.7599 50.576C43.1687 50.6642 43.4284 51.0673 43.3402 51.476C43.284 51.7348 43.0974 51.9457 42.8471 52.0319L30.8228 52.8663C30.7421 52.8935 30.6587 52.9075 30.5743 52.9075Z" fill="#3F3D56"/>
<path d="M31.238 51.6513C31.1564 51.6513 31.0768 51.6307 31.0055 51.5904L16.3477 52.2747C16.119 52.1463 16.0374 51.8566 16.1658 51.6279C16.2305 51.5126 16.3402 51.4301 16.4677 51.3982L21.774 50.1101C21.8565 50.0904 21.9436 50.0923 22.0252 50.1176L35.6518 50.1017C35.903 50.1785 36.0436 50.4438 35.9668 50.6951C35.9208 50.8451 35.8046 50.9623 35.6546 51.0091L31.3796 51.6288C31.3336 51.6447 31.2858 51.6513 31.238 51.6513Z" fill="#2F2E41"/>
<path d="M29.5702 52.9103C29.2861 52.9103 29.0058 52.8531 28.7443 52.7434L12.0155 53.1249C11.1071 52.7462 10.5774 51.7919 10.7358 50.8206L10.1143 36.1295C10.2849 35.0421 11.2599 34.2649 12.3586 34.3418L27.8893 34.9858C29.0639 35.0627 29.9536 36.078 29.8768 37.2526C29.8721 37.3267 29.8627 37.4008 29.8505 37.4748L31.6702 51.1403C31.493 52.1603 30.608 52.9084 29.5702 52.9103Z" fill="#3F3D56"/>
<path d="M13.7805 9.55133C10.8545 7.08203 6.48108 7.45327 4.01171 10.3791C1.54234 13.305 1.91359 17.6783 4.83952 20.1476C7.57609 22.4565 11.6223 22.3019 14.1742 19.7894L22.6773 26.9639C22.9464 27.1917 23.3495 27.158 23.5773 26.8889C23.8051 26.6199 23.7714 26.2167 23.5023 25.9889L23.5014 25.988L14.9983 18.8135C17.0448 15.8736 16.518 11.8603 13.7805 9.55133ZM13.233 18.1207C11.3833 20.3126 8.10671 20.59 5.91389 18.7404C3.72108 16.8908 3.44452 13.6143 5.29421 11.4216C7.1439 9.22978 10.4205 8.95229 12.6133 10.8019C14.8051 12.6525 15.0826 15.9289 13.233 18.1207Z" fill="black"/>
<path d="M18.5448 45.269L18.5251 44.9587C18.5382 43.875 19.1063 43.2019 19.8657 42.7791C20.5988 42.3169 21.2729 42.1388 21.3188 41.8472C21.3517 41.6757 21.2532 41.4638 20.7507 41.4638C20.3148 41.4638 20.0635 41.6813 20.0045 42.0057L17.2173 41.9991C17.5801 39.9385 19.3773 39.0001 21.3657 39.0001C23.2154 39.0001 24.556 40.0895 24.2851 41.6091C24.0535 42.9169 23.0898 43.5047 22.3763 43.9472C21.7885 44.2968 21.4717 44.5284 21.3263 44.984L21.2138 45.268H18.5448V45.269ZM18.0235 47.1514C18.1492 46.4315 18.7107 45.8437 19.8198 45.8437C20.9232 45.8437 21.286 46.4315 21.1604 47.1514C21.0348 47.8845 20.4535 48.4592 19.3501 48.4592C18.2617 48.4592 17.8979 47.8714 18.0235 47.1514Z" fill="#FAFAFA"/>
</svg>
