<svg width="148" height="40" viewBox="0 0 148 40" fill="none" xmlns="http://www.w3.org/2000/svg">
<path d="M91.1461 22.8457C90.3444 23.8076 89.0619 24.5291 87.3785 24.6092H76.7974C77.4386 26.2124 78.8014 27.0942 80.5649 27.2545C81.8475 27.4148 82.8094 26.9339 83.4507 26.4529C83.7713 26.2124 84.0919 25.8116 84.4126 25.8116H91.2262V22.7655C91.2262 22.8457 91.1461 22.7655 91.1461 22.8457ZM123.531 17.6353C120.645 17.7956 118.16 19.7194 118.641 22.8457C119.042 25.9719 121.767 27.1743 125.775 26.8537C124.493 24.5291 124.493 20.0401 125.775 17.7154C125.054 17.6353 124.332 17.5551 123.531 17.6353ZM101.407 17.475C99.3224 17.9559 97.5589 19.7996 97.5589 22.2044C97.5589 24.8497 99.5629 26.8537 101.968 27.0942C103.411 27.2545 104.533 26.7735 105.334 26.2124C106.617 25.2505 107.659 23.487 107.258 21.3226C107.098 20.4409 106.537 19.479 105.976 18.9178C105.094 18.0361 103.731 17.3948 102.128 17.475C101.807 17.475 101.647 17.3948 101.407 17.475ZM65.3344 21.7234C65.0138 19.2385 62.9296 17.1543 60.124 17.3948C58.0398 17.5551 56.1962 19.1583 55.7152 20.9218C54.8334 24.1283 57.3184 26.8537 59.9637 27.0942C62.2082 27.2545 63.7312 26.1323 64.7733 24.5291C65.094 23.6473 65.4146 22.9259 65.3344 21.7234ZM79.2823 17.475C78.5609 17.7956 77.9196 18.1162 77.3585 18.6774C77.0378 19.0782 76.637 19.479 76.4767 20.0401H84.8134C84.3324 18.1162 82.0879 16.7535 79.2823 17.475ZM134.433 17.3948C132.749 18.0361 131.467 19.479 131.146 21.483C130.665 24.3687 132.669 26.6934 134.994 27.2545C138.2 27.976 140.765 25.7315 141.246 23.3267C141.647 21.3226 140.845 19.7194 139.884 18.6774C139.002 17.7154 137.479 16.9138 135.635 17.1543C135.234 17.3146 134.753 17.3146 134.433 17.3948ZM55.635 0V12.8256C56.8374 12.3447 57.8795 11.7836 59.3224 11.6232C62.2883 11.3026 64.7733 12.1042 66.617 13.3066C68.4607 14.5892 69.9036 16.1924 70.7853 18.1964C71.5869 16.4329 72.7092 14.99 74.1521 13.8677C75.595 12.7455 77.3585 11.8637 79.603 11.6232C82.7292 11.3026 85.5348 12.3447 87.4587 13.6273C89.4627 14.99 90.9857 16.9138 91.5469 19.3988C91.7873 19.1583 91.7873 18.8377 91.8675 18.5972C92.5088 16.7535 93.7112 15.1503 95.1541 14.0281C96.7573 12.7455 98.9216 11.6232 101.567 11.4629C104.613 11.3026 106.938 12.1042 108.781 13.3868C110.625 14.5892 111.908 16.3527 112.87 18.4369C113.19 18.0361 113.431 17.5551 113.671 17.1543C114.393 15.8717 115.354 14.8297 116.477 13.9479C118 12.8257 119.924 12.024 122.328 11.8637C123.531 11.7836 124.974 11.8637 126.256 11.9439V16.8337C126.497 16.7535 126.497 16.513 126.577 16.3527C128.26 13.8677 130.906 11.9439 134.513 11.3828C135.555 11.2224 136.677 11.2224 137.799 11.3828C140.845 11.7836 143.17 13.2265 144.934 15.2305C146.697 17.1543 147.9 19.9599 147.659 23.4068C147.499 25.9719 146.216 28.2966 144.773 29.8196C143.25 31.4228 141.407 32.6253 138.922 33.1864C132.99 34.5491 128.501 31.4228 126.256 27.8958V32.7054C124.573 32.7856 122.569 32.9459 121.046 32.7054C118 32.3046 115.755 30.5411 114.232 28.5371C113.671 27.8156 113.27 27.014 112.87 26.2124C112.549 26.6132 112.308 27.1743 112.068 27.7355C111.266 29.0982 110.144 30.3808 108.781 31.2625C107.098 32.4649 104.453 33.507 101.567 33.0261C100.044 32.7856 98.9216 32.3046 97.639 31.7435V40L91.2262 37.9158V26.5331C90.9056 26.8537 90.6651 27.3347 90.4246 27.7355C88.8214 30.4609 85.9356 32.7054 81.8475 33.0261C81.2863 33.1062 80.6451 33.1062 80.0839 33.0261C75.3545 32.6253 72.4687 29.98 70.7853 26.2926C68.7012 30.5411 65.1741 33.4269 59.1621 33.0261C56.6771 32.8657 54.1921 31.5832 52.7493 30.2204C51.2262 28.7776 49.7032 26.8537 49.3024 24.3687C49.2222 24.0481 49.142 23.006 49.142 22.8457C49.0619 22.0441 49.0619 21.002 49.0619 20.0401V0H55.635Z" fill="#00418E"/>
<path d="M22.9297 20.4408C22.4487 20.5209 21.8876 20.5209 21.3265 20.6813C20.6852 17.8757 19.082 15.6312 17.078 14.028C14.9137 12.2644 11.9477 10.9017 8.01987 11.1422C9.14211 8.57705 10.585 5.4508 11.8676 2.64519C12.108 2.16423 12.1882 1.68327 12.7493 1.52295C13.1501 1.44279 13.7112 1.52295 14.1121 1.60311C16.8375 1.76343 19.3225 1.92375 22.1281 2.08407C22.609 2.08407 23.1702 2.08407 23.4107 2.24439C23.7313 2.40471 23.8115 3.4468 23.8916 4.00792C24.6932 8.41673 25.4948 12.9057 26.2964 17.3145C25.094 18.2765 23.9718 19.3185 22.9297 20.4408ZM41.0459 18.036C42.8094 18.036 44.0119 18.5971 45.2944 19.3185C45.8555 18.3566 46.8175 17.1542 46.4968 15.6312C46.1762 14.1883 44.4127 12.9859 43.1301 12.2644C38.8816 9.77946 32.8696 8.57705 26.5369 8.57705C26.2163 6.41273 25.8956 4.80952 25.4948 2.72535C25.4147 2.32455 25.3345 1.12215 25.0139 0.881665C24.7734 0.721345 23.9718 0.721344 23.4107 0.721344C19.9638 0.561023 16.6772 0.320542 13.2303 0.160221C12.6692 0.160221 12.0279 -9.8113e-05 11.4668 0.0800622C10.7453 0.160223 10.7453 0.721343 10.4247 1.36263C8.98179 4.80952 7.21827 8.33657 5.77538 11.543C4.89362 11.7835 4.01185 12.0239 3.13009 12.5049C2.4888 12.8256 1.20624 13.3065 1.20624 14.1883C1.12608 14.8296 1.52688 15.1502 1.92768 15.1502C2.40864 15.2304 2.88961 14.8296 3.29041 14.5891C4.57297 13.7875 5.85554 13.3065 7.61907 13.1462C10.104 12.8256 12.3485 13.4668 14.0319 14.3486C17.4788 16.1923 19.563 18.9979 19.8836 23.9678H29.7433C30.4648 23.9678 32.4688 24.2083 32.9497 23.8877C33.1902 23.7274 33.4307 23.0861 33.5108 22.7654C34.9537 20.1201 37.5189 18.036 41.0459 18.036Z" fill="#00418E"/>
<path d="M13.7112 24.3686C13.4707 27.1742 10.5048 29.2584 7.61902 28.3766C5.45469 27.6552 3.69117 25.2504 4.65309 22.4448C5.13405 20.8416 6.57694 19.4789 8.66111 19.3185C10.7453 19.078 12.0278 20.04 12.9096 21.1622C13.3104 21.8035 13.8715 22.9257 13.7112 24.3686ZM8.74127 14.8296C7.37854 14.9097 6.09598 15.2304 5.05389 15.7915C4.01181 16.3526 3.13004 16.9939 2.48876 17.7153C1.12604 19.2384 -0.0763678 21.3225 0.00379249 24.2885C0.0839528 27.1742 1.36652 28.9378 2.88956 30.4608C4.41261 31.9839 6.6571 33.0259 9.46271 32.9458C12.108 32.8656 14.1922 31.6632 15.7152 30.1402C17.1581 28.6171 18.2803 26.4528 18.2002 23.567C18.12 20.9217 16.7573 18.7574 15.3946 17.3947C13.8715 15.8716 11.4667 14.6692 8.74127 14.8296Z" fill="#00418E"/>
<path d="M44.2523 27.495C43.7713 28.7776 42.4086 29.6593 41.0459 29.6593C39.4427 29.6593 38.1601 28.5371 37.7593 27.1744C37.4387 25.8918 37.9998 24.5291 38.6411 23.8878C39.122 23.4068 39.8435 22.9259 41.0459 22.9259C42.088 22.9259 42.8896 23.3267 43.4507 23.8878C44.092 24.6092 44.7333 26.1323 44.2523 27.495ZM45.6952 21.6433C44.5729 20.5211 42.8896 19.5591 40.6451 19.7194C38.5609 19.8798 37.1982 20.6814 36.2363 21.7235C35.2743 22.7655 34.3926 24.2886 34.3926 26.2926C34.3926 28.2966 35.2743 29.8998 36.3164 30.9419C37.4387 32.0641 38.9617 32.8657 40.8856 32.9459C44.4928 33.0261 47.5389 30.3808 47.6992 26.6132C47.7793 24.3687 46.8174 22.7655 45.6952 21.6433Z" fill="#00418E"/>
</svg>
