<svg width="71" height="15" viewBox="0 0 71 15" fill="none" xmlns="http://www.w3.org/2000/svg">
<path d="M2.49119 0.99292L0 15H68.1551L70.5993 0.99292H2.49119Z" fill="black"/>
<path d="M38.4019 8.79557H37.7908V8.60755C37.7908 8.51354 37.8378 8.41954 37.8848 8.37253C37.9318 8.32553 38.0258 8.27853 38.1199 8.27853C38.2139 8.27853 38.2609 8.27853 38.3549 8.27853C38.4019 8.27853 38.4959 8.32553 38.5429 8.32553L38.7309 7.80849C38.6369 7.76149 38.5429 7.76149 38.4489 7.71448C38.3079 7.71448 38.2139 7.66748 38.0728 7.66748C37.8848 7.66748 37.6968 7.71448 37.5558 7.76149C37.4148 7.80849 37.3208 7.9025 37.2268 8.04351C37.1328 8.18452 37.1328 8.32553 37.1328 8.56055V8.74856L36.7097 8.93658V9.31261H37.1328V11.4278H37.8848V9.31261H38.4959V8.79557H38.4019ZM34.5946 9.54762C34.6886 9.40661 34.8296 9.35961 35.0176 9.35961C35.2056 9.35961 35.3466 9.40661 35.4406 9.54762C35.5347 9.68863 35.5817 9.87665 35.5817 10.1587C35.5817 10.4407 35.5347 10.6287 35.4406 10.7697C35.3466 10.9107 35.2056 10.9577 35.0176 10.9577C34.8296 10.9577 34.6886 10.9107 34.5946 10.7697C34.5006 10.6287 34.4536 10.4407 34.4536 10.1587C34.4536 9.87665 34.5006 9.68863 34.5946 9.54762ZM36.1457 9.40661C36.0517 9.2186 35.8637 9.03058 35.6757 8.93658C35.4877 8.84257 35.2526 8.79557 35.0176 8.79557C34.5946 8.79557 34.3126 8.93658 34.0775 9.17159C33.8425 9.40661 33.7485 9.73564 33.7485 10.2057C33.7485 10.4877 33.7955 10.7697 33.9365 10.9577C34.0305 11.1457 34.2186 11.3338 34.4066 11.4278C34.5946 11.5218 34.8296 11.5688 35.0646 11.5688C35.4877 11.5688 35.7697 11.4278 36.0047 11.1927C36.2397 10.9577 36.3337 10.6287 36.3337 10.1587C36.3337 9.82965 36.2867 9.59463 36.1457 9.40661ZM30.5053 11.4748L30.4583 11.6158C30.4113 11.7568 30.3643 11.8508 30.2703 11.9448C30.1763 12.0388 30.0822 12.0858 29.8942 12.0858C29.8472 12.0858 29.8002 12.0858 29.7532 12.0858C29.7062 12.0858 29.6592 12.0858 29.6122 12.0858V12.6499C29.6592 12.6499 29.7062 12.6499 29.7532 12.6969C29.8002 12.6969 29.8942 12.6969 29.9882 12.6969C30.2233 12.6969 30.4583 12.6499 30.6463 12.5089C30.8343 12.3678 30.9753 12.1798 31.1163 11.8978L32.2444 8.88957H31.4453L30.9283 10.3937C30.8813 10.4877 30.8813 10.5347 30.8813 10.6287C30.8813 10.7227 30.8343 10.7697 30.8343 10.8637C30.8343 10.7697 30.8343 10.6757 30.7873 10.6287C30.7873 10.5347 30.7403 10.4877 30.7403 10.3937L30.2233 8.88957H29.4242L30.5053 11.4748ZM27.7321 8.84257C27.5911 8.88957 27.4501 8.98358 27.403 9.12459H27.356L27.262 8.79557H26.698V11.4748H27.4501V10.2057C27.4501 9.92365 27.4971 9.68863 27.5911 9.54762C27.6851 9.40661 27.8261 9.31261 28.0611 9.31261C28.2021 9.31261 28.3431 9.35961 28.3901 9.45362C28.4371 9.54762 28.4841 9.68863 28.4841 9.87665V11.4278H29.2362V9.68864C29.2362 9.35961 29.1422 9.07759 28.9542 8.93658C28.7661 8.79556 28.5311 8.70156 28.2491 8.70156C28.0141 8.74856 27.8731 8.79557 27.7321 8.84257ZM25.2409 10.4407C25.2409 10.6287 25.1939 10.7227 25.0999 10.8167C25.0059 10.9107 24.8649 10.9577 24.7238 10.9577C24.6298 10.9577 24.5358 10.9107 24.4888 10.8637C24.4418 10.8167 24.3948 10.7227 24.3948 10.6287C24.3948 10.4877 24.4418 10.3937 24.5358 10.2997C24.6298 10.2057 24.7708 10.1587 25.0059 10.1587H25.2879V10.4407H25.2409ZM24.3008 8.79557C24.1128 8.84257 23.9718 8.88957 23.8308 8.98358L24.0658 9.50062C24.2068 9.45362 24.3008 9.40661 24.4418 9.35961C24.5828 9.3126 24.6768 9.31261 24.8179 9.31261C24.9589 9.31261 25.0529 9.35961 25.1469 9.40661C25.2409 9.45361 25.2409 9.59463 25.2409 9.73564V9.87665H24.7708C24.3948 9.87665 24.0658 9.97065 23.8778 10.1117C23.6898 10.2527 23.5958 10.4407 23.5958 10.7227C23.5958 11.0047 23.6898 11.2398 23.8308 11.3808C23.9718 11.5218 24.2068 11.5688 24.4418 11.5688C24.6768 11.5688 24.8179 11.5218 24.9589 11.4748C25.0999 11.4278 25.1939 11.2868 25.3349 11.1457L25.4759 11.5218H25.9929V9.73564C25.9929 9.40661 25.8989 9.1716 25.7109 9.03058C25.5229 8.88957 25.2409 8.79557 24.8649 8.79557C24.6768 8.74856 24.4888 8.74856 24.3008 8.79557ZM22.4207 10.1117C22.4207 10.3937 22.3737 10.5817 22.2797 10.7227C22.1857 10.8637 22.0916 10.9107 21.9036 10.9107C21.7156 10.9107 21.5746 10.8637 21.4806 10.7227C21.3866 10.5817 21.3866 10.3937 21.3866 10.1117V10.0177C21.3866 9.78264 21.4336 9.59463 21.5276 9.50062C21.6216 9.35961 21.7626 9.31261 21.9506 9.31261C22.2327 9.35961 22.4207 9.59463 22.4207 10.1117ZM21.6686 8.88957C21.5276 8.98358 21.4336 9.07759 21.3866 9.17159H21.3396L21.2456 8.84257H20.6345V12.6969H21.3866V11.6158C21.3866 11.4748 21.3866 11.3808 21.3396 11.2398H21.3866C21.4806 11.3338 21.5746 11.4278 21.6686 11.4748C21.7626 11.5218 21.9506 11.5688 22.1386 11.5688C22.4207 11.5688 22.7027 11.4748 22.8907 11.1927C23.0787 10.9577 23.1727 10.6287 23.1727 10.1587C23.1727 9.68864 23.0787 9.35961 22.8907 9.12459C22.7027 8.88957 22.4677 8.79557 22.1386 8.79557C21.9506 8.74856 21.8096 8.79557 21.6686 8.88957ZM18.5664 8.84257C18.4254 8.88957 18.2844 8.98358 18.2374 9.12459H18.1904C18.0963 8.98358 18.0023 8.88957 17.8613 8.84257C17.7203 8.79557 17.5793 8.74856 17.3443 8.74856C17.2033 8.74856 17.0623 8.79557 16.9213 8.84257C16.7802 8.88957 16.6862 8.98358 16.5922 9.12459H16.5452L16.4512 8.79557H15.8872V11.4748H16.6392V10.2057C16.6392 9.92365 16.6862 9.68863 16.7332 9.54762C16.8273 9.40661 16.9683 9.31261 17.1563 9.31261C17.4383 9.31261 17.5793 9.50062 17.5793 9.87665V11.4278H18.3314V10.0647C18.3314 9.82964 18.3784 9.59463 18.4724 9.45362C18.5664 9.31261 18.7074 9.2656 18.8954 9.2656C19.1774 9.2656 19.3184 9.45362 19.3184 9.82964V11.3808H20.0705V9.64163C20.0705 9.3126 19.9765 9.03058 19.8355 8.88957C19.6945 8.74856 19.4594 8.65455 19.1304 8.65455C18.8484 8.74856 18.7074 8.79557 18.5664 8.84257ZM13.584 9.54762C13.678 9.40661 13.819 9.35961 14.007 9.35961C14.1951 9.35961 14.3361 9.40661 14.4301 9.54762C14.5241 9.68863 14.5711 9.87665 14.5711 10.1587C14.5711 10.4407 14.5241 10.6287 14.4301 10.7697C14.3361 10.9107 14.1951 10.9577 14.007 10.9577C13.819 10.9577 13.678 10.9107 13.584 10.7697C13.49 10.6287 13.443 10.4407 13.443 10.1587C13.443 9.87665 13.49 9.68863 13.584 9.54762ZM15.1351 9.40661C15.0411 9.2186 14.8531 9.03058 14.6651 8.93658C14.4771 8.84257 14.2421 8.79557 14.007 8.79557C13.584 8.79557 13.302 8.93658 13.067 9.17159C12.832 9.40661 12.7379 9.73564 12.7379 10.2057C12.7379 10.4877 12.7849 10.7697 12.926 10.9577C13.02 11.1457 13.208 11.3338 13.396 11.4278C13.584 11.5218 13.819 11.5688 14.054 11.5688C14.4771 11.5688 14.7591 11.4278 14.9941 11.1927C15.2291 10.9577 15.3231 10.6287 15.3231 10.1587C15.2761 9.82965 15.2291 9.59463 15.1351 9.40661ZM11.9389 11.4748C12.0799 11.4278 12.1739 11.3808 12.2679 11.3338V10.7227C12.1739 10.8167 12.0329 10.8637 11.9389 10.9107C11.7979 10.9577 11.7039 10.9577 11.5159 10.9577C11.3278 10.9577 11.1868 10.9107 11.0928 10.7697C10.9988 10.6287 10.9518 10.4407 10.9518 10.1587C10.9518 9.64163 11.1398 9.35961 11.5159 9.35961C11.6099 9.35961 11.7039 9.35961 11.7979 9.40661C11.8919 9.45361 11.9859 9.45362 12.1269 9.50062L12.3619 8.93658C12.2679 8.88957 12.1269 8.84257 11.9859 8.79557C11.8449 8.74856 11.7039 8.74856 11.5159 8.74856C11.2338 8.74856 11.0458 8.79557 10.8108 8.88957C10.6228 8.98358 10.4348 9.12459 10.3408 9.35961C10.2468 9.54762 10.1528 9.82965 10.1528 10.1587C10.1528 10.6287 10.2468 11.0047 10.4818 11.1927C10.7168 11.4278 10.9988 11.5218 11.4218 11.5218C11.6569 11.5218 11.7979 11.5218 11.9389 11.4748ZM6.58048 10.0177L6.8155 9.2186C6.8155 9.1716 6.8625 9.12459 6.8625 9.03058C6.90951 8.93658 6.90951 8.84257 6.95651 8.74856C7.00352 8.65456 7.00352 8.56055 7.00352 8.51355C7.00352 8.56055 7.05052 8.65456 7.05052 8.74856C7.09752 8.84257 7.09752 8.93658 7.14453 9.03058C7.19153 9.12459 7.19153 9.1716 7.19153 9.2186L7.42655 10.0177H6.58048ZM8.74265 11.4748L7.52055 7.9495H6.62749L5.4054 11.4748H6.20446L6.43947 10.6287H7.70857L7.94359 11.4748H8.74265Z" fill="white"/>
<path d="M64.1598 5.8815H64.2538L64.3948 6.11652H64.4888L64.3478 5.8815H64.3948H64.4418L64.4888 5.8345V5.7875C64.4888 5.74049 64.4888 5.69349 64.4418 5.69349C64.3948 5.69349 64.3948 5.64648 64.3008 5.64648H64.0658V6.11652H64.1128V5.8815H64.1598ZM64.1598 5.69349H64.3008H64.3478H64.3948C64.3948 5.69349 64.3948 5.69349 64.4418 5.74049V5.7875C64.4418 5.8345 64.4418 5.8345 64.4418 5.8345C64.4418 5.8345 64.3948 5.8345 64.3948 5.8815H64.3478H64.3008H64.1598V5.69349Z" fill="white"/>
<path d="M64.2538 6.35145C64.5358 6.35145 64.7238 6.11643 64.7238 5.88141C64.7238 5.59939 64.4888 5.41138 64.2538 5.41138C63.9718 5.41138 63.7838 5.64639 63.7838 5.88141C63.7838 6.16343 64.0188 6.35145 64.2538 6.35145ZM64.2538 5.45838C64.4888 5.45838 64.6768 5.64639 64.6768 5.88141C64.6768 6.11643 64.4888 6.30444 64.2538 6.30444C64.0188 6.30444 63.8308 6.11643 63.8308 5.88141C63.8778 5.64639 64.0658 5.45838 64.2538 5.45838Z" fill="white"/>
<path d="M57.2503 5.36426L56.3102 9.54757C57.2032 9.54757 57.9083 10.1586 58.0963 10.9577H59.9765C60.1645 10.1586 60.9165 9.54757 61.8096 9.54757C61.9036 9.54757 62.0446 9.54757 62.1386 9.59457V5.36426H57.2503ZM61.5276 8.98353C60.6815 9.07754 59.9295 9.64158 59.6004 10.3936H58.6134C58.3313 9.78259 57.7673 9.31255 57.1092 9.07754L57.7673 6.02231H61.5276V8.98353Z" fill="white"/>
<path d="M63.2667 9.17155V4.47119H62.6086V9.8296H65.2878V9.17155H63.2667Z" fill="white"/>
<path d="M56.3572 10.0647C55.6051 10.0647 54.9471 10.6757 54.9471 11.4748H55.5581C55.5581 11.0518 55.8872 10.7227 56.3102 10.7227C56.7332 10.7227 57.0622 11.0518 57.0622 11.4748H57.6733C57.7203 10.7227 57.1092 10.0647 56.3572 10.0647Z" fill="white"/>
<path d="M61.8096 10.0647C61.0575 10.0647 60.3995 10.6757 60.3995 11.4748H61.0105C61.0105 11.0518 61.3395 10.7227 61.7626 10.7227C62.1856 10.7227 62.5146 11.0518 62.5146 11.4748H63.1257C63.2197 10.7227 62.6086 10.0647 61.8096 10.0647Z" fill="white"/>
<path d="M55.8402 9.6887L56.7802 5.41138H54.7121L54.242 7.62054H52.9259L53.396 5.41138H49.3067L47.6145 8.51361L47.2855 5.41138H41.0341L40.611 7.10351H42.0211L41.0811 11.4748H43.1492L44.1363 7.10351H45.3584L45.9694 11.4748H47.9436L51.1398 5.97542L49.9177 11.4748H51.9859L52.4559 9.31267H53.772L53.302 11.4748H54.4301C54.4771 10.6288 55.0411 9.87671 55.8402 9.6887Z" fill="white"/>
</svg>
