<svg width="24" height="24" viewBox="0 0 24 24" fill="currentColor" xmlns="http://www.w3.org/2000/svg">
<g clip-path="url(#clip0_1437_2437)">
<path d="M23.1072 0.240234C22.6128 0.240234 22.2144 0.641034 22.2144 1.13303V11.1506H21.552V5.18663V4.69703V3.31223H5.316V5.18663L0.0144 13.2794H0V15.1538H7.3032C7.3032 15.2018 7.3008 15.2498 7.3032 15.3002C7.3032 15.3146 7.3008 15.329 7.3032 15.3434C7.3032 15.3578 7.3056 15.3698 7.3056 15.3842C7.308 15.4418 7.3104 15.497 7.3152 15.5522C7.32 15.6002 7.3224 15.6506 7.3296 15.6986C7.332 15.7298 7.3344 15.761 7.3392 15.7898C7.3464 15.845 7.356 15.9002 7.3656 15.953C7.3728 15.9962 7.3824 16.0394 7.3896 16.0826C7.3944 16.109 7.3968 16.1378 7.404 16.1642C7.4064 16.1738 7.4088 16.1834 7.4112 16.193C7.4232 16.2434 7.4376 16.2914 7.452 16.3418C7.464 16.3826 7.476 16.421 7.488 16.4618C7.5 16.505 7.512 16.5482 7.5264 16.589C7.5408 16.6322 7.5576 16.673 7.5744 16.7138C7.5888 16.7546 7.6056 16.7954 7.6224 16.8338C7.632 16.8554 7.6392 16.877 7.6464 16.8962C6.732 17.465 5.328 18.0434 4.4712 18.2762L3.8112 19.217C3.8808 19.2506 3.9576 19.2674 4.0368 19.2602C4.8936 19.1834 6.852 18.4202 8.088 17.6594L8.0904 17.6618C8.1144 17.693 8.136 17.7266 8.16 17.7554C8.1888 17.7938 8.22 17.8298 8.2512 17.8658C8.2776 17.8994 8.3064 17.9306 8.3328 17.9618C8.364 17.9978 8.3952 18.0338 8.4264 18.0674C8.4456 18.0866 8.4648 18.1058 8.4816 18.125C8.4936 18.137 8.508 18.149 8.52 18.161C8.5488 18.1874 8.5752 18.2162 8.604 18.2426C8.6448 18.281 8.6832 18.317 8.7264 18.353C8.7528 18.377 8.7816 18.3986 8.8104 18.4202C8.8176 18.4274 8.8248 18.4322 8.832 18.4394C8.8368 18.4418 8.8392 18.4466 8.844 18.449C8.8656 18.4658 8.8872 18.4802 8.9088 18.497C8.9568 18.533 9.0048 18.5714 9.0552 18.605C9.0792 18.6218 9.1032 18.6362 9.1272 18.6506C9.1464 18.665 9.1656 18.6794 9.1848 18.6914C9.204 18.7034 9.2232 18.713 9.24 18.7226C9.2952 18.7562 9.348 18.7898 9.4032 18.8186C9.4128 18.8234 9.42 18.8306 9.4296 18.8354C9.4416 18.8426 9.456 18.8474 9.468 18.8546C9.5112 18.8762 9.552 18.8978 9.5952 18.9194C9.6504 18.9458 9.7056 18.9722 9.7632 18.9962C9.7896 19.0082 9.8136 19.0178 9.84 19.0298C9.8832 19.0466 9.9264 19.0634 9.9696 19.0802C10.0224 19.0994 10.0776 19.1186 10.1304 19.1354C10.164 19.145 10.1952 19.157 10.2288 19.1666C10.2672 19.1786 10.308 19.1882 10.3488 19.1978C10.4016 19.2122 10.4568 19.2242 10.5096 19.2362C10.5504 19.2458 10.5888 19.2554 10.6296 19.2626C10.6632 19.2698 10.6968 19.2746 10.7328 19.2794C10.7904 19.289 10.8456 19.2962 10.9032 19.3034C10.92 19.3058 10.9368 19.3082 10.9536 19.3106C10.9896 20.3882 10.7856 21.8906 10.56 22.7498L11.0448 23.7914C11.1072 23.7482 11.1624 23.6906 11.196 23.6162C11.5584 22.8362 11.8752 20.7602 11.8344 19.3082C11.8392 19.3082 11.844 19.3058 11.8488 19.3058C11.8776 19.3034 11.9064 19.301 11.9352 19.2962C11.9952 19.289 12.0552 19.277 12.1152 19.2674C12.1344 19.265 12.1512 19.2626 12.1704 19.2602C12.192 19.2554 12.2136 19.2482 12.2376 19.2434C12.2736 19.2362 12.3096 19.2314 12.3432 19.2218C12.3768 19.2146 12.408 19.205 12.4416 19.1978C12.4608 19.193 12.4776 19.1858 12.4968 19.181C12.4992 19.181 12.5016 19.1786 12.5016 19.1786C12.54 19.169 12.5784 19.157 12.6144 19.145C12.6552 19.133 12.6984 19.121 12.7368 19.1066C12.78 19.0922 12.8208 19.0754 12.8616 19.0586C12.876 19.0538 12.8928 19.049 12.9072 19.0418C12.9336 19.0322 12.96 19.0178 12.9864 19.0082C13.0296 18.989 13.0752 18.9722 13.1184 18.9506C13.1544 18.9338 13.188 18.917 13.224 18.8978C13.2552 18.8834 13.284 18.869 13.3152 18.8522C13.3224 18.8474 13.3296 18.845 13.3344 18.8402C13.3392 18.8378 13.344 18.8354 13.3488 18.8306C13.392 18.8066 13.4376 18.7826 13.4808 18.7562C13.4952 18.7466 13.512 18.7394 13.5264 18.7322C13.5408 18.7226 13.5552 18.713 13.5696 18.7034C13.5864 18.6938 13.6032 18.6842 13.62 18.6746C13.6464 18.6578 13.6704 18.6386 13.6968 18.6194C13.7376 18.593 13.776 18.5642 13.8144 18.5378C13.8456 18.5162 13.8768 18.4922 13.9056 18.4706C13.9176 18.461 13.932 18.4538 13.944 18.4442C13.9704 18.4226 13.9944 18.3986 14.0208 18.377C14.0544 18.3482 14.088 18.3218 14.1192 18.293C14.1528 18.2642 14.1864 18.2354 14.2176 18.2042C14.2488 18.173 14.28 18.1418 14.3112 18.1082C14.34 18.0794 14.3688 18.0482 14.3976 18.0194C14.4312 17.981 14.4672 17.945 14.5008 17.9066C14.5248 17.8778 14.5488 17.8466 14.5728 17.8178C14.5992 17.7842 14.628 17.7506 14.6544 17.7146C14.6688 17.6954 14.6856 17.6762 14.7024 17.6546C15.6528 18.1634 16.8552 19.0898 17.484 19.7138L18.6288 19.8146C18.6216 19.7378 18.6 19.6634 18.552 19.5962C18.0576 18.893 16.4184 17.5778 15.1392 16.889C15.1416 16.8842 15.144 16.8794 15.1464 16.8746C15.1584 16.8458 15.1728 16.817 15.1848 16.7882C15.1896 16.7786 15.1944 16.769 15.1968 16.7618C15.1968 16.7594 15.1992 16.757 15.1992 16.757C15.2136 16.721 15.2256 16.685 15.2376 16.649C15.2544 16.6034 15.2688 16.5602 15.2856 16.5146C15.2976 16.4762 15.312 16.4402 15.3216 16.4018C15.3288 16.3754 15.336 16.349 15.3432 16.3226C15.3504 16.301 15.3528 16.277 15.36 16.2554C15.3648 16.2386 15.372 16.2194 15.3744 16.2026C15.3792 16.181 15.3816 16.1594 15.3864 16.1378C15.396 16.0922 15.408 16.0466 15.4176 16.001C15.4248 15.965 15.4296 15.9266 15.4344 15.8906C15.4368 15.8714 15.4416 15.8522 15.444 15.833C15.4488 15.8042 15.4512 15.773 15.4536 15.7442C15.4584 15.6986 15.4656 15.653 15.4704 15.6074C15.4704 15.6002 15.4704 15.5954 15.4728 15.5882C15.4752 15.5594 15.4752 15.5282 15.4776 15.4994C15.48 15.461 15.4824 15.4226 15.4848 15.3818C15.4848 15.377 15.4848 15.3746 15.4848 15.3698C15.4848 15.3602 15.4848 15.3482 15.4848 15.3386C15.4872 15.2858 15.4872 15.2354 15.4872 15.1826C15.4872 15.1682 15.4896 15.1562 15.4872 15.1418H21.552V14.7506H21.8664V23.3378H22.8528V14.7626H23.0568V13.817H22.8528V13.325H21.864V13.817H21.552V13.2794V11.5178H22.2144H23.5056H24V1.13303C24 0.641034 23.5992 0.240234 23.1072 0.240234ZM22.0752 14.2562C22.0752 14.1002 22.2024 13.973 22.356 13.973C22.512 13.973 22.6368 14.1002 22.6368 14.2562C22.6368 14.4122 22.5096 14.537 22.356 14.537C22.2024 14.537 22.0752 14.4122 22.0752 14.2562ZM15.7032 13.2794C16.5672 12.8234 17.6256 12.4034 18.3216 12.2138L18.9816 11.273C18.912 11.2394 18.8352 11.2226 18.756 11.2298C17.8992 11.3066 15.9408 12.0698 14.7048 12.8306L14.7024 12.8282C14.6784 12.797 14.6568 12.7634 14.6328 12.7322C14.604 12.6938 14.5728 12.6578 14.5416 12.6218C14.5152 12.5882 14.4864 12.557 14.46 12.5258C14.4288 12.4898 14.3976 12.4538 14.3664 12.4202C14.3472 12.401 14.328 12.3818 14.3112 12.3626C14.2992 12.3506 14.2848 12.3386 14.2728 12.3266C14.244 12.3002 14.2176 12.2714 14.1888 12.245C14.148 12.2066 14.1096 12.1706 14.0664 12.1346C14.04 12.1106 14.0112 12.089 13.9824 12.0674C13.9752 12.0602 13.968 12.0554 13.9608 12.0482C13.956 12.0458 13.9536 12.041 13.9488 12.0386C13.9272 12.0218 13.9056 12.0074 13.8864 11.9906C13.8384 11.9546 13.7904 11.9162 13.74 11.8826C13.716 11.8658 13.692 11.8514 13.668 11.837C13.6296 11.813 13.5936 11.7866 13.5552 11.7626C13.5 11.729 13.4472 11.6954 13.392 11.6666C13.3824 11.6618 13.3752 11.6546 13.3656 11.6498C13.3536 11.6426 13.3392 11.6378 13.3272 11.6306C13.284 11.609 13.2432 11.5874 13.2 11.5658C13.1448 11.5394 13.0896 11.513 13.032 11.489C13.0056 11.477 12.9816 11.4674 12.9552 11.4554C12.912 11.4386 12.8712 11.4218 12.828 11.4074C12.7752 11.3882 12.72 11.369 12.6648 11.3498C12.6312 11.3402 12.6 11.3282 12.5664 11.3186C12.528 11.3066 12.4872 11.297 12.4488 11.2874C12.396 11.273 12.3408 11.261 12.288 11.249C12.2472 11.2394 12.2064 11.2298 12.168 11.2226C12.1344 11.2154 12.1008 11.2106 12.0672 11.2058C12.0096 11.1962 11.9544 11.189 11.8968 11.1818C11.88 11.1794 11.8632 11.177 11.8464 11.1746C11.8104 10.097 12.0144 8.59463 12.24 7.73543L11.7552 6.69383C11.6928 6.73703 11.6376 6.79463 11.604 6.86903C11.2416 7.64903 10.9248 9.72503 10.9656 11.177C10.9608 11.177 10.956 11.1794 10.9512 11.1794C10.9224 11.1818 10.8936 11.1842 10.8672 11.189C10.8072 11.1962 10.7472 11.2082 10.6872 11.2178C10.6464 11.225 10.6056 11.2322 10.5648 11.2418C10.5288 11.249 10.4952 11.2538 10.4592 11.2634C10.4256 11.2706 10.3944 11.2802 10.3608 11.2874C10.3416 11.2922 10.3248 11.2994 10.3056 11.3042C10.3032 11.3042 10.3032 11.3042 10.3008 11.3066C10.2624 11.3162 10.224 11.3282 10.1856 11.3402C10.1448 11.3522 10.104 11.3642 10.0632 11.3786C10.02 11.393 9.9792 11.4098 9.9384 11.4266C9.924 11.4314 9.9096 11.4362 9.8928 11.4434C9.8664 11.453 9.84 11.4674 9.8136 11.4794C9.7704 11.4986 9.7248 11.5154 9.6816 11.537C9.6456 11.5538 9.612 11.5706 9.576 11.5898C9.5448 11.6042 9.516 11.6186 9.4848 11.6354C9.4776 11.6402 9.4704 11.6426 9.4632 11.6474C9.4584 11.6498 9.4536 11.6522 9.4488 11.6546C9.4056 11.6786 9.36 11.7026 9.3168 11.729C9.3024 11.7386 9.2856 11.7458 9.2712 11.753C9.2568 11.7626 9.2424 11.7722 9.228 11.7818C9.1848 11.8082 9.144 11.837 9.1008 11.8658C9.0624 11.8922 9.0216 11.9186 8.9832 11.9474C8.952 11.969 8.9208 11.9906 8.892 12.0146C8.8536 12.0458 8.8152 12.077 8.7792 12.1082C8.7456 12.137 8.712 12.1634 8.6808 12.1922C8.6472 12.221 8.6136 12.2498 8.58 12.281C8.5488 12.3122 8.5176 12.3434 8.4864 12.377C8.4576 12.4058 8.4288 12.437 8.4 12.4658C8.364 12.5042 8.3304 12.5402 8.2968 12.5786C8.2728 12.6074 8.2488 12.6386 8.2248 12.6674C8.1984 12.701 8.1696 12.7346 8.1432 12.7706C8.1288 12.7898 8.112 12.809 8.0952 12.8306C7.1448 12.3218 5.9424 11.3954 5.3136 10.7714L4.1688 10.6706C4.176 10.7474 4.1976 10.8218 4.2456 10.889C4.6728 11.4986 5.9592 12.5642 7.1256 13.2866H0.5064L5.808 5.19383H21.1392V13.2866H15.7032V13.2794ZM23.1072 0.744234C23.2896 0.744234 23.4384 0.893034 23.4384 1.07543C23.4384 1.25783 23.2896 1.40663 23.1072 1.40663C22.9248 1.40663 22.776 1.25783 22.776 1.07543C22.776 0.893034 22.9248 0.744234 23.1072 0.744234Z" fill="currentColor"/>
</g>
<defs>
<clipPath id="clip0_1437_2437">
<rect width="24" height="23.5608" fill="currentColor" transform="translate(0 0.240234)"/>
</clipPath>
</defs>
</svg>
