<svg width="24" height="24" viewBox="0 0 24 24" fill="currentColor" xmlns="http://www.w3.org/2000/svg">
<g clip-path="url(#clip0_1421_1680)">
<path d="M1.17361 13.6104C1.17361 14.7504 2.09281 15.6792 3.22801 15.6792C4.14481 15.6792 4.91282 15.0696 5.17922 14.232C5.24162 14.0352 5.28482 13.8288 5.28482 13.6104C5.28482 12.468 4.36321 11.5464 3.22801 11.5464C3.00001 11.5464 2.78161 11.592 2.57521 11.6616C1.76161 11.9352 1.17361 12.6984 1.17361 13.6104ZM2.27521 13.6104C2.27521 13.08 2.70241 12.6528 3.22801 12.6528C3.75361 12.6528 4.18082 13.08 4.18082 13.6104C4.18082 14.1384 3.75361 14.5656 3.22801 14.5656C2.70241 14.5656 2.27521 14.1384 2.27521 13.6104Z" fill="currentColor"/>
<path d="M13.8816 14.0377C13.8816 14.9425 14.6112 15.6793 15.5112 15.6793C16.2384 15.6793 16.848 15.1945 17.0592 14.5321C17.1096 14.3761 17.1432 14.2105 17.1432 14.0377C17.1432 13.1305 16.4112 12.4009 15.5112 12.4009C15.3288 12.4009 15.156 12.4369 14.9928 12.4921C14.3496 12.7105 13.8816 13.3153 13.8816 14.0377ZM14.7576 14.0377C14.7576 13.6177 15.096 13.2769 15.5136 13.2769C15.9288 13.2769 16.2696 13.6153 16.2696 14.0377C16.2696 14.4553 15.9312 14.7961 15.5136 14.7961C15.096 14.7961 14.7576 14.4553 14.7576 14.0377Z" fill="currentColor"/>
<path d="M23.9328 11.7362L22.4352 8.92336C22.4016 8.86096 22.3368 8.82256 22.2672 8.82256H19.5576H19.128H19.056C18.9864 8.82256 18.9216 8.86096 18.888 8.92336L18.7824 9.12016H18.4992V8.76736H18.672V8.39776C18.672 8.26816 18.5664 8.16016 18.4344 8.16016H18.4056C18.276 8.16016 18.168 8.26576 18.168 8.39776V8.76736H18.3528V9.11776V9.26176H18.4968H18.7032L17.8128 10.9346H0V15.1634H1.3608C1.0128 14.741 0.804 14.201 0.804 13.6106C0.804 12.569 1.4688 11.645 2.4552 11.3138C2.724 11.2226 2.976 11.177 3.228 11.177C4.5648 11.177 5.6544 12.269 5.6544 13.6106C5.6544 13.8458 5.6136 14.0858 5.532 14.345C5.4336 14.6522 5.2824 14.9282 5.088 15.1634H13.8552C13.6392 14.8418 13.512 14.4554 13.512 14.0378C13.512 13.1786 14.0592 12.4178 14.8752 12.1442C15.096 12.0698 15.3048 12.0314 15.5112 12.0314C16.6152 12.0314 17.5128 12.9314 17.5128 14.0378C17.5128 14.2322 17.4792 14.429 17.412 14.6426C17.352 14.8322 17.2656 15.005 17.16 15.161H18.8184V10.9346H18.1704L19.128 9.07216V9.33616V15.1634H23.832C23.9256 15.1634 24 15.089 24 14.9954V12.0074C24 11.9138 23.976 11.8202 23.9328 11.7362ZM21.924 10.8314H20.2056C20.2008 10.8002 20.1936 10.769 20.184 10.7378C20.1168 10.5218 19.968 10.3346 19.9296 10.1738C19.8888 10.013 19.9272 9.88336 19.8192 9.88336C19.7328 9.88336 19.728 9.93376 19.728 9.94576C19.728 9.95296 19.728 10.4354 19.728 10.8314H19.4112V9.06976H19.5576H21.924V10.8314ZM22.1952 10.8314V9.07216L23.2464 11.1194L22.1952 10.8314Z" fill="currentColor"/>
</g>
<defs>
<clipPath id="clip0_1421_1680">
<rect width="24" height="7.5192" fill="currentColor" transform="translate(0 8.16016)"/>
</clipPath>
</defs>
</svg>
