<svg width="24" height="24" viewBox="0 0 24 24" fill="currentColor" xmlns="http://www.w3.org/2000/svg">
<g clip-path="url(#clip0_1421_1626)">
<path d="M15.3408 17.5988C15.3408 18.2492 15.8304 18.7796 16.4352 18.7796C16.9248 18.7796 17.3328 18.4316 17.4744 17.954C17.508 17.8412 17.5296 17.7236 17.5296 17.5988C17.5296 16.946 17.0376 16.4204 16.4352 16.4204C16.3128 16.4204 16.1976 16.4468 16.0872 16.4876C15.6528 16.6436 15.3408 17.078 15.3408 17.5988ZM15.9264 17.5988C15.9264 17.2964 16.1544 17.0516 16.4328 17.0516C16.7112 17.0516 16.9392 17.2964 16.9392 17.5988C16.9392 17.9012 16.7112 18.1436 16.4328 18.1436C16.1544 18.1436 15.9264 17.8988 15.9264 17.5988Z" fill="currentColor"/>
<path d="M5.86081 17.5988C5.86081 18.2492 6.35041 18.7796 6.95521 18.7796C7.44481 18.7796 7.85281 18.4316 7.99441 17.954C8.02801 17.8412 8.04961 17.7236 8.04961 17.5988C8.04961 16.946 7.55761 16.4204 6.95521 16.4204C6.83281 16.4204 6.71761 16.4468 6.60721 16.4876C6.17521 16.6436 5.86081 17.078 5.86081 17.5988ZM6.44881 17.5988C6.44881 17.2964 6.67681 17.0516 6.95521 17.0516C7.23361 17.0516 7.46161 17.2964 7.46161 17.5988C7.46161 17.9012 7.23361 18.1436 6.95521 18.1436C6.67681 18.1436 6.44881 17.8988 6.44881 17.5988Z" fill="currentColor"/>
<path d="M20.0616 17.4524V15.7628C20.0616 15.734 20.0568 15.7052 20.0472 15.6788L19.272 13.4084C19.2384 13.3124 19.1544 13.25 19.0584 13.25H16.3488C16.224 13.25 16.1232 13.358 16.1232 13.4924V16.19C16.2288 16.1612 16.332 16.1468 16.4328 16.1468C17.1792 16.1468 17.7864 16.7996 17.7864 17.5988C17.7864 17.7404 17.7648 17.882 17.7192 18.038C17.712 18.0644 17.7024 18.0908 17.6928 18.1148H19.836C19.836 18.1148 19.836 18.1148 19.8384 18.1148H20.1888V17.4524H20.0616ZM16.8408 15.5828H16.3344V13.5332H16.8408V15.5828ZM17.7696 15.9908H17.5032V15.5396H17.7696V15.9908ZM19.3008 16.0244C19.3008 16.1132 19.2336 16.1876 19.1496 16.1876H18.5928C18.5352 16.1876 18.4824 16.154 18.4584 16.0988L18.0216 15.1748C17.9976 15.122 17.9472 15.0884 17.8896 15.086L17.6496 15.0788C17.568 15.0764 17.5032 15.0044 17.5032 14.9156V13.6988C17.5032 13.61 17.5704 13.5356 17.6544 13.5356H18.78C18.8472 13.5356 18.9072 13.5836 18.9264 13.6532L19.296 15.0356C19.3008 15.05 19.3008 15.0644 19.3008 15.0812V16.0244Z" fill="currentColor"/>
<path d="M13.2864 15.4028L12.876 13.9268H12.3264L12.7368 15.4028H4.31039L3.07199 16.0652V18.0236H5.66399C5.62559 17.8892 5.60399 17.7452 5.60399 17.5964C5.60399 16.9748 5.97359 16.4228 6.52559 16.2236C6.67439 16.1684 6.81599 16.142 6.95519 16.142C7.70159 16.142 8.30879 16.7948 8.30879 17.594C8.30879 17.7308 8.28719 17.87 8.24399 18.0212H15.0696V15.4028H13.2864Z" fill="currentColor"/>
<path d="M13.5504 14.6567H13.212L12.5016 12.1055H12.84L13.5504 14.6567Z" fill="currentColor"/>
<path d="M1.0344 17.5272H0.1104C0.048 17.5272 0 17.4792 0 17.4168V16.812H1.0344V17.5272Z" fill="currentColor"/>
<path d="M3.83281 18.187H3.00961V18.3454H3.83281V18.187Z" fill="currentColor"/>
<path d="M15.0768 18.187H14.2536V18.3454H15.0768V18.187Z" fill="currentColor"/>
<path d="M23.9976 9.12218L23.6832 6.48699C23.6784 6.45579 23.6664 6.42699 23.652 6.40059V5.81259C23.652 5.58699 23.652 5.27979 23.2392 5.27979H20.2872C20.088 5.27979 19.9392 5.33739 19.8456 5.45259C19.7256 5.59899 19.7472 5.77899 19.7472 5.77899V6.30219H19.644V5.89419C19.644 5.73579 19.5888 5.60619 19.4856 5.53419C19.3656 5.45019 19.2 5.45019 19.0176 5.53179C18.8376 5.61579 15.4488 7.36299 12.852 8.70459H11.328C10.9752 8.70459 10.7136 8.82458 10.5384 8.90378L10.4952 8.92298C10.38 8.97338 6.37441 11.0614 3.45121 12.5854C2.08081 13.3006 0.998411 13.8622 0.900011 13.9126C0.604811 14.0662 0.480011 14.1766 0.480011 14.4694V15.8254C0.480011 15.9766 0.523211 16.0894 0.609611 16.1662C0.698411 16.2454 0.813611 16.2598 0.890411 16.2598C0.943211 16.2598 0.979211 16.2526 0.976811 16.2526H1.19761L1.17361 17.647H2.83201V16.0654V15.9142L2.95681 15.847L4.19521 15.1846L4.24321 15.1582H4.29601H7.63201L9.48481 14.1958C9.35761 14.131 9.24481 14.047 9.14401 13.9726C8.81761 13.7254 8.78161 13.4062 8.78161 13.1854V11.9806V11.827L8.91121 11.7598L12.804 9.76298H11.4576L11.448 9.76779V9.61178C11.8728 9.39098 12.3648 9.13658 12.8904 8.86538H13.632V9.61658L13.3656 9.75338L9.02401 11.9806C9.02401 11.9806 9.02401 13.0054 9.02401 13.1854C9.02401 13.3654 9.05281 13.5934 9.29041 13.7734C9.53041 13.9534 9.81121 14.1646 10.1472 13.9846C10.44 13.8286 17.2752 10.2214 19.116 9.25178C19.1088 9.21818 19.104 9.18459 19.104 9.14859V6.81339L18.3648 7.19258V6.04539C18.7704 5.83659 19.032 5.70459 19.0776 5.68299C19.2096 5.62299 19.3272 5.61819 19.4016 5.67099C19.476 5.72379 19.4928 5.82219 19.4928 5.89419V6.30219C19.3872 6.30459 19.3008 6.39819 19.3008 6.51339V9.14859C19.3008 9.26619 19.3896 9.35978 19.4976 9.35978H23.8008C23.9208 9.36219 24.0144 9.24938 23.9976 9.12218ZM15.9216 7.30298V8.44538L15.4104 8.70698H13.7808V8.40698C14.4936 8.03978 15.2304 7.65819 15.9216 7.30298ZM7.31521 10.7542V11.911L5.04721 13.0846V11.9326C5.80321 11.5414 6.58321 11.1358 7.31521 10.7542ZM0.962411 16.0918C0.960011 16.0918 0.801611 16.123 0.705611 16.0414C0.655211 15.9982 0.631211 15.9238 0.631211 15.8254V14.4694C0.631211 14.2822 0.672011 14.2102 0.967211 14.0614C1.03921 14.0254 1.64401 13.7086 2.50561 13.2622V14.407L1.21681 15.0718L1.20001 16.0918H0.962411ZM2.65681 14.3254V13.1806C2.92561 13.0414 3.21601 12.8902 3.52081 12.7318C3.95281 12.5062 4.41841 12.2638 4.89841 12.0142V13.1662L2.65681 14.3254ZM7.46641 11.8342V10.6774C8.37121 10.207 9.18241 9.78458 9.74881 9.49178V10.3414C9.56161 10.4878 9.46081 10.6702 9.41041 10.831L7.46641 11.8342ZM9.74641 10.5502V10.651L9.62401 10.7158C9.65521 10.6606 9.69601 10.603 9.74641 10.5502ZM11.2944 9.85178L9.89761 10.5742V10.4254C9.91921 10.411 9.94321 10.3966 9.96721 10.3822C10.0608 10.3318 10.5648 10.0702 11.292 9.69338V9.85178H11.2944ZM9.90241 10.2382L9.90001 10.2406V9.41258C10.2888 9.21098 10.5312 9.08618 10.5576 9.07418L10.6008 9.05498C10.764 8.98058 11.0088 8.87018 11.3304 8.87018H12.5424C11.1456 9.59018 10.044 10.1614 9.90241 10.2382ZM13.2 8.70698C13.3416 8.63498 13.4832 8.56058 13.6272 8.48618V8.70698H13.2ZM13.7808 8.87018H15.0936L13.7808 9.54218V8.87018ZM18.2136 7.26938L16.0728 8.36618V7.22618C16.9104 6.79418 17.6664 6.40539 18.2136 6.12459V7.26938ZM22.2456 5.44059V6.30219H21.0984V5.44059H22.2456ZM19.896 5.76699C19.896 5.76699 19.884 5.64939 19.9584 5.55819C20.0208 5.48139 20.1312 5.44059 20.2872 5.44059H20.9496V6.30219H19.8984L19.896 5.76699ZM22.3968 6.30219V5.44059H23.2392C23.4912 5.44059 23.5008 5.56059 23.5008 5.81259V6.30459C23.496 6.30459 23.4912 6.30219 23.4864 6.30219H22.3968Z" fill="currentColor"/>
</g>
<defs>
<clipPath id="clip0_1421_1626">
<rect width="24" height="13.5" fill="currentColor" transform="translate(0 5.27979)"/>
</clipPath>
</defs>
</svg>
