<svg width="24" height="24" viewBox="0 0 24 24" fill="currentColor" xmlns="http://www.w3.org/2000/svg">
<g clip-path="url(#clip0_1422_1385)">
<path d="M20.2992 11.2897C19.9296 11.2897 19.5768 11.3617 19.2408 11.4697L18.9984 10.8769L19.1904 10.7977L18.7032 9.54494C18.7056 9.54494 18.7056 9.54494 18.708 9.54494C19.572 9.51614 21.8208 9.54494 21.8208 9.54494L22.5696 10.3225L24 10.3441L22.9152 8.82494C22.9152 8.82494 20.7552 8.43854 19.2552 8.47934C17.7624 8.51774 16.5744 8.70974 15.9696 10.1233C15.3648 11.5369 14.1528 15.7153 14.1528 15.7153L14.6712 15.7177C14.6712 15.7177 16.344 11.2177 16.7472 10.6129C16.9992 10.2337 17.3664 9.92174 17.8152 9.73694L18.36 11.1385L18.6 11.0401L18.84 11.6233C17.6016 12.1873 16.7352 13.4353 16.7352 14.9089C16.7352 16.9105 18.3312 18.5377 20.2992 18.5377C21.8904 18.5377 23.2224 17.4673 23.6832 16.0009C23.7912 15.6553 23.8656 15.2905 23.8656 14.9089C23.868 12.9073 22.2696 11.2897 20.2992 11.2897ZM20.2992 16.5865C19.3896 16.5865 18.648 15.8377 18.648 14.9113C18.648 13.9801 19.3896 13.2313 20.2992 13.2313C21.2088 13.2313 21.9504 13.9801 21.9504 14.9113C21.9504 15.8353 21.2088 16.5865 20.2992 16.5865Z" fill="currentColor"/>
<path d="M7.76882 11.4265L8.00882 10.8241C9.12482 11.8081 9.94562 15.6265 9.94562 15.6265H10.5216C10.5216 15.6265 9.74402 12.8881 9.31202 11.3305C8.88002 9.77291 7.35122 9.74411 6.68882 9.74411C6.02642 9.74411 3.95042 9.68651 2.91362 9.74411C1.87682 9.80171 1.48802 10.9033 1.31042 11.7337H1.56002C1.56002 11.7337 2.01842 11.0041 2.74802 10.6609C3.59042 10.2649 5.74802 10.1209 7.18802 10.4713L6.94082 11.0881L7.13282 11.1673L6.96962 11.5657C6.54722 11.3881 6.08642 11.2897 5.60162 11.2897C5.20562 11.2897 4.82642 11.3689 4.46882 11.4937C3.05762 11.9737 2.03762 13.3105 2.03762 14.9113C2.03762 16.9129 3.63362 18.5401 5.60162 18.5401C7.19282 18.5401 8.52482 17.4697 8.98562 16.0033C9.09362 15.6577 9.16802 15.2929 9.16802 14.9113C9.16802 13.5577 8.43602 12.3817 7.35602 11.7601L7.53122 11.3305L7.76882 11.4265ZM5.59922 16.5865C4.68962 16.5865 3.94802 15.8377 3.94802 14.9113C3.94802 13.9801 4.68962 13.2313 5.59922 13.2313C6.50882 13.2313 7.25042 13.9801 7.25042 14.9113C7.25042 15.8353 6.50882 16.5865 5.59922 16.5865Z" fill="currentColor"/>
<path d="M19.2672 8.16975C19.404 8.16255 19.5528 8.15775 19.7088 8.15775C19.8192 8.15775 19.9296 8.16015 20.0424 8.16495L18.5952 7.18335L16.8072 7.75935C16.8072 7.75935 14.9904 7.67295 14.3856 7.67295C13.7808 7.67295 12.5976 8.53695 11.9928 9.02655C11.4168 9.05535 5.88238 9.05535 5.88238 9.05535L5.64478 9.42495C5.74318 9.42735 5.83918 9.42735 5.93038 9.42975C6.26158 9.43455 6.53998 9.43935 6.71758 9.43935C7.31518 9.43935 9.13678 9.43935 9.63838 11.2513C10.0032 12.5665 10.5984 14.6665 10.7736 15.2881L13.992 15.3097C14.2584 14.3977 15.1824 11.2369 15.7128 10.0009C16.428 8.33295 17.9352 8.24655 19.2672 8.16975Z" fill="currentColor"/>
<path d="M18.2183 6.80894L16.9799 7.24094C16.9799 7.24094 16.4615 6.95294 15.7991 7.09694C15.1943 6.66494 15.3383 6.52094 15.3383 6.52094L16.9823 5.48414C16.9775 5.48174 17.7839 6.14414 18.2183 6.80894Z" fill="currentColor"/>
<path d="M15.8832 5.30883L15.132 5.28003L13.692 5.85603L13.9512 6.20163L15.0168 5.88483L15.3936 6.02883L16.4592 5.48163L15.8832 5.30883Z" fill="currentColor"/>
<path d="M5.2176 8.45044H0V9.19924H5.2176V8.45044Z" fill="currentColor"/>
</g>
<defs>
<clipPath id="clip0_1422_1385">
<rect width="24" height="13.26" fill="currentColor" transform="translate(0 5.28003)"/>
</clipPath>
</defs>
</svg>
