<svg width="24" height="24" viewBox="0 0 24 24" fill="currentColor" xmlns="http://www.w3.org/2000/svg">
<g clip-path="url(#clip0_1422_1680)">
<path d="M23.9136 3.59524H23.7408V2.29204H23.9136C23.9616 2.29204 24 2.25364 24 2.20564C24 2.15764 23.9616 2.11924 23.9136 2.11924H23.7408V1.43284C23.7408 1.38484 23.7024 1.34644 23.6544 1.34644H20.9904C20.9424 1.34644 20.904 1.38484 20.904 1.43284V2.11924H20.676C20.628 2.11924 20.5896 2.15764 20.5896 2.20564C20.5896 2.25364 20.628 2.29204 20.676 2.29204H20.904V3.59284H20.676C20.628 3.59284 20.5896 3.63124 20.5896 3.67924C20.5896 3.72724 20.628 3.76564 20.676 3.76564H20.904V4.62004H20.7216V5.40484H23.7768V4.62004H23.7408V3.76564H23.9136C23.9616 3.76564 24 3.72724 24 3.67924C24 3.63364 23.9616 3.59524 23.9136 3.59524ZM23.0184 1.51924H23.568V2.12164H23.0184V1.51924ZM23.0184 2.29204H23.568V3.59284H23.0184V2.29204ZM21.8784 1.51924H22.848V2.12164H21.8784V1.51924ZM21.8784 2.29204H22.848V3.59284H21.8784V2.29204ZM22.848 3.76564V4.62004H21.8784V3.76564H22.848ZM21.0744 1.51924H21.7056V2.12164H21.0744V1.51924ZM21.0744 2.29204H21.7056V3.59284H21.0744V2.29204ZM21.0744 3.76564H21.7056V4.62004H21.0744V3.76564ZM23.0184 4.62004V3.76564H23.568V4.62004H23.0184Z" fill="currentColor"/>
<path d="M11.3353 20.1096C12.3337 20.1096 13.1425 20.9184 13.1425 21.9168C13.1425 22.9152 12.3337 23.724 11.3353 23.724C10.3369 23.724 9.52808 22.9152 9.52808 21.9168C9.52808 20.9184 10.3369 20.1096 11.3353 20.1096ZM10.5937 21.8976C10.5937 22.3176 10.9345 22.6584 11.3545 22.6584C11.7745 22.6584 12.1153 22.3176 12.1153 21.8976C12.1153 21.4776 11.7745 21.1368 11.3545 21.1368C10.9345 21.1368 10.5937 21.4776 10.5937 21.8976Z" fill="currentColor"/>
<path d="M1.8072 20.0352C2.8056 20.0352 3.6144 20.844 3.6144 21.8424C3.6144 22.8408 2.8056 23.6496 1.8072 23.6496C0.8088 23.6496 0 22.8408 0 21.8424C0 20.844 0.8088 20.0352 1.8072 20.0352ZM1.0656 21.8232C1.0656 22.2432 1.4064 22.584 1.8264 22.584C2.2464 22.584 2.5872 22.2432 2.5872 21.8232C2.5872 21.4032 2.2464 21.0624 1.8264 21.0624C1.4064 21.0624 1.0656 21.4032 1.0656 21.8232Z" fill="currentColor"/>
<path d="M9.7705 20.4265C8.8153 20.4241 4.1713 20.4457 3.4585 20.4481C3.7777 20.8249 3.9697 21.3097 3.9697 21.8425C3.9697 21.9577 3.9577 22.0705 3.9409 22.1809L9.1969 22.2265C9.1825 22.1257 9.1729 22.0225 9.1729 21.9145C9.1729 21.3385 9.4009 20.8153 9.7705 20.4265Z" fill="currentColor"/>
<path d="M9.28805 21.3311C9.48485 20.7263 9.80645 20.4359 9.94085 20.4287C9.96485 20.4287 9.89765 20.4263 9.77045 20.4263C9.40085 20.8151 9.17285 21.3383 9.17285 21.9143C9.17285 22.0199 9.18245 22.1231 9.19685 22.2263H9.22805C9.24005 22.2335 9.15125 21.7535 9.28805 21.3311Z" fill="currentColor"/>
<path d="M19.8793 4.70158L19.8769 3.94558L17.8633 0.47998L17.0665 0.67918C17.0665 0.67918 6.50892 0.64318 6.47292 0.64318C6.43692 0.64318 4.64412 1.35838 4.64412 1.35838L5.04732 2.88718L5.29452 2.83678L6.02652 3.48718L9.18492 6.08398L9.27852 7.06798L13.1881 10.1928L13.3993 10.6728L12.1585 12.1344L7.44252 15.504H4.63212C4.62972 15.3312 4.62492 15.1392 4.61772 14.9352C4.58652 14.0784 3.65532 13.8192 3.65532 13.8192C3.65532 13.8192 3.66972 14.0328 3.76332 14.5368C4.11372 14.6736 4.03932 14.9352 4.03932 14.9352V15.504H3.12012V19.6704H10.3657V16.9416L9.69132 15.8736L9.92892 15.6576L10.1161 14.7216L14.3161 11.6904L14.3641 8.57758L12.7033 8.00398L7.42332 3.54478L11.2441 2.26558L11.4025 2.57518L12.2809 2.38798L12.6193 1.57678H17.5417L19.7257 5.39518L20.4145 5.24638V4.70638L19.8793 4.70158ZM10.5481 7.41838L13.4977 9.64078L13.3561 9.93358L10.3729 7.53358L10.5481 7.41838ZM7.32972 1.57438H8.26572L6.96732 2.05918L6.88572 1.77838L7.32972 1.57438ZM7.15452 3.27598L6.43212 2.70958L9.51852 1.57438H10.9345L11.1217 1.95358L7.15452 3.27598Z" fill="currentColor"/>
</g>
<defs>
<clipPath id="clip0_1422_1680">
<rect width="24" height="23.244" fill="currentColor" transform="translate(0 0.47998)"/>
</clipPath>
</defs>
</svg>
