<svg width="24" height="24" viewBox="0 0 24 24" fill="currentColor" xmlns="http://www.w3.org/2000/svg">
<g clip-path="url(#clip0_1431_3383)">
<path d="M23.9399 15.5832C24.0191 15.1704 24.0191 14.7624 23.9399 14.3496C23.8559 14.3496 23.7743 14.3496 23.6951 14.3496C23.6615 14.2224 23.6279 14.1048 23.5943 13.9848C23.6663 13.9416 23.7335 13.9032 23.8055 13.86C23.6663 13.464 23.4623 13.1112 23.1911 12.792C23.1167 12.8352 23.0447 12.8736 22.9823 12.9096C22.8887 12.8184 22.8023 12.732 22.7111 12.6432C22.7471 12.576 22.7879 12.5064 22.8287 12.432C22.5095 12.1584 22.1567 11.9544 21.7631 11.8176C21.7199 11.892 21.6791 11.9616 21.6383 12.0312C21.5159 11.9976 21.3983 11.964 21.2711 11.9304C21.2711 11.8488 21.2711 11.7672 21.2711 11.6856C20.8559 11.6064 20.4503 11.604 20.0375 11.688C20.0375 11.7744 20.0375 11.8536 20.0375 11.9328C19.9103 11.9688 19.7951 12 19.6751 12.0336C19.6319 11.9616 19.5911 11.892 19.5503 11.82C19.1519 11.9616 18.7991 12.1632 18.4847 12.4368C18.5279 12.5136 18.5687 12.5832 18.5999 12.6384C18.5063 12.732 18.4175 12.8208 18.3263 12.912C18.2663 12.8784 18.1967 12.8376 18.1247 12.7968C17.8511 13.1184 17.6447 13.4712 17.5103 13.8672C17.5871 13.9128 17.6543 13.9536 17.7239 13.992C17.6879 14.1168 17.6567 14.2344 17.6207 14.3592C17.5391 14.3592 17.4599 14.3592 17.3783 14.3592C17.2967 14.772 17.2967 15.18 17.3783 15.5952C17.4623 15.5952 17.5439 15.5952 17.6231 15.5952C17.6567 15.7224 17.6903 15.84 17.7215 15.9576C17.6495 16.0008 17.5823 16.0416 17.5079 16.0848C17.6471 16.4808 17.8511 16.8336 18.1247 17.1528C18.1991 17.1096 18.2711 17.0688 18.3287 17.0352C18.4223 17.1288 18.5111 17.2128 18.6023 17.304C18.5663 17.3688 18.5255 17.4408 18.4847 17.5152C18.8039 17.7888 19.1567 17.9928 19.5503 18.132C19.5959 18.0576 19.6343 17.988 19.6751 17.9184C19.7951 17.952 19.9127 17.9832 20.0423 18.0192C20.0423 18.1008 20.0423 18.1824 20.0423 18.264C20.4575 18.3432 20.8631 18.3432 21.2759 18.2616C21.2759 18.1752 21.2759 18.0936 21.2759 18.0168C21.4007 17.9832 21.5183 17.9496 21.6383 17.9184C21.6815 17.9904 21.7223 18.06 21.7631 18.1272C22.0535 18.0576 22.7063 17.676 22.8263 17.5056C22.7879 17.4384 22.7495 17.3688 22.7183 17.3136C22.8119 17.2176 22.8983 17.1288 22.9895 17.0376C23.0519 17.0736 23.1191 17.112 23.1935 17.1552C23.4647 16.8336 23.6711 16.4808 23.8079 16.0848C23.7311 16.0392 23.6639 15.9984 23.5967 15.9576C23.6303 15.8328 23.6639 15.7152 23.6975 15.5904C23.7791 15.5832 23.8607 15.5832 23.9399 15.5832ZM20.6591 16.3992C19.8719 16.3992 19.2359 15.7584 19.2359 14.9664C19.2359 14.1672 19.8719 13.536 20.6591 13.536C21.4439 13.536 22.0823 14.1672 22.0823 14.9664C22.0823 15.7584 21.4415 16.3992 20.6591 16.3992Z" fill="currentColor"/>
<path d="M10.9824 14.4984C10.9488 14.376 10.9176 14.2632 10.8864 14.148C10.9536 14.1072 11.0208 14.0688 11.0904 14.028C10.956 13.6464 10.7616 13.3056 10.4976 12.9984C10.4256 13.0392 10.3584 13.0776 10.2984 13.1112C10.2096 13.0224 10.1256 12.9408 10.0368 12.8544C10.0728 12.7896 10.1112 12.7224 10.152 12.6504C9.84475 12.3888 9.50635 12.1896 9.12475 12.0576C9.08155 12.1296 9.04315 12.1968 9.00475 12.2616C8.88715 12.228 8.77195 12.1968 8.65195 12.1632C8.65195 12.084 8.65195 12.0072 8.65195 11.928C8.25355 11.8512 7.86235 11.8488 7.46395 11.9304C7.46395 12.012 7.46395 12.0912 7.46395 12.1656C7.34155 12.1992 7.23115 12.2304 7.11595 12.2616C7.07515 12.192 7.03675 12.1248 6.99595 12.0552C6.61435 12.192 6.27355 12.3864 5.96875 12.6504C6.00955 12.7248 6.04795 12.7896 6.07915 12.8448C5.99035 12.9336 5.90395 13.02 5.81755 13.1064C5.75995 13.0728 5.69275 13.0344 5.62315 12.996C5.35915 13.3056 5.16235 13.644 5.03035 14.0256C5.10475 14.0688 5.16955 14.1072 5.23435 14.1456C5.20075 14.2656 5.16955 14.3808 5.13595 14.4984C5.05675 14.4984 4.98235 14.4984 4.90315 14.4984C4.82395 14.8968 4.82395 15.288 4.90315 15.6888C4.98475 15.6888 5.06155 15.6888 5.13835 15.6888C5.17195 15.8112 5.20315 15.924 5.23435 16.0392C5.16475 16.08 5.09995 16.1184 5.03035 16.1616C5.16475 16.5432 5.36155 16.884 5.62315 17.1888C5.69515 17.148 5.76235 17.1096 5.81995 17.076C5.91115 17.1648 5.99515 17.2488 6.08395 17.3352C6.04795 17.3976 6.00955 17.4648 5.97115 17.5368C6.27835 17.8008 6.61915 17.9976 6.99835 18.1296C7.04155 18.0576 7.07995 17.9904 7.11835 17.9256C7.23355 17.9568 7.34635 17.988 7.47115 18.024C7.47115 18.1032 7.47115 18.18 7.47115 18.2592C7.86955 18.336 8.26075 18.336 8.65915 18.2568C8.65915 18.1728 8.65915 18.096 8.65915 18.0216C8.77915 17.988 8.89195 17.9592 9.00715 17.9256C9.04795 17.9928 9.08875 18.06 9.12715 18.1248C9.40555 18.0576 10.0344 17.6904 10.152 17.5272C10.116 17.4624 10.0776 17.3952 10.0464 17.3424C10.1352 17.2512 10.2192 17.1648 10.3056 17.076C10.3656 17.1096 10.4304 17.148 10.5024 17.1888C10.764 16.8792 10.9632 16.5408 11.0928 16.1592C11.0184 16.116 10.9536 16.0752 10.8888 16.0368C10.9224 15.9168 10.9536 15.804 10.9848 15.684C11.064 15.684 11.1432 15.684 11.22 15.684C11.2968 15.2856 11.2968 14.8944 11.22 14.496C11.136 14.4984 11.0592 14.4984 10.9824 14.4984ZM8.05915 16.4712C7.30075 16.4712 6.68875 15.8544 6.68875 15.0912C6.68875 14.3208 7.30075 13.7136 8.05915 13.7136C8.81515 13.7136 9.42955 14.3208 9.42955 15.0912C9.42955 15.8544 8.81275 16.4712 8.05915 16.4712Z" fill="currentColor"/>
<path d="M11.6351 9.3768L11.7455 9.144L11.6327 9.0672L11.4551 9.2736L11.6351 9.3768Z" fill="currentColor"/>
<path d="M12 9.20879C12.0216 9.20879 12.0432 9.19919 12.0552 9.17759C12.0744 9.14639 12.0672 9.10559 12.036 9.08639L11.604 8.80319C11.5728 8.78399 11.532 8.79119 11.5128 8.82239C11.4936 8.85359 11.5008 8.89439 11.532 8.91359L11.964 9.19679C11.9736 9.20399 11.988 9.20879 12 9.20879Z" fill="currentColor"/>
<path d="M14.7095 9.78241V7.18561H15.1223V6.68881H10.5551V6.45841H10.6991V6.11761C10.6991 6.02641 10.6247 5.95201 10.5335 5.95201H10.4471C10.3559 5.95201 10.2815 6.02641 10.2815 6.11761V6.45841H10.4351V6.68881H10.2431V7.18561H10.6367V11.4912L10.3295 11.3808L10.3559 9.57601C10.3559 9.57601 10.3151 9.57601 10.2479 9.57361V9.30721V8.28241V8.27521H10.2455C10.2431 8.10241 10.1399 7.95601 9.99349 7.88641V6.80161C9.99349 6.29281 9.75589 5.88721 9.38629 5.76001V6.19921C9.52309 6.31681 9.60709 6.53761 9.60709 6.79921V7.86961C9.42709 7.92241 9.29509 8.08081 9.29269 8.27761H9.29029V8.28481V9.30961V9.55201C8.85589 9.54241 8.39029 9.53281 8.11429 9.53281C6.44149 9.53281 2.83909 10.476 2.53909 10.584C2.23909 10.692 2.08789 10.884 2.08789 10.884L3.71989 10.6728L3.38389 14.0496L2.72149 14.0448L2.80789 14.4792H4.59829C4.91269 12.8616 6.33589 11.64 8.04469 11.64C9.98389 11.64 11.5583 13.212 11.5583 15.1536C11.5583 15.4128 11.5295 15.6672 11.4767 15.9096L11.6855 15.9528L15.3215 15.984V12.2976L11.9759 12.3192L11.9711 11.9664L10.8479 11.568V7.18561H13.1711V10.008C13.0991 10.0176 13.0391 10.0272 13.0199 10.0296C12.9215 10.0464 12.9071 10.1184 12.9215 10.1784C12.9359 10.2456 12.9695 10.2672 13.0367 10.2672C13.0535 10.2672 13.1039 10.2672 13.1711 10.2648V11.0712L11.7767 11.0784L11.7623 9.78961L11.8343 9.63841L11.2871 9.30001L11.0879 9.69601V11.4192L12.2375 11.808L12.2471 12.0648L15.3335 12.048C15.3335 12.048 15.3335 11.4432 15.3335 10.5984C15.3311 9.94801 15.0047 9.81121 14.7095 9.78241ZM12.9599 13.068H13.9127V13.2648H12.9599V13.068ZM12.9599 14.052H13.9127V14.2488H12.9599V14.052ZM12.9599 15.0384H13.9127V15.2352H12.9599V15.0384ZM13.9967 9.84721C13.9967 9.62881 13.9967 8.90881 13.9967 8.89921C13.9967 8.88961 13.9943 8.85361 13.9391 8.85361C13.8695 8.85361 13.8935 8.94721 13.8695 9.06241C13.8431 9.17761 13.7495 9.31201 13.7087 9.46801C13.6655 9.62161 13.7087 9.81601 13.7087 9.81601C13.7087 9.81601 13.7519 9.91201 13.6751 9.93121C13.6415 9.94081 13.5167 9.96001 13.3847 9.97681V7.18561H14.4983V9.77281C14.4887 9.77281 14.4791 9.77281 14.4695 9.77281C14.2871 9.77521 14.1359 9.80641 13.9967 9.84721Z" fill="currentColor"/>
<path d="M3.46572 10.908L2.57772 11.0448C2.16732 11.112 2.08332 11.256 2.17212 11.7072C2.22972 11.9976 2.71452 13.8744 2.71452 13.8744H3.16092L3.46572 10.908Z" fill="currentColor"/>
<path d="M4.51675 14.7216H2.82715V15.4872H4.51675V14.7216Z" fill="currentColor"/>
<path d="M0 14.4576L0.8496 14.9496H1.8456V13.572H0V14.4576Z" fill="currentColor"/>
<path d="M2.01123 14.9736L2.64243 15.3792L2.64723 14.6736L2.01123 13.8312V14.9736Z" fill="currentColor"/>
<path d="M17.9496 12.5904C18.6072 11.844 19.5696 11.3736 20.6424 11.3736C21.48 11.3736 22.2504 11.6616 22.86 12.144C22.6752 11.7912 21.984 10.9608 20.2368 10.9608C18.5784 10.9608 17.8176 11.9208 17.568 12.3264H17.3448C17.5416 11.9616 18.3288 10.7688 20.2368 10.7688C20.4648 10.7688 20.6736 10.7832 20.868 10.8072C19.6944 10.2336 17.5872 9.92884 17.2728 9.91924C16.9008 9.90724 16.8888 10.1592 16.8888 10.1592V12.3264H15.624V15.5136H17.1264C17.0952 15.3264 17.0808 15.1344 17.0808 14.9376C17.0808 14.0568 17.4216 13.212 17.9496 12.5904Z" fill="currentColor"/>
</g>
<defs>
<clipPath id="clip0_1431_3383">
<rect width="24" height="12.5568" fill="currentColor" transform="translate(0 5.76001)"/>
</clipPath>
</defs>
</svg>
