<svg width="24" height="24" viewBox="0 0 24 24" fill="currentColor" xmlns="http://www.w3.org/2000/svg">
<g clip-path="url(#clip0_1430_1688)">
<path d="M3.75357 8.04975C3.75357 7.99215 3.71757 7.88655 3.63357 7.82175C3.54957 7.75455 3.17517 7.59375 3.17517 7.59375L3.37677 8.05695C3.42477 8.05695 3.46317 8.08095 3.46317 8.13615C3.46317 8.17935 3.46317 9.48735 3.46077 10.025H3.75597C3.75837 9.47535 3.75357 8.10015 3.75357 8.04975Z" fill="currentColor"/>
<path d="M15.5089 13.054C15.2881 12.9796 15.0529 12.9292 14.8081 12.9292C13.5889 12.9292 12.5977 13.9204 12.5977 15.1468C12.5977 15.382 12.6433 15.6052 12.7105 15.8164C12.9961 16.714 13.8217 17.3716 14.8081 17.3716C16.0273 17.3716 17.0161 16.3756 17.0161 15.1468C17.0161 14.1676 16.3825 13.3492 15.5089 13.054ZM14.8081 16.1764C14.2441 16.1764 13.7857 15.718 13.7857 15.1492C13.7857 14.578 14.2441 14.1196 14.8081 14.1196C15.3721 14.1196 15.8305 14.578 15.8305 15.1492C15.8305 15.7156 15.3721 16.1764 14.8081 16.1764Z" fill="currentColor"/>
<path d="M14.7936 15.5785C14.5608 15.5785 14.3712 15.3865 14.3712 15.1537C14.3712 14.9185 14.5608 14.7241 14.7936 14.7241C15.0264 14.7241 15.216 14.9161 15.216 15.1537C15.2136 15.3865 15.024 15.5785 14.7936 15.5785Z" fill="currentColor"/>
<path d="M5.63764 13.054C5.41684 12.9796 5.18164 12.9292 4.93684 12.9292C3.71764 12.9292 2.72644 13.9204 2.72644 15.1468C2.72644 15.382 2.77204 15.6052 2.83924 15.8164C3.12484 16.714 3.95044 17.3716 4.93684 17.3716C6.15604 17.3716 7.14484 16.3756 7.14484 15.1468C7.14484 14.1676 6.51124 13.3492 5.63764 13.054ZM4.93444 16.1764C4.37044 16.1764 3.91204 15.718 3.91204 15.1492C3.91204 14.578 4.37044 14.1196 4.93444 14.1196C5.49844 14.1196 5.95684 14.578 5.95684 15.1492C5.95924 15.7156 5.49844 16.1764 4.93444 16.1764Z" fill="currentColor"/>
<path d="M4.91996 15.5785C4.68716 15.5785 4.49756 15.3865 4.49756 15.1537C4.49756 14.9185 4.68716 14.7241 4.91996 14.7241C5.15276 14.7241 5.34236 14.9161 5.34236 15.1537C5.34236 15.3865 5.15276 15.5785 4.91996 15.5785Z" fill="currentColor"/>
<path d="M24 14.7195L23.8656 14.6475L23.316 14.8731L19.0632 13.3203L19.0344 14.0331L19.9704 16.2987L20.8824 16.9635C21.132 17.1459 21.4752 17.1219 21.7008 16.9107L24 14.7195Z" fill="currentColor"/>
<path d="M18.4848 13.8866C18.4896 13.8794 18.492 13.8722 18.4944 13.8626L19.176 11.4818C19.1928 11.4266 19.1736 11.3642 19.128 11.3282L18.9936 11.2154C18.9288 11.1626 18.8352 11.1722 18.7824 11.237L18.732 11.3018L16.7088 11.0066L16.7232 10.9082L13.5936 10.4522L13.4208 10.361C13.392 10.2674 13.308 10.2002 13.2048 10.2002H12.4248C12.3 10.2002 12.1992 10.301 12.1992 10.4258V13.1762H10.9512V13.7522H10.0632V13.3706H6.74158C6.75838 13.3898 6.77278 13.4114 6.78718 13.433C7.20958 13.889 7.45918 14.4938 7.45918 15.1466C7.45918 15.4034 7.42078 15.6506 7.34878 15.8834H10.0632V15.2642H10.9512V15.5834H12.336C12.3072 15.4346 12.2904 15.293 12.2904 15.1514C12.2904 14.2706 12.7464 13.493 13.4304 13.0442V11.5058L15.0432 12.6458C15.2208 12.665 15.4008 12.7058 15.588 12.7706C16.3128 13.013 16.8672 13.565 17.1312 14.249L18.8856 16.5866L19.6824 17.117L18.4848 13.8866ZM18.9096 11.3906C18.9792 11.3906 19.0344 11.4458 19.0344 11.5154C19.0344 11.585 18.9792 11.6402 18.9096 11.6402C18.84 11.6402 18.7848 11.585 18.7848 11.5154C18.7848 11.4458 18.84 11.3906 18.9096 11.3906ZM14.8584 11.1218L16.656 11.3834L16.6704 11.285L18.5328 11.5562L17.6928 12.617L14.8584 11.1218Z" fill="currentColor"/>
<path d="M3.1344 13.3755H0V14.3043C0 14.4099 0.0504 14.5083 0.1344 14.5707L1.3776 15.5019C1.4616 15.5667 1.5648 15.6003 1.6728 15.6003H2.4576C2.4264 15.4443 2.4096 15.2955 2.4096 15.1491C2.4072 14.4579 2.6856 13.8315 3.1344 13.3755Z" fill="currentColor"/>
<path d="M5.71919 12.7491V10.4139L5.13119 10.2363H3.45839C3.41759 10.2363 3.37919 10.2411 3.34079 10.2483L0.926392 10.7187V13.0395H3.53759C3.93839 12.7707 4.41839 12.6123 4.93679 12.6123C5.19119 12.6123 5.44799 12.6579 5.71919 12.7491Z" fill="currentColor"/>
<path d="M5.10715 9.53539C5.10715 9.43219 5.02315 9.35059 4.92235 9.35059H4.38475C4.28155 9.35059 4.19995 9.43459 4.19995 9.53539V9.59779H4.48315V10.0226H4.82395V9.59779H5.10715V9.53539Z" fill="currentColor"/>
<path d="M11.6616 11.933L11.3736 10.3418L11.2272 10.265L10.6128 6.98421H10.7928V6.72021H6.07441V6.98421H6.37441L6.15121 10.3586H6.03601V12.1082L7.29121 12.7274V12.7802H7.43281H7.71601H11.0208L11.6736 12.2498V11.9306H11.6616V11.933ZM8.42881 10.1642C8.42401 10.145 8.42161 10.1258 8.41441 10.1066C8.33521 9.85221 8.16001 9.63141 8.11201 9.43941C8.06401 9.24981 8.10961 9.09621 7.98001 9.09621C7.87921 9.09621 7.87201 9.15382 7.87201 9.17061C7.87201 9.18021 7.87201 9.67461 7.87201 10.121L7.71361 10.109V6.98421H9.71041V7.21221C9.67681 7.21221 9.64321 7.21221 9.60961 7.22181C9.41761 7.27221 9.30241 7.46901 9.35281 7.66101L9.51361 8.27301C9.54241 8.38101 9.61681 8.46261 9.71041 8.50581V10.265L8.42881 10.1642ZM10.9512 10.1186L10.1736 9.70581V8.36661C10.2216 8.28501 10.2408 8.18661 10.2144 8.08821L10.1736 7.93701V6.98421H10.3656L10.9512 10.1186ZM6.39841 10.361L6.62161 6.98421H7.29361V10.3586H6.39841V10.361ZM7.71601 10.3946L9.71281 10.553V11.9306H7.71601V10.3946Z" fill="currentColor"/>
</g>
<defs>
<clipPath id="clip0_1430_1688">
<rect width="24" height="10.6512" fill="currentColor" transform="translate(0 6.72021)"/>
</clipPath>
</defs>
</svg>
