<svg width="24" height="24" viewBox="0 0 24 24" fill="currentColor" xmlns="http://www.w3.org/2000/svg">
<g clip-path="url(#clip0_1431_2915)">
<path d="M6.65281 17.124C6.50161 17.0736 6.34321 17.04 6.17761 17.04C5.34961 17.04 4.67761 17.712 4.67761 18.5448C4.67761 18.7032 4.70881 18.8544 4.75441 18.9984C4.94881 19.608 5.50801 20.0544 6.17761 20.0544C7.00561 20.0544 7.67761 19.3776 7.67761 18.5448C7.67521 17.88 7.24561 17.3232 6.65281 17.124ZM6.17521 19.2408C5.79121 19.2408 5.48161 18.9288 5.48161 18.5448C5.48161 18.1584 5.79361 17.8464 6.17521 17.8464C6.55921 17.8464 6.86881 18.1584 6.86881 18.5448C6.87121 18.9288 6.55921 19.2408 6.17521 19.2408Z" fill="currentColor"/>
<path d="M21.0912 17.124C20.94 17.0736 20.7816 17.04 20.616 17.04C19.788 17.04 19.116 17.712 19.116 18.5448C19.116 18.7032 19.1472 18.8544 19.1928 18.9984C19.3872 19.608 19.9464 20.0544 20.616 20.0544C21.444 20.0544 22.116 19.3776 22.116 18.5448C22.1136 17.88 21.684 17.3232 21.0912 17.124ZM20.6136 19.2408C20.2296 19.2408 19.92 18.9288 19.92 18.5448C19.92 18.1584 20.232 17.8464 20.6136 17.8464C20.9976 17.8464 21.3072 18.1584 21.3072 18.5448C21.3096 18.9288 20.9976 19.2408 20.6136 19.2408Z" fill="currentColor"/>
<path d="M15.2424 17.8955L17.6328 17.8955L17.6328 17.6075L15.2424 17.6075L15.2424 17.8955Z" fill="currentColor"/>
<path d="M15.2424 18.6084L17.6328 18.6084L17.6328 18.3204L15.2424 18.3204L15.2424 18.6084Z" fill="currentColor"/>
<path d="M8.21008 17.8955L11.0757 17.8955L11.0757 17.6075L8.21008 17.6075L8.21008 17.8955Z" fill="currentColor"/>
<path d="M8.21008 18.6084L11.0757 18.6084L11.0757 18.3204L8.21008 18.3204L8.21008 18.6084Z" fill="currentColor"/>
<path d="M18.9288 9.90488L15.9888 4.61288L16.1448 4.37048L16.0968 4.08008L15.24 4.09448L15.2016 4.97048L15.468 4.94408L16.6536 7.28888L15.1104 5.91368L15.048 5.98568L14.028 5.07608L14.7768 5.01848L14.8224 4.13048L10.5024 4.42088L10.3656 5.35688L13.8192 5.09288L14.9496 6.09608L14.9016 6.14888L17.0424 8.05448L18.1776 10.2937L18.9288 9.90488Z" fill="currentColor"/>
<path d="M3.00731 20.0312L4.32971 20.0312L4.32971 19.6688L3.00731 19.6688L3.00731 20.0312Z" fill="currentColor"/>
<path d="M17.7135 20.0312L19.0359 20.0312L19.0359 19.6688L17.7135 19.6688L17.7135 20.0312Z" fill="currentColor"/>
<path d="M22.5936 16.7109C22.5984 16.7157 22.6056 16.7205 22.6104 16.7229C22.6056 16.7181 22.5984 16.7157 22.5936 16.7109Z" fill="currentColor"/>
<path d="M22.416 16.5293C22.4256 16.5437 22.4376 16.5557 22.4472 16.5677C22.4376 16.5557 22.428 16.5437 22.416 16.5293Z" fill="currentColor"/>
<path d="M22.4615 16.584C22.4711 16.596 22.4831 16.608 22.4927 16.62C22.4831 16.608 22.4711 16.596 22.4615 16.584Z" fill="currentColor"/>
<path d="M23.5632 17.0397H22.2336C21.6744 17.0397 21.4872 16.7757 21.2496 16.4445L21.2184 16.4013C21.0888 16.2213 20.916 16.1349 20.7792 16.0917C20.712 16.0725 20.6424 16.0605 20.5776 16.0533C20.5584 16.0509 20.5464 16.0509 20.544 16.0509H18.6576V15.4029H18.42L19.0656 10.2285L18.0408 10.7517L17.52 15.1293V13.0797H17.112V16.1781H0V18.5637H0.4656V17.3037H3.3816V19.4901H3.9552V17.3037H4.9728C5.1552 17.1285 5.376 16.9893 5.6256 16.9053C5.676 16.8885 5.724 16.8741 5.7744 16.8621H5.8224C5.952 16.8285 6.0768 16.8117 6.2016 16.8117C6.66 16.8189 7.0752 17.0061 7.3824 17.3061H11.5248V18.6045H14.7168V17.3061H18.0888V19.4925H18.6624V18.6333H18.8448C18.8424 18.6045 18.84 18.5733 18.84 18.5445C18.84 17.7813 19.3272 17.1069 20.0496 16.8645C20.244 16.7973 20.4288 16.7661 20.6136 16.7661C21.5928 16.7661 22.3872 17.5653 22.3872 18.5445C22.3872 18.5661 22.3848 18.5877 22.3848 18.6093C22.536 18.6093 22.8336 18.6093 23.2512 18.6093C23.8752 18.6093 23.8752 18.3213 23.8752 18.1677C23.8752 18.0165 23.8752 17.2413 23.8752 17.2413L23.5632 17.0397Z" fill="currentColor"/>
<path d="M9.88321 4.50977L9.78001 5.20097L5.61841 5.53457L5.72161 4.82657L9.88321 4.50977Z" fill="currentColor"/>
<path d="M5.37358 8.83009L5.23438 8.48449C5.21278 8.43169 5.16238 8.39809 5.10718 8.39809H4.81678V5.48689L5.15998 5.47009L5.21758 5.03809L4.53118 5.06449L4.53358 5.30449H4.53118V8.39809H4.27918C4.22158 8.39809 4.17118 8.43169 4.15198 8.48449L4.01278 8.83009C4.00078 8.86369 4.00078 8.89969 4.01278 8.93329L4.15198 9.27889C4.17358 9.33169 4.22398 9.36529 4.27918 9.36529H4.34878C4.34878 9.44209 4.41118 9.50449 4.48798 9.50449H4.55758V9.55729C4.55758 9.61729 4.52878 9.67009 4.48318 9.69169C4.31518 9.77329 4.21198 9.93889 4.21198 10.1261C4.21198 10.3877 4.43278 10.6085 4.69438 10.6085C4.96078 10.6085 5.17678 10.3925 5.17678 10.1261C5.17678 10.0493 5.11438 9.98689 5.03758 9.98689C4.96078 9.98689 4.89838 10.0493 4.89838 10.1261C4.89838 10.2413 4.80478 10.3325 4.69198 10.3325C4.58158 10.3325 4.48558 10.2365 4.48558 10.1261C4.48558 10.0469 4.53118 9.97489 4.60318 9.93889C4.74238 9.87169 4.83118 9.72049 4.83118 9.55729V9.50449H4.90078C4.97758 9.50449 5.03998 9.44209 5.03998 9.36529H5.10958C5.16718 9.36529 5.21758 9.33169 5.23678 9.27889L5.37598 8.93329C5.38798 8.89969 5.38798 8.86369 5.37358 8.83009Z" fill="currentColor"/>
<path d="M23.4936 13.7902C23.4024 13.015 22.8792 11.5558 22.764 11.3974C22.6512 11.239 22.3776 11.0566 22.0344 11.0326C21.6936 11.011 19.6176 10.9414 19.6176 10.9414V15.5326H20.604C20.6568 15.5326 21.12 15.5446 21.4176 15.9478C21.4488 15.9862 21.48 16.027 21.5088 16.0702C21.5376 16.111 21.564 16.1494 21.5928 16.1854C21.5952 16.1878 21.5976 16.1902 21.5976 16.1926C21.6072 16.207 21.6192 16.219 21.6288 16.231C21.6336 16.2358 21.6384 16.2406 21.6408 16.2454C21.6504 16.2574 21.6624 16.2694 21.672 16.2814C21.6744 16.2838 21.6768 16.2862 21.6792 16.2886C21.6912 16.3006 21.7032 16.3126 21.7176 16.3246C21.72 16.327 21.72 16.327 21.7224 16.3294C21.7344 16.339 21.744 16.3486 21.756 16.3582C21.7632 16.363 21.768 16.3678 21.7752 16.3726C21.78 16.3774 21.7872 16.3822 21.792 16.3846C21.912 16.471 22.0632 16.519 22.2912 16.519H23.7096C23.8416 16.495 23.9928 16.423 23.9928 16.2046C23.9952 15.8182 24.0864 14.1094 23.4936 13.7902ZM22.1712 14.383C22.1712 14.383 21.2376 13.7902 21.0096 13.6774C20.7816 13.5646 20.6688 13.3126 20.5992 13.1302C20.5296 12.9478 20.5536 12.0814 20.5536 11.8318C20.5536 11.5822 20.712 11.5582 20.712 11.5582L22.4904 11.6254L22.56 11.8294C22.56 11.8294 23.0376 13.6294 23.0832 14.0398C23.0904 14.0974 23.0904 14.143 23.088 14.1838L23.0304 14.2222L22.6272 13.8862L22.4736 13.9894L22.6704 14.4022C22.4808 14.3974 22.1712 14.383 22.1712 14.383Z" fill="currentColor"/>
<path d="M22.7904 13.5498C22.7616 13.5066 22.7064 13.497 22.6632 13.5234L22.0728 13.9098C22.0296 13.9362 22.02 13.9938 22.0464 14.037C22.0632 14.0634 22.092 14.0778 22.1232 14.0778C22.14 14.0778 22.1568 14.073 22.1736 14.0634L22.764 13.677C22.8072 13.6482 22.8192 13.593 22.7904 13.5498Z" fill="currentColor"/>
</g>
<defs>
<clipPath id="clip0_1431_2915">
<rect width="24" height="15.9744" fill="currentColor" transform="translate(0 4.08008)"/>
</clipPath>
</defs>
</svg>
