<svg width="24" height="24" viewBox="0 0 24 24" fill="currentColor" xmlns="http://www.w3.org/2000/svg">
<g clip-path="url(#clip0_1422_1676)">
<path d="M2.80794 21.2664C3.56394 21.2664 4.17594 21.8784 4.17594 22.6344C4.17594 23.3904 3.56154 24 2.80794 24C2.05194 24 1.43994 23.388 1.43994 22.632C1.43994 21.876 2.05194 21.2664 2.80794 21.2664ZM2.24634 22.6176C2.24634 22.9344 2.50314 23.1936 2.82234 23.1936C3.14154 23.1936 3.39834 22.9368 3.39834 22.6176C3.39834 22.3008 3.14154 22.0416 2.82234 22.0416C2.50314 22.0416 2.24634 22.3008 2.24634 22.6176Z" fill="currentColor"/>
<path d="M9.96468 21.1177C10.7207 21.1177 11.3327 21.7297 11.3327 22.4857C11.3327 23.2417 10.7207 23.8537 9.96468 23.8537C9.20868 23.8537 8.59668 23.2417 8.59668 22.4857C8.59668 21.7297 9.21108 21.1177 9.96468 21.1177ZM9.40548 22.4689C9.40548 22.7857 9.66228 23.0449 9.98148 23.0449C10.2983 23.0449 10.5575 22.7881 10.5575 22.4689C10.5575 22.1521 10.3007 21.8929 9.98148 21.8929C9.66228 21.8929 9.40548 22.1521 9.40548 22.4689Z" fill="currentColor"/>
<path d="M5.12863 17.1192L4.23343 16.5648L9.85423 12.552L11.191 10.9776L10.963 10.4616L6.75343 7.0968L6.65263 6.0384L3.24943 3.24L2.45983 2.5416L2.19343 2.592L1.75903 0.9456C1.75903 0.9456 3.69103 0.1752 3.72703 0.1752C3.76543 0.1752 15.1366 0.2136 15.1366 0.2136L15.9958 0L18.163 3.7296L18.1654 4.5456L18.7438 4.5504V5.1336L17.9998 5.2944L15.6454 1.1808H10.3438L9.97903 2.0544L9.03343 2.256L8.86303 1.9224L4.74703 3.3L10.4302 8.1024L12.2206 8.7192L12.1702 12.072L7.64623 15.336L7.44463 16.344L6.07423 17.592L5.54383 17.328L6.25903 16.7232L5.98063 16.5792L5.12863 17.1192ZM8.11423 7.4736L7.92463 7.6008L11.1382 10.1856L11.2894 9.8712L8.11423 7.4736ZM4.16863 1.3992L4.25743 1.7016L5.65663 1.1808H4.64863L4.16863 1.3992ZM7.00543 1.1808L3.68143 2.4024L4.45903 3.012L8.73103 1.5888L8.52943 1.1808H7.00543Z" fill="currentColor"/>
<path d="M22.512 3.3023H22.3248V1.9007H22.512C22.5624 1.9007 22.6056 1.8599 22.6056 1.8095C22.6056 1.7591 22.5648 1.7159 22.512 1.7159H22.3248V0.976698C22.3248 0.926298 22.284 0.885498 22.2336 0.885498H19.3632C19.3128 0.885498 19.2696 0.926298 19.2696 0.976698V1.7183H19.0248C18.9744 1.7183 18.9312 1.7591 18.9312 1.8119C18.9312 1.8623 18.972 1.9031 19.0248 1.9031H19.2696V3.3047H19.0248C18.9744 3.3047 18.9312 3.3455 18.9312 3.3959C18.9312 3.4463 18.972 3.4871 19.0248 3.4871H19.2696V4.4063H19.0728V5.2511H22.3632V4.4063H22.3248V3.4871H22.512C22.5624 3.4871 22.6056 3.4463 22.6056 3.3959C22.6056 3.3455 22.5624 3.3023 22.512 3.3023ZM21.5472 1.0679H22.14V1.7159H21.5472V1.0679ZM21.5472 1.9007H22.14V3.3023H21.5472V1.9007ZM20.3184 1.0679H21.3624V1.7159H20.3184V1.0679ZM20.3184 1.9007H21.3624V3.3023H20.3184V1.9007ZM21.3624 3.4871V4.4063H20.3184V3.4871H21.3624ZM19.4544 1.0679H20.1336V1.7159H19.4544V1.0679ZM19.4544 1.9007H20.1336V3.3023H19.4544V1.9007ZM19.4544 3.4871H20.1336V4.4063H19.4544V3.4871ZM21.5472 4.4087V3.4895H22.14V4.4087H21.5472Z" fill="currentColor"/>
<path d="M8.57023 21.2329L4.06543 21.2449C4.44463 21.5881 4.68463 22.0825 4.68463 22.6321C4.68463 22.7521 4.67263 22.8697 4.65103 22.9849L8.15743 22.9753C8.11423 22.8193 8.09023 22.6537 8.09023 22.4833C8.08783 22.0033 8.27263 21.5641 8.57023 21.2329Z" fill="currentColor"/>
<path d="M8.35665 19.7063C8.26065 19.3679 7.89345 19.0895 7.35585 18.8183C6.69825 18.4847 3.55185 16.8047 3.55185 16.8047H1.53345L1.57665 20.7575H4.37265L8.09265 20.7551C8.09025 20.7479 8.25105 20.4287 8.28705 20.3471C8.33025 20.2463 8.43585 19.9847 8.35665 19.7063ZM4.05585 18.4535L2.80305 19.9391C2.79585 19.9487 2.78385 19.9535 2.77425 19.9535C2.76705 19.9535 2.75985 19.9511 2.75505 19.9487C2.73825 19.9391 2.73105 19.9175 2.73825 19.9007L3.17745 18.8591H2.77425C2.75985 18.8591 2.74785 18.8519 2.74065 18.8399C2.73345 18.8279 2.73345 18.8135 2.73825 18.8015L3.32385 17.6279C3.33105 17.6135 3.34305 17.6063 3.35985 17.6063H3.98625C4.00065 17.6063 4.01265 17.6135 4.01985 17.6255C4.02705 17.6375 4.02705 17.6543 4.01745 17.6663L3.55905 18.3887H4.02225C4.03665 18.3887 4.05105 18.3983 4.05825 18.4103C4.06785 18.4247 4.06545 18.4415 4.05585 18.4535Z" fill="currentColor"/>
</g>
<defs>
<clipPath id="clip0_1422_1676">
<rect width="21.1656" height="24" fill="currentColor" transform="translate(1.43994)"/>
</clipPath>
</defs>
</svg>
