<svg width="24" height="24" viewBox="0 0 24 24" fill="currentColor" xmlns="http://www.w3.org/2000/svg">
<g clip-path="url(#clip0_1430_2252)">
<path d="M19.2768 17.5822C19.2168 17.0254 18.7968 16.579 18.2544 16.4902C18.1872 16.4782 18.1224 16.4686 18.0504 16.4686L6.00959 16.1758C5.32559 16.1758 4.47839 16.7278 4.47839 17.7142C4.47839 18.7966 5.32559 19.2526 6.00959 19.2526L18.0528 18.9598C18.7344 18.9598 19.2912 18.4006 19.2912 17.7142C19.2912 17.6686 19.284 17.6254 19.2768 17.5822ZM6.00959 18.4246C5.61839 18.4246 5.30159 18.1054 5.30159 17.7118C5.30159 17.3206 5.61839 17.0014 6.00959 17.0014C6.40079 17.0014 6.71759 17.3206 6.71759 17.7118C6.71759 18.1054 6.39839 18.4246 6.00959 18.4246ZM18.0528 18.4246C17.664 18.4246 17.3472 18.1054 17.3472 17.7118C17.3472 17.3206 17.664 17.0014 18.0528 17.0014C18.444 17.0014 18.7608 17.3206 18.7608 17.7118C18.7608 18.1054 18.444 18.4246 18.0528 18.4246Z" fill="currentColor"/>
<path d="M22.1399 15.8951H13.7159V11.2871H19.4351C21.0743 11.2871 22.4279 12.5663 22.5191 14.2031L22.1399 15.8951Z" fill="currentColor"/>
<path d="M4.03918 15.8397H13.0344V12.3501L4.03918 12.7605V15.8397Z" fill="currentColor"/>
<path d="M10.5264 5.6182H0.875977V5.0014C0.875977 4.891 0.967176 4.7998 1.07758 4.7998H10.3248C10.4352 4.7998 10.5264 4.891 10.5264 5.0014V5.6182Z" fill="currentColor"/>
<path d="M10.2189 6.04404L9.95166 5.98535L9.14497 9.65853L9.41219 9.71721L10.2189 6.04404Z" fill="currentColor"/>
<path d="M3.26397 11.4192L2.29437 9.5568V6H1.80237V9.708H1.81917L3.04077 12.0504H3.04317H3.59517H3.80637V11.4192H3.26397Z" fill="currentColor"/>
<path d="M0.727173 16.7255H3.69357V15.4175H1.09677C0.892773 15.4175 0.727173 15.5831 0.727173 15.7871V16.7255Z" fill="currentColor"/>
<path d="M0.732 16.9556V18.1508H0V18.3716H0.732V18.9884H2.5536V16.9556H0.732Z" fill="currentColor"/>
<path d="M23.5152 17.5292C23.7829 17.5292 24 17.3121 24 17.0444C24 16.7766 23.7829 16.5596 23.5152 16.5596C23.2474 16.5596 23.0304 16.7766 23.0304 17.0444C23.0304 17.3121 23.2474 17.5292 23.5152 17.5292Z" fill="currentColor"/>
<path d="M22.9056 17.6399C22.7544 17.4863 22.6608 17.2751 22.6608 17.0447C22.6608 17.0183 22.6632 16.9943 22.6656 16.9703H22.116V16.2383H19.8816V17.9807H22.116V17.6399H22.9056Z" fill="currentColor"/>
<path d="M12.036 10.6964C12.036 9.63081 12.0336 6.16761 12.0336 6.12441C12.0336 6.05961 12.0768 6.03081 12.1344 6.03081L12.3672 5.49561C12.3672 5.49561 11.9352 5.68281 11.8368 5.75961C11.7384 5.83641 11.6976 5.95641 11.6976 6.02361C11.6976 6.07641 11.6952 9.34521 11.6928 10.5596L10.7136 10.1684L9.43202 9.97881L8.76482 9.98841V9.66441H8.76963V8.80761H8.76482V8.71641C8.76482 8.51241 8.59923 8.34921 8.39762 8.34921H8.09763C7.99922 8.34921 7.90802 8.39001 7.84322 8.45241L7.63922 8.34441L7.55042 8.46921L7.73762 8.64681C7.73283 8.67081 7.73042 8.69241 7.73042 8.71641V11.4236H4.03442V12.4604L13.0296 12.0524V11.0972L12.036 10.6964Z" fill="currentColor"/>
<path d="M7.31045 8.64428C7.32485 8.63948 7.33685 8.62988 7.34405 8.61788L7.68725 8.14268C7.71125 8.10908 7.70405 8.06108 7.67045 8.03708C7.63685 8.01308 7.58885 8.02028 7.56485 8.05388L7.22165 8.52908C7.19765 8.56268 7.20485 8.61068 7.23845 8.63468C7.26005 8.65148 7.28645 8.65388 7.31045 8.64428Z" fill="currentColor"/>
</g>
<defs>
<clipPath id="clip0_1430_2252">
<rect width="24" height="14.4528" fill="currentColor" transform="translate(0 4.7998)"/>
</clipPath>
</defs>
</svg>
