<svg width="25" height="24" viewBox="0 0 25 24" fill="currentColor" xmlns="http://www.w3.org/2000/svg">
<g clip-path="url(#clip0_1539_809)">
<path d="M5.0616 15.4896C5.0616 15.6456 4.9368 15.7704 4.7808 15.7704C4.6248 15.7704 4.5 15.6456 4.5 15.4896C4.5 15.3336 4.6248 15.2088 4.7808 15.2088C4.9344 15.2064 5.0616 15.3336 5.0616 15.4896Z" fill="currentColor"/>
<path d="M7.16616 16.0824C6.98376 16.0824 6.83496 15.9336 6.83496 15.7512V7.53115C6.83496 7.34875 6.98376 7.19995 7.16616 7.19995C7.34856 7.19995 7.49736 7.34875 7.49736 7.53115V15.4224" fill="currentColor"/>
<path d="M0 13.6607V13.9415H1.2648V12.8159H0.7032C0.276 12.8183 0 13.1471 0 13.6607Z" fill="currentColor"/>
<path d="M6.1752 13.8864L4.9128 10.9416C4.7448 10.4736 4.116 10.1448 3.6552 10.1448H2.1096C1.884 10.1352 1.6632 10.2192 1.5024 10.38C1.3416 10.5408 1.2552 10.7616 1.2672 10.9872V12.816H1.548V13.9416H3.0936V13.6608C3.0816 13.4328 2.8992 13.2504 2.6712 13.2384H2.2488C2.1768 13.2264 2.1192 13.1712 2.1072 13.0968V12.3936C2.0952 12.1656 1.9128 11.9832 1.6848 11.9712H1.5456V10.9872C1.5336 10.8336 1.5888 10.6848 1.6968 10.5768C1.8048 10.4688 1.956 10.4136 2.1072 10.4256H3.6528C4.0104 10.4256 4.5216 10.692 4.6488 11.0424L5.8296 13.8H5.6808C5.6808 13.8 4.4256 12.5496 4.4064 12.5424L4.596 12.3528C4.6512 12.2976 4.6512 12.2088 4.596 12.1536C4.5408 12.0984 4.452 12.0984 4.3968 12.1536L3.8352 12.7152C3.78 12.7704 3.78 12.8592 3.8352 12.9144C3.8904 12.9696 3.9792 12.9696 4.0344 12.9144L4.224 12.7248C4.2312 12.744 5.2824 13.8 5.2824 13.8H4.4976C4.4592 13.8 4.4256 13.8144 4.3968 13.8408L3.5952 14.6424H3.0912V14.22H0V15.3456C0.0048 15.6552 0.2544 15.9048 0.5616 15.9072H0.8544C0.9216 16.3128 1.2744 16.6104 1.6848 16.6104C2.0952 16.6104 2.448 16.3128 2.5152 15.9072H3.7344C3.9048 16.332 4.3176 16.6104 4.776 16.6104C5.2344 16.6104 5.6472 16.332 5.8176 15.9072H6.0408C6.1176 15.9072 6.1824 15.8448 6.1824 15.7656V13.9368C6.1848 13.9224 6.1824 13.9056 6.1752 13.8864ZM1.6872 16.0512C1.5312 16.0512 1.4064 15.9264 1.4064 15.7704C1.4064 15.6144 1.5312 15.4896 1.6872 15.4896C1.8432 15.4896 1.968 15.6144 1.968 15.7704C1.968 15.924 1.8432 16.0512 1.6872 16.0512ZM4.7808 16.0512C4.4712 16.0512 4.2192 15.7992 4.2192 15.4896C4.2192 15.18 4.4712 14.928 4.7808 14.928C5.0904 14.928 5.3424 15.18 5.3424 15.4896C5.3424 15.7992 5.0904 16.0512 4.7808 16.0512Z" fill="currentColor"/>
<path d="M6.83496 15.9288H7.35576V13.884L8.56056 12.0696V8.70475L22.3366 8.22235C22.3318 8.19595 22.3294 8.16955 22.3294 8.14075C22.3294 7.83355 22.579 7.58635 22.8838 7.58635C23.191 7.58635 23.4382 7.83595 23.4382 8.14075C23.4382 8.15515 23.4358 8.16955 23.4358 8.18395L23.9998 8.16235V7.19995H7.31496V10.0464H6.84216" fill="currentColor"/>
<path d="M7.93397 11.5008C7.80437 11.5008 7.70117 11.3976 7.70117 11.268C7.70117 11.1384 7.80437 11.0352 7.93397 11.0352C8.06357 11.0352 8.16677 11.1384 8.16677 11.268C8.16677 11.3952 8.06357 11.5008 7.93397 11.5008Z" fill="currentColor"/>
<path d="M7.93397 10.3535C7.80437 10.3535 7.70117 10.2503 7.70117 10.1207C7.70117 9.99354 7.80437 9.88794 7.93397 9.88794C8.06357 9.88794 8.16677 9.99114 8.16677 10.1207C8.16677 10.2503 8.06357 10.3535 7.93397 10.3535Z" fill="currentColor"/>
<path d="M7.93397 9.20876C7.80437 9.20876 7.70117 9.10556 7.70117 8.97596C7.70117 8.84876 7.80437 8.74316 7.93397 8.74316C8.06357 8.74316 8.16677 8.84636 8.16677 8.97596C8.16677 9.10556 8.06357 9.20876 7.93397 9.20876Z" fill="currentColor"/>
<path d="M22.7325 8.66865L22.7037 8.55345C22.5453 8.48385 22.4325 8.32545 22.4325 8.14065C22.4325 7.89105 22.6341 7.68945 22.8837 7.68945C23.1333 7.68945 23.3349 7.89105 23.3349 8.14065C23.3349 8.31105 23.2389 8.45985 23.0997 8.53665L23.0661 8.66865C23.0853 9.20385 22.5741 9.38145 22.5741 9.69585C22.5741 9.69585 22.5501 9.98625 22.9005 9.98625C23.2029 9.98625 23.3301 9.31905 23.5941 9.29505C23.5941 9.29505 23.6637 9.29025 23.6541 9.35025C23.6469 9.43665 23.5341 9.48945 23.5365 9.54945C23.5485 10.1111 23.3565 10.4231 22.8429 10.4231C22.4709 10.4231 22.1133 10.1759 22.1133 9.72945C22.1133 9.12465 22.7229 8.99745 22.7325 8.66865Z" fill="currentColor"/>
</g>
<defs>
<clipPath id="clip0_1539_809">
<rect width="24" height="9.4128" fill="currentColor" transform="translate(0 7.19995)"/>
</clipPath>
</defs>
</svg>
