<svg width="24" height="24" viewBox="0 0 24 24" fill="currentColor" xmlns="http://www.w3.org/2000/svg">
<g clip-path="url(#clip0_1415_759)">
<path d="M11.0304 20.3928H9.80396V15.8472H10.0392L11.0304 19.0032V20.3928Z" fill="currentColor"/>
<path d="M21.5832 20.3928H20.1408H10.8864V19.7976H22.7928L21.5832 20.3928Z" fill="currentColor"/>
<path d="M16.4736 22.8624C16.3536 22.6824 16.1496 22.5648 15.9168 22.5648C15.684 22.5648 15.48 22.6824 15.36 22.8624H9.49675V10.0752H5.91835C5.79115 10.0752 5.66635 10.0968 5.54635 10.1328V0.2424C5.54635 0.108 5.43835 0 5.30395 0H4.59835C4.46395 0 4.35595 0.108 4.35595 0.2424V2.3712H3.57115V3.3456H4.35595V10.8072L3.36235 11.4096C3.24235 11.4816 3.13675 11.5704 3.04315 11.676L1.59595 13.3056C1.34155 13.5936 1.19995 13.968 1.19995 14.3544L1.84555 22.872L2.28955 22.8864C2.57275 22.896 2.80315 23.112 2.83435 23.3928L2.87755 23.7984H7.40875V24H9.49915V23.5944H15.3552C15.4752 23.7792 15.6816 23.904 15.9192 23.904C16.1568 23.904 16.3632 23.7792 16.4832 23.5944H16.9152V22.8648H16.4736V22.8624ZM16.1904 23.2272C16.1904 23.3832 16.0656 23.508 15.9096 23.508C15.7536 23.508 15.6288 23.3832 15.6288 23.2272C15.6288 23.0712 15.7536 22.9464 15.9096 22.9464C16.0632 22.9464 16.1904 23.0712 16.1904 23.2272Z" fill="currentColor"/>
</g>
<defs>
<clipPath id="clip0_1415_759">
<rect width="21.5928" height="24" fill="currentColor" transform="translate(1.19995)"/>
</clipPath>
</defs>
</svg>
