<svg width="25" height="24" viewBox="0 0 25 24" fill="currentColor" xmlns="http://www.w3.org/2000/svg">
<g clip-path="url(#clip0_1417_1196)">
<path d="M12.1104 12.1296V12.5952H15.6144L15.6024 10.8432L14.3736 9.17998C14.3376 9.14638 14.316 9.09598 14.316 9.04558C14.3112 9.00478 14.3304 8.95198 14.3712 8.91118L14.7144 8.75758C14.8704 8.74078 15.156 8.72398 15.4416 8.77198C15.5232 8.78638 15.6024 8.83198 15.6792 8.88238C18.2184 9.05038 19.8312 12.0888 20.1168 12.9696C20.1744 13.1472 20.22 13.3752 20.256 13.6248H1.88397C1.89597 12.3696 1.93197 10.9464 2.02797 10.2984C2.21997 9.01198 5.78637 8.26558 7.45437 8.11198C8.26077 8.03758 8.77917 7.99918 9.11517 7.98718L12.1104 12.1296Z" fill="currentColor"/>
<path d="M0 17.8056V18.7896H3.3264C3.132 18.504 3.012 18.1656 2.9688 17.8056H0Z" fill="currentColor"/>
<path d="M7.42797 17.8056C7.38477 18.1656 7.26477 18.5016 7.07037 18.7896H7.16637H16.0176V17.8056H7.42797Z" fill="currentColor"/>
<path d="M5.19839 15.9072C4.31279 15.9072 3.59039 16.6296 3.59039 17.5224C3.59039 18.4152 4.31279 19.1376 5.19839 19.1376C6.08879 19.1376 6.80639 18.4152 6.80639 17.5224C6.80639 16.6296 6.08879 15.9072 5.19839 15.9072ZM5.19839 18.2688C4.78799 18.2688 4.45439 17.9352 4.45439 17.52C4.45439 17.1072 4.78799 16.7688 5.19839 16.7688C5.61119 16.7688 5.94239 17.1072 5.94239 17.52C5.94239 17.9352 5.61119 18.2688 5.19839 18.2688Z" fill="currentColor"/>
<path d="M21.7896 16.44C21.7896 15.7512 21.4656 15.1968 21.0552 15.1416V14.328H0.868774V16.9608H3.02158C3.27118 15.9792 4.14958 15.252 5.20078 15.252C6.25438 15.252 7.13038 15.9792 7.37998 16.9608H19.5504L17.9736 18.2448C17.9736 18.2928 17.988 18.3384 18.0144 18.3816C18.0408 18.5376 18.1344 18.72 18.4056 18.8616L18.4992 18.6768C18.66 18.7248 18.8472 18.7608 19.0464 18.7824L18.9984 19.0464C19.1784 19.08 19.3704 19.1016 19.5672 19.116L19.5864 18.828C19.776 18.8352 19.9608 18.84 20.1336 18.8424V19.1376L20.316 19.1424C20.4528 19.1424 20.5752 19.1376 20.6832 19.1352L20.6784 18.8376C20.8128 18.8376 20.9208 18.8328 20.9856 18.8328C21.0384 18.8328 21.1224 18.8376 21.2256 18.8376L21.2208 19.1352C21.3432 19.1352 21.4992 19.1376 21.672 19.1376H21.6768H21.7728V18.8424C21.9456 18.84 22.1304 18.8352 22.3176 18.828L22.3344 19.1184C22.5312 19.1088 22.7232 19.0896 22.9032 19.0608L22.86 18.7896C23.0568 18.7704 23.2416 18.7392 23.4048 18.6984L23.4912 18.9048C23.9016 18.7344 23.988 18.4752 23.9928 18.2856C23.9928 18.2712 24 18.2592 24 18.2448L21.7896 16.44Z" fill="currentColor"/>
<path d="M3.59037 10.3992C3.59037 10.3992 3.43677 7.18561 1.88397 6.22321" stroke="currentColor" stroke-width="0.25" stroke-miterlimit="10"/>
<path d="M1.72563 6.38162C1.87276 6.38162 1.99203 6.26234 1.99203 6.11522C1.99203 5.96809 1.87276 5.84882 1.72563 5.84882C1.5785 5.84882 1.45923 5.96809 1.45923 6.11522C1.45923 6.26234 1.5785 6.38162 1.72563 6.38162Z" fill="currentColor"/>
<path d="M1.31761 5.88241C1.26241 5.72641 1.34401 5.55601 1.50001 5.50081C1.65601 5.44561 1.82641 5.52961 1.88161 5.68561" stroke="currentColor" stroke-width="0.25" stroke-miterlimit="10"/>
<path d="M1.12559 5.688C1.05359 5.4792 1.16399 5.2488 1.37279 5.1768C1.58159 5.1048 1.81199 5.2152 1.88399 5.424" stroke="currentColor" stroke-width="0.25" stroke-miterlimit="10"/>
<path d="M0.935996 5.52001C0.842396 5.24881 0.983996 4.95361 1.2552 4.86001C1.5264 4.76641 1.8216 4.90801 1.9152 5.17921" stroke="currentColor" stroke-width="0.25" stroke-miterlimit="10"/>
</g>
<defs>
<clipPath id="clip0_1417_1196">
<rect width="24" height="14.34" fill="currentColor" transform="translate(0 4.79999)"/>
</clipPath>
</defs>
</svg>
