<svg width="24" height="24" viewBox="0 0 24 24" fill="currentColor" xmlns="http://www.w3.org/2000/svg">
<g clip-path="url(#clip0_1539_737)">
<path d="M22.721 0H19.2914C19.0706 0 18.8906 0.18 18.8906 0.4008V3.4296H15.1778V1.8288C15.1778 1.608 14.9978 1.428 14.777 1.428H9.06261C8.84181 1.428 8.66181 1.608 8.66181 1.8288V3.4296H4.94901V0.4008C4.94901 0.18 4.76901 0 4.54821 0H1.12101C0.900215 0 0.720215 0.18 0.720215 0.4008V7.2576C0.720215 7.4784 0.900215 7.6584 1.12101 7.6584H4.55061C4.77141 7.6584 4.95141 7.4784 4.95141 7.2576V4.2288H8.66421V5.8296C8.66421 6.0504 8.84421 6.2304 9.06501 6.2304H10.3802V7.488C10.3802 7.7088 10.5602 7.8888 10.781 7.8888H11.5202V16.944C10.0394 17.1288 8.87301 18.2952 8.68821 19.776H4.94901V16.7424C4.94901 16.5216 4.76901 16.3416 4.54821 16.3416H1.12101C0.900215 16.344 0.720215 16.5216 0.720215 16.7424V23.5992C0.720215 23.82 0.900215 24 1.12101 24H4.55061C4.77141 24 4.95141 23.82 4.95141 23.5992V20.5704H8.68821C8.90901 22.356 10.5338 23.6232 12.3194 23.4024C13.8002 23.22 14.969 22.0512 15.1514 20.5704H18.8906V23.5992C18.8906 23.82 19.0706 24 19.2914 24H22.721C22.9418 24 23.1218 23.82 23.1218 23.5992V16.7424C23.1218 16.5216 22.9418 16.3416 22.721 16.3416H19.2914C19.0706 16.3416 18.8906 16.5216 18.8906 16.7424V19.7712H15.1514C14.9666 18.2904 13.8002 17.124 12.3194 16.9392V7.8864H13.0634C13.2842 7.8864 13.4642 7.7064 13.4642 7.4856V6.228H14.7794C15.0002 6.228 15.1802 6.048 15.1802 5.8272V4.2264H18.8954V7.2552C18.8954 7.476 19.0754 7.656 19.2962 7.656H22.7258C22.9466 7.656 23.1266 7.476 23.1266 7.2552V0.4008C23.1194 0.18 22.9418 0 22.721 0Z" fill="currentColor"/>
</g>
<defs>
<clipPath id="clip0_1539_737">
<rect width="22.3992" height="24" fill="currentColor" transform="translate(0.720215)"/>
</clipPath>
</defs>
</svg>
