<svg width="24" height="24" viewBox="0 0 24 24" fill="currentColor" xmlns="http://www.w3.org/2000/svg">
<g clip-path="url(#clip0_1422_1063)">
<path d="M0.1824 13.5263C0.1056 12.9599 0.0336 12.4583 0 12.2351L0.0768 12.2519C0.0984 12.2567 0.1224 12.2615 0.1512 12.2615C0.1944 12.2639 0.2376 12.2543 0.276 12.2303C0.312 12.2087 0.3384 12.1751 0.3552 12.1367L0.3984 12.0383L2.76 12.9767L0.8712 14.0999C0.864 14.1047 0.8568 14.1071 0.8496 14.1071C0.3072 14.1431 0.2016 13.6703 0.1824 13.5263Z" fill="currentColor"/>
<path d="M2.25363 7.05359L2.68803 8.12159L0.708027 11.9568L0.228027 11.748L2.25363 7.05359Z" fill="currentColor"/>
<path d="M4.08001 6.47998C4.09201 6.47998 4.11601 6.47998 4.13521 6.48718C4.14721 6.49198 4.15441 6.49678 4.16161 6.50398C4.18321 6.52798 4.18561 6.58558 4.16641 6.66238C4.15441 6.71038 4.12801 6.77758 4.08721 6.86638L4.06801 6.90958L3.99601 7.05358L3.97921 7.08238C3.83761 7.34638 3.65761 7.63438 3.56401 7.78558C3.49201 7.90078 3.49921 8.05198 3.58561 8.15998L6.22321 11.4312C6.24961 11.4648 6.25681 11.5056 6.24241 11.5464L5.71201 13.116C5.69521 13.164 5.65681 13.1952 5.60641 13.2C5.58961 13.2024 5.57281 13.2 5.55841 13.1952C5.52961 13.1856 5.50561 13.164 5.49121 13.1352C5.49121 13.1352 2.99761 8.04718 2.97361 8.02558L2.47681 6.93118L4.08001 6.47998Z" fill="currentColor"/>
<path d="M8.9136 13.1088C10.0656 13.1088 10.9992 14.0424 10.9992 15.1944C10.9992 16.3464 10.0656 17.28 8.9136 17.28C7.7616 17.28 6.828 16.3464 6.828 15.1944C6.828 14.0424 7.7616 13.1088 8.9136 13.1088ZM8.0592 15.1728C8.0592 15.6576 8.4528 16.0512 8.9376 16.0512C9.4224 16.0512 9.816 15.6576 9.816 15.1728C9.816 14.688 9.4224 14.2944 8.9376 14.2944C8.4528 14.2944 8.0592 14.688 8.0592 15.1728Z" fill="currentColor"/>
<path d="M16.3464 13.7855C17.3112 13.7855 18.0936 14.5679 18.0936 15.5327C18.0936 16.4975 17.3112 17.2799 16.3464 17.2799C15.3816 17.2799 14.5992 16.4975 14.5992 15.5327C14.5992 14.5679 15.3816 13.7855 16.3464 13.7855ZM15.6288 15.5135C15.6288 15.9191 15.9576 16.2479 16.3632 16.2479C16.7688 16.2479 17.0976 15.9191 17.0976 15.5135C17.0976 15.1079 16.7688 14.7791 16.3632 14.7791C15.96 14.7791 15.6288 15.1079 15.6288 15.5135Z" fill="currentColor"/>
<path d="M23.9688 15.5063C23.928 15.4511 23.796 15.4583 23.6424 15.4367C23.4744 15.4127 23.3736 15.4175 23.2272 15.3983C23.0808 15.3791 22.8816 15.2303 22.8816 15.2303L21.8376 13.7207L22.02 13.2695C22.02 13.2695 21.9648 13.2311 21.8616 13.1999C21.6624 13.1399 21.396 13.5359 21.396 13.5359L20.7528 14.6471L18.444 12.5735L18.3408 12.6455L18.012 12.4295L17.5296 12.1415C17.5296 12.1415 17.508 11.9879 17.4792 11.9663C17.448 11.9447 16.9752 11.6591 16.368 11.4527C15.7608 11.2463 14.9184 11.0423 14.5992 10.9703C14.5032 10.9487 14.304 10.9175 14.0688 10.8863C14.0688 10.5671 14.0688 8.55352 14.0688 8.39512C14.0688 8.22472 14.1672 8.13352 14.1672 8.13352L13.872 7.92712C13.872 7.92712 13.6752 8.03752 13.6752 8.40472C13.6752 8.51992 13.6752 10.4375 13.6752 10.8359C13.2264 10.7807 12.78 10.7375 12.7248 10.7543L13.104 13.7303H10.98C11.2752 14.1455 11.4504 14.6495 11.4504 15.1967C11.4504 15.3311 11.436 15.4607 11.4168 15.5879H11.7816H11.8128H13.092L13.128 15.7631L14.1624 15.7847C14.1528 15.7031 14.148 15.6215 14.148 15.5375C14.148 14.3255 15.1344 13.3391 16.3464 13.3391C17.2344 13.3391 17.9976 13.8695 18.3456 14.6279L20.016 15.7799V15.7775L20.0184 15.7847C20.1432 15.8591 20.2584 15.9239 20.3184 15.9575C20.4936 16.0559 20.796 16.1903 20.9424 16.2047C21.0888 16.2215 21.732 16.1783 21.732 16.1783L21.7992 16.3127L22.9368 15.8807L22.992 15.9743L24.0048 15.5927C24 15.5927 24.0096 15.5591 23.9688 15.5063ZM18.624 13.8479L17.868 13.2311V12.6647L18.1704 12.7703L18.2496 12.7967L18.2184 12.9623L18.5856 13.3247C18.6864 13.4255 18.7992 13.5383 18.9048 13.6463C19.0824 13.8263 19.2456 13.9943 19.3224 14.0807C19.3368 14.0975 19.3488 14.1119 19.3584 14.1239C19.3656 14.1335 19.3704 14.1407 19.3704 14.1431C19.368 14.1479 19.368 14.1575 19.368 14.1695C19.368 14.1935 19.368 14.2271 19.3704 14.2631C19.3728 14.3543 19.3824 14.4623 19.3824 14.4623L18.624 13.8479ZM20.5704 15.3239L20.0136 15.1391L19.7472 14.9015C19.7472 14.9015 19.7496 14.4359 19.7496 14.1527L20.604 14.9039L20.5176 15.0551L20.5704 15.3239Z" fill="currentColor"/>
<path d="M19.3656 14.1719C19.3656 14.1599 19.368 14.1527 19.368 14.1455C19.368 14.1431 19.3656 14.1359 19.356 14.1263C19.3632 14.1359 19.368 14.1431 19.368 14.1455C19.368 14.1503 19.3656 14.1599 19.3656 14.1719Z" fill="currentColor"/>
<path d="M19.3776 14.4648L18.624 13.848L19.3776 14.4648Z" fill="currentColor"/>
<path d="M17.868 12.6648L18.1704 12.7728L17.868 12.6648Z" fill="currentColor"/>
<path d="M6.37681 15.1943C6.37681 14.4887 6.66721 13.8503 7.13521 13.3895H6.27361H5.07601L4.95841 13.9583L6.12961 13.9511L6.01921 14.6447L4.73521 16.1087L4.72561 16.6199L4.38721 16.6175V16.8959L4.78801 16.8911L5.11201 16.6199H5.54401L5.68321 16.7591V16.9295L6.09841 16.9439L6.25201 16.4975L6.03601 16.4207L6.48241 15.8975C6.41281 15.6719 6.37681 15.4367 6.37681 15.1943Z" fill="currentColor"/>
<path d="M11.9952 7.98243H12.24V7.60803H6.83763V7.98243H7.14723L6.37683 13.14H7.43523C7.85283 12.8376 8.36403 12.6576 8.91603 12.6576C9.67203 12.6576 10.3488 12.9912 10.8144 13.5168H12.7728L11.9952 7.98243ZM9.12963 11.8128L6.73683 12.7584L7.46163 7.98243H9.17043V8.09283L9.12963 11.8128ZM9.60243 8.25603H11.7528L12.2304 11.6472H9.60243V8.25603ZM9.86883 12.12H12.276L12.456 13.272L11.352 13.2936C11.3496 13.2936 10.7256 12.3336 9.86883 12.12Z" fill="currentColor"/>
</g>
<defs>
<clipPath id="clip0_1422_1063">
<rect width="24" height="10.8024" fill="currentColor" transform="translate(0 6.47998)"/>
</clipPath>
</defs>
</svg>
