<svg width="24" height="24" viewBox="0 0 24 24" fill="currentColor" xmlns="http://www.w3.org/2000/svg">
<g clip-path="url(#clip0_1421_1676)">
<path d="M1.1736 13.7592C1.1736 14.9808 2.0928 15.9744 3.228 15.9744C4.1448 15.9744 4.9128 15.3216 5.1792 14.424C5.2416 14.2128 5.2848 13.992 5.2848 13.7568C5.2848 12.5328 4.3632 11.5464 3.228 11.5464C3 11.5464 2.7816 11.5944 2.5752 11.6712C1.7616 11.964 1.1736 12.7824 1.1736 13.7592ZM2.2752 13.7592C2.2752 13.1904 2.7024 12.732 3.228 12.732C3.7536 12.732 4.1808 13.1904 4.1808 13.7592C4.1808 14.3256 3.7536 14.7816 3.228 14.7816C2.7024 14.7816 2.2752 14.3232 2.2752 13.7592Z" fill="currentColor"/>
<path d="M13.8816 14.2173C13.8816 15.1869 14.6112 15.9741 15.5112 15.9741C16.2384 15.9741 16.848 15.4557 17.0592 14.7453C17.1096 14.5773 17.1432 14.4021 17.1432 14.2173C17.1432 13.2477 16.4112 12.4629 15.5112 12.4629C15.3288 12.4629 15.156 12.5013 14.9928 12.5613C14.3496 12.7941 13.8816 13.4421 13.8816 14.2173ZM14.7576 14.2173C14.7576 13.7661 15.096 13.4037 15.5136 13.4037C15.9288 13.4037 16.2696 13.7661 16.2696 14.2173C16.2696 14.6661 15.9312 15.0285 15.5136 15.0285C15.096 15.0285 14.7576 14.6661 14.7576 14.2173Z" fill="currentColor"/>
<path d="M23.9328 11.7503L22.4352 8.73592C22.4016 8.66872 22.3368 8.62792 22.2672 8.62792H19.5576H19.128H19.056C18.9864 8.62792 18.9216 8.66872 18.888 8.73592L18.7824 8.94712H18.4992V8.57032H18.672V8.17432C18.672 8.03512 18.5664 7.91992 18.4344 7.91992H18.4056C18.276 7.91992 18.168 8.03272 18.168 8.17432V8.57032H18.3528V8.94712V9.10072H18.4968H18.7032L17.8128 10.8935H0V15.4223H1.3608C1.0128 14.9711 0.804 14.3903 0.804 13.7591C0.804 12.6431 1.4688 11.6519 2.4552 11.2967C2.724 11.1983 2.976 11.1503 3.228 11.1503C4.5648 11.1503 5.6544 12.3191 5.6544 13.7567C5.6544 14.0063 5.6136 14.2655 5.532 14.5439C5.4336 14.8727 5.2824 15.1679 5.088 15.4199H13.8552C13.6392 15.0767 13.512 14.6615 13.512 14.2151C13.512 13.2935 14.0592 12.4775 14.8752 12.1847C15.096 12.1031 15.3048 12.0647 15.5112 12.0647C16.6152 12.0647 17.5128 13.0295 17.5128 14.2151C17.5128 14.4215 17.4792 14.6351 17.412 14.8631C17.352 15.0647 17.2656 15.2519 17.16 15.4199H18.8184V10.8935H18.1704L19.1256 8.89672V9.17992V15.4223H23.8296C23.9232 15.4223 23.9976 15.3407 23.9976 15.2423V12.0407C24 11.9399 23.976 11.8415 23.9328 11.7503ZM8.4768 12.8831C8.4768 12.9263 8.448 12.9623 8.4144 12.9623H8.208V13.2263C8.208 13.2695 8.1792 13.3055 8.1456 13.3055H7.9824C7.9488 13.3055 7.92 13.2695 7.92 13.2263V12.9623H7.7112C7.6776 12.9623 7.6488 12.9263 7.6488 12.8831V12.6767C7.6488 12.6335 7.6776 12.5975 7.7112 12.5975H7.92V12.3311C7.92 12.2879 7.9488 12.2519 7.9824 12.2519H8.1456C8.1792 12.2519 8.208 12.2879 8.208 12.3311V12.5975H8.4168C8.4504 12.5975 8.4792 12.6335 8.4792 12.6767V12.8831H8.4768ZM10.0344 12.9983L8.8944 14.4503C8.8872 14.4599 8.8776 14.4647 8.868 14.4647C8.8608 14.4647 8.856 14.4623 8.8488 14.4599C8.8344 14.4503 8.8272 14.4287 8.8344 14.4119L9.2328 13.3943H8.8656C8.8536 13.3943 8.8416 13.3871 8.8344 13.3751C8.8272 13.3631 8.8272 13.3487 8.832 13.3391L9.3672 12.1919C9.3744 12.1799 9.3864 12.1703 9.3984 12.1703H9.9696C9.9816 12.1703 9.9936 12.1775 10.0008 12.1895C10.008 12.2015 10.0056 12.2159 10.0008 12.2279L9.5832 12.9335H10.0056C10.02 12.9335 10.032 12.9431 10.0368 12.9551C10.0464 12.9695 10.044 12.9863 10.0344 12.9983ZM11.2224 12.8807C11.2224 12.9263 11.1936 12.9647 11.1576 12.9647H10.524C10.488 12.9647 10.4592 12.9263 10.4592 12.8807V12.6815C10.4592 12.6359 10.488 12.5975 10.524 12.5975H11.1576C11.1936 12.5975 11.2224 12.6359 11.2224 12.6815V12.8807ZM21.924 10.7831H20.2056C20.2008 10.7495 20.1936 10.7159 20.184 10.6823C20.1168 10.4519 19.968 10.2503 19.9296 10.0775C19.8888 9.90472 19.9272 9.76552 19.8192 9.76552C19.7328 9.76552 19.728 9.81832 19.728 9.83272C19.728 9.84232 19.728 10.3559 19.728 10.7831H19.4112V8.89432H19.5576H21.924V10.7831ZM22.1952 10.7831V8.89672L23.2464 11.0903L22.1952 10.7831Z" fill="currentColor"/>
</g>
<defs>
<clipPath id="clip0_1421_1676">
<rect width="24" height="8.0544" fill="currentColor" transform="translate(0 7.91992)"/>
</clipPath>
</defs>
</svg>
