<svg width="24" height="24" viewBox="0 0 24 24" fill="currentColor" xmlns="http://www.w3.org/2000/svg">
<g clip-path="url(#clip0_1437_1517)">
<path d="M11.748 15.0313C11.424 14.4505 10.8048 14.0593 10.0968 14.0593C9.17277 14.0593 8.40237 14.7289 8.23917 15.6097C8.21757 15.7225 8.20557 15.8377 8.20557 15.9577C8.20557 17.0065 9.05517 17.8609 10.0968 17.8609C11.1408 17.8609 11.988 17.0065 11.988 15.9577C11.988 15.6193 11.8992 15.3049 11.748 15.0313ZM10.0968 16.7881C9.64077 16.7881 9.26877 16.4161 9.26877 15.9553C9.26877 15.8305 9.29757 15.7153 9.34557 15.6073C9.47757 15.3217 9.76317 15.1225 10.0944 15.1225C10.1976 15.1225 10.2984 15.1441 10.3896 15.1777C10.6992 15.2977 10.9224 15.5953 10.9224 15.9529C10.9248 16.4161 10.5528 16.7881 10.0968 16.7881Z" fill="currentColor"/>
<path d="M17.4288 15.2592L17.3976 13.9968L17.0328 14.028L16.6536 14.2416H11.304C11.4984 14.3784 11.6688 14.5512 11.8104 14.7504L16.1976 14.7744L17.4288 15.2592Z" fill="currentColor"/>
<path d="M8.8872 14.2417H7.956L7.9248 14.7289L8.3928 14.7313C8.5296 14.5393 8.6976 14.3761 8.8872 14.2417Z" fill="currentColor"/>
<path d="M12.1727 15.6839C13.4087 15.6167 14.2847 15.2543 14.7935 14.9711L11.9375 14.9543C12.0599 15.1799 12.1415 15.4295 12.1727 15.6839Z" fill="currentColor"/>
<path d="M16.3345 6.36487C16.2913 6.26167 16.1713 6.21127 16.0681 6.25687C15.7633 6.38647 15.1657 6.63847 14.8561 6.77047C14.5321 6.90967 14.2009 6.89767 14.0017 6.89287C13.9633 6.89287 13.9297 6.89047 13.9033 6.89047C13.7617 6.89047 10.6033 6.78007 8.95451 6.72247C8.95211 6.72487 8.95211 6.72487 8.94971 6.72727V7.13047C9.24491 7.14007 13.7233 7.29847 13.9033 7.29847C13.9273 7.29847 13.9561 7.29847 13.9897 7.30087C14.0377 7.30327 14.0929 7.30327 14.1553 7.30327C14.3833 7.30327 14.7001 7.28167 15.0169 7.14487C15.3265 7.01287 15.9241 6.76087 16.2265 6.63127C16.3297 6.58807 16.3777 6.46807 16.3345 6.36487Z" fill="currentColor"/>
<path d="M24 15.089L22.896 15.053V14.6594L22.8264 14.6546L22.8096 14.3618L22.5672 14.3474L22.512 14.633L17.5032 14.3018L17.6256 15.2594L22.4568 15.2042L22.6272 15.4106H22.872L22.8576 15.1994H22.896V15.197L23.9952 15.2282L24 15.089Z" fill="currentColor"/>
<path d="M7.80474 7.93457H7.43994L7.55274 6.71777H7.91754L7.80474 7.93457Z" fill="currentColor"/>
<path d="M7.99438 7.13517L8.01358 6.71997L8.81758 6.72477L8.81278 7.00317L7.99438 7.13517Z" fill="currentColor"/>
<path d="M3.78955 15.6553H5.81275L5.63035 15.8377H3.77515C3.77515 15.8377 3.77755 15.6433 3.78955 15.6553Z" fill="currentColor"/>
<path d="M7.92484 14.9306H7.70884V14.9258L7.46884 15.1826L7.56964 15.4994L7.00084 15.4442L6.99604 15.4874L6.60244 15.4538L7.18564 14.8634V14.309L6.82804 14.3018V14.6738L6.41764 15.1154H5.52724H3.82324V15.5714H4.50004V15.4946H6.07204L6.08164 15.5042L6.98644 15.5786L6.98164 15.6362L7.63204 15.701L7.70884 15.9434L7.99684 15.9242C7.99924 15.8114 8.01124 15.6962 8.03284 15.5714C8.07364 15.3482 8.15284 15.1322 8.26324 14.933L7.92484 14.9306Z" fill="currentColor"/>
<path d="M4.05362 14.676C4.19282 14.64 4.32722 14.5992 4.45922 14.5584C5.06162 14.3736 5.61362 13.896 5.61362 13.896C5.55122 13.8096 5.30162 13.9824 4.97522 14.208C4.64882 14.436 3.93122 14.6064 3.30482 14.6928C2.67842 14.7792 1.61042 14.6616 1.41362 14.6184C1.21682 14.5752 1.10642 14.3424 0.948019 14.2008C0.787219 14.0592 0.580819 14.04 0.487219 14.0472C0.396019 14.0544 0.156019 14.2488 0.069619 14.3352C-0.016781 14.4216 -0.021581 14.532 0.045619 14.6424C0.112819 14.7528 0.254419 14.7288 0.499219 14.7096C0.691219 14.6952 0.926419 14.7048 1.54562 14.7552L1.83122 15.0408H6.21602L6.58322 14.6736H4.05362V14.676Z" fill="currentColor"/>
<path d="M17.0425 11.6832C16.9633 11.64 16.8577 11.5824 16.7425 11.5224C16.7401 11.4 16.7377 11.1792 16.7449 10.9728C16.7521 10.6896 16.6153 9.8976 16.5889 9.7488H16.6153V9.588H16.4713V9.5808H16.3801V8.424H16.0825V8.484H16.0633C15.9433 8.4816 15.7657 8.4792 15.6457 8.5968C15.5665 8.6736 15.5257 8.7936 15.5257 8.9472V9.3312H15.3745V9.6312H15.3985L15.4081 10.8024C15.0001 10.5912 14.6521 10.476 14.0665 10.476H7.68248C7.65608 10.476 7.63208 10.4832 7.60808 10.4928L7.83368 8.052H7.37768L7.33928 8.4672H6.56408V8.5824H7.32968L7.24808 9.4536V9.4368H6.41528V9.552H7.23848L7.10408 11.0184H7.56008L7.57448 10.8504C7.61048 10.872 7.64888 10.8864 7.69208 10.8864H13.8481L13.8025 11.9928C12.7561 11.9712 8.17688 11.9016 7.59128 11.892V11.1984H7.21208L7.30328 14.832H7.59128V13.7904L10.2889 13.8024V13.8624C10.5169 13.884 10.7377 13.944 10.9441 14.0352H11.3017H12.0529V13.8096L13.7257 13.8168L13.7161 14.0328H13.8529L13.8625 13.8168L14.5009 13.8192L14.9353 13.3632V12.8088L14.7385 12.8016L14.3593 13.464L13.8793 13.4664L13.9201 12.4056C13.9393 12.4056 13.9561 12.4056 13.9705 12.408C14.4577 12.4224 14.6761 12.4704 14.9761 12.6288C15.1657 12.7272 15.6697 13.0104 16.0825 13.2408V14.0904H16.4713V13.4592C16.6009 13.5336 16.6873 13.5816 16.6897 13.584C16.7209 13.6032 16.7569 13.6104 16.7905 13.6104C16.8625 13.6104 16.9297 13.5744 16.9681 13.5072C17.0233 13.4088 16.9897 13.284 16.8913 13.2288C16.8721 13.2168 16.6993 13.1208 16.4713 12.9912V11.8416C16.6177 11.9208 16.7497 11.9928 16.8481 12.0456C16.9465 12.0984 17.0713 12.0624 17.1241 11.964C17.1769 11.8608 17.1409 11.736 17.0425 11.6832ZM16.4809 9.7488C16.4905 9.8064 16.5793 10.3128 16.6177 10.6824H16.4689V9.7488H16.4809ZM15.8737 12.2232L15.5305 12.2376L15.5233 11.328C15.6241 11.3832 15.7369 11.4432 15.8593 11.508L15.8737 12.2232ZM15.6337 10.9248V9.5136H15.8161L15.8473 11.04C15.7705 10.9968 15.6985 10.9584 15.6337 10.9248ZM15.9289 9.7488H16.0825V11.1672C16.0393 11.1432 15.9985 11.1216 15.9553 11.1L15.9289 9.7488ZM15.7225 8.6736C15.8113 8.5872 15.9577 8.5896 16.0633 8.592H16.0849V9.588H15.9265L15.9241 9.5136H15.9313V9.24H15.6361V8.9496C15.6337 8.8248 15.6625 8.7312 15.7225 8.6736ZM15.5281 9.636V10.8672C15.5257 10.8648 15.5209 10.8624 15.5185 10.8624L15.5089 9.636H15.5281ZM13.7401 13.4664L7.59128 13.488V12.3024C8.17688 12.312 12.7369 12.3816 13.7857 12.4032L13.7401 13.4664ZM16.0825 12.7704C15.7177 12.5664 15.3313 12.3504 15.1657 12.264C14.7673 12.0576 14.4673 12.012 13.9825 11.9976C13.9705 11.9976 13.9537 11.9976 13.9369 11.9976L13.9825 10.8864H14.0665C14.6041 10.8864 14.8849 10.9872 15.2785 11.196C15.3169 11.2152 15.3625 11.2416 15.4153 11.268L15.4249 12.3456L15.9817 12.324L15.9649 11.5656C16.0033 11.5872 16.0417 11.6064 16.0825 11.628V12.7704ZM16.4713 10.752H16.6273C16.6345 10.8384 16.6417 10.9176 16.6393 10.9704C16.6345 11.1456 16.6345 11.3352 16.6369 11.4648C16.5841 11.436 16.5289 11.4072 16.4713 11.376V10.752Z" fill="currentColor"/>
</g>
<defs>
<clipPath id="clip0_1437_1517">
<rect width="24" height="11.6184" fill="currentColor" transform="translate(0 6.23999)"/>
</clipPath>
</defs>
</svg>
