<svg width="24" height="24" viewBox="0 0 24 24" fill="currentColor" xmlns="http://www.w3.org/2000/svg">
<g clip-path="url(#clip0_1432_1041)">
<path d="M15.0217 13.0081C14.3353 13.0081 13.7665 13.5025 13.6441 14.1553C13.6297 14.2393 13.6201 14.3257 13.6201 14.4121C13.6201 15.1897 14.2489 15.8233 15.0217 15.8233C15.7945 15.8233 16.4233 15.1897 16.4233 14.4121C16.4233 14.1625 16.3585 13.9297 16.2457 13.7257C16.0033 13.2985 15.5473 13.0081 15.0217 13.0081ZM15.0217 15.0313C14.6857 15.0313 14.4097 14.7553 14.4097 14.4145C14.4097 14.3233 14.4313 14.2369 14.4673 14.1577C14.5657 13.9465 14.7769 13.8001 15.0217 13.8001C15.0985 13.8001 15.1729 13.8169 15.2401 13.8409C15.4705 13.9297 15.6337 14.1505 15.6337 14.4145C15.6361 14.7553 15.3601 15.0313 15.0217 15.0313Z" fill="currentColor"/>
<path d="M6.78709 13.1688C6.15589 13.1688 5.63029 13.6248 5.51989 14.2248C5.50549 14.3016 5.49829 14.3808 5.49829 14.4624C5.49829 15.1776 6.07669 15.7608 6.78949 15.7608C7.50229 15.7608 8.08069 15.1776 8.08069 14.4624C8.08069 14.232 8.02069 14.0184 7.91749 13.8312C7.69189 13.4376 7.26949 13.1688 6.78709 13.1688ZM6.78709 15.0312C6.47749 15.0312 6.22309 14.7768 6.22309 14.4624C6.22309 14.3784 6.24229 14.2992 6.27589 14.2248C6.36469 14.0304 6.56149 13.8936 6.78709 13.8936C6.85909 13.8936 6.92629 13.908 6.98869 13.932C7.19989 14.0136 7.35109 14.2176 7.35109 14.46C7.35109 14.7768 7.09909 15.0312 6.78709 15.0312Z" fill="currentColor"/>
<path d="M3.8137 13.1688C3.1825 13.1688 2.6569 13.6248 2.5465 14.2248C2.5321 14.3016 2.5249 14.3808 2.5249 14.4624C2.5249 15.1776 3.1033 15.7608 3.8161 15.7608C4.5289 15.7608 5.1073 15.1776 5.1073 14.4624C5.1073 14.232 5.0473 14.0184 4.9441 13.8312C4.7185 13.4376 4.2985 13.1688 3.8137 13.1688ZM3.8137 15.0312C3.5041 15.0312 3.2497 14.7768 3.2497 14.4624C3.2497 14.3784 3.2689 14.2992 3.3025 14.2248C3.3913 14.0304 3.5881 13.8936 3.8137 13.8936C3.8857 13.8936 3.9529 13.908 4.0153 13.932C4.2265 14.0136 4.3777 14.2176 4.3777 14.46C4.3801 14.7768 4.1257 15.0312 3.8137 15.0312Z" fill="currentColor"/>
<path d="M15.948 11.376L15.996 11.4744L16.0728 11.4312L15.996 11.3424L15.948 11.376Z" fill="currentColor"/>
<path d="M15.8159 11.3904C15.8207 11.3976 15.8303 11.4024 15.8399 11.4024C15.8447 11.4024 15.8495 11.4 15.8543 11.3976L16.0391 11.2776C16.0511 11.268 16.0559 11.2512 16.0463 11.2392C16.0367 11.2272 16.0199 11.2224 16.0079 11.232L15.8231 11.352C15.8111 11.3592 15.8063 11.376 15.8159 11.3904Z" fill="currentColor"/>
<path d="M15.1009 14.0161C15.0721 14.0113 15.0433 14.0089 15.0169 14.0089C14.9953 14.0089 14.9737 14.0113 14.9521 14.0137C14.7985 14.0401 14.6737 14.1577 14.6329 14.3113C14.6185 14.3689 14.6137 14.4265 14.6257 14.4841C14.6593 14.6785 14.8273 14.8225 15.0241 14.8225C15.0481 14.8225 15.0697 14.8201 15.0937 14.8153C15.3145 14.7769 15.4609 14.5657 15.4201 14.3425C15.3913 14.1769 15.2641 14.0473 15.1009 14.0161Z" fill="currentColor"/>
<path d="M14.0832 13.1017H9.99121V13.6009H11.748C11.7288 13.6441 11.7192 13.6921 11.7192 13.7401C11.7192 13.9369 11.88 14.0977 12.0768 14.0977C12.2736 14.0977 12.4344 13.9369 12.4344 13.7401C12.4344 13.6897 12.4248 13.6441 12.4056 13.6009H13.6296C13.7448 13.4041 13.9008 13.2337 14.0832 13.1017Z" fill="currentColor"/>
<path d="M0 14.712H1.992L2.256 14.004H0V14.712Z" fill="currentColor"/>
<path d="M2.13363 10.5409H1.17603V11.4985H2.13363V10.5409Z" fill="currentColor"/>
<path d="M20.4673 14.6904C20.1769 14.5728 19.8361 14.6544 19.6321 14.892C19.6033 14.9256 19.5793 14.9592 19.5577 14.9952C19.3225 15.3816 19.4785 15.8976 19.9177 16.0752C20.2081 16.1928 20.5489 16.1112 20.7529 15.8736C20.7817 15.84 20.8057 15.8064 20.8273 15.7704C21.0625 15.384 20.9041 14.868 20.4673 14.6904ZM19.7617 14.8896C19.7689 14.8776 19.7785 14.868 19.7905 14.8584C19.9393 14.7432 20.1313 14.6976 20.3161 14.7336C20.3977 14.748 20.4361 14.844 20.3929 14.916L20.2489 15.1512C20.2345 15.1488 20.2177 15.1464 20.2009 15.1464C20.1433 15.1464 20.0905 15.1704 20.0497 15.2064L19.8049 15.0552C19.7449 15.0192 19.7281 14.9424 19.7617 14.8896ZM19.8673 15.7728C19.8241 15.8448 19.7209 15.852 19.6705 15.7872C19.5553 15.636 19.5073 15.4416 19.5433 15.2568C19.5457 15.2424 19.5505 15.2304 19.5577 15.2184C19.5913 15.1632 19.6657 15.144 19.7257 15.18L19.9825 15.336C19.9801 15.3456 19.9801 15.3576 19.9801 15.3672C19.9801 15.42 19.9993 15.468 20.0305 15.5064L19.8673 15.7728ZM20.6281 15.8712C20.6209 15.8832 20.6113 15.8928 20.6017 15.9024C20.4529 16.02 20.2585 16.068 20.0713 16.032C19.9897 16.0176 19.9513 15.9216 19.9945 15.8496L20.1553 15.5856C20.1697 15.588 20.1865 15.5904 20.2009 15.5904C20.2489 15.5904 20.2921 15.576 20.3281 15.5496L20.5849 15.7056C20.6425 15.7392 20.6593 15.816 20.6281 15.8712ZM20.8417 15.5016C20.8393 15.516 20.8345 15.528 20.8273 15.54C20.7937 15.5952 20.7193 15.6144 20.6593 15.5784L20.4121 15.4272C20.4169 15.408 20.4217 15.3888 20.4217 15.3672C20.4217 15.3144 20.4025 15.2664 20.3713 15.228L20.5153 14.9928C20.5585 14.9208 20.6617 14.9136 20.7121 14.9784C20.8273 15.1248 20.8753 15.3168 20.8417 15.5016Z" fill="currentColor"/>
<path d="M21.5016 15.7176H23.124V14.9808C23.124 14.6784 22.8792 14.4312 22.5744 14.4312H22.0488C21.8424 14.4312 21.66 14.5464 21.5664 14.7168L21.2544 14.5368L21.2904 14.2344L20.952 13.9248H20.496V14.2104H20.148C20.0712 14.2104 20.0112 14.2728 20.0112 14.3472C20.0112 14.424 20.0736 14.484 20.148 14.484H20.5344L20.7936 14.5896L21.0552 15.3648L21.1536 15.3696L21.2376 14.6664L21.5208 14.8296C21.5064 14.8776 21.4992 14.9256 21.4992 14.9784V15.7176H21.5016ZM20.1552 14.412C20.1192 14.412 20.0904 14.3832 20.0904 14.3472C20.0904 14.3112 20.1192 14.2824 20.1552 14.2824C20.1912 14.2824 20.22 14.3112 20.22 14.3472C20.22 14.3832 20.1888 14.412 20.1552 14.412Z" fill="currentColor"/>
<path d="M19.2168 15.8377L18.4224 15.7393L18.4248 15.3937L20.0088 14.4793L19.9464 14.3737L18.4248 15.2521V15.1561L18.3432 14.4721H17.928V13.8985L17.9784 13.8529H20.4168V13.3849H17.4048L17.1744 13.6345H16.9512V13.1281H16.7496H16.5624C16.4904 13.1281 16.4304 13.1881 16.4304 13.2601C16.4304 13.3345 16.4904 13.3921 16.5624 13.3921H16.7496V13.8265H16.812H16.9512H16.9944L16.596 14.2609C16.596 14.2609 16.5024 14.3713 16.5816 14.4649C16.6608 14.5585 16.764 14.4817 16.764 14.4817L17.4552 14.0233H17.6712V14.4697H17.04V14.5969H16.8408V15.3913H17.04V15.9217H18.0384L19.1832 16.0633C19.248 16.0705 19.3056 16.0249 19.3128 15.9625C19.32 15.9001 19.2792 15.8473 19.2168 15.8377ZM16.56 13.3225C16.5288 13.3225 16.5024 13.2961 16.5024 13.2649C16.5024 13.2337 16.5288 13.2073 16.56 13.2073C16.5912 13.2073 16.6176 13.2337 16.6176 13.2649C16.6176 13.2961 16.5912 13.3225 16.56 13.3225ZM16.6776 14.4433C16.644 14.4433 16.6152 14.4145 16.6152 14.3809C16.6152 14.3473 16.644 14.3185 16.6776 14.3185C16.7112 14.3185 16.74 14.3473 16.74 14.3809C16.74 14.4145 16.7112 14.4433 16.6776 14.4433Z" fill="currentColor"/>
<path d="M22.2769 16.0704C22.3345 16.092 22.3969 16.0896 22.4545 16.068L23.1313 15.7992H21.5137L22.2769 16.0704Z" fill="currentColor"/>
<path d="M20.7191 13.1665H20.4983V13.8553H20.9543L20.7191 13.1665Z" fill="currentColor"/>
<path d="M12.4032 14.9185V14.6737H13.1736V14.3809H9.9864V12.8665H12.5592V12.8209C13.0728 12.8113 13.332 12.6169 13.56 12.4441C13.7472 12.3025 13.9104 12.1825 14.1816 12.1705V12.4417L14.6904 12.7441L14.7 12.7321H16.3272V12.7297L16.86 10.4257H17.0496V10.2385H14.8848V10.4257H15.048V12.4321H14.9016V11.7289H14.424L14.184 11.8873V11.9353C13.884 11.9473 13.7016 12.0817 13.512 12.2257C13.284 12.3985 13.0464 12.5761 12.5616 12.5857V12.3745L13.4712 11.8993H12.6528V11.8321H13.68V11.7241H12.6504V10.4905H12.5304V11.7241H9.9864V10.7353H9.8568V11.7241H9.816V10.4449H12.5064V10.2337H9.8184V9.56405H9.7512V9.65285H8.6328V9.56405H8.5656V10.2385H8.4456V7.68005H8.3208V7.83125H5.9712V7.68005H5.8464V10.2361H2.3928V10.4473H5.3184V11.7265H2.3688V10.4929H2.2488V11.6377H0V13.8481H2.256V12.8665H8.364V15.3265H8.4936V11.8369H8.5656V15.3265H8.6328V15.2281H9.7512V15.3265H9.8184V11.8369H9.8592V15.3265H9.9888V14.6737H11.7168V14.9185H10.992L10.824 15.0937H13.296L13.128 14.9185H12.4032ZM16.3056 12.3697L16.248 11.8249L16.572 10.4305H16.7568L16.3056 12.3697ZM16.4616 10.4281L16.2 11.5561L16.1424 11.4433L15.9264 11.5753L15.2088 11.5777V10.4281H16.4616ZM9.7512 9.92885H8.6328V9.84005H9.7512V9.92885ZM9.7512 9.97925V10.0681H8.6328V9.97925H9.7512ZM9.7512 10.1161V10.2049H8.6328V10.1161H9.7512ZM9.7512 11.7241H8.6328V11.6353H9.7512V11.7241ZM9.7512 11.5849H8.6328V11.4961H9.7512V11.5849ZM9.7512 11.4481H8.6328V11.3593H9.7512V11.4481ZM9.7512 11.3089H8.6328V11.2201H9.7512V11.3089ZM9.7512 11.1721H8.6328V11.0833H9.7512V11.1721ZM9.7512 11.0329H8.6328V10.9441H9.7512V11.0329ZM9.7512 10.8961H8.6328V10.8073H9.7512V10.8961ZM9.7512 10.7569H8.6328V10.6681H9.7512V10.7569ZM9.7512 10.6201H8.6328V10.5313H9.7512V10.6201ZM9.7512 10.4809H8.6328V10.4473H9.7512V10.4809ZM9.7512 9.70325V9.79205H8.6328V9.70325H9.7512ZM8.3208 8.10725H5.9712V8.01845H8.3208V8.10725ZM8.3208 8.15765V8.24645H5.9712V8.15765H8.3208ZM8.3208 8.29685V8.38565H5.9712V8.29685H8.3208ZM8.3208 8.43365V8.52245H5.9712V8.43365H8.3208ZM8.3208 8.57285V8.66165H5.9712V8.57285H8.3208ZM8.3208 8.70965V8.79845H5.9712V8.70965H8.3208ZM8.3208 8.84885V8.93765H5.9712V8.84885H8.3208ZM8.3208 8.98565V9.07445H5.9712V8.98565H8.3208ZM8.3208 9.12485V9.21365H5.9712V9.12485H8.3208ZM8.3208 9.26165V9.35045H5.9712V9.26165H8.3208ZM8.3208 9.40085V9.48965H5.9712V9.40085H8.3208ZM8.3208 9.54005V9.62885H5.9712V9.54005H8.3208ZM8.3208 9.67685V9.76565H5.9712V9.67685H8.3208ZM8.3208 9.81605V9.90485H5.9712V9.81605H8.3208ZM8.3208 9.95285V10.0417H5.9712V9.95285H8.3208ZM8.3208 10.0921V10.1809H5.9712V10.0921H8.3208ZM8.3208 7.88165V7.97045H5.9712V7.88165H8.3208ZM5.9712 10.2289H8.3208V10.2361H5.9712V10.2289ZM5.3184 11.8369V11.9041H2.3688V11.8369H5.3184ZM8.364 11.9017H5.4576V11.8345H8.364V11.9017ZM8.4936 11.7265V10.7377H8.364V11.7265H5.4576V10.4473H8.5656V11.7265H8.4936ZM8.6328 14.9497H9.7512V15.0385H8.6328V14.9497ZM8.6328 14.9017V14.8129H9.7512V14.9017H8.6328ZM8.6328 14.7625V14.6737H9.7512V14.7625H8.6328ZM8.6328 14.6257V14.5369H9.7512V14.6257H8.6328ZM8.6328 14.4865V14.3977H9.7512V14.4865H8.6328ZM8.6328 14.3473V14.2585H9.7512V14.3473H8.6328ZM8.6328 14.2105V14.1217H9.7512V14.2105H8.6328ZM8.6328 14.0713V13.9825H9.7512V14.0713H8.6328ZM8.6328 13.9345V13.8457H9.7512V13.9345H8.6328ZM8.6328 13.7953V13.7065H9.7512V13.7953H8.6328ZM8.6328 13.6585V13.5697H9.7512V13.6585H8.6328ZM8.6328 13.5193V13.4305H9.7512V13.5193H8.6328ZM8.6328 13.3825V13.2937H9.7512V13.3825H8.6328ZM8.6328 13.2433V13.1545H9.7512V13.2433H8.6328ZM8.6328 13.1065V13.0177H9.7512V13.1065H8.6328ZM8.6328 12.9673V12.8785H9.7512V12.9673H8.6328ZM8.6328 12.8281V12.7393H9.7512V12.8281H8.6328ZM8.6328 12.6913V12.6025H9.7512V12.6913H8.6328ZM8.6328 12.5521V12.4633H9.7512V12.5521H8.6328ZM8.6328 12.4153V12.3265H9.7512V12.4153H8.6328ZM8.6328 12.2761V12.1873H9.7512V12.2761H8.6328ZM8.6328 12.1393V12.0505H9.7512V12.1393H8.6328ZM8.6328 12.0001V11.9113H9.7512V12.0001H8.6328ZM8.6328 15.1777V15.0889H9.7512V15.1777H8.6328ZM9.7512 11.8633H8.6328V11.8369H9.7512V11.8633ZM13.56 12.2953C13.7472 12.1537 13.9104 12.0337 14.1816 12.0217V12.0889C13.8816 12.1009 13.6992 12.2353 13.5096 12.3793C13.2816 12.5521 13.044 12.7297 12.5592 12.7393V12.6721C13.0728 12.6601 13.332 12.4681 13.56 12.2953ZM12.5328 11.8369V11.9041H9.9888V11.8369H12.5328Z" fill="currentColor"/>
<path d="M16.7568 14.6017H16.5552V15.0865H16.7568V14.6017Z" fill="currentColor"/>
<path d="M23.6543 14.8944H23.2871V15.5304L23.5607 15.5256L23.9999 15.24C23.9999 15.048 23.8439 14.8944 23.6543 14.8944Z" fill="currentColor"/>
</g>
<defs>
<clipPath id="clip0_1432_1041">
<rect width="24" height="8.4456" fill="currentColor" transform="translate(0 7.68005)"/>
</clipPath>
</defs>
</svg>
