<svg width="25" height="24" viewBox="0 0 25 24" fill="currentColor" xmlns="http://www.w3.org/2000/svg">
<g clip-path="url(#clip0_1532_1105)">
<path d="M22.8387 8.7458L24.0915 7.493L23.7987 7.2002L22.7595 8.2394C22.6899 8.0954 22.5459 7.997 22.3779 7.997H21.8019C21.5835 7.997 21.4011 8.1626 21.3795 8.381L21.2115 10.0826H2.13146V8.7746H1.14746V13.8218H2.13146V12.3458H23.7339V10.0826H22.9707L22.8387 8.7458ZM22.0899 11.6738C21.8019 11.6738 21.5667 11.4386 21.5667 11.1506C21.5667 10.8626 21.8019 10.6274 22.0899 10.6274C22.3803 10.6274 22.6131 10.8626 22.6131 11.1506C22.6131 11.4386 22.3803 11.6738 22.0899 11.6738Z" fill="currentColor"/>
<path d="M2.05211 14.2368H1.17371L0.652908 15.2472L0.338509 14.7024L0.0913086 14.844L0.496909 15.5496L0.787308 16.0488L1.20491 16.7736L1.45211 16.6296L1.11611 16.0488H1.12091L2.05211 14.2368Z" fill="currentColor"/>
</g>
<defs>
<clipPath id="clip0_1532_1105">
<rect width="24" height="9.5736" fill="currentColor" transform="translate(0.0913086 7.2002)"/>
</clipPath>
</defs>
</svg>
