<svg width="24" height="24" viewBox="0 0 24 24" fill="currentColor" xmlns="http://www.w3.org/2000/svg">
<g clip-path="url(#clip0_1437_1880)">
<path d="M6.22558 13.5552C5.09278 13.5552 4.17358 14.4744 4.17358 15.6072C4.17358 16.74 5.09278 17.6592 6.22558 17.6592C7.35838 17.6592 8.27758 16.74 8.27758 15.6072C8.27758 14.4744 7.35838 13.5552 6.22558 13.5552ZM6.22558 16.5024C5.73118 16.5024 5.32798 16.1016 5.32798 15.6048C5.32798 15.108 5.72878 14.7072 6.22558 14.7072C6.72238 14.7072 7.12318 15.108 7.12318 15.6048C7.12318 16.1016 6.72238 16.5024 6.22558 16.5024Z" fill="currentColor"/>
<path d="M10.7927 13.5552C9.65992 13.5552 8.74072 14.4744 8.74072 15.6072C8.74072 16.74 9.65992 17.6592 10.7927 17.6592C11.9255 17.6592 12.8447 16.74 12.8447 15.6072C12.8447 14.4744 11.9255 13.5552 10.7927 13.5552ZM10.7927 16.5024C10.2983 16.5024 9.89512 16.1016 9.89512 15.6048C9.89512 15.108 10.2959 14.7072 10.7927 14.7072C11.2895 14.7072 11.6903 15.108 11.6903 15.6048C11.6903 16.1016 11.2871 16.5024 10.7927 16.5024Z" fill="currentColor"/>
<path d="M24 14.9616L23.6904 14.652H22.6776V14.16H22.5096V14.6496H21.0912L21.072 14.832L20.8632 7.05358C20.8632 6.75598 20.5536 6.47998 20.1 6.47998C20.1 6.47998 0.6696 6.47998 0.4656 6.47998C0.2616 6.47998 0.2136 6.51598 0.2136 6.70558L0 15.4848H3.9504C4.0128 14.28 5.0064 13.3224 6.228 13.3224C7.4496 13.3224 8.4432 14.28 8.5056 15.4848H8.5176C8.58 14.28 9.5736 13.3224 10.7952 13.3224C12.0168 13.3224 13.0104 14.28 13.0728 15.4848H13.0896H20.6064C20.844 15.4848 20.9928 15.372 21.0528 15.1392L24 14.9616ZM2.7984 8.86318H0.5664V8.32798H2.796V8.86318H2.7984ZM2.7984 7.67518H0.5664V7.13998H2.796V7.67518H2.7984ZM5.3616 8.86318H3.132V8.32798H5.3616V8.86318ZM5.3616 7.67518H3.132V7.13998H5.3616V7.67518ZM7.9272 8.86318H5.6976V8.32798H7.9272V8.86318ZM7.9272 7.67518H5.6976V7.13998H7.9272V7.67518ZM10.4904 8.86318H8.2608V8.32798H10.4904V8.86318ZM10.4904 7.67518H8.2608V7.13998H10.4904V7.67518ZM13.056 8.86318H10.824V8.32798H13.0536V8.86318H13.056ZM13.056 7.67518H10.824V7.13998H13.0536V7.67518H13.056ZM15.6192 8.86318H13.3896V8.32798H15.6192V8.86318ZM15.6192 7.67518H13.3896V7.13998H15.6192V7.67518ZM20.3568 14.3856H16.356V7.13998H20.3568V14.3856Z" fill="currentColor"/>
<path d="M22.6752 15.0432L22.5096 15.0528V16.2816H22.3008V16.38H22.8792V16.2816H22.6752V15.0432Z" fill="currentColor"/>
<path d="M20.196 7.27441H16.5168V14.2488H20.196V7.27441ZM18.2232 8.86321H16.8216V8.32801H18.2232V8.86321ZM19.8912 8.86321H18.4896V8.32801H19.8912V8.86321Z" fill="currentColor"/>
</g>
<defs>
<clipPath id="clip0_1437_1880">
<rect width="24" height="11.1768" fill="currentColor" transform="translate(0 6.47998)"/>
</clipPath>
</defs>
</svg>
