<svg width="24" height="24" viewBox="0 0 24 24" fill="currentColor" xmlns="http://www.w3.org/2000/svg">
<g clip-path="url(#clip0_1432_1050)">
<path d="M7.14718 13.5575C6.58558 13.5575 6.09358 13.8623 5.83678 14.3159C5.71438 14.5295 5.64478 14.7743 5.64478 15.0359C5.64478 15.8543 6.31918 16.5191 7.14718 16.5191C7.97518 16.5191 8.64958 15.8543 8.64958 15.0359C8.64958 14.9447 8.63998 14.8535 8.62318 14.7647C8.49358 14.0783 7.88158 13.5575 7.14718 13.5575ZM7.14718 15.6839C6.78478 15.6839 6.48958 15.3935 6.48958 15.0359C6.48958 14.7575 6.66718 14.5247 6.91198 14.4311C6.98638 14.4047 7.06318 14.3879 7.14718 14.3879C7.41118 14.3879 7.63918 14.5439 7.74238 14.7647C7.78078 14.8487 7.80478 14.9375 7.80478 15.0359C7.80478 15.3935 7.50958 15.6839 7.14718 15.6839Z" fill="currentColor"/>
<path d="M23.9929 16.0055C23.9545 15.8063 23.7769 15.6527 23.5633 15.6527C23.4001 15.6527 23.2561 15.7415 23.1817 15.8735C23.1457 15.9359 23.1265 16.0079 23.1265 16.0847C23.1265 16.3223 23.3233 16.5167 23.5633 16.5167C23.8033 16.5167 24.0001 16.3223 24.0001 16.0847C24.0001 16.0583 23.9977 16.0319 23.9929 16.0055ZM23.5633 16.2743C23.4577 16.2743 23.3713 16.1903 23.3713 16.0847C23.3713 16.0031 23.4217 15.9359 23.4937 15.9095C23.5153 15.9023 23.5369 15.8975 23.5633 15.8975C23.6401 15.8975 23.7073 15.9431 23.7361 16.0079C23.7481 16.0319 23.7529 16.0583 23.7529 16.0871C23.7529 16.1903 23.6665 16.2743 23.5633 16.2743Z" fill="currentColor"/>
<path d="M11.6424 14.2151H8.7264H8.7168C8.7984 14.3687 8.8608 14.5343 8.8944 14.7143C8.916 14.8295 8.9256 14.9327 8.9256 15.0359C8.9256 15.0983 8.9232 15.1607 8.916 15.2231H11.5968C11.5728 15.0935 11.5584 14.9615 11.5584 14.8271C11.5584 14.6207 11.5896 14.4143 11.652 14.2175H11.6424V14.2151Z" fill="currentColor"/>
<path d="M12.7344 9.82558V10.5072H14.2944V9.34558H9.26636V9.50638L12.4344 9.52318C12.6 9.52558 12.7344 9.65998 12.7344 9.82558Z" fill="currentColor"/>
<path d="M23.0329 15.3384L21.5401 14.5008C21.6649 14.4408 21.7777 14.388 21.8305 14.3736C21.9265 14.3496 22.0753 14.3352 22.2481 14.4096C22.4305 14.4864 23.5465 14.8656 23.5945 14.88L23.6377 14.7504C23.6257 14.7456 22.4785 14.3568 22.3009 14.2824C22.0945 14.196 21.9145 14.2128 21.7969 14.2416C21.7057 14.2632 21.5065 14.364 21.2953 14.4672C21.2713 14.4792 21.2497 14.4888 21.2257 14.5008L20.6137 14.7768L20.2081 14.4792L18.6361 13.9032L18.0601 14.9376L18.0985 15.6288L22.8937 16.3104L22.9321 16.2288C22.9201 16.1832 22.9153 16.1352 22.9153 16.0848C22.9153 15.9768 22.9441 15.8688 22.9969 15.7728C23.0449 15.6912 23.1097 15.6216 23.1841 15.5688C23.1769 15.4752 23.1217 15.3888 23.0329 15.3384Z" fill="currentColor"/>
<path d="M17.8583 14.9519L17.8559 14.8919L17.8847 14.8391L18.1967 14.2751H18.1919L16.0799 13.6583V13.0031H17.0543V12.5615H17.0447L17.8751 9.90712H18.1079V9.54232H17.1407V9.40072H17.2223V9.21832C17.2223 9.17032 17.1839 9.12952 17.1335 9.12952H17.0879C17.0399 9.12952 16.9991 9.16792 16.9991 9.21832V9.40072H17.0759V9.54232H14.9927H14.7479H14.6279V10.6439L14.6231 10.6343V11.5703L14.3303 10.6655H12.6743C12.4343 10.2911 12.3191 9.74392 11.4359 9.74392C11.1431 9.74392 6.7031 9.53752 3.8255 9.40312L3.8279 9.35032C3.8303 9.29992 3.7895 9.25672 3.7391 9.25432H3.7151C3.6647 9.25192 3.6215 9.29272 3.6191 9.34312L3.6167 9.39352C2.3471 9.33592 1.4255 9.29272 1.3943 9.29032C1.3943 9.29032 1.0079 9.27112 0.981499 9.65752C0.957499 10.0439 1.3607 10.0439 1.3607 10.0439C1.2671 10.0391 2.2319 10.0823 3.5927 10.1447L3.5903 10.1927C3.5879 10.2431 3.6287 10.2863 3.6791 10.2887H3.7031C3.7535 10.2911 3.7967 10.2503 3.7991 10.1999L3.8015 10.1519C6.6815 10.2815 11.1119 10.4807 11.3951 10.4975C11.5199 10.5047 11.6207 10.5503 11.7335 10.6631H3.9599V10.7879H3.7847C3.7847 10.7879 3.6623 10.7975 3.6623 11.0231C3.6623 11.2487 3.7847 11.2655 3.7847 11.2655H3.9599V12.6551L5.4239 13.9367C5.8007 13.3583 6.4511 13.0031 7.1495 13.0031C7.7855 13.0031 8.3615 13.2911 8.7407 13.7519C8.8367 13.8695 8.9831 13.9343 9.1343 13.9343H11.1407C11.3279 13.9343 11.4959 13.8287 11.5895 13.6655C11.5895 13.6655 11.5895 13.6631 11.5919 13.6631C12.0167 12.9191 12.8159 12.4559 13.6751 12.4559C14.1767 12.4559 14.6447 12.6119 15.0335 12.8783C15.0359 12.8783 15.0359 12.8807 15.0383 12.8807V13.6079C14.7023 13.2407 14.2175 13.0055 13.6751 13.0055C12.9863 13.0055 12.3839 13.3799 12.0695 13.9343C11.9207 14.1959 11.8343 14.4959 11.8343 14.8175C11.8343 15.8207 12.6599 16.6343 13.6751 16.6343C14.4167 16.6343 15.0575 16.1975 15.3479 15.5687H15.9887H16.0583H16.0799V14.6639L17.8895 15.5303L17.8583 14.9519ZM13.6727 15.6191C13.2287 15.6191 12.8663 15.2639 12.8663 14.8247C12.8663 14.4839 13.0823 14.1983 13.3847 14.0831C13.4735 14.0495 13.5719 14.0303 13.6727 14.0303C13.9967 14.0303 14.2751 14.2199 14.4023 14.4935C14.4503 14.5943 14.4767 14.7071 14.4767 14.8247C14.4767 15.2639 14.1143 15.6191 13.6727 15.6191ZM15.4799 14.4935C15.4727 14.4527 15.4559 14.4143 15.4463 14.3735H15.9863V14.8823H15.5087C15.5087 14.8631 15.5111 14.8439 15.5111 14.8247C15.5135 14.7119 15.4991 14.5991 15.4799 14.4935ZM15.4199 14.2799C15.3575 14.0855 15.2615 13.9055 15.1415 13.7447H15.9863V14.2799H15.4199ZM15.1295 13.6511V13.0031H15.9863V13.6511H15.1295ZM17.7287 9.90472L16.8983 12.5591L15.7919 12.5447L15.9647 11.9303L14.9927 11.2583V9.90472H17.7287ZM15.3863 15.4823C15.4487 15.3239 15.4895 15.1535 15.5063 14.9759H15.9887V15.4823H15.3863Z" fill="currentColor"/>
<path d="M0.8448 9.64789C0.8544 9.50389 0.9072 9.39349 0.984 9.31189C0.948 9.31429 0.9144 9.31909 0.888 9.32629C0.7896 9.35269 0.588 9.47749 0.4968 9.58549C0.4056 9.69589 0.1056 10.1351 0.0768 10.2119C0.0504 10.2911 0 10.6751 0 10.7855C0 10.8959 0.0288 10.9295 0.0768 10.9607C0.1272 10.9919 0.1992 11.0231 0.2592 10.9607C0.3024 10.9151 0.8112 10.4135 1.1088 10.1231C1.0584 10.0991 1.0056 10.0655 0.9624 10.0175C0.9024 9.95029 0.8328 9.83509 0.8448 9.64789Z" fill="currentColor"/>
<path d="M4.0896 14.0208L4.3104 14.5392C4.3104 14.5392 4.8384 14.5392 5.2968 14.52C5.2968 14.3184 5.3544 14.0784 5.3544 14.0784L4.7304 13.5408L4.0896 14.0208Z" fill="currentColor"/>
<path d="M14.1145 7.43994H9.35767V9.21114H14.1145V7.43994Z" fill="currentColor"/>
</g>
<defs>
<clipPath id="clip0_1432_1050">
<rect width="24" height="9.2016" fill="currentColor" transform="translate(0 7.43994)"/>
</clipPath>
</defs>
</svg>
