<svg width="24" height="24" viewBox="0 0 24 24" fill="currentColor" xmlns="http://www.w3.org/2000/svg">
<g clip-path="url(#clip0_1422_752)">
<path d="M0.2136 11.0136L14.9952 12.0648L17.6568 17.376L17.8536 18.4416H24L23.9952 17.7672L19.3536 14.2824L18.0672 14.2152L15.5688 9.67203L13.4664 9.44643L12.0288 6.20403C11.82 5.73603 11.5704 5.28003 10.8552 5.28003H4.3944L4.1472 8.44323L0 7.99443L0.2136 11.0136ZM10.3224 5.61843H10.8336C11.304 5.61843 11.544 5.98563 11.7192 6.35523L11.8008 6.54963H10.3224V5.61843ZM11.9496 6.90243L12.3192 7.76883H10.32V6.90243H11.9496ZM8.1432 5.61843H9.972V6.55203H8.1432V5.61843ZM9.972 6.90243V7.76883H8.1432V6.90243H9.972ZM5.9472 5.61843H7.7952V6.55203H5.9184C5.9376 6.00003 5.9472 5.61843 5.9472 5.61843ZM7.7952 6.90243V7.76883H5.8824C5.892 7.46643 5.8992 7.17123 5.9088 6.90243H7.7952ZM5.856 8.62803C5.8584 8.46243 5.8656 8.29203 5.8704 8.12403H7.7928V8.83683L5.856 8.62803ZM8.1432 8.87283V8.12403H9.972V9.07203L8.1432 8.87283ZM10.3224 9.10803V8.12163H12.468L13.008 9.39603L10.3224 9.10803Z" fill="currentColor"/>
<path d="M4.30082 13.788C4.20242 13.788 4.10882 13.7952 4.01282 13.8024C4.10882 13.7928 4.20482 13.788 4.30082 13.788H12.516C12.5136 13.788 12.5088 13.788 12.5064 13.788H4.30082Z" fill="currentColor"/>
<path d="M1.50724 16.1184C1.51924 16.0488 1.53604 15.9792 1.55524 15.912C1.55764 15.8904 1.56484 15.8688 1.56964 15.852C1.58644 15.7872 1.61044 15.7248 1.63204 15.6648C1.63924 15.6432 1.64884 15.6168 1.65844 15.5928C1.68004 15.5352 1.70644 15.48 1.73044 15.4248C1.74244 15.3984 1.75444 15.372 1.76884 15.3456C1.79764 15.2952 1.82404 15.2424 1.85284 15.1944C1.86964 15.1656 1.88644 15.1368 1.90564 15.1104C1.93444 15.0648 1.96324 15.0216 1.99684 14.9784C2.01844 14.9472 2.04004 14.9184 2.06164 14.8896C2.09284 14.8512 2.12404 14.8128 2.15764 14.7744C2.18404 14.7456 2.21044 14.7168 2.23684 14.688C2.27044 14.6544 2.30164 14.6184 2.33764 14.5848C2.36884 14.5536 2.40004 14.5272 2.43124 14.4984C2.46484 14.4696 2.49844 14.4408 2.53444 14.412C2.57044 14.3832 2.60644 14.3568 2.64484 14.328C2.67844 14.3016 2.71204 14.28 2.74804 14.256C2.79124 14.2296 2.83204 14.2032 2.87524 14.1792C2.90884 14.16 2.94004 14.1384 2.97604 14.1216C3.02404 14.0952 3.06964 14.0736 3.11764 14.0496C3.15124 14.0352 3.18484 14.0184 3.21604 14.004C3.26884 13.9824 3.32404 13.9608 3.37924 13.944C3.40804 13.932 3.43924 13.9224 3.47044 13.9128C3.53284 13.8936 3.59764 13.8768 3.66244 13.8624C3.68644 13.8576 3.71044 13.8504 3.73684 13.8456C3.81364 13.8288 3.89524 13.8192 3.97684 13.8096C3.98884 13.8072 3.99844 13.8048 4.01044 13.8024C4.10644 13.7952 4.20244 13.788 4.29844 13.788H12.504C12.5064 13.788 12.5112 13.788 12.5136 13.788H13.8984C14.4672 13.788 14.9928 13.956 15.4368 14.244L14.6208 12.6264L0.27124 11.6064L0.65284 16.3944H1.46644C1.47364 16.3128 1.48564 16.236 1.50004 16.1568C1.50244 16.1448 1.50244 16.1304 1.50724 16.1184Z" fill="currentColor"/>
<path d="M16.1448 16.4113C16.0368 15.3913 15.2688 14.5777 14.2752 14.4121C14.1528 14.3905 14.0328 14.3737 13.9008 14.3737H4.30076C3.05036 14.3737 2.03516 15.3961 2.03516 16.6513C2.03516 17.9089 3.05036 18.9313 4.30076 18.9313H13.9008C15.1512 18.9313 16.1688 17.9089 16.1688 16.6513C16.1688 16.5673 16.1544 16.4881 16.1448 16.4113ZM4.30076 17.9521C3.58556 17.9521 3.00476 17.3665 3.00476 16.6489C3.00476 15.9337 3.58556 15.3481 4.30076 15.3481C5.01596 15.3481 5.59676 15.9313 5.59676 16.6489C5.59676 17.3689 5.01596 17.9521 4.30076 17.9521ZM13.9008 17.9521C13.188 17.9521 12.6096 17.3665 12.6096 16.6489C12.6096 15.9337 13.188 15.3481 13.9008 15.3481C14.616 15.3481 15.1968 15.9313 15.1968 16.6489C15.1968 17.3689 14.616 17.9521 13.9008 17.9521Z" fill="currentColor"/>
</g>
<defs>
<clipPath id="clip0_1422_752">
<rect width="24" height="13.6488" fill="currentColor" transform="translate(0 5.28003)"/>
</clipPath>
</defs>
</svg>
