<svg width="24" height="24" viewBox="0 0 24 24" fill="currentColor" xmlns="http://www.w3.org/2000/svg">
<g clip-path="url(#clip0_1422_953)">
<path d="M5.784 14.1169C5.5632 14.0425 5.328 13.9921 5.0832 13.9921C3.864 13.9921 2.8728 14.9809 2.8728 16.2097C2.8728 16.4449 2.9184 16.6681 2.9856 16.8793C3.2712 17.7769 4.0968 18.4321 5.0832 18.4321C6.3024 18.4321 7.2912 17.4361 7.2912 16.2097C7.2912 15.2305 6.6576 14.4097 5.784 14.1169ZM5.0832 17.2369C4.5192 17.2369 4.0608 16.7785 4.0608 16.2097C4.0608 15.6385 4.5192 15.1801 5.0832 15.1801C5.6472 15.1801 6.1056 15.6385 6.1056 16.2097C6.1056 16.7761 5.6472 17.2369 5.0832 17.2369Z" fill="currentColor"/>
<path d="M9.70801 10.0104L9.84961 10.308L10.0776 10.176L9.85201 9.91443L9.70801 10.0104Z" fill="currentColor"/>
<path d="M10.0056 9.60003C9.9792 9.56163 9.9264 9.54963 9.888 9.57603L9.336 9.93603C9.2976 9.96243 9.2856 10.0152 9.312 10.0536C9.3288 10.0776 9.3552 10.092 9.384 10.092C9.4008 10.092 9.4152 10.0872 9.4296 10.0776L9.9816 9.71763C10.02 9.69363 10.0296 9.64083 10.0056 9.60003Z" fill="currentColor"/>
<path d="M0.540004 16.0896H2.2392V14.4216H0.0144043V15.5664C0.0144043 15.8544 0.249604 16.0896 0.540004 16.0896Z" fill="currentColor"/>
<path d="M2.51038 14.436H2.90398C2.74558 14.6304 2.61358 14.8488 2.51038 15.0816V14.436Z" fill="currentColor"/>
<path d="M5.08317 16.6392C4.85037 16.6392 4.66077 16.4496 4.66077 16.2144C4.66077 15.9792 4.85037 15.7872 5.08317 15.7872C5.31597 15.7872 5.50557 15.9792 5.50557 16.2144C5.50557 16.4496 5.31597 16.6392 5.08317 16.6392Z" fill="currentColor"/>
<path d="M15.5136 14.1169C15.2928 14.0425 15.0576 13.9921 14.8128 13.9921C13.5936 13.9921 12.6024 14.9809 12.6024 16.2097C12.6024 16.4449 12.648 16.6681 12.7152 16.8793C13.0008 17.7769 13.8264 18.4321 14.8128 18.4321C16.032 18.4321 17.0208 17.4361 17.0208 16.2097C17.0184 15.2305 16.3872 14.4097 15.5136 14.1169ZM14.8104 17.2369C14.2464 17.2369 13.788 16.7785 13.788 16.2097C13.788 15.6385 14.2464 15.1801 14.8104 15.1801C15.3744 15.1801 15.8328 15.6385 15.8328 16.2097C15.8328 16.7761 15.3744 17.2369 14.8104 17.2369Z" fill="currentColor"/>
<path d="M14.7961 16.6392C14.5633 16.6392 14.3737 16.4496 14.3737 16.2144C14.3737 15.9792 14.5633 15.7872 14.7961 15.7872C15.0289 15.7872 15.2185 15.9792 15.2185 16.2144C15.2185 16.4496 15.0289 16.6392 14.7961 16.6392Z" fill="currentColor"/>
<path d="M11.352 11.3377L11.1 12.1753C11.1 12.1753 11.052 12.1801 10.968 12.1849L10.2864 6.94806H10.6248V6.78966C10.6248 6.69126 10.5456 6.61206 10.4472 6.61206H6.0216C5.9232 6.61206 5.844 6.69126 5.844 6.78966V6.94806H6.4536L6.3144 10.1233C6.3096 10.1233 6.3072 10.1209 6.3024 10.1209C5.88 10.0969 5.628 10.1017 5.496 10.1089V9.97446H5.0928C5.0928 9.97446 5.0832 9.53046 5.0832 9.40566C5.0832 9.29046 5.016 9.08886 4.8504 8.96166C4.6848 8.83206 4.3392 8.80806 4.3392 8.80806L4.3488 9.42006C4.4448 9.42006 4.5168 9.46806 4.5168 9.57606C4.5168 9.67926 4.5144 9.97686 4.5144 9.97686H4.3344L4.3368 10.4113L1.8672 11.1001C1.2552 11.2921 0.7416 11.7145 0.4368 12.2809L0 13.8169C0 14.0089 0.156 14.1673 0.3504 14.1673H3.1584C3.6624 13.6921 4.3392 13.3969 5.0832 13.3969C5.376 13.3969 5.6688 13.4473 5.9784 13.5529C6.3696 13.6849 6.7152 13.8961 7.0032 14.1673H10.2528C10.9656 14.1673 11.544 13.5889 11.544 12.8761V11.3377H11.352ZM9.9936 6.94806L10.4592 10.5193L10.296 10.2145L9.5952 10.6465L9.696 10.8721L7.872 10.4593C7.8648 10.4233 7.8576 10.3873 7.848 10.3513C7.7544 10.0513 7.548 9.78726 7.4904 9.56166C7.4328 9.33606 7.4856 9.15366 7.3344 9.15366C7.2144 9.15366 7.2072 9.22326 7.2072 9.24246C7.2072 9.25206 7.2072 9.79446 7.2072 10.3105L7.0824 10.2817L7.02 6.94806H9.9936ZM8.7792 11.8393C8.28 11.5561 7.7424 11.0185 7.2456 10.6201L10.5696 11.3713L10.6776 12.1945C10.1736 12.1993 9.336 12.1537 8.7792 11.8393Z" fill="currentColor"/>
<path d="M5.81524 5.95201C5.81524 5.84641 5.72884 5.76001 5.62324 5.76001H5.52244C5.41684 5.76001 5.33044 5.84641 5.33044 5.95201V6.34801H5.50804V6.82801H5.64724V6.34801H5.81524V5.95201Z" fill="currentColor"/>
<path d="M18.4872 14.9496C18.492 14.9424 18.4944 14.9352 18.4968 14.9256L19.1784 12.5472C19.1952 12.492 19.176 12.4296 19.1304 12.3936L18.996 12.2808C18.9312 12.228 18.8376 12.2376 18.7848 12.3024L18.7656 12.3264V12.324L16.728 12.0264L16.7424 11.9304L13.4736 11.4528L13.4232 11.4264C13.3944 11.3328 13.3104 11.2656 13.2072 11.2656H12.432C12.3072 11.2656 12.2064 11.3664 12.2064 11.4912V14.2416H10.9584V14.8176H10.0704V14.4384H7.25757C7.65837 14.928 7.89357 15.552 7.89357 16.2168C7.89357 16.4712 7.85757 16.716 7.79517 16.9488H10.0728V16.3272H10.9608V16.6464H12.3456C12.3168 16.4976 12.3 16.356 12.3 16.2144C12.3 15.3336 12.7536 14.5584 13.44 14.1072V12.5688L15.0528 13.7088C15.2304 13.728 15.4104 13.7688 15.5976 13.8336C16.3224 14.076 16.8768 14.628 17.1384 15.312L18.8928 17.6472L19.6896 18.1776L18.4872 14.9496ZM18.912 12.4536C18.9816 12.4536 19.0368 12.5088 19.0368 12.5784C19.0368 12.648 18.9816 12.7032 18.912 12.7032C18.8424 12.7032 18.7872 12.648 18.7872 12.5784C18.7872 12.5088 18.8424 12.4536 18.912 12.4536ZM14.7336 12.1176L16.6776 12.4008L16.692 12.3048L18.5688 12.5784L17.6928 13.6824L14.7336 12.1176Z" fill="currentColor"/>
<path d="M24 15.78L23.8656 15.708L23.316 15.9336L19.068 14.3832L19.0392 15.096L19.9752 17.3592L20.8872 18.024C21.1368 18.2064 21.48 18.1824 21.7032 17.9712L24 15.78Z" fill="currentColor"/>
</g>
<defs>
<clipPath id="clip0_1422_953">
<rect width="24" height="12.672" fill="currentColor" transform="translate(0 5.76001)"/>
</clipPath>
</defs>
</svg>
