<svg width="24" height="24" viewBox="0 0 24 24" fill="currentColor" xmlns="http://www.w3.org/2000/svg">
<g clip-path="url(#clip0_1437_2446)">
<path d="M22.2576 16.0221C21.8256 15.2517 21.0048 14.7285 20.0616 14.7285C18.8304 14.7285 17.8056 15.6189 17.5896 16.7901C17.5632 16.9413 17.5464 17.0949 17.5464 17.2533C17.5464 18.6501 18.6768 19.7853 20.064 19.7853C21.4512 19.7853 22.5816 18.6501 22.5816 17.2533C22.5792 16.8069 22.4616 16.3869 22.2576 16.0221ZM20.0616 18.3597C19.4568 18.3597 18.9624 17.8653 18.9624 17.2533C18.9624 17.0877 19.0008 16.9317 19.0656 16.7901C19.2408 16.4109 19.62 16.1469 20.064 16.1469C20.2032 16.1469 20.3352 16.1757 20.4576 16.2213C20.8704 16.3797 21.1656 16.7781 21.1656 17.2533C21.1632 17.8653 20.6712 18.3597 20.0616 18.3597Z" fill="currentColor"/>
<path d="M16.8216 19.0533C16.7376 18.9045 16.5768 18.8013 16.3944 18.8013C16.1544 18.8013 15.9552 18.9741 15.9144 19.2021C15.9096 19.2309 15.9048 19.2621 15.9048 19.2909C15.9048 19.5621 16.1256 19.7829 16.3944 19.7829C16.6632 19.7829 16.884 19.5621 16.884 19.2909C16.884 19.2069 16.8624 19.1253 16.8216 19.0533ZM16.3944 19.5093C16.2768 19.5093 16.1808 19.4133 16.1808 19.2933C16.1808 19.2621 16.188 19.2309 16.2 19.2045C16.2336 19.1301 16.308 19.0797 16.3944 19.0797C16.4208 19.0797 16.4472 19.0845 16.4712 19.0941C16.5504 19.1253 16.608 19.2021 16.608 19.2957C16.6104 19.4133 16.5144 19.5093 16.3944 19.5093Z" fill="currentColor"/>
<path d="M10.8743 19.0533C10.7903 18.9045 10.6295 18.8013 10.4471 18.8013C10.2071 18.8013 10.0079 18.9741 9.96712 19.2021C9.96232 19.2309 9.95752 19.2621 9.95752 19.2909C9.95752 19.5621 10.1783 19.7829 10.4471 19.7829C10.7159 19.7829 10.9367 19.5621 10.9367 19.2909C10.9367 19.2069 10.9151 19.1253 10.8743 19.0533ZM10.4471 19.5093C10.3295 19.5093 10.2335 19.4133 10.2335 19.2933C10.2335 19.2621 10.2407 19.2309 10.2527 19.2045C10.2863 19.1301 10.3607 19.0797 10.4471 19.0797C10.4735 19.0797 10.4999 19.0845 10.5239 19.0941C10.6031 19.1253 10.6607 19.2021 10.6607 19.2957C10.6607 19.4133 10.5647 19.5093 10.4471 19.5093Z" fill="currentColor"/>
<path d="M5.17179 8.26302H4.88379C4.88379 8.26302 4.88379 4.52382 4.88379 4.48782C4.88379 4.45182 4.89819 4.31982 5.12619 4.31982C5.41659 4.31982 5.31579 4.66782 5.42379 5.09982C5.53179 5.53182 5.92779 6.03342 6.10779 6.60942C6.28779 7.18542 6.10779 7.90302 6.10779 7.90302C6.10779 7.90302 5.92779 8.26302 6.25179 8.33502C6.57579 8.40702 8.73339 8.66382 9.01899 8.70462C9.43899 8.76702 9.49419 9.03822 9.43659 9.25902C9.37179 9.50862 9.23499 9.59262 8.94939 9.59262C8.66139 9.59262 6.03819 9.55662 6.03819 9.55662C6.03819 9.55662 5.17179 9.59503 5.17179 8.26302Z" fill="currentColor"/>
<path d="M15.696 19.1638C15.7584 18.8254 16.0536 18.5806 16.3944 18.5806C16.4016 18.5806 16.4088 18.583 16.4184 18.583V18.2998H10.4424V18.583C10.4448 18.583 10.4448 18.583 10.4472 18.583C10.704 18.583 10.9416 18.7222 11.0688 18.9478C11.1288 19.0534 11.16 19.1734 11.16 19.2958C11.16 19.4062 11.1336 19.5094 11.0904 19.603H15.756C15.7104 19.5094 15.6864 19.4062 15.6864 19.2958C15.684 19.2526 15.6888 19.2094 15.696 19.1638Z" fill="currentColor"/>
<path d="M15.7846 17.1382H11.1694V18.067H15.7846V17.1382Z" fill="currentColor"/>
<path d="M5.85346 12.4438C4.55266 12.4438 3.41026 13.1254 2.76466 14.155L0.595058 12.9886C0.398258 12.8854 0.153458 12.9598 0.0478576 13.1542C-0.0577424 13.351 0.0166576 13.5934 0.211058 13.699L2.41186 14.8798C2.27506 15.2638 2.20066 15.679 2.20066 16.1086C2.20066 18.139 3.83746 19.783 5.85346 19.783C7.86946 19.783 9.50386 18.139 9.50386 16.1086C9.50386 14.083 7.87186 12.4438 5.85346 12.4438ZM0.578258 13.4398C0.527858 13.5334 0.412658 13.567 0.319058 13.5166C0.225458 13.4662 0.191858 13.351 0.242258 13.2574C0.292658 13.1638 0.407858 13.1302 0.501458 13.1806C0.595058 13.231 0.628658 13.3462 0.578258 13.4398ZM5.85346 17.8126C4.91986 17.8126 4.16146 17.0518 4.16146 16.111C4.16146 15.1678 4.91986 14.4118 5.85346 14.4118C6.78466 14.4118 7.54546 15.1702 7.54546 16.111C7.54546 17.0494 6.78466 17.8126 5.85346 17.8126Z" fill="currentColor"/>
<path d="M23.9926 13.922V11.1164H23.467V13.922H22.5262C22.519 12.7916 22.4878 11.0468 22.4014 10.4588C22.2406 9.38363 15.595 9.19403 13.795 9.05963L13.1734 9.24203L13.0918 9.30683L12.5902 8.72363L12.115 9.04043L12.523 9.89723C12.3406 10.1732 12.1462 10.4948 12.1462 10.4948L13.459 12.8132L13.4614 12.8084L13.4638 12.8252H16.5238C16.5502 12.8252 17.1958 12.83 17.7022 13.3556C17.875 13.5332 18.2422 13.958 18.6526 14.4404L18.6502 14.4428C19.0654 14.2436 19.5286 14.1356 20.0158 14.1356C21.3502 14.1356 22.4974 14.9492 22.9942 16.1108H23.9998V13.922H23.9926Z" fill="currentColor"/>
<path d="M13.0943 7.68696C13.0079 7.55736 12.8351 7.52136 12.7055 7.60536L10.8791 8.80056C10.7495 8.88696 10.7135 9.05976 10.7975 9.18936C10.8527 9.27096 10.9415 9.31656 11.0327 9.31656C11.0855 9.31656 11.1383 9.30216 11.1863 9.27096L13.0127 8.07576C13.1423 7.99176 13.1783 7.81656 13.0943 7.68696Z" fill="currentColor"/>
<path d="M17.3974 13.6532C17.0134 13.2548 16.5262 13.25 16.5214 13.25H11.9038C11.839 13.106 11.7694 12.962 11.6926 12.8252H11.695C11.3806 12.2444 10.5742 11.6708 9.80383 11.2244L9.44383 9.9668H5.64463L5.65423 9.9692L5.59903 9.9668C5.42623 9.9692 5.15263 9.9812 5.00623 9.998C4.04143 10.1036 3.12463 10.4708 2.35423 11.0492C2.21263 11.1548 2.18383 11.354 2.28943 11.4956C2.39503 11.6372 2.59423 11.666 2.73343 11.558C3.41503 11.0468 4.22623 10.7276 5.07583 10.6316C7.69663 10.3436 10.0582 12.2468 10.3462 14.87C10.3462 14.8868 10.3558 14.9036 10.3606 14.9228L10.6294 16.9004H14.3998V16.9052H16.819C16.9582 15.9596 17.5054 15.1484 18.2734 14.6516C17.8918 14.2028 17.5534 13.814 17.3974 13.6532Z" fill="currentColor"/>
</g>
<defs>
<clipPath id="clip0_1437_2446">
<rect width="24" height="15.4656" fill="currentColor" transform="translate(0 4.31982)"/>
</clipPath>
</defs>
</svg>
