<svg width="24" height="24" viewBox="0 0 24 24" fill="currentColor" xmlns="http://www.w3.org/2000/svg">
<g clip-path="url(#clip0_1431_3408)">
<path d="M4.6032 9.63361C2.0616 9.63361 0 11.6976 0 14.2512C0 16.8096 2.0616 18.8808 4.6032 18.8808C7.1448 18.8808 9.204 16.8096 9.204 14.2512C9.2016 11.6976 7.1448 9.63361 4.6032 9.63361ZM4.6032 16.3944C3.4272 16.3944 2.472 15.4344 2.472 14.2512C2.472 13.0632 3.4272 12.1104 4.6032 12.1104C5.7768 12.1104 6.7344 13.0656 6.7344 14.2512C6.732 15.4344 5.7768 16.3944 4.6032 16.3944Z" fill="currentColor"/>
<path d="M19.5312 13.0296C18.1056 13.0296 16.9176 14.0616 16.6656 15.4176C16.6344 15.5928 16.6152 15.7704 16.6152 15.9528C16.6152 17.5704 17.9256 18.888 19.5312 18.888C21.1392 18.888 22.4472 17.5728 22.4472 15.9528C22.4472 15.4344 22.3104 14.9496 22.0752 14.5272C21.576 13.6344 20.6256 13.0296 19.5312 13.0296ZM19.5312 17.2368C18.8304 17.2368 18.2568 16.6632 18.2568 15.9528C18.2568 15.7608 18.3 15.5808 18.3768 15.4176C18.5784 14.9784 19.02 14.6712 19.5312 14.6712C19.692 14.6712 19.8456 14.7048 19.9872 14.7576C20.4648 14.9424 20.808 15.4032 20.808 15.9528C20.808 16.6632 20.2368 17.2368 19.5312 17.2368Z" fill="currentColor"/>
<path d="M10.4353 11.3232C10.3633 11.16 10.2841 10.9992 10.2001 10.8456H10.2025C9.89051 10.2648 9.48251 9.74878 9.00731 9.30478C8.94971 9.32878 8.87771 9.34078 8.78651 9.34078C8.87771 9.34078 8.94971 9.33118 9.00731 9.30478C9.09851 9.26638 9.15131 9.19198 9.18491 9.06718C9.23291 8.88718 9.18731 8.66638 8.84411 8.61598C8.74331 8.60158 8.35931 8.55358 7.93451 8.50078C7.37291 8.42878 6.73931 8.34718 6.58811 8.31358C6.32411 8.25598 6.47051 7.96078 6.47051 7.96078C6.47051 7.96078 6.48011 7.92718 6.48971 7.86958C6.52331 7.68718 6.58331 7.26238 6.47051 6.90478C6.32411 6.43678 6.00251 6.02638 5.91371 5.67358C5.82971 5.32318 5.91131 5.03998 5.67371 5.03998C5.48651 5.03998 5.47691 5.14798 5.47691 5.17678C5.47691 5.19838 5.47691 6.78718 5.47691 7.67278C5.45051 7.67038 5.42411 7.66558 5.39531 7.66318L4.83611 7.64398L4.17131 7.67518C3.09851 7.79758 2.08091 8.20558 1.22171 8.85118C1.06331 8.96878 1.03211 9.19438 1.14971 9.35278C1.26971 9.51118 1.49051 9.54238 1.64891 9.42478C2.41211 8.85118 3.32171 8.49358 4.27691 8.38558C4.76891 8.33278 5.25371 8.34718 5.71931 8.42398C6.52811 8.55598 7.28171 8.87038 7.93451 9.33118C9.15131 10.188 10.0105 11.544 10.1857 13.14C10.1857 13.1592 10.1953 13.1784 10.2025 13.1976L10.6129 16.2216H12.4489V15.42H15.9481C16.1065 14.3616 16.7185 13.4496 17.5777 12.8928L18.0001 12.6576C18.4657 12.4344 18.9841 12.312 19.5313 12.312C21.0289 12.312 22.3153 13.2264 22.8697 14.5272H23.9977V12.0744H22.3441C22.3369 10.8072 22.3009 9.32158 22.2049 8.66158C22.0249 7.45678 13.7569 7.07278 13.2505 7.09438C12.7441 7.11358 12.5545 7.30078 12.5545 7.30078L12.1753 7.59598C12.1033 7.53598 12.0385 7.49758 11.9881 7.48558C11.7265 7.44238 11.4673 7.45678 11.3209 7.47118L11.3617 7.43278L11.2969 7.30078C11.3209 7.25518 11.3233 7.19518 11.3041 7.14238C11.2633 7.04878 11.2393 6.94798 11.2273 6.84478L11.4793 6.58798C11.5465 6.52078 11.5441 6.41278 11.4769 6.34558L11.4481 6.31918C11.3857 6.26158 11.2873 6.25438 11.2105 6.32638L9.83531 7.73758C9.79691 7.76878 9.77771 7.81918 9.78011 7.86238C9.78011 7.90798 9.79931 7.95118 9.83291 7.98718L9.85211 8.00398C9.88331 8.03758 9.92891 8.05678 9.97451 8.05678C10.0201 8.05678 10.0609 8.03998 10.0969 8.00638L10.4353 7.66078C10.4929 7.70878 10.5553 7.75438 10.6177 7.79518C10.6705 7.82878 10.7377 7.83598 10.7977 7.80958L10.9345 7.87678V7.87438L12.8785 10.836L12.8809 10.8288L12.8833 10.848L10.4353 11.3232Z" fill="currentColor"/>
</g>
<defs>
<clipPath id="clip0_1431_3408">
<rect width="24" height="13.848" fill="currentColor" transform="translate(0 5.03998)"/>
</clipPath>
</defs>
</svg>
