<svg width="24" height="24" viewBox="0 0 24 24" fill="currentColor" xmlns="http://www.w3.org/2000/svg">
<g clip-path="url(#clip0_1437_2442)">
<path d="M13.0609 14.0156C12.0745 14.0156 11.2513 14.7284 11.0785 15.6692C11.0569 15.7892 11.0425 15.914 11.0425 16.0388C11.0425 17.1596 11.9497 18.0692 13.0609 18.0692C14.1745 18.0692 15.0793 17.1572 15.0793 16.0388C15.0793 15.6788 14.9857 15.3452 14.8225 15.0524C14.4769 14.4356 13.8169 14.0156 13.0609 14.0156ZM13.0609 16.9268C12.5761 16.9268 12.1777 16.5308 12.1777 16.0388C12.1777 15.9068 12.2065 15.782 12.2593 15.6692C12.3985 15.3644 12.7057 15.1532 13.0585 15.1532C13.1689 15.1532 13.2745 15.1772 13.3753 15.2132C13.7065 15.3404 13.9441 15.6596 13.9441 16.0412C13.9465 16.5308 13.5505 16.9268 13.0609 16.9268Z" fill="currentColor"/>
<path d="M2.9688 12.1079C1.5168 12.1079 0.3096 13.1567 0.0528 14.5391C0.0192 14.7167 0 14.8991 0 15.0839C0 16.7303 1.3344 18.0719 2.9688 18.0719C4.6056 18.0719 5.9376 16.7327 5.9376 15.0839C5.9376 14.5559 5.7984 14.0639 5.5584 13.6319C5.0496 12.7223 4.08 12.1079 2.9688 12.1079ZM2.9688 16.3895C2.256 16.3895 1.6704 15.8063 1.6704 15.0839C1.6704 14.8871 1.7136 14.7071 1.7928 14.5391C1.9992 14.0927 2.448 13.7807 2.9688 13.7807C3.132 13.7807 3.288 13.8143 3.432 13.8695C3.9168 14.0567 4.2672 14.5271 4.2672 15.0863C4.2672 15.8063 3.6864 16.3895 2.9688 16.3895Z" fill="currentColor"/>
<path d="M7.93437 10.2215C7.96317 10.2215 7.99437 10.2119 8.02077 10.1951L9.05517 9.51827C9.12957 9.47027 9.14877 9.37187 9.10077 9.29747C9.05277 9.22307 8.95437 9.20387 8.87997 9.25187L7.84557 9.92868C7.77117 9.97668 7.75197 10.0751 7.79997 10.1495C7.83117 10.1975 7.88397 10.2215 7.93437 10.2215Z" fill="currentColor"/>
<path d="M9.15363 6.23977V5.75977H2.01123L2.34483 6.23977H9.15363Z" fill="currentColor"/>
<path d="M19.3319 14.7117L19.6535 13.6941C19.6919 13.5717 19.6247 13.4421 19.5023 13.4037L19.3439 13.3533C19.2215 13.3149 19.0919 13.3821 19.0535 13.5045L18.8375 13.8981L16.9031 10.7013L10.9199 10.0485L10.8143 12.7725H10.4783L10.5959 10.9341L9.14873 6.54688H2.78393L2.54633 10.7853H1.93433V11.3133H5.43113L7.47113 14.8845H10.1015V14.8869H11.0351C11.2487 14.5101 11.5631 14.2005 11.9399 13.9941C11.9975 13.9629 12.0575 13.9341 12.1175 13.9077C12.1343 13.9005 12.1535 13.8909 12.1703 13.8837C12.1847 13.8789 12.1991 13.8717 12.2111 13.8669C12.2447 13.8549 12.2783 13.8405 12.3119 13.8309C12.3359 13.8237 12.3599 13.8141 12.3839 13.8069C12.4127 13.7973 12.4415 13.7877 12.4727 13.7805C12.5255 13.7661 12.5759 13.7541 12.6311 13.7445C12.6527 13.7397 12.6719 13.7373 12.6935 13.7349C12.7343 13.7277 12.7775 13.7229 12.8207 13.7181C12.8399 13.7157 12.8591 13.7133 12.8783 13.7133C12.9383 13.7085 13.0007 13.7061 13.0631 13.7061C13.9055 13.7061 14.6855 14.1645 15.1007 14.9061C15.1223 14.9445 15.1439 14.9853 15.1631 15.0261C15.1751 15.0501 15.1847 15.0717 15.1943 15.0957C15.2015 15.1125 15.2087 15.1269 15.2159 15.1437C15.2303 15.1749 15.2423 15.2085 15.2543 15.2397C15.2567 15.2469 15.2591 15.2517 15.2615 15.2589C15.2759 15.2949 15.2879 15.3333 15.2975 15.3717H15.5519V12.7749H11.9399H11.5535L11.5559 12.7173L13.1615 12.2733L13.2191 12.4437L15.4823 11.8173L16.0199 11.9493L19.7879 16.6293V15.4629L19.3319 14.7117ZM19.3079 13.5477C19.3871 13.5477 19.4495 13.6125 19.4495 13.6893C19.4495 13.7685 19.3847 13.8309 19.3079 13.8309C19.2287 13.8309 19.1663 13.7661 19.1663 13.6893C19.1663 13.6125 19.2311 13.5477 19.3079 13.5477ZM6.86393 10.7829C6.87353 10.7637 6.88073 10.7445 6.88553 10.7229C6.91433 10.6077 6.88553 10.4685 6.66953 10.4349C6.52073 10.4133 5.40233 10.2789 5.23433 10.2429C5.06633 10.2045 5.15993 10.0197 5.15993 10.0197C5.15993 10.0197 5.25353 9.64768 5.15993 9.34768C5.06633 9.05008 4.86233 8.78848 4.80473 8.56528C4.75193 8.34208 4.80473 8.15968 4.65353 8.15968C4.53593 8.15968 4.52873 8.22928 4.52873 8.24848C4.52873 8.26768 4.52873 10.2069 4.52873 10.2069H4.67753C4.67753 10.5309 4.77593 10.6989 4.88153 10.7853H3.07433L3.28313 7.07488H8.76953L9.76793 10.1013C9.64073 10.0917 9.52073 10.0821 9.50153 10.0797L9.14873 10.1829L9.10313 10.2189L8.81753 9.88768L8.54873 10.0677L8.77913 10.5525C8.67593 10.7085 8.56553 10.8909 8.56553 10.8909L8.84393 11.3805H7.25753L6.91433 10.7829H6.86393ZM7.37993 11.5965H8.96633L9.30953 12.2037L9.31193 12.2013L9.83993 13.1685L8.29433 13.1877L7.37993 11.5965ZM13.0247 11.8701L13.0871 12.0573L13.0607 12.0429L11.5631 12.4605L11.6255 10.8669L14.2751 11.5197L13.0247 11.8701Z" fill="currentColor"/>
<path d="M22.7209 16.2451C21.7801 15.6763 20.8369 14.2939 20.8369 14.2939L20.0425 14.7739C20.0425 14.7739 20.0521 15.5299 20.0521 16.3627C20.0521 17.1955 20.3065 17.4331 20.6401 17.6875C20.9737 17.9419 21.4537 17.8243 21.7585 17.7067C22.0633 17.5891 23.1505 17.0107 23.1505 17.0107L22.3177 16.5691C22.3177 16.5691 22.4473 16.4419 22.7209 16.2451Z" fill="currentColor"/>
<path d="M23.1264 16.166L22.5984 16.5068L23.472 16.9748L24 16.634L23.1264 16.166Z" fill="currentColor"/>
<path d="M7.19515 15.0383L5.24635 11.6279H3.11035V11.7959C4.24075 11.8463 5.27515 12.4799 5.83435 13.4783C6.10795 13.9703 6.25195 14.5247 6.25195 15.0839C6.25195 15.1775 6.24715 15.2711 6.23995 15.3647H6.87595V15.6911H10.6728V15.1919H7.28155L7.19515 15.0383Z" fill="currentColor"/>
</g>
<defs>
<clipPath id="clip0_1437_2442">
<rect width="24" height="12.312" fill="currentColor" transform="translate(0 5.75977)"/>
</clipPath>
</defs>
</svg>
