<svg width="24" height="24" viewBox="0 0 24 24" fill="currentColor" xmlns="http://www.w3.org/2000/svg">
<path d="M12.7896 13.8409L12.792 13.8337C12.7872 13.8337 12.7848 13.8361 12.78 13.8361L12.7896 13.8409Z" fill="currentColor"/>
<path d="M1.524 16.7257C1.524 18.0841 2.6184 19.1905 3.972 19.1905C5.064 19.1905 5.9784 18.4633 6.2952 17.4673C6.3696 17.2321 6.42 16.9849 6.42 16.7257C6.42 15.3649 5.3232 14.2681 3.972 14.2681C3.7008 14.2681 3.4392 14.3233 3.1944 14.4073C2.2272 14.7313 1.524 15.6385 1.524 16.7257ZM2.8392 16.7257C2.8392 16.0945 3.348 15.5857 3.972 15.5857C4.596 15.5857 5.1048 16.0945 5.1048 16.7257C5.1048 17.3545 4.596 17.8633 3.972 17.8633C3.348 17.8633 2.8392 17.3545 2.8392 16.7257Z" fill="currentColor"/>
<path d="M15.3456 16.7376C15.3456 18.096 16.44 19.2 17.7912 19.2C18.8832 19.2 19.7976 18.4728 20.1144 17.4768C20.1888 17.2416 20.2392 16.9944 20.2392 16.7352C20.2392 15.3744 19.1424 14.2776 17.7912 14.2776C17.52 14.2776 17.2584 14.3328 17.0136 14.4168C16.0464 14.7432 15.3456 15.6504 15.3456 16.7376ZM16.6584 16.7376C16.6584 16.1064 17.1672 15.5976 17.7912 15.5976C18.4152 15.5976 18.924 16.1064 18.924 16.7376C18.924 17.3664 18.4152 17.8752 17.7912 17.8752C17.1672 17.8752 16.6584 17.3664 16.6584 16.7376Z" fill="currentColor"/>
<path d="M6.97644 17.5044L14.4836 17.5044L14.4836 15.2292L6.97644 15.2292L6.97644 17.5044Z" fill="currentColor"/>
<path d="M20.9496 17.0112H23.9064V14.4768H20.5824L20.9496 17.0112Z" fill="currentColor"/>
<path d="M6.88801 8.52492C6.86161 8.42652 6.76081 8.36892 6.66481 8.39532L3.07921 9.34332L2.136 10.0033C2.052 10.0609 2.0328 10.1761 2.0904 10.2577C2.1264 10.3081 2.184 10.3369 2.24161 10.3369C2.27761 10.3369 2.3136 10.3273 2.3472 10.3033L3.23761 9.67932L4.08721 9.45372L4.23841 10.0129L4.80241 9.97452L5.11681 9.37692L5.04961 9.20172L6.75841 8.75052C6.85441 8.72172 6.91201 8.62332 6.88801 8.52492Z" fill="currentColor"/>
<path d="M23.8176 7.64405C23.7168 7.64405 23.6352 7.72565 23.6352 7.82645V9.15365L23.2728 9.53765L23.1432 11.3784L23.0616 10.4856L21.0888 4.80005H15.0792V12.7224L14.1336 13.9896H13.1544V13.3776H13.152C13.1352 13.1232 12.9264 12.9192 12.6672 12.9192C12.408 12.9192 12.1968 13.1232 12.1824 13.3776H12.18V13.9896H7.26L6.9456 13.7616V12.4824H6.768V10.9584L11.8224 13.392C11.8224 13.3776 11.8176 13.3632 11.8176 13.3488C11.8176 13.0968 11.9448 12.8736 12.1392 12.7368L5.3328 9.50165L5.0112 10.1208L6.2688 10.7232V12.4824H6.0912V13.1496L6.048 13.1184H1.8264L0 14.9424V17.1984L0.792 17.2296V15.2568L2.1672 13.8816H5.94L6.948 14.7528H14.4816L15.588 13.2624H19.5936L20.304 13.9728H23.376L23.3448 13.644L23.6232 9.69365L23.9952 9.29765V7.82645C24 7.72565 23.9184 7.64405 23.8176 7.64405ZM12.6648 13.6248C12.54 13.6248 12.4368 13.524 12.4368 13.3968C12.4368 13.2696 12.5376 13.1688 12.6648 13.1688C12.7896 13.1688 12.8928 13.2696 12.8928 13.3968C12.8928 13.524 12.7896 13.6248 12.6648 13.6248ZM16.4088 9.29525V5.94725H19.6656V9.29525H16.4088ZM20.2152 9.29525V5.94725H20.628L21.8664 9.79925L20.2152 9.29525Z" fill="currentColor"/>
<path d="M23.22 9.16077C23.3208 9.16077 23.4024 9.07917 23.4024 8.97837V6.77517C23.4024 6.67437 23.3208 6.59277 23.22 6.59277C23.1192 6.59277 23.0376 6.67437 23.0376 6.77517V8.97597C23.0376 9.07677 23.1192 9.16077 23.22 9.16077Z" fill="currentColor"/>
</svg>
