<svg width="24" height="24" viewBox="0 0 24 24" fill="currentColor" xmlns="http://www.w3.org/2000/svg">
<g clip-path="url(#clip0_1421_1628)">
<path d="M15.7272 15.9336C15.7272 16.6704 16.32 17.268 17.0544 17.268C17.6472 17.268 18.1416 16.8744 18.3144 16.3344C18.3552 16.2072 18.3816 16.0728 18.3816 15.9336C18.3816 15.1968 17.7864 14.6016 17.0544 14.6016C16.9056 14.6016 16.7664 14.6304 16.632 14.676C16.1088 14.8536 15.7272 15.3456 15.7272 15.9336ZM16.44 15.9336C16.44 15.5904 16.716 15.3144 17.0544 15.3144C17.3928 15.3144 17.6688 15.5904 17.6688 15.9336C17.6688 16.2744 17.3928 16.5504 17.0544 16.5504C16.716 16.5504 16.44 16.2744 16.44 15.9336Z" fill="currentColor"/>
<path d="M3.0528 15.9336C3.0528 16.6704 3.6456 17.268 4.38 17.268C4.9728 17.268 5.4672 16.8744 5.64 16.3344C5.6808 16.2072 5.7072 16.0728 5.7072 15.9336C5.7072 15.1968 5.112 14.6016 4.38 14.6016C4.2312 14.6016 4.092 14.6304 3.9576 14.676C3.4344 14.8536 3.0528 15.3456 3.0528 15.9336ZM3.7656 15.9336C3.7656 15.5904 4.0416 15.3144 4.38 15.3144C4.7184 15.3144 4.9944 15.5904 4.9944 15.9336C4.9944 16.2744 4.7184 16.5504 4.38 16.5504C4.0416 16.5504 3.7656 16.2744 3.7656 15.9336Z" fill="currentColor"/>
<path d="M7.68721 13.5312H7.41841C7.30801 13.5312 7.21921 13.62 7.21921 13.7304V14.2657H7.88881V13.7304C7.88641 13.6224 7.79761 13.5312 7.68721 13.5312ZM7.55281 14.0185C7.44721 14.0185 7.36081 13.9321 7.36081 13.8265C7.36081 13.7209 7.44721 13.6345 7.55281 13.6345C7.65841 13.6345 7.74481 13.7209 7.74481 13.8265C7.74481 13.9321 7.65841 14.0185 7.55281 14.0185Z" fill="currentColor"/>
<path d="M20.8416 11.4957L20.9544 11.7309L21.1344 11.6277L20.9544 11.4189L20.8416 11.4957Z" fill="currentColor"/>
<path d="M21.0768 11.1695C21.0552 11.1383 21.0144 11.1287 20.9832 11.1503L20.5464 11.4359C20.5152 11.4575 20.5056 11.4983 20.5272 11.5295C20.5392 11.5487 20.5608 11.5607 20.5848 11.5607C20.5968 11.5607 20.6112 11.5583 20.6208 11.5487L21.0576 11.2631C21.0888 11.2439 21.0984 11.2007 21.0768 11.1695Z" fill="currentColor"/>
<path d="M24 14.9594H23.364V14.5442H22.8312V13.241C22.8312 13.1762 22.8168 13.1138 22.7856 13.0586L21.0984 9.84743C21.0312 9.71783 20.8968 9.63623 20.7504 9.63623H18.4296C18.2112 9.63623 18.036 9.81383 18.036 10.0298V13.1642C18.036 13.2242 18.0504 13.2842 18.0768 13.3394L19.26 15.725C19.3272 15.8594 19.464 15.9434 19.6128 15.9434H22.3536V16.181H23.364V15.6986H24V14.9594ZM18.4776 11.777V10.241C18.4776 10.1402 18.5592 10.0562 18.6624 10.0562H20.6256C20.6976 10.0562 20.7624 10.097 20.7936 10.1642L21.612 11.945C21.648 12.0242 21.624 12.1106 21.564 12.161L21.3072 11.6546L20.7504 12.0002L20.8224 12.1538L19.1232 12.0026C19.1328 11.9546 19.1712 11.7578 19.1208 11.597C19.0632 11.4122 18.936 11.249 18.9 11.1098C18.8664 10.9706 18.8976 10.8578 18.804 10.8578C18.7296 10.8578 18.7248 10.901 18.7248 10.913C18.7248 10.9226 18.7248 11.6378 18.7248 11.9666L18.6408 11.9594C18.5496 11.9522 18.4776 11.873 18.4776 11.777ZM19.6536 12.6794H18.9864V12.4346H19.6536V12.6794Z" fill="currentColor"/>
<path d="M2.7576 11.1839C2.85436 11.1839 2.9328 11.1055 2.9328 11.0087C2.9328 10.9119 2.85436 10.8335 2.7576 10.8335C2.66084 10.8335 2.5824 10.9119 2.5824 11.0087C2.5824 11.1055 2.66084 11.1839 2.7576 11.1839Z" fill="currentColor"/>
<path d="M3.36239 11.0687C3.45916 11.0687 3.53759 10.9902 3.53759 10.8935C3.53759 10.7967 3.45916 10.7183 3.36239 10.7183C3.26563 10.7183 3.18719 10.7967 3.18719 10.8935C3.18719 10.9902 3.26563 11.0687 3.36239 11.0687Z" fill="currentColor"/>
<path d="M3.96481 10.951C4.06157 10.951 4.14001 10.8725 4.14001 10.7758C4.14001 10.679 4.06157 10.6006 3.96481 10.6006C3.86805 10.6006 3.78961 10.679 3.78961 10.7758C3.78961 10.8725 3.86805 10.951 3.96481 10.951Z" fill="currentColor"/>
<path d="M4.5672 10.8358C4.66396 10.8358 4.7424 10.7573 4.7424 10.6606C4.7424 10.5638 4.66396 10.4854 4.5672 10.4854C4.47044 10.4854 4.392 10.5638 4.392 10.6606C4.392 10.7573 4.47044 10.8358 4.5672 10.8358Z" fill="currentColor"/>
<path d="M5.16958 10.7205C5.26634 10.7205 5.34478 10.6421 5.34478 10.5453C5.34478 10.4486 5.26634 10.3701 5.16958 10.3701C5.07282 10.3701 4.99438 10.4486 4.99438 10.5453C4.99438 10.6421 5.07282 10.7205 5.16958 10.7205Z" fill="currentColor"/>
<path d="M5.77441 10.6028C5.87117 10.6028 5.94961 10.5244 5.94961 10.4276C5.94961 10.3309 5.87117 10.2524 5.77441 10.2524C5.67765 10.2524 5.59921 10.3309 5.59921 10.4276C5.59921 10.5244 5.67765 10.6028 5.77441 10.6028Z" fill="currentColor"/>
<path d="M6.3768 10.4876C6.47356 10.4876 6.552 10.4092 6.552 10.3124C6.552 10.2156 6.47356 10.1372 6.3768 10.1372C6.28004 10.1372 6.2016 10.2156 6.2016 10.3124C6.2016 10.4092 6.28004 10.4876 6.3768 10.4876Z" fill="currentColor"/>
<path d="M6.97919 10.3704C7.07595 10.3704 7.15439 10.292 7.15439 10.1952C7.15439 10.0985 7.07595 10.02 6.97919 10.02C6.88243 10.02 6.80399 10.0985 6.80399 10.1952C6.80399 10.292 6.88243 10.3704 6.97919 10.3704Z" fill="currentColor"/>
<path d="M7.5816 10.2552C7.67836 10.2552 7.7568 10.1767 7.7568 10.08C7.7568 9.98322 7.67836 9.90479 7.5816 9.90479C7.48484 9.90479 7.4064 9.98322 7.4064 10.08C7.4064 10.1767 7.48484 10.2552 7.5816 10.2552Z" fill="currentColor"/>
<path d="M8.18637 10.14C8.28313 10.14 8.36157 10.0615 8.36157 9.96475C8.36157 9.86799 8.28313 9.78955 8.18637 9.78955C8.08961 9.78955 8.01117 9.86799 8.01117 9.96475C8.01117 10.0615 8.08961 10.14 8.18637 10.14Z" fill="currentColor"/>
<path d="M8.78879 10.0223C8.88555 10.0223 8.96399 9.94384 8.96399 9.84708C8.96399 9.75031 8.88555 9.67188 8.78879 9.67188C8.69203 9.67188 8.61359 9.75031 8.61359 9.84708C8.61359 9.94384 8.69203 10.0223 8.78879 10.0223Z" fill="currentColor"/>
<path d="M9.3912 9.90704C9.48796 9.90704 9.5664 9.8286 9.5664 9.73184C9.5664 9.63508 9.48796 9.55664 9.3912 9.55664C9.29444 9.55664 9.216 9.63508 9.216 9.73184C9.216 9.8286 9.29444 9.90704 9.3912 9.90704Z" fill="currentColor"/>
<path d="M9.99362 9.78936C10.0904 9.78936 10.1688 9.71092 10.1688 9.61416C10.1688 9.5174 10.0904 9.43896 9.99362 9.43896C9.89686 9.43896 9.81842 9.5174 9.81842 9.61416C9.81842 9.71092 9.89686 9.78936 9.99362 9.78936Z" fill="currentColor"/>
<path d="M10.5984 9.67413C10.6952 9.67413 10.7736 9.59569 10.7736 9.49893C10.7736 9.40217 10.6952 9.32373 10.5984 9.32373C10.5017 9.32373 10.4232 9.40217 10.4232 9.49893C10.4232 9.59569 10.5017 9.67413 10.5984 9.67413Z" fill="currentColor"/>
<path d="M11.2008 9.5589C11.2975 9.5589 11.376 9.48046 11.376 9.3837C11.376 9.28694 11.2975 9.2085 11.2008 9.2085C11.104 9.2085 11.0256 9.28694 11.0256 9.3837C11.0256 9.48046 11.104 9.5589 11.2008 9.5589Z" fill="currentColor"/>
<path d="M11.8032 9.44122C11.9 9.44122 11.9784 9.36278 11.9784 9.26602C11.9784 9.16926 11.9 9.09082 11.8032 9.09082C11.7064 9.09082 11.628 9.16926 11.628 9.26602C11.628 9.36278 11.7064 9.44122 11.8032 9.44122Z" fill="currentColor"/>
<path d="M12.4056 9.32599C12.5024 9.32599 12.5808 9.24755 12.5808 9.15079C12.5808 9.05403 12.5024 8.97559 12.4056 8.97559C12.3088 8.97559 12.2304 9.05403 12.2304 9.15079C12.2304 9.24755 12.3088 9.32599 12.4056 9.32599Z" fill="currentColor"/>
<path d="M13.008 9.21124C13.1048 9.21124 13.1832 9.1328 13.1832 9.03604C13.1832 8.93928 13.1048 8.86084 13.008 8.86084C12.9113 8.86084 12.8328 8.93928 12.8328 9.03604C12.8328 9.1328 12.9113 9.21124 13.008 9.21124Z" fill="currentColor"/>
<path d="M13.6128 9.09356C13.7096 9.09356 13.788 9.01512 13.788 8.91836C13.788 8.8216 13.7096 8.74316 13.6128 8.74316C13.5161 8.74316 13.4376 8.8216 13.4376 8.91836C13.4376 9.01512 13.5161 9.09356 13.6128 9.09356Z" fill="currentColor"/>
<path d="M14.2152 8.97833C14.3119 8.97833 14.3904 8.89989 14.3904 8.80313C14.3904 8.70637 14.3119 8.62793 14.2152 8.62793C14.1184 8.62793 14.04 8.70637 14.04 8.80313C14.04 8.89989 14.1184 8.97833 14.2152 8.97833Z" fill="currentColor"/>
<path d="M14.8176 8.86065C14.9144 8.86065 14.9928 8.78221 14.9928 8.68545C14.9928 8.58869 14.9144 8.51025 14.8176 8.51025C14.7208 8.51025 14.6424 8.58869 14.6424 8.68545C14.6424 8.78221 14.7208 8.86065 14.8176 8.86065Z" fill="currentColor"/>
<path d="M15.42 8.74542C15.5168 8.74542 15.5952 8.66698 15.5952 8.57022C15.5952 8.47346 15.5168 8.39502 15.42 8.39502C15.3233 8.39502 15.2448 8.47346 15.2448 8.57022C15.2448 8.66698 15.3233 8.74542 15.42 8.74542Z" fill="currentColor"/>
<path d="M16.0248 8.63019C16.1216 8.63019 16.2 8.55175 16.2 8.45499C16.2 8.35822 16.1216 8.27979 16.0248 8.27979C15.928 8.27979 15.8496 8.35822 15.8496 8.45499C15.8496 8.55175 15.928 8.63019 16.0248 8.63019Z" fill="currentColor"/>
<path d="M16.6272 8.51251C16.724 8.51251 16.8024 8.43407 16.8024 8.33731C16.8024 8.24055 16.724 8.16211 16.6272 8.16211C16.5305 8.16211 16.452 8.24055 16.452 8.33731C16.452 8.43407 16.5305 8.51251 16.6272 8.51251Z" fill="currentColor"/>
<path d="M17.2296 8.39727C17.3263 8.39727 17.4048 8.31884 17.4048 8.22208C17.4048 8.12531 17.3263 8.04688 17.2296 8.04688C17.1328 8.04688 17.0544 8.12531 17.0544 8.22208C17.0544 8.31884 17.1328 8.39727 17.2296 8.39727Z" fill="currentColor"/>
<path d="M17.832 8.2796C17.9288 8.2796 18.0072 8.20116 18.0072 8.1044C18.0072 8.00764 17.9288 7.9292 17.832 7.9292C17.7352 7.9292 17.6568 8.00764 17.6568 8.1044C17.6568 8.20116 17.7352 8.2796 17.832 8.2796Z" fill="currentColor"/>
<path d="M18.4368 8.16436C18.5336 8.16436 18.612 8.08593 18.612 7.98916C18.612 7.8924 18.5336 7.81396 18.4368 7.81396C18.34 7.81396 18.2616 7.8924 18.2616 7.98916C18.2616 8.08593 18.34 8.16436 18.4368 8.16436Z" fill="currentColor"/>
<path d="M19.0392 8.04962C19.136 8.04962 19.2144 7.97118 19.2144 7.87442C19.2144 7.77766 19.136 7.69922 19.0392 7.69922C18.9425 7.69922 18.864 7.77766 18.864 7.87442C18.864 7.97118 18.9425 8.04962 19.0392 8.04962Z" fill="currentColor"/>
<path d="M19.6416 7.93194C19.7383 7.93194 19.8168 7.8535 19.8168 7.75674C19.8168 7.65998 19.7383 7.58154 19.6416 7.58154C19.5448 7.58154 19.4664 7.65998 19.4664 7.75674C19.4664 7.8535 19.5448 7.93194 19.6416 7.93194Z" fill="currentColor"/>
<path d="M20.244 7.81671C20.3407 7.81671 20.4192 7.73827 20.4192 7.64151C20.4192 7.54475 20.3407 7.46631 20.244 7.46631C20.1472 7.46631 20.0688 7.54475 20.0688 7.64151C20.0688 7.73827 20.1472 7.81671 20.244 7.81671Z" fill="currentColor"/>
<path d="M20.8488 7.69903C20.9455 7.69903 21.024 7.62059 21.024 7.52383C21.024 7.42707 20.9455 7.34863 20.8488 7.34863C20.752 7.34863 20.6736 7.42707 20.6736 7.52383C20.6736 7.62059 20.752 7.69903 20.8488 7.69903Z" fill="currentColor"/>
<path d="M21.4512 7.5838C21.548 7.5838 21.6264 7.50536 21.6264 7.4086C21.6264 7.31184 21.548 7.2334 21.4512 7.2334C21.3544 7.2334 21.276 7.31184 21.276 7.4086C21.276 7.50536 21.3544 7.5838 21.4512 7.5838Z" fill="currentColor"/>
<path d="M23.1384 7.37764C23.136 7.36804 23.1312 7.35844 23.1288 7.34884V7.34644C23.0304 6.92644 22.6152 6.65284 22.188 6.73684L1.8216 10.6584C1.3944 10.74 1.1112 11.148 1.176 11.5752C1.1784 11.5872 1.176 11.5968 1.1784 11.6088C1.2216 11.8272 1.3488 12.0096 1.5216 12.1248C1.5648 12.1536 1.6104 12.18 1.6584 12.1992C1.7544 12.24 1.8576 12.264 1.9656 12.264C2.0184 12.264 2.0736 12.2592 2.1288 12.2496L3.288 12.0264V12.5424C3.288 12.6528 3.3768 12.7416 3.4872 12.7416H3.756C3.8664 12.7416 3.9552 12.6528 3.9552 12.5424V11.8968L16.6152 9.45844L15.9048 10.4784L15.6576 10.308L12.96 14.4696H5.8032L5.8008 14.0856H2.5608V14.4696H0V16.3944H2.7792C2.736 16.248 2.712 16.0944 2.712 15.9336C2.712 15.2256 3.1632 14.5992 3.8328 14.376C4.0152 14.3136 4.1856 14.2848 4.356 14.2848C5.2584 14.2848 5.9928 15.0192 6 15.9216H8.3184V16.2336H12.096V15.9216H15.3864C15.3912 15.2208 15.84 14.5992 16.5072 14.376C16.6896 14.3136 16.86 14.2848 17.0304 14.2848C17.9328 14.2848 18.6672 15.0192 18.6744 15.9216H19.0032L18.0024 13.9824H15.8568L15.5616 14.472H14.172L16.6032 10.9536L16.4016 10.7976L17.4024 9.30964L22.4976 8.32804C22.6392 8.30164 22.764 8.23444 22.8672 8.14564C23.0808 7.96084 23.196 7.67284 23.1384 7.37764ZM3.6216 12.6408C3.516 12.6408 3.4296 12.5544 3.4296 12.4488C3.4296 12.3432 3.516 12.2568 3.6216 12.2568C3.7272 12.2568 3.8136 12.3432 3.8136 12.4488C3.8136 12.5544 3.7272 12.6408 3.6216 12.6408ZM22.7352 7.42084C22.6728 7.18804 22.4424 7.03924 22.2024 7.08484C21.9624 7.13044 21.804 7.35604 21.8328 7.59364L2.5008 11.3184C2.4384 11.0856 2.208 10.9368 1.968 10.9824C1.728 11.028 1.5696 11.2536 1.5984 11.4912L1.4112 11.5272C1.3728 11.2296 1.5696 10.9488 1.8672 10.8912L22.236 6.96964C22.5336 6.91204 22.8216 7.09924 22.896 7.39204L22.7352 7.42084Z" fill="currentColor"/>
<path d="M7.3128 13.3872L4.104 12.3696V12.5424C4.104 12.7032 3.9984 12.8376 3.8544 12.8832L7.0488 13.896V13.7304C7.0488 13.5672 7.1592 13.4304 7.3128 13.3872Z" fill="currentColor"/>
</g>
<defs>
<clipPath id="clip0_1421_1628">
<rect width="24" height="10.5504" fill="currentColor" transform="translate(0 6.72021)"/>
</clipPath>
</defs>
</svg>
