<svg width="24" height="24" viewBox="0 0 24 24" fill="currentColor" xmlns="http://www.w3.org/2000/svg">
<g clip-path="url(#clip0_1432_1034)">
<path d="M13.4136 15.7681C11.9016 15.7681 10.668 17.0017 10.668 18.5257C10.668 20.0497 11.9016 21.2833 13.4136 21.2833C14.9304 21.2833 16.1568 20.0497 16.1568 18.5257C16.1592 16.9993 14.9328 15.7681 13.4136 15.7681ZM13.4136 19.8001C12.7128 19.8001 12.144 19.2313 12.144 18.5233C12.144 17.8177 12.7128 17.2417 13.4136 17.2417C14.1168 17.2417 14.6832 17.8177 14.6832 18.5233C14.6832 19.2313 14.1168 19.8001 13.4136 19.8001Z" fill="currentColor"/>
<path d="M2.6784 17.292C1.584 17.292 0.693604 18.1848 0.693604 19.2864C0.693604 20.388 1.5864 21.2808 2.6784 21.2808C3.7776 21.2808 4.6632 20.388 4.6632 19.2864C4.6632 18.1824 3.7776 17.292 2.6784 17.292ZM2.6784 20.2104C2.172 20.2104 1.7592 19.7976 1.7592 19.2864C1.7592 18.7752 2.172 18.3576 2.6784 18.3576C3.1872 18.3576 3.5976 18.7752 3.5976 19.2864C3.5976 19.7976 3.1872 20.2104 2.6784 20.2104Z" fill="currentColor"/>
<path d="M7.64165 8.83203H3.86646V12.8016H7.64165V8.83203Z" fill="currentColor"/>
<path d="M11.9353 8.83203H7.78809V12.8016H11.9353V8.83203Z" fill="currentColor"/>
<path d="M0 12.8016H3.7224V8.83204H0V8.68564H11.9376V6.54724H0V12.8016Z" fill="currentColor"/>
<path d="M12.0096 5.04241V2.88H3.04077V5.03041C10.5576 4.96321 11.7912 5.01121 12.0096 5.04241Z" fill="currentColor"/>
<path d="M11.9375 6.40317V5.17197C11.3375 5.11917 5.85828 5.15277 2.89669 5.17677L0.163086 6.40077H11.9375V6.40317Z" fill="currentColor"/>
<path d="M12.3215 7.38237L17.7911 13.8744L17.8463 15.7272L18.9287 15.048V14.4216L12.7415 6.84717L12.3215 7.38237Z" fill="currentColor"/>
<path d="M20.7863 16.9032L23.0135 19.2912L23.2487 19.0416L20.8103 16.7328L20.9111 16.6272L23.4167 18.9984H23.9999C22.3199 17.2008 20.5439 16.1136 20.5439 16.1136L19.3199 14.4552V13.8816C19.3199 13.8816 20.6231 9.8904 20.8415 9.2784C21.0599 8.6664 20.1503 8.0736 19.5767 8.0736H15.5063L14.6567 7.0656H13.5503V6.5904L12.0815 5.1792V12.9456H0.050293L0.494293 13.584L0.326293 13.8264H17.5607L17.3063 13.524C16.6463 13.524 15.8159 13.524 15.8159 13.524V11.7552L12.1343 7.3848L12.7415 6.6144L15.8183 10.3824V9.0024H18.7655C19.3583 9.0024 19.8119 9.2976 19.6151 9.9504C19.4183 10.6032 18.7655 12.7944 18.7655 12.7944C18.6647 13.008 18.5303 13.2456 18.2759 13.392L19.0751 14.3688V15.1248L17.7095 15.984L17.6495 13.9728H0.302293L0.691093 15.0456L0.177493 16.6656L1.44709 17.2176C1.80709 16.9992 2.22709 16.872 2.67829 16.872C3.61909 16.872 4.43029 17.4144 4.82389 18.204H10.2863C10.4447 16.6056 11.7887 15.3624 13.4159 15.3624C14.3447 15.3624 15.1751 15.7656 15.7511 16.404H15.0935V19.764H19.3607L20.7887 19.3512V16.9032H20.7863Z" fill="currentColor"/>
<path d="M22.855 19.3344L20.9326 17.2728V19.3344H22.855Z" fill="currentColor"/>
</g>
<defs>
<clipPath id="clip0_1432_1034">
<rect width="24" height="18.4008" fill="currentColor" transform="translate(0 2.88)"/>
</clipPath>
</defs>
</svg>
