<svg width="24" height="24" viewBox="0 0 24 24" fill="currentColor" xmlns="http://www.w3.org/2000/svg">
<g clip-path="url(#clip0_1413_1804)">
<path d="M4.99445 10.5912H4.80005C4.80005 10.5912 4.80005 8.052 4.80005 8.0256C4.80005 8.0016 4.80965 7.9104 4.96565 7.9104C5.16245 7.9104 5.09285 8.148 5.16725 8.4408C5.23925 8.7336 5.50805 9.0768 5.63045 9.4656C5.75285 9.8568 5.63045 10.344 5.63045 10.344C5.63045 10.344 5.50805 10.5888 5.72885 10.6368C5.94725 10.6848 7.41365 10.86 7.60565 10.8888C7.89125 10.9296 7.92725 11.1168 7.88885 11.2656C7.84325 11.436 7.75205 11.4912 7.55765 11.4912C7.36325 11.4912 5.58245 11.4672 5.58245 11.4672C5.58245 11.4672 4.99445 11.496 4.99445 10.5912Z" fill="currentColor"/>
<path d="M16.5983 10.6151L17.0663 10.5743L17.0951 18.5039C17.0951 18.5039 17.0255 18.7655 17.3399 18.8015C17.6543 18.8375 23.9999 19.0535 23.9999 19.0535L22.6559 19.4375L17.1191 19.4975C17.1191 19.4975 16.7063 19.6319 16.7039 19.0583C16.7015 18.4847 16.7351 16.1735 16.7351 16.1735L16.4471 15.6119L16.5983 10.6151Z" fill="currentColor"/>
<path d="M3.95523 18.672C3.94083 18.672 3.92883 18.684 3.92883 18.6984C3.92883 18.7128 3.94083 18.7248 3.95523 18.7248C3.96963 18.7248 3.98163 18.7128 3.98163 18.6984C3.98163 18.684 3.96963 18.672 3.95523 18.672Z" fill="currentColor"/>
<path d="M16.0848 17.88L15.9312 4.06079H13.3272L13.3224 4.46639L14.6832 4.47119L14.6904 7.81919L13.8024 7.82639V8.52959L14.6808 8.52479L14.6928 12.6192L14.0448 12.6264L14.04 13.56L14.7552 13.5528V15.9888C14.7552 15.9888 14.796 16.0176 14.8608 16.0752C15.5136 16.4496 15.9768 17.1096 16.0848 17.88Z" fill="currentColor"/>
<path d="M13.6344 16.3535C12.5952 16.3535 11.7504 17.1959 11.7504 18.2375C11.7504 19.2767 12.5928 20.1215 13.6344 20.1215C14.6736 20.1215 15.5184 19.2791 15.5184 18.2375C15.516 17.1983 14.6736 16.3535 13.6344 16.3535ZM13.644 19.6367C12.8544 19.6367 12.216 18.9959 12.216 18.2087C12.216 17.4191 12.8568 16.7807 13.644 16.7807C14.4312 16.7807 15.072 17.4215 15.072 18.2087C15.0744 18.9959 14.4336 19.6367 13.644 19.6367Z" fill="currentColor"/>
<path d="M3.96481 17.244C3.15121 17.244 2.49121 17.904 2.49121 18.7176C2.49121 19.5312 3.15121 20.1912 3.96481 20.1912C4.77841 20.1912 5.43841 19.5312 5.43841 18.7176C5.43601 17.904 4.77841 17.244 3.96481 17.244ZM3.97201 19.812C3.35521 19.812 2.85361 19.3104 2.85361 18.6936C2.85361 18.0768 3.35521 17.5752 3.97201 17.5752C4.58881 17.5752 5.09041 18.0768 5.09041 18.6936C5.09041 19.3104 4.59121 19.812 3.97201 19.812Z" fill="currentColor"/>
<path d="M13.3752 13.5168C13.104 12.8256 12.5016 12.3528 12.5016 12.3528L11.4456 8.35197C11.3568 8.08077 11.0736 7.13757 11.0472 7.06317C10.8384 6.48717 10.6944 6.01197 10.2264 5.14557C9.7584 4.27917 8.928 4.04637 8.46 3.98637C8.2056 3.95517 6.684 3.87597 4.8696 3.84717C3.6096 3.83757 2.9088 3.80877 2.5608 4.10397C2.0976 4.49277 2.1624 5.37357 2.1624 5.37357C2.1624 5.37357 1.9632 11.1624 1.8504 11.5152C1.8192 11.52 1.7016 11.5248 1.5792 11.532C1.5792 11.1528 1.5744 10.6152 1.5528 9.99357C1.5096 8.76477 0.1704 8.39037 0.1704 8.39037C0.1704 8.39037 0.192 8.69757 0.324 9.42237C0.828 9.61917 0.72 9.99357 0.72 9.99357V12.1128C0.5976 12.4776 0.432 13.08 0.3792 13.2984C0.3072 13.5936 0.2832 13.5456 0.18 13.632C0.0312 13.7544 0 13.9128 0 13.9128L0.084 19.26L1.9776 19.2576C1.9296 19.0848 1.9032 18.9024 1.9032 18.7152C1.9032 17.5752 2.832 16.6464 3.972 16.6464C5.112 16.6464 6.0408 17.5752 6.0408 18.7152C6.0408 18.8664 6.024 19.0128 5.9928 19.1544H11.3256C11.208 18.8664 11.1432 18.5544 11.1432 18.2256C11.1432 16.8552 12.2568 15.7416 13.6272 15.7416C13.7712 15.7416 13.9128 15.756 14.052 15.78C13.9992 15.5832 13.6272 14.16 13.3752 13.5168ZM11.1888 14.5008L9.0432 14.3808V11.9832L2.4024 11.532L2.6136 5.31357C2.6136 5.31357 2.58 4.36077 3.5664 4.36077L4.4064 4.35597C5.9592 4.39917 7.9248 4.45677 8.4696 4.49277C9.4104 4.55517 9.7176 5.31597 10.1016 6.05757C10.3248 6.48717 10.5672 7.20717 10.9896 8.45037L11.448 10.0896L10.8864 8.87517L10.2144 9.43677L9.9336 9.01197L10.2552 8.74797C10.3416 8.67837 10.3536 8.55117 10.2816 8.46477C10.212 8.37837 10.0848 8.36637 9.9984 8.43837L8.9304 9.31917C8.844 9.38877 8.832 9.51597 8.904 9.60237C8.9448 9.65037 9 9.67437 9.06 9.67437C9.1056 9.67437 9.1512 9.65997 9.1872 9.62877L9.5736 9.31197L12.2424 12.828L12.6024 14.2824L11.1888 14.5008Z" fill="currentColor"/>
</g>
<defs>
<clipPath id="clip0_1413_1804">
<rect width="24" height="16.3512" fill="currentColor" transform="translate(0 3.83997)"/>
</clipPath>
</defs>
</svg>
