<svg width="25" height="24" viewBox="0 0 25 24" fill="currentColor" xmlns="http://www.w3.org/2000/svg">
<g clip-path="url(#clip0_1413_2529)">
<path d="M0.49204 17.7697L0.84244 18.1105L1.20484 18.1465V18.3337L2.24644 18.3697V17.6305H0.96244L0.76324 13.7401C0.76324 13.7401 0.78724 13.5529 1.05604 12.9793C1.32484 12.4057 1.61764 11.9377 1.67764 11.7721C1.73524 11.6089 1.73524 11.3041 1.58404 11.0689C1.43044 10.8337 0.78484 10.3201 0.70324 10.3417C0.62164 10.3633 0.0360402 11.1505 0.11764 11.2561C0.19924 11.3617 0.50884 11.5969 0.69124 11.7601C0.85684 11.9065 1.04164 12.0889 0.99604 12.1945C0.95044 12.3001 0.58564 13.2961 0.58564 13.2961C0.58564 13.2961 0.45844 13.6921 0.47044 14.1841C0.48244 14.6761 0.49204 17.7697 0.49204 17.7697Z" fill="currentColor"/>
<path d="M14.988 18.7297C15.4728 18.7297 15.8664 19.1233 15.8664 19.6081C15.8664 20.0929 15.4728 20.4865 14.988 20.4865C14.5032 20.4865 14.1096 20.0929 14.1096 19.6081C14.1096 19.1233 14.5032 18.7297 14.988 18.7297ZM14.628 19.5985C14.628 19.8025 14.7936 19.9681 14.9976 19.9681C15.2016 19.9681 15.3672 19.8025 15.3672 19.5985C15.3672 19.3945 15.2016 19.2289 14.9976 19.2289C14.7936 19.2289 14.628 19.3945 14.628 19.5985Z" fill="currentColor"/>
<path d="M3.12963 19.157C3.51603 19.157 3.83043 19.4714 3.83043 19.8578C3.83043 20.2442 3.51603 20.5586 3.12963 20.5586C2.74323 20.5586 2.42883 20.2442 2.42883 19.8578C2.42883 19.4714 2.74323 19.157 3.12963 19.157ZM2.84163 19.8506C2.84163 20.0138 2.97363 20.1458 3.13683 20.1458C3.30003 20.1458 3.43203 20.0138 3.43203 19.8506C3.43203 19.6874 3.30003 19.5554 3.13683 19.5554C2.97363 19.5554 2.84163 19.6874 2.84163 19.8506Z" fill="currentColor"/>
<path d="M6.61206 14.1265L6.65046 18.2881H9.09846V14.1265H6.61206Z" fill="currentColor"/>
<path d="M21.6289 15.8977H17.7217V13.6609H17.1169V10.7473H16.4785V16.4809H17.1001H17.1193H17.7241V16.4713H21.6721C21.7849 16.4713 24.1129 16.4425 24.1129 16.3297V16.1761C24.1105 16.0057 21.7417 15.8977 21.6289 15.8977Z" fill="currentColor"/>
<path d="M13.5408 3.36011V3.83531H14.5368L14.5632 5.55371H13.8432V6.82091H14.568L14.6064 15.6937L13.3896 16.0417L13.3392 15.8953L12.792 16.0609L12.1176 14.1601H9.45122V18.6649H6.24242V14.1601H4.42802V13.3465H2.86562L2.72402 14.3281L1.32962 14.7289V17.2705H2.59442V18.7417L0.439218 18.5857L0.400818 19.7209L2.08562 20.1817C2.06162 20.0881 2.04242 19.9921 2.04242 19.8889C2.04242 19.2649 2.55122 18.7561 3.17522 18.7561C3.79922 18.7561 4.30802 19.2649 4.30802 19.8889C4.30802 20.0257 4.27922 20.1529 4.23602 20.2753H13.1496L13.3944 19.9537L13.7592 20.0473C13.7184 19.9201 13.6944 19.7833 13.6944 19.6417C13.6944 19.4209 13.7496 19.2121 13.848 19.0297L13.8336 19.0249L13.2288 17.3137L13.7328 17.1577L13.68 17.0113L14.6088 16.7449L14.616 18.3553C14.7336 18.3193 14.8584 18.3001 14.988 18.3001C15.3912 18.3001 15.7536 18.4825 15.9936 18.7705V3.36011H13.5408ZM13.62 16.8313L13.5696 16.6849L13.0608 16.8385L12.9552 16.5361L13.5 16.3681L13.4472 16.2217L14.604 15.8953L14.6064 16.5433L13.62 16.8313Z" fill="currentColor"/>
</g>
<defs>
<clipPath id="clip0_1413_2529">
<rect width="24" height="17.1984" fill="currentColor" transform="translate(0.110413 3.36011)"/>
</clipPath>
</defs>
</svg>
