<svg width="24" height="24" viewBox="0 0 24 24" fill="currentColor" xmlns="http://www.w3.org/2000/svg">
<g clip-path="url(#clip0_1422_1664)">
<path d="M4.99927 23.2488C4.99927 23.6616 5.33527 24 5.74567 24H10.4425C10.8529 24 11.1889 23.664 11.1889 23.2488C11.1889 22.836 10.8553 22.5 10.4425 22.5H5.74567C5.70247 22.5 5.66407 22.5048 5.62327 22.512C5.29687 22.5672 5.04487 22.8336 5.00887 23.1696C5.00407 23.196 4.99927 23.2224 4.99927 23.2488ZM10.0153 23.2488C10.0153 23.0136 10.2073 22.8216 10.4425 22.8216C10.6777 22.8216 10.8697 23.0136 10.8697 23.2488C10.8697 23.4864 10.6777 23.6784 10.4425 23.6784C10.2073 23.6784 10.0153 23.4864 10.0153 23.2488ZM5.31847 23.2488C5.31847 23.0136 5.50807 22.8216 5.74567 22.8216C5.98087 22.8216 6.17047 23.0136 6.17047 23.2488C6.17047 23.4864 5.98087 23.6784 5.74567 23.6784C5.50807 23.6784 5.31847 23.4864 5.31847 23.2488Z" fill="currentColor"/>
<path d="M11.688 20.1792L11.5992 21.144C11.5992 21.144 5.30645 21.216 5.09525 21.216C4.88405 21.216 4.84325 21.108 4.80965 21.0168C4.77605 20.9256 4.83125 19.7736 4.84325 19.6176C4.85525 19.4616 4.94405 19.2648 5.28245 19.2648C5.62085 19.2648 9.00725 19.2288 9.12485 19.2288C9.24245 19.2288 10.2528 19.4448 10.7256 19.572C11.196 19.6968 11.712 19.8552 11.688 20.1792Z" fill="currentColor"/>
<path d="M16.1064 2.50072L15.5424 1.34872L13.7904 5.36392L13.752 5.83912L9.43205 15.2567L9.52085 15.3191L7.93205 18.6647L7.59605 18.6767L9.17045 15.1199L9.25685 15.1703L9.80165 13.9127L9.31205 14.3231L7.38485 18.3647L7.34645 18.7031L5.34485 18.7535L5.74565 17.6663L6.50885 17.3903L15.4176 0.136719L16.3944 2.15032L16.1064 2.50072ZM12.8664 5.85352L13.0032 6.13672L15.4416 1.18312L15.3432 0.974319L12.8664 5.85352Z" fill="currentColor"/>
<path d="M19.0656 1.5552H18.9384V0.6552H19.0656C19.1016 0.6552 19.128 0.6288 19.128 0.5952C19.128 0.5616 19.0992 0.5352 19.0656 0.5352H18.9384V0.06C18.9384 0.0264 18.9096 0 18.876 0H16.92C16.884 0 16.8576 0.0264 16.8576 0.06V0.5352H16.6896C16.656 0.5352 16.6272 0.5616 16.6272 0.5952C16.6272 0.6288 16.656 0.6552 16.6896 0.6552H16.8576V1.5576H16.6896C16.656 1.5576 16.6272 1.584 16.6272 1.6176C16.6272 1.6512 16.656 1.6776 16.6896 1.6776H16.8576V2.2704H16.7232V2.8128H18.9648V2.268H18.9384V1.6752H19.0656C19.1016 1.6752 19.128 1.6488 19.128 1.6152C19.128 1.584 19.0992 1.5552 19.0656 1.5552ZM18.408 0.1176H18.8112V0.5352H18.408V0.1176ZM18.408 0.6552H18.8112V1.5576H18.408V0.6552ZM17.5704 0.1176H18.2808V0.5352H17.5704V0.1176ZM17.5704 0.6552H18.2808V1.5576H17.5704V0.6552ZM18.2808 1.6752V2.268H17.5704V1.6752H18.2808ZM16.9824 0.1176H17.4456V0.5352H16.9824V0.1176ZM16.9824 0.6552H17.4456V1.5576H16.9824V0.6552ZM16.9824 1.6752H17.4456V2.268H16.9824V1.6752ZM18.408 2.268V1.6752H18.8112V2.268H18.408Z" fill="currentColor"/>
<path d="M9.90729 21.5688H6.30249V22.2096H9.90729V21.5688Z" fill="currentColor"/>
</g>
<defs>
<clipPath id="clip0_1422_1664">
<rect width="14.328" height="24" fill="currentColor" transform="translate(4.80005)"/>
</clipPath>
</defs>
</svg>
