<svg width="24" height="24" viewBox="0 0 24 24" fill="currentColor" xmlns="http://www.w3.org/2000/svg">
<g clip-path="url(#clip0_1426_1496)">
<path d="M20.208 17.5656C20.0784 16.3512 19.164 15.3816 17.9808 15.1848C17.8368 15.1608 17.6904 15.1392 17.5368 15.1392H2.7C1.2096 15.1392 0 16.356 0 17.8512C0 19.3488 1.2096 20.568 2.7 20.568H17.5368C19.0248 20.568 20.2368 19.3488 20.2368 17.8512C20.2368 17.7528 20.22 17.6592 20.208 17.5656ZM2.7 19.404C1.8504 19.404 1.1568 18.708 1.1568 17.8512C1.1568 16.9992 1.848 16.3032 2.7 16.3032C3.552 16.3032 4.2432 16.9992 4.2432 17.8512C4.2408 18.708 3.5496 19.404 2.7 19.404ZM17.5368 19.404C16.6872 19.404 15.9984 18.708 15.9984 17.8512C15.9984 16.9992 16.6896 16.3032 17.5368 16.3032C18.3888 16.3032 19.08 16.9992 19.08 17.8512C19.08 18.708 18.3888 19.404 17.5368 19.404Z" fill="currentColor"/>
<path d="M22.008 18.3554C22.2144 20.249 23.3232 21.2978 23.3232 21.2978C23.3232 21.2978 23.7216 20.9786 24 20.7026C21.852 17.6498 23.9568 14.3666 23.9568 14.3666L23.1528 13.8794C22.5048 14.9762 22.1784 15.9626 22.0464 16.8386L20.5536 16.1666L20.58 17.729L22.008 18.3554Z" fill="currentColor"/>
<path d="M9.62878 8.23192L9.87838 8.75992L10.284 8.52712L9.88318 8.06152L9.62878 8.23192Z" fill="currentColor"/>
<path d="M10.1544 7.50495C10.1088 7.43535 10.0152 7.41615 9.94557 7.46175L8.96637 8.10255C8.89677 8.14815 8.87757 8.24175 8.92317 8.31135C8.95197 8.35455 8.99997 8.37855 9.05037 8.37855C9.07917 8.37855 9.10797 8.37135 9.13197 8.35455L10.1112 7.71375C10.1808 7.66815 10.2 7.57455 10.1544 7.50495Z" fill="currentColor"/>
<path d="M12.168 3.88094C12.168 3.72014 12.264 3.43934 12.4944 3.25934C12.7248 3.07934 13.7424 2.64014 13.7424 2.64014L13.1904 3.90014C13.0584 3.90014 12.9552 3.96494 12.9552 4.11854C12.9552 4.23374 12.9576 8.45534 12.9576 8.45534L12.1536 8.31134C12.156 8.31134 12.168 4.02254 12.168 3.88094Z" fill="currentColor"/>
<path d="M14.0568 7.70166H13.5048V8.52246L14.0568 8.62086V7.70166Z" fill="currentColor"/>
<path d="M14.5128 7.73775H13.0464V7.42576C13.0464 7.37776 13.0848 7.33936 13.1328 7.33936H14.4264C14.4744 7.33936 14.5128 7.37776 14.5128 7.42576V7.73775Z" fill="currentColor"/>
<path d="M18.8591 13.5314L18.5999 10.2194C18.5783 9.94581 18.3743 9.72021 18.1031 9.66982L11.4071 8.46981L10.5407 4.34181C10.4591 3.90021 10.0727 3.57861 9.62155 3.57861H2.40955C1.98475 3.57861 1.64155 3.92181 1.64155 4.34661V9.60501L0.51355 11.225V13.5386H11.9111V13.529H18.8591V13.5314ZM6.26395 8.53461C3.16315 8.40981 2.32075 7.81701 2.32075 7.81701V4.74261H6.28795L6.26395 8.53461ZM10.0271 13.0178C9.97675 13.0178 10.1063 12.893 8.99035 12.7706C7.87435 12.6482 7.52875 11.5826 7.52875 11.5826C7.52875 11.5826 7.48795 10.685 7.43995 9.57381H9.52795L10.5551 11.7434C10.0775 12.257 10.0271 13.0178 10.0271 13.0178ZM10.0391 8.98101H7.38955C7.32475 7.49541 7.25755 5.84901 7.25755 5.46261C7.25755 4.71861 7.50475 4.59621 8.00155 4.59621C8.49595 4.59621 8.69035 4.59621 9.35995 4.59621C10.0295 4.59621 10.0295 4.99221 10.1519 5.58741C10.2263 5.94741 10.4303 7.19301 10.6271 8.61861L10.0391 8.98101Z" fill="currentColor"/>
<path d="M19.0032 14.7986H2.17444V13.8794H18.9072L19.0032 14.7986Z" fill="currentColor"/>
</g>
<defs>
<clipPath id="clip0_1426_1496">
<rect width="24" height="18.6576" fill="currentColor" transform="translate(0 2.64014)"/>
</clipPath>
</defs>
</svg>
