<svg width="24" height="24" viewBox="0 0 24 24" fill="currentColor" xmlns="http://www.w3.org/2000/svg">
<g clip-path="url(#clip0_1433_1481)">
<path d="M16.4664 4.80005H15.3912V5.89205H14.82V6.96725H15.3912V11.1888H10.6608V9.68405C10.7208 9.68165 10.7832 9.68165 10.848 9.67925V9.33125C10.7856 9.33125 10.7232 9.33365 10.6608 9.33365V9.03125H10.1952V9.34085C8.88 9.36005 7.4256 9.37445 5.6352 9.38645V7.54805H4.8264V9.39125C4.4136 9.39365 3.9864 9.39605 3.5376 9.39605H3.3528L3.3816 10.692H2.7384L2.76 11.0424L3.7512 11.0208L3.7224 9.74645C4.116 9.74405 4.4808 9.74405 4.824 9.74165V11.1912H0V12.3649H1.1808V15.9529C1.1808 16.8721 1.6032 17.7457 2.4336 18.5545L2.6856 18.2953C2.9904 18.5497 3.3792 18.7969 3.876 19.0177L3.9696 18.8905C2.0808 17.5969 1.9536 16.0657 1.944 15.8953L1.7064 15.9073V12.3649H4.8264V13.2217C4.9584 13.2001 5.0952 13.1881 5.2296 13.1881C5.3664 13.1881 5.5008 13.2001 5.6328 13.2217V12.3649H6.2904V13.9009C5.976 13.7281 5.6136 13.6272 5.2296 13.6272C4.1472 13.6272 3.2472 14.4097 3.0576 15.4393C3.0336 15.5713 3.0192 15.7081 3.0192 15.8449C3.0192 17.0713 4.0128 18.0697 5.232 18.0697C5.8032 18.0697 6.324 17.8489 6.7152 17.4889C6.9192 17.8537 7.1928 18.2089 7.5456 18.5497L7.7976 18.2905C8.1024 18.5449 8.4912 18.7921 8.988 19.0129L9.0816 18.8857C7.9968 18.1441 7.4928 17.3233 7.2576 16.7257C7.3752 16.4545 7.44 16.1568 7.44 15.8425C7.44 15.4489 7.3368 15.0817 7.1592 14.7601C7.0656 14.5921 6.948 14.4361 6.816 14.2993V12.3601H12.0624V15.9481C12.0624 16.8673 12.4848 17.7409 13.3152 18.5497L13.5672 18.2905C13.872 18.5449 14.2608 18.7921 14.7576 19.0129L14.8512 18.8857C12.9624 17.5921 12.8328 16.0609 12.8232 15.8905L12.5856 15.9025V12.3649H17.22V15.9529C17.22 16.8721 17.6424 17.7457 18.4728 18.5545L18.7248 18.2953C19.0296 18.5497 19.4184 18.7969 19.9152 19.0177L20.0088 18.8905C18.12 17.5969 17.9904 16.0657 17.9808 15.8953L17.7432 15.9073V12.3649H18.3864V11.1912H16.4616V6.96965H22.9056V5.89205H16.4664V4.80005ZM5.2296 16.8193C4.6968 16.8193 4.2624 16.3849 4.2624 15.8449C4.2624 15.6985 4.296 15.5641 4.3536 15.4393C4.5072 15.1057 4.8408 14.8729 5.2296 14.8729C5.352 14.8729 5.4672 14.8969 5.5752 14.9377C5.9376 15.0769 6.1968 15.4273 6.1968 15.8449C6.1992 16.3849 5.7648 16.8193 5.2296 16.8193ZM5.6352 9.73925C8.5368 9.72485 9.4344 9.71045 10.1976 9.69605V11.1912H5.6352V9.73925Z" fill="currentColor"/>
<path d="M23.9999 5.09277H23.2175V7.34157H23.9999V5.09277Z" fill="currentColor"/>
</g>
<defs>
<clipPath id="clip0_1433_1481">
<rect width="24" height="14.2176" fill="currentColor" transform="translate(0 4.80005)"/>
</clipPath>
</defs>
</svg>
