<svg width="24" height="24" viewBox="0 0 24 24" fill="currentColor" xmlns="http://www.w3.org/2000/svg">
<g clip-path="url(#clip0_1415_941)">
<path d="M12.0887 5.33032H12.4031L14.2919 6.55912L16.7231 5.33032L17.3015 5.33992L17.3111 11.2679H16.4159L16.4087 11.0399H16.1855L16.1783 10.3295L16.3631 10.3223V9.19672L15.9791 8.88952L16.1591 8.37832L14.3159 7.48312L12.0887 8.69992V5.33032ZM12.4991 7.66072L13.7399 6.96952L12.4847 6.20872L12.4991 7.66072ZM16.3655 7.66072L16.3391 6.25192L15.0839 6.96952L16.3655 7.66072Z" fill="currentColor"/>
<path d="M22.0177 10.8767H18.8977V9.08874H18.4153V6.76074H17.9041V11.3423H18.4009H18.4153H18.8977V11.3327H22.0513C22.1425 11.3327 24.0001 11.3087 24.0001 11.2199V11.0975C24.0001 10.9631 22.1065 10.8767 22.0177 10.8767Z" fill="currentColor"/>
<path d="M15.888 18.2112C14.7168 18.2112 13.7664 19.1664 13.7664 20.3448C13.7664 21.5232 14.7168 22.4808 15.888 22.4808C17.0616 22.4808 18.0096 21.5232 18.0096 20.3448C18.0096 19.164 17.0592 18.2112 15.888 18.2112ZM15.888 21.3336C15.3432 21.3336 14.9064 20.8896 14.9064 20.3448C14.9064 19.7928 15.3456 19.356 15.888 19.356C16.4304 19.356 16.872 19.7928 16.872 20.3448C16.8696 20.8896 16.428 21.3336 15.888 21.3336Z" fill="currentColor"/>
<path d="M2.47916 19.512C2.12396 19.512 1.79756 19.6344 1.53836 19.8384C1.29116 20.0304 1.10396 20.2968 1.01276 20.6064C0.969557 20.748 0.945557 20.8968 0.945557 21.0528C0.945557 21.2016 0.967157 21.3456 1.00796 21.4824C1.19276 22.1256 1.78076 22.5984 2.47916 22.5984C3.17756 22.5984 3.76556 22.1256 3.95036 21.4824C3.98876 21.3456 4.01276 21.2016 4.01276 21.0528C4.01276 20.2032 3.32636 19.512 2.47916 19.512ZM2.47916 21.7656C2.24876 21.7656 2.04476 21.6528 1.91516 21.4824C1.82396 21.36 1.76876 21.2136 1.76876 21.0504C1.76876 20.6568 2.09036 20.3376 2.48156 20.3376C2.87276 20.3376 3.19196 20.6568 3.19196 21.0504C3.19196 21.2136 3.13676 21.36 3.04556 21.48C2.91356 21.6528 2.70956 21.7656 2.47916 21.7656Z" fill="currentColor"/>
<path d="M11.3975 18.0743C11.3975 17.3207 10.7855 16.7087 10.0319 16.7087C9.50874 16.7087 9.05514 17.0015 8.82714 17.4335C8.72394 17.6063 8.66394 17.8079 8.66394 18.0263V20.8079C8.66394 20.9543 8.78154 21.0719 8.92794 21.0719H11.1287C11.2751 21.0719 11.3927 20.9543 11.3927 20.8079V18.1751C11.3951 18.1415 11.3975 18.1079 11.3975 18.0743Z" fill="currentColor"/>
<path d="M10.0319 16.1904C10.5623 16.1904 11.0399 16.4112 11.3831 16.764V1.19995H8.43114C8.35434 1.19995 8.26314 1.29115 8.29194 1.37515L8.51034 1.97515C8.56554 2.08795 8.59674 2.14075 8.64954 2.15035H9.14634V9.69355L8.66394 10.164V16.7784C9.01674 16.4088 9.50634 16.1904 10.0319 16.1904Z" fill="currentColor"/>
<path d="M14.8704 17.8057H12.1344V20.2057H13.1688C13.2216 19.1185 13.9104 18.1969 14.8704 17.8057Z" fill="currentColor"/>
<path d="M7.956 16.4015V12.8087H1.1928V5.73109H1.392H6.8256V10.2863H7.3992V5.73109V5.11429V5.10469H6.6168H4.7112H1.1928V5.10229H0.0096V12.8087H0V16.5311H0.0096V20.5823V21.4343H0.3792C0.3552 21.3071 0.3432 21.1775 0.3432 21.0503C0.3432 20.8391 0.3744 20.6303 0.4344 20.4287C0.5616 20.0039 0.816 19.6343 1.1664 19.3607C1.5456 19.0631 2.0016 18.9047 2.4792 18.9047C3.6576 18.9047 4.6152 19.8671 4.6152 21.0503C4.6152 21.1823 4.6008 21.3143 4.5768 21.4463L7.9584 21.4559V16.4015H7.956ZM0.024 20.5823V16.5311V20.5823Z" fill="currentColor"/>
<path d="M6.55196 11.2104L6.33116 10.9488C6.23996 10.8408 6.07436 10.8264 5.96636 10.9176C5.85836 11.0112 5.84396 11.1744 5.93516 11.2824L6.13436 11.5152L5.17676 12.2184H7.40396V10.584L6.55196 11.2104Z" fill="currentColor"/>
</g>
<defs>
<clipPath id="clip0_1415_941">
<rect width="24" height="21.396" fill="currentColor" transform="translate(0 1.19995)"/>
</clipPath>
</defs>
</svg>
