<svg width="24" height="24" viewBox="0 0 24 24" fill="currentColor" xmlns="http://www.w3.org/2000/svg">
<g clip-path="url(#clip0_1432_1203)">
<path d="M22.5624 8.68555H22.9512V6.50635V6.49675C22.9464 5.87755 22.4424 5.37595 21.8232 5.37595C21.8232 5.37595 18.576 5.14795 16.3992 5.38795C14.2224 5.62555 13.4568 5.93995 13.4568 5.93995V6.50635H22.5624V8.68555ZM14.1312 6.29755C14.0472 6.29755 13.9776 6.22795 13.9776 6.14395C13.9776 6.05995 14.0472 5.99035 14.1312 5.99035C14.2152 5.99035 14.2848 6.05995 14.2848 6.14395C14.2848 6.23035 14.2152 6.29755 14.1312 6.29755Z" fill="currentColor"/>
<path d="M22.4641 9.11035C22.4641 9.27115 22.5937 9.40075 22.7545 9.40075C22.9153 9.40075 23.0449 9.27115 23.0449 9.11035C23.0449 8.94955 22.9153 8.81995 22.7545 8.81995C22.5937 8.81995 22.4641 8.94955 22.4641 9.11035Z" fill="currentColor"/>
<path d="M23.9376 17.6832C22.9224 16.0032 22.2288 11.544 22.1376 10.0224V6.9552H21.6888C21.6768 6.984 21.6624 7.0104 21.6432 7.0368L13.608 17.0424C13.5456 17.1216 13.452 17.1624 13.3584 17.1624C13.2888 17.1624 13.2168 17.1384 13.1568 17.0928C13.0176 16.9824 12.996 16.7808 13.1064 16.6416L20.8824 6.9576H4.03203L1.17603 10.2216V17.3424L2.86563 18.96H16.224C19.0008 18.96 21.3288 17.0448 21.9648 14.4648C22.2888 15.9072 22.7112 17.3088 23.2032 18.1248C23.2848 18.2568 23.424 18.3312 23.5704 18.3312C23.6448 18.3312 23.7216 18.312 23.7912 18.2688C23.9952 18.1488 24.06 17.8872 23.9376 17.6832Z" fill="currentColor"/>
<path d="M0.636 10.8168H0V16.3512H0.636V10.8168Z" fill="currentColor"/>
<path d="M12.8617 5.43359L12.8569 5.16719C8.07128 4.69919 6.13208 5.61599 6.13208 6.51839H12.8617V5.43359Z" fill="currentColor"/>
</g>
<defs>
<clipPath id="clip0_1432_1203">
<rect width="24" height="13.92" fill="currentColor" transform="translate(0 5.04004)"/>
</clipPath>
</defs>
</svg>
