<svg width="24" height="24" viewBox="0 0 24 24" fill="currentColor" xmlns="http://www.w3.org/2000/svg">
<g clip-path="url(#clip0_1433_1473)">
<path d="M24 9.17287H20.604L0.9192 5.68327V4.77847C0.9192 4.52647 0.7128 4.32007 0.4584 4.32007C0.204 4.32007 0 4.52647 0 4.77847V5.83447C0 5.86567 0.0024 5.89447 0.0096 5.92327L0.0144 5.94247L1.3752 11.0569C1.4376 11.2897 1.668 11.4289 1.9008 11.3833C1.9704 11.3833 2.04 11.3713 2.1072 11.3401L2.6232 11.1169L2.94 13.0489H8.592L8.88 10.6681H17.664L18.0552 13.0489H23.7096L23.9976 10.6681H24V9.17287ZM22.4232 12.2089H19.2384V11.4793H22.4208V12.2089H22.4232ZM0.4968 4.62247C0.5616 4.62247 0.6144 4.67527 0.6144 4.74007C0.6144 4.80487 0.5616 4.85767 0.4968 4.85767C0.432 4.85767 0.3768 4.80487 0.3768 4.74007C0.3768 4.67527 0.4296 4.62247 0.4968 4.62247ZM0.4968 5.78407C0.504 5.78407 0.5112 5.78647 0.5184 5.78887C0.5712 5.79847 0.612 5.84167 0.6144 5.89687L0.6048 5.95207C0.5856 5.99287 0.5448 6.02167 0.4968 6.02167C0.432 6.02167 0.3792 5.96887 0.3792 5.90407C0.3792 5.86807 0.396 5.83927 0.42 5.81767C0.4368 5.79607 0.4656 5.78407 0.4968 5.78407ZM1.8288 11.0785C1.7592 11.0785 1.704 11.0233 1.704 10.9537C1.704 10.8841 1.7592 10.8289 1.8288 10.8289C1.8984 10.8289 1.9536 10.8841 1.9536 10.9537C1.9536 11.0233 1.896 11.0785 1.8288 11.0785ZM2.0664 10.1305L1.0752 6.40327L16.6992 9.17287H2.5464V9.92407C2.5392 9.92647 2.5296 9.92887 2.5224 9.93127L2.0664 10.1305ZM7.3056 12.2089H4.1232V11.4793H7.3056V12.2089Z" fill="currentColor"/>
<path d="M8.04001 15.7704C7.95601 15.5136 8.09761 15.24 8.35201 15.156C8.21041 14.8752 8.02801 14.6208 7.81201 14.3976C7.80961 14.4 7.80721 14.4 7.80721 14.4024C7.64881 14.6208 7.34401 14.6688 7.12561 14.5104C6.90721 14.352 6.85921 14.0472 7.01761 13.8288C7.02001 13.8264 7.02241 13.824 7.02481 13.8192C6.74881 13.6776 6.44881 13.5792 6.13201 13.5264C6.13201 13.5312 6.13441 13.536 6.13441 13.5408C6.13441 13.8096 5.91601 14.028 5.64721 14.028C5.37841 14.028 5.16001 13.8096 5.16001 13.5408C5.16001 13.536 5.16241 13.5312 5.16241 13.5264C4.84561 13.5768 4.54561 13.6776 4.26961 13.8192C4.27201 13.8216 4.27441 13.824 4.27681 13.8288C4.43521 14.0472 4.38721 14.352 4.16881 14.5104C3.95041 14.6688 3.64561 14.6208 3.48721 14.4024C3.48241 14.4 3.48241 14.4 3.48241 14.3976C3.26401 14.6184 3.08401 14.8752 2.94241 15.156C3.19681 15.24 3.33841 15.5136 3.25441 15.7704C3.17281 16.0224 2.90401 16.1616 2.65201 16.0872C2.63281 16.2288 2.61841 16.3728 2.61841 16.5192C2.61841 16.6872 2.63521 16.8504 2.66161 17.0088C2.91121 16.9392 3.17521 17.076 3.25681 17.3256C3.33601 17.5728 3.20881 17.8368 2.96881 17.9304C3.11281 18.204 3.29521 18.4512 3.51121 18.6672C3.67441 18.4728 3.96001 18.4344 4.16881 18.5856C4.37521 18.7344 4.42801 19.0152 4.29841 19.2312C4.56721 19.3656 4.85761 19.4592 5.16481 19.5096C5.18881 19.2624 5.39521 19.068 5.64721 19.068C5.90161 19.068 6.10801 19.2624 6.12961 19.5096C6.43681 19.4592 6.72721 19.3656 6.99601 19.2312C6.86641 19.0176 6.91921 18.7368 7.12561 18.5856C7.33441 18.4344 7.62001 18.4728 7.78321 18.6672C7.99921 18.4512 8.18161 18.204 8.32561 17.9304C8.08561 17.8368 7.95841 17.5728 8.03761 17.3256C8.11921 17.076 8.38081 16.9392 8.63281 17.0088C8.65921 16.848 8.67601 16.6848 8.67601 16.5192C8.67601 16.3728 8.66161 16.2288 8.64241 16.0872C8.39041 16.1616 8.12161 16.0224 8.04001 15.7704ZM5.64481 16.7784C5.50081 16.7784 5.38321 16.6608 5.38321 16.5168C5.38321 16.3728 5.50081 16.2552 5.64481 16.2552C5.78881 16.2552 5.90641 16.3728 5.90641 16.5168C5.90641 16.6608 5.78881 16.7784 5.64481 16.7784Z" fill="currentColor"/>
<path d="M23.136 15.7704C23.052 15.5136 23.1936 15.24 23.448 15.156C23.3064 14.8752 23.124 14.6208 22.908 14.3976C22.9056 14.4 22.9056 14.4 22.9032 14.4024C22.7448 14.6208 22.44 14.6688 22.2216 14.5104C22.0032 14.352 21.9552 14.0472 22.1136 13.8288C22.116 13.8264 22.1184 13.824 22.1208 13.8192C21.8448 13.6776 21.5448 13.5792 21.228 13.5264C21.228 13.5312 21.2304 13.536 21.2304 13.5408C21.2304 13.8096 21.012 14.028 20.7432 14.028C20.4744 14.028 20.256 13.8096 20.256 13.5408C20.256 13.536 20.2584 13.5312 20.2584 13.5264C19.9416 13.5768 19.6416 13.6776 19.3656 13.8192C19.368 13.8216 19.3704 13.824 19.3728 13.8288C19.5312 14.0472 19.4832 14.352 19.2648 14.5104C19.0464 14.6688 18.7416 14.6208 18.5832 14.4024C18.5808 14.4 18.5784 14.4 18.5784 14.3976C18.36 14.6184 18.18 14.8752 18.0384 15.156C18.2928 15.24 18.4344 15.5136 18.3504 15.7704C18.2688 16.0224 18 16.1616 17.748 16.0872C17.7288 16.2288 17.7144 16.3728 17.7144 16.5192C17.7144 16.6872 17.7312 16.8504 17.7576 17.0088C18.0072 16.9392 18.2712 17.076 18.3528 17.3256C18.432 17.5728 18.3048 17.8368 18.0648 17.9304C18.2088 18.204 18.3912 18.4512 18.6072 18.6672C18.7704 18.4728 19.056 18.4344 19.2648 18.5856C19.4712 18.7344 19.524 19.0152 19.3944 19.2312C19.6632 19.3656 19.9536 19.4592 20.2608 19.5096C20.2848 19.2624 20.4912 19.068 20.7432 19.068C20.9976 19.068 21.204 19.2624 21.2256 19.5096C21.5328 19.4592 21.8232 19.3656 22.092 19.2312C21.9624 19.0176 22.0152 18.7368 22.2216 18.5856C22.4304 18.4344 22.716 18.4728 22.8792 18.6672C23.0952 18.4512 23.2776 18.204 23.4216 17.9304C23.1816 17.8368 23.0544 17.5728 23.1336 17.3256C23.2152 17.076 23.4768 16.9392 23.7288 17.0088C23.7552 16.848 23.772 16.6848 23.772 16.5192C23.772 16.3728 23.7576 16.2288 23.7384 16.0872C23.4864 16.1616 23.2176 16.0224 23.136 15.7704ZM20.7432 16.7784C20.5992 16.7784 20.4816 16.6608 20.4816 16.5168C20.4816 16.3728 20.5992 16.2552 20.7432 16.2552C20.8872 16.2552 21.0048 16.3728 21.0048 16.5168C21.0024 16.6608 20.8872 16.7784 20.7432 16.7784Z" fill="currentColor"/>
</g>
<defs>
<clipPath id="clip0_1433_1473">
<rect width="24" height="15.1848" fill="currentColor" transform="translate(0 4.32007)"/>
</clipPath>
</defs>
</svg>
