<svg width="24" height="24" viewBox="0 0 24 24" fill="currentColor" xmlns="http://www.w3.org/2000/svg">
<g clip-path="url(#clip0_1430_2065)">
<path d="M19.9152 11.9208C19.6032 11.8152 19.272 11.7456 18.9264 11.7456C17.2056 11.7456 15.8088 13.1424 15.8088 14.8752C15.8088 15.2064 15.8736 15.5208 15.9696 15.8184C16.3728 17.0856 17.5368 18.0096 18.9264 18.0096C20.6472 18.0096 22.0416 16.6032 22.0416 14.8728C22.0416 13.4928 21.1488 12.336 19.9152 11.9208ZM18.9264 16.3224C18.1296 16.3224 17.484 15.6744 17.484 14.8752C17.484 14.0712 18.132 13.4232 18.9264 13.4232C19.7208 13.4232 20.3688 14.0712 20.3688 14.8752C20.3688 15.6744 19.7208 16.3224 18.9264 16.3224Z" fill="currentColor"/>
<path d="M8.34004 11.9208C8.02804 11.8152 7.69684 11.7456 7.35124 11.7456C5.63044 11.7456 4.23364 13.1424 4.23364 14.8752C4.23364 15.2064 4.29844 15.5208 4.39444 15.8184C4.79764 17.0856 5.96164 18.0096 7.35124 18.0096C9.07204 18.0096 10.4664 16.6032 10.4664 14.8728C10.4664 13.4928 9.57364 12.336 8.34004 11.9208ZM7.35124 16.3224C6.55444 16.3224 5.90884 15.6744 5.90884 14.8752C5.90884 14.0712 6.55684 13.4232 7.35124 13.4232C8.14564 13.4232 8.79364 14.0712 8.79364 14.8752C8.79364 15.6744 8.14564 16.3224 7.35124 16.3224Z" fill="currentColor"/>
<path d="M17.0759 7.5936H15.3575L16.7519 6.024L22.8743 6V6.5736H17.7479L17.0759 7.5936Z" fill="currentColor"/>
<path d="M17.0496 10.2528L16.4928 8.70718L17.0016 7.83838H0.1488L0 8.68318L14.5128 12.0936L15.588 10.2528H17.0496Z" fill="currentColor"/>
<path d="M22.38 15.5304H23.3952V12.9912H21.8928C22.2432 13.5408 22.4424 14.1912 22.4424 14.8752C22.4424 15.0984 22.4208 15.3168 22.38 15.5304Z" fill="currentColor"/>
<path d="M15.9528 12.9912H10.3176C10.668 13.5408 10.8672 14.1912 10.8672 14.8752C10.8672 15.0984 10.8456 15.3168 10.8048 15.5304H15.48C15.4344 15.3048 15.408 15.0888 15.408 14.8752C15.4056 14.1816 15.6072 13.536 15.9528 12.9912Z" fill="currentColor"/>
<path d="M20.0424 11.5414C20.6736 11.7526 21.2136 12.1318 21.6216 12.6166H23.3952V10.855H16.068V11.5174C16.068 11.8558 16.2216 12.1582 16.4616 12.3598C17.0976 11.7334 17.9664 11.347 18.9264 11.347C19.2888 11.3446 19.656 11.4094 20.0424 11.5414Z" fill="currentColor"/>
<path d="M8.4696 11.5416C9.132 11.7648 9.6936 12.1704 10.1064 12.6912H14.1408L14.2656 12.4176L6.276 10.5264C6.276 10.5264 6.3312 11.052 6.3744 11.4864C6.6864 11.3952 7.0152 11.3448 7.356 11.3448C7.7136 11.3448 8.0808 11.4096 8.4696 11.5416Z" fill="currentColor"/>
<path d="M21.48 8.74551L21.5712 8.9375L21.72 8.8535L21.5736 8.68311L21.48 8.74551Z" fill="currentColor"/>
<path d="M21.672 8.47896C21.6552 8.45256 21.6216 8.44536 21.5952 8.46216L21.2352 8.69736C21.2088 8.71416 21.2016 8.74776 21.2184 8.77416C21.228 8.79096 21.2472 8.79816 21.264 8.79816C21.2736 8.79816 21.2856 8.79576 21.2952 8.78856L21.6552 8.55336C21.6816 8.53656 21.6888 8.50296 21.672 8.47896Z" fill="currentColor"/>
<path d="M23.5872 7.99936C23.5272 7.99936 23.3568 7.99696 23.1456 7.99696C22.8144 7.99456 22.38 7.99216 22.1016 7.98976L21.78 6.94336H18.7176L17.1984 10.6274H22.3704H24V8.47696C24 8.16256 23.8584 7.99936 23.5872 7.99936ZM23.1456 8.12896C23.3592 8.13136 23.5296 8.13136 23.5896 8.13136C23.7264 8.13136 23.868 8.17216 23.868 8.47456V9.39616H22.536L22.1424 8.12176C22.4232 8.12416 22.8288 8.12656 23.1456 8.12896ZM18.4488 8.99296L19.1928 7.41376L19.1952 9.16576L18.4488 8.99296ZM19.7016 7.33936H21.432L22.0536 9.15616H22.0032L21.8616 8.87776L21.408 9.15616H19.7136L19.7016 7.33936ZM22.5768 10.493V9.53296H23.8656V10.493H22.5768Z" fill="currentColor"/>
</g>
<defs>
<clipPath id="clip0_1430_2065">
<rect width="24" height="12.0096" fill="currentColor" transform="translate(0 6)"/>
</clipPath>
</defs>
</svg>
