<svg width="24" height="24" viewBox="0 0 24 24" fill="currentColor" xmlns="http://www.w3.org/2000/svg">
<g clip-path="url(#clip0_1417_1204)">
<path d="M5.34479 21.4872C5.21519 21.444 5.07839 21.4152 4.93679 21.4152C4.22639 21.4152 3.65039 21.9912 3.65039 22.7064C3.65039 22.8432 3.67679 22.9728 3.71519 23.0952C3.88079 23.6184 4.36319 24 4.93679 24C5.64719 24 6.22319 23.4192 6.22319 22.7064C6.22079 22.1352 5.85359 21.6576 5.34479 21.4872ZM4.93439 23.304C4.60559 23.304 4.33919 23.0376 4.33919 22.7064C4.33919 22.3752 4.60559 22.1064 4.93439 22.1064C5.26319 22.1064 5.52959 22.3728 5.52959 22.7064C5.53199 23.0352 5.26319 23.304 4.93439 23.304Z" fill="currentColor"/>
<path d="M18.0624 23.2344H8.46478V23.8296L8.47198 23.9424L8.72158 23.9472H17.808L18.0696 23.952L18.0624 23.8296V23.2344Z" fill="currentColor"/>
<path d="M10.9152 21.936H9.04797V22.8024H17.4816V21.936H15.612V19.2672L10.9152 19.5456V21.936Z" fill="currentColor"/>
<path d="M9.02397 7.92964L20.2512 10.7592C20.6136 10.8504 20.8776 11.1576 20.9184 11.5296L21.4632 16.7832C21.4968 17.1048 21.2616 17.3928 20.9376 17.424L17.9136 17.712C17.6688 17.736 17.4672 17.9088 17.4072 18.1464C17.352 18.3672 17.1624 18.5256 16.9368 18.5448L7.83837 19.2408C7.56957 19.2624 7.35117 19.032 7.38237 18.7632L8.66637 8.17444C8.68797 8.00164 8.85597 7.88644 9.02397 7.92964Z" fill="currentColor"/>
<path d="M7.98717 8.124L6.64077 18.7248C6.61197 18.9504 6.41517 19.1184 6.18717 19.1112L2.18877 18.9816C2.16717 18.9816 2.15517 18.96 2.16237 18.9408C2.31117 18.6216 2.57517 18.3672 2.89917 18.228L3.35997 18.0312C3.80637 17.8416 4.11597 17.4264 4.17357 16.9464L4.80237 11.6712C4.82397 11.4984 4.86477 11.3304 4.92717 11.1696L6.29037 7.668C6.35757 7.4928 6.54717 7.3992 6.72717 7.452L7.73517 7.7424C7.90317 7.7904 8.01117 7.9512 7.98717 8.124Z" fill="currentColor"/>
<path d="M4.93439 20.9016C5.12399 20.9016 5.31119 20.9352 5.50559 21C5.92559 21.1416 6.26399 21.4296 6.47759 21.792L9.27839 19.6608L6.72239 19.8624C6.60959 19.872 6.49679 19.872 6.38399 19.8624L2.43839 19.5744C2.30399 19.5648 2.19119 19.68 2.20559 19.8144L2.33999 21.1272C2.37599 21.4728 2.55599 21.7896 2.83439 21.996L3.19199 22.26C3.39119 21.48 4.09679 20.9016 4.93439 20.9016Z" fill="currentColor"/>
<path d="M18.516 18.1464L21.1848 17.8752C21.3144 17.8608 21.4296 17.9616 21.4368 18.0912L21.648 22.4904C21.6552 22.62 21.5496 22.7304 21.42 22.7304H19.6464C19.5432 22.7304 19.452 22.6608 19.4256 22.56L18.3216 18.432C18.2808 18.2976 18.3744 18.1608 18.516 18.1464Z" fill="currentColor"/>
<path d="M21.4583 23.2296H19.7375V23.9472H21.4583V23.2296Z" fill="currentColor"/>
<path d="M19.848 9.36241L19.0008 6.28321C18.9312 6.02881 18.78 5.80321 18.5712 5.64241L15.3408 3.15841C15.1296 2.99761 14.88 2.89441 14.616 2.86321L14.2392 2.81761C14.112 2.80321 13.9848 2.80561 13.86 2.82241C13.5816 2.76481 13.3248 2.72641 13.152 2.71201L13.26 2.63521L13.1688 2.31361C13.2432 2.21521 13.2768 2.09041 13.2504 1.96081C13.2048 1.73521 13.1904 1.49761 13.212 1.25521L13.8888 0.792013C13.9776 0.732013 14.04 0.643213 14.0592 0.537613C14.0784 0.436813 14.0616 0.328813 13.9968 0.232813L13.9536 0.177613C13.9008 0.0888134 13.8096 0.0288134 13.7064 0.00721335C13.608 -0.0119867 13.4952 0.00721335 13.4136 0.0720134L9.65039 2.64001C9.55199 2.70481 9.48719 2.81041 9.48239 2.89441C9.46079 3.00001 9.48719 3.11041 9.54719 3.19441L9.58319 3.24961C9.63839 3.33841 9.72959 3.39841 9.83279 3.42001C9.93359 3.43921 10.0392 3.41761 10.1328 3.36001L11.052 2.73361C11.1624 2.86561 11.28 2.99281 11.4 3.11521C11.5032 3.21841 11.6424 3.26881 11.7984 3.23041L12.084 3.43921L12.156 3.38641L12.204 3.48481L10.1016 4.41361L9.95519 4.08961L10.02 4.06081L9.94078 3.88321L9.35999 4.14481L9.43919 4.32241L9.50399 4.29361L9.64799 4.61521L7.14479 5.72161C7.06079 5.76001 6.99599 5.82961 6.96479 5.91601L6.77999 6.48001C6.71759 6.66241 6.82319 6.86161 7.01279 6.90961L19.2408 9.98401C19.6152 10.0776 19.9512 9.73201 19.848 9.36241Z" fill="currentColor"/>
</g>
<defs>
<clipPath id="clip0_1417_1204">
<rect width="19.4856" height="24" fill="currentColor" transform="translate(2.15997)"/>
</clipPath>
</defs>
</svg>
