<svg width="24" height="24" viewBox="0 0 24 24" fill="currentColor" xmlns="http://www.w3.org/2000/svg">
<g clip-path="url(#clip0_1422_1905)">
<path d="M17.9136 20.8513C17.0472 20.8513 16.344 21.5521 16.344 22.4233C16.344 23.2945 17.0448 24.0001 17.9136 24.0001C18.7752 24.0001 19.4784 23.2945 19.4784 22.4233C19.4784 21.5521 18.7752 20.8513 17.9136 20.8513ZM17.9136 23.1529C17.5128 23.1529 17.1864 22.8217 17.1864 22.4233C17.1864 22.0177 17.5128 21.6937 17.9136 21.6937C18.312 21.6937 18.6384 22.0201 18.6384 22.4233C18.6384 22.8241 18.312 23.1529 17.9136 23.1529Z" fill="currentColor"/>
<path d="M6.02643 20.8513C5.16243 20.8513 4.45923 21.5521 4.45923 22.4233C4.45923 23.2945 5.16003 24.0001 6.02643 24.0001C6.89283 24.0001 7.59603 23.2945 7.59603 22.4233C7.59603 21.5521 6.89283 20.8513 6.02643 20.8513ZM6.02643 23.1529C5.62563 23.1529 5.29923 22.8217 5.29923 22.4233C5.29923 22.0177 5.62563 21.6937 6.02643 21.6937C6.42723 21.6937 6.75363 22.0201 6.75363 22.4233C6.75123 22.8241 6.42483 23.1529 6.02643 23.1529Z" fill="currentColor"/>
<path d="M20.1 0.0504L4.19761 0C3.6648 0 3.2304 0.4344 3.2304 0.9696V6.324H3.2376V6.3504V7.7592V8.8368H3.68401L3.68161 8.844L9.49441 10.2048L3.68161 11.5656L3.82321 12.1752L3.68161 12.7848L9.49441 14.1456L3.68161 15.504L3.80881 16.0512L3.68161 16.596L9.49441 17.9544L8.74801 18.1296H2.88V22.2456H3.72001C3.72241 20.9736 4.75681 19.9392 6.02641 19.9392C7.29841 19.9392 8.33041 20.976 8.33281 22.2456H15.6072C15.6096 20.9736 16.6416 19.9392 17.9136 19.9392C19.1832 19.9392 20.2152 20.976 20.2176 22.2456H21.048V19.3176H20.6256V19.3152L14.8128 17.952L20.6256 16.5936L20.5008 16.0488L20.6256 15.5016L14.8128 14.1408L20.6256 12.78L20.4864 12.1704L20.6256 11.5608L14.8128 10.2L20.316 8.9112H21.0648V7.7544V6.3456V5.2632V1.0224C21.0672 0.4872 20.6328 0.0504 20.1 0.0504ZM12.6 0.624L18.552 0.6456V2.8944H12.6V0.624ZM12.6 3.4872H18.552V5.268H12.6V3.4872ZM10.4856 0.6168L12.0096 0.6216V2.8944H10.4856V0.6168ZM10.4856 3.4872H12.0096V5.7336H10.4856V3.4872ZM3.82321 0.9696C3.82321 0.7632 3.99121 0.5952 4.19761 0.5952L9.89281 0.6144V2.892H3.82321V0.9696ZM3.82321 3.4872H9.89281V5.7336H3.82321V3.4872ZM10.4736 19.5912C10.4736 19.656 10.4304 19.7064 10.3752 19.7064H10.0512V20.0928C10.0512 20.1576 10.008 20.208 9.95281 20.208H9.69841C9.64561 20.208 9.60001 20.1552 9.60001 20.0928V19.7064H9.27601C9.22321 19.7064 9.17761 19.6536 9.17761 19.5912V19.2888C9.17761 19.224 9.22081 19.1736 9.27601 19.1736H9.60001V18.7872C9.60001 18.7224 9.64321 18.672 9.69841 18.672H9.95281C10.0056 18.672 10.0512 18.7248 10.0512 18.7872V19.1736H10.3752C10.428 19.1736 10.4736 19.2264 10.4736 19.2888V19.5912ZM12.9096 19.7568L11.124 21.876C11.112 21.888 11.0976 21.8952 11.0808 21.8952C11.0712 21.8952 11.0616 21.8928 11.052 21.888C11.028 21.8736 11.0184 21.8448 11.0304 21.8184L11.6544 20.3328H11.0808C11.0616 20.3328 11.0424 20.3232 11.0328 20.3064C11.0232 20.2896 11.0208 20.2704 11.0304 20.2512L11.868 18.5784C11.8776 18.5592 11.8968 18.5472 11.9184 18.5472H12.8112C12.8304 18.5472 12.8496 18.5592 12.8592 18.576C12.8688 18.5928 12.8688 18.6144 12.8568 18.6336L12.204 19.6632H12.864C12.8856 19.6632 12.9048 19.6752 12.9144 19.6944C12.9264 19.716 12.9216 19.74 12.9096 19.7568ZM14.7672 19.584C14.7672 19.6512 14.7216 19.7064 14.664 19.7064H13.6728C13.6152 19.7064 13.5696 19.6512 13.5696 19.584V19.2936C13.5696 19.2264 13.6152 19.1712 13.6728 19.1712H14.664C14.7216 19.1712 14.7672 19.2264 14.7672 19.2936V19.584ZM17.6376 16.0512L12.1536 17.3328L6.66961 16.0512L12.1536 14.7648L17.6376 16.0512ZM17.9064 12.1728L12.1536 13.5216L6.40081 12.1728L12.1536 10.8264L17.9064 12.1728ZM19.6248 7.836L12.1512 9.5832L4.92721 7.8912V7.7616H19.6248V7.836ZM20.4744 5.268H19.1424V0.6432L20.1 0.648C20.3064 0.648 20.4744 0.816 20.4744 1.0224V5.268Z" fill="currentColor"/>
</g>
<defs>
<clipPath id="clip0_1422_1905">
<rect width="18.1872" height="24" fill="currentColor" transform="translate(2.88)"/>
</clipPath>
</defs>
</svg>
