<svg width="24" height="24" viewBox="0 0 24 24" fill="currentColor" xmlns="http://www.w3.org/2000/svg">
<g clip-path="url(#clip0_1538_771)">
<path d="M20.4864 4.23357C18.2184 1.96797 15.2064 0.719971 12 0.719971C8.7936 0.719971 5.7816 1.96797 3.5136 4.23357C1.248 6.50157 0 9.51357 0 12.72C0 14.8608 0.5712 16.9632 1.6512 18.7968C2.7 20.5776 4.1976 22.0656 5.9832 23.1048C6.1488 23.2008 6.3264 23.2464 6.504 23.2464C6.8616 23.2464 7.212 23.0616 7.404 22.728C7.692 22.2312 7.524 21.5952 7.0272 21.3048C3.9768 19.5336 2.0808 16.2432 2.0808 12.72C2.0808 7.25037 6.5304 2.80077 12 2.80077C17.4696 2.80077 21.9192 7.25037 21.9192 12.72C21.9192 15.0312 21.2928 16.9608 20.1096 18.2976C19.1448 19.3848 17.8512 20.0088 16.56 20.0088C15.264 20.0088 13.7976 19.3272 13.2576 17.5224C15.3456 17.0904 16.92 15.2376 16.92 13.0248V9.99357C16.92 9.84957 16.8024 9.73437 16.6608 9.73437H15.2688V6.89277C15.2688 6.31917 14.8032 5.85117 14.2272 5.85117C13.6536 5.85117 13.1856 6.31677 13.1856 6.89277V9.73197H10.8192V6.89277C10.8192 6.31917 10.3536 5.85117 9.7776 5.85117C9.204 5.85117 8.736 6.31677 8.736 6.89277V9.73197H7.344C7.2 9.73197 7.0848 9.84957 7.0848 9.99117V13.0248C7.0848 15.372 8.8536 17.3112 11.1288 17.5848C11.3736 18.732 11.8824 19.7184 12.6384 20.4888C13.6512 21.5208 15.0432 22.0896 16.56 22.0896C18.4488 22.0896 20.3088 21.2112 21.6696 19.6776C22.7304 18.4752 24 16.2936 24 12.72C24 9.51357 22.752 6.50157 20.4864 4.23357Z" fill="currentColor"/>
</g>
<defs>
<clipPath id="clip0_1538_771">
<rect width="24" height="22.5264" fill="currentColor" transform="translate(0 0.719971)"/>
</clipPath>
</defs>
</svg>
