<svg width="24" height="24" viewBox="0 0 24 24" fill="currentColor" xmlns="http://www.w3.org/2000/svg">
<g clip-path="url(#clip0_1422_1308)">
<path d="M22.4593 12.492H20.0353V11.1024H19.6609V9.29517H19.2625V12.8544H19.6489H19.6609H20.0353V12.8472H22.4857C22.5553 12.8472 24 12.8304 24 12.7584V12.6648C24 12.5592 22.5289 12.492 22.4593 12.492Z" fill="currentColor"/>
<path d="M11.1912 12.8279C11.0928 12.2399 10.8984 11.4911 10.68 10.7639L12.972 10.3919L11.9568 9.18467L10.2552 9.45587C10.0896 8.97827 9.936 8.57987 9.8304 8.33987C9.4152 7.40147 8.8464 7.04147 8.3952 6.83267C7.9176 6.60947 6.5856 6.49667 6.1824 6.48227C5.7696 6.46787 5.1624 6.52547 4.6344 7.18547C3.9792 8.00387 3.7944 9.20147 3.672 9.99347C3.6552 10.0967 3.6408 10.1927 3.6264 10.2815C3.6144 10.3559 3.6024 10.4375 3.5928 10.5191L2.1 10.7567L2.4408 10.8095C2.5632 10.8287 2.6736 10.8959 2.7456 10.9967C2.82 11.0975 2.8488 11.2223 2.8296 11.3447L2.7216 12.0263C2.6568 12.0215 2.5824 12.0167 2.5032 12.0095L2.6136 11.3087C2.6352 11.1719 2.5416 11.0447 2.4048 11.0231L1.4328 10.8719C1.296 10.8503 1.1688 10.9439 1.1472 11.0807L1.0176 11.9015C0.9768 11.8991 0.936 11.8943 0.9 11.8919C0.1896 11.8343 0.0888 12.2687 0.06 12.4727C0.0288 12.6743 0 12.7319 0 14.4143C0 15.5399 0.4608 16.0823 0.7656 16.3151C0.7584 16.2503 0.7536 16.1855 0.7536 16.1231C0.7536 15.1127 1.5744 14.2895 2.5824 14.2895C2.772 14.2895 2.9616 14.3231 3.1632 14.3903C3.9096 14.6399 4.4088 15.3359 4.4088 16.1231C4.4088 16.3991 4.3464 16.6607 4.236 16.8959L9.7296 16.9463C9.6864 16.8599 9.6504 16.7687 9.6192 16.6751C9.5568 16.4783 9.5256 16.2983 9.5256 16.1207C9.5256 15.1103 10.3464 14.2871 11.3544 14.2871C11.544 14.2871 11.7336 14.3207 11.9352 14.3879C11.9424 14.3903 11.9496 14.3927 11.9568 14.3951L11.3256 12.9167L11.1912 12.8279ZM1.8264 11.7743C1.6656 11.7743 1.536 11.6447 1.536 11.4839C1.536 11.3231 1.6656 11.1935 1.8264 11.1935C1.9872 11.1935 2.1168 11.3231 2.1168 11.4839C2.1168 11.6447 1.9872 11.7743 1.8264 11.7743ZM3.0312 12.0503C3.0312 12.0503 2.952 12.0455 2.82 12.0359L3.5424 11.9183C3.5424 11.9855 3.5448 12.0455 3.5472 12.0983C3.3648 12.0791 3.192 12.0623 3.0312 12.0503ZM3.8952 12.1367C3.8928 12.0647 3.8904 11.9711 3.8904 11.8631L4.824 11.7119C4.824 11.7263 4.824 11.7335 4.824 11.7335H4.9896C4.9896 12.0119 5.0568 12.1871 5.1408 12.2951C4.7304 12.2375 4.3008 12.1823 3.8952 12.1367ZM5.1336 9.91667C5.0712 9.66947 5.1288 9.46787 4.9632 9.46787C4.8312 9.46787 4.824 9.54467 4.824 9.56387C4.824 9.57107 4.824 9.91187 4.824 10.3199L3.9528 10.4591C3.9576 10.4183 3.9648 10.3751 3.972 10.3367C3.9864 10.2455 4.0032 10.1471 4.0176 10.0439C4.1424 9.24227 4.3104 8.14547 4.908 7.40147C5.1864 7.05347 5.484 6.91187 5.76 6.85667L5.7768 10.1687L5.28 10.2479C5.2128 10.1327 5.1576 10.0199 5.1336 9.91667ZM5.6064 11.7743C5.4936 11.7503 5.4888 11.6663 5.5008 11.6015L5.7792 11.5559V11.8031C5.7 11.7911 5.6376 11.7815 5.6064 11.7743ZM6.1056 6.82787C6.1272 6.82787 6.1512 6.82787 6.1728 6.83027C6.6024 6.84467 7.8528 6.96227 8.2512 7.14707C8.6712 7.34147 9.1488 7.65347 9.5136 8.48147C9.6144 8.70707 9.7536 9.07427 9.9072 9.51347L6.12 10.1183L6.1056 6.82787ZM9.6144 10.9367L9.3984 11.0279L9.3744 10.9751L9.6144 10.9367ZM9.252 15.3719H7.6992C7.6992 15.3719 7.6992 13.7759 7.6992 13.2695C7.6992 12.7631 7.5552 12.7631 7.104 12.6311C6.9816 12.5951 6.7296 12.5447 6.396 12.4895C6.7464 12.4943 7.08 12.4991 7.152 12.4991C7.3176 12.4991 7.3944 12.4511 7.4328 12.3071C7.4664 12.1799 7.4352 12.0239 7.1928 11.9879C7.0896 11.9735 6.552 11.9087 6.1272 11.8511L6.1248 11.5007L9.1296 11.0159L9.1752 11.1239L8.964 11.2127L9.1632 11.6783L9.7176 12.9791H7.9752L7.9608 14.2127H9.6432L10.2264 13.0607L10.464 12.6695L9.9144 11.3831L10.1712 11.2727L10.0008 10.8743L10.332 10.8215C10.5288 11.4695 10.7064 12.1343 10.8096 12.6863L9.252 15.3719Z" fill="currentColor"/>
<path d="M17.1384 9.54233L13.1856 10.2047L12.4128 9.25193L16.9632 8.50073L17.1384 9.54233Z" fill="currentColor"/>
<path d="M17.1407 8.5127L17.4311 10.0343L18.7055 12.3983L18.9671 12.4127V11.4263L17.1407 8.5127Z" fill="currentColor"/>
<path d="M1.14722 16.1184C1.14722 16.9248 1.79762 17.58 2.59922 17.58C3.24722 17.58 3.78962 17.148 3.97922 16.5576C4.02242 16.4184 4.05362 16.272 4.05362 16.1184C4.05362 15.312 3.40322 14.6592 2.59922 14.6592C2.43842 14.6592 2.28242 14.6904 2.13842 14.7408C1.56242 14.9352 1.14722 15.4728 1.14722 16.1184ZM1.92722 16.1184C1.92722 15.744 2.22962 15.4416 2.59922 15.4416C2.97122 15.4416 3.27122 15.744 3.27122 16.1184C3.27122 16.4904 2.96882 16.7928 2.59922 16.7928C2.22722 16.7928 1.92722 16.4904 1.92722 16.1184Z" fill="currentColor"/>
<path d="M9.92639 16.1184C9.92639 16.9248 10.5768 17.58 11.3784 17.58C12.0264 17.58 12.5688 17.148 12.7584 16.5576C12.8016 16.4184 12.8328 16.272 12.8328 16.1184C12.8328 15.312 12.1824 14.6592 11.3784 14.6592C11.2176 14.6592 11.0616 14.6904 10.9176 14.7408C10.344 14.9352 9.92639 15.4728 9.92639 16.1184ZM10.7064 16.1184C10.7064 15.744 11.0088 15.4416 11.3784 15.4416C11.7504 15.4416 12.0504 15.744 12.0504 16.1184C12.0504 16.4904 11.748 16.7928 11.3784 16.7928C11.0088 16.7928 10.7064 16.4904 10.7064 16.1184Z" fill="currentColor"/>
<path d="M4.86955 13.7831C4.86955 13.8167 4.84795 13.8407 4.81915 13.8407H4.65355V14.0375C4.65355 14.0711 4.63195 14.0951 4.60315 14.0951H4.47355C4.44715 14.0951 4.42315 14.0687 4.42315 14.0375V13.8407H4.25755C4.23115 13.8407 4.20715 13.8143 4.20715 13.7831V13.6295C4.20715 13.5959 4.22875 13.5719 4.25755 13.5719H4.42315V13.3751C4.42315 13.3415 4.44475 13.3175 4.47355 13.3175H4.60315C4.62955 13.3175 4.65355 13.3439 4.65355 13.3751V13.5719H4.81915C4.84555 13.5719 4.86955 13.5983 4.86955 13.6295V13.7831ZM6.10075 13.8671L5.19595 14.9399C5.19115 14.9471 5.18155 14.9495 5.17435 14.9495C5.16955 14.9495 5.16475 14.9471 5.15995 14.9447C5.14795 14.9375 5.14315 14.9231 5.14795 14.9087L5.46715 14.1599H5.17675C5.16715 14.1599 5.15755 14.1551 5.15275 14.1455C5.14795 14.1383 5.14795 14.1263 5.15035 14.1191L5.57275 13.2719C5.57755 13.2623 5.58715 13.2551 5.59915 13.2551H6.05035C6.05995 13.2551 6.06955 13.2599 6.07435 13.2695C6.07915 13.2791 6.07915 13.2887 6.07435 13.2983L5.74315 13.8191H6.07675C6.08875 13.8191 6.09835 13.8263 6.10315 13.8359C6.11035 13.8455 6.10795 13.8575 6.10075 13.8671ZM7.04155 13.7783C7.04155 13.8119 7.01755 13.8407 6.98875 13.8407H6.48715C6.45835 13.8407 6.43435 13.8119 6.43435 13.7783V13.6319C6.43435 13.5983 6.45835 13.5695 6.48715 13.5695H6.98875C7.01755 13.5695 7.04155 13.5983 7.04155 13.6319V13.7783Z" fill="currentColor"/>
</g>
<defs>
<clipPath id="clip0_1422_1308">
<rect width="24" height="11.1" fill="currentColor" transform="translate(0 6.47998)"/>
</clipPath>
</defs>
</svg>
