<svg width="24" height="24" viewBox="0 0 24 24" fill="currentColor" xmlns="http://www.w3.org/2000/svg">
<g clip-path="url(#clip0_1420_1141)">
<path d="M7.8696 14.1985L9.264 14.5657L9.6384 16.3945L9.6816 17.5201H6.8976V14.1985H7.8696ZM7.5024 14.7649V16.4593L7.9968 16.4617V14.7601L7.5024 14.7649ZM8.6496 14.7625L8.16 14.7577L8.1576 16.4641L8.6424 16.4593L8.6496 14.7625ZM9.0696 14.7745H8.832L8.8272 16.8625L9.4128 16.8673L9.3936 16.4257L9.0696 14.7745Z" fill="currentColor"/>
<path d="M16.1904 20.46L16.092 8.3424L16.3872 8.3304L16.092 0L17.1216 0.0048L17.3376 7.0584L17.8752 7.0464L17.8656 6.5496L18.8904 6.54L18.9336 7.2528L18.5664 7.2744V7.7712L18.3288 8.2248L18.4584 11.1576L18.7176 11.4384L18.7224 11.7048L18.4152 11.7192L18.0912 12.2568L18.0696 13.8792L17.7552 13.8768L17.7288 13.4064L17.4672 13.4016L17.6184 21.696L16.9944 20.46H16.1904Z" fill="currentColor"/>
<path d="M6.90959 21.468C7.60799 21.468 8.17439 22.0344 8.17439 22.7328C8.17439 23.4312 7.60799 23.9976 6.90959 23.9976C6.21119 23.9976 5.64479 23.4312 5.64479 22.7328C5.64479 22.0344 6.21119 21.468 6.90959 21.468ZM6.39119 22.7208C6.39119 23.0136 6.62879 23.2536 6.92399 23.2536C7.21919 23.2536 7.45679 23.016 7.45679 22.7208C7.45679 22.4256 7.21919 22.188 6.92399 22.188C6.62879 22.188 6.39119 22.4256 6.39119 22.7208Z" fill="currentColor"/>
<path d="M16.2768 21.3816C16.9752 21.3816 17.5416 21.948 17.5416 22.6464C17.5416 23.3448 16.9752 23.9112 16.2768 23.9112C15.5784 23.9112 15.012 23.3448 15.012 22.6464C15.0096 21.948 15.576 21.3816 16.2768 21.3816ZM15.7584 22.6344C15.7584 22.9272 15.996 23.1672 16.2912 23.1672C16.5864 23.1672 16.824 22.9296 16.824 22.6344C16.824 22.3392 16.5864 22.1016 16.2912 22.1016C15.996 22.1016 15.7584 22.3392 15.7584 22.6344Z" fill="currentColor"/>
<path d="M15.2088 14.7431L12.4632 20.1935L12.8088 20.5295L15.6744 14.9831L15.5736 14.9231L15.9264 14.2175L15.9408 13.6631L15.3288 14.8055L15.2088 14.7431Z" fill="currentColor"/>
<path d="M16.788 20.7648L12.6552 20.832L12.2712 20.4192L12.048 20.832H11.988L11.8152 20.616L9.67919 17.8464H6.29279V18.168H7.11359V18.4512L8.08319 19.0776L8.11199 20.424L5.03999 20.4216V22.98H5.27759C5.26559 22.9008 5.25839 22.8192 5.25839 22.7352C5.25839 21.8136 6.00959 21.0624 6.93119 21.0624C7.85279 21.0624 8.60399 21.8136 8.60399 22.7352C8.60399 22.8648 8.58719 22.9896 8.56079 23.112L14.6784 23.1312C14.6328 22.9776 14.6064 22.8168 14.6064 22.6488C14.6064 21.7272 15.3576 20.976 16.2792 20.976C16.5168 20.976 16.74 21.0264 16.944 21.1152L16.788 20.7648ZM9.93839 20.8104L9.07679 18.1776L9.35519 18.1848L11.148 20.808H9.93839V20.8104Z" fill="currentColor"/>
</g>
<defs>
<clipPath id="clip0_1420_1141">
<rect width="13.8936" height="24" fill="currentColor" transform="translate(5.03999)"/>
</clipPath>
</defs>
</svg>
