<svg width="24" height="24" viewBox="0 0 24 24" fill="currentColor" xmlns="http://www.w3.org/2000/svg">
<g clip-path="url(#clip0_1538_833)">
<path d="M23.6808 11.5945L20.988 9.54972C20.7456 9.36492 20.4192 9.33372 20.1432 9.47052C19.8696 9.60492 19.6968 9.88572 19.6968 10.1905V11.4409H18.9V10.1761C18.9 9.73212 18.54 9.37212 18.096 9.37212H16.4952V6.38652C16.4952 5.94252 16.1352 5.58252 15.6912 5.58252H13.1928V4.72812H13.8648C14.3088 4.72812 14.6688 4.36812 14.6688 3.92412C14.6688 3.48012 14.3088 3.12012 13.8648 3.12012H8.6712C8.2272 3.12012 7.8672 3.48012 7.8672 3.92412C7.8672 4.36812 8.2272 4.72812 8.6712 4.72812H9.3456V5.58252H6.2376C5.7936 5.58252 5.4336 5.94252 5.4336 6.38652V7.95612H3.864C3.42 7.95612 3.06 8.31612 3.06 8.76012V10.5985H1.608V8.31612C1.608 7.87212 1.248 7.51212 0.804 7.51212C0.36 7.51212 0 7.87212 0 8.31612V16.7281C0 17.1721 0.36 17.5321 0.804 17.5321C1.248 17.5321 1.608 17.1721 1.608 16.7281V14.4457H3.0576V16.3321C3.0576 16.7761 3.4176 17.1361 3.8616 17.1361H5.8824L8.7192 20.6305C8.8728 20.8177 9.1008 20.9281 9.3432 20.9281H18.096C18.54 20.9281 18.9 20.5681 18.9 20.1241V19.0609H19.6968V20.1241C19.6968 20.4385 19.8792 20.7241 20.1648 20.8537C20.2728 20.9041 20.388 20.9281 20.5008 20.9281C20.6904 20.9281 20.8752 20.8609 21.024 20.7337L23.7168 18.4249C23.8944 18.2713 23.9976 18.0481 23.9976 17.8153V12.2329C24 11.9833 23.8824 11.7457 23.6808 11.5945Z" fill="currentColor"/>
</g>
<defs>
<clipPath id="clip0_1538_833">
<rect width="24" height="17.8056" fill="currentColor" transform="translate(0 3.12012)"/>
</clipPath>
</defs>
</svg>
