<svg width="24" height="24" viewBox="0 0 24 24" fill="currentColor" xmlns="http://www.w3.org/2000/svg">
<g clip-path="url(#clip0_1532_950)">
<path d="M15.0673 9.2234C15.1009 9.2234 15.1369 9.2138 15.1681 9.1922L16.3681 8.4074C16.4545 8.3522 16.4785 8.237 16.4209 8.1506C16.3657 8.0642 16.2505 8.0402 16.1641 8.0978L14.9641 8.8826C14.8777 8.9378 14.8537 9.053 14.9113 9.1394C14.9473 9.1946 15.0049 9.2234 15.0673 9.2234Z" fill="currentColor"/>
<path d="M15.3023 15.1587C13.8767 15.1587 12.6911 16.1883 12.4391 17.5467C12.4079 17.7219 12.3887 17.8995 12.3887 18.0819C12.3887 19.6995 13.6967 21.0147 15.3047 21.0147C16.9127 21.0147 18.2207 19.6995 18.2207 18.0819C18.2207 17.5635 18.0839 17.0787 17.8487 16.6563C17.3471 15.7635 16.3943 15.1587 15.3023 15.1587ZM15.3023 19.3635C14.6015 19.3635 14.0279 18.7899 14.0279 18.0819C14.0279 17.8899 14.0711 17.7099 14.1479 17.5467C14.3495 17.1075 14.7911 16.8003 15.3023 16.8003C15.4631 16.8003 15.6167 16.8339 15.7583 16.8867C16.2359 17.0715 16.5791 17.5323 16.5791 18.0819C16.5791 18.7899 16.0079 19.3635 15.3023 19.3635Z" fill="currentColor"/>
<path d="M5.83927 19.1138C5.62807 19.1138 5.45287 19.265 5.41687 19.4666C5.41207 19.493 5.40967 19.5194 5.40967 19.5458C5.40967 19.7858 5.60407 19.9802 5.83927 19.9802C6.07687 19.9802 6.26887 19.7858 6.26887 19.5458C6.26887 19.469 6.24967 19.397 6.21367 19.3346C6.14167 19.205 6.00007 19.1138 5.83927 19.1138ZM5.83927 19.7354C5.73607 19.7354 5.65207 19.6514 5.65207 19.5458C5.65207 19.517 5.65927 19.4906 5.66887 19.4666C5.69767 19.4018 5.76487 19.3562 5.83927 19.3562C5.86327 19.3562 5.88487 19.361 5.90647 19.3682C5.97607 19.3946 6.02647 19.4642 6.02647 19.5458C6.02647 19.6514 5.94247 19.7354 5.83927 19.7354Z" fill="currentColor"/>
<path d="M5.83447 18.9191C5.83687 18.9191 5.83687 18.9191 5.83927 18.9191C6.06487 18.9191 6.27367 19.0415 6.38647 19.2407C6.43927 19.3343 6.46567 19.4399 6.46567 19.5455C6.46567 19.6415 6.44407 19.7327 6.40327 19.8167H9.69127V18.6719H5.83447V18.9191Z" fill="currentColor"/>
<path d="M1.3584 16.5602C0.684 16.6994 0.156 17.2394 0.0312 17.921C0.012 18.0218 0 18.1274 0 18.233C0 19.1786 0.7656 19.949 1.704 19.949C2.6448 19.949 3.408 19.1786 3.408 18.233C3.408 17.9306 3.3288 17.6474 3.192 17.4002C3.0648 17.1746 2.8896 16.9802 2.6808 16.8338H12.2808C12.7752 15.629 13.9488 14.8058 15.2928 14.801H15.3048C16.4808 14.801 17.5728 15.4418 18.156 16.4738C18.2208 16.5914 18.2808 16.7114 18.3312 16.8362H18.5808V14.5322H1.3584V16.5602ZM1.704 18.9842C1.296 18.9842 0.96 18.6482 0.96 18.233C0.96 18.1202 0.9864 18.017 1.0296 17.921C1.1472 17.6642 1.4064 17.4842 1.7064 17.4842C1.8 17.4842 1.8888 17.5034 1.9728 17.5346C2.2512 17.6426 2.4528 17.9114 2.4528 18.233C2.4504 18.6482 2.1168 18.9842 1.704 18.9842Z" fill="currentColor"/>
<path d="M9.3887 9.68164C9.3887 9.68164 5.7335 10.0056 4.6175 10.1304C3.5447 10.2504 2.1407 11.1696 2.1407 12.5664C2.1407 13.9656 2.1167 14.1552 2.1167 14.1552H9.3887V9.68164Z" fill="currentColor"/>
<path d="M9.8545 14.0498H17.2585V14.0474L18.7801 13.3658L17.1889 9.07698C17.0425 9.06498 16.9033 9.05298 16.8793 9.05298L16.4713 9.17298L16.4161 9.21378L16.0849 8.82978L15.7729 9.03858L16.0393 9.60258C15.9193 9.78498 15.7921 9.99618 15.7921 9.99618L16.7545 12.3242L17.0857 13.4522L14.3161 12.8546L13.3393 11.177C13.4017 11.177 13.4473 11.177 13.4713 11.177C13.6657 11.177 13.7593 11.1122 13.8025 10.9202C13.8409 10.7498 13.8049 10.541 13.5193 10.493C13.3249 10.4618 11.8585 10.2626 11.6377 10.2074C11.4169 10.1522 11.5393 9.87378 11.5393 9.87378C11.5393 9.87378 11.6617 9.31938 11.5393 8.87538C11.4169 8.43138 11.1481 8.04498 11.0737 7.71138C10.9993 7.37778 11.0689 7.10898 10.8721 7.10898C10.7161 7.10898 10.7065 7.20978 10.7065 7.23858C10.7065 7.25298 10.7065 8.03778 10.7065 8.78898L9.3865 3.89538L8.7793 3.88818L10.4545 10.313L9.8545 10.3202V14.0498Z" fill="currentColor"/>
<path d="M17.011 3.12012H8.19342L7.99902 3.67212H17.1982L17.011 3.12012Z" fill="currentColor"/>
<path d="M20.1242 11.8778L16.9322 3.89538L16.5698 3.88818L19.7546 11.981V13.2554L18.1058 13.9826L19.2842 13.9658L20.7146 13.3922L20.4986 12.9266L20.1218 13.0922V11.8802L20.1242 11.8778Z" fill="currentColor"/>
<path d="M9.67424 17.1216H7.12305V18.432H9.67424V17.1216Z" fill="currentColor"/>
<path d="M23.2799 19.0513C23.6687 18.6793 24.0287 18.2401 23.9975 17.7361C23.9759 17.3953 23.7743 17.0857 23.3951 16.8169C22.7951 16.3897 22.2095 16.3129 21.7823 16.2577C21.4199 16.2097 21.2111 16.1761 21.1127 16.0321C21.0263 15.9049 20.9687 15.6865 20.9087 15.4537C20.7623 14.8945 20.5631 14.1289 19.7135 14.0617C19.5959 14.0521 19.4927 14.1409 19.4831 14.2585C19.4735 14.3761 19.5623 14.4793 19.6799 14.4889C20.1887 14.5297 20.3327 14.9401 20.4935 15.5617C20.5631 15.8305 20.6303 16.0849 20.7575 16.2745C20.9687 16.5865 21.3383 16.6345 21.7271 16.6849C22.1519 16.7401 22.6343 16.8025 23.1479 17.1673C23.4143 17.3569 23.5559 17.5585 23.5703 17.7649C23.5919 18.0913 23.3111 18.4273 23.0015 18.7249C22.8767 18.6433 22.7303 18.5929 22.5719 18.5929H20.2319C19.8623 18.5929 19.5407 18.8521 19.4639 19.2145L19.2095 20.4265H23.5799L23.3423 19.2241C23.3279 19.1641 23.3063 19.1065 23.2799 19.0513ZM22.8167 19.9585C22.6367 20.1385 22.3463 20.1385 22.1687 19.9585C21.9887 19.7785 21.9887 19.4881 22.1687 19.3105L22.4927 18.9865L23.1407 19.6345L22.8167 19.9585Z" fill="currentColor"/>
<path d="M22.3847 18.2351L18.9839 14.8799L18.9911 16.1999L21.0383 18.2495L22.3847 18.2351Z" fill="currentColor"/>
</g>
<defs>
<clipPath id="clip0_1532_950">
<rect width="24" height="17.8944" fill="currentColor" transform="translate(0 3.12012)"/>
</clipPath>
</defs>
</svg>
