<svg width="24" height="24" viewBox="0 0 24 24" fill="currentColor" xmlns="http://www.w3.org/2000/svg">
<g clip-path="url(#clip0_1433_1282)">
<path d="M7.392 13.8983C6.7104 13.8983 6.144 14.3903 6.024 15.0407C6.0096 15.1247 6 15.2087 6 15.2975C6 16.0703 6.6264 16.6991 7.3944 16.6991C8.1624 16.6991 8.7888 16.0703 8.7888 15.2975C8.7888 15.0503 8.724 14.8175 8.6112 14.6159C8.3688 14.1887 7.9128 13.8983 7.392 13.8983ZM7.392 15.9095C7.056 15.9095 6.7824 15.6359 6.7824 15.2951C6.7824 15.2039 6.804 15.1175 6.84 15.0383C6.936 14.8295 7.1472 14.6807 7.392 14.6807C7.4688 14.6807 7.5408 14.6975 7.6104 14.7215C7.8384 14.8103 8.0016 15.0287 8.0016 15.2927C8.0016 15.6359 7.728 15.9095 7.392 15.9095Z" fill="currentColor"/>
<path d="M21.7585 16.4303H20.5657V16.7039H21.7585V16.4303Z" fill="currentColor"/>
<path d="M3.19678 14.0687V14.7623H5.81278C5.90398 14.4911 6.05998 14.2559 6.26158 14.0687H3.19678Z" fill="currentColor"/>
<path d="M24 14.4288H23.2464V14.3856C23.2464 14.2104 23.1048 14.0688 22.9296 14.0688H21.3024V13.4592L20.9568 13.6128V14.0688H18.4704V11.9712H19.8672V11.532H18.4704V9.14395C18.4704 8.95435 18.4392 8.83915 18.3696 8.76955C18.2928 8.69515 18.1944 8.69515 18.1176 8.69755H16.584C16.3272 8.69755 16.2552 8.82235 16.176 8.95435L16.152 8.99515C16.056 9.15355 15.768 10.272 15.7104 10.4952L15.708 11.1168L15.4032 11.1144L15.18 12.0864H14.9016L15.9312 7.79275C16.0056 7.49035 15.7776 7.19995 15.4656 7.19995H0.441629C0.153629 7.19995 -0.0575705 7.47115 0.0144294 7.75195L1.05123 11.8056H0.674429V13.7976H1.56243H1.80963H14.4936L14.8536 12.3024H15.1344L14.7912 13.7976H17.8728V13.6008H18.2544V14.0688H8.52003C8.64723 14.1864 8.76003 14.3256 8.84643 14.4816C8.89683 14.5704 8.93763 14.664 8.96883 14.76H18.7752L20.64 14.952H20.9568V16.3056H21.3048V14.952H23.124C23.1936 14.952 23.2488 14.8968 23.2488 14.8272V14.736H24V14.4288ZM18.2496 12.5112H17.868V11.9712H18.2496V12.5112ZM15.9264 10.5384C16.0656 9.99835 16.2816 9.20395 16.3392 9.11035L16.3656 9.06715C16.4352 8.94715 16.452 8.91835 16.584 8.91835H18.0864H18.12C18.1584 8.91835 18.204 8.91835 18.216 8.92795C18.2232 8.93515 18.252 8.97355 18.252 9.14635V11.532H17.8704V11.1288L15.9264 11.1192V10.5384ZM17.8704 13.38V12.7296H18.252V13.38H17.8704Z" fill="currentColor"/>
</g>
<defs>
<clipPath id="clip0_1433_1282">
<rect width="24" height="9.504" fill="currentColor" transform="translate(0 7.19995)"/>
</clipPath>
</defs>
</svg>
