<svg width="24" height="24" viewBox="0 0 24 24" fill="currentColor" xmlns="http://www.w3.org/2000/svg">
<g clip-path="url(#clip0_1437_2169)">
<path d="M7.14491 10.7495C5.42651 10.7495 3.99611 11.9927 3.69131 13.6295C3.65291 13.8383 3.62891 14.0543 3.62891 14.2751C3.62891 16.2263 5.20811 17.8127 7.14491 17.8127C9.08411 17.8127 10.6609 16.2263 10.6609 14.2751C10.6609 13.6487 10.4977 13.0655 10.2121 12.5567C9.6097 11.4791 8.46251 10.7495 7.14491 10.7495ZM7.14491 15.8231C6.30011 15.8231 5.60891 15.1319 5.60891 14.2751C5.60891 14.0423 5.66171 13.8263 5.75291 13.6295C5.99771 13.0991 6.52811 12.7295 7.14491 12.7295C7.33931 12.7295 7.52171 12.7703 7.69451 12.8327C8.27051 13.0535 8.68331 13.6103 8.68331 14.2727C8.68571 15.1295 7.99451 15.8231 7.14491 15.8231Z" fill="currentColor"/>
<path d="M2.66875 13.6513C3.25915 13.6513 3.74155 13.1665 3.74155 12.5713C3.74155 12.3793 3.69115 12.2017 3.60475 12.0457C3.41995 11.7169 3.06955 11.4937 2.66875 11.4937C2.14315 11.4937 1.70875 11.8729 1.61515 12.3721C1.60315 12.4369 1.59595 12.5017 1.59595 12.5689C1.59595 13.1665 2.07835 13.6513 2.66875 13.6513ZM2.24395 12.3745C2.31835 12.2137 2.48155 12.1009 2.66875 12.1009C2.72875 12.1009 2.78395 12.1129 2.83675 12.1321C3.01195 12.1993 3.13915 12.3697 3.13915 12.5713C3.13915 12.8329 2.92795 13.0441 2.66875 13.0441C2.41195 13.0441 2.20075 12.8329 2.20075 12.5713C2.20075 12.5017 2.21755 12.4345 2.24395 12.3745Z" fill="currentColor"/>
<path d="M20.0016 6L0.424805 6.9984V8.2392L20.0016 7.2408V6Z" fill="currentColor"/>
<path d="M22.0536 14.3064V13.5072L21.6648 13.3344V14.3064H18.2448V13.1688H18.4176V12.3408H10.4448C10.4568 12.3624 10.4712 12.384 10.4832 12.4056C10.6176 12.648 10.7256 12.9048 10.8048 13.1688H11.6616V14.4792H13.3848V13.1688H15.3504L16.5384 14.3064H15.6936V15.0984H17.3664L17.7264 15.444H18.2424V15.0984H21.6624V16.536H22.0536V15.0984H24V14.3064H22.0536Z" fill="currentColor"/>
<path d="M22.4928 16.6775H21.1536V16.9847H22.4928V16.6775Z" fill="currentColor"/>
<path d="M15.3719 14.6399H12.4319V15.0527H15.3719V14.6399Z" fill="currentColor"/>
<path d="M2.6689 12.7344C2.7577 12.7344 2.8297 12.66 2.8297 12.5712C2.8297 12.4896 2.7745 12.4392 2.7289 12.42C2.7073 12.4128 2.6857 12.408 2.6689 12.408C2.6065 12.408 2.5513 12.4464 2.5249 12.504C2.5153 12.5256 2.5105 12.5472 2.5105 12.5712C2.5105 12.6624 2.5825 12.7344 2.6689 12.7344Z" fill="currentColor"/>
<path d="M3.35753 13.7737C3.15593 13.8913 2.92073 13.9585 2.66873 13.9585C2.61833 13.9585 2.56793 13.9561 2.51753 13.9489V14.8657H0.321533V15.2785H2.51753V15.3697H3.43433V15.1993C3.35993 14.9017 3.32153 14.5897 3.32153 14.2705C3.32153 14.1145 3.33353 13.9489 3.35753 13.7737Z" fill="currentColor"/>
<path d="M1.2888 12.5713C1.2888 12.4897 1.296 12.4081 1.3128 12.3169C1.32 12.2785 1.3296 12.2401 1.3392 12.2017H0V12.9841H1.3512C1.3104 12.8545 1.2888 12.7153 1.2888 12.5713Z" fill="currentColor"/>
<path d="M1.16629 11.1841L0.983887 11.3665L1.48309 11.8657C1.52869 11.7913 1.57909 11.7217 1.63669 11.6569L1.16629 11.1841Z" fill="currentColor"/>
<path d="M19.8313 7.80469L19.9681 7.55029L0.458496 8.55109L2.6113 11.1911C2.6305 11.1911 2.6497 11.1887 2.6689 11.1887C3.1681 11.1887 3.6289 11.4599 3.8737 11.8991C3.9097 11.9615 3.9361 12.0287 3.9601 12.0983C3.9649 12.1103 3.9697 12.1223 3.9745 12.1367C3.9841 12.1247 3.9937 12.1127 4.0009 12.0983C4.6969 11.0903 5.8561 10.4423 7.1425 10.4423C8.3809 10.4423 9.5377 11.0495 10.2529 12.0527L17.5873 11.9999L19.6969 8.05669H19.7425C19.9633 8.05429 20.1721 8.05189 20.2513 8.13109C20.2633 8.14309 20.3017 8.18149 20.3017 8.30149V13.2407C20.3017 13.3775 20.2753 13.4711 20.2273 13.5191C20.1649 13.5791 20.0545 13.5791 19.9465 13.5767H18.5185V13.8239H19.8961H19.9417C19.9585 13.8239 19.9777 13.8239 19.9969 13.8239C20.1241 13.8239 20.2801 13.8119 20.3977 13.6943C20.4985 13.5959 20.5465 13.4471 20.5465 13.2383V8.29669C20.5465 8.14789 20.5057 8.03269 20.4217 7.95109C20.2897 7.81669 20.0785 7.80469 19.8313 7.80469Z" fill="currentColor"/>
</g>
<defs>
<clipPath id="clip0_1437_2169">
<rect width="24" height="11.8128" fill="currentColor" transform="translate(0 6)"/>
</clipPath>
</defs>
</svg>
