<svg width="24" height="24" viewBox="0 0 24 24" fill="currentColor" xmlns="http://www.w3.org/2000/svg">
<g clip-path="url(#clip0_1437_1868)">
<path d="M2.97361 16.3872C1.99681 16.3872 1.18561 17.0928 1.01281 18.024C0.991207 18.144 0.976807 18.2664 0.976807 18.3912C0.976807 19.5 1.87441 20.4 2.97361 20.4C4.07521 20.4 4.97041 19.4976 4.97041 18.3912C4.97041 18.036 4.87681 17.7048 4.71601 17.4144C4.37281 16.8024 3.72241 16.3872 2.97361 16.3872ZM2.97361 19.2672C2.49361 19.2672 2.10001 18.8736 2.10001 18.3888C2.10001 18.2568 2.12881 18.1344 2.18161 18.0216C2.32081 17.7216 2.62321 17.5104 2.97361 17.5104C3.08401 17.5104 3.18721 17.532 3.28561 17.5704C3.61201 17.6952 3.84721 18.012 3.84721 18.3888C3.84721 18.876 3.45601 19.2672 2.97361 19.2672Z" fill="currentColor"/>
<path d="M7.9343 16.3872C6.9575 16.3872 6.1463 17.0928 5.9735 18.024C5.9519 18.144 5.9375 18.2664 5.9375 18.3912C5.9375 19.5 6.8351 20.4 7.9343 20.4C9.0359 20.4 9.9311 19.4976 9.9311 18.3912C9.9311 18.036 9.8375 17.7048 9.6767 17.4144C9.3335 16.8024 8.6807 16.3872 7.9343 16.3872ZM7.9343 19.2672C7.4543 19.2672 7.0607 18.8736 7.0607 18.3888C7.0607 18.2568 7.0895 18.1344 7.1423 18.0216C7.2815 17.7216 7.5839 17.5104 7.9343 17.5104C8.0447 17.5104 8.1479 17.532 8.2463 17.5704C8.5727 17.6952 8.8079 18.012 8.8079 18.3888C8.8079 18.876 8.4167 19.2672 7.9343 19.2672Z" fill="currentColor"/>
<path d="M12.8833 16.3872C11.9065 16.3872 11.0953 17.0928 10.9225 18.024C10.9009 18.144 10.8865 18.2664 10.8865 18.3912C10.8865 19.5 11.7841 20.4 12.8833 20.4C13.9849 20.4 14.8801 19.4976 14.8801 18.3912C14.8801 18.036 14.7865 17.7048 14.6257 17.4144C14.2849 16.8024 13.6321 16.3872 12.8833 16.3872ZM12.8833 19.2672C12.4033 19.2672 12.0097 18.8736 12.0097 18.3888C12.0097 18.2568 12.0385 18.1344 12.0913 18.0216C12.2305 17.7216 12.5329 17.5104 12.8833 17.5104C12.9937 17.5104 13.0969 17.532 13.1953 17.5704C13.5217 17.6952 13.7569 18.012 13.7569 18.3888C13.7593 18.876 13.3657 19.2672 12.8833 19.2672Z" fill="currentColor"/>
<path d="M22.6968 16.6586L21.2496 16.685L21.2424 16.3874L20.2104 16.4114L20.2176 16.7042L19.8312 16.7114L19.7928 16.5218L19.3368 16.5242V16.3682H13.9536C14.3184 16.5626 14.6304 16.8554 14.8464 17.2226H17.292V17.2322L23.9904 17.213L23.9976 16.8746L22.6968 16.6586Z" fill="currentColor"/>
<path d="M4.93675 17.225H5.96875C6.18235 16.8602 6.49435 16.5674 6.86395 16.3706H4.04395C4.40875 16.565 4.71835 16.8578 4.93675 17.225Z" fill="currentColor"/>
<path d="M9.89764 17.225H10.92C11.1336 16.8602 11.4456 16.5674 11.8152 16.3706H9.00244C9.36724 16.565 9.67924 16.8578 9.89764 17.225Z" fill="currentColor"/>
<path d="M1.90315 16.3706H0.0959473V17.225H1.00795C1.22155 16.8602 1.53355 16.5674 1.90315 16.3706Z" fill="currentColor"/>
<path d="M19.3368 8.50562H0V15.9432H19.3368V8.50562Z" fill="currentColor"/>
<path d="M20.7911 14.7889V4.4401L19.6367 3.6001V15.9433C20.2727 15.9433 20.7911 15.4249 20.7911 14.7889Z" fill="currentColor"/>
<path d="M19.4736 3.60962H18.2544V5.13362H19.4736V3.60962Z" fill="currentColor"/>
</g>
<defs>
<clipPath id="clip0_1437_1868">
<rect width="24" height="16.8" fill="currentColor" transform="translate(0 3.6001)"/>
</clipPath>
</defs>
</svg>
