<svg width="24" height="24" viewBox="0 0 24 24" fill="currentColor" xmlns="http://www.w3.org/2000/svg">
<g clip-path="url(#clip0_1437_1852)">
<path d="M2.76233 10.0969C1.82393 10.0969 1.04393 10.7737 0.878327 11.6665C0.859127 11.7817 0.844727 11.8993 0.844727 12.0193C0.844727 13.0825 1.70633 13.9489 2.76233 13.9489C3.82073 13.9489 4.67993 13.0825 4.67993 12.0193C4.67993 11.6785 4.59113 11.3593 4.43513 11.0809C4.10633 10.4953 3.47993 10.0969 2.76233 10.0969ZM2.76233 12.8641C2.30153 12.8641 1.92473 12.4873 1.92473 12.0193C1.92473 11.8921 1.95353 11.7745 2.00393 11.6665C2.13593 11.3785 2.42633 11.1769 2.76473 11.1769C2.87033 11.1769 2.97113 11.1985 3.06473 11.2345C3.37913 11.3545 3.60473 11.6593 3.60473 12.0193C3.60233 12.4873 3.22553 12.8641 2.76233 12.8641Z" fill="currentColor"/>
<path d="M7.52649 10.0969C6.58809 10.0969 5.80809 10.7737 5.64249 11.6665C5.62089 11.7817 5.60889 11.8993 5.60889 12.0193C5.60889 13.0825 6.47049 13.9489 7.52649 13.9489C8.58489 13.9489 9.44409 13.0825 9.44409 12.0193C9.44409 11.6785 9.35529 11.3593 9.19929 11.0809C8.87049 10.4953 8.24409 10.0969 7.52649 10.0969ZM7.52649 12.8641C7.06569 12.8641 6.68889 12.4873 6.68889 12.0193C6.68889 11.8921 6.71769 11.7745 6.76809 11.6665C6.90009 11.3785 7.19049 11.1769 7.52889 11.1769C7.63449 11.1769 7.73529 11.1985 7.82889 11.2345C8.14329 11.3545 8.36889 11.6593 8.36889 12.0193C8.36409 12.4873 7.98969 12.8641 7.52649 12.8641Z" fill="currentColor"/>
<path d="M4.64875 10.9009H5.63755C5.84395 10.5529 6.14155 10.2697 6.49675 10.0801H3.78955C4.13995 10.2673 4.43995 10.5481 4.64875 10.9009Z" fill="currentColor"/>
<path d="M1.7352 10.0801H0V10.9009H0.876C1.0824 10.5529 1.38 10.2697 1.7352 10.0801Z" fill="currentColor"/>
<path d="M16.5145 10.9009L18.4609 10.6777V12.2593H18.5113V13.8817H18.3913V13.9489H18.8713V13.8817H18.7513V12.2593H18.8017V10.6225L20.9521 10.2721H24.0001V10.0825H18.3793L18.4753 10.0801H8.55371C8.90411 10.2673 9.20171 10.5481 9.41291 10.9009H15.9769H16.5145Z" fill="currentColor"/>
</g>
<defs>
<clipPath id="clip0_1437_1852">
<rect width="24" height="3.8688" fill="currentColor" transform="translate(0 10.0801)"/>
</clipPath>
</defs>
</svg>
