<svg width="24" height="24" viewBox="0 0 24 24" fill="currentColor" xmlns="http://www.w3.org/2000/svg">
<g clip-path="url(#clip0_1433_1464)">
<path d="M4.80711 12.6862C4.67031 12.931 4.59351 13.2094 4.59351 13.5094C4.59351 14.4454 5.34951 15.2062 6.27831 15.2062C7.20711 15.2062 7.96311 14.4454 7.96311 13.5094C7.96311 13.4038 7.95111 13.3006 7.93431 13.1998C7.78791 12.415 7.10391 11.8198 6.27831 11.8198C5.64471 11.8198 5.09511 12.1702 4.80711 12.6862ZM5.53911 13.5094C5.53911 13.1902 5.73831 12.9262 6.01431 12.8182C6.09591 12.787 6.18471 12.7678 6.27831 12.7678C6.57351 12.7678 6.83031 12.9454 6.94551 13.1998C6.98871 13.2958 7.01511 13.399 7.01511 13.5094C7.01511 13.9198 6.68391 14.251 6.27831 14.251C5.87031 14.251 5.53911 13.9198 5.53911 13.5094Z" fill="currentColor"/>
<path d="M11.7839 13.5191C11.6927 13.6823 11.6399 13.8695 11.6399 14.0711C11.6399 14.6975 12.1463 15.2063 12.7679 15.2063C13.3895 15.2063 13.8959 14.6975 13.8959 14.0711C13.8959 14.0015 13.8887 13.9319 13.8767 13.8647C13.7783 13.3391 13.3199 12.9407 12.7679 12.9407C12.3455 12.9407 11.9783 13.1735 11.7839 13.5191ZM12.2735 14.0711C12.2735 13.8575 12.4055 13.6799 12.5903 13.6079C12.6455 13.5863 12.7055 13.5743 12.7655 13.5743C12.9647 13.5743 13.1351 13.6919 13.2119 13.8623C13.2407 13.9247 13.2575 13.9943 13.2575 14.0687C13.2575 14.3423 13.0367 14.5655 12.7655 14.5655C12.4967 14.5679 12.2735 14.3447 12.2735 14.0711Z" fill="currentColor"/>
<path d="M22.9056 10.4783H21.9648V10.6943H22.9056V10.4783Z" fill="currentColor"/>
<path d="M21.9719 10.1926C21.9719 10.1542 22.0031 10.1206 22.0439 10.1206H22.0727C22.1111 10.1206 22.1447 10.1518 22.1447 10.1926V10.3918H21.9719V10.1926Z" fill="currentColor"/>
<path d="M0 13.4951H0.2784C0.264 13.5647 0.2568 13.6343 0.2568 13.7063C0.2568 14.2871 0.7272 14.7575 1.308 14.7575C1.8888 14.7575 2.3592 14.2871 2.3592 13.7063C2.3592 13.6343 2.352 13.5623 2.3376 13.4951H3.4008V13.3919C3.8328 13.3679 4.1424 13.0799 4.1424 12.6863C4.1424 12.3791 4.0512 12.1439 3.8832 11.9927H5.1744C5.3544 11.8631 5.5536 11.7647 5.7696 11.7023C5.9376 11.6543 6.1104 11.6303 6.2856 11.6303C6.6888 11.6303 7.0728 11.7575 7.3896 11.9927C7.4664 12.0503 7.5408 12.1103 7.6104 12.1799C7.6896 12.2591 7.7616 12.3455 7.824 12.4343C7.9536 12.6215 8.0472 12.8303 8.1024 13.0463L10.1952 12.2231V12.5951C9.672 12.6551 9.2664 13.0991 9.2664 13.6391C9.2664 14.2199 9.7368 14.6903 10.3176 14.6903C10.8984 14.6903 11.3688 14.2199 11.3688 13.6391C11.3688 13.0991 10.9632 12.6551 10.44 12.5951V12.1271L10.7856 11.9903H11.256L11.8848 13.0247C12.0096 12.9191 12.1512 12.8351 12.3048 12.7799L11.8248 11.9903H22.6656V14.0495H22.3272V14.2535H23.2176V14.0495H22.9272V11.9903H24V11.4143H22.9248V10.8695H22.6656V11.4167H10.608L9.3984 8.63989H8.2368L7.2 11.4167H3.1608V11.9927H3.3672C3.6456 12.0095 3.9504 12.1511 3.9504 12.6863C3.9504 12.9791 3.7152 13.1879 3.3768 13.1999H2.2272C2.0472 12.8759 1.704 12.6575 1.308 12.6575C0.912 12.6575 0.5688 12.8759 0.3888 13.1999H0V13.4951ZM10.1928 12.7511V13.5767C10.1928 13.6439 10.248 13.6991 10.3152 13.6991C10.3824 13.6991 10.4376 13.6439 10.4376 13.5767V12.7511C10.8744 12.8111 11.2104 13.1855 11.2104 13.6367C11.2104 13.9319 11.0664 14.1935 10.8456 14.3567C10.9656 14.2127 11.088 13.9871 11.0568 13.6943C11.052 13.6535 11.016 13.6247 10.9776 13.6295C10.9368 13.6343 10.908 13.6703 10.9128 13.7087C10.9416 13.9703 10.8168 14.1695 10.7088 14.2895C10.5888 14.4215 10.4472 14.5055 10.3656 14.5271C10.3488 14.5271 10.3296 14.5295 10.3128 14.5295C9.8184 14.5295 9.4176 14.1287 9.4176 13.6343C9.42 13.1855 9.756 12.8111 10.1928 12.7511ZM10.1856 11.4167H7.6128L8.5056 9.02869H9.144L10.1856 11.4167ZM2.0448 13.1999H0.5736C0.7344 12.9671 1.0056 12.8135 1.3104 12.8135C1.6152 12.8135 1.884 12.9647 2.0448 13.1999ZM0.4392 13.4951H2.1768C2.1936 13.5623 2.2032 13.6343 2.2032 13.7063C2.2032 13.9895 2.0712 14.2439 1.8648 14.4071C1.9824 14.2631 2.0976 14.0423 2.0664 13.7567C2.0616 13.7159 2.0256 13.6871 1.9872 13.6919C1.9488 13.6991 1.92 13.7351 1.9224 13.7759C1.9512 14.0375 1.8264 14.2367 1.7184 14.3567C1.5768 14.5127 1.404 14.6015 1.3368 14.6015C1.3344 14.6015 1.332 14.6039 1.3296 14.6039C1.3224 14.6039 1.3152 14.6039 1.308 14.6039C0.8136 14.6039 0.4128 14.2031 0.4128 13.7087C0.4128 13.6343 0.4224 13.5647 0.4392 13.4951Z" fill="currentColor"/>
</g>
<defs>
<clipPath id="clip0_1433_1464">
<rect width="24" height="6.5664" fill="currentColor" transform="translate(0 8.63989)"/>
</clipPath>
</defs>
</svg>
