<svg width="24" height="24" viewBox="0 0 24 24" fill="currentColor" xmlns="http://www.w3.org/2000/svg">
<g clip-path="url(#clip0_1432_1046)">
<path d="M14.9135 15.8929C14.5127 15.2113 13.7543 14.7505 12.8807 14.7505C11.7431 14.7505 10.7927 15.5377 10.5935 16.5721C10.5671 16.7041 10.5527 16.8409 10.5527 16.9801C10.5527 18.2137 11.5991 19.2169 12.8831 19.2169C14.1671 19.2169 15.2135 18.2137 15.2135 16.9801C15.2111 16.5841 15.1031 16.2145 14.9135 15.8929ZM12.8831 17.9569C12.3239 17.9569 11.8655 17.5201 11.8655 16.9777C11.8655 16.8313 11.8991 16.6945 11.9615 16.5697C12.1223 16.2337 12.4751 16.0009 12.8855 16.0009C13.0151 16.0009 13.1351 16.0273 13.2503 16.0657C13.6319 16.2049 13.9055 16.5577 13.9055 16.9777C13.9007 17.5201 13.4447 17.9569 12.8831 17.9569Z" fill="currentColor"/>
<path d="M0.568922 14.0353L0.134521 16.2313L0.880922 17.2393L1.34652 17.2681L1.40892 17.2729C1.39692 17.3521 1.38732 17.4313 1.38732 17.5129C1.38732 18.4513 2.18412 19.2145 3.15852 19.2145C4.13532 19.2145 4.92972 18.4513 4.92972 17.5153L10.4497 17.8945C10.3321 17.6113 10.2673 17.3017 10.2673 16.9801C10.2673 16.8337 10.2817 16.6849 10.3129 16.5241C10.5433 15.3433 11.6209 14.4865 12.8761 14.4865C13.8169 14.4865 14.6881 14.9761 15.1513 15.7657C15.3673 16.1377 15.4825 16.5577 15.4825 16.9825C15.4825 17.4313 15.3577 17.8537 15.1417 18.2185L15.6409 18.2521V14.0353H0.568922ZM3.93852 17.5129C3.93852 17.9257 3.59052 18.2569 3.16332 18.2569C2.73612 18.2569 2.38812 17.9233 2.38812 17.5129C2.38812 17.4529 2.39532 17.3977 2.40972 17.3425L3.93372 17.4457C3.93612 17.4697 3.93852 17.4913 3.93852 17.5129Z" fill="currentColor"/>
<path d="M9.89513 12.2089V11.0977H8.18633V12.2425L2.56554 12.3505C1.85514 12.3649 1.28394 12.9193 1.28394 13.5985V13.7401H10.6103V12.1969L9.89513 12.2089Z" fill="currentColor"/>
<path d="M9.6168 10.8505H8.4144C8.4144 10.8505 8.4552 9.50406 6.3624 8.06166C4.2696 6.61926 2.1552 5.46966 0.684 5.01606C0.456 5.11446 0.1656 5.27286 0.1656 5.27286L0 5.01606L0.684 4.56006C0.684 4.56006 3.6888 5.64726 6.612 7.54806C9.5352 9.44886 9.5952 10.7137 9.6168 10.8505Z" fill="currentColor"/>
<path d="M16.2911 8.57532H10.5647L10.4543 8.89692H16.4015L16.2911 8.57532Z" fill="currentColor"/>
<path d="M10.8192 9.09131H10.6152V9.43931H10.8192V13.6945H15.6576L15.9408 9.43931H16.1832V9.09131H15.9648H10.8192ZM11.0976 9.45371H14.0496L13.7472 11.9833C13.5288 11.9545 13.2144 11.9113 13.1496 11.8945C13.056 11.8729 13.1064 11.7601 13.1064 11.7601C13.1064 11.7601 13.1592 11.5345 13.1064 11.3545C13.0536 11.1745 12.9384 11.0161 12.9072 10.8817C12.876 10.7473 12.9048 10.6369 12.8208 10.6369C12.7536 10.6369 12.7512 10.6777 12.7512 10.6897C12.7512 10.7017 12.7512 11.8753 12.7512 11.8753H12.8352C12.8352 12.0961 12.9048 12.1969 12.9696 12.2425H12.7608V12.9193L11.3736 12.7897L11.0976 9.45371ZM15.4416 11.7721V11.6809L15.2496 11.3209L14.7696 11.6041H14.832V13.0825L14.208 13.0417L14.2512 9.45611H15.7272L15.4416 11.7721Z" fill="currentColor"/>
<path d="M14.8152 11.1745L14.9208 11.3881L15.0912 11.2945L14.9208 11.1073L14.8152 11.1745Z" fill="currentColor"/>
<path d="M14.5703 11.2345C14.5823 11.2345 14.5943 11.2321 14.6039 11.2249L15.0167 10.9681C15.0455 10.9489 15.0551 10.9129 15.0359 10.8841C15.0167 10.8553 14.9783 10.8481 14.9471 10.8673L14.5343 11.1241C14.5055 11.1433 14.4959 11.1793 14.5151 11.2081C14.5295 11.2249 14.5487 11.2345 14.5703 11.2345Z" fill="currentColor"/>
<path d="M5.03756 11.3544C5.03756 11.1792 5.03516 10.5624 5.03516 10.524C5.03516 10.4712 5.00156 10.38 4.92476 10.32C4.84556 10.2624 4.49756 10.1184 4.49756 10.1184L4.68716 10.5288C4.73276 10.5288 4.76876 10.5504 4.76876 10.6008C4.76876 10.632 4.76876 11.1888 4.76876 11.3544H4.72316V12.1464H5.09276V11.3544H5.03756Z" fill="currentColor"/>
<path d="M17.2441 16.2721L17.2849 15.9961L16.2073 15.7777L15.8953 16.2721C17.8225 17.8537 18.8593 18.6865 20.4961 18.9025C22.1329 19.1209 23.5417 18.0121 23.5417 18.0121L23.8945 18.0913L23.9977 17.6569L17.2441 16.2721ZM16.4041 16.3897C16.2961 16.3897 16.2073 16.3057 16.2073 16.2025C16.2073 16.0993 16.2961 16.0153 16.4041 16.0153C16.5121 16.0153 16.6009 16.0993 16.6009 16.2025C16.6009 16.3057 16.5121 16.3897 16.4041 16.3897Z" fill="currentColor"/>
<path d="M22.4856 16.0537H17.46V16.2217H22.4856V16.0537Z" fill="currentColor"/>
<path d="M22.7833 16.8817L22.3345 16.1377L22.4881 16.0537L22.9369 16.7977L22.7833 16.8817Z" fill="currentColor"/>
<path d="M15.8665 16.4689V18.3889C15.8665 18.3889 17.7529 18.3889 18.3121 18.3889C17.2753 17.8441 15.8665 16.4689 15.8665 16.4689ZM16.2073 17.2417C16.2865 17.2417 16.3513 17.3041 16.3513 17.3785C16.3513 17.4553 16.2865 17.5153 16.2073 17.5153C16.1281 17.5153 16.0633 17.4529 16.0633 17.3785C16.0633 17.3041 16.1281 17.2417 16.2073 17.2417ZM16.2073 18.0697C16.1281 18.0697 16.0633 18.0073 16.0633 17.9329C16.0633 17.8561 16.1281 17.7961 16.2073 17.7961C16.2865 17.7961 16.3513 17.8585 16.3513 17.9329C16.3513 18.0073 16.2889 18.0697 16.2073 18.0697Z" fill="currentColor"/>
</g>
<defs>
<clipPath id="clip0_1432_1046">
<rect width="24" height="14.6568" fill="currentColor" transform="translate(0 4.56006)"/>
</clipPath>
</defs>
</svg>
