<svg width="24" height="24" viewBox="0 0 24 24" fill="currentColor" xmlns="http://www.w3.org/2000/svg">
<g clip-path="url(#clip0_1432_1190)">
<path d="M18.7608 17.1096L18.7152 17.736C18.6984 17.9808 18.4608 18.1488 18.2256 18.0816L6.66721 14.9616L12.7776 8.99275L12.228 8.43115L6.07201 14.4432L3.90961 14.2896C3.29281 14.2464 2.75761 14.7096 2.71441 15.3264L2.55121 17.6352C2.51521 18.1368 2.89201 18.5712 3.39361 18.6072L5.96161 18.7896L5.98081 18.792L18.8592 19.7088L23.9952 20.0736L24 20.0184L18.7608 17.1096Z" fill="currentColor"/>
<path d="M12.8617 8.76956L16.5553 5.15996L17.1001 5.71916L17.6617 5.16956L16.6009 4.07996L16.0393 4.62956L16.1713 4.76396L12.4753 8.37116L12.8617 8.76956ZM16.9177 5.10716C16.9465 5.00396 17.0545 4.94396 17.1577 4.97276C17.2609 5.00156 17.3209 5.10956 17.2921 5.21276C17.2633 5.31596 17.1553 5.37596 17.0521 5.34716C16.9489 5.31596 16.8889 5.21036 16.9177 5.10716Z" fill="currentColor"/>
<path d="M9.86509 14.5214L9.66309 15.3021L16.7031 17.1238L16.9051 16.3431L9.86509 14.5214Z" fill="currentColor"/>
<path d="M18.1369 16.1784L8.94727 13.8264L9.86647 14.3232L16.9177 16.1304L18.1369 16.1784Z" fill="currentColor"/>
<path d="M14.2969 10.7112L12.4609 14.2608L14.9137 14.8872L15.8809 11.1168L14.2969 10.7112Z" fill="currentColor"/>
<path d="M1.57326 7.70308L0.953857 16.4053L2.30886 16.5017L2.92827 7.79953L1.57326 7.70308Z" fill="currentColor"/>
<path d="M0.320301 11.8259L-0.000732422 16.3362L0.660012 16.3832L0.981046 11.8729L0.320301 11.8259Z" fill="currentColor"/>
<path d="M2.97828 11.5514L2.80591 13.9766L5.0826 14.1384L5.25497 11.7133L2.97828 11.5514Z" fill="currentColor"/>
</g>
<defs>
<clipPath id="clip0_1432_1190">
<rect width="24" height="15.9936" fill="currentColor" transform="translate(0 4.07996)"/>
</clipPath>
</defs>
</svg>
