<svg width="24" height="24" viewBox="0 0 24 24" fill="currentColor" xmlns="http://www.w3.org/2000/svg">
<g clip-path="url(#clip0_1539_806)">
<path d="M10.776 22.0848C10.776 22.3488 10.5624 22.5624 10.2984 22.5624C10.0344 22.5624 9.8208 22.3488 9.8208 22.0848C9.8208 21.8208 10.0344 21.6072 10.2984 21.6072C10.5624 21.6072 10.776 21.8208 10.776 22.0848Z" fill="currentColor"/>
<path d="M21.6842 22.5336C21.6842 22.8456 21.4322 23.0976 21.1202 23.0976H14.3594C14.0474 23.0976 13.7954 22.8456 13.7954 22.5336V0.564C13.7954 0.252 14.0474 0 14.3594 0C14.6714 0 14.9234 0.252 14.9234 0.564V21.972H21.1202C21.4322 21.972 21.6842 22.224 21.6842 22.5336Z" fill="currentColor"/>
<path d="M2.16016 18.9745V19.4521H4.31296V17.5369H3.35776C2.62816 17.5393 2.16016 18.1009 2.16016 18.9745Z" fill="currentColor"/>
<path d="M12.6722 19.3585L10.5218 14.3449C10.2338 13.5481 9.16576 12.9913 8.38096 12.9913H5.75056C5.36416 12.9745 4.98976 13.1185 4.71616 13.3921C4.44256 13.6657 4.29616 14.0401 4.31536 14.4265V17.5369H4.79296V19.4521H7.42576V18.9745C7.40656 18.5857 7.09696 18.2761 6.70816 18.2569H5.99056C5.86816 18.2377 5.77216 18.1417 5.75056 18.0169V16.8193C5.73136 16.4305 5.42176 16.1209 5.03296 16.1017H4.79296V14.4265C4.77136 14.1673 4.86496 13.9105 5.04976 13.7257C5.23456 13.5409 5.49136 13.4473 5.75056 13.4689H8.38336C8.99056 13.4689 9.86176 13.9225 10.0778 14.5201L12.089 19.2145H11.8346C11.8346 19.2145 9.69856 17.0857 9.66736 17.0737L9.99136 16.7497C10.085 16.6561 10.085 16.5049 9.99136 16.4089C9.89776 16.3153 9.74416 16.3153 9.65056 16.4089L8.69296 17.3665C8.59936 17.4601 8.59936 17.6113 8.69296 17.7073C8.78656 17.8009 8.93776 17.8009 9.03376 17.7073L9.35776 17.3833C9.36976 17.4145 11.1578 19.2121 11.1578 19.2121H9.82336C9.76096 19.2121 9.69856 19.2385 9.65296 19.2817L8.28976 20.6473H7.43056V19.9297H2.16016V21.8449C2.16736 22.3705 2.59216 22.7953 3.11776 22.8025H3.61696C3.73216 23.4937 4.33216 23.9977 5.03056 23.9977C5.72896 23.9977 6.32896 23.4913 6.44416 22.8025H8.52256C8.81536 23.5249 9.51616 24.0001 10.2962 24.0001C11.0762 24.0001 11.777 23.5273 12.0698 22.8025H12.449C12.581 22.8025 12.689 22.6945 12.689 22.5625V19.4521C12.6914 19.4209 12.6842 19.3897 12.6722 19.3585ZM5.03296 23.0425C4.76896 23.0425 4.55536 22.8289 4.55536 22.5649C4.55536 22.3009 4.76896 22.0873 5.03296 22.0873C5.29696 22.0873 5.51056 22.3009 5.51056 22.5649C5.51056 22.8289 5.29696 23.0425 5.03296 23.0425ZM10.2986 23.0425C9.77056 23.0425 9.34096 22.6129 9.34096 22.0849C9.34096 21.5569 9.77056 21.1273 10.2986 21.1273C10.8266 21.1273 11.2562 21.5569 11.2562 22.0849C11.2538 22.6153 10.8266 23.0425 10.2986 23.0425Z" fill="currentColor"/>
</g>
<defs>
<clipPath id="clip0_1539_806">
<rect width="19.524" height="24" fill="currentColor" transform="translate(2.16016)"/>
</clipPath>
</defs>
</svg>
