<svg width="25" height="24" viewBox="0 0 25 24" fill="currentColor" xmlns="http://www.w3.org/2000/svg">
<g clip-path="url(#clip0_1413_1514)">
<path d="M21.5951 18.0479C21.5951 19.1447 20.7071 20.0327 19.6103 20.0327C18.5135 20.0327 17.6255 19.1447 17.6255 18.0479C17.6255 16.9511 18.5135 16.0631 19.6103 16.0631C20.7071 16.0631 21.5951 16.9511 21.5951 18.0479ZM19.5887 17.1911C19.1279 17.1911 18.7535 17.5655 18.7535 18.0263C18.7535 18.4871 19.1279 18.8615 19.5887 18.8615C20.0495 18.8615 20.4239 18.4871 20.4239 18.0263C20.4239 17.5631 20.0519 17.1911 19.5887 17.1911Z" fill="currentColor"/>
<path d="M15.6072 5.63997L15.6504 10.1088H9.76079V5.90397H9.50879V5.63757L9.76079 5.64237V4.37277H9.54959L9.54479 3.85197L15.8256 3.83997L15.8376 4.37037L15.5976 4.37277L15.6072 4.89117V5.63997ZM10.7544 4.37277L10.752 5.65437L13.068 5.65917L13.164 5.51517L14.6496 5.51757V4.37037L10.7544 4.37277ZM13.4256 5.87517L13.4376 6.96237L14.6472 6.96957V5.87517H13.4256ZM10.7496 5.89677L10.752 6.97917L13.0752 6.96957V5.90157L10.7496 5.89677ZM13.404 9.70797L14.6472 9.71037V7.63197H13.4208L13.404 9.70797ZM10.7472 7.63197L10.752 9.70797H13.0776V7.62957L10.7472 7.63197Z" fill="currentColor"/>
<path d="M15.6959 10.6176V14.2248H0.143921V13.3128H6.60712L9.66712 10.6632L15.6959 10.6176Z" fill="currentColor"/>
<path d="M24.0527 14.892H0.0527344V18.9984L3.03833 18.996C2.91113 18.6912 2.84153 18.36 2.84153 18.012C2.84153 16.5936 3.99593 15.4416 5.41193 15.4416C6.82794 15.4416 7.98234 16.596 7.98234 18.012C7.98234 18.36 7.91274 18.6912 7.78554 18.9936L17.2199 18.9864C17.1047 18.696 17.0399 18.3792 17.0399 18.0456C17.0399 16.6272 18.1943 15.4752 19.6103 15.4752C21.0263 15.4752 22.1807 16.6296 22.1807 18.0456C22.1807 18.3768 22.1159 18.6912 22.0007 18.9816L24.0503 18.9792V14.892H24.0527Z" fill="currentColor"/>
<path d="M23.9591 9.74877C23.7983 7.62477 22.6343 5.20557 22.6343 5.20557H16.4231L16.4927 14.2488L23.5727 14.2248C23.5703 14.2248 24.1175 11.8728 23.9591 9.74877ZM17.2055 10.3656L17.1575 5.83197L22.0823 5.84397C22.0823 5.84397 22.9463 7.79037 23.1455 10.1424L22.5503 10.4856L22.2119 9.89757L22.6247 9.65517C22.6847 9.61917 22.7039 9.54237 22.6703 9.48237C22.6343 9.42237 22.5575 9.40317 22.4975 9.43677L21.3599 10.1064C21.2999 10.1424 21.2807 10.2192 21.3143 10.2792C21.3407 10.3248 21.3911 10.3464 21.4391 10.3416C21.4559 10.3392 21.4727 10.3344 21.4871 10.3248L21.9455 10.0536L22.2839 10.6392L22.0271 10.788L22.3559 11.3568L22.7879 12.108L19.4855 10.3632H17.2055V10.3656Z" fill="currentColor"/>
<path d="M4.88396 16.0631H5.94476C6.00716 16.0631 6.05516 16.1135 6.05516 16.1735V19.9055C6.05516 19.9679 6.00476 20.0159 5.94476 20.0159H4.88396C4.82156 20.0159 4.77356 19.9655 4.77356 19.9055V16.1735C4.77356 16.1135 4.82156 16.0631 4.88396 16.0631Z" fill="currentColor"/>
</g>
<defs>
<clipPath id="clip0_1413_1514">
<rect width="24" height="16.1904" fill="currentColor" transform="translate(0.0527344 3.83997)"/>
</clipPath>
</defs>
</svg>
