<svg width="24" height="24" viewBox="0 0 24 24" fill="currentColor" xmlns="http://www.w3.org/2000/svg">
<g clip-path="url(#clip0_1415_950)">
<path d="M10.02 0H11.1408V13.1448H11.0616L10.5504 8.8656L9.1272 7.3632L9.1464 5.8104H10.3488V4.4688H9.8976V3.8064H10.3296V0.36H10.008L10.02 0Z" fill="currentColor"/>
<path d="M9.03843 8.25606L9.96963 9.31926L10.7304 15.3409L10.512 19.0945H4.33923V9.29526L5.27043 8.25366L9.03843 8.25606ZM5.20083 9.44646L4.97043 9.65766L4.96083 14.3665L5.26083 14.6473H9.57843L9.97923 14.3161L9.44883 9.65766L9.18723 9.44646H5.20083Z" fill="currentColor"/>
<path d="M18.8904 23.2224C18.8904 23.652 18.5424 24 18.1128 24C17.6832 24 17.3352 23.652 17.3352 23.2224C17.3352 22.7928 17.6832 22.4448 18.1128 22.4448C18.5424 22.4448 18.8904 22.7928 18.8904 23.2224ZM18.1056 22.8864C17.9256 22.8864 17.7792 23.0328 17.7792 23.2128C17.7792 23.3928 17.9256 23.5392 18.1056 23.5392C18.2856 23.5392 18.432 23.3928 18.432 23.2128C18.432 23.0328 18.2856 22.8864 18.1056 22.8864Z" fill="currentColor"/>
<path d="M19.548 20.9088H10.6416L10.512 19.7064L4.32001 19.6968V23.472H5.07121C5.00401 23.3016 4.96561 23.1168 4.96561 22.9224C4.96561 22.0944 5.64001 21.42 6.46801 21.42C7.29601 21.42 7.97041 22.0944 7.97041 22.9224C7.97041 23.1168 7.93201 23.3016 7.86481 23.472H16.9584C16.9416 23.3904 16.932 23.3088 16.932 23.2224C16.932 22.5696 17.4624 22.0392 18.1152 22.0392C18.768 22.0392 19.2984 22.5696 19.2984 23.2224C19.2984 23.3088 19.2888 23.3928 19.272 23.472H19.5504V20.9088H19.548Z" fill="currentColor"/>
<path d="M16.9584 10.2959H13.0416V8.05434H12.4368V5.13354H11.7936V10.8815H12.4176H12.4368H13.0416V10.8719H16.9992C17.112 10.8719 19.4448 10.8431 19.4448 10.7279V10.5743C19.4448 10.4039 17.0712 10.2959 16.9584 10.2959Z" fill="currentColor"/>
<path d="M6.17523 21.8257H6.76083C6.79443 21.8257 6.82083 21.8521 6.82083 21.8857V23.9401C6.82083 23.9737 6.79443 24.0001 6.76083 24.0001H6.17523C6.14163 24.0001 6.11523 23.9737 6.11523 23.9401V21.8857C6.11523 21.8521 6.14163 21.8257 6.17523 21.8257Z" fill="currentColor"/>
</g>
<defs>
<clipPath id="clip0_1415_950">
<rect width="15.228" height="24" fill="currentColor" transform="translate(4.32001)"/>
</clipPath>
</defs>
</svg>
