<svg width="24" height="24" viewBox="0 0 24 24" fill="currentColor" xmlns="http://www.w3.org/2000/svg">
<g clip-path="url(#clip0_1413_1518)">
<path d="M18.5064 22.6632C18.5064 23.4024 17.9088 24 17.1696 24C16.4304 24 15.8328 23.4024 15.8328 22.6632C15.8328 21.924 16.4304 21.3264 17.1696 21.3264C17.9064 21.3264 18.5064 21.924 18.5064 22.6632ZM17.1528 22.0848C16.8408 22.0848 16.5912 22.3368 16.5912 22.6488C16.5912 22.9584 16.8432 23.2104 17.1528 23.2104C17.4624 23.2104 17.7144 22.9584 17.7144 22.6488C17.7168 22.3368 17.4648 22.0848 17.1528 22.0848Z" fill="currentColor"/>
<path d="M18.6216 18.1801L19.4904 19.3705H11.8464L11.8248 18.1801H18.6216Z" fill="currentColor"/>
<path d="M17.508 14.9544H13.3824V12.5904H12.744V9.51355H12.0672V15.5711H12.7248H12.744H13.3824V15.5592H17.5536C17.6736 15.5592 20.1312 15.5279 20.1312 15.4079V15.2472C20.1312 15.0672 17.628 14.9544 17.508 14.9544Z" fill="currentColor"/>
<path d="M6.50645 22.236H7.10405C7.13525 22.236 7.16165 22.2624 7.16165 22.2936V23.9448C7.16165 23.976 7.13525 24.0024 7.10405 24.0024H6.50645C6.47525 24.0024 6.44885 23.976 6.44885 23.9448V22.2936C6.44885 22.26 6.47525 22.236 6.50645 22.236Z" fill="currentColor"/>
<path d="M11.3424 19.908L11.208 0H3.89282V23.3904H5.43122C5.42642 23.3472 5.42402 23.3064 5.42402 23.2632C5.42402 22.4952 6.04802 21.8712 6.81602 21.8712C7.58402 21.8712 8.20802 22.4952 8.20802 23.2632C8.20802 23.3136 8.20562 23.3664 8.19842 23.4144L11.3016 23.3904L11.5296 22.4784H15.4752C15.6144 21.6528 16.3344 21.0216 17.1984 21.0216C17.976 21.0216 18.6384 21.5328 18.864 22.236H19.5432V19.9056H11.3424V19.908ZM9.20162 14.5368L6.67682 17.5344C6.66242 17.5536 6.63842 17.5632 6.61682 17.5632C6.60242 17.5632 6.58802 17.5584 6.57602 17.5512C6.54242 17.532 6.53042 17.4888 6.54482 17.4528L7.42802 15.3528H6.61682C6.59042 15.3528 6.56402 15.3384 6.54962 15.3144C6.53522 15.2904 6.53282 15.2616 6.54722 15.2376L7.73042 12.8712C7.74482 12.8448 7.77122 12.828 7.80002 12.828H9.06242C9.09122 12.828 9.11762 12.8448 9.13202 12.8688C9.14642 12.8928 9.14402 12.924 9.12962 12.948L8.20802 14.4048H9.14402C9.17522 14.4048 9.20162 14.4216 9.21602 14.4504C9.22562 14.4816 9.22082 14.5128 9.20162 14.5368ZM10.7928 1.0824H8.76962V2.1144H9.21122V3.4824H8.66162V4.1232H9.26402V8.9088H7.05122C7.05122 8.9088 6.77042 8.3184 6.26162 8.172C5.75282 8.0256 5.04242 8.052 4.58642 8.748V0.6696L10.7928 0.6168V1.0824Z" fill="currentColor"/>
</g>
<defs>
<clipPath id="clip0_1413_1518">
<rect width="16.2384" height="24" fill="currentColor" transform="translate(3.89282)"/>
</clipPath>
</defs>
</svg>
