<svg width="24" height="24" viewBox="0 0 24 24" fill="currentColor" xmlns="http://www.w3.org/2000/svg">
<g clip-path="url(#clip0_1415_946)">
<path d="M15.6768 17.2034C14.724 17.2034 13.9512 17.981 13.9512 18.941C13.9512 19.8986 14.7264 20.6786 15.6768 20.6786C16.632 20.6786 17.4024 19.8986 17.4024 18.941C17.4048 17.981 16.632 17.2034 15.6768 17.2034ZM15.6768 19.745C15.2352 19.745 14.8776 19.385 14.8776 18.941C14.8776 18.4922 15.2352 18.137 15.6768 18.137C16.1184 18.137 16.476 18.4922 16.476 18.941C16.4784 19.385 16.1184 19.745 15.6768 19.745Z" fill="currentColor"/>
<path d="M20.9592 12.8545H16.1712V10.1137H15.432V6.54492H14.6472V13.5697L21.0096 13.5577C21.1488 13.5577 24 13.5217 24 13.3825V13.1953C24 12.9889 21.096 12.8545 20.9592 12.8545Z" fill="currentColor"/>
<path d="M9.27601 17.0904C9.27601 16.476 8.77921 15.9792 8.16481 15.9792C7.74001 15.9792 7.37041 16.2192 7.18321 16.5696C7.09921 16.7112 7.05121 16.8744 7.05121 17.052V19.3152C7.05121 19.4352 7.14721 19.5312 7.26721 19.5312H9.05761C9.17761 19.5312 9.27361 19.4352 9.27361 19.3152V17.1744C9.27361 17.1456 9.27601 17.1192 9.27601 17.0904Z" fill="currentColor"/>
<path d="M14.0568 16.4041V3.36011H11.652C11.5896 3.36011 11.5152 3.43451 11.5368 3.50171L11.7144 3.98891C11.7576 4.08011 11.784 4.12331 11.8296 4.13051H12.2352V10.2721L11.844 10.6561V16.4161L14.0568 16.4041Z" fill="currentColor"/>
<path d="M14.8488 16.8745H9.85437V18.8281H13.464C13.5096 17.9425 14.0688 17.1913 14.8488 16.8745Z" fill="currentColor"/>
<path d="M6.4752 15.7298V12.8066H0.972V7.0466H1.1328H5.556V10.7522H6.024V7.0466V6.545V6.5378H5.388H3.8352H0.972V6.5354H0.0072V12.8066H0V15.8378H0.0072V19.1354V19.829H0.3072C0.288 19.7258 0.2784 19.6202 0.2784 19.5146C0.2784 19.3442 0.3024 19.1738 0.3528 19.0082C0.456 18.6626 0.6624 18.3626 0.948 18.137C1.2576 17.8946 1.6272 17.7674 2.016 17.7674C2.976 17.7674 3.756 18.5498 3.756 19.5122C3.756 19.6202 3.744 19.7282 3.7248 19.8338L6.4776 19.841V15.7298H6.4752ZM0.0216 19.1354V15.8378V19.1354Z" fill="currentColor"/>
<path d="M3.58558 12.3314H1.50238V10.8098C1.50238 10.7138 1.57918 10.637 1.67518 10.637H3.41278C3.50878 10.637 3.58558 10.7138 3.58558 10.8098V12.3314Z" fill="currentColor"/>
<path d="M5.33038 11.5056L5.15038 11.292C5.07598 11.2032 4.94158 11.1912 4.85278 11.268C4.76398 11.3424 4.75198 11.4768 4.82878 11.5656L4.98958 11.7552L4.21198 12.3264H6.02398V10.9944L5.33038 11.5056Z" fill="currentColor"/>
<path d="M1.69681 18.2617H2.33761C2.38561 18.2617 2.42401 18.3001 2.42401 18.3481V20.6857C2.42401 20.7337 2.38561 20.7721 2.33761 20.7721H1.69681C1.64881 20.7721 1.61041 20.7337 1.61041 20.6857V18.3481C1.61041 18.3001 1.64881 18.2617 1.69681 18.2617Z" fill="currentColor"/>
</g>
<defs>
<clipPath id="clip0_1415_946">
<rect width="24" height="17.412" fill="currentColor" transform="translate(0 3.36011)"/>
</clipPath>
</defs>
</svg>
