<svg width="24" height="24" viewBox="0 0 24 24" fill="currentColor" xmlns="http://www.w3.org/2000/svg">
<g clip-path="url(#clip0_1413_1812)">
<path d="M11.9976 5.99528H12.0024L12 5.99048L11.9976 5.99528Z" fill="currentColor"/>
<path d="M12.0024 5.99044L12 5.98804L11.9976 5.99044H12H12.0024Z" fill="currentColor"/>
<path d="M4.73042 17.7649C4.73042 18.7105 3.96482 19.4785 3.01682 19.4785C2.07122 19.4785 1.30322 18.7129 1.30322 17.7649C1.30322 16.8193 2.06882 16.0537 3.01682 16.0537C3.96242 16.0513 4.73042 16.8193 4.73042 17.7649ZM2.99762 17.0257C2.59922 17.0257 2.27762 17.3473 2.27762 17.7457C2.27762 18.1441 2.59922 18.4657 2.99762 18.4657C3.39602 18.4657 3.71762 18.1441 3.71762 17.7457C3.71762 17.3473 3.39602 17.0257 2.99762 17.0257Z" fill="currentColor"/>
<path d="M4.70876 11.8801H4.51196C4.51196 11.8801 4.51196 9.3289 4.51196 9.3049C4.51196 9.2809 4.52156 9.1897 4.67756 9.1897C4.87436 9.1897 4.80716 9.4273 4.87916 9.7225C4.95356 10.0177 5.22236 10.3609 5.34476 10.7521C5.46716 11.1457 5.34476 11.6353 5.34476 11.6353C5.34476 11.6353 5.22236 11.8801 5.44316 11.9305C5.66396 11.9785 7.13756 12.1537 7.33196 12.1825C7.61756 12.2233 7.65596 12.4105 7.61756 12.5617C7.57196 12.7321 7.48076 12.7897 7.28396 12.7897C7.08716 12.7897 5.29676 12.7657 5.29676 12.7657C5.29676 12.7657 4.70876 12.7873 4.70876 11.8801Z" fill="currentColor"/>
<path d="M15.7152 4.56006H13.4016V5.03766H14.0184L14.1072 14.7985C14.9256 15.2737 15.4776 16.1593 15.4776 17.1721C15.4776 17.6713 15.3408 18.1369 15.108 18.5401H15.7128V4.56006H15.7152Z" fill="currentColor"/>
<path d="M21.5112 16.6296H17.5944V14.3856H16.9872V11.4648H16.344V17.2128H16.968H16.9872H17.5944V17.2032H21.552C21.6648 17.2032 24 17.1744 24 17.0592V16.9056C24 16.7376 21.624 16.6296 21.5112 16.6296Z" fill="currentColor"/>
<path d="M12.2111 15.0265H13.4207C13.4855 15.0265 13.5359 15.0793 13.5359 15.1417V19.3609C13.5359 19.4257 13.4831 19.4761 13.4207 19.4761H12.2111C12.1463 19.4761 12.0959 19.4233 12.0959 19.3609V15.1441C12.0959 15.0793 12.1487 15.0265 12.2111 15.0265Z" fill="currentColor"/>
<path d="M13.1304 14.0808C13.1304 14.0808 12.5952 12.0721 12.3024 10.9225C12.0096 9.77285 11.5752 8.53205 11.5152 8.31845C11.4552 8.10725 10.8888 6.67445 10.4856 5.92805C10.0824 5.18165 9.3648 4.98005 8.9616 4.92965C8.5584 4.87925 2.928 4.80725 2.928 4.80725V5.20085H3.0384C3.0384 5.20085 2.6544 8.33765 2.5944 9.04565C2.5344 9.75125 2.3928 12.2041 2.3928 12.2041C2.3928 12.2041 2.1432 12.2088 1.824 12.2137C1.8264 11.8945 1.824 11.3545 1.8024 10.7089C1.764 9.66005 0.624 9.34325 0.624 9.34325C0.624 9.34325 0.6432 9.60485 0.756 10.2241C1.1856 10.3921 1.092 10.7113 1.092 10.7113V12.2257C0.9504 12.2257 0.8184 12.2281 0.7128 12.2257C0.2688 12.2233 0.0744 12.7345 0.0744 13.1521C0.0744 13.3081 0 17.7529 0 17.7529L0.8448 18.0697C0.8328 17.9761 0.8232 17.8825 0.8232 17.7865C0.8232 16.5793 1.8048 15.5977 3.0144 15.5977C4.2216 15.5977 5.2056 16.5793 5.2056 17.7865C5.2056 17.9665 5.1816 18.1417 5.1408 18.3097H10.2384C10.08 17.9616 9.9888 17.5777 9.9888 17.1721C9.9888 15.6576 11.22 14.4265 12.7344 14.4265C13.0656 14.4265 13.38 14.4889 13.6728 14.5945L13.1304 14.0808ZM10.44 9.42485C10.3752 9.33605 10.2528 9.31445 10.1616 9.37925H10.1592L8.7648 10.3849C8.676 10.4497 8.6544 10.5745 8.7192 10.6657C8.7504 10.7089 8.796 10.7377 8.8488 10.7473C8.9016 10.7569 8.952 10.7425 8.9952 10.7137C8.9952 10.7137 8.9976 10.7137 8.9976 10.7113L9.5328 10.3249L10.6632 12.0241L10.6128 12.2856L10.9968 12.7801L11.904 13.3945L11.9544 13.8073L9.7968 14.6761L8.2224 14.6353V13.6056L7.5672 13.0417L4.4088 13.0513L3.4296 12.7081C3.4296 12.7081 3.2184 11.7289 3.2184 11.4073C3.2184 11.0833 3.3384 9.13685 3.3792 8.50085C3.42 7.86485 3.7128 5.20085 3.7128 5.20085C3.7128 5.20085 8.16 5.31125 8.9712 5.36645C9.7824 5.41925 10.0608 6.19925 10.3824 6.84245C10.704 7.48565 11.1456 8.78645 11.2896 9.19925C11.436 9.61445 12.096 11.8705 12.096 11.8705C12.096 11.8705 11.5152 11.6449 11.4912 11.6377C11.472 11.6305 10.1736 10.4233 9.8352 10.1089L10.392 9.70565C10.4352 9.67445 10.464 9.62885 10.4736 9.57605C10.4832 9.52085 10.4712 9.46805 10.44 9.42485Z" fill="currentColor"/>
</g>
<defs>
<clipPath id="clip0_1413_1812">
<rect width="24" height="14.916" fill="currentColor" transform="translate(0 4.56006)"/>
</clipPath>
</defs>
</svg>
