<svg width="24" height="24" viewBox="0 0 24 24" fill="currentColor" xmlns="http://www.w3.org/2000/svg">
<g clip-path="url(#clip0_1532_942)">
<path d="M21.3987 15.9173C21.6171 15.9125 21.7995 15.7565 21.8979 15.5957C22.0923 15.2789 22.5507 14.6597 23.3643 14.6597H23.5155V14.8829H23.3643V15.2573L23.3043 15.3557C23.2155 15.3269 23.1195 15.3125 23.0187 15.3125C22.4907 15.3125 22.0635 15.7397 22.0635 16.2677C22.0635 16.7957 22.4907 17.2229 23.0187 17.2229C23.5467 17.2229 23.9739 16.7957 23.9739 16.2677C23.9739 16.0373 23.8923 15.8261 23.7579 15.6629L23.9451 15.3605V14.8829H23.7939V14.6597H24.0003V14.0381H23.7939V13.2437H23.5179V14.0381H23.0619C23.0619 14.0381 20.6211 14.8469 20.4699 14.8997C20.3235 14.9525 20.1987 15.2045 20.1123 15.4085C20.5083 15.3893 20.8419 15.3413 20.9811 15.2837C21.0339 15.2621 21.0651 15.2453 21.0891 15.2333C21.1347 15.2093 21.1515 15.2021 21.2259 15.2021C21.3363 15.2021 21.4539 15.2813 21.4539 15.4109C21.4539 15.4709 21.4395 15.5141 21.4275 15.5573C21.4131 15.6005 21.4011 15.6437 21.4011 15.7061V15.9173H21.3987ZM23.5347 16.0229C23.5707 16.0973 23.5899 16.1789 23.5899 16.2677C23.5899 16.5821 23.3355 16.8365 23.0211 16.8365C22.7067 16.8365 22.4523 16.5821 22.4523 16.2677C22.4523 15.9533 22.7067 15.6989 23.0211 15.6989C23.0451 15.6989 23.0691 15.7013 23.0907 15.7037L22.9467 15.9365C22.8243 16.1501 22.6971 16.3037 22.9107 16.4453C23.1507 16.6037 23.3691 16.3037 23.4315 16.1861L23.5347 16.0229ZM23.0211 16.3469C22.9755 16.3469 22.9395 16.3109 22.9395 16.2653C22.9395 16.2197 22.9755 16.1837 23.0211 16.1837C23.0667 16.1837 23.1027 16.2197 23.1027 16.2653C23.1027 16.3109 23.0643 16.3469 23.0211 16.3469Z" fill="currentColor"/>
<path d="M14.7651 15.4084C14.7651 15.526 14.8203 15.5764 14.8203 15.7036C14.8203 15.7948 14.8203 16.39 14.8203 16.39C14.8203 16.6084 14.9283 17.2204 15.5331 17.2204H20.6763C21.2811 17.2204 21.3747 16.6084 21.3747 16.39V15.7036C21.3747 15.6364 21.3891 15.5908 21.4035 15.5452C21.4179 15.502 21.4299 15.4636 21.4299 15.4084C21.4299 15.2956 21.3291 15.226 21.2307 15.226C21.1635 15.226 21.1491 15.2332 21.1059 15.2548C21.0819 15.2668 21.0483 15.2836 20.9955 15.3052C20.8491 15.3652 20.5179 15.4132 20.1099 15.4324C20.1099 15.4324 20.0547 15.6412 19.9227 15.6412C19.7907 15.6412 19.2459 15.6412 19.2459 15.6412C19.0419 15.6412 18.9651 15.3364 18.8019 15.3364H18.6771V14.2828H17.5347V15.2284L15.8619 14.0908L15.8691 14.1004C15.9435 14.1676 15.9699 14.2708 15.9363 14.3644C15.9027 14.4604 15.8187 14.5228 15.7155 14.5276L15.6483 14.5468L17.1363 15.5596C17.0883 15.6052 17.0331 15.6388 16.9659 15.6388C16.9659 15.6388 16.4211 15.6388 16.2891 15.6388C16.1571 15.6388 16.1259 15.5164 16.1019 15.4156C15.7299 15.3964 15.3747 15.3532 15.2211 15.2884C15.0675 15.226 15.0891 15.2068 14.9811 15.2068C14.8683 15.214 14.7651 15.2908 14.7651 15.4084ZM21.1011 15.4276C21.1011 15.3628 21.1539 15.31 21.2187 15.31C21.2835 15.31 21.3363 15.3628 21.3363 15.4276C21.3363 15.4924 21.2835 15.5452 21.2187 15.5452C21.1539 15.5452 21.1011 15.4924 21.1011 15.4276ZM19.3155 16.5436C19.3155 16.4932 19.3563 16.4524 19.4067 16.4524C19.4571 16.4524 19.4979 16.4932 19.4979 16.5436C19.4979 16.594 19.4571 16.6348 19.4067 16.6348C19.3563 16.6348 19.3155 16.594 19.3155 16.5436ZM19.3155 16.0708C19.3155 16.0204 19.3563 15.9796 19.4067 15.9796C19.4571 15.9796 19.4979 16.0204 19.4979 16.0708C19.4979 16.1212 19.4571 16.162 19.4067 16.162C19.3563 16.162 19.3155 16.1212 19.3155 16.0708ZM16.7067 16.5436C16.7067 16.4932 16.7475 16.4524 16.7979 16.4524C16.8483 16.4524 16.8891 16.4932 16.8891 16.5436C16.8891 16.594 16.8483 16.6348 16.7979 16.6348C16.7475 16.6348 16.7067 16.594 16.7067 16.5436ZM16.7067 16.0708C16.7067 16.0204 16.7475 15.9796 16.7979 15.9796C16.8483 15.9796 16.8891 16.0204 16.8891 16.0708C16.8891 16.1212 16.8483 16.162 16.7979 16.162C16.7475 16.162 16.7067 16.1212 16.7067 16.0708ZM14.8683 15.4276C14.8683 15.3628 14.9211 15.31 14.9859 15.31C15.0507 15.31 15.1035 15.3628 15.1035 15.4276C15.1035 15.4924 15.0507 15.5452 14.9859 15.5452C14.9211 15.5452 14.8683 15.4924 14.8683 15.4276Z" fill="currentColor"/>
<path d="M14.3138 14.0166L14.8394 14.4918C14.885 14.5326 14.945 14.5542 15.0074 14.5518L15.5666 14.5254L15.713 14.5038C15.8018 14.499 15.8786 14.4438 15.9074 14.3598C15.9386 14.2758 15.9146 14.1846 15.8474 14.1246L15.7634 14.031L15.3314 13.6398C15.2858 13.599 15.2258 13.5774 15.1634 13.5798L14.4554 13.6134C14.2514 13.623 14.1602 13.8774 14.3138 14.0166ZM15.605 14.2542C15.6266 14.1918 15.6938 14.1606 15.7562 14.1822C15.8186 14.2038 15.8498 14.271 15.8282 14.3334C15.8066 14.3958 15.7394 14.427 15.677 14.4054C15.6146 14.3814 15.5834 14.3142 15.605 14.2542ZM14.3426 13.8006C14.3642 13.7382 14.4314 13.707 14.4938 13.7286C14.5562 13.7502 14.5874 13.8174 14.5658 13.8798C14.5442 13.9422 14.477 13.9734 14.4146 13.9518C14.3522 13.9302 14.321 13.863 14.3426 13.8006Z" fill="currentColor"/>
<path d="M2.8272 11.5371C1.2672 11.5371 0 12.8043 0 14.3739C0 15.9459 1.2672 17.2179 2.8272 17.2179C4.3872 17.2179 5.652 15.9459 5.652 14.3739C5.652 12.8043 4.3872 11.5371 2.8272 11.5371ZM2.8272 15.6891C2.1048 15.6891 1.5192 15.0987 1.5192 14.3715C1.5192 13.6419 2.1048 13.0563 2.8272 13.0563C3.5472 13.0563 4.1352 13.6419 4.1352 14.3715C4.1352 15.1011 3.5472 15.6891 2.8272 15.6891Z" fill="currentColor"/>
<path d="M13.5598 14.5442C13.2526 13.9946 12.667 13.6226 11.9974 13.6226C11.1214 13.6226 10.3918 14.2562 10.2382 15.089C10.219 15.197 10.207 15.305 10.207 15.4178C10.207 16.4114 11.011 17.2202 11.9974 17.2202C12.9862 17.2202 13.7878 16.4114 13.7878 15.4178C13.7878 15.101 13.7038 14.8034 13.5598 14.5442ZM11.9974 16.2074C11.5678 16.2074 11.215 15.8546 11.215 15.4202C11.215 15.3026 11.2414 15.1922 11.2894 15.0914C11.4142 14.8226 11.6854 14.633 11.9998 14.633C12.0982 14.633 12.1918 14.6522 12.2806 14.6858C12.5734 14.7986 12.7846 15.0818 12.7846 15.4202C12.7798 15.8546 12.4294 16.2074 11.9974 16.2074Z" fill="currentColor"/>
<path d="M4.57671 10.6778C4.18551 10.4906 3.76071 10.3682 3.31431 10.3274L3.43431 7.97301C3.43671 7.91061 3.46311 7.85302 3.50871 7.80982C3.55431 7.76662 3.61431 7.74502 3.68151 7.74981L4.57191 7.75942H4.77111L7.50231 7.78821L7.71111 10.1018L7.47831 10.2842C7.43511 10.2482 7.39431 10.2242 7.36311 10.217C7.20231 10.1906 7.04391 10.2002 6.95271 10.2074L6.97671 10.1834L6.93591 10.1042C6.95031 10.0754 6.95271 10.0394 6.94071 10.0082C6.91671 9.95062 6.89991 9.88822 6.89271 9.82582L7.04871 9.66742C7.08951 9.62662 7.08951 9.55942 7.04631 9.51862L7.02951 9.50182C6.99111 9.46582 6.93111 9.46102 6.88311 9.50662L6.03831 10.373C6.01431 10.3922 6.00231 10.4234 6.00471 10.4498C6.00471 10.4762 6.01671 10.505 6.03831 10.5266L6.05031 10.5362C6.06951 10.5578 6.09831 10.5698 6.12471 10.5698C6.15111 10.5698 6.17751 10.5602 6.19911 10.5386L6.40791 10.325C6.44391 10.3538 6.48231 10.3826 6.52071 10.4066C6.55431 10.4282 6.59511 10.433 6.63111 10.4138L6.71511 10.4546V10.4522L7.90791 12.2714L7.91031 12.2666V12.2786H9.59031C9.60951 12.2786 10.0535 12.2834 10.4015 12.6434C10.5215 12.7658 10.7735 13.0586 11.0567 13.3898C11.3423 13.253 11.6615 13.1786 11.9975 13.1786C12.9167 13.1786 13.7063 13.7402 14.0471 14.5394H14.7407V13.0322H13.7255C13.7207 12.2522 13.6991 11.3402 13.6391 10.9346C13.5551 10.361 11.0519 10.1546 9.35031 10.0466V6.90501C9.35031 6.80421 9.26871 6.72021 9.16551 6.72021C9.06471 6.72021 8.98071 6.80181 8.98071 6.90501V10.0298C8.63991 10.0082 8.34711 9.99142 8.13831 9.97702L7.90071 7.35141L3.69111 7.30581C3.51351 7.30101 3.34071 7.36341 3.21111 7.48581C3.08151 7.60821 3.00231 7.77622 2.99751 7.95142L2.87751 10.3106C2.77911 10.313 2.67831 10.3202 2.57751 10.3298C1.91271 10.4042 1.28151 10.6538 0.751109 11.0546C0.652709 11.1266 0.633509 11.2658 0.705509 11.3618C0.779909 11.4602 0.914309 11.4794 1.01271 11.405C1.48311 11.0522 2.03991 10.8338 2.62551 10.7666C4.43031 10.5698 6.05751 11.8778 6.25431 13.685C6.25431 13.697 6.26151 13.709 6.26391 13.721L6.51591 15.5786H7.64391V15.0866H9.79431C9.89031 14.4362 10.2671 13.877 10.7951 13.5338C10.5335 13.2242 10.3007 12.9578 10.1927 12.8474C9.92871 12.5738 9.59271 12.5714 9.59031 12.5714H6.41031C6.36471 12.4706 6.31671 12.3722 6.26631 12.2786H6.26871C5.92551 11.6402 5.40231 11.1266 4.77831 10.781L4.57671 10.6778Z" fill="currentColor"/>
</g>
<defs>
<clipPath id="clip0_1532_942">
<rect width="24" height="10.5" fill="currentColor" transform="translate(0 6.72021)"/>
</clipPath>
</defs>
</svg>
