<svg width="24" height="24" viewBox="0 0 24 24" fill="currentColor" xmlns="http://www.w3.org/2000/svg">
<g clip-path="url(#clip0_1532_946)">
<path d="M19.1975 14.395H4.83105V16.2454H19.1975V14.395Z" fill="currentColor"/>
<path d="M0 14.8943C0 15.8447 0.768 16.6175 1.7136 16.6175C2.6568 16.6175 3.4272 15.8447 3.4272 14.8943C3.4272 14.7863 3.4152 14.6831 3.396 14.5799C3.2472 13.7831 2.5512 13.1759 1.7136 13.1759C1.6824 13.1759 1.6536 13.1783 1.6224 13.1783L1.5744 12.8447H0.6024L0.852 13.4087C0.588 13.5647 0.3696 13.7879 0.2184 14.0543C0.0792 14.3063 0 14.5895 0 14.8943ZM0.9624 14.8943C0.9624 14.6543 1.0728 14.4431 1.2456 14.3063L1.5288 14.9495C1.5624 15.0287 1.6488 15.0695 1.7328 15.0479C1.8192 15.0263 1.8744 14.9423 1.86 14.8559L1.7592 14.1455C2.04 14.1647 2.2776 14.3351 2.3904 14.5799C2.436 14.6759 2.46 14.7815 2.46 14.8943C2.46 15.3119 2.124 15.6479 1.7112 15.6479C1.2984 15.6479 0.9624 15.3119 0.9624 14.8943Z" fill="currentColor"/>
<path d="M20.604 14.58C20.5848 14.6832 20.5728 14.7864 20.5728 14.8944C20.5728 15.8448 21.3432 16.6176 22.2864 16.6176C23.232 16.6176 24 15.8448 24 14.8944C24 14.5896 23.9208 14.3064 23.7816 14.0568C23.6304 13.788 23.412 13.5648 23.148 13.4112L23.3976 12.8472H22.4256L22.3776 13.1808C22.3488 13.1784 22.3176 13.1784 22.2864 13.1784C21.4488 13.176 20.7528 13.7832 20.604 14.58ZM21.5376 14.8944C21.5376 14.7816 21.564 14.676 21.6072 14.58C21.72 14.3352 21.9576 14.1624 22.2384 14.1456L22.1376 14.856C22.1256 14.9424 22.1808 15.0264 22.2648 15.048C22.3464 15.0696 22.4328 15.0288 22.4688 14.9496L22.752 14.3064C22.9248 14.4432 23.0352 14.6544 23.0352 14.8944C23.0352 15.312 22.6992 15.648 22.2864 15.648C21.876 15.648 21.5376 15.312 21.5376 14.8944Z" fill="currentColor"/>
<path d="M3.22581 12.2566H4.63701L6.48501 13.9846H18.005L19.7522 12.2398H22.5794V12.5686H23.3114V10.963H22.5794V11.3614H22.1906C21.9314 9.51817 20.2202 9.04537 18.413 8.54857C17.573 8.31577 16.7042 8.07817 15.893 7.69417C15.005 7.27177 14.3858 7.45657 14.0234 7.68697C13.4258 8.06377 13.0538 8.85577 13.013 9.82537H12.6602C12.5306 9.82537 12.413 9.87817 12.3266 9.95977L9.24981 8.79817V8.20537H8.22741V10.3678H7.91541V8.87737C7.91541 8.62777 7.71381 8.42857 7.46661 8.42857H7.34421C7.09461 8.42857 6.89541 8.63017 6.89541 8.87737V9.00457L5.44101 9.33337L5.39061 9.15577L3.23061 9.64537V9.23737H2.39781V11.3782H1.45221V10.963H0.720215V12.5686H1.45221V12.2566H2.39781V13.063H3.22821V12.2566H3.22581ZM7.66821 8.94217C7.66821 9.08857 7.55061 9.20617 7.40421 9.20617C7.25781 9.20617 7.14021 9.08857 7.14021 8.94217C7.14021 8.79577 7.25781 8.67817 7.40421 8.67817C7.54821 8.67817 7.66821 8.79577 7.66821 8.94217ZM9.00261 8.72137C9.00261 8.86777 8.88501 8.98537 8.73861 8.98537C8.59221 8.98537 8.47461 8.86777 8.47461 8.72137C8.47461 8.57497 8.59221 8.45737 8.73861 8.45737C8.88501 8.45497 9.00261 8.57497 9.00261 8.72137ZM9.24981 11.143V8.95897L12.233 10.0822C12.197 10.1494 12.1754 10.2262 12.1754 10.3054V11.4526H9.52341V13.1038H9.24741L9.24981 11.143ZM14.1002 11.455V10.7878L15.869 11.455H14.1002ZM17.6426 13.1062H16.7498V11.455H16.2962L14.1002 10.627V10.3078C14.1002 10.039 13.8818 9.82297 13.6154 9.82297H13.4522C13.493 9.01657 13.793 8.34937 14.2586 8.05657C14.6498 7.80937 15.137 7.81897 15.7058 8.09017C16.5506 8.49097 17.4386 8.73577 18.2954 8.97337C20.0642 9.46057 21.4946 9.85657 21.7442 11.3638H19.3874L17.6426 13.1062ZM3.22581 11.3782V10.291L4.51461 10.003L5.55861 9.74857L5.50341 9.55417L5.52981 9.56857L6.89301 9.25657V10.3678H6.25941V12.5686L4.98501 11.3782H3.22581Z" fill="currentColor"/>
</g>
<defs>
<clipPath id="clip0_1532_946">
<rect width="24" height="9.1776" fill="currentColor" transform="translate(0 7.43994)"/>
</clipPath>
</defs>
</svg>
