<svg width="24" height="24" viewBox="0 0 24 24" fill="currentColor" xmlns="http://www.w3.org/2000/svg">
<g clip-path="url(#clip0_1433_1279)">
<path d="M1.5936 9.58325L4.2672 8.84645L4.3728 9.15845L8.4936 8.01845L9.4728 8.25845L16.332 16.7785V14.6569L15.504 13.2865L16.092 11.4336C16.1616 11.2128 16.0392 10.9752 15.8184 10.9057L15.5304 10.8144C15.3096 10.7448 15.072 10.8672 15.0024 11.088L14.6088 11.8057L11.0856 5.98565L0.1848 4.80005L0 9.58325H1.5936ZM15.4584 11.172C15.6024 11.172 15.7176 11.2872 15.7176 11.4312C15.7176 11.5752 15.6024 11.6904 15.4584 11.6904C15.3144 11.6904 15.1992 11.5752 15.1992 11.4312C15.1992 11.2872 15.3168 11.172 15.4584 11.172ZM1.4712 6.29285L6.2952 7.48085L4.0176 8.11685L4.1328 8.45525L4.0872 8.43125L1.3608 9.19205L1.4712 6.29285Z" fill="currentColor"/>
<path d="M21.672 16.0825C19.9584 15.0457 18.2424 12.5281 18.2424 12.5281L16.7952 13.4041C16.7952 13.4041 16.812 14.7793 16.812 16.2985C16.812 17.8177 17.2752 18.2449 17.8848 18.7105C18.492 19.1737 19.368 18.9601 19.92 18.7441C20.472 18.5281 22.4568 17.4769 22.4568 17.4769L20.9376 16.6729C20.9376 16.6729 21.1704 16.4401 21.672 16.0825Z" fill="currentColor"/>
<path d="M22.4111 15.936L21.4487 16.5552L23.0399 17.4096L23.9999 16.7904L22.4111 15.936Z" fill="currentColor"/>
</g>
<defs>
<clipPath id="clip0_1433_1279">
<rect width="24" height="14.1864" fill="currentColor" transform="translate(0 4.80005)"/>
</clipPath>
</defs>
</svg>
