<svg width="24" height="24" viewBox="0 0 24 24" fill="currentColor" xmlns="http://www.w3.org/2000/svg">
<g clip-path="url(#clip0_1417_1898)">
<path d="M9.8352 9.43457H0V12.2546H9.8352V9.43457Z" fill="currentColor"/>
<path d="M4.02721 14.7722C2.83681 14.7722 1.86481 15.7442 1.86481 16.9466C1.86481 18.1466 2.83681 19.1234 4.02721 19.1234C5.22481 19.1234 6.19201 18.149 6.19201 16.9466C6.19201 15.7418 5.22481 14.7722 4.02721 14.7722ZM4.02721 17.9522C3.47521 17.9522 3.02641 17.501 3.02641 16.9442C3.02641 16.3826 3.47521 15.9362 4.02721 15.9362C4.58161 15.9362 5.03041 16.3826 5.03041 16.9442C5.03041 17.501 4.58161 17.9522 4.02721 17.9522Z" fill="currentColor"/>
<path d="M21.8376 14.7722C20.6448 14.7722 19.6752 15.7442 19.6752 16.9466C19.6752 18.1466 20.6448 19.1234 21.8376 19.1234C23.0328 19.1234 24 18.149 24 16.9466C24 15.7418 23.0328 14.7722 21.8376 14.7722ZM21.8376 17.9522C21.2832 17.9522 20.8368 17.501 20.8368 16.9442C20.8368 16.3826 21.2856 15.9362 21.8376 15.9362C22.392 15.9362 22.8408 16.3826 22.8408 16.9442C22.8384 17.501 22.392 17.9522 21.8376 17.9522Z" fill="currentColor"/>
<path d="M22.9776 13.5793L22.8264 13.2601C22.8408 12.4849 19.2816 11.3041 19.2816 11.3041L19.2672 11.2705C19.2552 11.2441 19.2336 11.2273 19.2048 11.2129L16.9512 6.13213C16.704 5.57773 16.1688 5.21053 15.5688 5.18653L12.3336 5.04013C11.8752 5.02333 11.4312 5.20573 11.1144 5.53933C10.8 5.87533 10.644 6.33133 10.6896 6.79213L10.6416 11.9953C10.6488 12.0673 10.6512 12.1417 10.6464 12.2137L10.7616 12.9673H0.470408V12.9745L0.408008 12.9673L0.264008 15.4393L0.302408 15.4825L0.458408 15.4897L0.501608 15.4513L0.588008 13.9801H6.63361L7.35601 17.4529H18.216C18.216 17.4529 18.4512 17.7553 18.3504 18.1273C18.384 18.1201 18.4128 18.1105 18.444 18.1033L18.72 17.3017C18.9528 16.6945 19.2 15.9793 19.5672 15.4585C20.052 14.7121 20.8872 14.2201 21.8376 14.2201C22.3344 14.2201 22.7928 14.3665 23.1936 14.5993L23.2152 13.8289C23.2176 13.6945 23.112 13.5841 22.9776 13.5793ZM11.4024 5.81533C11.64 5.56333 11.9736 5.42653 12.3192 5.44093L15.5424 5.58253C16.0032 5.60173 16.4088 5.88493 16.5888 6.30733L18.7296 11.3617L18.0168 11.3449L17.9856 11.3521L17.9208 11.2897C17.8824 11.2537 17.8296 11.2441 17.7816 11.2705L17.5704 11.3809C17.4432 11.2585 17.304 11.1577 17.1624 11.1337C17.0904 11.1193 17.016 11.1121 16.944 11.1073C16.9344 11.0977 16.9272 11.0857 16.9152 11.0737C16.8912 11.0497 16.8528 11.0473 16.8216 11.0665C16.8024 11.0761 16.788 11.0881 16.7712 11.1001C16.7592 11.1001 16.752 11.1001 16.74 11.1001L16.5648 10.9249L16.4352 11.0569L16.3632 10.9153C16.392 10.8601 16.3968 10.7977 16.3704 10.7377C16.3272 10.6297 16.296 10.5145 16.2816 10.3921L16.572 10.0945C16.6464 10.0129 16.6464 9.89053 16.5672 9.81373L16.536 9.78253C16.4976 9.74893 16.452 9.73213 16.4016 9.73213C16.3512 9.73213 16.3008 9.75133 16.26 9.78973L14.6688 11.4217C14.6256 11.4625 14.604 11.5201 14.6064 11.5681C14.6064 11.6185 14.6256 11.6689 14.6688 11.7097L14.688 11.7289C14.724 11.7697 14.7768 11.7913 14.8296 11.7913C14.8824 11.7913 14.9304 11.7721 14.9712 11.7313L15.3624 11.3305C15.432 11.3881 15.4992 11.4409 15.5736 11.4865C15.636 11.5297 15.7104 11.5393 15.78 11.5033L15.936 11.5777L15.9456 11.5681L17.0112 13.1281C16.9656 13.1809 16.9488 13.2505 16.968 13.3201C16.9896 13.3921 17.0496 13.4401 17.1192 13.4569L17.736 13.5769L16.9128 16.2889H15.0648L15.1584 13.9585C15.1632 13.8529 15.1248 13.7497 15.0552 13.6681C14.9832 13.5913 14.8824 13.5457 14.7792 13.5409L12.4152 13.4425C12.4512 13.3681 12.4728 13.2817 12.4728 13.1953C12.4968 12.1849 12.2616 11.1865 11.7864 10.2985C11.736 10.2025 11.64 10.1425 11.5344 10.1329C11.3952 10.1281 11.256 10.1281 11.1216 10.1353C11.0976 10.1401 11.0784 10.1473 11.0568 10.1569L11.0832 6.74653C11.0496 6.41053 11.1672 6.06733 11.4024 5.81533Z" fill="currentColor"/>
</g>
<defs>
<clipPath id="clip0_1417_1898">
<rect width="24" height="14.0808" fill="currentColor" transform="translate(0 5.04004)"/>
</clipPath>
</defs>
</svg>
