<svg width="24" height="24" viewBox="0 0 24 24" fill="currentColor" xmlns="http://www.w3.org/2000/svg">
<g clip-path="url(#clip0_1430_1817)">
<path d="M5.58234 12.6576C5.42154 12.6024 5.25354 12.5664 5.07594 12.5664C4.19514 12.5664 3.47754 13.2816 3.47754 14.1696C3.47754 14.34 3.51114 14.5008 3.55914 14.652C3.76554 15.3024 4.36314 15.7752 5.07594 15.7752C5.95674 15.7752 6.67194 15.0552 6.67194 14.1672C6.67194 13.4616 6.21354 12.8688 5.58234 12.6576ZM5.07594 14.9112C4.66794 14.9112 4.33674 14.58 4.33674 14.1696C4.33674 13.7568 4.66794 13.4256 5.07594 13.4256C5.48394 13.4256 5.81514 13.7568 5.81514 14.1696C5.81514 14.58 5.48154 14.9112 5.07594 14.9112Z" fill="currentColor"/>
<path d="M9.45844 12.6576C9.29764 12.6024 9.12964 12.5664 8.95204 12.5664C8.07124 12.5664 7.35364 13.2816 7.35364 14.1696C7.35364 14.34 7.38724 14.5008 7.43524 14.652C7.64164 15.3024 8.23924 15.7752 8.95204 15.7752C9.83284 15.7752 10.548 15.0552 10.548 14.1672C10.548 13.4616 10.0896 12.8688 9.45844 12.6576ZM8.95204 14.9112C8.54404 14.9112 8.21284 14.58 8.21284 14.1696C8.21284 13.7568 8.54404 13.4256 8.95204 13.4256C9.36004 13.4256 9.69124 13.7568 9.69124 14.1696C9.69124 14.58 9.36004 14.9112 8.95204 14.9112Z" fill="currentColor"/>
<path d="M22.9105 12.6576C22.7497 12.6024 22.5817 12.5664 22.4041 12.5664C21.5233 12.5664 20.8057 13.2816 20.8057 14.1696C20.8057 14.34 20.8393 14.5008 20.8873 14.652C21.0937 15.3024 21.6913 15.7752 22.4041 15.7752C23.2849 15.7752 24.0001 15.0552 24.0001 14.1672C24.0001 13.4616 23.5417 12.8688 22.9105 12.6576ZM22.4041 14.9112C21.9961 14.9112 21.6649 14.58 21.6649 14.1696C21.6649 13.7568 21.9961 13.4256 22.4041 13.4256C22.8121 13.4256 23.1433 13.7568 23.1433 14.1696C23.1433 14.58 22.8121 14.9112 22.4041 14.9112Z" fill="currentColor"/>
<path d="M6.79917 9.1342C6.79917 8.863 6.79677 8.5774 6.79677 8.5486C6.79677 8.4838 6.75837 8.3734 6.66717 8.3014C6.57597 8.2294 6.16797 8.0542 6.16797 8.0542L6.38877 8.5558C6.44157 8.5558 6.48237 8.5822 6.48237 8.6422C6.48237 8.6638 6.48237 8.899 6.48237 9.1342H6.35517V9.799H6.93837V9.1342H6.79917Z" fill="currentColor"/>
<path d="M8.03036 8.7985C8.03036 8.7097 7.95836 8.6377 7.86956 8.6377H7.52396C7.43516 8.6377 7.36316 8.7097 7.36316 8.7985V9.1513H7.51196V9.7969H7.88396V9.1537H8.03276V8.7985H8.03036Z" fill="currentColor"/>
<path d="M20.9688 13.0321V12.6313L20.9016 12.6505V13.1233C20.9232 13.0921 20.9472 13.0633 20.9688 13.0321Z" fill="currentColor"/>
<path d="M7.12324 14.1693C7.12324 13.1853 7.90564 12.3813 8.88004 12.3477V10.2573C8.88004 10.1013 8.75284 9.97412 8.59684 9.97412H4.43044C4.41844 9.97412 4.40404 9.97412 4.39204 9.97652L2.56804 10.2237C2.42884 10.2429 2.32324 10.3629 2.32324 10.5045V14.1213C2.32324 14.2773 2.45044 14.4045 2.60644 14.4045H3.26404C3.25204 14.3253 3.24484 14.2461 3.24484 14.1693C3.24484 13.1637 4.06084 12.3453 5.06164 12.3453C5.24884 12.3453 5.43844 12.3789 5.64004 12.4461C6.38164 12.6957 6.87844 13.3869 6.87844 14.1693C6.87844 14.3829 6.84004 14.5893 6.77284 14.7813H7.23604C7.22884 14.7621 7.22164 14.7405 7.21444 14.7213C7.15444 14.5245 7.12324 14.3445 7.12324 14.1693Z" fill="currentColor"/>
<path d="M11.7432 9.75831C11.7264 9.74631 11.7 9.74871 11.688 9.76791L11.5104 10.0151C11.4984 10.0343 11.5008 10.0583 11.52 10.0703C11.532 10.0775 11.544 10.0799 11.556 10.0751C11.5632 10.0727 11.568 10.0679 11.5728 10.0607L11.7504 9.81351C11.7648 9.79671 11.76 9.77271 11.7432 9.75831Z" fill="currentColor"/>
<path d="M9.21594 8.27051V12.3721C9.31434 12.3889 9.41514 12.4153 9.51834 12.4489C9.57594 12.4681 9.62874 12.4897 9.68394 12.5137H12.8999V8.27051H9.21594ZM10.5695 9.80651H9.73914V8.88491H10.5695V9.80651ZM10.9535 8.89931C10.9535 8.89931 10.9679 8.63051 11.1527 8.63051C11.3375 8.63051 12.5975 8.63051 12.5975 8.63051L12.5735 10.1593H12.3119V10.1113C12.3119 10.0057 12.2255 9.91931 12.1199 9.91931H11.9639C11.9111 9.91931 11.8655 9.94091 11.8319 9.97451L11.7263 9.91691L11.6831 9.98411L11.7791 10.0753C11.7767 10.0873 11.7743 10.0993 11.7743 10.1113V12.1777L10.9511 12.1489V8.89931H10.9535ZM12.3143 12.1969V10.6057H12.5687L12.5447 12.2041L12.3143 12.1969Z" fill="currentColor"/>
<path d="M10.7376 13.9032L11.892 13.5504C11.9952 13.5192 12.0888 13.4616 12.1656 13.3848L12.8496 12.6816H9.98157C10.3872 12.9672 10.6632 13.4064 10.7376 13.9032Z" fill="currentColor"/>
<path d="M13.1832 8.16232H8.90877V8.68792H8.20557V8.06632L8.74797 7.91992L13.1616 8.03752L13.1832 8.16232Z" fill="currentColor"/>
<path d="M23.028 11.4359L20.364 10.4663H16.4568L16.9344 8.32314L16.6536 8.26074L16.1616 10.4663H14.9064V10.7735C14.7984 10.7735 14.6328 10.7735 14.5128 10.7735V10.4447L13.0368 10.0967V12.4943L13.8168 11.9207L14.7072 12.1967V12.1991H14.712L14.724 12.2039V12.1991H15.0312V13.1399H13.8792C13.6488 13.1399 13.4616 13.3271 13.4616 13.5575V14.1263C13.2456 14.1239 13.0536 14.1215 12.8952 14.1143C12.6384 14.4119 12.3312 14.9039 12.5568 15.8663L17.3544 15.2831C17.2824 14.6375 17.3856 14.3207 17.7336 14.0111C17.7408 14.0111 15.4824 14.1167 13.908 14.1263V13.6055H17.5392V13.2983H20.7936C20.8272 13.2359 20.8656 13.1759 20.9064 13.1183V12.6455L20.2344 12.8327H15.8472L16.1256 11.5871L16.2 11.6039L16.248 11.3879H19.788L20.9016 12.0167V12.6455L20.9688 12.6263V13.0271C21.3024 12.6095 21.8136 12.3407 22.3872 12.3407C22.5744 12.3407 22.764 12.3743 22.9656 12.4415C23.3688 12.5759 23.6976 12.8423 23.916 13.1831V11.4311H23.028V11.4359ZM15.6912 12.8351H15.3192V12.2015V12.1439V11.9087H14.7216V11.7599L14.9064 11.3903H15.9552L15.9216 11.5439L15.9768 11.5559L15.6912 12.8351Z" fill="currentColor"/>
<path d="M1.404 11.2461C1.404 11.2461 1.4088 11.3733 1.4136 11.5605L0.66 12.1293L0.6456 12.5829L0 12.6501L0.0528 13.1421L0.0888 13.1373L0.0048 13.7733L0.912 14.2341L0.3432 13.6341L0.4224 13.1013L0.6288 13.0797L0.612 13.6413L1.3128 14.1021L0.9288 13.6485L0.972 13.0437L1.092 13.0317L1.0872 13.6293L1.7496 13.9533L1.3632 13.5501L1.3992 12.9981L1.488 12.9885C1.5576 13.5021 2.0688 13.9629 2.0688 13.9629V12.1077L1.404 11.2461ZM1.008 12.5421L1.0272 12.2661L1.0968 12.2061L1.0944 12.5325L1.008 12.5421Z" fill="currentColor"/>
</g>
<defs>
<clipPath id="clip0_1430_1817">
<rect width="24" height="7.9512" fill="currentColor" transform="translate(0 7.91992)"/>
</clipPath>
</defs>
</svg>
