<svg width="24" height="24" viewBox="0 0 24 24" fill="currentColor" xmlns="http://www.w3.org/2000/svg">
<g clip-path="url(#clip0_1432_1026)">
<path d="M17.5511 17.424C17.4719 17.8272 17.4719 18.2232 17.5511 18.6264C17.6303 18.6264 17.7071 18.6264 17.7887 18.6264C17.8223 18.7488 17.8535 18.864 17.8871 18.984C17.8223 19.0224 17.7551 19.0632 17.6807 19.1064C17.8127 19.4928 18.0143 19.836 18.2783 20.148C18.3503 20.1072 18.4175 20.0688 18.4775 20.0352C18.5639 20.124 18.6503 20.2104 18.7415 20.304C18.7103 20.3568 18.6743 20.424 18.6359 20.4912C18.7535 20.6544 19.3895 21.0288 19.6727 21.096C19.7111 21.0312 19.7519 20.9616 19.7927 20.8944C19.9103 20.9256 20.0231 20.9568 20.1455 20.9904C20.1455 21.0672 20.1455 21.144 20.1455 21.2304C20.5487 21.3096 20.9423 21.3096 21.3479 21.2328C21.3479 21.1536 21.3479 21.0744 21.3479 20.9952C21.4751 20.9592 21.5879 20.928 21.7055 20.8968C21.7463 20.964 21.7847 21.0312 21.8279 21.1032C22.2119 20.9688 22.5551 20.7696 22.8671 20.5032C22.8263 20.4312 22.7879 20.3616 22.7519 20.2992C22.8407 20.2128 22.9271 20.1288 23.0183 20.0376C23.0759 20.0712 23.1455 20.1096 23.2175 20.1528C23.4839 19.8432 23.6807 19.4976 23.8175 19.1136C23.7455 19.0704 23.6807 19.032 23.6111 18.9888C23.6423 18.8736 23.6735 18.7584 23.7071 18.6336C23.7839 18.6336 23.8631 18.6336 23.9447 18.6336C24.0239 18.228 24.0239 17.832 23.9447 17.4288C23.8655 17.4288 23.7863 17.4288 23.7071 17.4288C23.6735 17.3088 23.6423 17.1936 23.6087 17.0712C23.6735 17.0328 23.7407 16.9944 23.8151 16.9488C23.6831 16.5648 23.4839 16.2192 23.2151 15.9072C23.1431 15.948 23.0759 15.9864 23.0183 16.02C22.9295 15.9312 22.8431 15.8448 22.7519 15.7536C22.7831 15.6984 22.8215 15.6312 22.8647 15.5568C22.5575 15.2904 22.2143 15.0936 21.8255 14.9544C21.7847 15.024 21.7439 15.0936 21.7031 15.1632C21.5855 15.132 21.4727 15.1008 21.3503 15.0648C21.3503 14.9904 21.3503 14.9112 21.3503 14.8272C20.9471 14.7456 20.5511 14.748 20.1479 14.8248C20.1479 14.904 20.1479 14.9832 20.1479 15.0624C20.0255 15.096 19.9103 15.1272 19.7903 15.1608C19.7495 15.0936 19.7111 15.0264 19.6679 14.9544C19.2839 15.0888 18.9407 15.288 18.6287 15.5544C18.6695 15.6264 18.7079 15.696 18.7439 15.7608C18.6551 15.8472 18.5687 15.9336 18.4799 16.0224C18.4199 15.9888 18.3503 15.948 18.2783 15.9072C18.0143 16.2192 17.8151 16.5624 17.6807 16.9488C17.7527 16.992 17.8175 17.0304 17.8871 17.0712C17.8559 17.1888 17.8247 17.304 17.7911 17.4264C17.7119 17.424 17.6327 17.424 17.5511 17.424ZM19.3583 18.0264C19.3583 17.2488 19.9823 16.6344 20.7455 16.6344C21.5135 16.6344 22.1327 17.2488 22.1327 18.0264C22.1327 18.7968 21.5135 19.4208 20.7455 19.4208C19.9823 19.4208 19.3583 18.7968 19.3583 18.0264Z" fill="currentColor"/>
<path d="M2.00636 16.9152C1.91756 17.3712 1.91756 17.82 2.00396 18.276C2.09276 18.276 2.18156 18.276 2.27276 18.276C2.31116 18.4128 2.34716 18.5448 2.38316 18.6816C2.30876 18.7248 2.23436 18.7704 2.15036 18.8208C2.29916 19.2576 2.52716 19.6464 2.82716 19.9992C2.90876 19.9536 2.98316 19.9104 3.05276 19.8696C3.15116 19.9704 3.24716 20.0688 3.35036 20.1744C3.31676 20.2344 3.27356 20.3112 3.23036 20.3856C3.36236 20.5704 4.08236 20.9928 4.40156 21.0696C4.44476 20.9952 4.49276 20.9184 4.53836 20.8416C4.67036 20.8776 4.79756 20.9136 4.93676 20.9496C4.93676 21.036 4.93676 21.1248 4.93676 21.2208C5.39276 21.3096 5.83916 21.3096 6.29756 21.2232C6.29756 21.132 6.29756 21.0432 6.29756 20.9544C6.44156 20.9136 6.56876 20.88 6.70316 20.844C6.74876 20.9208 6.79196 20.9952 6.84236 21.0792C7.27676 20.928 7.66556 20.7024 8.01836 20.4C7.97276 20.3184 7.92956 20.2392 7.88876 20.1672C7.98956 20.0688 8.08556 19.9728 8.18876 19.872C8.25356 19.9104 8.33276 19.9536 8.41436 20.0016C8.71436 19.6512 8.93756 19.26 9.09356 18.8232C9.01196 18.7752 8.93756 18.7296 8.85836 18.684C8.89436 18.552 8.93036 18.4224 8.96636 18.2832C9.05276 18.2832 9.14396 18.2832 9.23516 18.2832C9.32396 17.8248 9.32636 17.376 9.23516 16.92C9.14396 16.92 9.05756 16.92 8.96636 16.92C8.92796 16.7832 8.89196 16.6536 8.85356 16.5168C8.92796 16.4736 9.00236 16.428 9.08876 16.3776C8.93756 15.9408 8.71196 15.552 8.41196 15.1992C8.33036 15.2448 8.25596 15.288 8.18876 15.3264C8.08796 15.2256 7.99196 15.1296 7.88876 15.0264C7.92476 14.964 7.96796 14.8872 8.01596 14.8032C7.66796 14.5008 7.27916 14.28 6.83996 14.1216C6.79436 14.2008 6.74876 14.2776 6.70076 14.3568C6.56876 14.3208 6.44156 14.2848 6.30236 14.2464C6.30236 14.1624 6.30236 14.0712 6.30236 13.9776C5.84636 13.8864 5.39996 13.8864 4.94156 13.9752C4.94156 14.0664 4.94156 14.1552 4.94156 14.244C4.80236 14.2824 4.67276 14.3184 4.53596 14.3568C4.49036 14.28 4.44716 14.2056 4.39916 14.1216C3.96236 14.2728 3.57596 14.4984 3.22316 14.7984C3.26876 14.88 3.31436 14.9592 3.35276 15.0312C3.25196 15.1296 3.15596 15.2256 3.05516 15.3264C2.98556 15.288 2.90876 15.2424 2.82476 15.1968C2.52476 15.5496 2.29916 15.9384 2.14796 16.3752C2.22956 16.4232 2.30396 16.4664 2.38076 16.5144C2.34476 16.6464 2.30876 16.7784 2.27036 16.9176C2.18636 16.9152 2.09756 16.9152 2.00636 16.9152ZM4.05356 17.5968C4.05356 16.716 4.75916 16.02 5.62316 16.02C6.49196 16.02 7.19276 16.716 7.19276 17.5968C7.19276 18.468 6.49196 19.176 5.62316 19.176C4.75676 19.176 4.05356 18.468 4.05356 17.5968Z" fill="currentColor"/>
<path d="M15.1057 12.1655H13.4041V13.1447H15.1057V12.1655Z" fill="currentColor"/>
<path d="M0.8688 13.0127C0.8688 13.1663 0.6528 13.1567 0.3624 13.1567C0.072 13.1567 0 13.1111 0 13.0079C0 12.9071 0.00959999 12.8783 0.2136 12.8711L0.2088 11.5631H11.052V8.55115H12.2064L13.248 9.25195V10.1183V10.1975V16.4159C10.908 16.5215 10.1496 15.7871 9.2736 14.9375C8.904 14.5799 8.5224 14.2103 7.9992 13.8863C7.1136 13.3367 6.1248 13.0895 4.3512 12.9671C4.3008 12.9623 3.096 12.8663 2.5368 12.8663C2.5272 12.8663 2.52 12.8663 2.5128 12.8663V12.9503V14.9231C1.9056 15.6383 1.536 16.5671 1.536 17.5943C1.536 18.9023 2.1456 20.0663 3.0936 20.8199H0.4512V19.3103H0.0768V18.2831H1.2312V16.6703H0.6216V15.0335L1.4952 15.0431L1.596 12.5903H0.6816V12.8711C0.6816 12.8687 0.8688 12.8615 0.8688 13.0127Z" fill="currentColor"/>
<path d="M9.05994 5.30398H8.15994V5.88478L1.69434 3.72958C2.12154 3.37198 2.49114 3.33838 2.82954 3.33838C3.18714 3.33838 3.55914 3.41518 3.90714 3.54238L9.05994 5.30398Z" fill="currentColor"/>
<path d="M5.70239 4.06079H7.24799L7.38479 4.24559L7.37759 4.62719L5.70239 4.06079Z" fill="currentColor"/>
<path d="M1.57684 3.85681L8.16004 6.05281V6.09361H0.554443V4.53601H1.48564L1.59604 4.35601L1.32484 4.23841L1.57684 3.85681Z" fill="currentColor"/>
<path d="M15.1057 13.3032H13.4041V14.2848H15.1057V13.3032Z" fill="currentColor"/>
<path d="M7.91764 14.0208C8.42643 14.3352 8.80083 14.7 9.16563 15.0504C9.97683 15.8376 10.7472 16.584 12.8304 16.584C12.9648 16.584 13.1064 16.5792 13.2504 16.572V18.9888H15.2664V16.5C15.6384 16.488 16.1736 16.3896 16.6824 16.2528V20.82H8.15284C9.09843 20.0664 9.70563 18.9024 9.70563 17.5944C9.70563 15.3 7.88163 13.4904 5.62084 13.4904C5.17444 13.4904 4.74724 13.5624 4.34644 13.6944V13.1256C6.08884 13.2456 7.05844 13.488 7.91764 14.0208Z" fill="currentColor"/>
<path d="M15.1057 16.7159H13.4041V17.6951H15.1057V16.7159Z" fill="currentColor"/>
<path d="M15.1057 10.1976H13.4041V10.872H15.1057V10.1976Z" fill="currentColor"/>
<path d="M15.1057 17.8512H13.4041V18.8328H15.1057V17.8512Z" fill="currentColor"/>
<path d="M15.1057 15.5784H13.4041V16.56H15.1057V15.5784Z" fill="currentColor"/>
<path d="M15.1057 11.028H13.4041V12.0096H15.1057V11.028Z" fill="currentColor"/>
<path d="M15.1057 14.4408H13.4041V15.42H15.1057V14.4408Z" fill="currentColor"/>
<path d="M0.196777 7.20721L0.208777 11.4072H10.896V8.39521H12.2544L13.404 9.17041V10.0416H15.1272L15.3528 9.33601L13.74 7.90561C13.74 7.90561 14.3352 5.26561 14.5632 4.59601C14.772 3.98881 15.2856 3.8616 15.7992 3.7416V9.38161H15.504L15.2616 10.1328V16.344C15.6792 16.332 16.3296 16.2 16.8888 16.0296C17.9544 15.5688 18.2808 14.6688 19.4856 14.6688C20.7672 14.6688 22.2096 14.6688 22.2096 14.6688C22.6008 14.6688 22.6584 14.1432 22.6584 13.812C22.6584 13.4808 22.6584 11.1816 22.6584 11.1816C22.6584 10.9176 22.632 10.8336 22.2504 10.68C21.8688 10.5264 19.3728 9.52561 19.3728 9.52561L20.4432 5.4768C20.64 4.98481 21.1392 3.96001 22.068 3.756V3.3384L21.0648 2.88H12.4248L12.1704 3.3552H13.7616L13.7832 4.25521L12.8832 7.68481H12.5928L11.748 4.52641C11.6832 4.25281 11.4696 4.05121 11.1792 4.05121C10.9584 4.05121 10.644 4.05121 10.644 4.05121C10.644 4.05121 10.3128 4.02481 10.3128 4.21201C10.3128 4.39921 10.2528 5.46241 10.2528 5.46241H8.31598V6.25201H0.554377V7.20961H0.196777V7.20721ZM16.1136 9.38161V3.3816H21.2856C20.3016 4.23361 20.1552 4.68481 19.7688 5.93041L18.7464 9.38161H16.1136ZM10.6104 4.33201C10.6104 4.33201 10.9848 4.3296 11.2488 4.3296C11.4576 4.3296 11.5224 4.42081 11.568 4.59601L12.1728 6.87841H11.544L11.0352 6.48721V5.45281H10.7544L10.6104 4.33201Z" fill="currentColor"/>
</g>
<defs>
<clipPath id="clip0_1432_1026">
<rect width="24" height="18.408" fill="currentColor" transform="translate(0 2.88)"/>
</clipPath>
</defs>
</svg>
