<svg width="24" height="24" viewBox="0 0 24 24" fill="currentColor" xmlns="http://www.w3.org/2000/svg">
<g clip-path="url(#clip0_1437_1872)">
<path d="M15.5903 14.7696C15.3743 14.3856 14.9663 14.124 14.4959 14.124C13.8815 14.124 13.3727 14.568 13.2623 15.1512C13.2479 15.2256 13.2407 15.3024 13.2407 15.3816C13.2407 16.0776 13.8047 16.644 14.4959 16.644C15.1871 16.644 15.7511 16.0776 15.7511 15.3816C15.7511 15.1608 15.6911 14.952 15.5903 14.7696ZM14.4959 15.936C14.1935 15.936 13.9463 15.6888 13.9463 15.384C13.9463 15.3024 13.9655 15.2232 13.9967 15.1536C14.0831 14.964 14.2727 14.832 14.4935 14.832C14.5631 14.832 14.6279 14.8464 14.6903 14.868C14.8967 14.9472 15.0431 15.1464 15.0431 15.3816C15.0455 15.6888 14.7983 15.936 14.4959 15.936Z" fill="currentColor"/>
<path d="M4.98241 14.7696C4.76641 14.3856 4.35841 14.124 3.88801 14.124C3.27361 14.124 2.76481 14.568 2.65441 15.1512C2.64001 15.2256 2.63281 15.3024 2.63281 15.3816C2.63281 16.0776 3.19681 16.644 3.88801 16.644C4.57921 16.644 5.14321 16.0776 5.14321 15.3816C5.14081 15.1608 5.08321 14.952 4.98241 14.7696ZM3.88561 15.936C3.58321 15.936 3.33601 15.6888 3.33601 15.384C3.33601 15.3024 3.35521 15.2232 3.38641 15.1536C3.47281 14.964 3.66241 14.832 3.88321 14.832C3.95281 14.832 4.01761 14.8464 4.08001 14.868C4.28641 14.9472 4.43281 15.1464 4.43281 15.3816C4.43521 15.6888 4.19041 15.936 3.88561 15.936Z" fill="currentColor"/>
<path d="M24 17.2344L23.6472 17.1048L23.6784 17.0184L17.5488 14.652V14.5608H17.5536V7.20717C17.5536 6.94557 17.34 6.72957 17.076 6.72957L0.4776 6.71997C0.216 6.71997 0.0024 6.93357 0.0024 7.19757V7.94157V8.12157V9.15357V9.33357V10.3656V10.5456V11.5776V11.76V12.792V12.972V14.0112H0V15.0528H3.084C3.3144 14.8968 3.5904 14.8056 3.8856 14.8056C4.176 14.8056 4.4544 14.8944 4.6872 15.0528H13.692C13.9224 14.8968 14.1984 14.8056 14.4936 14.8056C14.784 14.8056 15.0624 14.8944 15.2952 15.0528H17.5464V15.0432L23.5632 17.3256L23.5896 17.2512L23.9424 17.3808L24 17.2344ZM17.3736 11.58H15.06V10.548H17.3736V11.58ZM7.6128 11.58V10.548H9.9144V11.58H7.6128ZM9.9144 11.76V12.792H7.6128V11.76H9.9144ZM12.3984 10.3656H10.0968V9.33357H12.3984V10.3656ZM12.5784 9.33357H14.88V10.3656H12.5784V9.33357ZM9.9144 10.3656H7.6128V9.33357H9.9144V10.3656ZM10.0944 9.15357V8.12157H12.396V9.15357H10.0944ZM9.9144 9.15357H7.6128V8.12157H9.9144V9.15357ZM7.4328 9.15357H5.1312V8.12157H7.4328V9.15357ZM7.4328 9.33357V10.3656H5.1312V9.33357H7.4328ZM7.4328 10.5456V11.5776H5.1312V10.5456H7.4328ZM10.0944 10.5456H12.396V11.5776H10.0944V10.5456ZM12.5784 10.5456H14.88V11.5776H12.5784V10.5456ZM17.3736 10.3656H15.06V9.33357H17.3736V10.3656ZM17.3736 9.15357H15.06V8.12157H17.3736V9.15357ZM14.88 9.15357H12.5784V8.12157H14.88V9.15357ZM12.5784 7.93917V6.90957L14.88 6.91197V7.94157H12.5784V7.93917ZM12.3984 7.93917H10.0968V6.90717L12.3984 6.90957V7.93917ZM9.9144 7.93917H7.6128V6.90477L9.9144 6.90717V7.93917ZM7.4328 7.93917H5.1312V6.90477L7.4328 6.90717V7.93917ZM4.9488 7.93917H2.6472V6.90237L4.9488 6.90477V7.93917ZM4.9488 8.11917V9.15117H2.6472V8.11917H4.9488ZM4.9488 9.33357V10.3656H2.6472V9.33357H4.9488ZM4.9488 10.5456V11.5776H2.6472V10.5456H4.9488ZM4.9488 11.76V12.792H2.6472V11.76H4.9488ZM5.1312 11.76H7.4328V12.792H5.1312V11.76ZM7.4328 12.972V14.0112H5.1312V12.972H7.4328ZM7.6128 12.972H9.9144V14.0112H7.6128V12.972ZM10.0944 12.972H12.396V14.0112H10.0944V12.972ZM10.0944 12.792V11.76H12.396V12.792H10.0944ZM12.5784 11.76H14.88V12.792H12.5784V11.76ZM15.06 11.76H17.3736V12.792H15.06V11.76ZM17.3736 7.20717V7.93917H15.06V6.91197L17.076 6.91437C17.2392 6.91197 17.3736 7.04397 17.3736 7.20717ZM0.1824 7.19757C0.1824 7.03437 0.3144 6.90237 0.4776 6.90237L2.4672 6.90477V7.94157H0.1824V7.19757ZM0.1824 8.11917H2.4672V9.15117H0.1824V8.11917ZM0.1824 9.33357H2.4672V10.3656H0.1824V9.33357ZM0.1824 10.5456H2.4672V11.5776H0.1824V10.5456ZM0.1824 11.76H2.4672V12.792H0.1824V11.76ZM0.1824 12.972H2.4672V14.0112H0.1824V12.972ZM2.6472 14.0112V12.972H4.9488V14.0112H2.6472ZM12.5784 14.0112V12.972H14.88V14.0112H12.5784ZM15.06 14.0112V12.972H17.3736V14.0112H15.06Z" fill="currentColor"/>
</g>
<defs>
<clipPath id="clip0_1437_1872">
<rect width="24" height="10.6632" fill="currentColor" transform="translate(0 6.71997)"/>
</clipPath>
</defs>
</svg>
