<svg width="24" height="24" viewBox="0 0 24 24" fill="currentColor" xmlns="http://www.w3.org/2000/svg">
<g clip-path="url(#clip0_1413_1820)">
<path d="M17.8656 16.056C17.8656 17.1 17.0208 17.9448 15.9792 17.9448C14.9376 17.9448 14.0928 17.1 14.0928 16.056C14.0928 15.0144 14.9376 14.1696 15.9792 14.1696C17.0208 14.1672 17.8656 15.012 17.8656 16.056ZM15.9576 15.24C15.5184 15.24 15.1632 15.5952 15.1632 16.0344C15.1632 16.4736 15.5184 16.8288 15.9576 16.8288C16.3968 16.8288 16.752 16.4736 16.752 16.0344C16.752 15.5952 16.3968 15.24 15.9576 15.24Z" fill="currentColor"/>
<path d="M4.48081 16.056C4.48081 17.1 3.63601 17.9448 2.59441 17.9448C1.55281 17.9448 0.708008 17.1 0.708008 16.056C0.708008 15.0144 1.55281 14.1696 2.59441 14.1696C3.63601 14.1672 4.48081 15.012 4.48081 16.056ZM2.57281 15.24C2.13361 15.24 1.77841 15.5952 1.77841 16.0344C1.77841 16.4736 2.13361 16.8288 2.57281 16.8288C3.01201 16.8288 3.36721 16.4736 3.36721 16.0344C3.36721 15.5952 3.01201 15.24 2.57281 15.24Z" fill="currentColor"/>
<path d="M-3.64238e-05 13.4328H5.36636L5.51996 13.7232H10.3512V11.4288H7.08476L6.94316 11.5944C6.94316 11.5944 6.00716 11.7096 5.21036 11.9712C4.41356 12.2328 4.35596 12.7008 4.35596 12.7008H1.40876C1.40876 12.7008 0.707964 12.672 0.350364 12.8664C-0.00963642 13.0632 -3.64238e-05 13.4328 -3.64238e-05 13.4328Z" fill="currentColor"/>
<path d="M12.2952 8.14563C11.604 8.14563 10.488 8.14563 10.488 8.14563V13.092H12.8976L14.2488 11.7792C14.4432 9.62163 12.9864 8.14563 12.2952 8.14563ZM10.9632 8.79603H12.5664V11.0208H10.9632V8.79603ZM12.5784 11.9952L11.6736 12.6744H10.944V11.2848H12.576V11.9952H12.5784ZM12.888 11.5968V8.80563C12.888 8.80563 13.5096 9.19443 13.7928 9.93363C14.0736 10.6728 14.0736 11.5968 14.0736 11.5968H12.888Z" fill="currentColor"/>
<path d="M8.21279 10.392C8.21279 10.1904 8.20799 9.47523 8.20799 9.42963C8.20799 9.36963 8.17199 9.26163 8.08559 9.19443C7.99919 9.12723 7.61279 8.95923 7.61279 8.95923L7.82159 9.43443C7.87199 9.43443 7.91039 9.45843 7.91039 9.51603C7.91039 9.55203 7.91039 10.1976 7.91039 10.3896H7.85999V11.3088H8.26799V10.392H8.21279Z" fill="currentColor"/>
<path d="M10.2288 10.9632C10.2288 10.8792 10.1592 10.8096 10.0752 10.8096H9.44639C9.36239 10.8096 9.29279 10.8792 9.29279 10.9632V11.0664H9.58319V11.3112H9.93599V11.0664H10.2264V10.9632H10.2288Z" fill="currentColor"/>
<path d="M2.05197 11.9904H1.83597C1.74717 11.9904 1.67517 12.0624 1.67517 12.1512V12.5784H2.21037V12.1512C2.21037 12.06 2.14077 11.9904 2.05197 11.9904ZM1.94397 12.3792C1.85997 12.3792 1.79037 12.3096 1.79037 12.2256C1.79037 12.1416 1.85997 12.072 1.94397 12.072C2.02797 12.072 2.09757 12.1416 2.09757 12.2256C2.09757 12.3096 2.02797 12.3792 1.94397 12.3792Z" fill="currentColor"/>
<path d="M16.524 6.23999V7.29839H15.2328V7.43039H15.372V8.10479H15.2328V8.23679H15.6408V11.4192L14.9352 11.9304L14.88 11.8536L13.4928 12.8592C13.5456 12.8592 13.596 12.8688 13.6464 12.8904C13.7976 12.9528 13.848 13.1112 13.8648 13.2312L15.1848 12.276L15.1224 12.1896L15.6408 11.8128V13.512H16.1856V8.23439H16.524V13.6944H13.716L13.7184 13.3632C13.7184 13.3632 13.7352 13.092 13.5888 13.032C13.4208 12.9624 13.2792 13.1112 13.2792 13.1112L12.7536 13.8792H5.22957L5.06397 13.5888H0.0191725C0.0191725 13.5888 -0.0288275 14.3472 0.0383725 15.2712C0.105572 16.1952 0.251972 16.6608 0.251972 16.6608H0.537573C0.477573 16.464 0.443973 16.2528 0.443973 16.0368C0.443973 14.8512 1.40877 13.8888 2.59197 13.8888C3.77517 13.8888 4.73997 14.8536 4.73997 16.0368C4.73997 16.3944 4.65117 16.7328 4.49517 17.0304H14.0712C13.9152 16.7328 13.8264 16.3944 13.8264 16.0368C13.8264 14.8512 14.7912 13.8888 15.9744 13.8888C16.236 13.8888 16.4832 13.9368 16.716 14.0232V14.0208L16.7184 14.0232H17.4144V6.23999H16.524ZM13.4616 13.4232C13.3872 13.4232 13.3248 13.3632 13.3248 13.2864C13.3248 13.212 13.3848 13.1496 13.4616 13.1496C13.5384 13.1496 13.5984 13.2096 13.5984 13.2864C13.5984 13.3632 13.5384 13.4232 13.4616 13.4232Z" fill="currentColor"/>
<path d="M22.092 16.9584H19.0896V16.7184H18.624V13.6032H18.8616V13.2504H18.624V12.7056H18.132V12.96H17.58V14.628C17.832 14.9112 18.012 15.2568 18.0864 15.6432H18.132V17.4072L22.1232 17.4C22.2096 17.4 24 17.3784 24 17.2896V17.172C24 17.04 22.1784 16.9584 22.092 16.9584Z" fill="currentColor"/>
</g>
<defs>
<clipPath id="clip0_1413_1820">
<rect width="24" height="11.7024" fill="currentColor" transform="translate(0 6.23999)"/>
</clipPath>
</defs>
</svg>
