<svg width="24" height="24" viewBox="0 0 24 24" fill="currentColor" xmlns="http://www.w3.org/2000/svg">
<g clip-path="url(#clip0_1431_3396)">
<path d="M4.6032 11.2008C2.0616 11.2008 0 13.2648 0 15.8208C0 18.3792 2.0616 20.4504 4.6032 20.4504C7.1448 20.4504 9.204 18.3792 9.204 15.8208C9.2016 13.2648 7.1448 11.2008 4.6032 11.2008ZM4.6032 17.964C3.4272 17.964 2.472 17.004 2.472 15.8208C2.472 14.6328 3.4272 13.68 4.6032 13.68C5.7768 13.68 6.7344 14.6352 6.7344 15.8208C6.732 17.004 5.7768 17.964 4.6032 17.964Z" fill="currentColor"/>
<path d="M22.0777 16.0968C21.5761 15.204 20.6257 14.5992 19.5337 14.5992C18.1081 14.5992 16.9201 15.6312 16.6681 16.9872C16.6369 17.1624 16.6177 17.34 16.6177 17.5224C16.6177 19.14 17.9281 20.4576 19.5337 20.4576C21.1417 20.4576 22.4497 19.1424 22.4497 17.5224C22.4497 17.004 22.3129 16.5192 22.0777 16.0968ZM19.5313 18.8064C18.8305 18.8064 18.2569 18.2328 18.2569 17.5224C18.2569 17.3304 18.3001 17.1504 18.3769 16.9872C18.5785 16.548 19.0201 16.2408 19.5313 16.2408C19.6921 16.2408 19.8457 16.2744 19.9873 16.3272C20.4649 16.512 20.8081 16.9728 20.8081 17.5224C20.8081 18.2328 20.2369 18.8064 19.5313 18.8064Z" fill="currentColor"/>
<path d="M7.45451 9.80399C6.81851 9.50159 6.12491 9.29759 5.39771 9.23279L5.59211 5.39999C5.59451 5.29919 5.63771 5.20319 5.71211 5.13599C5.78651 5.06639 5.88251 5.03039 5.99291 5.03759L7.44251 5.05199L7.76651 5.05439L12.2137 5.10239L12.5545 8.87039L12.1753 9.16559C12.1033 9.10559 12.0385 9.06718 11.9881 9.05519C11.7265 9.01199 11.4673 9.02639 11.3209 9.04079L11.3617 9.00239L11.2969 8.87039C11.3209 8.82479 11.3233 8.76478 11.3041 8.71199C11.2633 8.61838 11.2393 8.51759 11.2273 8.41439L11.4793 8.15759C11.5465 8.09038 11.5441 7.98239 11.4769 7.91518L11.4481 7.88879C11.3857 7.83119 11.2873 7.82399 11.2105 7.89599L9.83531 9.30719C9.79691 9.33839 9.77771 9.38878 9.78011 9.43198C9.78011 9.47758 9.79931 9.52079 9.83291 9.55679L9.85211 9.57359C9.88331 9.60959 9.92891 9.62639 9.97451 9.62639C10.0201 9.62639 10.0609 9.60959 10.0969 9.57598L10.4353 9.23038C10.4929 9.27839 10.5553 9.32399 10.6177 9.36479C10.6705 9.40079 10.7377 9.40559 10.7977 9.37919L10.9345 9.44639V9.44399L12.8785 12.4056L12.8809 12.3984L12.8833 12.4176H15.6193C15.6481 12.4176 16.3729 12.4248 16.9417 13.0128C17.1361 13.212 17.5465 13.6896 18.0073 14.2296L18.0001 14.2272C18.4657 14.004 18.9841 13.8816 19.5313 13.8816C21.0289 13.8816 22.3153 14.796 22.8697 16.0968H23.9977V13.644H22.3441C22.3369 12.3768 22.3009 10.8912 22.2049 10.2312C22.0657 9.29998 17.9929 8.96159 15.2209 8.78639V3.65999C15.2209 3.49439 15.0865 3.35999 14.9209 3.35999C14.7553 3.35999 14.6209 3.49439 14.6209 3.65999V8.74799C14.0665 8.71439 13.5889 8.68799 13.2505 8.66159L12.8641 4.38959L6.00971 4.31519C5.72171 4.30799 5.44091 4.40879 5.22731 4.60799C5.01611 4.80959 4.88891 5.07839 4.87931 5.36639L4.68251 9.20639C4.52171 9.21119 4.35851 9.22079 4.19531 9.23998C3.11531 9.35999 2.08571 9.76799 1.22171 10.4184C1.06331 10.536 1.03211 10.7616 1.14971 10.92C1.26971 11.0784 1.49051 11.1096 1.64891 10.992C2.41211 10.4184 3.32171 10.0608 4.27691 9.95279C7.21451 9.63119 9.86411 11.7624 10.1857 14.7048C10.1857 14.724 10.1953 14.7432 10.2025 14.7624L10.6129 17.7864H12.4489V16.9848H15.9481C16.1065 15.9264 16.7161 15.0144 17.5777 14.4576C17.1505 13.956 16.7713 13.5192 16.5961 13.3392C16.1641 12.8928 15.6169 12.888 15.6145 12.888H10.4353C10.3633 12.7248 10.2841 12.564 10.2001 12.4104H10.2025C9.64331 11.3736 8.79131 10.5336 7.77611 9.96959L7.45451 9.80399Z" fill="currentColor"/>
</g>
<defs>
<clipPath id="clip0_1431_3396">
<rect width="24" height="17.0976" fill="currentColor" transform="translate(0 3.35999)"/>
</clipPath>
</defs>
</svg>
