<svg width="24" height="24" viewBox="0 0 24 24" fill="currentColor" xmlns="http://www.w3.org/2000/svg">
<g clip-path="url(#clip0_1415_755)">
<path d="M4.90564 17.0088L4.93684 17.9328L9.43924 17.952L9.42964 17.0232L4.90564 17.0088Z" fill="currentColor"/>
<path d="M14.4648 12.7993L14.4624 13.2673L11.5296 13.2049L11.5248 12.7681L14.4648 12.7993Z" fill="currentColor"/>
<path d="M11.5583 5.28955H12.3144V5.63515H12.0168L12.0144 6.52795H12.2928V6.85675L12.0096 6.85915V12.4056H11.5583V5.28955Z" fill="currentColor"/>
<path d="M1.53843 17.6089C1.80003 17.6089 2.01363 17.8225 2.01363 18.0841C2.01363 18.3457 1.80003 18.5593 1.53843 18.5593C1.27683 18.5593 1.06323 18.3457 1.06323 18.0841C1.06323 17.8225 1.27683 17.6089 1.53843 17.6089ZM1.34403 18.0793C1.34403 18.1897 1.43283 18.2785 1.54323 18.2785C1.65363 18.2785 1.74243 18.1897 1.74243 18.0793C1.74243 17.9689 1.65363 17.8801 1.54323 17.8801C1.43283 17.8801 1.34403 17.9689 1.34403 18.0793Z" fill="currentColor"/>
<path d="M20.5776 17.6113C20.8392 17.6113 21.0528 17.8249 21.0528 18.0865C21.0528 18.3481 20.8392 18.5617 20.5776 18.5617C20.316 18.5617 20.1024 18.3481 20.1024 18.0865C20.1 17.8225 20.3136 17.6113 20.5776 17.6113ZM20.3808 18.0817C20.3808 18.1921 20.4696 18.2809 20.58 18.2809C20.6904 18.2809 20.7792 18.1921 20.7792 18.0817C20.7792 17.9713 20.6904 17.8825 20.58 17.8825C20.472 17.8801 20.3808 17.9713 20.3808 18.0817Z" fill="currentColor"/>
<path d="M3.08643 11.2176C3.25923 11.112 3.39603 11.0544 3.49683 10.896C3.59763 10.74 3.70083 10.4736 3.70083 10.4736C3.70083 10.4736 4.11603 10.4088 4.23843 10.3992C4.36083 10.3896 4.50723 10.332 4.60803 10.2864C4.70643 10.2408 4.55763 9.84476 4.55763 9.84476C4.55763 9.84476 3.94803 9.79436 3.72723 9.83756C3.50643 9.88076 3.42963 10.0872 3.26403 10.4016C3.09843 10.716 2.94963 10.8696 2.94963 10.8696L1.81203 11.5032L1.82403 11.832L1.39683 11.8272C1.39683 11.8272 0.561628 13.0128 0.297628 14.2224C0.0312277 15.432 -0.0335723 16.7328 0.0168277 17.2368C0.0672277 17.7408 0.175228 18.156 0.175228 18.156L0.645628 18.1488C0.643228 18.1272 0.638428 18.108 0.638428 18.0864C0.638428 17.5896 1.04163 17.1864 1.53843 17.1864C2.03523 17.1864 2.43843 17.5896 2.43843 18.0864C2.43843 18.0984 2.43603 18.108 2.43603 18.1176L4.32963 18.084L4.56003 17.8608V11.8728L2.36883 11.844L2.41923 11.6184C2.41923 11.6184 2.91363 11.3232 3.08643 11.2176Z" fill="currentColor"/>
<path d="M10.4184 17.0088L10.3872 14.2848V13.2384H11.2632L11.1432 5.28003H10.1232V9.54243H9.86404L9.80884 14.2848V17.9616L19.6896 17.952C19.7544 17.52 20.1264 17.184 20.5776 17.184C21.0288 17.184 21.3984 17.5176 21.4656 17.9496L23.4912 17.9472L23.916 17.7168L24.0024 17.0088H10.4184Z" fill="currentColor"/>
</g>
<defs>
<clipPath id="clip0_1415_755">
<rect width="24" height="13.2816" fill="currentColor" transform="translate(0 5.28003)"/>
</clipPath>
</defs>
</svg>
