<svg width="24" height="24" viewBox="0 0 24 24" fill="currentColor" xmlns="http://www.w3.org/2000/svg">
<g clip-path="url(#clip0_1534_3745)">
<path d="M6.60135 22.3185L7.29975 20.9098C7.50134 20.5042 7.43174 20.005 7.13175 19.6786L4.94777 17.3122C4.64777 16.9858 4.18698 16.9138 3.81258 17.1322L2.51179 17.8906C2.003 18.1882 1.5854 18.6394 1.31181 19.1914C0.695011 20.4322 0.903809 21.9658 1.823 22.9617L1.9214 23.0649C2.84059 24.0609 4.25658 24.2865 5.40136 23.6193C5.91016 23.3241 6.32776 22.8705 6.60135 22.3185ZM2.62459 22.1985C1.8878 21.4018 1.8878 20.1106 2.62459 19.3114C3.36138 18.5146 4.55177 18.5146 5.28857 19.3114C6.02536 20.1082 6.02536 21.3994 5.28857 22.1985C4.55177 22.9977 3.36138 22.9953 2.62459 22.1985Z" fill="currentColor"/>
<path d="M8.40351 18.2123L6.30354 15.9371L5.24995 17.0771L7.35233 19.3523L8.40351 18.2123Z" fill="currentColor"/>
<path d="M12.6061 13.6595L10.5061 11.3843L6.56536 15.6538L8.66534 17.929L12.6061 13.6595Z" fill="currentColor"/>
<path d="M21.0012 5.03149L18.4692 2.28832C18.1572 1.94993 17.6485 1.94993 17.3365 2.28832L10.5493 9.63945C10.2373 9.97784 10.2373 10.5274 10.5493 10.8682L13.0813 13.6114C13.3933 13.9498 13.9021 13.9498 14.2141 13.6114L21.0012 6.26028C21.3156 5.92189 21.3156 5.37229 21.0012 5.03149Z" fill="currentColor"/>
<path d="M22.8899 1.94758L21.3155 0.241198C21.0179 -0.0803992 20.5379 -0.0803992 20.2403 0.241198L18.6707 1.94038L21.3203 4.81075L22.8899 3.11157C23.1875 2.79237 23.1875 2.26918 22.8899 1.94758ZM20.5091 2.82357C20.1995 2.48997 20.1995 1.94758 20.5091 1.61158C20.8187 1.27799 21.3179 1.27799 21.6275 1.61158C21.9371 1.94518 21.9371 2.48757 21.6275 2.82357C21.3179 3.15717 20.8163 3.15717 20.5091 2.82357Z" fill="currentColor"/>
<path d="M15.3875 4.39794L15.0251 4.00674C14.8859 3.85554 14.8859 3.60835 15.0251 3.45715L15.9299 2.47556C16.0691 2.32436 16.2971 2.32436 16.4363 2.47556L16.8011 2.86915L15.3875 4.39794Z" fill="currentColor"/>
<path d="M11.5668 8.54035L11.2044 8.14916C11.0652 7.99796 11.0652 7.75076 11.2044 7.59956L12.1092 6.61797C12.2484 6.46677 12.4764 6.46677 12.6156 6.61797L12.978 7.00917L11.5668 8.54035Z" fill="currentColor"/>
</g>
<defs>
<clipPath id="clip0_1534_3745">
<rect width="22.1535" height="24.0002" fill="currentColor" transform="translate(0.959951)"/>
</clipPath>
</defs>
</svg>
