<svg width="24" height="24" viewBox="0 0 24 24" fill="currentColor" xmlns="http://www.w3.org/2000/svg">
<g clip-path="url(#clip0_1430_1992)">
<path d="M22.224 13.8123C22.0728 12.0627 23.376 10.7163 23.376 10.7163C23.376 10.7163 23.7432 11.0115 24 11.2659C22.0176 14.0811 23.9616 17.1099 23.9616 17.1099L23.22 17.5587C22.6224 16.5459 22.3224 15.6363 22.2 14.8299L21.096 14.5755C21.096 14.5755 21.1344 14.3907 21.0768 14.0187C21.0192 13.6467 20.9088 13.4667 20.9088 13.4667L22.224 13.8123Z" fill="currentColor"/>
<path d="M11.256 9.44651L11.364 9.67211L11.5368 9.57371L11.364 9.37451L11.256 9.44651Z" fill="currentColor"/>
<path d="M11.4792 9.1371C11.46 9.1083 11.4192 9.0987 11.3904 9.1179L10.9752 9.3915C10.9464 9.4107 10.9368 9.4515 10.956 9.4803C10.968 9.4995 10.9896 9.5091 11.0088 9.5091C11.0208 9.5091 11.0328 9.5067 11.0448 9.4995L11.4624 9.2259C11.4912 9.2067 11.5008 9.1683 11.4792 9.1371Z" fill="currentColor"/>
<path d="M0.3048 14.033H3.12V12.7729H0.1488C0.0672 12.7753 0 12.8425 0 12.9241V13.7282C0 13.8962 0.1368 14.033 0.3048 14.033Z" fill="currentColor"/>
<path d="M3.32397 12.7876H3.62157C3.50157 12.934 3.40077 13.0996 3.32397 13.2748V12.7876Z" fill="currentColor"/>
<path d="M8.604 12.7876H8.3064C8.4264 12.934 8.5272 13.0996 8.604 13.2748V12.7876Z" fill="currentColor"/>
<path d="M8.52479 15.2881C8.58719 14.9617 8.58719 14.6401 8.52479 14.3113C8.45999 14.3113 8.39519 14.3113 8.33039 14.3113C8.30399 14.2105 8.27759 14.1169 8.25119 14.0233C8.30639 13.9897 8.36159 13.9585 8.41919 13.9249C8.30879 13.6105 8.14799 13.3321 7.93199 13.0801C7.87199 13.1137 7.81679 13.1449 7.76639 13.1737C7.69439 13.1017 7.62479 13.0321 7.55279 12.9625C7.58159 12.9097 7.61279 12.8545 7.64639 12.7945C7.39439 12.5785 7.11599 12.4177 6.80159 12.3073C6.76559 12.3673 6.73439 12.4201 6.70319 12.4753C6.60719 12.4489 6.51359 12.4225 6.41279 12.3961C6.41279 12.3313 6.41279 12.2665 6.41279 12.2017C6.08399 12.1393 5.76479 12.1369 5.43599 12.2041C5.43599 12.2713 5.43599 12.3361 5.43599 12.3961C5.33519 12.4225 5.24399 12.4489 5.15039 12.4753C5.11679 12.4177 5.08559 12.3625 5.05199 12.3073C4.73759 12.4201 4.45919 12.5785 4.20959 12.7969C4.24319 12.8569 4.27439 12.9121 4.30079 12.9577C4.22639 13.0321 4.15679 13.1017 4.08479 13.1737C4.03679 13.1473 3.98159 13.1161 3.92399 13.0825C3.70799 13.3369 3.54479 13.6153 3.43679 13.9297C3.49679 13.9657 3.55199 13.9969 3.60479 14.0281C3.57839 14.1265 3.55199 14.2201 3.52319 14.3185C3.45839 14.3185 3.39599 14.3185 3.33119 14.3185C3.26639 14.6449 3.26639 14.9689 3.33119 15.2977C3.39839 15.2977 3.46079 15.2977 3.52559 15.2977C3.55199 15.3985 3.57839 15.4897 3.60479 15.5857C3.54719 15.6193 3.49439 15.6529 3.43679 15.6865C3.54719 16.0009 3.70799 16.2793 3.92399 16.5313C3.98399 16.4977 4.03919 16.4665 4.08719 16.4377C4.16159 16.5097 4.23119 16.5793 4.30319 16.6489C4.27439 16.6993 4.24319 16.7569 4.20959 16.8145C4.46399 17.0305 4.73999 17.1913 5.05199 17.3017C5.08799 17.2417 5.11919 17.1889 5.15039 17.1337C5.24639 17.1601 5.33759 17.1841 5.44079 17.2129C5.44079 17.2777 5.44079 17.3425 5.44079 17.4073C5.76959 17.4697 6.08879 17.4697 6.41759 17.4073C6.41759 17.3377 6.41759 17.2753 6.41759 17.2129C6.51599 17.1865 6.60959 17.1601 6.70319 17.1337C6.73679 17.1889 6.77039 17.2441 6.80159 17.2969C7.02959 17.2417 7.54799 16.9393 7.64399 16.8049C7.61279 16.7521 7.58159 16.6969 7.55759 16.6537C7.63199 16.5793 7.69919 16.5073 7.77119 16.4353C7.81919 16.4641 7.87439 16.4953 7.93199 16.5265C8.14559 16.2721 8.31119 15.9937 8.41679 15.6793C8.35679 15.6433 8.30159 15.6097 8.24879 15.5785C8.27519 15.4801 8.30159 15.3865 8.32799 15.2881C8.39759 15.2881 8.46239 15.2881 8.52479 15.2881ZM4.80239 14.8009C4.80239 14.1673 5.30639 13.6681 5.92799 13.6681C6.54719 13.6681 7.05359 14.1673 7.05359 14.8009C7.05359 15.4273 6.54719 15.9337 5.92799 15.9337C5.30639 15.9337 4.80239 15.4273 4.80239 14.8009Z" fill="currentColor"/>
<path d="M20.652 15.2881C20.7144 14.9617 20.7144 14.6401 20.652 14.3113C20.5872 14.3113 20.5224 14.3113 20.4576 14.3113C20.4312 14.2105 20.4048 14.1169 20.3784 14.0233C20.4336 13.9897 20.4888 13.9585 20.5464 13.9249C20.436 13.6105 20.2752 13.3321 20.0592 13.0801C19.9992 13.1137 19.944 13.1449 19.8936 13.1737C19.8216 13.1017 19.752 13.0321 19.68 12.9625C19.7088 12.9097 19.74 12.8545 19.7736 12.7945C19.5216 12.5785 19.2432 12.4177 18.9288 12.3073C18.8928 12.3673 18.8616 12.4201 18.8304 12.4753C18.7344 12.4489 18.6408 12.4225 18.54 12.3961C18.54 12.3313 18.54 12.2665 18.54 12.2017C18.2112 12.1393 17.892 12.1369 17.5632 12.2041C17.5632 12.2713 17.5632 12.3361 17.5632 12.3961C17.4624 12.4225 17.3712 12.4489 17.2776 12.4753C17.244 12.4177 17.2128 12.3625 17.1792 12.3073C16.8648 12.4201 16.5864 12.5785 16.3368 12.7969C16.3704 12.8569 16.4016 12.9121 16.428 12.9577C16.3536 13.0321 16.284 13.1017 16.212 13.1737C16.164 13.1473 16.1088 13.1161 16.0512 13.0825C15.8352 13.3369 15.672 13.6153 15.564 13.9297C15.624 13.9657 15.6792 13.9969 15.732 14.0281C15.7056 14.1265 15.6792 14.2201 15.6504 14.3185C15.5856 14.3185 15.5232 14.3185 15.4584 14.3185C15.3936 14.6449 15.3936 14.9689 15.4584 15.2977C15.5256 15.2977 15.588 15.2977 15.6528 15.2977C15.6792 15.3985 15.7056 15.4897 15.732 15.5857C15.6744 15.6193 15.6216 15.6529 15.564 15.6865C15.6744 16.0009 15.8352 16.2793 16.0512 16.5313C16.1112 16.4977 16.1664 16.4665 16.2144 16.4377C16.2888 16.5097 16.3584 16.5793 16.4304 16.6489C16.4016 16.6993 16.3704 16.7569 16.3368 16.8145C16.5912 17.0305 16.8672 17.1913 17.1792 17.3017C17.2152 17.2417 17.2464 17.1889 17.2776 17.1337C17.3736 17.1601 17.4648 17.1841 17.568 17.2129C17.568 17.2777 17.568 17.3425 17.568 17.4073C17.8968 17.4697 18.216 17.4697 18.5448 17.4073C18.5448 17.3377 18.5448 17.2753 18.5448 17.2129C18.6432 17.1865 18.7368 17.1601 18.8304 17.1337C18.864 17.1889 18.8976 17.2441 18.9288 17.2969C19.1568 17.2417 19.6752 16.9393 19.7712 16.8049C19.74 16.7521 19.7088 16.6969 19.6848 16.6537C19.7592 16.5793 19.8264 16.5073 19.8984 16.4353C19.9464 16.4641 20.0016 16.4953 20.0592 16.5265C20.2728 16.2721 20.4384 15.9937 20.544 15.6793C20.484 15.6433 20.4288 15.6097 20.376 15.5785C20.4024 15.4801 20.4288 15.3865 20.4552 15.2881C20.5248 15.2881 20.5896 15.2881 20.652 15.2881ZM16.9296 14.8009C16.9296 14.1673 17.4336 13.6681 18.0552 13.6681C18.6744 13.6681 19.1808 14.1673 19.1808 14.8009C19.1808 15.4273 18.6744 15.9337 18.0552 15.9337C17.4336 15.9337 16.9296 15.4273 16.9296 14.8009Z" fill="currentColor"/>
<path d="M15.1321 10.6682H14.4745L14.4961 11.3546C13.8937 11.2514 13.1713 11.357 12.6409 11.4914V10.445H12.4945L12.3049 11.0786C12.3049 11.0786 12.2689 11.081 12.2065 11.0858L11.6929 7.13543H11.9473V7.01543C11.9473 6.94103 11.8873 6.88103 11.8129 6.88103H8.84885V6.68423H8.97605V6.38423C8.97605 6.30503 8.91125 6.24023 8.83205 6.24023H8.75525C8.67605 6.24023 8.61126 6.30503 8.61126 6.38423V6.68423H8.74565V6.88343H8.47445C8.40005 6.88343 8.34005 6.94343 8.34005 7.01783V7.13783H8.80085L8.69766 9.53304C8.69526 9.53304 8.69285 9.53304 8.68806 9.53064C8.36885 9.51144 8.17925 9.51624 8.07845 9.52344V9.42264H7.77605C7.77605 9.42264 7.76885 9.08664 7.76885 8.99304C7.76885 8.90664 7.71845 8.75543 7.59365 8.65703C7.46885 8.55863 7.20965 8.53943 7.20965 8.53943L7.21685 9.00264C7.28885 9.00264 7.34405 9.03864 7.34405 9.12023C7.34405 9.19704 7.34165 9.42264 7.34165 9.42264H7.20485L7.20725 9.74904L2.26805 10.2698C1.80485 10.4138 1.41845 10.733 1.18805 11.1602L0.859253 12.3194C0.859253 12.4658 0.976853 12.5834 1.12325 12.5834H4.02485C4.53845 12.1394 5.20325 11.873 5.93285 11.873C6.23525 11.873 6.54005 11.9258 6.86165 12.0362C7.22405 12.1586 7.55045 12.3458 7.82885 12.5834H8.79125V14.2058C8.83206 14.4002 8.85605 14.6018 8.85605 14.8082C8.85605 15.0194 8.83446 15.2258 8.79125 15.4226V15.6098H11.6953V14.8466H12.7129V15.185H15.1393C15.1201 15.0554 15.1081 14.9306 15.1081 14.8058C15.1081 13.469 16.0057 12.3362 17.2273 11.9834V11.981L15.1321 10.6682ZM9.36965 8.86583C9.36965 8.87303 9.36965 9.28344 9.36965 9.66984L9.27605 9.64824L9.22806 7.13543H11.4697L11.8201 9.83064L11.6977 9.60024L11.1697 9.92664L11.2441 10.097L9.86885 9.78504C9.86405 9.75864 9.85925 9.72984 9.84965 9.70344C9.77765 9.47544 9.62165 9.27624 9.58085 9.10823C9.53765 8.93783 9.57845 8.80103 9.46325 8.80103C9.37445 8.79864 9.36965 8.85143 9.36965 8.86583ZM10.5553 10.8266C10.1785 10.613 9.77285 10.2074 9.39845 9.90744L11.9065 10.4738L11.9881 11.093C11.6089 11.0978 10.9753 11.0642 10.5553 10.8266ZM12.7153 14.3402H11.6977V13.997H12.7153V14.3402ZM12.7153 11.9834V12.8306H11.6977V12.5786C12.1777 12.5642 12.5665 12.2042 12.6289 11.7386C13.1857 11.5922 13.9321 11.4842 14.5033 11.5946L14.5153 11.9834H12.7153Z" fill="currentColor"/>
</g>
<defs>
<clipPath id="clip0_1430_1992">
<rect width="24" height="11.3184" fill="currentColor" transform="translate(0 6.24023)"/>
</clipPath>
</defs>
</svg>
