<svg width="24" height="24" viewBox="0 0 24 24" fill="currentColor" xmlns="http://www.w3.org/2000/svg">
<g clip-path="url(#clip0_1431_3391)">
<path d="M4.6032 11.2008C2.0616 11.2008 0 13.2648 0 15.8208C0 18.3792 2.0616 20.4504 4.6032 20.4504C7.1448 20.4504 9.204 18.3792 9.204 15.8208C9.2016 13.2648 7.1448 11.2008 4.6032 11.2008ZM4.6032 17.964C3.4272 17.964 2.472 17.004 2.472 15.8208C2.472 14.6328 3.4272 13.68 4.6032 13.68C5.7768 13.68 6.7344 14.6352 6.7344 15.8208C6.732 17.004 5.7768 17.964 4.6032 17.964Z" fill="currentColor"/>
<path d="M22.0777 16.0968C21.5761 15.204 20.6257 14.5992 19.5337 14.5992C18.1081 14.5992 16.9201 15.6312 16.6681 16.9872C16.6369 17.1624 16.6177 17.34 16.6177 17.5224C16.6177 19.14 17.9281 20.4576 19.5337 20.4576C21.1417 20.4576 22.4497 19.1424 22.4497 17.5224C22.4497 17.004 22.3129 16.5192 22.0777 16.0968ZM19.5313 18.8064C18.8305 18.8064 18.2569 18.2328 18.2569 17.5224C18.2569 17.3304 18.3001 17.1504 18.3769 16.9872C18.5785 16.548 19.0201 16.2408 19.5313 16.2408C19.6921 16.2408 19.8457 16.2744 19.9873 16.3272C20.4649 16.512 20.8081 16.9728 20.8081 17.5224C20.8081 18.2328 20.2369 18.8064 19.5313 18.8064Z" fill="currentColor"/>
<path d="M13.0369 13.3296H11.2705V14.0712H13.0369V13.3296Z" fill="currentColor"/>
<path d="M22.3465 13.644C22.3393 12.3768 22.3033 10.8912 22.2073 10.2312C22.0681 9.29998 17.9953 8.96159 15.2233 8.78639V3.65999C15.2233 3.49439 15.0889 3.35999 14.9233 3.35999C14.7577 3.35999 14.6233 3.49439 14.6233 3.65999V8.74799C14.0689 8.71439 13.5913 8.68799 13.2529 8.66159L12.8641 4.38959L6.00971 4.31519C5.72171 4.30799 5.44091 4.40879 5.22731 4.60799C5.01611 4.80959 4.88891 5.07839 4.87931 5.36639L4.68251 9.20639C4.52171 9.21119 4.35851 9.22079 4.19531 9.23998C3.11531 9.35999 2.08571 9.76799 1.22171 10.4184C1.06331 10.536 1.03211 10.7616 1.14971 10.92C1.26971 11.0784 1.49051 11.1096 1.64891 10.992C2.41211 10.4184 3.32171 10.0608 4.27691 9.95279C7.21451 9.63119 9.86411 11.7624 10.1857 14.7048C10.1857 14.724 10.1953 14.7432 10.2025 14.7624L10.6129 17.7864H12.4489V16.9848H15.9481C16.1065 15.9264 16.7161 15.0144 17.5777 14.4576L18.0001 14.2272C18.4657 14.004 18.9841 13.8816 19.5313 13.8816C21.0289 13.8816 22.3153 14.796 22.8697 16.0968H23.9977V13.644H22.3465ZM5.39531 9.23279L5.59211 5.39999C5.59451 5.29919 5.63771 5.20319 5.71211 5.13599C5.78651 5.06639 5.88251 5.03039 5.99291 5.03759L7.44251 5.05199L7.45451 9.80639C6.81611 9.50159 6.12491 9.29759 5.39531 9.23279ZM13.3081 11.3616V16.3752H10.9969V11.3616H9.48011C9.00011 10.8 8.42171 10.332 7.77611 9.97439L7.76651 5.05199L12.2137 5.09999L12.5545 8.86799L12.1753 9.16319C12.1033 9.10319 12.0385 9.06479 11.9881 9.05278C11.7265 9.00958 11.4673 9.02399 11.3209 9.03839L11.3617 8.99999L11.2969 8.86799C11.3209 8.82239 11.3233 8.76239 11.3041 8.70959C11.2633 8.61599 11.2393 8.51518 11.2273 8.41198L11.4793 8.15519C11.5465 8.08799 11.5441 7.97999 11.4769 7.91279L11.4481 7.88639C11.3857 7.82879 11.2873 7.82159 11.2105 7.89359L9.83531 9.30479C9.79691 9.33599 9.77771 9.38639 9.78011 9.42959C9.78011 9.47519 9.79931 9.51838 9.83291 9.55439L9.85211 9.57119C9.88331 9.60718 9.92891 9.62399 9.97451 9.62399C10.0201 9.62399 10.0609 9.60718 10.0969 9.57359L10.4353 9.22799C10.4929 9.27599 10.5553 9.32159 10.6177 9.36239C10.6705 9.39839 10.7377 9.40319 10.7977 9.37679L10.9345 9.44399V9.44159L12.1945 11.364H11.2729V13.0608H13.0393V11.364H13.3081V11.3616Z" fill="currentColor"/>
<path d="M13.0369 14.3448H11.2705V15.0888H13.0369V14.3448Z" fill="currentColor"/>
<path d="M13.0369 15.36H11.2705V16.1016H13.0369V15.36Z" fill="currentColor"/>
</g>
<defs>
<clipPath id="clip0_1431_3391">
<rect width="24" height="17.0976" fill="currentColor" transform="translate(0 3.35999)"/>
</clipPath>
</defs>
</svg>
