<svg width="25" height="24" viewBox="0 0 25 24" fill="currentColor" xmlns="http://www.w3.org/2000/svg">
<g clip-path="url(#clip0_1420_1149)">
<path d="M6.888 9.85421L8.2272 10.339L8.7216 12.7486L8.7792 14.2294H5.112V9.85181H6.888V9.85421ZM5.4072 10.1926V13.9294L6.8256 13.9318L6.792 10.1854L5.4072 10.1926ZM7.9752 10.6102L7.0512 10.2742L7.044 13.9318L8.4264 13.9366L8.4 12.7822L7.9752 10.6102Z" fill="currentColor"/>
<path d="M18.1152 10.7015L17.7744 10.3319L17.6016 6.4655L17.916 5.8703L17.856 4.2503L16.992 4.2623L17.004 4.9175L16.296 4.9319L16.2528 2.4047L14.8968 2.3999L15.0456 6.6071L14.6544 6.6239L14.688 16.7063H15.7464L16.5696 18.3359L16.4664 13.3031L16.812 13.2935L16.824 13.9127L17.2608 13.9151L17.2896 11.7815L17.7168 11.0711L18.1224 11.0519L18.1152 10.7015Z" fill="currentColor"/>
<path d="M2.4624 18.0359C3.384 18.0359 4.1304 18.7823 4.1304 19.7039C4.1304 20.6255 3.384 21.3719 2.4624 21.3719C1.5408 21.3719 0.794403 20.6255 0.794403 19.7039C0.794403 18.7823 1.5408 18.0359 2.4624 18.0359ZM1.7784 19.6847C1.7784 20.0711 2.0928 20.3855 2.4792 20.3855C2.868 20.3855 3.18 20.0711 3.18 19.6847C3.18 19.2959 2.8656 18.9839 2.4792 18.9839C2.0928 18.9839 1.7784 19.2983 1.7784 19.6847Z" fill="currentColor"/>
<path d="M14.8032 17.9231C15.7248 17.9231 16.4712 18.6695 16.4712 19.5911C16.4712 20.5127 15.7248 21.2591 14.8032 21.2591C13.8816 21.2591 13.1352 20.5127 13.1352 19.5911C13.1352 18.6695 13.8816 17.9231 14.8032 17.9231ZM14.1192 19.5719C14.1192 19.9583 14.4336 20.2727 14.82 20.2727C15.2088 20.2727 15.5208 19.9583 15.5208 19.5719C15.5208 19.1831 15.2064 18.8711 14.82 18.8711C14.4336 18.8687 14.1192 19.1831 14.1192 19.5719Z" fill="currentColor"/>
<path d="M12.9936 14.2823L8.9736 17.0351L9.9576 17.0207L13.3104 14.7815L13.2648 14.7023L14.424 13.8815V13.3943L13.0512 14.3711L12.9936 14.2823Z" fill="currentColor"/>
<path d="M8.7744 16.8071V14.5007H5.112V15.0023H6.6936L7.4088 15.7175V16.7927L8.7744 16.8071ZM8.7744 16.6583H0V20.0279H0.312C0.2976 19.9199 0.2856 19.8143 0.2856 19.7039C0.2856 18.4895 1.2744 17.5007 2.4888 17.5007C3.7032 17.5007 4.692 18.4895 4.692 19.7039C4.692 19.8743 4.6704 20.0399 4.6344 20.1983L12.6912 20.2247C12.6312 20.0231 12.5976 19.8095 12.5976 19.5887C12.5976 18.3743 13.5864 17.3855 14.8008 17.3855C15.1128 17.3855 15.408 17.4503 15.6768 17.5679L15.4752 17.1071H8.7744V16.6583Z" fill="currentColor"/>
<path d="M23.6184 4.25757V4.68237H18.6144V4.25757H18.2328V5.85357H18.6144V5.42877H23.6184V5.85357H24V5.42877V4.68237V4.25757H23.6184Z" fill="currentColor"/>
</g>
<defs>
<clipPath id="clip0_1420_1149">
<rect width="24" height="18.972" fill="currentColor" transform="translate(0 2.3999)"/>
</clipPath>
</defs>
</svg>
