<svg width="24" height="24" viewBox="0 0 24 24" fill="currentColor" xmlns="http://www.w3.org/2000/svg">
<g clip-path="url(#clip0_1437_1505)">
<path d="M6.15124 14.4216C5.15285 14.4216 4.32005 15.144 4.14245 16.0968C4.12085 16.2192 4.10645 16.344 4.10645 16.4712C4.10645 17.6064 5.02324 18.528 6.15124 18.528C7.27924 18.528 8.19605 17.6064 8.19605 16.4712C8.19605 16.1088 8.10004 15.768 7.93685 15.4728C7.58404 14.8464 6.91684 14.4216 6.15124 14.4216ZM6.15124 17.3712C5.65924 17.3712 5.25845 16.968 5.25845 16.4712C5.25845 16.3368 5.28965 16.212 5.34245 16.0968C5.48405 15.7896 5.79364 15.5736 6.15124 15.5736C6.26405 15.5736 6.37204 15.5976 6.47044 15.6336C6.80404 15.7632 7.04645 16.0848 7.04645 16.4712C7.04645 16.968 6.64564 17.3712 6.15124 17.3712Z" fill="currentColor"/>
<path d="M11.2296 14.4216C10.2312 14.4216 9.39841 15.144 9.22081 16.0968C9.19921 16.2192 9.18481 16.344 9.18481 16.4712C9.18481 17.6064 10.1016 18.528 11.2296 18.528C12.3576 18.528 13.2744 17.6064 13.2744 16.4712C13.2744 16.1088 13.1784 15.768 13.0152 15.4728C12.6624 14.8464 11.9952 14.4216 11.2296 14.4216ZM11.2296 17.3712C10.7376 17.3712 10.3368 16.968 10.3368 16.4712C10.3368 16.3368 10.368 16.212 10.4208 16.0968C10.5624 15.7896 10.872 15.5736 11.2296 15.5736C11.3424 15.5736 11.4504 15.5976 11.5488 15.6336C11.8824 15.7632 12.1248 16.0848 12.1248 16.4712C12.1224 16.968 11.7216 17.3712 11.2296 17.3712Z" fill="currentColor"/>
<path d="M8.16245 15.2783H9.21845C9.43685 14.9063 9.75605 14.6039 10.1328 14.4023H7.24805C7.62005 14.6039 7.93925 14.9039 8.16245 15.2783Z" fill="currentColor"/>
<path d="M5.05674 14.4048H3.20874V15.2808H4.14234C4.36074 14.9064 4.67994 14.6064 5.05674 14.4048Z" fill="currentColor"/>
<path d="M20.0112 18.1992H18.7344V18.492H20.0112V18.1992Z" fill="currentColor"/>
<path d="M21.7656 15.5784C21.8856 14.1336 20.94 13.9296 20.3736 13.8072C20.2752 13.7856 20.1816 13.7664 20.1072 13.7424C19.8984 13.6776 19.7832 13.5984 19.6608 13.5144C19.512 13.4112 19.3488 13.308 19.0416 13.2504L20.0208 5.93523L14.8344 5.28003L0 6.98643L0.8328 13.9656H18.9456L19.0152 13.452C19.272 13.5024 19.404 13.5864 19.5456 13.6824C19.668 13.7664 19.8096 13.8648 20.0472 13.9368C20.1312 13.9632 20.2272 13.9848 20.3304 14.0064C20.9232 14.1336 21.66 14.2944 21.5616 15.5448L21.084 15.468L18.9456 14.4048H12.3216C12.6936 14.604 13.0128 14.904 13.236 15.2808H13.2864L13.2696 15.2856L16.6848 15.78L17.2512 16.404L17.8056 16.1568V16.2576C17.6616 16.2792 17.544 16.3848 17.5152 16.5288C17.5104 16.548 17.508 16.5696 17.508 16.5912C17.508 16.7808 17.6616 16.9344 17.8488 16.9344C18.036 16.9344 18.1896 16.7808 18.1896 16.5912C18.1896 16.5312 18.1728 16.4736 18.1464 16.4232C18.0936 16.3296 18 16.2672 17.8896 16.2528V16.116L18.4128 15.8832L19.1448 15.6696L19.1424 18.0648H19.5144V15.7008C20.0688 15.9024 20.6496 16.0992 20.6808 16.0992C20.7408 16.0992 23.9904 16.14 23.9904 16.14V15.9408L21.7656 15.5784ZM17.9064 16.452C17.9616 16.4736 18.0024 16.5264 18.0024 16.5912C18.0024 16.6752 17.9352 16.7424 17.8536 16.7424C17.772 16.7424 17.7048 16.6752 17.7048 16.5912C17.7048 16.5696 17.7096 16.548 17.7192 16.5288C17.736 16.4928 17.7696 16.4688 17.808 16.4544V16.5816C17.808 16.6056 17.8272 16.6248 17.8512 16.6248C17.8752 16.6248 17.8944 16.6056 17.8944 16.5816V16.4496C17.8992 16.4496 17.904 16.4496 17.9064 16.452ZM18.5136 15.2784C18.5136 15.2808 18.5088 15.2856 18.5088 15.288L18.5112 15.2904L18.4632 15.2784H18.5136Z" fill="currentColor"/>
<path d="M20.8295 8.31118L20.2535 6.60718L19.5791 11.1072L20.8295 8.31118Z" fill="currentColor"/>
<path d="M18.6553 16.6825C18.8727 16.6825 19.0489 16.5062 19.0489 16.2889C19.0489 16.0715 18.8727 15.8953 18.6553 15.8953C18.4379 15.8953 18.2617 16.0715 18.2617 16.2889C18.2617 16.5062 18.4379 16.6825 18.6553 16.6825Z" fill="currentColor"/>
</g>
<defs>
<clipPath id="clip0_1437_1505">
<rect width="24" height="13.248" fill="currentColor" transform="translate(0 5.28003)"/>
</clipPath>
</defs>
</svg>
