<svg width="24" height="24" viewBox="0 0 24 24" fill="currentColor" xmlns="http://www.w3.org/2000/svg">
<g clip-path="url(#clip0_1539_834)">
<path d="M12.8856 10.0801H12.7584L12.672 10.0945L0.9144 13.0417L0.3384 13.1785L0 13.8481L1.0032 13.7641L12.6768 10.8385H12.672H12.6768H12.9336V12.8521C12.744 12.9265 12.6072 13.1113 12.6072 13.3297C12.6072 13.6129 12.8376 13.8433 13.1208 13.8433C13.404 13.8433 13.6344 13.6129 13.6344 13.3297C13.6344 13.1089 13.4928 12.9193 13.296 12.8473V11.8729L15.5376 10.8385H22.2456V10.5265H24V10.0801H12.8856ZM13.296 11.4721V10.8385H14.6712L13.296 11.4721ZM13.3752 13.3297C13.3752 13.4689 13.26 13.5841 13.1208 13.5841C12.9816 13.5841 12.8664 13.4689 12.8664 13.3297C12.8664 13.1905 12.9816 13.0753 13.1208 13.0753C13.2624 13.0753 13.3752 13.1881 13.3752 13.3297Z" fill="currentColor"/>
</g>
<defs>
<clipPath id="clip0_1539_834">
<rect width="24" height="3.768" fill="currentColor" transform="translate(0 10.0801)"/>
</clipPath>
</defs>
</svg>
