<svg width="24" height="24" viewBox="0 0 24 24" fill="currentColor" xmlns="http://www.w3.org/2000/svg">
<g clip-path="url(#clip0_1422_1656)">
<path d="M10.7663 17.7262C10.7663 18.3934 10.2263 18.9334 9.55913 18.9334C8.89193 18.9334 8.35193 18.3934 8.35193 17.7262C8.35193 17.059 8.89193 16.519 9.55913 16.519C10.2263 16.519 10.7663 17.059 10.7663 17.7262ZM9.54713 17.203C9.26633 17.203 9.03833 17.431 9.03833 17.7118C9.03833 17.9926 9.26633 18.2206 9.54713 18.2206C9.82793 18.2206 10.0559 17.9926 10.0559 17.7118C10.0535 17.431 9.82793 17.203 9.54713 17.203Z" fill="currentColor"/>
<path d="M2.93283 17.7262C2.93283 18.3934 2.39283 18.9334 1.72563 18.9334C1.05843 18.9334 0.518433 18.3934 0.518433 17.7262C0.518433 17.059 1.05843 16.519 1.72563 16.519C2.39283 16.519 2.93283 17.059 2.93283 17.7262ZM1.71123 17.203C1.43043 17.203 1.20243 17.431 1.20243 17.7118C1.20243 17.9926 1.43043 18.2206 1.71123 18.2206C1.99203 18.2206 2.22003 17.9926 2.22003 17.7118C2.22003 17.431 1.99203 17.203 1.71123 17.203Z" fill="currentColor"/>
<path d="M7.93678 14.6088L7.83598 15.72C7.83598 15.72 0.585582 15.804 0.340782 15.804C0.0959822 15.804 0.0503823 15.6792 0.00958225 15.576C-0.0288177 15.4728 0.0359823 14.1432 0.0479823 13.9632C0.0623823 13.7832 0.163182 13.5552 0.551982 13.5552C0.940782 13.5552 4.84318 13.5144 4.97758 13.5144C5.11198 13.5144 6.27838 13.764 6.82318 13.9104C7.37038 14.0544 7.96558 14.2344 7.93678 14.6088Z" fill="currentColor"/>
<path d="M8.72155 16.4039L6.90475 16.0823L5.23195 16.1015L2.69995 16.4423C3.08155 16.7351 3.32875 17.1959 3.32875 17.7119C3.32875 17.8319 3.31435 17.9495 3.28795 18.0623H8.00155C7.96075 17.9111 7.95595 17.8055 7.95595 17.7647C7.95595 17.1911 8.26315 16.6847 8.72155 16.4039Z" fill="currentColor"/>
<path d="M21.9744 21.3478C21.9744 21.3814 21.996 21.4078 22.0248 21.4078H22.128V22.0054H22.1064V22.555H23.9208V22.0054H23.8128V21.4078H23.9472C23.976 21.4078 23.9976 21.3814 23.9976 21.3478C23.9976 21.3142 23.9736 21.2878 23.9472 21.2878H23.8128V20.3758H23.9472C23.976 20.3758 23.9976 20.3494 23.9976 20.3158C23.9976 20.2822 23.9736 20.2558 23.9472 20.2558H23.8128V19.7758C23.8128 19.7422 23.7888 19.7158 23.7624 19.7158H22.1784C22.1496 19.7158 22.128 19.7422 22.128 19.7758V20.2558H22.0248C21.996 20.2558 21.9744 20.2822 21.9744 20.3158C21.9744 20.3494 21.996 20.3758 22.0248 20.3758H22.128V21.2854H22.0248C21.9984 21.2878 21.9744 21.3142 21.9744 21.3478ZM22.5576 20.2558H22.2312V19.8358H22.5576V20.2558ZM22.5576 21.2878H22.2312V20.3758H22.5576V21.2878ZM23.2344 20.2558H22.6584V19.8358H23.2344V20.2558ZM23.2344 21.2878H22.6584V20.3758H23.2344V21.2878ZM23.2344 21.4078V22.0054H22.6584V21.4078H23.2344ZM23.712 20.2558H23.3376V19.8358H23.712V20.2558ZM23.712 21.2878H23.3376V20.3758H23.712V21.2878ZM23.712 22.0054H23.3376V21.4078H23.712V22.0054ZM22.2312 22.0054V21.4078H22.5576V22.0054H22.2312Z" fill="currentColor"/>
<path d="M6.34559 8.31594L6.84719 8.64474C6.86399 8.65434 6.88559 8.65914 6.90479 8.66634L5.53679 10.5647L5.38319 10.4663L3.51839 13.0559H4.27439L5.89439 10.7927L5.72879 10.6871L5.75759 10.6823L7.21679 8.64234C7.25519 8.61834 7.28879 8.58474 7.31519 8.54394C7.33439 8.51754 7.34159 8.48634 7.34879 8.45754L7.36799 8.42874L7.36079 8.42394C7.38719 8.29194 7.33439 8.15274 7.21679 8.07594L6.75359 7.77114L10.2408 3.11514L10.8408 4.04634L11.5704 3.69834L10.0968 1.43994L1.32239 13.0559H2.79599L6.34559 8.31594Z" fill="currentColor"/>
<path d="M21.6288 22.5552L21.6216 21.9072L21.1344 19.6584L11.664 3.89038L11.1144 4.13758L20.784 20.352L21.1128 21.8976V22.5552H21.6288Z" fill="currentColor"/>
</g>
<defs>
<clipPath id="clip0_1422_1656">
<rect width="24" height="21.1152" fill="currentColor" transform="translate(0 1.43994)"/>
</clipPath>
</defs>
</svg>
