<svg width="24" height="24" viewBox="0 0 24 24" fill="currentColor" xmlns="http://www.w3.org/2000/svg">
<g clip-path="url(#clip0_1422_1909)">
<path d="M6.74641 19.0007C5.37361 19.0007 4.26001 20.1143 4.26001 21.4967C4.26001 22.8791 5.37361 23.9999 6.74641 23.9999C8.12161 23.9999 9.23521 22.8791 9.23521 21.4967C9.23521 20.1143 8.12161 19.0007 6.74641 19.0007ZM6.74641 22.6559C6.11041 22.6559 5.59441 22.1327 5.59441 21.4967C5.59441 20.8535 6.11281 20.3375 6.74641 20.3375C7.38241 20.3375 7.90081 20.8559 7.90081 21.4967C7.90081 22.1327 7.38241 22.6559 6.74641 22.6559Z" fill="currentColor"/>
<path d="M18.3263 20.4888C17.3615 20.4888 16.5791 21.2712 16.5791 22.2432C16.5791 23.2152 17.3615 24 18.3263 24C19.2935 24 20.0759 23.2128 20.0759 22.2432C20.0759 21.2712 19.2935 20.4888 18.3263 20.4888ZM18.3263 23.0568C17.8799 23.0568 17.5175 22.6896 17.5175 22.2432C17.5175 21.792 17.8799 21.4296 18.3263 21.4296C18.7727 21.4296 19.1351 21.792 19.1351 22.2432C19.1351 22.6896 18.7727 23.0568 18.3263 23.0568Z" fill="currentColor"/>
<path d="M21.4224 11.3568V10.0824V8.3616V1.6248C21.4224 0.7728 20.7336 0.0816 19.8888 0.0816L4.22635 0C3.38155 0 2.69275 0.6912 2.69275 1.5408V10.0416H2.70235V10.0848V11.3592H21.4224V11.3568ZM18.3696 1.0224L19.8888 1.0296C20.2152 1.0296 20.4816 1.296 20.4816 1.6248V8.364H18.3696V1.0224ZM13.1736 0.9888L17.4336 1.0224V4.5936H13.1736V0.9888ZM13.1736 5.5368H17.4336V8.364H13.1736V5.5368ZM9.81595 0.9792L12.2376 0.9864V4.5936H9.81595V0.9792ZM9.81595 5.5368H12.2376V9.1008H9.81595V5.5368ZM3.63355 1.5408C3.63355 1.212 3.89995 0.948 4.22635 0.948L8.87755 0.9768V4.5936H3.63355V1.5408ZM3.63355 5.5368H8.87755V9.1008H3.63355V5.5368Z" fill="currentColor"/>
<path d="M18.3264 19.6727C18.9 19.6727 19.428 19.8647 19.8552 20.1839V17.3351L15.8136 15.4487H4.26001V19.3247C4.86481 18.6287 5.75521 18.1847 6.74641 18.1847C8.56801 18.1847 10.0512 19.6703 10.0512 21.4967C10.0512 21.6623 10.0344 21.8207 10.0128 21.9791H15.7776C15.9096 20.6855 17.0016 19.6727 18.3264 19.6727Z" fill="currentColor"/>
<path d="M13.3799 12.0864H10.7351V14.7312H13.3799V12.0864Z" fill="currentColor"/>
</g>
<defs>
<clipPath id="clip0_1422_1909">
<rect width="18.7296" height="24" fill="currentColor" transform="translate(2.69275)"/>
</clipPath>
</defs>
</svg>
