<svg width="24" height="24" viewBox="0 0 24 24" fill="currentColor" xmlns="http://www.w3.org/2000/svg">
<g clip-path="url(#clip0_1431_3400)">
<path d="M4.6032 10.728C2.0616 10.728 0 12.7896 0 15.3456C0 17.904 2.0616 19.9752 4.6032 19.9752C7.1448 19.9752 9.204 17.904 9.204 15.3456C9.2016 12.7896 7.1448 10.728 4.6032 10.728ZM4.6032 17.4888C3.4272 17.4888 2.472 16.5288 2.472 15.3456C2.472 14.1576 3.4272 13.2048 4.6032 13.2048C5.7768 13.2048 6.7344 14.16 6.7344 15.3456C6.732 16.5288 5.7768 17.4888 4.6032 17.4888Z" fill="currentColor"/>
<path d="M22.0777 15.6216C21.5761 14.7288 20.6257 14.124 19.5337 14.124C18.1081 14.124 16.9201 15.156 16.6681 16.512C16.6369 16.6872 16.6177 16.8648 16.6177 17.0472C16.6177 18.6648 17.9281 19.9824 19.5337 19.9824C21.1417 19.9824 22.4497 18.6672 22.4497 17.0472C22.4497 16.5288 22.3129 16.044 22.0777 15.6216ZM19.5313 18.3312C18.8305 18.3312 18.2569 17.7576 18.2569 17.0472C18.2569 16.8552 18.3001 16.6752 18.3769 16.512C18.5785 16.0728 19.0201 15.7656 19.5313 15.7656C19.6921 15.7656 19.8457 15.7992 19.9873 15.852C20.4649 16.0368 20.8081 16.4976 20.8081 17.0472C20.8081 17.7576 20.2369 18.3312 19.5313 18.3312Z" fill="currentColor"/>
<path d="M7.45451 9.32882C6.81851 9.02642 6.12491 8.82242 5.39771 8.75762L5.59211 4.92482C5.59451 4.82402 5.63771 4.72802 5.71211 4.66082C5.78651 4.59122 5.88251 4.55522 5.99291 4.56242L7.44251 4.57682L7.76651 4.57922L12.2137 4.62722L12.5545 8.39522L12.1753 8.69042C12.1033 8.63042 12.0385 8.59202 11.9881 8.58002C11.7265 8.53682 11.4673 8.55122 11.3209 8.56562L11.3617 8.52722L11.2969 8.39522C11.3209 8.34962 11.3233 8.28962 11.3041 8.23682C11.2633 8.14322 11.2393 8.04242 11.2273 7.93922L11.4793 7.68242C11.5465 7.61522 11.5441 7.50722 11.4769 7.44002L11.4481 7.41362C11.3857 7.35602 11.2873 7.34882 11.2105 7.42082L9.83531 8.83202C9.79691 8.86322 9.77771 8.91362 9.78011 8.95682C9.78011 9.00242 9.79931 9.04562 9.83291 9.08162L9.85211 9.09842C9.88331 9.13442 9.92891 9.15122 9.97451 9.15122C10.0201 9.15122 10.0609 9.13442 10.0969 9.10082L10.4353 8.75522C10.4929 8.80322 10.5553 8.84882 10.6177 8.88962C10.6705 8.92562 10.7377 8.93042 10.7977 8.90402L10.9345 8.97122V8.96882L12.8785 11.9304L12.8809 11.9232L12.8833 11.9424H15.6193C15.6481 11.9424 16.3729 11.9496 16.9417 12.5376C17.1361 12.7368 17.5465 13.2144 18.0073 13.7544L18.0001 13.752C18.4657 13.5288 18.9841 13.4064 19.5313 13.4064C21.0289 13.4064 22.3153 14.3208 22.8697 15.6216H23.9977V13.1688H22.3441C22.3369 11.9016 22.3009 10.416 22.2049 9.75602C22.0249 8.55122 15.2689 8.33762 13.2505 8.18882L12.8641 3.91442L6.00971 3.84002C5.72171 3.83282 5.44091 3.93362 5.22731 4.13282C5.01611 4.33442 4.88891 4.60322 4.87931 4.89122L4.68251 8.73122C4.52171 8.73602 4.35851 8.74562 4.19531 8.76482C3.11531 8.88482 2.08571 9.29282 1.22171 9.94322C1.06331 10.0608 1.03211 10.2864 1.14971 10.4448C1.26971 10.6032 1.49051 10.6344 1.64891 10.5168C2.41211 9.94322 3.32171 9.58562 4.27691 9.47762C7.21451 9.15602 9.86411 11.2872 10.1857 14.2296C10.1857 14.2488 10.1953 14.268 10.2025 14.2872L10.6129 17.3112H12.4489V16.512H15.9481C16.1065 15.4536 16.7161 14.5416 17.5777 13.9848C17.1505 13.4832 16.7713 13.0464 16.5961 12.8664C16.1641 12.42 15.6169 12.4152 15.6145 12.4152H10.4353C10.3633 12.252 10.2841 12.0912 10.2001 11.9376H10.2025C9.64331 10.9008 8.79131 10.0608 7.77611 9.49682L7.45451 9.32882Z" fill="currentColor"/>
</g>
<defs>
<clipPath id="clip0_1431_3400">
<rect width="24" height="16.1424" fill="currentColor" transform="translate(0 3.84003)"/>
</clipPath>
</defs>
</svg>
