<svg width="24" height="24" viewBox="0 0 24 24" fill="currentColor" xmlns="http://www.w3.org/2000/svg">
<g clip-path="url(#clip0_1437_2173)">
<path d="M5.19131 12.9192C4.24091 12.9192 3.44891 13.6056 3.28091 14.5128C3.25931 14.628 3.24731 14.748 3.24731 14.8704C3.24731 15.948 4.12091 16.8264 5.19131 16.8264C6.26411 16.8264 7.13531 15.948 7.13531 14.8704C7.13531 14.5248 7.04411 14.2008 6.88811 13.92C6.55451 13.3224 5.92091 12.9192 5.19131 12.9192ZM5.19131 15.7248C4.72331 15.7248 4.34171 15.3432 4.34171 14.8704C4.34171 14.7432 4.37051 14.6232 4.42091 14.5128C4.55531 14.22 4.85051 14.016 5.19131 14.016C5.29931 14.016 5.40011 14.0376 5.49611 14.0736C5.81531 14.196 6.04331 14.5032 6.04331 14.8704C6.04331 15.3432 5.66171 15.7248 5.19131 15.7248Z" fill="currentColor"/>
<path d="M10.0199 12.9192C9.06953 12.9192 8.27753 13.6056 8.10953 14.5128C8.08793 14.628 8.07593 14.748 8.07593 14.8704C8.07593 15.948 8.94953 16.8264 10.0199 16.8264C11.0927 16.8264 11.9639 15.948 11.9639 14.8704C11.9639 14.5248 11.8727 14.2008 11.7167 13.92C11.3831 13.3224 10.7495 12.9192 10.0199 12.9192ZM10.0199 15.7248C9.55193 15.7248 9.17033 15.3432 9.17033 14.8704C9.17033 14.7432 9.19913 14.6232 9.24953 14.5128C9.38393 14.22 9.67913 14.016 10.0199 14.016C10.1279 14.016 10.2287 14.0376 10.3247 14.0736C10.6439 14.196 10.8719 14.5032 10.8719 14.8704C10.8719 15.3432 10.4903 15.7248 10.0199 15.7248Z" fill="currentColor"/>
<path d="M8.94714 12.9097L6.33594 12.9529C6.66474 13.1497 6.94314 13.4329 7.13754 13.7785C7.16634 13.8313 7.19274 13.8841 7.21674 13.9369L7.99914 13.9249C8.20074 13.4905 8.53674 13.1377 8.94714 12.9097Z" fill="currentColor"/>
<path d="M3.98636 12.9912L3.26636 13.0032L3.27836 13.7232C3.45356 13.4256 3.69836 13.176 3.98636 12.9912Z" fill="currentColor"/>
<path d="M20.304 11.7646L21.2064 11.491L21.0816 11.083L20.1096 11.3782C20.0976 11.3662 20.0856 11.3542 20.0736 11.3422C19.7232 11.0398 19.3032 10.6678 19.3032 10.6678L19.9776 8.43345L3.22077 8.97585L2.78397 8.22945L1.71597 7.94385L0.436768 14.239L0.719968 14.2318V14.9302H0.969568V14.227L2.17917 14.203L3.05037 12.5494L20.3112 12.247C20.3112 12.247 20.3544 12.0142 20.304 11.7646Z" fill="currentColor"/>
<path d="M1.4592 7.88884L1.02 7.78564L0 12.8016L0.4368 12.9048L1.4592 7.88884Z" fill="currentColor"/>
<path d="M22.5552 14.6207L20.9256 14.5223L20.9448 14.1887L19.7808 14.1239L19.7616 14.4527L19.3272 14.4263V13.7423L19.7112 13.7351L19.6968 13.9943L21.0168 14.0711L21.0216 13.9799L21.3792 14.0015L21.768 14.1191L21.7824 13.6727L21.3888 13.7447L21.036 13.7255L21.0552 13.3967L20.0328 13.3367L20.0232 12.7295L11.0256 12.8759C11.4144 13.0727 11.7432 13.3847 11.964 13.7783C11.9784 13.8047 11.9928 13.8335 12.0072 13.8599L15.3936 13.8047V15.0191H15.8064V14.7791L23.9592 15.3575L23.9976 14.9783L22.5552 14.6207ZM18.9144 14.4023L15.8064 14.2151V13.7999L16.9416 13.7807H18.9144V14.4023Z" fill="currentColor"/>
<path d="M19.9248 6.95996H19.7976L18.876 8.21756L19.9248 8.17196V6.95996Z" fill="currentColor"/>
</g>
<defs>
<clipPath id="clip0_1437_2173">
<rect width="24" height="9.8664" fill="currentColor" transform="translate(0 6.95996)"/>
</clipPath>
</defs>
</svg>
