<svg width="24" height="24" viewBox="0 0 24 24" fill="currentColor" xmlns="http://www.w3.org/2000/svg">
<g clip-path="url(#clip0_1539_975)">
<path d="M3.2759 17.1934C4.0559 17.1934 4.6895 17.827 4.6895 18.607C4.6895 19.387 4.0559 20.0206 3.2759 20.0206C2.4959 20.0206 1.8623 19.387 1.8623 18.607C1.8647 17.8246 2.4959 17.1934 3.2759 17.1934ZM2.6975 18.5902C2.6975 18.919 2.9639 19.1854 3.2927 19.1854C3.6215 19.1854 3.8879 18.919 3.8879 18.5902C3.8879 18.2614 3.6215 17.995 3.2927 17.995C2.9639 17.995 2.6975 18.2614 2.6975 18.5902Z" fill="currentColor"/>
<path d="M2.69043 10.1567V11.3807C2.69043 11.3807 4.57203 12.0071 4.66563 12.4151C4.75923 12.8231 4.75923 16.8047 4.75923 16.8047L5.10483 17.8703L7.89603 17.9039L7.80243 12.3527C7.80243 12.3527 7.86483 10.6271 6.92403 10.4399C5.98323 10.2527 3.16083 9.96946 3.16083 9.96946C3.16083 9.96946 2.69043 9.90226 2.69043 10.1567Z" fill="currentColor"/>
<path d="M2.75293 11.6924V14.3564H3.63373L3.63133 12.002L2.75293 11.6924Z" fill="currentColor"/>
<path d="M3.89534 12.48L3.88574 14.3568H4.23614L4.23134 12.4872L3.89534 12.48Z" fill="currentColor"/>
<path d="M21.3433 18.6694C21.6697 18.6694 21.9361 18.9358 21.9361 19.2622C21.9361 19.5886 21.6697 19.855 21.3433 19.855C21.0169 19.855 20.7505 19.5886 20.7505 19.2622C20.7481 18.9358 21.0145 18.6694 21.3433 18.6694ZM21.0985 19.255C21.0985 19.3918 21.2113 19.5046 21.3481 19.5046C21.4849 19.5046 21.5977 19.3918 21.5977 19.255C21.5977 19.1182 21.4849 19.0054 21.3481 19.0054C21.2113 19.0054 21.0985 19.1182 21.0985 19.255Z" fill="currentColor"/>
<path d="M24 18.6548L23.9784 18.2324L5.19363 18.2948L5.15283 18.6236L5.65443 19.094L20.6136 19.1156C20.6808 18.7748 20.9832 18.518 21.3432 18.518C21.7056 18.518 22.0056 18.7772 22.0728 19.1204L22.3128 19.1156L24 18.6548Z" fill="currentColor"/>
<path d="M4.1808 14.7862L2.5848 14.7982V15.1678L3.4344 15.1606L3.4416 15.631C3.4416 15.631 2.376 15.643 2.3592 15.643C2.268 15.6094 2.2032 15.5854 2.1072 15.5374C1.92 15.4438 1.92 15.2542 1.92 15.2542L1.8264 14.6902L1.8912 7.24778C1.9944 7.19018 2.076 7.09178 2.112 6.92618C2.112 6.92618 2.268 6.20378 1.9248 5.42138C1.5768 4.63658 1.3896 4.29338 1.2 4.10378C1.0104 3.91418 0.972 3.79898 0.5736 3.85418C0.0984 3.91898 0 3.83738 0 4.12058C0 4.40378 0.0408 4.38698 0.1656 4.70138C0.2904 5.01578 0.3528 5.17178 0.6048 5.61098C0.8568 6.05018 1.044 6.29978 1.044 6.61418C1.044 6.92858 0.888 7.20938 1.0752 7.24058C1.104 7.24538 1.1472 7.25498 1.1976 7.26698C1.1832 7.63418 1.104 9.80138 1.0752 10.8046C1.044 11.9014 1.092 14.9686 1.1064 15.1246C1.1256 15.319 1.176 15.5398 1.2672 15.631C1.3632 15.727 1.404 15.775 1.7016 16.0414C1.7352 16.0702 1.7376 16.1206 1.7664 16.1518C1.5192 16.2358 1.3392 16.3942 1.1784 16.7614C0.96 17.263 1.3728 18.7486 1.3728 18.7486L1.5672 18.487C1.6272 17.5966 2.3688 16.8886 3.276 16.8886C3.6168 16.8886 3.9336 16.9894 4.2 17.1598L4.1808 14.7862Z" fill="currentColor"/>
</g>
<defs>
<clipPath id="clip0_1539_975">
<rect width="24" height="16.1784" fill="currentColor" transform="translate(0 3.83984)"/>
</clipPath>
</defs>
</svg>
