<svg width="24" height="24" viewBox="0 0 24 24" fill="currentColor" xmlns="http://www.w3.org/2000/svg">
<g clip-path="url(#clip0_1413_2795)">
<path d="M3.276 17.1936C4.056 17.1936 4.6896 17.8272 4.6896 18.6072C4.6896 19.3872 4.056 20.0208 3.276 20.0208C2.496 20.0208 1.8624 19.3872 1.8624 18.6072C1.8648 17.8248 2.496 17.1936 3.276 17.1936ZM2.6976 18.5904C2.6976 18.9192 2.964 19.1856 3.2928 19.1856C3.6216 19.1856 3.888 18.9192 3.888 18.5904C3.888 18.2616 3.6216 17.9952 3.2928 17.9952C2.964 17.9952 2.6976 18.2616 2.6976 18.5904Z" fill="currentColor"/>
<path d="M2.57999 10.2L2.55119 11.3688L2.46719 16.5048C3.15359 16.3584 4.19999 17.1624 4.19999 17.1624L5.10479 17.8704L7.896 17.904L7.8024 12.3528C7.8024 12.3528 7.8648 10.6272 6.924 10.44C5.98319 10.2528 3.16079 9.9696 3.16079 9.9696C3.16079 9.9696 2.57999 9.9456 2.57999 10.2Z" fill="currentColor"/>
<path d="M21.3432 18.6697C21.6696 18.6697 21.936 18.9361 21.936 19.2625C21.936 19.5889 21.6696 19.8553 21.3432 19.8553C21.0168 19.8553 20.7504 19.5889 20.7504 19.2625C20.748 18.9361 21.0144 18.6697 21.3432 18.6697ZM21.0984 19.2553C21.0984 19.3921 21.2112 19.5049 21.348 19.5049C21.4848 19.5049 21.5976 19.3921 21.5976 19.2553C21.5976 19.1185 21.4848 19.0057 21.348 19.0057C21.2112 19.0057 21.0984 19.1185 21.0984 19.2553Z" fill="currentColor"/>
<path d="M24 18.6553L23.9784 18.2329L5.1936 18.2953L5.1528 18.6241L5.6544 19.0945L20.6136 19.1161C20.6808 18.7753 20.9832 18.5185 21.3432 18.5185C21.7056 18.5185 22.0056 18.7777 22.0728 19.1209L22.3128 19.1161L24 18.6553Z" fill="currentColor"/>
<path d="M4.1808 14.7864L2.5848 14.7984V15.168L3.4344 15.1608L3.4416 15.6312C3.4416 15.6312 2.376 15.6432 2.3592 15.6432C2.268 15.6096 2.2032 15.5856 2.1072 15.5376C1.92 15.444 1.92 15.2544 1.92 15.2544L1.8264 14.6904L1.8912 7.24803C1.9944 7.19043 2.076 7.09203 2.112 6.92643C2.112 6.92643 2.268 6.20403 1.9248 5.42163C1.5768 4.63683 1.3896 4.29363 1.2 4.10403C1.0104 3.91443 0.972 3.79923 0.5736 3.85443C0.0984 3.91923 0 3.83763 0 4.12083C0 4.40403 0.0408 4.38723 0.1656 4.70163C0.2904 5.01603 0.3528 5.17203 0.6048 5.61123C0.8568 6.05043 1.044 6.30003 1.044 6.61443C1.044 6.92883 0.888 7.20963 1.0752 7.24083C1.104 7.24563 1.1472 7.25523 1.1976 7.26723C1.1832 7.63443 1.104 9.80162 1.0752 10.8048C1.044 11.9016 1.092 14.9688 1.1064 15.1248C1.1256 15.3192 1.176 15.54 1.2672 15.6312C1.3632 15.7272 1.404 15.7752 1.7016 16.0416C1.7352 16.0704 1.7376 16.1208 1.7664 16.152C1.5192 16.236 1.3392 16.3944 1.1784 16.7616C0.96 17.2632 1.3728 18.7488 1.3728 18.7488L1.5672 18.4872C1.6272 17.5968 2.3688 16.8888 3.276 16.8888C3.6168 16.8888 3.9336 16.9896 4.2 17.16L4.1808 14.7864Z" fill="currentColor"/>
</g>
<defs>
<clipPath id="clip0_1413_2795">
<rect width="24" height="16.1784" fill="currentColor" transform="translate(0 3.84009)"/>
</clipPath>
</defs>
</svg>
