<svg width="24" height="24" viewBox="0 0 24 24" fill="currentColor" xmlns="http://www.w3.org/2000/svg">
<g clip-path="url(#clip0_1539_970)">
<path d="M4.83319 19.8673C4.83319 20.5993 4.24039 21.1921 3.50839 21.1921C2.77639 21.1921 2.18359 20.5993 2.18359 19.8673C2.18359 19.1353 2.77639 18.5425 3.50839 18.5425C4.24039 18.5425 4.83319 19.1353 4.83319 19.8673ZM3.49399 19.2961C3.18679 19.2961 2.93719 19.5457 2.93719 19.8529C2.93719 20.1601 3.18679 20.4097 3.49399 20.4097C3.80119 20.4097 4.05079 20.1601 4.05079 19.8529C4.05079 19.5457 3.80119 19.2961 3.49399 19.2961Z" fill="currentColor"/>
<path d="M2.48618 15.0747L3.57098 15.0915L3.65978 17.3043L3.25658 17.7747L3.23498 18.1107L2.33978 18.1131L2.34218 17.5707L2.57258 17.5635L2.57738 17.4099L1.51178 17.3859L1.35578 14.9091L1.00778 6.3123C1.00778 6.3123 0.326178 5.3331 0.143778 4.9947C-0.0386216 4.6563 -0.00742163 3.6723 0.0261784 3.4395C0.0693784 3.1347 0.222978 2.8755 0.448578 2.7747C0.645378 2.6859 0.813379 2.6331 1.24058 2.6403C1.78778 2.6499 1.70618 2.6403 1.93658 2.6907C2.28698 2.7699 2.37098 3.0507 2.47418 3.2859C2.57738 3.5211 2.60618 3.9603 2.60618 4.2483C2.60618 4.5339 2.63258 4.7163 2.37098 5.1603C2.10938 5.6043 1.64138 6.3339 1.64138 6.3339L2.13578 14.0499L2.48618 15.0747ZM1.57178 3.0315L1.55498 5.7483C1.55498 5.7483 2.05418 5.0283 2.12138 4.8867C2.18858 4.7451 2.27738 4.4307 2.22458 3.8811C2.17178 3.3339 2.03738 3.0315 1.57178 3.0315ZM0.436578 3.3435C0.398178 3.5139 0.398178 3.9867 0.398178 3.9867L0.986179 3.6339L0.993378 3.0267C0.647778 3.0243 0.474978 3.1755 0.436578 3.3435ZM0.959778 3.9075L0.438978 4.2195C0.438978 4.2195 0.419778 4.4235 0.465378 4.6755C0.510978 4.9275 1.17578 5.7723 1.17578 5.7723L1.17098 4.6395L0.954978 4.6443L0.959778 3.9075Z" fill="currentColor"/>
<path d="M22.7205 20.5346C22.7205 20.8658 22.4517 21.1346 22.1205 21.1346C21.7893 21.1346 21.5205 20.8658 21.5205 20.5346C21.5205 20.2034 21.7893 19.9346 22.1205 19.9346C22.4517 19.9346 22.7205 20.2034 22.7205 20.5346ZM22.1133 20.2754C21.9741 20.2754 21.8613 20.3882 21.8613 20.5274C21.8613 20.6666 21.9741 20.7794 22.1133 20.7794C22.2525 20.7794 22.3653 20.6666 22.3653 20.5274C22.3653 20.3882 22.2525 20.2754 22.1133 20.2754Z" fill="currentColor"/>
<path d="M3.12683 14.6763L3.11963 13.6947L4.48523 13.6851L5.37083 14.0499L8.31083 19.4331H21.8924H23.9852L23.9996 19.8291L23.7788 20.0787H22.9316C22.7708 19.7931 22.4684 19.5987 22.1204 19.5987C21.77 19.5987 21.47 19.7931 21.3092 20.0787H5.77403V19.4691L6.58043 19.4595L6.15083 18.6099C6.15083 18.6099 3.90923 17.8803 3.83003 17.6979C3.75083 17.5155 4.14203 17.3859 4.14203 17.3859L5.78363 17.7507L4.35083 14.6739H3.12683V14.6763Z" fill="currentColor"/>
</g>
<defs>
<clipPath id="clip0_1539_970">
<rect width="24" height="18.5544" fill="currentColor" transform="translate(0 2.64014)"/>
</clipPath>
</defs>
</svg>
