<svg width="24" height="24" viewBox="0 0 24 24" fill="currentColor" xmlns="http://www.w3.org/2000/svg">
<g clip-path="url(#clip0_1417_1208)">
<path d="M21.7368 18.5665C21.7368 17.8633 21.4032 17.5105 20.9832 17.2369C20.9832 17.2369 19.0344 16.4041 16.8168 16.4041H12.9888C12.9456 16.4041 12.9024 16.4113 12.8616 16.4233L0.595245 2.75286C0.470445 2.61366 0.254445 2.60166 0.112845 2.72646C-0.0263548 2.85126 -0.0383548 3.06726 0.0864452 3.20886L12.4968 17.0401C12.4992 17.0425 12.5016 17.0425 12.504 17.0449V20.1409H12.8496C12.8712 20.8033 13.4088 21.3337 14.0712 21.3337C14.736 21.3337 15.2736 20.8033 15.2928 20.1409H18.3096L17.8296 20.4121C17.8296 20.4625 17.844 20.5081 17.8704 20.5513C17.8968 20.7097 17.9928 20.8969 18.2712 21.0409L18.3672 20.8513C18.5328 20.8993 18.7248 20.9377 18.9288 20.9593L18.8808 21.2305C19.0656 21.2641 19.2624 21.2857 19.464 21.3001L19.4832 21.0073C19.6776 21.0145 19.8672 21.0193 20.0424 21.0217V21.3217L20.2296 21.3265C20.3688 21.3265 20.496 21.3217 20.604 21.3193L20.5992 21.0145C20.736 21.0145 20.8488 21.0097 20.9136 21.0097C20.9664 21.0097 21.0528 21.0145 21.1584 21.0145L21.1536 21.3193C21.2784 21.3193 21.4368 21.3241 21.6168 21.3241H21.6216H21.72V21.0241C21.8976 21.0193 22.0848 21.0169 22.2768 21.0097L22.2936 21.3073C22.4952 21.2953 22.692 21.2785 22.8768 21.2473L22.8312 20.9689C23.0328 20.9497 23.2224 20.9161 23.388 20.8753L23.4768 21.0865C23.8968 20.9113 23.9856 20.6473 23.9904 20.4529C23.9904 20.4385 23.9976 20.4265 23.9976 20.4121L21.7368 18.5665ZM14.0712 20.6761C13.7712 20.6761 13.5264 20.4409 13.5072 20.1433H14.6352C14.616 20.4409 14.3736 20.6761 14.0712 20.6761Z" fill="currentColor"/>
</g>
<defs>
<clipPath id="clip0_1417_1208">
<rect width="24" height="18.6984" fill="currentColor" transform="translate(0 2.64001)"/>
</clipPath>
</defs>
</svg>
