<svg width="24" height="24" viewBox="0 0 24 24" fill="currentColor" xmlns="http://www.w3.org/2000/svg">
<g clip-path="url(#clip0_1539_979)">
<path d="M7.55757 22.3442C7.10397 22.3442 6.73438 22.7138 6.73438 23.1722C6.73438 23.6306 7.10157 24.0002 7.55757 24.0002C8.01117 24.0002 8.38077 23.6282 8.38077 23.1722C8.38077 22.7162 8.01117 22.3442 7.55757 22.3442ZM7.55757 23.5538C7.34877 23.5538 7.17597 23.3834 7.17597 23.1698C7.17597 22.9586 7.34877 22.7882 7.55757 22.7882C7.76877 22.7882 7.93917 22.9586 7.93917 23.1698C7.93917 23.3834 7.76877 23.5538 7.55757 23.5538Z" fill="currentColor"/>
<path d="M19.543 8.39747H12.6958V4.20947H12.1006V8.71907C12.1006 8.91107 12.2566 9.06707 12.4486 9.06707H19.579L20.2174 8.41667L19.543 8.39747Z" fill="currentColor"/>
<path d="M18.4656 22.812H10.2456V7.764H10.8672V8.3448H11.508V0.1104L10.8672 0V4.7232L10.2456 4.7328V2.7984H9.0384V9.4056H7.764C7.6344 9.4032 6.972 9.4392 6.8448 10.4136C6.744 11.1864 6.696 11.5776 6.696 11.8224C6.696 12.0216 6.7344 12.3912 6.984 12.6312C7.128 12.7704 7.3152 12.8424 7.5384 12.8424H7.5792C7.9752 12.828 8.676 12.8352 9.0408 12.84V20.9976L8.70961 21.1584L8.72641 21.1296L8.7456 19.5192L7.764 19.524L7.5768 19.284L5.4096 14.0976C5.4096 14.0976 5.5584 13.4856 5.6328 13.1184C5.7072 12.7512 5.6472 12.6336 5.5776 12.4368C5.5104 12.24 5.388 11.9424 5.2608 11.8056C5.136 11.6688 5.0112 11.496 4.752 11.5248C4.5816 11.544 4.6392 11.532 4.26 11.6544C3.9648 11.7504 3.8616 11.8272 3.7488 11.9328C3.6168 12.0552 3.5736 12.2712 3.6144 12.4896C3.6456 12.6576 3.8568 13.3416 4.0632 13.5312C4.2696 13.7208 4.968 14.232 4.968 14.232L7.1592 19.8504L7.2456 21.1872L8.0232 21.2064L8.0208 21.3192L7.8528 21.324L7.8504 21.5736L6.8376 22.0632H9.1368V22.9296H9.1392V23.4912H18.4632L19.1112 22.8312L18.4656 22.812ZM10.2456 5.3616H10.8672V7.1496H10.2456V5.3616ZM4.0008 12.7776C4.0008 12.7776 3.888 12.4536 3.876 12.3264C3.8616 12.2016 3.9456 12.0576 4.1832 11.976L4.3224 12.396L4.0008 12.7776ZM4.2096 13.2384C4.1184 13.0752 4.0848 12.9312 4.0848 12.9312L4.3704 12.5928L4.5408 13.0992L4.6872 13.044L4.9584 13.824C4.9584 13.824 4.3008 13.4016 4.2096 13.2384ZM5.3976 12.9888C5.3856 13.1016 5.2104 13.7136 5.2104 13.7136L4.5816 11.8416C4.9008 11.7312 5.0664 11.9088 5.232 12.2736C5.3976 12.6384 5.4096 12.876 5.3976 12.9888ZM7.56 12.348C7.4544 12.3528 7.38 12.3264 7.3272 12.276C7.2264 12.18 7.1904 11.9784 7.1904 11.8224C7.1904 11.5992 7.2456 11.1648 7.3344 10.4784C7.4088 9.8976 7.7064 9.9 7.7448 9.9H9.0384V12.3432C8.6688 12.3408 7.9728 12.3336 7.56 12.348Z" fill="currentColor"/>
</g>
<defs>
<clipPath id="clip0_1539_979">
<rect width="16.6152" height="24" fill="currentColor" transform="translate(3.6001)"/>
</clipPath>
</defs>
</svg>
