<svg width="24" height="24" viewBox="0 0 24 24" fill="currentColor" xmlns="http://www.w3.org/2000/svg">
<g clip-path="url(#clip0_1437_1856)">
<path d="M7.25047 14.7432C6.48247 14.7432 5.84407 15.2976 5.70727 16.0296C5.69047 16.1232 5.67847 16.2192 5.67847 16.3176C5.67847 17.1888 6.38407 17.8992 7.24807 17.8992C8.11447 17.8992 8.81767 17.1912 8.81767 16.3176C8.81767 16.0392 8.74327 15.7776 8.61847 15.5496C8.35207 15.0696 7.83847 14.7432 7.25047 14.7432ZM7.25047 17.0088C6.87367 17.0088 6.56407 16.6992 6.56407 16.3176C6.56407 16.2144 6.58807 16.1184 6.62887 16.0296C6.73687 15.792 6.97447 15.6288 7.25047 15.6288C7.33687 15.6288 7.41847 15.6456 7.49527 15.6744C7.75207 15.7728 7.93687 16.0224 7.93687 16.3176C7.93927 16.7016 7.62967 17.0088 7.25047 17.0088Z" fill="currentColor"/>
<path d="M11.1528 14.7432C10.3848 14.7432 9.74641 15.2976 9.60961 16.0296C9.59281 16.1232 9.58081 16.2192 9.58081 16.3176C9.58081 17.1888 10.2864 17.8992 11.1504 17.8992C12.0168 17.8992 12.72 17.1912 12.72 16.3176C12.72 16.0392 12.6456 15.7776 12.5208 15.5496C12.2544 15.0696 11.7408 14.7432 11.1528 14.7432ZM11.1528 17.0088C10.776 17.0088 10.4664 16.6992 10.4664 16.3176C10.4664 16.2144 10.4904 16.1184 10.5312 16.0296C10.6392 15.792 10.8768 15.6288 11.1528 15.6288C11.2392 15.6288 11.3208 15.6456 11.3976 15.6744C11.6544 15.7728 11.8392 16.0224 11.8392 16.3176C11.8392 16.7016 11.532 17.0088 11.1528 17.0088Z" fill="currentColor"/>
<path d="M24 16.3104L22.9224 16.0416L22.2624 16.0008C21.9816 15.096 21.3336 15.1848 20.9424 15.24C20.8728 15.2496 20.8056 15.2592 20.7528 15.2616C20.5992 15.2688 20.5056 15.2448 20.4048 15.2184C20.3016 15.192 20.196 15.1656 20.0376 15.18V14.964H15.42L13.8624 13.2888L13.7232 13.404L12.8736 12.4896L18.9408 11.124L17.7888 6L0 10.0032L1.1544 15.1296L12.6 12.5544L13.5192 13.5504L13.3968 13.6776L14.5704 14.9688H12.4584C12.588 15.096 12.7008 15.24 12.792 15.4032C12.8784 15.5568 12.9408 15.72 12.9792 15.8904H18.348V16.1688L21.4368 16.404L21.6672 16.8L21.7104 16.7784L21.8976 17.1048L21.4968 17.5056H21.384C21.2472 17.5056 21.1368 17.616 21.1368 17.7528V17.8368C21.1368 17.8752 21.168 17.9088 21.2088 17.9088H21.9768C22.0104 17.9088 22.0368 17.8824 22.0368 17.8488V17.7432C22.0368 17.688 21.912 17.6112 21.7944 17.5584L22.5456 16.8072C22.6296 16.8288 22.7616 16.8576 22.9152 16.8576C23.1432 16.8576 23.412 16.7976 23.6232 16.5696L23.9712 16.596L24 16.3104ZM20.8392 15.9168L20.5152 15.8976V15.492H20.2056L20.0376 15.4872V15.324C20.1768 15.3096 20.268 15.3336 20.3688 15.3576C20.4696 15.384 20.5872 15.4128 20.76 15.4032C20.82 15.4008 20.8896 15.3912 20.964 15.3792C21.3648 15.3216 21.8544 15.2616 22.1064 15.9888L21.708 15.9648L21.7224 15.7152L20.8536 15.6672L20.8392 15.9168ZM21.7704 16.752L21.7632 16.7496L21.8088 16.7256L21.6384 16.4256L21.6504 16.4328L21.6312 16.4136L22.5168 16.4808L21.9432 17.0544L21.7704 16.752ZM22.6656 16.6872L22.8456 16.5072L23.424 16.5504C23.172 16.7448 22.8552 16.7256 22.6656 16.6872Z" fill="currentColor"/>
<path d="M8.90635 14.9663H8.55835C8.68795 15.0935 8.80075 15.2375 8.89195 15.4007C8.97835 15.5543 9.04075 15.7175 9.07915 15.8879H9.32395C9.40795 15.5279 9.59275 15.2111 9.84235 14.9663H8.90635Z" fill="currentColor"/>
<path d="M3.07446 14.9663V15.8879H5.42406C5.50806 15.5279 5.69286 15.2111 5.94246 14.9663H3.07446Z" fill="currentColor"/>
</g>
<defs>
<clipPath id="clip0_1437_1856">
<rect width="24" height="11.9064" fill="currentColor" transform="translate(0 6)"/>
</clipPath>
</defs>
</svg>
