<svg width="24" height="24" viewBox="0 0 24 24" fill="currentColor" xmlns="http://www.w3.org/2000/svg">
<g clip-path="url(#clip0_1433_1469)">
<path d="M24.0001 12.6096H22.3513V12.36H22.0993L16.9417 6.90957V6.71997H16.3921H6.22811H5.68091V13.2696H6.22811H6.83771C7.06571 15.54 8.98091 17.3112 11.3113 17.3112C13.6417 17.3112 15.5569 15.54 15.7849 13.2696H16.3921H16.9393H19.0777V16.9776H18.5209V17.3136H19.9825V16.9776H19.5049V13.2696H22.3489V13.0056H24.0001V12.6096ZM7.50971 12.36C7.73531 10.4592 9.34811 8.98557 11.3113 8.98557C13.2721 8.98557 14.8873 10.4592 15.1129 12.36H7.50971ZM11.3113 16.644C9.35051 16.644 7.73531 15.1704 7.50971 13.2696H15.1105C14.8873 15.1704 13.2721 16.644 11.3113 16.644ZM15.7849 12.36C15.5569 10.0896 13.6417 8.31837 11.3113 8.31837C8.98091 8.31837 7.06571 10.0896 6.83771 12.36H6.22811V7.62957H16.3921V12.36H15.7849ZM19.0801 11.7456V12.36H16.9417V7.70637L21.3457 12.36H19.5073V11.7456H19.0801Z" fill="currentColor"/>
<path d="M4.74 8.21284L3.5904 10.9944L3.4104 10.9176L2.4312 13.1688C2.316 13.1496 2.1984 13.1352 2.0784 13.1352C1.0632 13.1352 0.216 13.8696 0.036 14.8368C0.0144 14.9616 0 15.0888 0 15.2184C0 16.3728 0.9336 17.3088 2.0784 17.3088C3.2256 17.3088 4.1568 16.3704 4.1568 15.2184C4.1568 15.0936 4.1424 14.9712 4.1208 14.8512L5.46 14.3304L5.4552 14.3184H5.4912V7.77124H4.74V8.21284ZM4.0104 11.1744L3.876 11.1168L4.74 9.03364V13.8072L3.8592 14.1504C3.6648 13.8264 3.3864 13.5624 3.0552 13.3848L4.0104 11.1744ZM2.0784 16.1328C1.5792 16.1328 1.1688 15.7248 1.1688 15.2184C1.1688 15.0816 1.2 14.9544 1.2528 14.8368C1.3968 14.5248 1.7112 14.304 2.076 14.304C2.1912 14.304 2.2992 14.328 2.4 14.3664C2.7408 14.4984 2.9856 14.8272 2.9856 15.2184C2.988 15.7248 2.58 16.1328 2.0784 16.1328Z" fill="currentColor"/>
<path d="M19.476 11.1023H17.928V11.4575H19.476V11.1023Z" fill="currentColor"/>
<path d="M18.2231 10.6344C18.2231 10.5696 18.1703 10.5168 18.1055 10.5168H18.0575C17.9927 10.5168 17.9399 10.5696 17.9399 10.6344V10.9608H18.2231V10.6344Z" fill="currentColor"/>
<path d="M10.1975 12.1488H12.4271V11.5032H10.1975V12.1488ZM11.7407 11.6544C11.8319 11.6544 11.9063 11.7288 11.9063 11.82C11.9063 11.9112 11.8319 11.9856 11.7407 11.9856C11.6495 11.9856 11.5751 11.9112 11.5751 11.82C11.5727 11.7288 11.6471 11.6544 11.7407 11.6544ZM10.8815 11.6544C10.9727 11.6544 11.0471 11.7288 11.0471 11.82C11.0471 11.9112 10.9727 11.9856 10.8815 11.9856C10.7903 11.9856 10.7159 11.9112 10.7159 11.82C10.7159 11.7288 10.7903 11.6544 10.8815 11.6544Z" fill="currentColor"/>
<path d="M12.4249 13.4712H10.1953V14.1168H12.4249V13.4712ZM10.8817 13.9608C10.7905 13.9608 10.7161 13.8864 10.7161 13.7952C10.7161 13.704 10.7905 13.6296 10.8817 13.6296C10.9729 13.6296 11.0473 13.704 11.0473 13.7952C11.0497 13.8864 10.9753 13.9608 10.8817 13.9608ZM11.7409 13.9608C11.6497 13.9608 11.5753 13.8864 11.5753 13.7952C11.5753 13.704 11.6497 13.6296 11.7409 13.6296C11.8321 13.6296 11.9065 13.704 11.9065 13.7952C11.9065 13.8864 11.8321 13.9608 11.7409 13.9608Z" fill="currentColor"/>
</g>
<defs>
<clipPath id="clip0_1433_1469">
<rect width="24" height="10.5936" fill="currentColor" transform="translate(0 6.71997)"/>
</clipPath>
</defs>
</svg>
