<svg width="24" height="24" viewBox="0 0 24 24" fill="currentColor" xmlns="http://www.w3.org/2000/svg">
<g clip-path="url(#clip0_1538_751)">
<path d="M10.8072 13.3632C11.292 13.0608 11.7312 12.6912 12.1128 12.2664L13.4856 13.0584L14.7336 10.896L13.3656 10.1064C13.5408 9.57597 13.6416 9.01197 13.6608 8.42637L15.2184 8.15277L14.784 5.69277L13.2264 5.96637C13.0104 5.43357 12.7224 4.93677 12.372 4.49037L13.3896 3.27837L11.4768 1.67277L10.4592 2.88477C9.9624 2.61837 9.4248 2.41917 8.8584 2.29917V0.719971H6.36V2.30157C5.7936 2.42157 5.256 2.62077 4.7592 2.88717L3.7416 1.67517L1.8288 3.28077L2.8464 4.49277C2.496 4.93917 2.208 5.43357 1.992 5.96877L0.4344 5.69517L0 8.15277L1.5576 8.42637C1.5768 9.00957 1.68 9.57357 1.8528 10.1064L0.4848 10.896L1.7328 13.0584L3.1056 12.2664C3.4848 12.6888 3.924 13.0584 4.4088 13.3632L3.8664 14.8512L6.2136 15.7056L6.7536 14.22C7.032 14.2584 7.3176 14.28 7.6056 14.28C7.896 14.28 8.1792 14.2584 8.4576 14.22L8.9976 15.7056L11.3448 14.8512L10.8072 13.3632ZM7.608 11.4168C5.8488 11.4168 4.4184 9.98637 4.4184 8.22717C4.4184 6.46797 5.8488 5.03757 7.608 5.03757C9.3672 5.03757 10.7976 6.46797 10.7976 8.22717C10.7976 9.98397 9.3672 11.4168 7.608 11.4168Z" fill="currentColor"/>
<path d="M21.5446 15.24L20.467 15.588C20.2606 15.2304 20.0086 14.9088 19.7158 14.6256L20.3182 13.6656L18.8038 12.7152L18.2014 13.6752C17.8222 13.536 17.4214 13.4472 17.0086 13.4184L16.8526 12.2976L15.0814 12.5448L15.2374 13.6656C14.8462 13.8072 14.4862 14.0016 14.1598 14.2392L13.3198 13.4808L12.1222 14.808L12.9646 15.5688C12.7606 15.9192 12.6046 16.2984 12.5062 16.6992L11.3758 16.6584L11.311 18.4464L12.4414 18.4872C12.5134 18.9 12.6406 19.2888 12.8182 19.6488L11.9254 20.3448L13.0246 21.756L13.9198 21.06C14.2318 21.3216 14.5798 21.54 14.9518 21.708L14.7142 22.8168L16.4638 23.1912L16.6966 22.08C16.8982 22.08 17.1022 22.068 17.3062 22.0392C17.5126 22.0104 17.7118 21.9672 17.9038 21.912L18.4342 22.9128L20.0134 22.0752L19.483 21.0744C19.7974 20.8128 20.071 20.5056 20.299 20.1696L21.3502 20.5968L22.0222 18.9384L20.9734 18.5136C21.043 18.12 21.0622 17.7096 21.0166 17.2944L22.0942 16.9464L21.5446 15.24ZM17.023 20.0064C15.775 20.1792 14.6206 19.308 14.4454 18.06C14.2702 16.812 15.1438 15.6576 16.3918 15.4824C17.6398 15.3096 18.7942 16.1808 18.9694 17.4288C19.1446 18.6768 18.271 19.8336 17.023 20.0064Z" fill="currentColor"/>
<path d="M23.9593 9.04319L24.0001 7.63199L23.1073 7.60559C23.0521 7.29359 22.9513 6.98639 22.8049 6.69119L23.5057 6.13679L22.6297 5.03039L21.9289 5.58479C21.6793 5.37599 21.4033 5.20799 21.1081 5.08079L21.2905 4.20479L19.9081 3.91919L19.7257 4.79519C19.4065 4.79519 19.0873 4.84079 18.7729 4.93439L18.3505 4.14719L17.1073 4.81679L17.5297 5.60399C17.2801 5.81519 17.0641 6.05759 16.8889 6.32399L16.0585 5.99279L15.5353 7.30559L16.3657 7.63679C16.3105 7.95119 16.3009 8.27519 16.3369 8.59919L15.4873 8.87999L15.9313 10.2216L16.7809 9.94079C16.9465 10.2264 17.1481 10.4784 17.3785 10.6968L16.9081 11.4576L18.1081 12.1992L18.5785 11.4384C18.8809 11.5464 19.2001 11.6136 19.5217 11.6352L19.6513 12.5208L21.0481 12.3168L20.9185 11.4336C21.0673 11.3784 21.2137 11.3136 21.3577 11.2344C21.5017 11.1576 21.6385 11.0712 21.7657 10.9752L22.4329 11.5704L23.3713 10.5168L22.7041 9.92159C22.8649 9.64079 22.9825 9.33839 23.0593 9.02639L23.9593 9.04319ZM20.5945 9.79919C19.7185 10.2696 18.6241 9.94079 18.1513 9.06719C17.6809 8.19119 18.0073 7.09679 18.8833 6.62399C19.7593 6.15359 20.8537 6.48239 21.3265 7.35599C21.7969 8.23199 21.4705 9.32879 20.5945 9.79919Z" fill="currentColor"/>
</g>
<defs>
<clipPath id="clip0_1538_751">
<rect width="24" height="22.4664" fill="currentColor" transform="translate(0 0.719971)"/>
</clipPath>
</defs>
</svg>
