<svg width="24" height="24" viewBox="0 0 24 24" fill="currentColor" xmlns="http://www.w3.org/2000/svg">
<g clip-path="url(#clip0_1422_882)">
<path d="M0.732 16.5313C0.6552 17.2273 0.2496 17.6113 0.2496 17.6113C0.2496 17.6113 0.1032 17.4937 0 17.3905C0.7896 16.2697 0.0168 15.0649 0.0168 15.0649L0.312 14.8849C0.5496 15.2881 0.6696 15.6505 0.7176 15.9697L1.2648 15.7225L1.2552 16.2961L0.732 16.5313Z" fill="currentColor"/>
<path d="M4.19763 15.8425C4.00083 15.7753 3.79203 15.7321 3.57363 15.7321C2.48883 15.7321 1.60803 16.6129 1.60803 17.7049C1.60803 17.9137 1.64883 18.1105 1.70883 18.3001C1.96563 19.0969 2.70003 19.6801 3.57603 19.6801C4.66083 19.6801 5.53923 18.7945 5.53923 17.7049C5.53683 16.8313 4.97523 16.1041 4.19763 15.8425ZM3.57603 18.6169C3.07443 18.6169 2.66643 18.2089 2.66643 17.7049C2.66643 17.1985 3.07443 16.7905 3.57603 16.7905C4.07763 16.7905 4.48563 17.1985 4.48563 17.7049C4.48323 18.2065 4.07523 18.6169 3.57603 18.6169Z" fill="currentColor"/>
<path d="M13.8792 15.8425C13.6824 15.7753 13.4735 15.7321 13.2551 15.7321C12.1704 15.7321 11.2896 16.6129 11.2896 17.7049C11.2896 17.9137 11.3304 18.1105 11.3904 18.3001C11.6448 19.0993 12.3792 19.6825 13.2551 19.6825C14.3399 19.6825 15.2183 18.7969 15.2183 17.7073C15.2183 16.8313 14.6544 16.1041 13.8792 15.8425ZM13.2551 18.6169C12.7536 18.6169 12.3455 18.2089 12.3455 17.7049C12.3455 17.1985 12.7536 16.7905 13.2551 16.7905C13.7567 16.7905 14.1647 17.1985 14.1647 17.7049C14.1647 18.2065 13.7567 18.6169 13.2551 18.6169Z" fill="currentColor"/>
<path d="M12.2136 10.3225L12.372 10.6537L12.6264 10.5073L12.3744 10.2145L12.2136 10.3225Z" fill="currentColor"/>
<path d="M12.5424 9.86644C12.5136 9.82324 12.456 9.81124 12.4104 9.84004L11.796 10.2432C11.7528 10.272 11.7408 10.3296 11.7696 10.3752C11.7888 10.404 11.8176 10.4184 11.8488 10.4184C11.8656 10.4184 11.8848 10.4136 11.9016 10.404L12.516 10.0008C12.5592 9.96724 12.5712 9.90964 12.5424 9.86644Z" fill="currentColor"/>
<path d="M12.2855 15.5377H4.59595C5.40715 15.9073 5.94715 16.7017 5.98555 17.5993H10.9103C10.9487 16.6873 11.5007 15.9049 12.2855 15.5377Z" fill="currentColor"/>
<path d="M15.2159 16.3057V15.5377H14.2751C14.6567 15.7129 14.9783 15.9793 15.2159 16.3057Z" fill="currentColor"/>
<path d="M2.60636 15.5377H1.65356V16.3393C1.89356 15.9961 2.22236 15.7177 2.60636 15.5377Z" fill="currentColor"/>
<path d="M2.28723 10.5265H5.60163V10.0009C5.60163 9.89528 5.51763 9.81128 5.41203 9.81128H2.47683C2.37123 9.81128 2.28723 9.89528 2.28723 10.0009V10.5265Z" fill="currentColor"/>
<path d="M2.09758 10.8241H6.11518V14.0305H13.6464V14.7625H6.11518H5.33758H1.55518V11.3641C1.55518 11.0665 1.79758 10.8241 2.09758 10.8241Z" fill="currentColor"/>
<path d="M12.7872 7.87929C12.7344 7.60089 12.492 7.39929 12.2088 7.39929H6.97202C6.70562 7.39929 6.48962 7.61529 6.48962 7.88169V13.6561H13.6488V11.9761L12.7872 7.87929ZM10.0992 8.03769C10.4112 8.03769 11.6232 8.03769 12.0456 8.03769C12.4656 8.03769 12.4656 8.28729 12.5424 8.65929C12.5904 8.88489 12.7176 9.66729 12.84 10.5649L12.4704 10.7929H9.71522C9.67443 9.85929 9.63363 8.82729 9.63363 8.58249C9.63122 8.11449 9.78723 8.03769 10.0992 8.03769ZM8.97842 10.5121C8.15282 10.4353 7.62482 10.0609 7.62482 10.0609V8.13129H8.99522L8.97842 10.5121ZM10.7064 13.1737C10.0056 13.0969 9.78722 12.4273 9.78722 12.4273C9.78722 12.4273 9.76083 11.8657 9.72963 11.1673H12.1488L12.7944 12.5305C12.4944 12.8545 12.4632 13.3321 12.4632 13.3321C12.4344 13.3297 11.4072 13.2505 10.7064 13.1737Z" fill="currentColor"/>
<path d="M6.87848 15.2682L10.5049 15.2682L10.5049 14.9562L6.87848 14.9562L6.87848 15.2682Z" fill="currentColor"/>
<path d="M7.6272 6.08166V7.10646C7.6272 7.10646 20.508 7.16646 21.2688 7.19766L20.868 14.1025L20.844 14.2177L20.6808 14.1913L20.4264 14.2945L18.5376 14.2033L18.564 13.9849L17.6952 13.8601L17.6616 14.1433L16.8528 13.5169L16.08 13.6657L16.512 14.3137L16.8456 14.8609L17.8848 16.5313C17.8848 16.5313 18.1344 16.8481 18.5808 16.9897C19.0272 17.1313 19.7592 17.4841 20.232 17.2297C20.7048 16.9753 20.9448 16.8049 21.0144 16.5937C21.084 16.3801 21.0432 16.1545 21.168 16.0369C21.2928 15.9193 21.2496 15.9145 21.5328 15.9481C21.816 15.9817 21.768 16.0201 21.828 15.8737C21.8904 15.7273 21.9144 15.5089 21.9144 15.5089L22.8408 14.4937L22.872 14.5177C22.872 14.5177 23.328 14.3953 22.9704 14.0641C22.6776 13.7953 22.0296 13.3393 21.7968 13.1785C22.2264 11.8393 22.9848 9.47286 23.3952 8.15526L22.8384 11.6401L22.9416 11.6977L22.6152 13.5937L22.8984 13.8049L23.2224 11.7553L23.3568 11.7481L23.976 7.26966L23.8176 6.71046C23.94 6.27126 24.0408 5.88006 23.9784 5.74566C23.8896 5.55846 23.7768 5.01366 23.6568 4.73526C23.5512 4.49046 23.2848 4.59846 23.1552 4.66566C22.7064 4.40886 22.5504 4.73526 22.5504 4.73526L19.2504 4.80726L19.2384 4.71846L13.824 4.56006L13.74 4.70406C13.74 4.70406 13.5216 4.67766 13.368 4.68246C13.212 4.68726 13.1376 4.76646 12.8928 4.78086C12.6936 4.79286 12.5064 4.98006 12.4416 5.04966C12.0504 5.10246 11.6184 5.19606 11.2032 5.34966H8.3568C7.9536 5.34966 7.6272 5.67846 7.6272 6.08166ZM21.4776 14.1745C21.4776 14.1745 21.5496 13.9513 21.6672 13.5865L22.4448 14.1841L22.0488 14.7697L21.5688 14.3377L21.5064 14.3281L21.4776 14.1745ZM14.7984 5.14566L19.2672 5.26086L19.284 5.11926L22.4592 4.98726L22.4472 5.12406C22.3992 5.15526 22.3704 5.17446 22.3704 5.17446L21.6672 6.07446C21.4272 5.98806 21.2112 5.92086 21.192 5.91846C20.9016 5.87286 20.592 6.00246 20.2992 5.96646C20.0736 5.94246 16.572 5.40966 14.7984 5.14566Z" fill="currentColor"/>
</g>
<defs>
<clipPath id="clip0_1422_882">
<rect width="24" height="15.12" fill="currentColor" transform="translate(0 4.56006)"/>
</clipPath>
</defs>
</svg>
