<svg width="24" height="24" viewBox="0 0 24 24" fill="currentColor" xmlns="http://www.w3.org/2000/svg">
<g clip-path="url(#clip0_1422_886)">
<path d="M15.9792 21.2664C16.0872 22.248 16.6608 22.7904 16.6608 22.7904C16.6608 22.7904 16.8672 22.6248 17.0112 22.4832C15.8976 20.9016 16.9872 19.2 16.9872 19.2L16.572 18.948C16.236 19.5168 16.068 20.028 15.9984 20.4792L15.2256 20.1312L15.24 20.94L15.9792 21.2664Z" fill="currentColor"/>
<path d="M15.3144 22.4207C15.2472 21.7823 14.7648 21.2711 14.1432 21.1679C14.0664 21.1535 13.9896 21.1439 13.9104 21.1439H1.90078C1.11598 21.1439 0.47998 21.7847 0.47998 22.5695C0.47998 23.3591 1.11598 23.9999 1.90078 23.9999H13.908C14.6904 23.9999 15.3288 23.3591 15.3288 22.5695C15.3288 22.5191 15.3216 22.4687 15.3144 22.4207ZM1.90078 23.3879C1.45198 23.3879 1.08958 23.0207 1.08958 22.5719C1.08958 22.1231 1.45438 21.7559 1.90078 21.7559C2.34718 21.7559 2.71198 22.1231 2.71198 22.5719C2.71198 23.0207 2.34718 23.3879 1.90078 23.3879ZM13.908 23.3879C13.4616 23.3879 13.0992 23.0207 13.0992 22.5719C13.0992 22.1231 13.4616 21.7559 13.908 21.7559C14.3568 21.7559 14.7192 22.1231 14.7192 22.5719C14.7216 23.0207 14.3568 23.3879 13.908 23.3879Z" fill="currentColor"/>
<path d="M2.10718 19.7184H6.79438V15.5592H2.31598C2.20078 15.5592 2.10718 15.6528 2.10718 15.768V19.7184Z" fill="currentColor"/>
<path d="M11.1216 19.6943H7.224V15.7727H10.128C10.6776 15.7727 11.1216 16.2167 11.1216 16.7663V19.6943Z" fill="currentColor"/>
<path d="M14.5632 17.6616H11.5752V19.6944H14.5632V17.6616Z" fill="currentColor"/>
<path d="M7.18563 14.5056C7.19523 14.328 7.18563 14.1216 7.12803 13.932C6.98883 13.4856 6.68163 13.0944 6.59763 12.7608C6.51363 12.4272 6.59283 12.156 6.36723 12.156C6.18963 12.156 6.18003 12.2592 6.18003 12.288C6.18003 12.3072 6.18003 13.6464 6.18003 14.508H2.82483V15.1152H6.77043H7.21683V15.3312H7.84323C9.32643 15.3312 10.6056 16.2096 11.196 17.4744H11.364V14.5056H7.18563Z" fill="currentColor"/>
<path d="M3.47034 14.124L3.82794 11.112C3.82794 11.112 3.73194 9.98877 5.16714 9.98877C6.60234 9.98877 9.92634 9.98877 9.92634 9.98877C9.92634 9.98877 11.0015 10.0848 11.0495 11.064C11.0975 12.0432 11.1935 14.076 11.1935 14.076" stroke="currentColor" stroke-miterlimit="10"/>
<path d="M3.82321 8.8103H4.35841C4.40881 8.8103 4.44961 8.8511 4.44961 8.9015V9.6815H3.72961V8.9015C3.73201 8.8511 3.77281 8.8103 3.82321 8.8103Z" fill="currentColor"/>
<path d="M4.18797 9.61682H3.98157V10.3944H4.18797V9.61682Z" fill="currentColor"/>
<path d="M14.5464 20.0712H3.69116V20.6928H14.5464V20.0712Z" fill="currentColor"/>
<path d="M22.8 14.2248L22.9392 12.3264L23.0616 12.3096L23.5848 2.41676L23.3976 1.91756C23.4768 1.50716 23.5392 1.13996 23.472 1.02476C23.376 0.859161 23.232 0.371961 23.1 0.124761C22.9848 -0.0912386 22.7496 0.0287614 22.6368 0.100761C22.2048 -0.0984386 22.0896 0.211161 22.0896 0.211161L22.0608 0.213561L22.02 0.304761L19.2912 2.48396L19.2312 2.41916L15.7728 4.80956L15.8064 4.96316C15.8064 4.96316 15.6552 5.04476 15.5616 5.11916C15.468 5.19356 15.468 5.29196 15.324 5.41676C15.2088 5.51756 15.1992 5.75276 15.2016 5.83916C14.9904 6.06236 14.7768 6.33836 14.6088 6.65276L12.8424 7.97276C12.5904 8.15996 12.5808 8.57036 12.8184 8.88956L12.9792 9.10316V17.2056H14.4384V8.94956C14.5896 8.83916 14.7504 8.71916 14.9256 8.58956V13.3824H14.7816V18.84L15.4872 18.3576V13.38H15.3432V8.27996C15.3936 8.24156 15.444 8.20556 15.4968 8.16716C15.7128 8.00876 15.9408 7.84076 16.1736 7.66796C17.8704 6.41756 19.9344 4.89836 21.0888 4.05836L20.9688 14.6544L20.9544 14.7624L20.8032 14.7504L20.5776 14.8632L18.8424 14.9232L18.8496 14.7216L18.0456 14.6736L18.036 14.9352L17.2488 14.424L16.5576 14.6208L17.0016 15.18L17.3472 15.6552L18.4248 17.1024C18.4248 17.1024 18.6768 17.3736 19.0968 17.4672C19.5168 17.5632 20.2128 17.8272 20.6232 17.5608C21.036 17.292 21.2424 17.1192 21.2904 16.92C21.3384 16.7208 21.2832 16.5168 21.3888 16.3992C21.4944 16.2816 21.4536 16.2816 21.7152 16.2888C21.9768 16.2984 21.936 16.3368 21.9792 16.1976C22.0248 16.0584 22.032 15.8568 22.032 15.8568L22.8 14.8608L22.8312 14.88C22.8312 14.88 23.2392 14.7336 22.8864 14.46C22.5984 14.2368 21.9696 13.8696 21.7464 13.74C22.0368 12.4824 22.5528 8.95676 22.8264 7.72316L22.5792 12.2544L22.6776 12.2976L22.524 14.0544L22.8 14.2248ZM13.6752 8.78396C13.4784 8.78396 13.3176 8.62316 13.3176 8.42636C13.3176 8.22956 13.4784 8.06876 13.6752 8.06876C13.872 8.06876 14.0328 8.22956 14.0328 8.42636C14.0328 8.62556 13.872 8.78396 13.6752 8.78396ZM20.6232 2.91356C20.4696 2.99756 17.9784 4.20236 16.7208 4.81676L19.5648 2.83436L19.4928 2.71436L21.8808 0.739161L21.696 1.02236L21.0024 2.56316H21.0048C20.8752 2.68076 20.772 2.83436 20.6232 2.91356ZM22.4112 14.6088L22.0944 15.1752L21.624 14.8176L21.5664 14.8128L21.528 14.6736C21.528 14.6736 21.576 14.4648 21.6552 14.1216L22.4112 14.6088Z" fill="currentColor"/>
</g>
<defs>
<clipPath id="clip0_1422_886">
<rect width="23.1048" height="24" fill="currentColor" transform="translate(0.47998)"/>
</clipPath>
</defs>
</svg>
