<svg width="24" height="24" viewBox="0 0 24 24" fill="currentColor" xmlns="http://www.w3.org/2000/svg">
<g clip-path="url(#clip0_1421_1997)">
<path d="M19.3272 17.808C19.3272 19.08 20.352 20.112 21.6144 20.112C22.6344 20.112 23.4912 19.4328 23.7864 18.5016C23.856 18.2832 23.904 18.0504 23.904 17.808C23.904 16.536 22.8768 15.5088 21.6144 15.5088C21.36 15.5088 21.1176 15.5592 20.8872 15.6384C19.9824 15.9432 19.3272 16.7928 19.3272 17.808ZM20.5536 17.808C20.5536 17.2176 21.0288 16.7424 21.6144 16.7424C22.2 16.7424 22.6752 17.2176 22.6752 17.808C22.6752 18.396 22.2 18.8712 21.6144 18.8712C21.0312 18.8712 20.5536 18.396 20.5536 17.808Z" fill="currentColor"/>
<path d="M1.97279 17.808C1.97279 19.08 2.99759 20.112 4.25999 20.112C5.27999 20.112 6.13679 19.4328 6.43199 18.5016C6.50159 18.2832 6.54959 18.0504 6.54959 17.808C6.54959 16.536 5.52239 15.5088 4.25999 15.5088C4.00559 15.5088 3.76319 15.5592 3.53279 15.6384C2.62799 15.9432 1.97279 16.7928 1.97279 17.808ZM3.20159 17.808C3.20159 17.2176 3.67679 16.7424 4.26239 16.7424C4.84799 16.7424 5.32319 17.2176 5.32319 17.808C5.32319 18.396 4.84799 18.8712 4.26239 18.8712C3.67679 18.8712 3.20159 18.396 3.20159 17.808Z" fill="currentColor"/>
<path d="M16.9392 11.189H12.7176V17.105H16.764C16.9008 17.105 17.22 17.0618 17.22 16.6682V16.5626H16.6584V16.0226H17.22V14.5778H16.6584V14.0378H17.22V13.5122C17.2176 13.2674 16.9872 11.5466 16.9392 11.189ZM13.3152 15.1874H12.8544V14.5922H13.3152V15.1874ZM16.4376 13.6802H13.7616V11.501H16.4376V13.6802Z" fill="currentColor"/>
<path d="M11.6712 16.5625V16.0225H12.1752V14.5777H11.6736V14.0377H12.1752L12.1728 11.1841H7.99679C7.88399 11.4769 7.29599 13.0345 7.24559 13.3009C7.18319 13.6489 7.20959 14.0161 7.32479 14.3377C7.39439 14.5345 7.47359 14.8657 7.54799 15.1873C7.62239 15.5041 7.69919 15.8305 7.76639 16.0201C7.90799 16.4137 8.22479 17.0737 8.77199 17.0737H12.1752V16.5577H11.6712V16.5625ZM8.26079 15.1873H7.79999V14.5921H8.26079V15.1873ZM11.3904 13.6801H8.71679V11.5009H11.3928V13.6801H11.3904Z" fill="currentColor"/>
<path d="M12.384 14.0425H12.3216V14.5825H12.384V14.0425Z" fill="currentColor"/>
<path d="M12.3816 16.0249H12.3216V16.5649H12.3816V16.0249Z" fill="currentColor"/>
<path d="M17.3688 14.0425H17.3664V14.5825H17.3688V14.0425Z" fill="currentColor"/>
<path d="M17.3688 16.0249H17.3664V16.5649H17.3688V16.0249Z" fill="currentColor"/>
<path d="M16.0152 9.79199H14.8416V10.3224H16.0152V9.79199Z" fill="currentColor"/>
<path d="M14.472 10.0321V9.14893H13.668V10.0321H12.8256V10.3225H13.668H14.472H14.7072V10.0321H14.472Z" fill="currentColor"/>
<path d="M14.6592 7.79297H13.3248V8.33057H14.6592V7.79297Z" fill="currentColor"/>
<path d="M14.6616 7.41602H12.456V7.68002H14.6616V7.41602Z" fill="currentColor"/>
<path d="M13.212 7.79297H12.456V8.05697H13.212V7.79297Z" fill="currentColor"/>
<path d="M18.3768 8.4408H16.2984H13.7808H11.8728V8.3208H11.7V8.4408V8.7888V9.0504H16.2984V8.9088H18.3768V8.4408Z" fill="currentColor"/>
<path d="M23.52 14.3545L18.4272 13.7041C18.1968 13.6753 18.0096 13.5025 17.9592 13.2745L17.4672 10.9561C17.4144 10.7041 17.1912 10.5217 16.932 10.5217L7.8096 10.5001C7.7448 10.5001 7.6824 10.5121 7.6224 10.5337L0.5928 13.0609V4.1377C0.6768 4.0873 0.7344 3.9961 0.7344 3.8905C0.7344 3.7297 0.6048 3.6001 0.4464 3.6001C0.288 3.6001 0.156 3.7297 0.156 3.8905C0.156 3.9961 0.2136 4.0873 0.2976 4.1377V13.1737C0.1176 13.2673 0 13.4545 0 13.6609V16.2409C0 16.5433 0.2448 16.7905 0.5496 16.7905H1.6488C1.944 16.0321 2.5632 15.4201 3.3696 15.1489C3.6792 15.0433 3.972 14.9929 4.2648 14.9929C5.1528 14.9929 5.9448 15.4105 6.4608 16.0585C6.6696 16.0729 6.852 16.2025 6.9312 16.3969L7.1808 17.0089C7.236 17.1433 7.3416 17.2489 7.4736 17.3065L8.5632 17.7673C8.6304 17.7961 8.7048 17.8105 8.7768 17.8105H18.8088C18.8088 16.6033 19.5792 15.5329 20.7216 15.1489C21.0312 15.0433 21.324 14.9929 21.6168 14.9929C22.6248 14.9929 23.5056 15.5281 24.0024 16.3297V14.8993C24 14.6209 23.796 14.3881 23.52 14.3545ZM6.6768 13.8745H0.1776V13.6513H6.6744V13.8745H6.6768ZM12.384 14.5801H12.3216V16.0249H12.3816V16.5649H12.3216V17.2297H8.7696C8.1312 17.2297 7.7784 16.5073 7.6248 16.0777C7.5552 15.8809 7.476 15.5497 7.4016 15.2281C7.3272 14.9113 7.2504 14.5849 7.1832 14.3953C7.0608 14.0497 7.0296 13.6537 7.0968 13.2817C7.152 12.9745 7.8432 11.1673 7.872 11.0905L7.8912 11.0425H12.3192L12.3216 14.0425H12.384V14.5801ZM17.3688 14.5801H17.3664V16.0249H17.3688V16.5649H17.3664V16.6705C17.3664 17.1001 17.0544 17.2537 16.764 17.2537H12.5688V11.0401H17.0688L17.0784 11.1049C17.0904 11.1913 17.3688 13.2313 17.3688 13.5121V14.0425H17.3712V14.5801H17.3688Z" fill="currentColor"/>
</g>
<defs>
<clipPath id="clip0_1421_1997">
<rect width="24" height="16.512" fill="currentColor" transform="translate(0 3.6001)"/>
</clipPath>
</defs>
</svg>
