<svg width="24" height="24" viewBox="0 0 24 24" fill="currentColor" xmlns="http://www.w3.org/2000/svg">
<g clip-path="url(#clip0_1421_2156)">
<path d="M8.08313 9.84003L8.36393 10.428L8.81273 10.1688L8.36633 9.65283L8.08313 9.84003Z" fill="currentColor"/>
<path d="M8.66875 9.0336C8.61835 8.9568 8.51515 8.9352 8.43595 8.9856L7.34635 9.6984C7.26955 9.7488 7.24795 9.852 7.29835 9.9312C7.32955 9.9816 7.38475 10.008 7.43995 10.008C7.47115 10.008 7.50235 9.9984 7.53115 9.9816L8.62075 9.2688C8.69755 9.2136 8.71915 9.1104 8.66875 9.0336Z" fill="currentColor"/>
<path d="M3.90723 18.6048C3.90723 20.1576 5.15763 21.4176 6.70323 21.4176C7.95123 21.4176 8.99523 20.5872 9.35763 19.4496C9.44163 19.1808 9.50163 18.9 9.50163 18.6024C9.50163 17.0472 8.24883 15.7944 6.70323 15.7944C6.39123 15.7944 6.09603 15.8568 5.81523 15.9528C4.70883 16.3272 3.90723 17.364 3.90723 18.6048ZM5.40723 18.6048C5.40723 17.8824 5.98803 17.3016 6.70083 17.3016C7.41363 17.3016 7.99683 17.8824 7.99683 18.6048C7.99683 19.3224 7.41603 19.9032 6.70083 19.9032C5.98803 19.9056 5.40723 19.3224 5.40723 18.6048Z" fill="currentColor"/>
<path d="M16.0728 18.6048C16.0728 20.1576 17.3232 21.4176 18.8688 21.4176C20.1168 21.4176 21.1608 20.5872 21.5232 19.4496C21.6072 19.1808 21.6672 18.9 21.6672 18.6024C21.6672 17.0472 20.4144 15.7944 18.8688 15.7944C18.5568 15.7944 18.2616 15.8568 17.9808 15.9528C16.8744 16.3272 16.0728 17.364 16.0728 18.6048ZM17.5728 18.6048C17.5728 17.8824 18.1536 17.3016 18.8664 17.3016C19.5792 17.3016 20.1624 17.8824 20.1624 18.6048C20.1624 19.3224 19.5816 19.9032 18.8664 19.9032C18.1536 19.9056 17.5728 19.3224 17.5728 18.6048Z" fill="currentColor"/>
<path d="M3.36964 12.636H6.43204L6.76084 14.5104L2.99524 14.9424L3.36964 12.636Z" fill="currentColor"/>
<path d="M4.38475 12.3072C4.38475 12.3072 6.06475 12.3312 6.24955 12.3312C6.43435 12.3312 6.52075 12.2784 6.56155 12.1176C6.59755 11.976 6.56395 11.8008 6.29275 11.7624C6.11035 11.736 4.72795 11.5704 4.52155 11.5248C4.31515 11.4792 4.43035 11.2488 4.43035 11.2488C4.43035 11.2488 4.54555 10.788 4.43035 10.4208C4.31515 10.0512 4.06075 9.72961 3.99355 9.45361C3.92395 9.17761 3.98875 8.95441 3.80395 8.95441C3.65755 8.95441 3.64795 9.03841 3.64795 9.06241C3.64795 9.08641 3.64795 11.4792 3.64795 11.4792H3.83275C3.83035 12.3312 4.38475 12.3072 4.38475 12.3072Z" fill="currentColor"/>
<path d="M13.8984 10.9248H23.3928L24 12.2328H22.5624L15.9672 14.652L14.7888 14.6592V15.3024L14.1984 15.2904L13.3248 14.7624L11.7384 11.2656L11.4168 11.28L11.412 10.116L13.8984 10.9248Z" fill="currentColor"/>
<path d="M4.81678 3.09362H4.04878L4.14718 2.55602H4.53598L4.65358 3.09362H4.81678L4.66558 2.40002H4.01758L3.88798 3.09362H3.88558L4.07518 3.39842H4.21918V3.61202H4.07038C4.04638 3.47282 3.96958 3.40322 3.85678 3.38642C3.69598 3.36242 3.53518 3.37442 3.48958 3.66242C3.46798 3.79442 3.17758 5.39522 2.87038 7.08483C2.86798 7.08483 2.86558 7.08483 2.86318 7.08722C2.59198 7.17842 2.39758 7.43042 2.39758 7.73522C2.39758 7.95122 2.49838 8.14323 2.65438 8.26803C2.37118 9.82563 2.12398 11.1768 2.12398 11.1768L1.95838 11.2008L1.70398 12.2424H2.88718L2.77678 11.2584C2.77678 11.2584 3.01198 9.92642 3.28318 8.39042C3.49438 8.32323 3.66238 8.15522 3.72958 7.94163C3.75118 7.87682 3.76558 7.80722 3.76558 7.73522C3.76558 7.51202 3.65758 7.31762 3.49438 7.19282C3.77998 5.56082 4.04878 4.02482 4.07278 3.84242H4.21918H4.38478H4.47598V3.40322H4.61998L4.81678 3.09362ZM3.39598 7.74723C3.39598 7.77603 3.38878 7.80242 3.38158 7.82643C3.34078 7.95603 3.22318 8.05202 3.08158 8.05202C2.90638 8.05202 2.76478 7.91042 2.76478 7.73522C2.76478 7.56002 2.90638 7.41602 3.08158 7.41602C3.25678 7.41602 3.39838 7.55762 3.39838 7.73522C3.39838 7.74003 3.39598 7.74242 3.39598 7.74723Z" fill="currentColor"/>
<path d="M22.5168 12.6312L15.972 15.0456H15.1896V16.4424H15.072H13.9296L12.924 15.4368H12.564V15.648H11.664V15.4272L8.9208 10.3656L8.1816 10.7688L10.0416 14.7984L7.3344 14.8224L2.4432 15.4152L2.8872 12.6096H0.7464L0 17.2488L2.0184 18.084H3.4896C3.6792 16.9056 4.5072 15.9096 5.6664 15.5208C6.0264 15.3984 6.3648 15.3384 6.7032 15.3384C8.3208 15.3384 9.6648 16.5312 9.9144 18.084H11.664V17.8008H12.564V18.1032H15.6528C15.8376 16.9152 16.6656 15.9096 17.832 15.5184C18.192 15.396 18.5304 15.336 18.8688 15.336C19.3056 15.336 19.7208 15.4248 20.1024 15.5808L23.0256 12.6288H22.5168V12.6312ZM11.664 17.4144V16.0368H12.564V17.4144H11.664Z" fill="currentColor"/>
</g>
<defs>
<clipPath id="clip0_1421_2156">
<rect width="24" height="19.02" fill="currentColor" transform="translate(0 2.40002)"/>
</clipPath>
</defs>
</svg>
