<svg width="24" height="24" viewBox="0 0 24 24" fill="currentColor" xmlns="http://www.w3.org/2000/svg">
<g clip-path="url(#clip0_1431_2676)">
<path d="M4.52636 18.6982C5.15198 18.6982 5.65916 18.191 5.65916 17.5654C5.65916 16.9398 5.15198 16.4326 4.52636 16.4326C3.90073 16.4326 3.39355 16.9398 3.39355 17.5654C3.39355 18.191 3.90073 18.6982 4.52636 18.6982Z" fill="currentColor"/>
<path d="M15.012 17.7113C15.012 17.0057 14.4384 16.4321 13.7328 16.4321H11.7192C11.7408 16.3841 11.7552 16.3289 11.7552 16.2737C11.7552 16.0649 11.5848 15.8945 11.376 15.8945C11.1672 15.8945 10.9968 16.0649 10.9968 16.2737C10.9968 16.3313 11.0112 16.3841 11.0328 16.4321H9.7032C9.7248 16.3841 9.7392 16.3289 9.7392 16.2737C9.7392 16.0649 9.5688 15.8945 9.36 15.8945C9.1512 15.8945 8.9808 16.0649 8.9808 16.2737C8.9808 16.3313 8.9952 16.3841 9.0168 16.4321H7.6872C7.7088 16.3841 7.7232 16.3289 7.7232 16.2737C7.7232 16.0649 7.5528 15.8945 7.344 15.8945C7.1352 15.8945 6.9648 16.0649 6.9648 16.2737C6.9648 16.3313 6.9792 16.3841 7.0008 16.4321H6V18.2393H6.2112C6.2064 18.2657 6.204 18.2897 6.204 18.3185C6.204 18.5273 6.3744 18.6977 6.5832 18.6977C6.792 18.6977 6.9624 18.5273 6.9624 18.3185C6.9624 18.2921 6.96 18.2657 6.9552 18.2393H7.3056C7.3008 18.2657 7.2984 18.2897 7.2984 18.3185C7.2984 18.5273 7.4688 18.6977 7.6776 18.6977C7.8864 18.6977 8.0568 18.5273 8.0568 18.3185C8.0568 18.2921 8.0544 18.2657 8.0496 18.2393H8.4912C8.4864 18.2657 8.484 18.2897 8.484 18.3185C8.484 18.5273 8.6544 18.6977 8.8632 18.6977C9.072 18.6977 9.2424 18.5273 9.2424 18.3185C9.2424 18.2921 9.24 18.2657 9.2352 18.2393H9.6096C9.6048 18.2657 9.6 18.2897 9.6 18.3185C9.6 18.5273 9.7704 18.6977 9.9792 18.6977C10.188 18.6977 10.3584 18.5273 10.3584 18.3185C10.3584 18.2921 10.356 18.2657 10.3512 18.2393H10.7784C10.7736 18.2657 10.7712 18.2897 10.7712 18.3185C10.7712 18.5273 10.9416 18.6977 11.1504 18.6977C11.3592 18.6977 11.5296 18.5273 11.5296 18.3185C11.5296 18.2921 11.5272 18.2657 11.5224 18.2393H11.9352C11.9304 18.2657 11.9256 18.2897 11.9256 18.3185C11.9256 18.5273 12.096 18.6977 12.3048 18.6977C12.5136 18.6977 12.684 18.5273 12.684 18.3185C12.684 18.2921 12.6816 18.2657 12.6744 18.2393H15.024V17.7113H15.012Z" fill="currentColor"/>
<path d="M11.6952 14.918H7.06799V15.3092H11.6952V14.918Z" fill="currentColor"/>
<path d="M12.5136 9.81055H6.40796V10.0745H12.5136V9.81055Z" fill="currentColor"/>
<path d="M12.5137 7.30469H8.92566V9.62069H12.5137V7.30469Z" fill="currentColor"/>
<path d="M13.956 19.0894H4.54802C3.60482 19.0894 2.94482 18.4438 2.94482 17.5198C2.94482 16.6822 3.61442 16.1614 4.23602 16.0318C4.80962 15.9118 6.72242 15.5254 7.22402 15.5254H11.4168C11.8752 15.5254 14.0016 15.9286 14.2416 15.9958C14.292 16.0102 15.4896 16.3654 15.4896 17.6158C15.4944 18.727 14.352 19.0894 13.956 19.0894ZM7.22642 15.7174C6.73202 15.7174 4.68482 16.1374 4.27922 16.2214C3.85682 16.3078 3.14162 16.6798 3.14162 17.5198C3.14162 18.343 3.70802 18.8974 4.55042 18.8974H13.9584C14.2536 18.8974 15.3024 18.5902 15.3024 17.6182C15.3024 16.5118 14.2392 16.195 14.1936 16.183C13.9392 16.111 11.8416 15.7198 11.4216 15.7198H7.22642V15.7174Z" fill="currentColor"/>
<path d="M18.1536 13.317C18.2848 13.317 18.3912 13.2106 18.3912 13.0794C18.3912 12.9482 18.2848 12.8418 18.1536 12.8418C18.0224 12.8418 17.916 12.9482 17.916 13.0794C17.916 13.2106 18.0224 13.317 18.1536 13.317Z" fill="currentColor"/>
<path d="M18.0192 8.52432C17.9544 8.30112 17.8416 7.98912 17.7192 7.66992L17.7048 8.39712C17.7024 8.54592 17.6568 8.66592 17.6112 8.75472C17.568 8.84112 17.52 8.93472 17.4624 9.03072C17.3736 9.17712 17.3424 9.40992 17.4624 9.54912C17.5824 9.68832 17.9592 10.1515 18.0096 10.4803C18.024 10.5811 18.0408 10.6747 18.06 10.7587C18.0984 10.1059 18.1632 9.01392 18.0192 8.52432ZM17.7648 9.52992C17.6352 9.52992 17.5272 9.42432 17.5272 9.29232C17.5272 9.16272 17.6328 9.05472 17.7648 9.05472C17.8968 9.05472 18 9.16032 18 9.29232C18 9.42192 17.8944 9.52992 17.7648 9.52992Z" fill="currentColor"/>
<path d="M24 12.0909L22.656 13.3989C22.392 13.9101 20.8176 15.0093 19.2648 14.6109C19.3032 14.0037 19.4928 12.6213 19.7568 12.1293C20.1744 11.8077 21.1584 11.4861 21.936 12.1869C22.3728 12.3957 22.6944 12.5469 22.6944 12.5469L23.6976 12.0933H24V12.0909Z" fill="currentColor"/>
<path d="M8.11197 8.18066H7.25757V9.05906H7.33677V9.61826H8.03037V9.05906H8.11197V8.18066Z" fill="currentColor"/>
<path d="M6.38161 9.004L5.60161 8.5H4.12561V9.0976H6.38161V9.004Z" fill="currentColor"/>
<path d="M3.61679 9.004L2.8368 8.5H2.0304V9.0976H3.61679V9.004Z" fill="currentColor"/>
<path d="M17.1768 9.13871L15.5112 9.43391L16.572 7.48751L16.7784 7.42511L17.3232 6.86831C17.2104 6.57791 17.148 6.41231 17.1288 6.33791C17.0592 6.05951 17.232 5.60351 17.532 5.42351C17.2224 5.25071 16.8288 5.04191 16.6656 4.94351C16.3824 4.77311 15.4728 4.71551 15.0552 4.98191C14.6376 5.24831 12.7632 7.29311 12.7632 7.29311V10.5523C14.2584 10.7803 13.824 9.58511 13.824 9.58511L15.0936 7.93631L15.3816 7.84991L14.3496 9.64031L14.0616 9.69071C14.0832 9.80591 14.0976 9.96431 14.0688 10.1275L13.2624 11.5243L13.4448 11.6419L12.516 13.2715V10.2667H6.2208V9.61871H6.396V9.44831V9.38351V9.21311H1.7688C1.8024 8.17871 1.8552 6.55151 1.8552 6.49151C1.86 6.33791 1.848 6.28031 1.7616 6.28031C1.6752 6.28031 1.6632 6.33551 1.6464 6.50351C1.6392 6.57311 1.4856 8.25071 1.3944 9.21551H1.164V9.45311H1.3728C1.3488 9.71231 1.332 9.88271 1.332 9.88271L1.0632 10.0819V10.2715H0.456L0 14.6875H12.5136V14.2099L12.528 14.2075L13.8888 11.8747L14.1096 12.0019L15.1944 10.0147L16.8768 9.64991L17.8248 12.7771C17.9064 12.6907 18.0192 12.6379 18.144 12.6379C18.1776 12.6379 18.2112 12.6427 18.2448 12.6499L17.1768 9.13871ZM13.3032 10.3603C13.1304 10.3603 12.9912 10.2211 12.9912 10.0483C12.9912 9.87551 13.1304 9.73631 13.3032 9.73631C13.476 9.73631 13.6152 9.87551 13.6152 10.0483C13.6152 10.2211 13.476 10.3603 13.3032 10.3603ZM16.1904 6.78911C16.3488 6.78911 16.4784 6.90671 16.4976 7.06031C16.5 7.07471 16.5024 7.08671 16.5024 7.10111C16.5024 7.27391 16.3632 7.41311 16.1904 7.41311C16.0176 7.41311 15.8784 7.27391 15.8784 7.10111C15.8784 6.97631 15.9528 6.86831 16.0584 6.81791C16.0992 6.79871 16.1424 6.78911 16.1904 6.78911ZM1.7424 10.0531C1.7424 10.0531 1.7496 9.80831 1.7616 9.45071H2.0112L2.112 9.62111H2.172V10.2691H1.5192L1.7424 10.0531ZM2.9976 13.5499H1.1808C1.1424 13.5499 1.1136 13.5187 1.1136 13.4827C1.1136 13.4443 1.1448 13.4155 1.1808 13.4155H2.9976C3.036 13.4155 3.0648 13.4467 3.0648 13.4827C3.0672 13.5187 3.036 13.5499 2.9976 13.5499ZM2.9976 13.2427H1.1808C1.1424 13.2427 1.1136 13.2115 1.1136 13.1755C1.1136 13.1371 1.1448 13.1083 1.1808 13.1083H2.9976C3.036 13.1083 3.0648 13.1395 3.0648 13.1755C3.0672 13.2115 3.036 13.2427 2.9976 13.2427ZM2.9976 12.9331H1.1808C1.1424 12.9331 1.1136 12.9019 1.1136 12.8659C1.1136 12.8275 1.1448 12.7987 1.1808 12.7987H2.9976C3.036 12.7987 3.0648 12.8299 3.0648 12.8659C3.0672 12.9043 3.036 12.9331 2.9976 12.9331ZM2.9976 12.6259H1.1808C1.1424 12.6259 1.1136 12.5947 1.1136 12.5587C1.1136 12.5203 1.1448 12.4915 1.1808 12.4915H2.9976C3.036 12.4915 3.0648 12.5227 3.0648 12.5587C3.0672 12.5947 3.036 12.6259 2.9976 12.6259ZM2.9976 12.3163H1.1808C1.1424 12.3163 1.1136 12.2851 1.1136 12.2491C1.1136 12.2131 1.1448 12.1819 1.1808 12.1819H2.9976C3.036 12.1819 3.0648 12.2131 3.0648 12.2491C3.0648 12.2851 3.036 12.3163 2.9976 12.3163ZM3.228 12.0091H1.1808C1.1424 12.0091 1.1136 11.9779 1.1136 11.9419C1.1136 11.9059 1.1448 11.8747 1.1808 11.8747H3.228C3.2664 11.8747 3.2952 11.9059 3.2952 11.9419C3.2952 11.9779 3.2664 12.0091 3.228 12.0091ZM3.228 11.7019H1.1808C1.1424 11.7019 1.1136 11.6707 1.1136 11.6347C1.1136 11.5963 1.1448 11.5675 1.1808 11.5675H3.228C3.2664 11.5675 3.2952 11.5987 3.2952 11.6347C3.2952 11.6707 3.2664 11.7019 3.228 11.7019ZM3.228 11.3923H1.1808C1.1424 11.3923 1.1136 11.3611 1.1136 11.3251C1.1136 11.2867 1.1448 11.2579 1.1808 11.2579H3.228C3.2664 11.2579 3.2952 11.2891 3.2952 11.3251C3.2952 11.3635 3.2664 11.3923 3.228 11.3923ZM3.228 11.0851H1.1808C1.1424 11.0851 1.1136 11.0539 1.1136 11.0179C1.1136 10.9795 1.1448 10.9507 1.1808 10.9507H3.228C3.2664 10.9507 3.2952 10.9819 3.2952 11.0179C3.2952 11.0539 3.2664 11.0851 3.228 11.0851ZM3.456 10.2667H2.3328V9.61871H3.4584V10.2667H3.456ZM3.9624 10.2667H3.6168V9.61871H3.6504V9.44831H3.9024V9.61871H3.9624V10.2667ZM6.06 10.2667H4.1256V9.61871H6.06V10.2667Z" fill="currentColor"/>
<path d="M18.8688 11.5579C18.9 11.4667 18.948 11.2987 18.9864 11.1475L19.3752 9.79146L19.4136 9.65466L19.5552 9.64506L19.7976 9.62826C19.8 9.62586 19.8 9.62346 19.8024 9.62106C19.98 9.31866 19.9032 8.73786 19.9032 8.04186C19.9032 7.34586 18.9888 6.57066 18.6024 6.14826C18.0984 5.59146 17.9088 5.51466 17.64 5.63946C17.3496 5.77146 17.316 6.08586 17.3664 6.28746C17.4168 6.48906 17.9856 7.84026 18.1752 8.48586C18.3648 9.12906 18.2136 10.7083 18.2016 11.1763C18.192 11.5483 18.3984 11.7283 18.5592 11.7931L18.8688 11.5579ZM17.868 6.42906C17.6928 6.42906 17.5512 6.28746 17.5512 6.11226C17.5512 5.93706 17.6928 5.79546 17.868 5.79546C18.0432 5.79546 18.1848 5.93706 18.1848 6.11226C18.1848 6.28746 18.0408 6.42906 17.868 6.42906ZM18.3792 11.3275C18.3792 11.2099 18.4752 11.1139 18.5928 11.1139C18.7104 11.1139 18.8064 11.2099 18.8064 11.3275C18.8064 11.4451 18.7104 11.5411 18.5928 11.5411C18.4752 11.5411 18.3792 11.4451 18.3792 11.3275Z" fill="currentColor"/>
<path d="M20.3784 10.7778C20.3592 10.665 20.112 9.86816 20.112 9.86816L19.5624 9.90656L19.0392 11.7378L18.4464 12.1794V13.713L19.0272 14.6394V14.625C19.0584 14.1354 19.2384 12.6114 19.5528 12.033L19.5792 11.9826L19.6248 11.9466C19.7592 11.8434 19.9464 11.7378 20.1696 11.6562C20.2632 11.637 20.2512 11.625 20.352 11.601C20.4024 11.5866 20.4552 11.5746 20.5104 11.565L20.5296 11.4978C20.5296 11.4978 20.3976 10.8906 20.3784 10.7778ZM20.196 11.5218C20.1048 11.5218 20.0328 11.4498 20.0328 11.3586C20.0328 11.2674 20.1048 11.1954 20.196 11.1954C20.2872 11.1954 20.3592 11.2674 20.3592 11.3586C20.3592 11.4474 20.2872 11.5218 20.196 11.5218Z" fill="currentColor"/>
</g>
<defs>
<clipPath id="clip0_1431_2676">
<rect width="24" height="14.2896" fill="currentColor" transform="translate(0 4.7998)"/>
</clipPath>
</defs>
</svg>
