<svg width="24" height="24" viewBox="0 0 24 24" fill="currentColor" xmlns="http://www.w3.org/2000/svg">
<g clip-path="url(#clip0_1422_878)">
<path d="M0.180054 14.5008V15.4944H10.8745V11.0928C10.8745 11.0808 10.8745 11.0664 10.8745 11.0544C10.8745 11.0088 10.8673 10.9632 10.8505 10.9176L8.59685 5.06405C8.54885 4.93925 8.40965 4.80005 8.24885 4.80005H3.78485V4.87445H3.77285V10.9656H3.71525C1.76165 10.9656 0.180054 12.5472 0.180054 14.5008ZM4.69685 5.57525H8.04725L9.81845 10.9656H4.69685V5.57525Z" fill="currentColor"/>
<path d="M10.9056 17.6928C10.8408 17.076 10.3752 16.584 9.7752 16.4832C9.7008 16.4712 9.6288 16.4592 9.5496 16.4592H1.3704C0.6144 16.4592 0 17.0784 0 17.8368C0 18.5976 0.6144 19.2168 1.3704 19.2168H9.5472C10.3032 19.2168 10.92 18.5976 10.92 17.8368C10.92 17.7864 10.9104 17.7384 10.9056 17.6928ZM1.3704 18.6264C0.9384 18.6264 0.5856 18.2736 0.5856 17.8368C0.5856 17.4048 0.936 17.0496 1.3704 17.0496C1.8048 17.0496 2.1552 17.4024 2.1552 17.8368C2.1552 18.2712 1.8024 18.6264 1.3704 18.6264ZM9.5472 18.6264C9.1152 18.6264 8.7648 18.2736 8.7648 17.8368C8.7648 17.4048 9.1152 17.0496 9.5472 17.0496C9.9792 17.0496 10.332 17.4024 10.332 17.8368C10.332 18.2712 9.9816 18.6264 9.5472 18.6264Z" fill="currentColor"/>
<path d="M23.8776 13.5433C23.496 12.7153 23.1672 11.9713 23.0208 11.6425L22.9296 11.7313C22.9056 11.7553 22.8744 11.7817 22.8384 11.8081C22.7808 11.8489 22.7136 11.8705 22.644 11.8705C22.5768 11.8705 22.512 11.8513 22.4544 11.8129L22.3128 11.7169L19.92 15.0049L23.436 14.9089C23.448 14.9089 23.46 14.9065 23.472 14.8993C24.2352 14.4865 23.976 13.7569 23.8776 13.5433Z" fill="currentColor"/>
<path d="M17.7888 8.70728L17.184 9.87127L21.4848 11.9977L21.8376 11.4793L17.7888 8.70728Z" fill="currentColor"/>
<path d="M16.0679 7.57446C16.0559 7.56966 16.0295 7.56006 16.0031 7.56006C15.9887 7.56006 15.9767 7.56246 15.9671 7.56726C15.9335 7.58646 15.9095 7.65126 15.8999 7.74246C15.8951 7.80006 15.8975 7.88406 15.9095 7.99926L15.9143 8.05446L15.9431 8.24166L15.9503 8.28006C16.0079 8.62566 16.1015 9.01446 16.1519 9.21606C16.1903 9.37446 16.1231 9.54006 15.9863 9.62646L11.7527 12.2713C11.7095 12.2977 11.6855 12.3433 11.6855 12.3937V14.3377C11.6855 14.3977 11.7191 14.4457 11.7743 14.4697C11.7935 14.4769 11.8127 14.4817 11.8319 14.4817C11.8679 14.4817 11.9015 14.4673 11.9303 14.4409C11.9303 14.4409 16.6919 9.72246 16.7279 9.70566L17.3663 8.45526L16.0679 7.57446Z" fill="currentColor"/>
</g>
<defs>
<clipPath id="clip0_1422_878">
<rect width="24" height="14.4168" fill="currentColor" transform="translate(0 4.80005)"/>
</clipPath>
</defs>
</svg>
