<svg width="24" height="24" viewBox="0 0 24 24" fill="currentColor" xmlns="http://www.w3.org/2000/svg">
<g clip-path="url(#clip0_1431_2907)">
<path d="M17.6568 13.5645L15.948 14.1741V15.0741L17.4024 14.3373L22.3824 18.9405H23.088L17.6568 13.5645Z" fill="currentColor"/>
<path d="M22.2739 19.5869L23.9995 19.5869L23.9995 19.1981L22.2739 19.1981L22.2739 19.5869Z" fill="currentColor"/>
<path d="M6.34319 13.5645L8.05199 14.1741V15.0741L6.59759 14.3373L1.61759 18.9405H0.911987L6.34319 13.5645Z" fill="currentColor"/>
<path d="M1.7256 19.1992H0V19.588H1.7256V19.1992Z" fill="currentColor"/>
<path d="M11.1072 9.2998H10.86V10.4542H11.1072V9.2998Z" fill="currentColor"/>
<path d="M16.4784 5.48798L16.8648 6.92558L18.684 6.46718L18.2856 5.01758L16.4784 5.48798Z" fill="currentColor"/>
<path d="M11.244 13.2812V10.7492H10.704V10.9316L9.312 9.70996L8.4696 10.1252L9.0264 13.2812H8.4696V15.0572H9.3384H10.7016H10.8024H11.244H15.552V13.2812H11.244ZM10.704 13.2812H10.3344L9.6216 10.5884L10.704 11.51V13.2812ZM10.968 11.534C10.9032 11.534 10.8504 11.4812 10.8504 11.4164C10.8504 11.3516 10.9032 11.2988 10.968 11.2988C11.0328 11.2988 11.0856 11.3516 11.0856 11.4164C11.0856 11.4812 11.0328 11.534 10.968 11.534Z" fill="currentColor"/>
<path d="M21.1176 11.0544L20.9664 10.6752C20.9424 10.6176 20.8872 10.5792 20.8248 10.5792H20.5464V7.19043L20.2344 7.27443V10.5816H19.9152C19.8528 10.5816 19.7976 10.62 19.7736 10.6776L19.6224 11.0568C19.608 11.0928 19.608 11.1336 19.6224 11.1696L19.7736 11.5488C19.7976 11.6064 19.8528 11.6448 19.9152 11.6448H19.992C19.992 11.7288 20.0592 11.796 20.1432 11.796H20.22V11.8536C20.22 12.0336 20.3184 12.1992 20.472 12.2736C20.5512 12.312 20.5992 12.3912 20.5992 12.4776C20.5992 12.5976 20.4936 12.7056 20.3712 12.7056C20.2464 12.7056 20.1432 12.6048 20.1432 12.4776C20.1432 12.3936 20.076 12.3264 19.992 12.3264C19.908 12.3264 19.8408 12.3936 19.8408 12.4776C19.8408 12.7704 20.0784 13.008 20.3712 13.008C20.6592 13.008 20.9016 12.7656 20.9016 12.4776C20.9016 12.2736 20.7864 12.0912 20.604 12C20.5536 11.976 20.5224 11.9184 20.5224 11.8536V11.796H20.5992C20.6832 11.796 20.7504 11.7288 20.7504 11.6448H20.8272C20.8896 11.6448 20.9448 11.6064 20.9688 11.5488L21.12 11.1696C21.132 11.1312 21.132 11.0904 21.1176 11.0544Z" fill="currentColor"/>
<path d="M20.3497 4.55957L18.7249 5.03957L19.0825 6.38837L20.1745 7.04597L20.9833 6.83717L20.3497 4.55957ZM20.3857 6.66677C20.2681 6.66197 20.1745 6.56357 20.1793 6.44597C20.1817 6.32837 20.2801 6.23477 20.4001 6.23957C20.5177 6.24437 20.6113 6.34277 20.6065 6.46037C20.6017 6.57797 20.5033 6.67157 20.3857 6.66677Z" fill="currentColor"/>
<path d="M16.008 5.47656L6.03357 8.13816L6.50877 9.67656L8.31597 9.20136L8.39757 9.65496L9.69357 9.03576H11.1168L12.048 8.21496L16.4232 7.07736L16.008 5.47656ZM7.45917 9.08856C7.17597 9.08856 6.94557 8.85816 6.94557 8.57496C6.94557 8.29176 7.17597 8.06136 7.45917 8.06136C7.74237 8.06136 7.97277 8.29176 7.97277 8.57496C7.97277 8.85816 7.74237 9.08856 7.45917 9.08856ZM10.8984 8.79576C10.7592 8.79576 10.6488 8.68296 10.6488 8.54616C10.6488 8.40696 10.7616 8.29656 10.8984 8.29656C11.0352 8.29656 11.148 8.40936 11.148 8.54616C11.1504 8.68536 11.0376 8.79576 10.8984 8.79576Z" fill="currentColor"/>
<path d="M15.696 16.3865C15.6576 16.0289 15.3888 15.7409 15.0384 15.6833C14.9952 15.6761 14.952 15.6689 14.9064 15.6689H8.59441C8.15521 15.6689 7.79761 16.0289 7.79761 16.4705C7.79761 16.9121 8.15521 17.2721 8.59441 17.2721H14.9064C15.3456 17.2721 15.7032 16.9121 15.7032 16.4705C15.7032 16.4417 15.6984 16.4153 15.696 16.3865ZM8.59681 16.9289C8.34481 16.9289 8.14081 16.7225 8.14081 16.4705C8.14081 16.2185 8.34481 16.0145 8.59681 16.0145C8.84881 16.0145 9.05281 16.2209 9.05281 16.4705C9.05041 16.7249 8.84641 16.9289 8.59681 16.9289ZM14.9064 16.9289C14.6568 16.9289 14.4528 16.7225 14.4528 16.4705C14.4528 16.2185 14.6568 16.0145 14.9064 16.0145C15.1584 16.0145 15.3624 16.2209 15.3624 16.4705C15.3624 16.7249 15.1584 16.9289 14.9064 16.9289Z" fill="currentColor"/>
</g>
<defs>
<clipPath id="clip0_1431_2907">
<rect width="24" height="15.0288" fill="currentColor" transform="translate(0 4.55957)"/>
</clipPath>
</defs>
</svg>
