<svg width="24" height="24" viewBox="0 0 24 24" fill="currentColor" xmlns="http://www.w3.org/2000/svg">
<g clip-path="url(#clip0_1539_1239)">
<path d="M14.4887 16.2266C14.4767 16.2458 14.4647 16.265 14.4503 16.2842C14.3255 16.4522 14.2007 16.6202 14.0759 16.7882C14.0615 16.8074 14.0447 16.8266 14.0711 16.8482C14.0975 16.8698 14.1119 16.8506 14.1287 16.8314C14.2607 16.661 14.3927 16.493 14.5223 16.3202C14.5535 16.277 14.5751 16.2818 14.6111 16.313C15.1439 16.7762 15.3959 17.3618 15.3647 18.0674C15.3623 18.1106 15.3503 18.1226 15.3047 18.1154C15.0839 18.0842 14.8655 18.0578 14.6447 18.0314C14.6279 18.029 14.6063 18.0434 14.5871 18.0506C14.6039 18.0602 14.6207 18.077 14.6399 18.0794C14.8511 18.1106 15.0647 18.1418 15.2759 18.173C15.3191 18.1802 15.3527 18.197 15.3407 18.2546C15.2087 18.9746 14.8199 19.5002 14.1647 19.829C14.1575 19.8314 14.1503 19.8338 14.1383 19.8386C14.1287 19.8194 14.1191 19.8026 14.1095 19.7834C14.0231 19.577 13.9367 19.3706 13.8503 19.1642C13.8383 19.1378 13.8335 19.0898 13.7951 19.1066C13.7543 19.1234 13.7879 19.1594 13.7975 19.1858C13.8887 19.409 13.9823 19.6322 14.0783 19.865C13.8287 19.973 13.5719 20.0234 13.3055 20.0234C12.8231 20.0234 12.3839 19.8866 11.9879 19.5914C12.0023 19.5698 12.0143 19.5554 12.0263 19.5386C12.1703 19.349 12.3143 19.1594 12.4559 18.9698C12.4631 18.9602 12.4559 18.941 12.4559 18.9242C12.4391 18.929 12.4175 18.9314 12.4079 18.9434C12.3119 19.0658 12.2159 19.193 12.1223 19.3178C12.0647 19.3946 12.0071 19.469 11.9447 19.5506C11.9135 19.5266 11.8847 19.5098 11.8607 19.4858C11.7287 19.349 11.5895 19.217 11.4887 19.0514C11.2991 18.737 11.1743 18.4034 11.1695 18.0314C11.1671 17.9138 11.1695 17.7938 11.1695 17.6762C11.1695 17.6378 11.1815 17.6282 11.2223 17.633C11.4431 17.6642 11.6663 17.693 11.8871 17.7218C11.8919 17.7218 11.8991 17.7242 11.9039 17.7242C11.9231 17.717 11.9423 17.7074 11.9615 17.7002C11.9447 17.6858 11.9303 17.6642 11.9111 17.6618C11.8247 17.6474 11.7359 17.6378 11.6495 17.6282C11.5127 17.6114 11.3783 17.5898 11.2415 17.573C11.1959 17.5682 11.1887 17.5466 11.1959 17.5082C11.3519 16.8218 11.7455 16.325 12.3791 16.0178C12.4223 15.9962 12.4439 16.001 12.4631 16.049C12.5495 16.2458 12.6383 16.4402 12.7247 16.637C12.7319 16.6538 12.7391 16.6682 12.7463 16.685C12.7943 16.673 12.7943 16.673 12.7751 16.6298C12.6911 16.4282 12.6095 16.2266 12.5255 16.025C12.5183 16.0082 12.5111 15.989 12.5039 15.9722C12.9815 15.6938 14.1239 15.8426 14.4887 16.2266ZM13.0703 18.8258C13.0727 18.6794 13.0727 18.6794 12.9359 18.6194C12.9311 18.617 12.9263 18.6146 12.9215 18.6122C12.8831 18.593 12.8543 18.6002 12.8255 18.6314C12.7751 18.689 12.7223 18.7466 12.6719 18.8042C12.6143 18.8714 12.6239 18.9146 12.7079 18.9506C12.7847 18.9842 12.8615 19.0154 12.9359 19.0466C12.9935 19.0706 13.0343 19.0514 13.0463 18.989C13.0583 18.9362 13.0631 18.881 13.0703 18.8258ZM12.5399 18.2882C12.5255 18.2906 12.5207 18.2906 12.5159 18.293C12.4295 18.3242 12.3431 18.353 12.2567 18.3866C12.2087 18.4058 12.2015 18.4466 12.2351 18.4946C12.2903 18.5714 12.3455 18.6458 12.4031 18.7178C12.4391 18.7658 12.4895 18.7634 12.5231 18.713C12.5711 18.6434 12.6167 18.5714 12.6647 18.5018C12.6863 18.4706 12.6863 18.4418 12.6623 18.413C12.6407 18.3818 12.6191 18.3506 12.5927 18.3242C12.5783 18.3098 12.5543 18.3002 12.5399 18.2882ZM13.3079 19.097C13.3919 19.085 13.4831 19.0706 13.5767 19.0562C13.6463 19.0466 13.6631 19.0106 13.6343 18.9458C13.6007 18.8738 13.5623 18.8042 13.5287 18.7322C13.5095 18.6866 13.4807 18.6674 13.4327 18.6818C13.4039 18.6914 13.3727 18.6914 13.3415 18.6938C13.2959 18.6962 13.2743 18.7202 13.2647 18.7634C13.2503 18.8426 13.2335 18.9218 13.2191 19.001C13.2095 19.0634 13.2383 19.0946 13.3079 19.097ZM12.0647 17.909C12.0743 17.9786 12.0839 18.0698 12.0959 18.161C12.1055 18.2258 12.1439 18.2498 12.2039 18.2234C12.2807 18.1898 12.3575 18.149 12.4319 18.113C12.4679 18.0962 12.4823 18.065 12.4751 18.029C12.4607 17.9738 12.4847 17.9066 12.4223 17.8658C12.4175 17.8634 12.4127 17.861 12.4079 17.861C12.3215 17.8442 12.2351 17.825 12.1463 17.813C12.0887 17.801 12.0647 17.8274 12.0647 17.909ZM13.8599 18.9458C13.8839 18.9338 13.9007 18.9266 13.9151 18.917C13.9895 18.8594 14.0639 18.8018 14.1359 18.7442C14.1815 18.7082 14.1815 18.6698 14.1359 18.6338C14.0975 18.605 14.0567 18.5762 14.0159 18.5498C13.8527 18.4442 13.9079 18.4298 13.7375 18.5642C13.7207 18.5786 13.7063 18.617 13.7111 18.6362C13.7375 18.725 13.7711 18.8138 13.8071 18.8978C13.8143 18.9194 13.8407 18.9314 13.8599 18.9458ZM14.1935 18.0914C14.1815 18.0914 14.1671 18.0866 14.1551 18.089C14.1263 18.0962 14.0807 18.101 14.0711 18.1202C14.0447 18.1754 14.0327 18.2378 14.0183 18.2954C14.0159 18.3026 14.0327 18.317 14.0399 18.3242C14.0999 18.377 14.1575 18.4298 14.2175 18.4826C14.2751 18.533 14.3159 18.5234 14.3471 18.4538C14.3807 18.377 14.4119 18.3026 14.4455 18.2258C14.4767 18.1538 14.4503 18.1106 14.3711 18.1034C14.3111 18.0986 14.2535 18.0962 14.1935 18.0914ZM14.4887 17.8466C14.4743 17.7626 14.4647 17.6762 14.4455 17.5898C14.4335 17.5274 14.3927 17.5058 14.3423 17.5274C14.2679 17.561 14.1935 17.5922 14.1239 17.633C14.1023 17.645 14.0831 17.6786 14.0807 17.705C14.0783 17.7434 14.0903 17.7842 14.0951 17.8226C14.1023 17.8658 14.1287 17.8874 14.1719 17.8946C14.2439 17.9066 14.3183 17.921 14.3903 17.9354C14.4575 17.9474 14.4887 17.921 14.4887 17.8466ZM12.3719 17.657C12.3959 17.657 12.4031 17.6594 12.4103 17.6594C12.4847 17.6618 12.5807 17.5202 12.5495 17.4506C12.5447 17.4386 12.5351 17.4314 12.5255 17.4218C12.4679 17.3714 12.4103 17.3234 12.3527 17.273C12.2951 17.225 12.2615 17.2298 12.2279 17.2946C12.1895 17.3738 12.1535 17.4554 12.1199 17.537C12.0959 17.5994 12.1199 17.633 12.1871 17.6402C12.2543 17.6498 12.3191 17.6546 12.3719 17.657ZM14.0735 17.009C14.0519 17.0258 14.0351 17.0354 14.0207 17.0522C13.9943 17.0858 13.9703 17.1218 13.9463 17.1578C13.8383 17.3282 13.8335 17.2634 13.9655 17.4362C13.9655 17.4386 13.9679 17.441 13.9679 17.441C13.9895 17.4482 14.0111 17.4626 14.0303 17.4578C14.1119 17.4362 14.1935 17.4098 14.2727 17.3834C14.3279 17.3642 14.3399 17.3258 14.3063 17.2778C14.2487 17.1986 14.1887 17.1242 14.1263 17.0474C14.1143 17.0306 14.0951 17.0234 14.0735 17.009ZM13.5719 16.7282C13.5311 16.7354 13.5047 16.757 13.4999 16.7978C13.4951 16.841 13.4927 16.8842 13.4879 16.9274C13.4711 17.0906 13.4711 17.0882 13.6223 17.1482C13.6775 17.1698 13.7183 17.1578 13.7543 17.1122C13.7975 17.0594 13.8383 17.0042 13.8815 16.9514C13.9151 16.9106 13.9103 16.877 13.8599 16.853C13.7735 16.8122 13.6871 16.7738 13.6007 16.7354C13.5911 16.733 13.5815 16.7306 13.5719 16.7282ZM12.8591 17.1266C12.8303 17.0474 12.7991 16.9538 12.7583 16.8626C12.7511 16.8458 12.6935 16.8338 12.6767 16.8434C12.5927 16.8986 12.5135 16.961 12.4343 17.0258C12.3983 17.0546 12.4007 17.093 12.4343 17.1194C12.5063 17.1722 12.5807 17.225 12.6575 17.2706C12.7055 17.3018 12.8591 17.1986 12.8591 17.1266ZM13.0871 17.0858C13.1423 17.0786 13.1783 17.0738 13.2167 17.069C13.2671 17.0642 13.2887 17.0378 13.2959 16.9898C13.3079 16.9226 13.3199 16.8554 13.3319 16.7882C13.3439 16.7162 13.3199 16.6874 13.2455 16.6946C13.1567 16.7042 13.0703 16.7138 12.9839 16.7258C12.9287 16.733 12.9071 16.769 12.9311 16.8218C12.9647 16.8938 12.9959 16.9658 13.0343 17.0354C13.0463 17.0594 13.0751 17.0738 13.0871 17.0858Z" fill="currentColor"/>
<path d="M0.938536 18.2569C0.938536 18.2281 0.938536 18.1969 0.938536 18.1681C0.938536 18.1609 0.943336 18.1513 0.938536 18.1465C0.871336 18.0697 0.916936 17.9857 0.924136 17.9041C0.931336 17.8273 0.950536 17.7529 0.972136 17.6761C0.981736 17.6401 1.00334 17.6041 1.02014 17.5705C1.02974 17.5537 1.04654 17.5369 1.04654 17.5177C1.05614 17.3761 1.14014 17.2705 1.20494 17.1553C1.23134 17.1097 1.26494 17.0665 1.29614 17.0209C1.32494 17.0425 1.34654 17.0569 1.37774 17.0785C1.37774 17.0545 1.37774 17.0401 1.37774 17.0305C1.38014 17.0257 1.38254 17.0233 1.38254 17.0233C1.48334 17.0137 1.41614 16.9561 1.41374 16.9153C1.41374 16.9009 1.41614 16.8817 1.42574 16.8721C1.53374 16.7761 1.64174 16.6801 1.75214 16.5889C1.76174 16.5793 1.80014 16.6033 1.83134 16.6153C1.86014 16.6009 1.90094 16.5793 1.94414 16.5601C1.92494 16.4881 1.92734 16.4809 2.00414 16.4521C2.12894 16.4065 2.25374 16.3609 2.38334 16.3129C2.39294 16.3465 2.40014 16.3681 2.40734 16.3873C2.45294 16.3777 2.49854 16.3681 2.54654 16.3561C2.54894 16.3489 2.54654 16.3321 2.55374 16.3225C2.56574 16.3057 2.58254 16.2817 2.59934 16.2817C2.73374 16.2793 2.87054 16.2817 3.00494 16.2793C3.06734 16.2793 3.03374 16.3345 3.04814 16.3537C3.09854 16.3609 3.14414 16.3657 3.19454 16.3729C3.18974 16.3777 3.19454 16.3753 3.19454 16.3729C3.20654 16.3129 3.23774 16.3081 3.29054 16.3273C3.39374 16.3657 3.49934 16.3969 3.60254 16.4329C3.68174 16.4617 3.68174 16.4641 3.66014 16.5409C3.70574 16.5601 3.74894 16.5817 3.79694 16.6009C3.80654 16.5889 3.82094 16.5745 3.84254 16.5505C3.96014 16.6417 4.07774 16.7305 4.18814 16.8265C4.20494 16.8409 4.19054 16.8889 4.19054 16.9153C4.21934 16.9441 4.25294 16.9753 4.28654 17.0065C4.28174 17.0113 4.27934 17.0161 4.27454 17.0233C4.28894 17.0137 4.30574 17.0041 4.32974 16.9897C4.38734 17.0761 4.44494 17.1601 4.50014 17.2489C4.52174 17.2825 4.53614 17.3185 4.55774 17.3521C4.57934 17.3857 4.58414 17.4169 4.55774 17.4505C4.55054 17.4601 4.55054 17.4793 4.55534 17.4937C4.56494 17.5249 4.57934 17.5537 4.59374 17.5849C4.60814 17.5825 4.62254 17.5777 4.63934 17.5729C4.64414 17.5777 4.65134 17.5801 4.65134 17.5849C4.68494 17.7313 4.71614 17.8753 4.74974 18.0217C4.75214 18.0313 4.74734 18.0505 4.74014 18.0553C4.67294 18.0985 4.71854 18.1609 4.70894 18.2113C4.80014 18.2953 4.72094 18.3913 4.72334 18.4825C4.72574 18.5401 4.70414 18.6001 4.68734 18.6553C4.67774 18.6841 4.65854 18.7081 4.63934 18.7321C4.62254 18.7537 4.59854 18.8569 4.60574 18.8833C4.61054 18.8953 4.60814 18.9121 4.60094 18.9217C4.53614 19.0417 4.47854 19.1617 4.40654 19.2769C4.37054 19.3321 4.29614 19.3681 4.26974 19.4257C4.19534 19.5817 4.05374 19.6585 3.93134 19.7593C3.89534 19.7881 3.84494 19.7977 3.80894 19.8241C3.67214 19.9225 3.52094 19.9897 3.36014 20.0329C3.30014 20.0497 3.23534 20.0545 3.17534 20.0689C3.04334 20.1001 2.90654 20.1241 2.77214 20.1121C2.66174 20.1025 2.55374 20.0641 2.44574 20.0617C2.32574 20.0593 2.22494 20.0065 2.11694 19.9801C2.03294 19.9585 1.96814 19.9009 1.89374 19.8601C1.74254 19.7785 1.59614 19.6873 1.47614 19.5649C1.43774 19.5265 1.41614 19.4689 1.37774 19.4305C1.27214 19.3273 1.19534 19.2049 1.11854 19.0801C1.06814 18.9961 1.05614 18.9001 1.03454 18.8089C1.03214 18.7945 1.01774 18.7825 1.01054 18.7681C1.00094 18.7513 0.984136 18.7369 0.979336 18.7201C0.952936 18.5833 0.928936 18.4489 0.907336 18.3121C0.904936 18.2905 0.921736 18.2641 0.931336 18.2401C0.928936 18.2545 0.933736 18.2569 0.938536 18.2569Z" fill="currentColor"/>
<path d="M15.7247 16.8335C15.7007 16.6367 15.6791 16.4447 15.6551 16.2455C15.6911 16.2311 15.7319 16.2119 15.7727 16.1999C15.8063 16.1903 15.8135 16.1735 15.8087 16.1447C15.8039 16.0967 15.7823 16.0511 15.8135 16.0031C15.8183 15.9959 15.7799 15.9623 15.7655 15.9455C15.7799 15.9287 15.7991 15.9047 15.8183 15.8807C15.7919 15.8639 15.7679 15.8447 15.7439 15.8279C15.7583 15.8111 15.7799 15.7871 15.8015 15.7631C15.7751 15.7463 15.7487 15.7271 15.7295 15.7151C15.7463 15.6911 15.7655 15.6671 15.7847 15.6431C15.7583 15.6263 15.7319 15.6095 15.7127 15.5951C15.7319 15.5735 15.7535 15.5519 15.7751 15.5279C15.7487 15.5111 15.7247 15.4919 15.7007 15.4751C15.7775 15.3959 15.7775 15.3911 15.6887 15.3647C15.7079 15.3407 15.7271 15.3167 15.7463 15.2903C15.7247 15.2735 15.7007 15.2567 15.6839 15.2447C15.6983 15.2279 15.7175 15.2039 15.7367 15.1823C15.7127 15.1631 15.6887 15.1439 15.6719 15.1319C15.6863 15.1103 15.7055 15.0815 15.7247 15.0551C15.7007 15.0383 15.6767 15.0239 15.6527 15.0095C15.7295 14.9519 15.7319 14.9351 15.6575 14.8967C15.7079 14.8271 15.6911 14.7479 15.6815 14.6711C15.6431 14.3207 15.6047 13.9703 15.5639 13.6199C15.5279 13.2911 15.4919 12.9623 15.4511 12.6335C15.4463 12.5855 15.4607 12.5567 15.5015 12.5399C15.5591 12.5159 15.5687 12.4799 15.5615 12.4199C15.5423 12.2591 15.5303 12.0983 15.5135 11.9375C15.4775 11.5991 15.4415 11.2607 15.4055 10.9223C15.4031 10.8959 15.4031 10.8671 15.3983 10.8407C15.3839 10.7423 15.4247 10.6847 15.5207 10.6535C15.6263 10.6175 15.7151 10.6343 15.8015 10.7087C15.8519 10.7519 15.8375 10.8095 15.8447 10.8575C15.8903 11.2031 15.9311 11.5511 15.9719 11.8967C15.9887 12.0479 16.0055 12.1967 16.0199 12.3479C16.0247 12.4055 16.0343 12.4535 16.0991 12.4727C16.1471 12.4871 16.1615 12.5231 16.1687 12.5711C16.2311 13.0991 16.2935 13.6271 16.3559 14.1551C16.3751 14.3111 16.3895 14.4671 16.4135 14.6207C16.4183 14.6567 16.4447 14.6903 16.4663 14.7215C16.4783 14.7383 16.4975 14.7503 16.5167 14.7671C16.4999 14.7935 16.4759 14.8151 16.4735 14.8391C16.4711 14.8535 16.5047 14.8727 16.5263 14.8943C16.5263 14.8967 16.5239 14.9087 16.5167 14.9135C16.4807 14.9447 16.4687 14.9711 16.5239 14.9975C16.5311 14.9999 16.5311 15.0311 16.5263 15.0407C16.4879 15.0983 16.4855 15.0983 16.5503 15.1295C16.5263 15.1631 16.5071 15.1991 16.5623 15.2231C16.5671 15.2255 16.5695 15.2519 16.5623 15.2591C16.5167 15.2975 16.5383 15.3215 16.5815 15.3455C16.5671 15.3863 16.5407 15.4271 16.5959 15.4583C16.5983 15.4607 16.5935 15.4847 16.5863 15.4895C16.5455 15.5255 16.5479 15.5567 16.6031 15.5807C16.5623 15.6335 16.5815 15.6695 16.6343 15.7007C16.6079 15.7295 16.5959 15.7535 16.6247 15.7919C16.6391 15.8135 16.6247 15.8567 16.6223 15.8903C16.6199 15.9719 16.6271 16.0511 16.6967 16.1063C16.7159 16.1207 16.7399 16.1327 16.7639 16.1327C16.8023 16.1327 16.8143 16.1495 16.8191 16.1831C16.8383 16.3487 16.8599 16.5167 16.8815 16.6823C16.8863 16.7183 16.8719 16.7351 16.8407 16.7375C16.7807 16.7423 16.7615 16.7711 16.7351 16.8287C16.6967 16.9175 16.7063 16.9991 16.7159 17.0879C16.7303 17.1911 16.7447 17.2943 16.7591 17.3975C16.7615 17.4071 16.7687 17.4263 16.7759 17.4263C16.8215 17.4311 16.8143 17.4695 16.8119 17.4935C16.8095 17.5079 16.7807 17.5247 16.7615 17.5319C16.7327 17.5415 16.7039 17.5439 16.7087 17.5895C16.7183 17.6591 16.7159 17.6591 16.7855 17.6471C16.7999 17.6447 16.8143 17.6423 16.8287 17.6423C16.9151 17.6375 16.9271 17.6471 16.9391 17.7335C16.9487 17.8079 16.9583 17.8847 16.9607 17.9591C16.9607 17.9783 16.9463 18.0119 16.9295 18.0191C16.8575 18.0527 16.7807 18.0815 16.7039 18.1031C16.6295 18.1247 16.6223 18.1295 16.6343 18.2039C16.6391 18.2255 16.6343 18.2495 16.6367 18.2735C16.6415 18.3143 16.6463 18.3551 16.6511 18.3959C16.6607 18.4703 16.5983 18.5327 16.5239 18.5423C16.4519 18.5495 16.3919 18.5423 16.3607 18.4895C16.3559 18.4583 16.3535 18.4367 16.3511 18.4127C16.3559 18.3887 16.3751 18.3647 16.3247 18.3479C16.3607 18.3191 16.3583 18.2951 16.3127 18.2807C16.3247 18.2663 16.3319 18.2543 16.3367 18.2495C16.3247 18.2255 16.3175 18.2039 16.3055 18.1775C16.2743 18.1775 16.2311 18.1775 16.1879 18.1775C16.1279 18.1751 16.0655 18.1775 16.0055 18.1703C15.9695 18.1655 15.9407 18.1463 15.9359 18.1007C15.9287 18.0263 15.9167 17.9543 15.9071 17.8823C15.9023 17.8487 15.9095 17.8247 15.9479 17.8223C15.9623 17.8199 15.9743 17.8127 15.9887 17.8103C16.0583 17.7887 16.0967 17.7047 16.0631 17.6399C16.0535 17.6231 16.0223 17.6207 16.0007 17.6111C15.9839 17.6039 15.9575 17.5967 15.9551 17.5823C15.9503 17.5703 15.9695 17.5511 15.9791 17.5319C15.9887 17.5079 16.0079 17.4839 16.0079 17.4599C16.0007 17.3735 16.0223 17.2847 15.9671 17.2031C15.9503 17.1791 15.9551 17.1359 15.9575 17.1023C15.9623 17.0423 15.9719 16.9847 15.9119 16.9439C15.9095 16.9415 15.9047 16.9391 15.9047 16.9367C15.8879 16.8263 15.8015 16.8431 15.7247 16.8335Z" fill="currentColor"/>
<path d="M20.861 18.7873C21.0026 18.7849 21.137 18.7801 21.269 18.7801C21.9218 18.7729 22.5746 18.7633 23.2274 18.7609C23.4458 18.7609 23.6642 18.7801 23.8826 18.7897C23.897 18.7897 23.9138 18.7993 23.9234 18.8089C24.0194 18.9073 24.0242 19.1065 23.9306 19.2121C23.9186 19.2265 23.8898 19.2337 23.8682 19.2337C23.7482 19.2337 23.6306 19.2313 23.5106 19.2289C23.4914 19.2289 23.465 19.2289 23.4554 19.2409C23.4146 19.2889 23.3642 19.2889 23.3066 19.2913C22.6346 19.3081 21.9602 19.3249 21.2882 19.3441C21.1634 19.3465 21.0386 19.3513 20.9138 19.3537C20.8802 19.3537 20.861 19.3609 20.861 19.4017C20.861 19.4617 20.837 19.4833 20.777 19.4809C20.729 19.4785 20.669 19.5049 20.645 19.4353C20.6378 19.4353 20.633 19.4353 20.633 19.4377C20.6186 19.4569 20.609 19.4929 20.5922 19.4953C20.5442 19.5025 20.4938 19.5025 20.4482 19.4905C20.429 19.4857 20.417 19.4425 20.4122 19.4137C20.405 19.3849 20.3978 19.3753 20.3642 19.3777C20.2418 19.3849 20.1194 19.3825 19.997 19.3825C19.2434 19.3873 18.4874 19.3897 17.7338 19.3945C17.7242 19.3945 17.7122 19.3969 17.7026 19.3921C17.5514 19.3297 17.393 19.3633 17.237 19.3489C17.2346 19.3489 17.2322 19.3489 17.2322 19.3489C17.1794 19.3369 17.1146 19.3753 17.0714 19.3153C17.0114 19.2337 16.9778 19.1449 17.0066 19.0417C17.0138 19.0153 17.0258 18.9913 17.0378 18.9673C17.0738 18.8977 17.1242 18.8593 17.2106 18.8641C17.3282 18.8713 17.4458 18.8689 17.5634 18.8617C17.669 18.8569 17.7722 18.8329 17.8778 18.8305C18.3026 18.8185 18.725 18.8113 19.1498 18.8041C19.5506 18.7969 19.9514 18.7921 20.3522 18.7873C20.393 18.7873 20.4146 18.7777 20.4146 18.7321C20.4146 18.6817 20.441 18.6505 20.4962 18.6601C20.513 18.6625 20.5298 18.6625 20.5442 18.6601C20.5802 18.6553 20.6042 18.6673 20.6114 18.7057C20.6138 18.7153 20.6258 18.7249 20.6306 18.7321C20.6378 18.7249 20.6522 18.7177 20.6522 18.7081C20.6642 18.6457 20.669 18.6553 20.7938 18.6553C20.8442 18.6553 20.8418 18.6961 20.849 18.7273C20.8586 18.7465 20.8586 18.7705 20.861 18.7873ZM17.3378 19.1065C17.3426 19.1041 17.345 19.1017 17.3498 19.0993C17.333 19.0705 17.3234 19.0297 17.297 19.0129C17.2682 18.9961 17.2154 19.0585 17.213 19.1041C17.213 19.1113 17.2106 19.1209 17.213 19.1257C17.2298 19.1497 17.249 19.1737 17.2682 19.1953C17.2922 19.1761 17.3162 19.1569 17.3354 19.1353C17.3402 19.1305 17.3378 19.1161 17.3378 19.1065ZM23.8634 19.0009C23.8346 18.9697 23.813 18.9457 23.7914 18.9217C23.7746 18.9481 23.7506 18.9745 23.7434 19.0033C23.7338 19.0441 23.777 19.1017 23.7962 19.0897C23.8202 19.0729 23.837 19.0393 23.8634 19.0009Z" fill="currentColor"/>
<path d="M15.2425 4.17839C15.2833 4.18079 15.3217 4.18079 15.3601 4.18799C15.3817 4.19279 15.3985 4.21199 15.4177 4.22639C15.4249 4.23359 15.4297 4.24559 15.4369 4.25039C15.4993 4.28399 15.5113 4.34399 15.5161 4.40639C15.5617 4.99679 15.6049 5.58719 15.6505 6.17759C15.6889 6.68399 15.7273 7.18799 15.7657 7.69439C15.7753 7.80479 15.7513 7.84799 15.6457 7.88399C15.5857 7.90319 15.5737 7.93199 15.5785 7.99199C15.6145 8.43599 15.6361 8.88239 15.6865 9.32399C15.7033 9.47039 15.7105 9.61919 15.7321 9.76559C15.7369 9.80159 15.7657 9.83519 15.7921 9.86399C15.8305 9.90719 15.8521 9.95519 15.8521 10.0152C15.8521 10.0656 15.8545 10.116 15.8617 10.1664C15.8785 10.2744 15.8281 10.3488 15.7441 10.4016C15.6577 10.4568 15.5641 10.4496 15.4825 10.3968C15.3961 10.3392 15.3337 10.2624 15.3337 10.1496C15.3337 10.104 15.3313 10.0584 15.3265 10.0152C15.3193 9.94799 15.3265 9.88799 15.3625 9.82799C15.3745 9.80879 15.3769 9.77999 15.3769 9.75599C15.3721 9.66959 15.3625 9.58319 15.3553 9.49679C15.3337 9.20399 15.3145 8.91119 15.2905 8.62079C15.2737 8.40959 15.2521 8.20079 15.2329 7.98959C15.2305 7.95839 15.2257 7.93919 15.1873 7.92719C15.1441 7.91519 15.0985 7.89359 15.0625 7.86239C15.0385 7.84079 15.0193 7.80239 15.0169 7.77119C14.9929 7.52159 14.9737 7.27199 14.9545 7.02239C14.8945 6.29759 14.8345 5.57279 14.7769 4.84799C14.7649 4.71599 14.7553 4.58159 14.7433 4.44959C14.7361 4.37039 14.7889 4.28639 14.8609 4.25759C14.8825 4.24799 14.9041 4.23839 14.9281 4.23359C14.9665 4.22639 14.9713 4.20239 14.9713 4.17119C14.9713 4.07999 14.9737 3.98879 14.9713 3.89759C14.9713 3.85679 14.9905 3.84239 15.0265 3.84239C15.0673 3.84239 15.1105 3.83759 15.1513 3.84479C15.1705 3.84719 15.1945 3.87359 15.1993 3.89279C15.2137 3.95039 15.2209 4.01039 15.2281 4.07039C15.2329 4.10399 15.2377 4.13759 15.2425 4.17839ZM15.6073 10.056C15.5449 10.056 15.4777 10.1136 15.4753 10.1688C15.4753 10.2192 15.5425 10.2648 15.6121 10.2648C15.6817 10.2624 15.7489 10.2048 15.7465 10.1496C15.7441 10.1016 15.6745 10.056 15.6073 10.056Z" fill="currentColor"/>
<path d="M4.95581 12.2927C4.95101 12.1967 5.03981 12.1319 5.12861 12.1559C5.16461 12.1655 5.20781 12.1487 5.24621 12.1439C5.27021 12.1415 5.29661 12.1367 5.32301 12.1367C5.36861 12.1367 5.41421 12.1391 5.45981 12.1439C5.49341 12.1463 5.52701 12.1535 5.56061 12.1583C5.58701 12.1631 5.61581 12.1727 5.64221 12.1655C5.69261 12.1511 5.74061 12.1391 5.79101 12.1703C5.81021 12.1823 5.84621 12.1703 5.87501 12.1727C5.90861 12.1751 5.94461 12.1823 5.97821 12.1847C6.01181 12.1871 6.05021 12.1943 6.07901 12.1823C6.11741 12.1679 6.14621 12.1631 6.18701 12.1775C6.21581 12.1871 6.25421 12.1847 6.28301 12.1751C6.32381 12.1607 6.35741 12.1559 6.39821 12.1703C6.41981 12.1775 6.45341 12.1751 6.47261 12.1631C6.51821 12.1391 6.56141 12.1319 6.61181 12.1391C6.64781 12.1439 6.68381 12.1319 6.72221 12.1295C6.75821 12.1271 6.79421 12.1319 6.82781 12.1271C6.86621 12.1223 6.90221 12.1127 6.93821 12.1055C6.96701 12.1007 6.99581 12.0959 7.02461 12.0935C7.05581 12.0887 7.08701 12.0863 7.11821 12.0839C7.15181 12.0815 7.18781 12.0767 7.22141 12.0815C7.27421 12.0911 7.32461 12.0767 7.33901 12.0311C7.34621 12.0095 7.34381 11.9735 7.32941 11.9591C7.25741 11.8775 7.15661 11.8535 7.05581 11.8367C7.04141 11.8343 7.02221 11.8487 7.00541 11.8511C6.97661 11.8583 6.94301 11.8703 6.91661 11.8631C6.86381 11.8487 6.81821 11.8655 6.77021 11.8823C6.74141 11.8919 6.70541 11.8847 6.67181 11.8895C6.64061 11.8919 6.60461 11.8895 6.57821 11.9039C6.53021 11.9303 6.48701 11.9255 6.43661 11.9183C6.40061 11.9111 6.35981 11.9207 6.32141 11.9207C6.29021 11.9207 6.25661 11.9255 6.22781 11.9159C6.18941 11.9015 6.15581 11.9135 6.11981 11.9135C6.00461 11.9159 5.89661 11.9543 5.78141 11.9519C5.75501 11.9519 5.72621 11.9519 5.70461 11.9615C5.65901 11.9807 5.61821 11.9855 5.56781 11.9735C5.53661 11.9663 5.50061 11.9687 5.46941 11.9807C5.39261 12.0095 5.35421 11.9975 5.29901 11.9375C5.27501 11.9111 5.23661 11.8895 5.20061 11.8823C5.13821 11.8655 5.10941 11.8439 5.10461 11.7815C5.09981 11.7359 5.08781 11.6975 5.04941 11.6711C5.01821 11.6471 5.00861 11.6135 5.02061 11.5751C5.03981 11.5199 5.04461 11.4695 5.00141 11.4191C4.98701 11.4023 4.99901 11.3687 4.99421 11.3423C4.98941 11.3039 4.98941 11.2631 4.97501 11.2319C4.95581 11.1887 4.94141 11.1527 4.95581 11.1047C4.96301 11.0783 4.94621 11.0423 4.93901 11.0087C4.93181 10.9727 4.92461 10.9367 4.91981 10.9031C4.91501 10.8551 4.91261 10.8095 4.90781 10.7615C4.90781 10.7591 4.90541 10.7591 4.90541 10.7567C4.92701 10.6487 4.84301 10.5551 4.86701 10.4471C4.87181 10.4231 4.85981 10.3895 4.84541 10.3679C4.81661 10.3223 4.81181 10.2815 4.83821 10.2311C4.85021 10.2047 4.84301 10.1639 4.83341 10.1351C4.82141 10.0991 4.81421 10.0727 4.83341 10.0343C4.84541 10.0103 4.84061 9.96709 4.82861 9.93829C4.80941 9.89029 4.80221 9.84709 4.83101 9.79909C4.84301 9.77989 4.84301 9.74389 4.83341 9.72229C4.80941 9.67669 4.82141 9.63589 4.83581 9.59269C4.84541 9.56629 4.84541 9.53749 4.84541 9.50869C4.84541 9.46549 4.83821 9.42469 4.83821 9.38149C4.83821 9.34549 4.73741 9.18229 4.70381 9.17269C4.58861 9.14149 4.52381 9.22549 4.52621 9.33349C4.52861 9.37909 4.54541 9.42229 4.52621 9.47029C4.51901 9.48709 4.53581 9.51109 4.53821 9.53269C4.54061 9.57829 4.54061 9.62389 4.54061 9.66709C4.54061 9.69349 4.53101 9.71989 4.54061 9.74389C4.55501 9.78949 4.56701 9.83269 4.54301 9.88069C4.53581 9.89509 4.53821 9.92149 4.54541 9.93829C4.56941 9.98389 4.56701 10.0295 4.55021 10.0751C4.55021 10.0775 4.54781 10.0775 4.54781 10.0799C4.55501 10.1735 4.56461 10.2695 4.57181 10.3631C4.57421 10.4039 4.57421 10.4471 4.57421 10.4879C4.57421 10.5191 4.56701 10.5551 4.58141 10.5791C4.60061 10.6127 4.60541 10.6415 4.58861 10.6751C4.56941 10.7111 4.57181 10.7447 4.60061 10.7759C4.63661 10.8143 4.64141 10.8551 4.61741 10.8983C4.60061 10.9319 4.60781 10.9607 4.63181 10.9919C4.64861 11.0135 4.65581 11.0495 4.65341 11.0759C4.64861 11.1263 4.65341 11.1695 4.68221 11.2151C4.69661 11.2367 4.69421 11.2751 4.68701 11.3015C4.67501 11.3423 4.68221 11.3735 4.70141 11.4095C4.71581 11.4335 4.71581 11.4671 4.72061 11.4959C4.73021 11.5415 4.74221 11.5847 4.74941 11.6303C4.75421 11.6615 4.75181 11.6927 4.75181 11.7215C4.75181 11.7551 4.73981 11.7935 4.74701 11.8223C4.76141 11.8727 4.76141 11.9183 4.74221 11.9687C4.73021 11.9975 4.73261 12.0359 4.73501 12.0695C4.74461 12.1775 4.71341 12.2279 4.61741 12.2759C4.58861 12.2903 4.56461 12.3191 4.54781 12.3455C4.50941 12.4151 4.47341 12.4343 4.39421 12.4223C4.35821 12.4175 4.31741 12.4151 4.28381 12.4247C4.21901 12.4415 4.17581 12.4367 4.13741 12.3839C4.10861 12.3455 4.07741 12.3215 4.02701 12.3143C3.97661 12.3071 3.94781 12.2735 3.94781 12.2207C3.94541 12.1655 3.92861 12.1175 3.89261 12.0719C3.87341 12.0479 3.87101 12.0023 3.87821 11.9735C3.88781 11.9303 3.88781 11.8967 3.86621 11.8607C3.84221 11.8223 3.83981 11.7839 3.85181 11.7359C3.86141 11.6999 3.84461 11.6591 3.84461 11.6207C3.84461 11.5847 3.85181 11.5487 3.85181 11.5127C3.85181 11.4863 3.85661 11.4551 3.84701 11.4335C3.82541 11.3879 3.81821 11.3447 3.83261 11.2943C3.84221 11.2631 3.83981 11.2223 3.82781 11.1911C3.81581 11.1527 3.81101 11.1191 3.83501 11.0831C3.85901 11.0495 3.85421 11.0159 3.83261 10.9823C3.80861 10.9439 3.81101 10.9079 3.82061 10.8647C3.82781 10.8263 3.81581 10.7855 3.81581 10.7447C3.81581 10.7111 3.80861 10.6751 3.82061 10.6487C3.83741 10.6127 3.83981 10.5815 3.82301 10.5455C3.80381 10.5071 3.80141 10.4711 3.81341 10.4255C3.82301 10.3919 3.80621 10.3511 3.80621 10.3151C3.80621 10.2863 3.80141 10.2527 3.81101 10.2263C3.82781 10.1831 3.81341 10.1471 3.81101 10.1063C3.80381 10.0031 3.81101 9.89989 3.81101 9.79669C3.81101 9.76309 3.82061 9.72469 3.81341 9.69349C3.80381 9.65269 3.79901 9.61429 3.81581 9.57349C3.82541 9.54469 3.81821 9.50869 3.82061 9.47509C3.82301 9.43909 3.82781 9.40309 3.83021 9.36709C3.83261 9.33589 3.83981 9.30229 3.82781 9.27829C3.80861 9.23749 3.81101 9.20629 3.82541 9.16549C3.83741 9.13669 3.83261 9.10069 3.83501 9.06949C3.83741 9.03589 3.83981 9.00229 3.83981 8.96629C3.84221 8.93509 3.84221 8.90389 3.84221 8.87269C3.84221 8.83429 3.84941 8.79589 3.84461 8.75749C3.83261 8.65189 3.88301 8.55109 3.85661 8.44549C3.85181 8.42389 3.86141 8.39749 3.86381 8.37349C3.86621 8.33989 3.87101 8.30629 3.87341 8.27029C3.87581 8.23669 3.87821 8.20549 3.88061 8.17189C3.88061 8.14309 3.88061 8.11429 3.88061 8.08549C3.88061 8.05909 3.87581 8.03029 3.87821 8.00389C3.88061 7.96309 3.89021 7.92229 3.88781 7.88389C3.88301 7.83109 3.89981 7.78309 3.94061 7.76389C3.98381 7.74469 4.06541 7.76149 4.08941 7.79749C4.09661 7.80709 4.09661 7.82149 4.09901 7.83349C4.10381 7.86229 4.11101 7.88869 4.11341 7.91749C4.11581 7.93909 4.12541 7.96789 4.11341 7.98469C4.08941 8.02549 4.10141 8.06149 4.10381 8.10229C4.10861 8.18629 4.09661 8.27269 4.08941 8.35669C4.08701 8.37829 4.07501 8.39989 4.07981 8.41909C4.09661 8.47429 4.10381 8.52229 4.06541 8.57269C4.05821 8.58229 4.06301 8.61349 4.07261 8.62789C4.09901 8.66149 4.09661 8.69509 4.07741 8.72869C4.05581 8.76709 4.05821 8.80069 4.07261 8.84149C4.08221 8.86789 4.07501 8.90389 4.06301 8.93029C4.04861 8.96149 4.03421 8.99029 4.05821 9.02149C4.08221 9.05269 4.07501 9.08389 4.06301 9.11749C4.05341 9.15109 4.05101 9.18949 4.05341 9.22549C4.05581 9.26389 4.06541 9.29749 4.04141 9.33349C4.02941 9.35029 4.03421 9.38389 4.04381 9.40309C4.06541 9.44389 4.06061 9.47989 4.04861 9.52309C4.03901 9.55429 4.04621 9.59029 4.04621 9.62389C4.04621 9.65509 4.04861 9.69109 4.03901 9.71989C4.02461 9.75349 4.01741 9.77989 4.03901 9.81109C4.06541 9.84709 4.05821 9.88549 4.05101 9.92869C4.03421 10.0151 4.01981 10.1063 4.03181 10.1903C4.04141 10.2527 4.05821 10.3103 4.03661 10.3727C4.03181 10.3847 4.03421 10.3991 4.03901 10.4087C4.06541 10.4639 4.06541 10.5143 4.03661 10.5695C4.03181 10.5815 4.02941 10.6007 4.03661 10.6103C4.07261 10.6607 4.06781 10.7087 4.04621 10.7615C4.04141 10.7759 4.04141 10.7951 4.04861 10.8095C4.07981 10.8647 4.06781 10.9151 4.04621 10.9703C4.03661 10.9943 4.04861 11.0255 4.04861 11.0519C4.05101 11.0903 4.05341 11.1287 4.05581 11.1647C4.05821 11.1983 4.06301 11.2343 4.06541 11.2679C4.06781 11.3015 4.06541 11.3375 4.06781 11.3711C4.06781 11.3999 4.07261 11.4287 4.07261 11.4575C4.07501 11.4935 4.07741 11.5295 4.07741 11.5655C4.07741 11.5775 4.06541 11.5919 4.07021 11.6015C4.10381 11.7335 4.07501 11.8751 4.12781 12.0047C4.17101 12.1103 4.25021 12.1799 4.36781 12.1775C4.45901 12.1751 4.55741 12.1199 4.51181 11.9951C4.50221 11.9711 4.51181 11.9351 4.52621 11.9135C4.55261 11.8751 4.55741 11.8415 4.54061 11.7983C4.52861 11.7719 4.53341 11.7407 4.52861 11.7095C4.52381 11.6711 4.51421 11.6327 4.50941 11.5943C4.50461 11.5559 4.50221 11.5175 4.49741 11.4791C4.49741 11.4719 4.49981 11.4647 4.49981 11.4575C4.47581 11.3591 4.45181 11.2607 4.43021 11.1623C4.42301 11.1239 4.42301 11.0855 4.41821 11.0471C4.41341 11.0135 4.40381 10.9823 4.39901 10.9511C4.39181 10.9127 4.38461 10.8767 4.37981 10.8383C4.37501 10.8095 4.37741 10.7759 4.36781 10.7495C4.34621 10.6967 4.33901 10.6487 4.36061 10.5935C4.37261 10.5647 4.36301 10.5239 4.35341 10.4903C4.33901 10.4447 4.32941 10.4063 4.35581 10.3607C4.36541 10.3439 4.37021 10.3127 4.36061 10.2935C4.33901 10.2455 4.33901 10.2023 4.35101 10.1519C4.35821 10.1255 4.34141 10.0943 4.33901 10.0631C4.33661 10.0271 4.33181 9.98869 4.33901 9.95509C4.34861 9.91909 4.35341 9.89029 4.32941 9.85909C4.30541 9.82789 4.30541 9.79669 4.32221 9.75829C4.33421 9.73189 4.33661 9.69349 4.32461 9.66949C4.30541 9.62629 4.30541 9.58789 4.31501 9.54469C4.32221 9.50869 4.31501 9.47029 4.31261 9.43429C4.31261 9.40549 4.30541 9.37429 4.31501 9.34789C4.33181 9.29989 4.34141 9.25909 4.31741 9.20869C4.28861 9.15109 4.32461 9.08869 4.38221 9.05989C4.41821 9.04309 4.45181 9.01669 4.47581 8.98309C4.52621 8.91589 4.55981 8.90149 4.62941 8.94469C4.67261 8.97109 4.70861 8.98549 4.75901 8.96389C4.80701 8.94469 4.85741 8.98069 4.86701 9.04069C4.87421 9.09109 4.90061 9.11749 4.93661 9.14869C4.96541 9.17269 4.98221 9.21349 4.99661 9.25189C5.01581 9.30229 5.03261 9.35749 5.04461 9.41029C5.05181 9.44149 5.05661 9.47749 5.04701 9.50629C5.03021 9.55189 5.02541 9.59509 5.03981 9.64309C5.04701 9.66469 5.03501 9.69349 5.03261 9.71749C5.03021 9.74389 5.02781 9.77269 5.02781 9.79909C5.02781 9.84229 5.03021 9.88549 5.03261 9.92869C5.03261 9.95029 5.02301 9.98149 5.03261 9.99589C5.06381 10.0391 5.05181 10.0847 5.04701 10.1303C5.04221 10.1639 5.05181 10.1999 5.05421 10.2335C5.05661 10.2647 5.05661 10.2959 5.05901 10.3271C5.06141 10.3535 5.06141 10.3823 5.06621 10.4087C5.06861 10.4183 5.07821 10.4279 5.07821 10.4375C5.09261 10.5431 5.10461 10.6487 5.11661 10.7543C5.11901 10.7783 5.11181 10.8071 5.12141 10.8287C5.14061 10.8815 5.15261 10.9343 5.14061 10.9919C5.13581 11.0135 5.15501 11.0423 5.16461 11.0663C5.16701 11.0735 5.17901 11.0807 5.18141 11.0879C5.19341 11.1767 5.21021 11.2679 5.21021 11.3567C5.21021 11.4119 5.21741 11.4599 5.23421 11.5127C5.25821 11.5775 5.26781 11.6519 5.32781 11.6951C5.35421 11.7143 5.38541 11.7263 5.41661 11.7359C5.44301 11.7455 5.46941 11.7503 5.49581 11.7527C5.52221 11.7551 5.55101 11.7479 5.57741 11.7455C5.60621 11.7431 5.63741 11.7335 5.66141 11.7407C5.69981 11.7527 5.73101 11.7527 5.76701 11.7287C5.79341 11.7119 5.83181 11.7071 5.86301 11.7095C5.91101 11.7119 5.95181 11.7167 5.99501 11.6831C6.01901 11.6663 6.06701 11.6807 6.10301 11.6807C6.14381 11.6807 6.18701 11.6831 6.22781 11.6855C6.24941 11.6855 6.27101 11.6903 6.29261 11.6903C6.33101 11.6903 6.36941 11.6903 6.40541 11.6879C6.43661 11.6855 6.46781 11.6831 6.49901 11.6783C6.53981 11.6735 6.57821 11.6711 6.61901 11.6663C6.65741 11.6639 6.69821 11.6615 6.73661 11.6543C6.77741 11.6471 6.81821 11.6351 6.86141 11.6279C6.87581 11.6255 6.89021 11.6183 6.90221 11.6231C6.95501 11.6423 7.00301 11.6279 7.05581 11.6207C7.09421 11.6159 7.13741 11.6351 7.17581 11.6471C7.20701 11.6567 7.23341 11.6783 7.26221 11.6879C7.34621 11.7143 7.42301 11.7431 7.46381 11.8343C7.47821 11.8631 7.51181 11.8871 7.54061 11.9063C7.61501 11.9567 7.61981 11.9951 7.57901 12.0743C7.56221 12.1055 7.55501 12.1463 7.55741 12.1799C7.56461 12.2855 7.51661 12.3311 7.41581 12.3071C7.37501 12.2975 7.34381 12.3023 7.30541 12.3239C7.27181 12.3431 7.22141 12.3503 7.18301 12.3431C7.14221 12.3359 7.10621 12.3335 7.07021 12.3551C7.03181 12.3767 6.99581 12.3791 6.95261 12.3599C6.93101 12.3503 6.89501 12.3599 6.87341 12.3719C6.82781 12.3983 6.78701 12.4079 6.73421 12.3935C6.70541 12.3863 6.67181 12.3959 6.64061 12.3959C6.59981 12.3983 6.55901 12.4007 6.51821 12.4055C6.48701 12.4079 6.45341 12.4031 6.42701 12.4151C6.37901 12.4367 6.33341 12.4487 6.28061 12.4319C6.27821 12.4319 6.27341 12.4295 6.27101 12.4295C6.16061 12.4679 6.05261 12.4055 5.94221 12.4295C5.90381 12.4391 5.86301 12.4247 5.82221 12.4199C5.80061 12.4175 5.77901 12.4103 5.75981 12.4175C5.70461 12.4367 5.65901 12.4199 5.60861 12.3983C5.58461 12.3887 5.55101 12.3935 5.52461 12.3935C5.48621 12.3935 5.44781 12.3983 5.40941 12.3983C5.36621 12.3983 5.32541 12.3959 5.28221 12.3935C5.25341 12.3935 5.21741 12.4007 5.19341 12.3863C5.15261 12.3647 5.11901 12.3695 5.08061 12.3839C5.01341 12.4175 4.96061 12.3791 4.95581 12.2927Z" fill="currentColor"/>
<path d="M6.57826 18.036C6.55186 18.012 6.56146 17.9928 6.59746 17.9904C6.64066 17.9856 6.68626 17.9904 6.73186 17.9904C6.75106 17.9904 6.77026 17.9904 6.79186 17.9904C6.79666 17.9856 6.79906 17.9808 6.80386 17.976C6.79186 17.964 6.78226 17.9448 6.77026 17.94C6.73666 17.9256 6.70066 17.9184 6.66226 17.9064C6.68866 17.844 6.71026 17.7936 6.73426 17.7408C6.77986 17.6376 6.78946 17.6328 6.89746 17.6544C6.90946 17.712 6.93586 17.7312 7.00546 17.7336C7.57666 17.7384 8.14546 17.7408 8.71666 17.7456C8.99506 17.748 9.27586 17.7528 9.55426 17.7552C9.77506 17.7576 9.99586 17.7552 10.2167 17.7576C10.2671 17.7576 10.2983 17.7432 10.3079 17.688C10.3103 17.6736 10.3343 17.652 10.3487 17.652C10.4903 17.6496 10.4615 17.6208 10.4855 17.7624C10.4927 17.7984 10.4975 17.8344 10.5047 17.868C10.5143 17.9328 10.4903 17.9688 10.4255 17.976C10.3991 17.9784 10.3799 17.9784 10.3775 18.012C10.3751 18.0504 10.4039 18.0432 10.4255 18.0504C10.5383 18.0888 10.6487 18.1296 10.7375 18.216C10.8455 18.3216 10.9031 18.4512 10.9079 18.6C10.9103 18.6816 10.9103 18.7656 10.9031 18.8472C10.9007 18.8712 10.8695 18.9072 10.8455 18.912C10.7903 18.924 10.7303 18.9288 10.6751 18.9192C10.5911 18.9072 10.5719 18.8688 10.5791 18.7824C10.5839 18.7248 10.5887 18.6672 10.5911 18.6096C10.5983 18.4752 10.4879 18.3528 10.3343 18.3432C10.3343 18.408 10.3343 18.4728 10.3343 18.5376C10.3343 18.5856 10.3151 18.6 10.2671 18.6C9.72706 18.5928 9.18466 18.5856 8.64466 18.5808C8.08306 18.576 7.52146 18.5712 6.96226 18.5664C6.88066 18.5664 6.87826 18.5664 6.86386 18.4872C6.85666 18.444 6.84706 18.4008 6.84706 18.36C6.84466 18.3096 6.82066 18.3 6.77746 18.3024C6.72466 18.3072 6.67186 18.3072 6.62146 18.3096C6.58786 18.312 6.56866 18.2976 6.56626 18.2664C6.56146 18.2064 6.55906 18.144 6.55906 18.084C6.55426 18.0672 6.56866 18.0528 6.57826 18.036Z" fill="currentColor"/>
<path d="M11.8056 15.4174C11.328 15.4294 10.6536 15.4438 9.97918 15.4606C9.93358 15.4606 9.89038 15.4798 9.84478 15.4918C9.81838 15.4966 9.79197 15.5062 9.76557 15.5062C9.47517 15.511 9.18478 15.5134 8.89438 15.5134C8.86558 15.5134 8.83437 15.5014 8.81037 15.4846C8.64477 15.3694 8.66877 15.0622 8.76237 14.971C8.78397 14.9494 8.81997 14.9302 8.84877 14.9302C9.13677 14.923 9.42477 14.9182 9.71517 14.9134C9.75117 14.9134 9.78718 14.9206 9.82318 14.9254C9.89038 14.935 9.95758 14.9518 10.0248 14.9518C10.8648 14.9518 11.7072 14.9518 12.5472 14.9494C13.0104 14.947 13.4736 14.9446 13.9392 14.9398C14.0304 14.9398 14.124 14.9398 14.208 14.8942C14.2248 14.8846 14.2464 14.8894 14.2656 14.8894C14.5488 14.8894 14.832 14.8918 15.1152 14.8918C15.1728 14.8918 15.216 14.9158 15.2472 14.9614C15.3312 15.079 15.3264 15.3118 15.2328 15.4198C15.2136 15.4414 15.1776 15.4606 15.1464 15.463C14.8536 15.4702 14.5608 15.4726 14.2704 15.475C14.2368 15.475 14.2008 15.4582 14.1672 15.451C14.1216 15.4414 14.076 15.4222 14.0328 15.4222C13.3584 15.415 12.6816 15.4174 11.8056 15.4174Z" fill="currentColor"/>
<path d="M2.28462 14.592C2.29422 14.5632 2.29902 14.5128 2.31822 14.5056C2.35662 14.4912 2.41182 14.484 2.44782 14.5008C2.47662 14.5128 2.51502 14.5488 2.49102 14.604C2.51742 14.6064 2.53902 14.6064 2.56062 14.6088C2.99502 14.6472 3.42942 14.6112 3.86382 14.616C3.95502 14.616 4.04382 14.6136 4.13502 14.616C4.17582 14.616 4.18782 14.6016 4.19022 14.5632C4.19502 14.4744 4.20222 14.388 4.21182 14.2992C4.21902 14.2368 4.22622 14.2368 4.31022 14.2368C4.36302 14.2368 4.37022 14.2632 4.37262 14.3064C4.37742 14.412 4.36782 14.5248 4.40382 14.6208C4.45902 14.7648 4.46862 14.9112 4.48302 15.06C4.48542 15.0936 4.50222 15.1008 4.53102 15.1008C4.60542 15.0984 4.61742 15.1104 4.61982 15.1848C4.61982 15.2016 4.61982 15.2208 4.61742 15.24C4.61502 15.2832 4.59822 15.312 4.54542 15.3048C4.49742 15.2976 4.47582 15.3168 4.48062 15.3672C4.49262 15.4872 4.46862 15.5976 4.42542 15.7104C4.38942 15.8088 4.37262 15.9168 4.35342 16.02C4.34622 16.0584 4.33182 16.0728 4.29342 16.0728C4.18542 16.0752 4.18542 16.0752 4.17342 15.9696C4.16862 15.9312 4.16622 15.8928 4.17102 15.8568C4.17582 15.8112 4.16382 15.7944 4.11342 15.7944C3.84942 15.7992 3.58542 15.8016 3.32382 15.8064C3.16302 15.8088 3.00222 15.8088 2.84142 15.8136C2.61342 15.8208 2.38542 15.8304 2.15502 15.8376C2.10942 15.84 2.05902 15.84 2.01582 15.828C1.98942 15.8208 1.95822 15.7896 1.95102 15.7632C1.92702 15.6888 1.91742 15.6096 1.89822 15.5328C1.89342 15.5112 1.87902 15.4896 1.86942 15.4704C1.86702 15.4632 1.85742 15.456 1.85742 15.4488C1.85982 15.3864 1.86462 15.324 1.86942 15.264C1.86942 15.2568 1.87422 15.2472 1.87182 15.2424C1.83582 15.1752 1.89582 15.1224 1.89582 15.06C1.89582 14.9952 1.90542 14.9304 1.91502 14.8656C1.91982 14.8272 1.92702 14.7912 1.93662 14.7552C1.96302 14.6544 2.01102 14.6352 2.11422 14.6184C2.16942 14.6088 2.22942 14.616 2.28702 14.616C2.28942 14.604 2.28702 14.5992 2.28462 14.592Z" fill="currentColor"/>
<path d="M13.7833 13.284C13.7833 12.8112 13.7833 12.3384 13.7833 11.8656C13.7833 11.8416 13.7953 11.8152 13.8049 11.7912C13.8073 11.784 13.8265 11.7792 13.8361 11.7816C13.8409 11.7816 13.8481 11.7984 13.8505 11.808C13.8529 11.8464 13.8553 11.8848 13.8553 11.9208C13.8553 12.036 13.9129 12.1104 14.0161 12.1536C14.1241 12.1968 14.2177 12.18 14.2969 12.096C14.3233 12.0672 14.3473 12.0384 14.3929 12.0504C14.4073 12.0552 14.4217 12.0696 14.4313 12.0816C14.4457 12.0984 14.4553 12.1224 14.4721 12.132C14.5417 12.1656 14.6161 12.1776 14.6929 12.1584C14.7745 12.1392 14.8081 12.096 14.8177 12.012C14.8249 11.9544 14.8369 11.8992 14.8537 11.844C14.8633 11.8128 14.8729 11.7744 14.9185 11.7744C14.9641 11.7744 14.9737 11.8152 14.9809 11.8464C15.0025 11.9568 15.0361 12.0648 15.0385 12.1752C15.0529 12.6048 15.0625 13.0368 15.0625 13.4688C15.0625 13.7832 15.0433 14.0952 15.0289 14.4096C15.0265 14.4816 15.0097 14.5536 14.9953 14.6232C14.9881 14.6592 14.9785 14.6952 14.9617 14.7264C14.9473 14.7504 14.9209 14.7816 14.8993 14.7816C14.8777 14.7816 14.8465 14.7504 14.8393 14.7264C14.8201 14.676 14.8105 14.6232 14.8033 14.568C14.7913 14.4456 14.7265 14.3904 14.6017 14.4072C14.5297 14.4168 14.4673 14.448 14.4193 14.5032C14.3929 14.5344 14.3353 14.532 14.3089 14.5008C14.1937 14.3664 13.9729 14.3856 13.8817 14.5368C13.8721 14.5536 13.8697 14.5752 13.8673 14.5944C13.8649 14.64 13.8673 14.688 13.8601 14.7336C13.8577 14.7504 13.8361 14.7744 13.8193 14.7768C13.7905 14.7816 13.7737 14.7624 13.7761 14.7312C13.7761 14.7192 13.7761 14.7048 13.7761 14.6928C13.7761 14.2248 13.7761 13.7544 13.7761 13.2864C13.7833 13.284 13.7833 13.284 13.7833 13.284Z" fill="currentColor"/>
<path d="M12.6359 12.1991C12.5831 12.1847 12.5183 12.0983 12.5159 12.0407C12.5135 11.9927 12.5471 11.9831 12.5831 11.9687C12.6863 11.9327 12.7415 11.8559 12.7319 11.7527C12.7295 11.7359 12.7271 11.7167 12.7199 11.6999C12.3791 10.6967 12.0359 9.69114 11.6975 8.68794C11.4839 8.05434 11.2703 7.42074 11.0591 6.78474C11.0471 6.75114 11.0519 6.71514 11.0495 6.67914C11.0471 6.65514 11.0495 6.63114 11.0423 6.61194C11.0111 6.51114 10.9775 6.40794 10.9463 6.30714C10.9415 6.29034 10.9367 6.27114 10.9391 6.25434C10.9559 6.18234 11.1287 6.11994 11.1911 6.16314C11.2031 6.17274 11.2127 6.19194 11.2175 6.20874C11.2535 6.30954 11.2871 6.41034 11.3231 6.51114C11.3279 6.52554 11.3327 6.54714 11.3447 6.55434C11.4047 6.59034 11.4143 6.65274 11.4335 6.71034C11.9879 8.32554 12.5423 9.94074 13.0943 11.5583C13.1159 11.6207 13.1495 11.6711 13.2047 11.7071C13.2599 11.7407 13.3151 11.7431 13.3751 11.7143C13.4423 11.6831 13.4591 11.6903 13.4831 11.7599C13.4999 11.8127 13.5335 11.8655 13.5095 11.9255C13.5047 11.9399 13.5167 11.9591 13.5215 11.9759C13.5695 12.1199 13.6199 12.2639 13.6679 12.4055C13.6919 12.4751 13.6223 12.5495 13.5503 12.5327C13.5143 12.5231 13.4759 12.5135 13.4423 12.4967C13.4255 12.4895 13.4135 12.4679 13.4063 12.4487C13.3607 12.3191 13.3175 12.1895 13.2695 12.0599C13.2647 12.0431 13.2431 12.0215 13.2311 12.0239C13.1975 12.0287 13.1975 12.0527 13.2071 12.0815C13.2599 12.2399 13.3103 12.3959 13.3655 12.5543C13.3799 12.5951 13.3679 12.6071 13.3343 12.6287C13.2599 12.6719 13.1927 12.6599 13.1279 12.6143C13.1111 12.6023 13.0991 12.5831 13.0919 12.5639C13.0439 12.4367 13.0007 12.3095 12.9551 12.1823C12.9479 12.1607 12.9527 12.1175 12.9095 12.1343C12.8711 12.1463 12.8735 12.1799 12.8831 12.2111C12.9047 12.2831 12.9287 12.3551 12.9527 12.4271C12.9815 12.5159 13.0055 12.6023 13.0367 12.6911C13.0487 12.7247 13.0391 12.7439 13.0055 12.7511C12.9743 12.7583 12.9431 12.7679 12.9095 12.7703C12.8639 12.7703 12.8255 12.7559 12.8063 12.7079C12.7535 12.5687 12.6983 12.4295 12.6479 12.2879C12.6359 12.2567 12.6383 12.2255 12.6359 12.1991Z" fill="currentColor"/>
<path d="M7.52884 6.00728C7.03204 6.02888 6.53764 6.04808 6.04084 6.07208C5.64964 6.09128 5.29204 6.21368 4.97284 6.44648C4.65124 6.68168 4.44724 6.99128 4.37284 7.38488C4.36324 7.44248 4.35364 7.50008 4.33684 7.55288C4.32964 7.57928 4.30804 7.61048 4.28404 7.61768C4.15924 7.66088 4.03684 7.63688 3.92644 7.56968C3.90724 7.55768 3.88804 7.51688 3.89284 7.49288C3.93844 7.22168 3.98884 6.95048 4.13284 6.71048C4.44484 6.18728 4.89364 5.83928 5.48644 5.67848C5.77684 5.59928 6.07204 5.59688 6.36484 5.57528C7.13044 5.52008 7.89844 5.52248 8.66404 5.52248C8.77684 5.52248 8.88724 5.52488 9.00004 5.52488C9.06964 5.52488 9.12964 5.56328 9.14884 5.62808C9.17764 5.72408 9.18004 5.82488 9.14644 5.92088C9.11524 6.00488 9.08164 6.02648 8.99284 6.02408C8.61604 6.01928 8.23924 6.01208 7.86244 6.00968C7.74964 6.00728 7.63924 6.00968 7.52644 6.00968C7.52884 6.00968 7.52884 6.00968 7.52884 6.00728Z" fill="currentColor"/>
<path d="M5.58959 15.4751C6.14159 15.4775 6.59279 15.9287 6.59279 16.4807C6.59279 17.0375 6.13679 17.4887 5.57999 17.4839C5.02799 17.4815 4.58159 17.0279 4.58399 16.4735C4.58159 15.9239 5.03759 15.4727 5.58959 15.4751ZM5.59679 16.7687C5.77439 16.7591 5.93279 16.6175 5.91839 16.4687C5.89679 16.2671 5.77919 16.1399 5.56319 16.1519C5.41199 16.1615 5.24879 16.3223 5.26079 16.4615C5.27999 16.6535 5.37839 16.7807 5.59679 16.7687Z" fill="currentColor"/>
<path d="M2.38815 6.18964C2.38815 6.26644 2.38815 6.34324 2.38815 6.42004C2.40495 8.07604 2.42175 9.73204 2.43615 11.388C2.43615 11.4024 2.43615 11.4168 2.43615 11.4312C2.43375 11.4768 2.45055 11.5032 2.50335 11.4984C2.50575 11.4984 2.51055 11.4984 2.51295 11.4984C2.52975 11.5056 2.54415 11.5152 2.55855 11.5248C2.54415 11.532 2.52975 11.544 2.51535 11.5464C2.45775 11.5536 2.40015 11.5584 2.34255 11.5608C2.29935 11.5632 2.28015 11.5776 2.28255 11.6232C2.28735 11.6736 2.29215 11.7264 2.28975 11.7768C2.28735 11.8056 2.26815 11.8344 2.26575 11.8632C2.25855 11.9232 2.25375 11.9808 2.25135 12.0408C2.25135 12.0816 2.22975 12.096 2.19615 12.1008C2.16495 12.1032 2.13375 12.1032 2.10495 12.0984C2.02335 12.084 2.01135 12.0648 2.01855 11.9808C2.02335 11.9112 2.01615 11.8392 2.01855 11.7672C2.02095 11.7168 2.03535 11.6664 2.04255 11.6136C2.04975 11.5704 2.03295 11.5512 1.98735 11.5488C1.91775 11.5464 1.85055 11.5392 1.78335 11.532C1.76655 11.5296 1.75215 11.52 1.73535 11.5128C1.73775 11.508 1.74015 11.5008 1.74015 11.496C1.78095 11.496 1.82175 11.4936 1.86255 11.496C1.90815 11.5008 1.92495 11.484 1.92495 11.436C1.92735 10.9248 1.92975 10.4136 1.93215 9.90484C1.93935 8.78884 1.94415 7.67044 1.95135 6.55444C1.95135 6.47764 1.95375 6.40324 2.01615 6.34324C2.02575 6.33364 2.02095 6.30724 2.01615 6.28804C2.00415 6.22804 2.01375 6.16564 2.05455 6.11044C2.09775 6.04804 2.16495 6.05764 2.19375 6.12724C2.20335 6.15124 2.20815 6.18004 2.22015 6.20404C2.22975 6.22804 2.24895 6.26644 2.26095 6.26644C2.29215 6.26404 2.32335 6.24484 2.35215 6.22804C2.36415 6.22084 2.36895 6.20404 2.37615 6.18964C2.38095 6.18964 2.38575 6.18964 2.38815 6.18964Z" fill="currentColor"/>
<path d="M10.9414 5.29899C10.9486 5.29899 10.9558 5.30379 10.9654 5.30379C11.0638 5.30379 11.0542 5.29899 11.0566 5.40219C11.059 5.46459 11.0518 5.52939 11.0566 5.59179C11.0638 5.67579 11.0782 5.75979 11.0926 5.84139C11.095 5.85099 11.1142 5.86059 11.1286 5.86299C11.1646 5.87019 11.2006 5.87499 11.2342 5.88219C11.2678 5.88939 11.2846 5.91099 11.2846 5.94699C11.287 5.98539 11.2606 5.99259 11.2342 5.99739C11.1454 6.01179 11.0566 6.02619 10.9678 6.03579C10.5166 6.07899 10.063 6.07179 9.60938 6.04539C9.49658 6.03819 9.38378 6.01899 9.27098 6.00459C9.24458 6.00219 9.21338 5.99979 9.21338 5.95659C9.21338 5.91339 9.23738 5.89899 9.27098 5.89179C9.31658 5.88219 9.36218 5.87259 9.40778 5.86299C9.41738 5.77659 9.44858 5.68539 9.43418 5.60379C9.41978 5.52219 9.43898 5.44539 9.43178 5.36859C9.42698 5.32059 9.44858 5.30379 9.49418 5.30619C9.51098 5.30619 9.53018 5.30379 9.54938 5.30379C9.54698 5.26059 9.53978 5.21739 9.54218 5.17659C9.54218 5.14539 9.55658 5.11179 9.55898 5.08059C9.56378 5.00139 9.56858 4.91979 9.57098 4.84059C9.57338 4.77819 9.57578 4.71579 9.57818 4.65339C9.57818 4.62939 9.58058 4.60539 9.58058 4.58139C9.57818 4.53339 9.60458 4.48539 9.65258 4.47579C9.73418 4.45899 9.81578 4.44459 9.89738 4.43499C10.1806 4.40859 10.4638 4.41099 10.7446 4.44939C10.8094 4.45899 10.879 4.46859 10.9006 4.54299C10.9126 4.58619 10.915 4.63179 10.915 4.67739C10.915 4.73739 10.9054 4.79499 10.9102 4.85499C10.915 4.93419 10.9294 5.01339 10.939 5.09259C10.9414 5.12619 10.9342 5.15979 10.9342 5.19339C10.9342 5.22699 10.939 5.26059 10.9414 5.29899Z" fill="currentColor"/>
<path d="M12.072 13.913C12.072 13.6586 12.072 13.4042 12.072 13.1498C12.072 13.0826 12.0792 13.0826 12.144 13.0802C12.2424 13.0778 12.3432 13.0658 12.4416 13.0682C12.5376 13.0706 12.636 13.0922 12.732 13.0946C12.9648 13.0994 13.1976 13.097 13.4304 13.0946C13.476 13.0946 13.4904 13.1066 13.488 13.1522C13.4832 13.2242 13.4832 13.2962 13.488 13.3682C13.488 13.385 13.5072 13.3994 13.5144 13.4162C13.524 13.4354 13.536 13.457 13.536 13.4762C13.5336 13.7666 13.5312 14.057 13.5288 14.3474C13.5288 14.3762 13.5288 14.405 13.5288 14.4338C13.5288 14.4602 13.5288 14.4842 13.4928 14.489C13.4832 14.4914 13.4736 14.5154 13.4736 14.5322C13.4712 14.5946 13.4736 14.6546 13.4736 14.717C13.4736 14.7482 13.464 14.7578 13.4328 14.7578C13.1808 14.7554 12.9264 14.7554 12.6744 14.7554C12.4968 14.7554 12.3168 14.753 12.1392 14.753C12.0576 14.753 12.0576 14.753 12.0576 14.6738C12.0576 14.4218 12.0576 14.1698 12.0576 13.9154C12.06 13.913 12.0648 13.913 12.072 13.913Z" fill="currentColor"/>
<path d="M8.38073 16.1258C8.42153 16.1258 8.46233 16.1258 8.50313 16.1258C8.53673 16.1258 8.55353 16.1354 8.55353 16.1714C8.54873 16.4066 8.54393 16.6394 8.53913 16.8746C8.53913 16.8938 8.51513 16.9106 8.50793 16.9322C8.47913 17.0162 8.40233 16.997 8.33753 17.0066C8.34473 17.057 8.36633 17.105 8.31833 17.1434C8.31353 17.1482 8.32073 17.1698 8.32553 17.1818C8.36153 17.2442 8.35193 17.2754 8.29433 17.3162C8.27753 17.3282 8.26553 17.3546 8.26313 17.3738C8.26313 17.4122 8.24393 17.4242 8.21273 17.4194C8.18393 17.4146 8.14553 17.4218 8.14793 17.369C8.14793 17.3522 8.13353 17.3186 8.12153 17.3162C8.05673 17.3018 8.07833 17.2562 8.07833 17.2178C8.07833 17.1794 8.07833 17.1434 8.08073 17.105C8.08313 17.0786 8.08553 17.0498 8.08793 17.0186C7.94153 17.0186 7.79033 17.0186 7.63433 17.0186C7.65353 17.0738 7.67513 17.1218 7.61033 17.141C7.61993 17.1842 7.62713 17.2226 7.63433 17.2586C7.63913 17.2874 7.63433 17.309 7.60313 17.3234C7.58873 17.3306 7.58393 17.3618 7.58153 17.3834C7.57913 17.4098 7.57433 17.4338 7.54313 17.4314C7.51193 17.4266 7.47353 17.4218 7.45193 17.4026C7.42793 17.381 7.41113 17.3426 7.40153 17.309C7.38473 17.2586 7.40633 17.2154 7.43273 17.1746C7.43753 17.1698 7.43993 17.165 7.44713 17.1554C7.38233 17.1218 7.38953 17.0738 7.41833 17.0114C7.38713 17.009 7.36313 17.0066 7.33913 17.0066C7.29353 17.0066 7.26953 16.9898 7.26953 16.9394C7.27193 16.6826 7.27433 16.4282 7.27433 16.1714C7.27433 16.1258 7.29113 16.1114 7.33673 16.1114C7.41353 16.1114 7.41353 16.109 7.41353 16.0322C7.41353 15.7658 7.41353 15.4994 7.41833 15.2306C7.41833 15.1706 7.43753 15.1082 7.45913 15.053C7.47113 15.0266 7.51193 15.0026 7.54313 15.0002C7.61033 14.9906 7.67513 14.9858 7.74233 14.969C7.85753 14.9378 7.97993 14.9402 8.09513 15.0002C8.13833 15.0218 8.19833 15.0146 8.24873 15.017C8.35673 15.0194 8.38073 15.041 8.38073 15.1466C8.38073 15.4658 8.37833 15.785 8.37593 16.1042C8.37833 16.1066 8.38073 16.1114 8.38073 16.1258Z" fill="currentColor"/>
<path d="M9.84241 9.56631C9.86881 9.57591 9.88321 9.58551 9.90001 9.58551C10.0584 9.58071 10.2264 9.69831 10.272 9.85431C10.2888 9.91431 10.3152 9.96471 10.3656 10.0031C10.3992 10.0271 10.428 10.0583 10.4544 10.0895C10.4736 10.1135 10.4952 10.1519 10.4904 10.1759C10.4736 10.2431 10.5096 10.2455 10.5576 10.2575C10.68 10.2887 10.8024 10.3271 10.9248 10.3631C10.9392 10.3679 10.9512 10.3799 10.9656 10.3871C10.9992 10.4063 11.0352 10.4231 11.0688 10.4399C11.1 10.4567 11.1432 10.4663 11.1432 10.5215C11.1144 10.5071 11.0928 10.4951 11.0712 10.4831C11.0664 10.4879 11.0616 10.4927 11.0568 10.4999C11.0784 10.5239 11.1 10.5503 11.1216 10.5743C11.1168 10.5791 11.1144 10.5839 11.1096 10.5887C11.0832 10.5695 11.0472 10.5575 11.0352 10.5311C10.9944 10.4447 10.9176 10.4039 10.8408 10.3751C10.728 10.3319 10.6104 10.3079 10.4928 10.2791C10.4784 10.2767 10.4544 10.2863 10.4472 10.2983C10.4136 10.3439 10.3944 10.3871 10.4064 10.4567C10.4208 10.5431 10.4616 10.5935 10.5144 10.6511C10.56 10.6991 10.6032 10.7471 10.6464 10.7951C10.7064 10.7567 10.764 10.7735 10.7712 10.8311C10.7784 10.9055 10.8288 10.9415 10.8744 10.9847C10.8912 10.9991 10.908 11.0231 10.908 11.0423C10.9056 11.0879 10.932 11.1095 10.9608 11.1359C11.0088 11.1791 11.0568 11.2223 11.1072 11.2631C11.1384 11.2895 11.1456 11.3183 11.1216 11.3471C11.0856 11.3951 11.0448 11.4407 11.0016 11.4839C10.9776 11.5079 10.9536 11.4935 10.9296 11.4743C10.8744 11.4263 10.8216 11.3807 10.764 11.3351C10.7472 11.3231 10.7208 11.3231 10.6992 11.3159C10.68 11.3111 10.6584 11.3063 10.6416 11.2967C10.6104 11.2751 10.584 11.2487 10.5528 11.2271C10.536 11.2175 10.512 11.2127 10.4928 11.2151C10.452 11.2199 10.4016 11.1767 10.4016 11.1335C10.4016 11.1143 10.3944 11.0879 10.38 11.0759C10.332 11.0327 10.284 10.9895 10.2288 10.9559C10.1832 10.9271 10.128 10.9103 10.08 10.8839C10.0488 10.8887 10.0224 10.9271 9.98161 10.8863C9.96721 10.8695 9.88561 10.9367 9.89521 10.9607C9.90721 10.9943 9.91681 11.0327 9.96241 11.0423C10.0056 11.0519 10.0488 11.0687 10.0896 11.0879C10.1952 11.1383 10.236 11.2703 10.176 11.3567C10.1496 11.3927 10.1184 11.4143 10.0704 11.4071C10.02 11.3999 9.98401 11.3759 9.97201 11.3279C9.95521 11.2655 9.94081 11.2007 9.92881 11.1383C9.91921 11.0831 9.89521 11.0567 9.83281 11.0519C9.66721 11.0351 9.50161 11.0063 9.33841 10.9847C9.32881 10.9823 9.31681 10.9799 9.30721 10.9775C9.19921 10.9391 9.15361 10.8671 9.26641 10.7567C9.31441 10.7111 9.31441 10.6943 9.26161 10.6535C9.25201 10.6607 9.24001 10.6703 9.22321 10.6823C9.17041 10.6223 9.11761 10.5647 9.06721 10.5071C8.92081 10.5527 8.87281 10.6871 8.78161 10.7759C8.75281 10.8047 8.73121 10.8335 8.68801 10.8215C8.64241 10.8095 8.57041 10.7447 8.57281 10.7111C8.57281 10.6943 8.58481 10.6727 8.59441 10.6583C8.70001 10.5143 8.81041 10.3751 8.91121 10.2287C8.95681 10.1615 8.98561 10.0823 9.03121 10.0127C9.08881 9.92151 9.15361 9.83511 9.22081 9.75111C9.25441 9.70791 9.30001 9.67191 9.34561 9.64071C9.46561 9.56151 9.55201 9.45111 9.64321 9.34551C9.66241 9.32391 9.67921 9.29991 9.69841 9.28071C9.70801 9.27111 9.72721 9.25671 9.73681 9.25911C9.78721 9.27831 9.81361 9.24231 9.84001 9.21111C9.85441 9.19431 9.87121 9.17511 9.88561 9.15831C9.93121 9.10551 9.94801 9.10311 10.0032 9.14391C10.0224 9.15831 10.0392 9.17511 10.0536 9.19191C10.0848 9.22551 10.0848 9.25431 10.0536 9.29031C9.98641 9.38151 9.91921 9.47031 9.84241 9.56631ZM10.0128 9.78711C9.98401 9.81351 9.96001 9.83271 9.94081 9.85671C9.84721 9.96231 9.84721 9.96471 9.95041 10.0559C10.0728 10.1663 10.1976 10.2743 10.3248 10.3871C10.3656 10.3367 10.4064 10.2911 10.4424 10.2407C10.4712 10.2023 10.4784 10.1567 10.44 10.1183C10.3896 10.0679 10.3392 10.0175 10.2864 9.96951C10.2768 9.96231 10.2552 9.96951 10.224 9.96951C10.1616 9.91431 10.0872 9.84951 10.0128 9.78711ZM9.65521 11.0015C9.65761 10.9967 9.66001 10.9895 9.66241 10.9847C9.58561 10.9199 9.50641 10.8527 9.42961 10.7879C9.42241 10.7831 9.40321 10.7783 9.40081 10.7831C9.36241 10.8407 9.32881 10.7975 9.29281 10.7735C9.28801 10.7831 9.28321 10.7927 9.27841 10.7975C9.21361 10.8767 9.22321 10.9247 9.31921 10.9463C9.42961 10.9727 9.54241 10.9847 9.65521 11.0015ZM9.95041 11.0783C9.96721 11.1623 9.97681 11.2415 10.0008 11.3159C10.0104 11.3447 10.0488 11.3759 10.08 11.3831C10.1016 11.3879 10.1376 11.3591 10.1568 11.3375C10.1904 11.2943 10.1808 11.2175 10.14 11.1719C10.092 11.1167 10.0272 11.0927 9.95041 11.0783Z" fill="currentColor"/>
<path d="M0.0168 15.4394C0.036 15.0506 0.0504 14.5706 0.0888 14.0906C0.1248 13.6394 0.2664 13.2194 0.5568 12.8594C0.7944 12.5642 1.092 12.3674 1.4688 12.305C1.536 12.293 1.5672 12.305 1.5864 12.365C1.6176 12.4562 1.6248 12.5522 1.6032 12.6482C1.596 12.6866 1.5768 12.7058 1.536 12.713C1.1904 12.761 0.9288 12.9434 0.7512 13.2386C0.6744 13.3658 0.6096 13.5026 0.5544 13.6394C0.444 13.9106 0.4344 14.1986 0.4272 14.4866C0.408 15.3122 0.3936 16.1378 0.3792 16.9658C0.3792 17.021 0.36 17.0618 0.312 17.0762C0.2568 17.093 0.1968 17.1074 0.1392 17.1026C0.0408 17.093 0 17.0402 0 16.9418C0.0048 16.4714 0.0096 15.9986 0.0168 15.4394Z" fill="currentColor"/>
<path d="M1.03896 16.488C1.03896 16.3944 1.03896 16.3128 1.03896 16.2336C1.03896 16.1976 1.04376 16.164 0.993361 16.1736C0.988561 16.1664 0.986161 16.1616 0.986161 16.1592C0.998161 16.092 0.971761 16.0416 0.923761 15.9936C0.858961 15.924 0.834961 15.84 0.834961 15.744C0.839761 15.1776 0.842161 14.6112 0.844561 14.0472C0.844561 13.9104 0.875761 13.7832 0.976561 13.6824C0.995761 13.6632 1.01496 13.6416 1.03896 13.6344C1.07496 13.6224 1.07976 13.6032 1.07976 13.5696C1.07736 13.524 1.07736 13.476 1.07736 13.428C1.07736 13.3728 1.09896 13.356 1.16376 13.3512C1.21176 13.3488 1.25016 13.3728 1.25496 13.416C1.25976 13.4688 1.25736 13.524 1.26216 13.5768C1.26216 13.5912 1.27176 13.6152 1.28376 13.62C1.40616 13.6728 1.46376 13.776 1.48776 13.896C1.50936 14.0112 1.50936 14.1288 1.51416 14.2464C1.52856 14.736 1.53576 15.2256 1.55256 15.7152C1.55736 15.84 1.53096 15.9384 1.43736 16.0248C1.41576 16.044 1.41576 16.0872 1.41096 16.1184C1.40856 16.1424 1.41816 16.1688 1.38216 16.176C1.37256 16.1784 1.36536 16.2048 1.36536 16.2216C1.36296 16.2936 1.36296 16.3656 1.36536 16.4376C1.36536 16.4664 1.35816 16.4856 1.32936 16.4856C1.23336 16.488 1.13736 16.488 1.03896 16.488Z" fill="currentColor"/>
<path d="M11.3496 13.0894C11.4792 13.0966 11.6256 13.1254 11.7528 13.2142C11.7744 13.2286 11.8056 13.2262 11.8296 13.2382C11.8608 13.255 11.904 13.2694 11.9184 13.2982C11.9448 13.3534 11.964 13.4182 11.9688 13.4782C11.9784 13.591 11.9712 13.7062 11.976 13.819C11.976 13.8598 11.988 13.9006 11.9928 13.9414C11.9952 13.9606 12.0024 13.9846 11.9976 13.999C11.9592 14.0926 11.988 14.1934 11.9736 14.287C11.9592 14.3878 11.9304 14.479 11.82 14.5246C11.6976 14.5774 11.58 14.6398 11.4456 14.6614C11.3256 14.6806 11.2128 14.671 11.1048 14.611C11.0304 14.5702 10.956 14.5294 10.8816 14.491C10.86 14.479 10.8336 14.4742 10.8096 14.4694C10.7256 14.4502 10.6872 14.4022 10.6896 14.323C10.6968 14.023 10.704 13.7254 10.7088 13.4254C10.7112 13.3198 10.7472 13.2766 10.8504 13.2526C10.8696 13.2478 10.8864 13.2382 10.9032 13.2262C11.028 13.1398 11.1864 13.087 11.3496 13.0894Z" fill="currentColor"/>
<path d="M7.88153 14.3423C7.81193 14.3447 7.79993 14.3039 7.80473 14.2463C7.80713 14.2151 7.80233 14.1863 7.79993 14.1527C7.73993 14.1407 7.68233 14.1311 7.62473 14.1143C7.51673 14.0855 7.48313 14.0423 7.48073 13.9295C7.47593 13.7735 7.46873 13.6199 7.46153 13.4639C7.46153 13.4471 7.45913 13.4279 7.44953 13.4111C7.38953 13.2959 7.42552 13.1855 7.47112 13.0775C7.50233 13.0055 7.57913 12.9911 7.64633 12.9791C7.76393 12.9599 7.73992 12.9671 7.74232 12.8687C7.74232 12.8135 7.74233 12.7607 7.74473 12.7055C7.74473 12.6911 7.75673 12.6671 7.76873 12.6647C7.88873 12.6359 8.01113 12.6263 8.13113 12.6551C8.23193 12.6767 8.22953 12.6815 8.22713 12.7895C8.22713 12.8375 8.22713 12.8831 8.22473 12.9311C8.22473 12.9623 8.23433 12.9767 8.26553 12.9815C8.29913 12.9863 8.33273 12.9959 8.36393 13.0055C8.48873 13.0415 8.52233 13.0847 8.53913 13.2431C8.54633 13.3055 8.56793 13.3679 8.51273 13.4207C8.50793 13.4255 8.51033 13.4423 8.51033 13.4519C8.51273 13.6103 8.51513 13.7687 8.51993 13.9271C8.52233 14.0231 8.48393 14.0759 8.38793 14.1047C8.33993 14.1191 8.28953 14.1311 8.24153 14.1383C8.20313 14.1431 8.19353 14.1623 8.19833 14.1959C8.20073 14.2199 8.20552 14.2463 8.20073 14.2703C8.19832 14.2895 8.18633 14.3159 8.17193 14.3207C8.12153 14.3351 8.12393 14.3711 8.12393 14.4119C8.12633 14.4599 8.12393 14.5079 8.11673 14.5559C8.11433 14.5703 8.09753 14.5943 8.08313 14.5967C8.03273 14.6039 7.98233 14.6063 7.93433 14.6015C7.91753 14.5991 7.89593 14.5703 7.89353 14.5535C7.88873 14.4863 7.88633 14.4191 7.88153 14.3423Z" fill="currentColor"/>
<path d="M11.5946 12.9357C11.213 12.9357 10.9058 12.6285 10.9058 12.2469C10.9058 11.8701 11.2154 11.5605 11.5922 11.5605C11.9714 11.5605 12.281 11.8677 12.281 12.2445C12.281 12.6285 11.9762 12.9357 11.5946 12.9357Z" fill="currentColor"/>
<path d="M2.53442 12.4848C2.48162 12.588 2.54402 12.6888 2.52242 12.792C2.54162 12.7968 2.55122 12.7968 2.56082 12.7992C2.63282 12.8136 2.67122 12.8664 2.63522 12.9288C2.60642 12.9792 2.60882 13.0224 2.61122 13.0752C2.61602 13.1664 2.61122 13.2552 2.60882 13.3464C2.60642 13.476 2.60162 13.6032 2.59682 13.7328C2.59442 13.8072 2.58722 13.8816 2.58962 13.9584C2.59202 14.004 2.60642 14.0472 2.61362 14.0928C2.62562 14.1672 2.63042 14.2368 2.54882 14.2656C2.33282 14.34 2.11442 14.3472 1.89602 14.2776C1.81202 14.2512 1.77842 14.1816 1.79522 14.0952C1.80482 14.0496 1.81442 14.0016 1.81442 13.9536C1.81682 13.824 1.81442 13.6944 1.81442 13.5624C1.81442 13.3728 1.81682 13.1856 1.81442 12.996C1.81442 12.9624 1.79522 12.9264 1.79522 12.8928C1.79282 12.828 1.80962 12.8088 1.87442 12.8016C1.90802 12.7968 1.91042 12.78 1.91042 12.7536C1.90802 12.6672 1.90562 12.5784 1.90562 12.492C1.90562 12.4824 1.91762 12.468 1.92482 12.4656C2.12162 12.4416 2.32082 12.4272 2.51762 12.4752C2.52482 12.4752 2.52962 12.4824 2.53442 12.4848Z" fill="currentColor"/>
<path d="M10.3346 16.5791C10.3346 16.9703 10.0202 17.2847 9.62898 17.2823C9.24018 17.2799 8.92818 16.9679 8.92578 16.5791C8.92578 16.1903 9.24258 15.8711 9.63138 15.8711C10.0226 15.8735 10.3346 16.1855 10.3346 16.5791ZM9.62418 16.8359C9.77538 16.8359 9.89778 16.7111 9.89778 16.5575C9.89538 16.4087 9.77538 16.2839 9.62658 16.2815C9.47778 16.2791 9.35058 16.4063 9.35058 16.5575C9.34818 16.7111 9.47298 16.8359 9.62418 16.8359Z" fill="currentColor"/>
<path d="M17.6856 18.4609C17.6928 18.5065 17.7023 18.5665 17.6279 18.5977C17.5391 18.6337 17.4527 18.6409 17.3711 18.5857C17.3567 18.5761 17.3495 18.5521 17.3471 18.5353C17.3255 18.3433 17.2847 18.1513 17.2919 17.9593C17.3063 17.6377 17.2583 17.3209 17.2391 17.0017C17.2103 16.5121 17.1719 16.0225 17.1287 15.5329C17.1191 15.4129 17.0783 15.2929 17.0615 15.1729C17.0447 15.0577 17.0375 14.9401 17.0255 14.8225C17.0183 14.7433 17.0087 14.6641 17.0063 14.5849C17.0063 14.5609 17.0159 14.5321 17.0327 14.5129C17.0951 14.4457 17.2415 14.4241 17.3183 14.4745C17.3375 14.4865 17.3567 14.5153 17.3591 14.5369C17.3783 14.7241 17.4095 14.9113 17.4095 15.0961C17.4119 15.7105 17.4935 16.3177 17.5295 16.9297C17.5439 17.1745 17.5631 17.4193 17.5871 17.6641C17.5943 17.7481 17.6255 17.8321 17.6447 17.9137C17.6471 17.9257 17.6495 17.9377 17.6495 17.9521C17.6615 18.1153 17.6736 18.2809 17.6856 18.4609Z" fill="currentColor"/>
<path d="M6.33826 13.2791C6.34066 13.3703 6.30226 13.4495 6.25186 13.5263C6.23026 13.5599 6.21346 13.6031 6.20386 13.6439C6.18466 13.7303 6.13906 13.7927 6.05506 13.8119C5.94706 13.8383 5.84626 13.8767 5.74546 13.9223C5.66866 13.9583 5.59666 13.9343 5.52226 13.9007C5.45506 13.8695 5.38786 13.8431 5.31586 13.8263C5.21266 13.7999 5.14546 13.7303 5.12626 13.6247C5.11666 13.5791 5.09746 13.5311 5.06866 13.4951C4.98226 13.3943 4.95346 13.1663 5.06866 13.0559C5.09986 13.0271 5.11666 12.9791 5.12866 12.9383C5.15746 12.8255 5.22226 12.7559 5.33746 12.7415C5.42146 12.7295 5.49586 12.7007 5.57026 12.6599C5.64706 12.6191 5.73106 12.6191 5.80546 12.6695C5.87026 12.7127 5.94226 12.7391 6.02146 12.7511C6.14626 12.7679 6.20386 12.8399 6.22066 12.9623C6.22786 13.0079 6.25426 13.0535 6.28066 13.0895C6.32146 13.1495 6.34306 13.2071 6.33826 13.2791Z" fill="currentColor"/>
<path d="M6.9886 16.8023C6.9814 16.8647 6.9742 16.9223 6.9718 16.9799C6.9694 17.0207 6.9622 17.0471 6.9118 17.0447C6.919 17.1047 6.919 17.1599 6.9766 17.1983C7.0246 17.2295 7.0318 17.2871 7.0006 17.3255C6.9742 17.3591 6.9142 17.3639 6.8782 17.3375C6.8398 17.3063 6.8326 17.2511 6.8662 17.2079C6.9046 17.1599 6.8734 17.1119 6.8542 17.0783C6.811 16.9943 6.8302 16.9151 6.847 16.8311C6.8494 16.8215 6.8518 16.8119 6.8542 16.8023C6.8494 16.7975 6.847 16.7927 6.8446 16.7927C6.7558 16.7807 6.751 16.7807 6.7486 16.6895C6.7438 16.5479 6.727 16.4015 6.7534 16.2647C6.8134 15.9599 6.8206 15.6527 6.835 15.3455C6.8422 15.1991 6.8302 15.0503 6.8278 14.9015C6.8278 14.8583 6.8326 14.8151 6.8326 14.7719C6.8278 14.6207 6.8206 14.4671 6.811 14.3159C6.8014 14.1215 6.787 13.9247 6.7774 13.7303C6.775 13.6943 6.7726 13.6655 6.7318 13.6511C6.6886 13.6343 6.6694 13.6007 6.6742 13.5527C6.679 13.4999 6.6814 13.4447 6.6814 13.3919C6.6814 13.3799 6.679 13.3607 6.6694 13.3535C6.6214 13.3103 6.6118 13.2551 6.6142 13.1975C6.6142 13.1951 6.6142 13.1927 6.6142 13.1927C6.5854 13.0751 6.6598 13.0223 6.751 12.9839C6.7774 12.9719 6.787 12.9599 6.787 12.9335C6.787 12.8663 6.7894 12.7991 6.787 12.7343C6.7846 12.6911 6.8038 12.6647 6.8446 12.6551C6.8782 12.6479 6.9118 12.6431 6.9454 12.6479C6.9934 12.6527 7.0222 12.6767 7.0222 12.7319C7.0198 12.7991 7.0294 12.8687 7.0318 12.9383C7.0318 12.9695 7.0438 12.9839 7.0774 12.9935C7.1566 13.0127 7.2046 13.0751 7.2046 13.1567C7.2046 13.2311 7.2166 13.3079 7.1494 13.3679C7.1326 13.3823 7.1374 13.4231 7.1374 13.4519C7.1374 13.4927 7.1446 13.5311 7.1374 13.5695C7.1326 13.5983 7.1158 13.6343 7.0942 13.6487C7.063 13.6679 7.0558 13.6895 7.0558 13.7231C7.0534 13.8863 7.0582 14.0495 7.0438 14.2103C7.0078 14.5919 7.0366 14.9735 7.0318 15.3551C7.0294 15.5831 7.027 15.8087 7.0006 16.0343C6.9862 16.1519 6.9958 16.2719 7.0294 16.3919C7.063 16.5119 7.0606 16.6415 7.0726 16.7663C7.0726 16.7759 7.0582 16.7927 7.0462 16.7975C7.027 16.8023 7.0078 16.7999 6.9886 16.8023ZM6.9046 16.6415C6.9406 16.6415 6.967 16.6127 6.9646 16.5743C6.9646 16.5335 6.9238 16.4951 6.8854 16.4951C6.8422 16.4951 6.8254 16.5215 6.8254 16.5599C6.8254 16.6031 6.8662 16.6415 6.9046 16.6415ZM6.9286 17.3471C6.9526 17.3111 6.9814 17.2895 6.9766 17.2727C6.9718 17.2511 6.9454 17.2271 6.9238 17.2223C6.9094 17.2199 6.8758 17.2511 6.8758 17.2679C6.8782 17.2919 6.9046 17.3111 6.9286 17.3471Z" fill="currentColor"/>
<path d="M9.58569 12.624C9.57849 12.7464 9.62649 12.8712 9.55929 12.9984C9.57369 13.0008 9.59529 13.0008 9.61449 13.0032C9.72009 13.0128 9.76569 13.0608 9.76569 13.1664C9.76329 13.428 9.76089 13.6896 9.75849 13.9512C9.75849 14.0568 9.75609 14.1648 9.75609 14.2704C9.75609 14.3496 9.71529 14.4096 9.63849 14.4312C9.60489 14.4408 9.59289 14.4552 9.59529 14.4912C9.59529 14.5752 9.59289 14.6568 9.58809 14.7408C9.58809 14.7624 9.57849 14.784 9.57369 14.8056C9.56649 14.8056 9.55929 14.8056 9.55209 14.8032C9.55209 14.7216 9.55449 14.64 9.55209 14.5584C9.55209 14.532 9.54249 14.5008 9.52809 14.4792C9.51609 14.4624 9.48489 14.4456 9.46329 14.4456C9.32649 14.448 9.32649 14.448 9.32409 14.5848C9.32409 14.6328 9.32169 14.6832 9.32169 14.7312C9.32169 14.7648 9.30729 14.7816 9.26169 14.772C9.26169 14.6928 9.26169 14.616 9.26169 14.5368C9.26169 14.4504 9.25689 14.4456 9.17289 14.4384C9.15609 14.436 9.13689 14.436 9.12009 14.4336C9.04089 14.424 9.01449 14.3952 9.01449 14.3184C9.01449 14.16 9.01209 14.0016 9.01449 13.8432C9.01449 13.8048 9.00489 13.7856 8.96169 13.7904C8.94489 13.7928 8.92569 13.7904 8.90649 13.7904C8.85369 13.788 8.82489 13.7544 8.82729 13.7016C8.82969 13.6536 8.85369 13.632 8.90649 13.6296C9.00969 13.6248 9.00969 13.6248 9.00969 13.5216C9.00969 13.4016 9.01209 13.2792 9.01449 13.1592C9.01689 13.0416 9.04809 13.0104 9.16329 13.0104C9.18969 13.0104 9.21609 13.0152 9.23769 13.008C9.25209 13.0032 9.27129 12.9792 9.27129 12.9672C9.26889 12.8544 9.26169 12.744 9.25449 12.6288C9.29529 12.6144 9.31449 12.6216 9.31209 12.66C9.31209 12.708 9.30969 12.7584 9.31209 12.8064C9.31449 12.8712 9.31929 12.936 9.32409 13.008C9.39129 13.008 9.45369 13.0152 9.51369 13.0032C9.53289 13.0008 9.54969 12.9456 9.55209 12.9144C9.55689 12.8352 9.55209 12.756 9.55209 12.6768C9.55209 12.6576 9.55449 12.6408 9.55689 12.6216C9.56649 12.624 9.57609 12.624 9.58569 12.624Z" fill="currentColor"/>
<path d="M6.2257 18.5014C5.9713 18.5014 5.7337 18.5014 5.4961 18.5014C5.4985 18.4966 5.4985 18.4918 5.5009 18.487C5.4769 18.4774 5.4529 18.463 5.4289 18.463C5.3137 18.4582 5.1985 18.4558 5.0833 18.4582C5.0329 18.4582 5.0065 18.4366 5.0113 18.3886C5.0185 18.2974 5.0329 18.2086 5.0401 18.1174C5.0425 18.079 5.0401 18.0406 5.0305 18.0022C5.0065 17.899 5.0113 17.7982 5.0449 17.6974C5.0473 17.6902 5.0689 17.6854 5.0833 17.6854C5.2105 17.6806 5.3401 17.6638 5.4673 17.6806C5.7049 17.7118 5.9401 17.6902 6.1777 17.7022C6.2113 17.7046 6.2305 17.7142 6.2305 17.7526C6.2257 17.9998 6.2257 18.2518 6.2257 18.5014Z" fill="currentColor"/>
<path d="M3.76551 14.3953C3.76551 14.2273 3.76791 14.0761 3.76311 13.9249C3.76311 13.8937 3.75111 13.8577 3.72951 13.8337C3.68391 13.7809 3.63111 13.7353 3.57591 13.6897C3.55911 13.6753 3.53271 13.6657 3.51111 13.6657C3.37671 13.6633 3.23991 13.6609 3.10551 13.6657C3.06231 13.6657 3.04551 13.6489 3.04071 13.6129C3.03831 13.6033 3.03831 13.5913 3.03831 13.5817C3.03111 13.4689 3.04311 13.4569 3.15111 13.4569C3.26391 13.4569 3.37911 13.4521 3.49191 13.4593C3.55191 13.4617 3.58791 13.4329 3.62391 13.3921C3.64311 13.3681 3.65991 13.3369 3.68391 13.3249C3.74871 13.2889 3.75831 13.2361 3.75591 13.1713C3.75351 13.0609 3.75831 12.9505 3.75591 12.8425C3.75351 12.7897 3.77991 12.7705 3.82311 12.7609C3.84711 12.7561 3.87351 12.7537 3.89751 12.7585C3.93831 12.7657 3.96231 12.7849 3.96231 12.8329C3.95991 12.9553 3.96711 13.0777 3.96711 13.2001C3.96711 13.2433 3.98871 13.2673 4.01751 13.2937C4.05591 13.3249 4.08951 13.3609 4.12311 13.3993C4.15431 13.4329 4.18311 13.4569 4.23111 13.4545C4.36311 13.4521 4.49511 13.4569 4.62711 13.4521C4.67751 13.4497 4.69671 13.4713 4.70151 13.5169C4.70391 13.5409 4.70631 13.5673 4.70151 13.5913C4.69671 13.6393 4.67511 13.6657 4.61751 13.6657C4.48791 13.6633 4.35831 13.6657 4.22871 13.6681C4.20471 13.6681 4.17351 13.6777 4.15431 13.6921C4.10391 13.7329 4.05351 13.7785 4.01031 13.8289C3.98871 13.8529 3.97911 13.8937 3.97911 13.9273C3.97671 14.0665 3.97671 14.2057 3.98151 14.3449C3.98151 14.3809 3.96951 14.3977 3.93351 14.4001C3.88311 14.3953 3.82791 14.3953 3.76551 14.3953ZM3.87591 13.6417C3.90471 13.6105 3.93831 13.5913 3.94071 13.5697C3.94311 13.5289 3.90711 13.5025 3.86871 13.5073C3.84471 13.5097 3.82311 13.5409 3.80151 13.5577C3.82311 13.5817 3.84471 13.6057 3.87591 13.6417Z" fill="currentColor"/>
<path d="M11.0857 16.2264C11.0617 16.2384 11.0425 16.2504 11.0209 16.2576C10.9753 16.2744 10.9393 16.296 10.9465 16.356C10.9513 16.3872 10.9369 16.4208 10.8865 16.4256C10.8937 16.4424 10.8937 16.464 10.9057 16.4736C10.9513 16.5072 10.9513 16.5504 10.9513 16.5984C10.9513 16.668 10.9513 16.74 10.9561 16.8096C10.9657 17.004 10.9801 17.196 10.9921 17.3904C10.9921 17.4072 10.9921 17.4264 10.9921 17.4504C10.8817 17.4504 10.7761 17.4528 10.6705 17.4504C10.6369 17.4504 10.6249 17.4024 10.6345 17.3424C10.6465 17.2632 10.6609 17.184 10.6633 17.1048C10.6729 16.9176 10.6777 16.728 10.6849 16.5408C10.6849 16.5216 10.6969 16.4976 10.7089 16.4832C10.7569 16.4304 10.7521 16.392 10.6945 16.3584C10.6849 16.3536 10.6753 16.332 10.6801 16.3248C10.6897 16.3008 10.7041 16.2648 10.7209 16.2624C10.7833 16.2528 10.8505 16.2624 10.9129 16.2504C10.9657 16.2408 11.0161 16.2096 11.0641 16.188C11.0665 16.1856 11.0665 16.1664 11.0617 16.1592C11.0377 16.1088 11.0593 16.0824 11.1049 16.0584C11.3689 15.9288 11.6329 15.7992 11.8969 15.6696C11.9641 15.636 12.0289 15.6048 12.0961 15.5712C12.1441 15.5472 12.1777 15.5568 12.2041 15.6048C12.2185 15.6288 12.2329 15.6552 12.2473 15.6792C12.2785 15.7392 12.2665 15.7776 12.2065 15.8064C12.0217 15.8976 11.8345 15.9888 11.6473 16.08C11.5153 16.1448 11.3857 16.2072 11.2537 16.272C11.1577 16.3152 11.1505 16.3128 11.0857 16.2264Z" fill="currentColor"/>
<path d="M10.4542 13.2433C10.4542 13.2985 10.4542 13.3561 10.4542 13.4113C10.4542 13.4473 10.447 13.4857 10.4878 13.5121C10.4998 13.5193 10.5022 13.5481 10.5022 13.5649C10.5022 13.7641 10.5046 13.9609 10.4998 14.1601C10.4998 14.1889 10.4734 14.2177 10.459 14.2465C10.4518 14.2633 10.4398 14.2825 10.4398 14.3017C10.4374 14.4313 10.4398 14.5609 10.4398 14.6905C10.4398 14.7601 10.423 14.7769 10.3534 14.7769C10.2694 14.7769 10.183 14.7769 10.099 14.7793C10.0606 14.7793 10.0342 14.7673 10.0318 14.7265C10.0318 14.6857 10.0558 14.6617 10.0966 14.6617C10.1542 14.6593 10.2118 14.6593 10.2694 14.6569C10.3342 14.6545 10.3678 14.6137 10.363 14.5513C10.3582 14.4769 10.3054 14.4241 10.231 14.4217C10.195 14.4193 10.159 14.4217 10.123 14.4193C10.063 14.4145 10.039 14.3905 10.039 14.3305C10.039 14.2945 10.0366 14.2633 10.003 14.2345C9.98616 14.2201 9.97656 14.1865 9.97656 14.1601C9.97656 13.9609 9.98136 13.7641 9.98376 13.5649C9.98376 13.5505 9.99336 13.5241 10.0054 13.5193C10.0486 13.5025 10.0462 13.4689 10.0462 13.4353C10.0462 13.3081 10.0462 13.1785 10.0486 13.0513C10.0486 13.0345 10.0438 13.0153 10.051 13.0033C10.0606 12.9865 10.0798 12.9673 10.0966 12.9673C10.1086 12.9673 10.1326 12.9937 10.1326 13.0081C10.1374 13.0705 10.1374 13.1353 10.1326 13.1977C10.123 13.3033 10.2358 13.3489 10.3174 13.3057C10.339 13.2937 10.3558 13.2577 10.3606 13.2313C10.3678 13.1641 10.3654 13.0969 10.3678 13.0321C10.3678 12.9985 10.3774 12.9721 10.4158 12.9745C10.4518 12.9769 10.4638 12.9985 10.4638 13.0345C10.4638 13.1041 10.4638 13.1761 10.4638 13.2457C10.459 13.2433 10.4566 13.2433 10.4542 13.2433Z" fill="currentColor"/>
<path d="M5.49137 14.6161C5.41937 14.6161 5.35457 14.6137 5.29217 14.6161C5.25617 14.6185 5.24417 14.6041 5.24417 14.5705C5.24417 14.4673 5.24177 14.3641 5.24177 14.2609C5.24177 14.2297 5.25137 14.2129 5.28977 14.2129C5.50097 14.2105 5.71457 14.2081 5.92577 14.2033C5.97857 14.2009 6.00737 14.2177 6.01217 14.2729C6.01217 14.2873 6.02177 14.3065 6.03377 14.3113C6.06497 14.3233 6.09377 14.3329 6.09617 14.3737C6.09617 14.3785 6.11537 14.3833 6.12737 14.3881C6.28337 14.4433 6.37457 14.5537 6.40097 14.7145C6.42497 14.8753 6.38897 15.0217 6.25457 15.1273C6.10817 15.2425 5.93537 15.3001 5.75057 15.2953C5.54417 15.2905 5.33777 15.2665 5.13137 15.2521C5.09297 15.2497 5.05217 15.2569 5.01377 15.2545C4.98497 15.2521 4.95137 15.2473 4.92737 15.2353C4.89137 15.2161 4.85777 15.1849 4.87457 15.1417C4.89137 15.0985 4.93457 15.0769 4.97777 15.0913C5.12417 15.1393 5.28017 15.1345 5.42897 15.1681C5.44097 15.1705 5.46017 15.1801 5.46017 15.1849C5.46017 15.2377 5.50097 15.2329 5.53217 15.2353C5.76017 15.2617 5.97857 15.2425 6.17777 15.1153C6.39137 14.9785 6.41537 14.6617 6.22337 14.5033C6.18977 14.4745 6.14417 14.4577 6.10577 14.4361C6.10577 14.4433 6.10577 14.4481 6.10577 14.4553C6.08417 14.4721 6.06017 14.4865 6.04097 14.5057C6.02897 14.5153 6.01457 14.5321 6.01457 14.5465C6.01217 14.5969 5.98817 14.6137 5.93777 14.6137C5.87777 14.6113 5.82017 14.6137 5.74817 14.6137C5.74817 14.6785 5.74817 14.7337 5.74817 14.7913C5.74817 14.8393 5.74817 14.8849 5.74817 14.9329C5.74817 14.9641 5.73617 14.9809 5.70497 14.9809C5.64977 14.9809 5.59697 14.9833 5.54177 14.9833C5.50337 14.9857 5.48657 14.9689 5.48657 14.9281C5.49377 14.8225 5.49137 14.7217 5.49137 14.6161ZM5.69057 14.8465C5.68577 14.8057 5.66657 14.7769 5.62337 14.7769C5.58257 14.7769 5.55617 14.7961 5.55377 14.8393C5.55137 14.8777 5.58257 14.9137 5.62097 14.9137C5.66417 14.9137 5.68337 14.8849 5.69057 14.8465ZM4.97057 15.1057C4.94417 15.1321 4.91537 15.1465 4.91537 15.1633C4.91297 15.2017 4.94657 15.2209 4.98017 15.2161C4.99937 15.2137 5.01617 15.1921 5.03537 15.1801C5.01617 15.1609 4.99697 15.1369 4.97057 15.1057Z" fill="currentColor"/>
<path d="M9.85672 11.9881C9.91192 11.9353 9.93112 11.8777 9.99592 11.8969C10.0607 11.8225 10.1111 11.8969 10.1567 11.9209C10.2839 11.9857 10.4015 12.0649 10.5263 12.1369C10.5743 12.1657 10.6223 12.1897 10.6151 12.2449C10.5719 12.3145 10.5359 12.3793 10.4951 12.4465C10.5215 12.4633 10.5431 12.4801 10.5647 12.4945C10.5959 12.5137 10.6223 12.5353 10.5935 12.5761C10.5887 12.5809 10.5959 12.5929 10.5935 12.6001C10.5887 12.6217 10.5887 12.6481 10.5743 12.6625C10.5671 12.6697 10.5359 12.6625 10.5191 12.6553C10.4807 12.6361 10.4423 12.6097 10.4063 12.5881C10.3271 12.6457 10.3271 12.6457 10.2503 12.5953C10.1063 12.5017 9.96472 12.4057 9.82072 12.3121C9.79432 12.2953 9.77272 12.2785 9.78952 12.2425C9.79192 12.2353 9.79432 12.2257 9.79192 12.2209C9.74392 12.1777 9.78472 12.1393 9.79672 12.1009C9.74392 12.0385 9.69112 12.0289 9.62632 12.0721C9.51592 12.1441 9.51592 12.1441 9.42712 12.0457C9.34312 11.9545 9.33832 11.9305 9.40072 11.8225C9.43192 11.7697 9.47032 11.7217 9.50632 11.6737C9.53512 11.6353 9.57112 11.6257 9.61672 11.6449C9.65032 11.6593 9.68872 11.6713 9.72472 11.6785C9.77752 11.6905 9.79432 11.7169 9.78712 11.7697C9.77992 11.8177 9.77272 11.8681 9.80872 11.9137C9.82312 11.9377 9.83752 11.9617 9.85672 11.9881ZM9.45592 11.9881C9.46792 11.9737 9.47992 11.9593 9.48952 11.9425C9.52792 11.8825 9.56632 11.8201 9.59992 11.7577C9.60952 11.7409 9.61432 11.7073 9.60712 11.6977C9.58312 11.6737 9.55192 11.6833 9.53272 11.7097C9.49192 11.7673 9.45592 11.8249 9.41752 11.8849C9.39112 11.9305 9.40552 11.9641 9.45592 11.9881Z" fill="currentColor"/>
<path d="M3.03123 12.2544C3.05043 12.2472 3.06963 12.2424 3.09843 12.2328C3.07923 12.2232 3.06963 12.216 3.06003 12.2136C3.03603 12.2088 3.01443 12.2088 2.99043 12.204C2.83683 12.1824 2.78643 12.1248 2.78403 11.9688C2.78163 11.8848 2.78403 11.8008 2.78403 11.7096C2.75043 11.7072 2.72163 11.7048 2.69283 11.7C2.69283 11.6952 2.69283 11.6928 2.69043 11.688C2.74323 11.6832 2.79363 11.6784 2.84643 11.6736C2.86323 11.5248 3.00243 11.4576 3.07443 11.3448C3.09843 11.3064 3.13443 11.2728 3.16563 11.2344C3.22563 11.3064 3.28803 11.3808 3.35283 11.4552C3.38403 11.4912 3.42003 11.52 3.44883 11.5584C3.47043 11.5872 3.48243 11.6232 3.50403 11.664C3.54003 11.6688 3.58803 11.676 3.63603 11.6808C3.63363 11.688 3.63363 11.6928 3.63363 11.6928C3.56883 11.6928 3.56163 11.7288 3.56643 11.784C3.57363 11.8608 3.56883 11.94 3.56643 12.0168C3.56403 12.1176 3.51603 12.1728 3.41763 12.192C3.36003 12.204 3.30243 12.2208 3.24243 12.2352C3.24243 12.24 3.24483 12.2448 3.24483 12.2496C3.28083 12.2616 3.31443 12.276 3.35043 12.288C3.35043 12.2952 3.35283 12.3 3.35283 12.3072C3.32643 12.3216 3.30003 12.336 3.26163 12.36C3.30723 12.3648 3.34323 12.3672 3.37443 12.3744C3.39603 12.3792 3.41283 12.3936 3.43203 12.4056C3.41523 12.42 3.39843 12.4488 3.37923 12.4488C3.24723 12.456 3.11283 12.4584 2.98083 12.4584C2.96163 12.4584 2.94243 12.432 2.92563 12.4176C2.94243 12.4056 2.96163 12.396 2.97843 12.384C3.01923 12.3576 3.06003 12.3336 3.11043 12.3384C3.11523 12.3384 3.12963 12.3168 3.12723 12.3072C3.12483 12.2952 3.11283 12.2784 3.10083 12.276C3.07923 12.2688 3.05523 12.2712 3.03363 12.2688C3.03123 12.2616 3.03123 12.2568 3.03123 12.2544ZM2.93523 11.8272C2.93523 11.82 2.93283 11.8104 2.93283 11.8032C2.98323 11.7912 3.03603 11.7792 3.08643 11.7648C3.01683 11.7552 2.95203 11.7552 2.88483 11.7552C2.84883 11.7552 2.81043 11.7936 2.81043 11.8272C2.81283 11.9016 2.81523 11.976 2.82243 12.048C2.83203 12.1368 2.87283 12.1584 2.95443 12.1224C2.94003 12.1152 2.92563 12.108 2.90883 12.0984C2.94483 12.0576 3.05523 12.1008 3.01443 12C2.98323 11.9904 2.95443 11.9832 2.92563 11.976C2.92563 11.9688 2.92563 11.964 2.92803 11.9568C2.95683 11.9472 2.98803 11.94 3.01683 11.9304C3.01683 11.9016 3.01683 11.8728 3.01683 11.8464C2.98563 11.8416 2.96163 11.8344 2.93523 11.8272ZM3.48963 11.748C3.42483 11.7672 3.35043 11.736 3.28323 11.796C3.31203 11.8152 3.33603 11.8296 3.36003 11.8488C3.37443 11.8608 3.38403 11.8776 3.39603 11.8896C3.38163 11.9016 3.36963 11.9136 3.35523 11.9256C3.34323 11.9352 3.33123 11.9424 3.32163 11.952C3.33123 11.9616 3.34083 11.9784 3.35283 11.9832C3.41763 12.0072 3.41763 12.0072 3.39603 12.0576C3.41763 12.096 3.43443 12.1272 3.45123 12.1608C3.50643 12.1464 3.54003 12.1032 3.53523 12.0504C3.52803 11.9496 3.57843 11.8392 3.48963 11.748ZM3.43443 11.5752C3.42963 11.5632 3.42963 11.5584 3.42483 11.5536C3.42243 11.5488 3.41763 11.544 3.41283 11.5416C3.33123 11.5176 3.29043 11.4504 3.24723 11.3832C3.24003 11.3712 3.21843 11.3688 3.20403 11.364C3.21123 11.3928 3.22083 11.412 3.22323 11.4336C3.22563 11.4696 3.22323 11.5056 3.22563 11.5416C3.22803 11.5536 3.24003 11.5752 3.24963 11.5752C3.31203 11.5752 3.37203 11.5752 3.43443 11.5752ZM2.90163 11.5776C2.95203 11.5776 2.99043 11.5776 3.03123 11.5776C3.10563 11.5752 3.10563 11.5752 3.10803 11.4984C3.11043 11.4552 3.11283 11.412 3.11763 11.3616C3.04323 11.4072 3.02883 11.52 2.93043 11.5392C2.92083 11.5416 2.91363 11.5584 2.90163 11.5776Z" fill="currentColor"/>
<path d="M11.731 10.5646C11.8294 10.5646 11.9302 10.5574 12.0286 10.567C12.151 10.579 12.1942 10.639 12.1966 10.7614C12.1966 10.8214 12.1678 10.8454 12.1174 10.8598C12.079 10.8694 12.0214 10.8694 12.0046 10.8934C11.983 10.9246 11.995 10.9798 11.9926 11.0254C11.9926 11.0662 11.9926 11.1094 11.9926 11.1502C11.9926 11.191 11.9734 11.2126 11.9302 11.2126C11.8054 11.2126 11.6806 11.2126 11.5582 11.2126C11.515 11.2126 11.491 11.1934 11.4934 11.1478C11.4958 11.071 11.4934 10.9966 11.4982 10.9198C11.5006 10.8814 11.4862 10.8718 11.4478 10.8694C11.407 10.867 11.3662 10.855 11.3302 10.8406C11.3158 10.8358 11.3014 10.8118 11.299 10.795C11.275 10.6678 11.347 10.5718 11.4766 10.567C11.5606 10.5622 11.647 10.567 11.731 10.567C11.731 10.5622 11.731 10.5646 11.731 10.5646Z" fill="currentColor"/>
<path d="M14.2847 9.71989C14.3375 9.71749 14.3375 9.68869 14.3351 9.65269C14.3327 9.62389 14.3183 9.59029 14.3591 9.57349C14.3471 9.54949 14.3375 9.52789 14.3255 9.50389C14.3183 9.49189 14.2991 9.48469 14.2967 9.47509C14.2943 9.45829 14.2991 9.43669 14.3087 9.42229C14.3159 9.41269 14.3399 9.40789 14.3519 9.41509C14.3663 9.42229 14.3831 9.44869 14.3807 9.45589C14.3495 9.50629 14.3855 9.54469 14.3975 9.59029C14.3399 9.60709 14.3591 9.65029 14.3639 9.68629C14.3663 9.69589 14.3927 9.70789 14.4095 9.70789C14.4479 9.70549 14.4623 9.71989 14.4623 9.75589C14.4647 9.83989 14.4767 9.92389 14.4743 10.0079C14.4647 10.3343 14.5031 10.6559 14.5535 10.9775C14.5679 11.0759 14.5823 11.1719 14.5967 11.2703C14.5991 11.2895 14.6087 11.3207 14.6207 11.3231C14.6975 11.3375 14.6783 11.3999 14.6855 11.4479C14.6903 11.4695 14.6927 11.4935 14.7023 11.5103C14.7383 11.5655 14.7311 11.6327 14.6759 11.6663C14.6423 11.6855 14.6327 11.7119 14.6375 11.7479C14.6399 11.7695 14.6399 11.7935 14.6399 11.8175C14.6399 11.8511 14.6207 11.8679 14.5895 11.8655C14.5583 11.8655 14.5367 11.8535 14.5367 11.8199C14.5367 11.7935 14.5391 11.7695 14.5319 11.7455C14.5271 11.7311 14.5127 11.7095 14.4983 11.7047C14.4287 11.6807 14.3927 11.5967 14.4215 11.5295C14.4311 11.5079 14.4335 11.4839 14.4335 11.4599C14.4335 11.4215 14.4215 11.3831 14.4599 11.3495C14.4695 11.3399 14.4671 11.3135 14.4671 11.2943C14.4383 10.9655 14.4071 10.6367 14.3783 10.3079C14.3735 10.2575 14.3783 10.2071 14.3711 10.1567C14.3591 10.0751 14.3423 9.99589 14.3279 9.91429C14.3111 9.84949 14.2991 9.78709 14.2847 9.71989ZM14.3927 9.87829C14.4095 9.85429 14.4287 9.83749 14.4239 9.83029C14.4167 9.81349 14.3999 9.80149 14.3855 9.78709C14.3735 9.79909 14.3519 9.81109 14.3543 9.82069C14.3591 9.83749 14.3759 9.85189 14.3927 9.87829Z" fill="currentColor"/>
</g>
<defs>
<clipPath id="clip0_1539_1239">
<rect width="24" height="16.2864" fill="currentColor" transform="translate(0 3.83984)"/>
</clipPath>
</defs>
</svg>
