<svg width="24" height="24" viewBox="0 0 24 24" fill="currentColor" xmlns="http://www.w3.org/2000/svg">
<g clip-path="url(#clip0_1431_2579)">
<path d="M9.2568 15.7319C9.2568 17.2343 8.0376 18.4535 6.5352 18.4535C5.0328 18.4535 3.8136 17.2343 3.8136 15.7319C3.8136 14.2295 5.0328 13.0103 6.5352 13.0103C8.0376 13.0127 9.2568 14.2295 9.2568 15.7319ZM6.5064 14.5583C5.8752 14.5583 5.3616 15.0719 5.3616 15.7031C5.3616 16.3343 5.8752 16.8479 6.5064 16.8479C7.1376 16.8479 7.6512 16.3343 7.6512 15.7031C7.6512 15.0695 7.1376 14.5583 6.5064 14.5583Z" fill="currentColor"/>
<path d="M6.50636 15.4561C6.64316 15.4561 6.75356 15.5665 6.75356 15.7033C6.75356 15.8401 6.64316 15.9505 6.50636 15.9505C6.36956 15.9505 6.25916 15.8401 6.25916 15.7033C6.25916 15.5665 6.36956 15.4561 6.50636 15.4561Z" fill="currentColor"/>
<path d="M10.1088 15.1824H16.7136V14.6016H17.208L17.2128 15.1824H23.424L23.4312 15.4944L24.0048 15.4968V15.8616H23.424V16.1328H17.2128V18.2808H17.5896L17.5872 18.6L16.344 18.6048V18.2808H16.7136V16.1328H10.1328C10.1472 16.0008 10.1568 15.8688 10.1568 15.732C10.1544 15.5448 10.1352 15.3624 10.1088 15.1824Z" fill="currentColor"/>
<path d="M6.5352 12.1152C5.004 12.1152 3.696 13.0728 3.168 14.4192H0L0.096 7.44001C0.096 7.44001 0.1704 5.41202 2.7168 5.52242C5.2632 5.63282 13.2024 6.57122 13.2024 6.57122L15.3936 9.24961L15.3696 14.3808H9.8904C9.3528 13.0536 8.0544 12.1152 6.5352 12.1152Z" fill="currentColor"/>
</g>
<defs>
<clipPath id="clip0_1431_2579">
<rect width="24" height="13.0848" fill="currentColor" transform="translate(0 5.52002)"/>
</clipPath>
</defs>
</svg>
