<svg width="24" height="24" viewBox="0 0 24 24" fill="currentColor" xmlns="http://www.w3.org/2000/svg">
<g clip-path="url(#clip0_1430_2408)">
<path d="M10.104 22.1326C10.104 23.1094 9.31201 23.9014 8.33521 23.9014C7.35841 23.9014 6.56641 23.1094 6.56641 22.1326C6.56641 21.1558 7.35841 20.3638 8.33521 20.3638C9.31201 20.3638 10.104 21.1558 10.104 22.1326ZM8.31601 21.3694C7.90561 21.3694 7.57201 21.703 7.57201 22.1134C7.57201 22.5238 7.90561 22.8574 8.31601 22.8574C8.72641 22.8574 9.06001 22.5238 9.06001 22.1134C9.06001 21.703 8.72641 21.3694 8.31601 21.3694Z" fill="currentColor"/>
<path d="M8.31595 21.9526C8.40475 21.9526 8.47675 22.0246 8.47675 22.1134C8.47675 22.2022 8.40475 22.2742 8.31595 22.2742C8.22715 22.2742 8.15515 22.2022 8.15515 22.1134C8.15515 22.0246 8.22715 21.9526 8.31595 21.9526Z" fill="currentColor"/>
<path d="M10.6583 21.7752H14.9519V21.396H15.2735L15.2759 21.7728H19.3151L19.3199 21.9744H19.6919V22.212H19.3151V22.3896H15.2759V23.7864H15.5207L15.5183 23.9952L14.7095 24V23.7888H14.9495V22.392H10.6703C10.6799 22.3056 10.6847 22.2192 10.6847 22.1328C10.6871 22.0104 10.6751 21.8928 10.6583 21.7752Z" fill="currentColor"/>
<path d="M9.14636 15.528V0.5232H13.1568V0H4.66556V0.5232H8.62316V15.528H4.07996V21.2784H6.14636C6.48956 20.4024 7.34156 19.7808 8.33516 19.7808C9.32156 19.7808 10.1664 20.3928 10.5168 21.2544H14.0784L14.0952 17.9184L14.1096 15.528H9.14636Z" fill="currentColor"/>
<path d="M10.656 1.89862H13.1568L12.7512 0.861816H11.0664L10.656 1.89862Z" fill="currentColor"/>
<path d="M4.66553 1.89862H7.16633L6.76073 0.861816H5.07593L4.66553 1.89862Z" fill="currentColor"/>
<path d="M11.8368 3.48255C11.7768 3.48255 11.7312 3.43455 11.7312 3.37695V2.37855C11.7312 2.31855 11.7792 2.27295 11.8368 2.27295C11.8944 2.27295 11.9424 2.32095 11.9424 2.37855V3.37695C11.9424 3.43455 11.8944 3.48255 11.8368 3.48255Z" fill="currentColor"/>
<path d="M10.5048 3.1896C10.4784 3.1896 10.4496 3.18 10.4304 3.1584C10.3896 3.1176 10.3896 3.0504 10.4304 3.0072L11.136 2.3016C11.1768 2.2608 11.244 2.2608 11.2872 2.3016C11.3304 2.3424 11.328 2.4096 11.2872 2.4528L10.5816 3.1584C10.56 3.18 10.5312 3.1896 10.5048 3.1896Z" fill="currentColor"/>
<path d="M13.1688 3.1896C13.1424 3.1896 13.1136 3.18 13.0944 3.1584L12.3888 2.4528C12.348 2.412 12.348 2.3448 12.3888 2.3016C12.4296 2.2608 12.4968 2.2608 12.54 2.3016L13.2456 3.0072C13.2864 3.048 13.2864 3.1152 13.2456 3.1584C13.224 3.18 13.1952 3.1896 13.1688 3.1896Z" fill="currentColor"/>
<path d="M5.93043 3.48255C5.87043 3.48255 5.82483 3.43455 5.82483 3.37695V2.37855C5.82483 2.31855 5.87283 2.27295 5.93043 2.27295C5.98803 2.27295 6.03603 2.32095 6.03603 2.37855V3.37695C6.03603 3.43455 5.98803 3.48255 5.93043 3.48255Z" fill="currentColor"/>
<path d="M4.59841 3.18964C4.57201 3.18964 4.54321 3.18004 4.52401 3.15844C4.48321 3.11764 4.48321 3.05044 4.52401 3.00724L5.22721 2.30404C5.26801 2.26324 5.33521 2.26324 5.37841 2.30404C5.42161 2.34484 5.41921 2.41204 5.37841 2.45524L4.67281 3.16084C4.65361 3.18004 4.62481 3.18964 4.59841 3.18964Z" fill="currentColor"/>
<path d="M7.26238 3.18953C7.23598 3.18953 7.20718 3.17993 7.18798 3.15833L6.48238 2.45273C6.44158 2.41193 6.44158 2.34473 6.48238 2.30153C6.52318 2.25833 6.59038 2.26073 6.63358 2.30153L7.33918 3.00713C7.37998 3.04793 7.37998 3.11513 7.33918 3.15833C7.31758 3.17993 7.28878 3.18953 7.26238 3.18953Z" fill="currentColor"/>
</g>
<defs>
<clipPath id="clip0_1430_2408">
<rect width="15.612" height="24" fill="currentColor" transform="translate(4.07996)"/>
</clipPath>
</defs>
</svg>
