<svg width="24" height="24" viewBox="0 0 24 24" fill="currentColor" xmlns="http://www.w3.org/2000/svg">
<g clip-path="url(#clip0_1430_2312)">
<path d="M9.26164 15.6743C9.26164 17.1767 8.04484 18.3935 6.54244 18.3935C5.04004 18.3935 3.82324 17.1767 3.82324 15.6743C3.82324 14.1719 5.04004 12.9551 6.54244 12.9551C8.04484 12.9551 9.26164 14.1719 9.26164 15.6743ZM6.51364 14.5007C5.88244 14.5007 5.36884 15.0119 5.36884 15.6455C5.36884 16.2767 5.88004 16.7903 6.51364 16.7903C7.14484 16.7903 7.65844 16.2791 7.65844 15.6455C7.65604 15.0119 7.14484 14.5007 6.51364 14.5007Z" fill="currentColor"/>
<path d="M10.1136 15.1247H16.716V14.5439H17.2104L17.2152 15.1247H23.424L23.4312 15.4367L24.0024 15.4391V15.8039H23.424V16.0751H17.2152V18.2231H17.592L17.5896 18.5423L16.3464 18.5471V18.2231H16.716V16.0751H10.1376C10.152 15.9431 10.1616 15.8111 10.1616 15.6743C10.1592 15.4871 10.14 15.3047 10.1136 15.1247Z" fill="currentColor"/>
<path d="M0 5.52002V14.3592H3.1752C3.7032 13.0128 5.0112 12.0552 6.5424 12.0552C8.0592 12.0552 9.3576 12.9936 9.8952 14.3208H15.372L15.396 9.19202L15.4176 5.52002H0ZM1.98 11.1288C1.6272 11.244 1.248 11.052 1.1304 10.6992C1.0152 10.3464 1.2072 9.96722 1.56 9.84962C1.9128 9.73442 2.292 9.92642 2.4096 10.2792C2.5248 10.632 2.3328 11.0136 1.98 11.1288ZM2.7744 7.67042C2.688 7.84322 2.5392 7.97042 2.3544 8.03042C2.1 8.11442 1.8336 8.04482 1.6464 7.87682L2.208 7.45922C2.2584 7.42082 2.2776 7.35602 2.2584 7.30082C2.2536 7.28642 2.2488 7.27202 2.2368 7.25762C2.1888 7.19282 2.1 7.18082 2.0352 7.22882L1.476 7.64402C1.464 7.62002 1.452 7.59602 1.4424 7.56962C1.3824 7.38722 1.3968 7.19042 1.4832 7.01762C1.5696 6.84482 1.7184 6.71762 1.9032 6.65762C1.9776 6.63362 2.0544 6.62162 2.1288 6.62162C2.2392 6.62162 2.352 6.64802 2.4528 6.69842C2.6256 6.78482 2.7528 6.93362 2.8128 7.11842C2.8752 7.30322 2.8608 7.49762 2.7744 7.67042ZM3.8808 11.1288C3.528 11.244 3.1488 11.052 3.0312 10.6992C2.916 10.3464 3.108 9.96722 3.4608 9.84962C3.8136 9.73442 4.1928 9.92642 4.3104 10.2792C4.4256 10.632 4.2336 11.0136 3.8808 11.1288ZM4.2048 7.27442C4.2048 6.88562 4.4232 6.54722 4.7424 6.37202L5.088 7.34402C5.112 7.40882 5.172 7.44962 5.2368 7.44962C5.2536 7.44962 5.2704 7.44722 5.2896 7.44002C5.3712 7.41122 5.4144 7.32002 5.3856 7.23842L5.0376 6.25442C5.1048 6.24002 5.172 6.23282 5.244 6.23282C5.8152 6.23282 6.2808 6.69842 6.2808 7.26962C6.2808 7.84322 5.8152 8.30882 5.244 8.30882C4.6728 8.30882 4.2048 7.84562 4.2048 7.27442ZM6.2472 10.7688C6.1656 10.9296 6.0264 11.0472 5.856 11.1048C5.5032 11.22 5.124 11.028 5.0064 10.6752C4.8912 10.3224 5.0832 9.94322 5.436 9.82562C5.7888 9.71042 6.168 9.90242 6.2856 10.2552C6.3432 10.4256 6.3288 10.608 6.2472 10.7688Z" fill="currentColor"/>
</g>
<defs>
<clipPath id="clip0_1430_2312">
<rect width="24" height="13.0248" fill="currentColor" transform="translate(0 5.52002)"/>
</clipPath>
</defs>
</svg>
