<svg width="24" height="24" viewBox="0 0 24 24" fill="currentColor" xmlns="http://www.w3.org/2000/svg">
<g clip-path="url(#clip0_1437_1492)">
<path d="M22.98 10.7377L23.8056 11.0593L24 10.5577L23.0232 10.1785V10.1737H11.2464V10.1689H10.3992V11.2561H8.2392L4.8624 9.6001L4.86 9.6049L4.8576 9.6001L4.3632 9.8113L4.9848 11.2561H4.6176V11.2585V11.2561L2.76 11.9809C2.5008 11.5465 2.028 11.2537 1.488 11.2537C0.7608 11.2537 0.156 11.7793 0.0264 12.4729C0.0096 12.5617 0 12.6529 0 12.7441C0 13.5697 0.6672 14.2417 1.488 14.2417C2.3088 14.2417 2.976 13.5697 2.976 12.7441C2.976 12.6553 2.9664 12.5665 2.9496 12.4825L4.6512 11.8201H16.8984V11.2561H11.2464V10.7377H20.8272L17.7624 12.0193C17.8944 12.1129 17.9808 12.2665 17.9808 12.4393C17.9808 12.4609 17.9784 12.4825 17.976 12.5041L21.4488 11.0497V13.9993H21.108V14.2393H21.4488H21.7536H22.152V13.9993H21.7536V10.7377H22.98ZM1.488 13.3993C1.1304 13.3993 0.8376 13.1065 0.8376 12.7441C0.8376 12.6457 0.8592 12.5545 0.8976 12.4705C1.0008 12.2473 1.2264 12.0889 1.488 12.0889C1.5696 12.0889 1.6488 12.1057 1.7208 12.1321C1.9632 12.2257 2.1384 12.4609 2.1384 12.7417C2.1384 13.1065 1.8456 13.3993 1.488 13.3993ZM5.0112 9.9601L7.656 11.2561H5.568L5.0112 9.9601Z" fill="currentColor"/>
<path d="M17.4624 12.0938H16.8984H16.6296H5.33761C4.96801 12.0938 4.67041 12.3937 4.67041 12.7609V13.2193C4.67041 13.5889 4.97041 13.8865 5.33761 13.8865H16.5912V14.2417H16.896V13.8865V12.7849H17.46C17.652 12.7849 17.8056 12.6313 17.8056 12.4393C17.808 12.2497 17.6544 12.0938 17.4624 12.0938ZM17.4864 12.6097C17.3952 12.6097 17.3184 12.5353 17.3184 12.4417C17.3184 12.3505 17.3928 12.2737 17.4864 12.2737C17.5776 12.2737 17.6544 12.3481 17.6544 12.4417C17.6544 12.5353 17.58 12.6097 17.4864 12.6097Z" fill="currentColor"/>
</g>
<defs>
<clipPath id="clip0_1437_1492">
<rect width="24" height="4.6416" fill="currentColor" transform="translate(0 9.6001)"/>
</clipPath>
</defs>
</svg>
