<svg width="24" height="24" viewBox="0 0 24 24" fill="currentColor" xmlns="http://www.w3.org/2000/svg">
<g clip-path="url(#clip0_1437_2434)">
<path d="M18.48 15.2475C18.6384 15.4419 19.32 16.1955 19.788 16.7091C19.788 16.7091 19.788 16.7091 19.7904 16.7091V16.7115C20.0448 16.9923 20.2368 17.2011 20.2416 17.2059C20.4576 17.4219 20.7408 17.5371 21.06 17.5371C21.3888 17.5371 21.6672 17.4243 21.8664 17.2107C22.1136 16.9467 22.224 16.5411 22.188 16.0323L22.1856 15.9963L22.2216 15.9987C22.6848 16.0203 23.4432 16.0347 23.5656 15.9843C23.4528 15.8091 23.3568 15.6411 23.328 15.5523C23.3256 15.5403 23.3208 15.5259 23.316 15.5115C23.2176 15.3939 23.1216 15.2763 23.0352 15.1707C22.8024 14.8851 22.6008 14.6379 22.4904 14.5491C22.4736 14.5347 22.4472 14.5107 22.4136 14.4771C22.32 14.3859 22.1664 14.2347 21.9408 14.0715C21.3168 13.6203 20.3832 13.0275 20.1888 12.9267L20.1264 12.8931C19.8576 12.7539 19.5792 12.6099 19.188 12.6099C18.804 12.6099 17.8848 12.9555 17.8848 13.8099C17.8848 14.5515 18.1512 14.8611 18.3864 15.1371C18.4176 15.1731 18.4488 15.2115 18.48 15.2475ZM19.0176 12.9579L18.1464 13.6467C18.1392 13.6515 18.132 13.6539 18.1272 13.6539C18.1176 13.6539 18.108 13.6491 18.1008 13.6419C18.0888 13.6275 18.0912 13.6059 18.1056 13.5963L18.9768 12.9075C18.9912 12.8955 19.0104 12.8979 19.0224 12.9123C19.0344 12.9243 19.032 12.9459 19.0176 12.9579ZM19.4184 12.9555L18.0984 14.0595C18.0912 14.0643 18.084 14.0667 18.0768 14.0667C18.0672 14.0667 18.0576 14.0619 18.0528 14.0547C18.0408 14.0403 18.0432 14.0211 18.0576 14.0091L19.3776 12.9051C19.392 12.8931 19.4112 12.8955 19.4232 12.9099C19.4328 12.9243 19.4328 12.9459 19.4184 12.9555ZM19.6944 13.0659L18.156 14.3571C18.1488 14.3619 18.1416 14.3643 18.1344 14.3643C18.1248 14.3643 18.1152 14.3595 18.1104 14.3523C18.0984 14.3379 18.1008 14.3187 18.1152 14.3067L19.6536 13.0155C19.668 13.0035 19.6872 13.0059 19.6992 13.0203C19.7088 13.0323 19.7088 13.0539 19.6944 13.0659ZM18.2928 14.6115C18.2856 14.6163 18.2784 14.6187 18.2712 14.6187C18.2616 14.6187 18.252 14.6139 18.2472 14.6067C18.2352 14.5923 18.2376 14.5731 18.252 14.5611L19.8936 13.1667C19.908 13.1547 19.9272 13.1571 19.9392 13.1715C19.9512 13.1859 19.9488 13.2051 19.9344 13.2171L18.2928 14.6115Z" fill="currentColor"/>
<path d="M16.9944 16.0156C18.1824 16.4692 19.248 16.762 19.7568 16.774C20.004 17.0452 20.1864 17.2444 20.1936 17.2516C20.424 17.482 20.724 17.6044 21.06 17.6044C21.4056 17.6044 21.7032 17.4844 21.9144 17.2564C22.1664 16.9852 22.2864 16.5748 22.2576 16.066C22.4856 16.0756 23.4528 16.114 23.604 16.0396C23.7912 16.3276 24.0024 16.6204 24.0024 16.6204C23.712 17.098 23.28 17.4268 22.788 17.6548L22.8072 16.882L22.7424 16.8796L22.7208 17.6836C21.6552 18.1516 20.3256 18.1612 19.5288 18.1612C19.4904 18.1612 19.4544 18.1564 19.416 18.1564L19.4088 17.3476H19.344L19.3512 18.154C18.7632 18.1036 18.1896 17.8204 17.76 17.5012L17.7648 17.5036L18.1776 16.8724L18.1224 16.8364L17.7096 17.4652C17.3448 17.1868 17.0952 16.8892 17.0448 16.7068L17.2008 16.4236C17.0976 16.3108 17.0352 16.1644 16.9944 16.0156Z" fill="currentColor"/>
<path d="M16.9416 15.3434C16.9368 15.4754 16.932 15.7082 16.98 15.9386C18.1296 16.3802 19.1664 16.673 19.6968 16.7066C19.2312 16.1954 18.5832 15.4802 18.4296 15.2906C18.4008 15.2546 18.3696 15.2162 18.336 15.1802C18.1056 14.9114 17.82 14.5754 17.82 13.8122C17.82 12.9098 18.7848 12.545 19.188 12.545C19.5936 12.545 19.8792 12.6938 20.1552 12.8354L20.2176 12.869C20.4144 12.9698 21.3528 13.565 21.9792 14.0186C22.2096 14.1866 22.3656 14.3402 22.4592 14.4314C22.4928 14.4626 22.5168 14.4866 22.5312 14.4986C22.6488 14.5922 22.8432 14.8298 23.088 15.1298C23.1456 15.2018 23.208 15.2786 23.2728 15.3554C23.1552 14.9402 22.932 14.129 22.932 14.129L22.4808 13.301L21.6168 12.893L21.048 10.0754L22.2552 7.87462L23.9328 7.65622L23.8752 7.00342L20.7048 7.37062L20.616 7.28422L20.1144 7.34902L20.2008 7.87942L20.1936 8.00182C20.1936 8.00182 20.1216 8.02342 20.0184 8.02342C19.9152 8.02342 19.8504 8.16742 19.8504 8.24902C19.8504 8.32822 19.8576 8.38582 19.9872 8.40262L20.3208 8.52502L20.4504 8.69782L20.7 9.93382L20.4576 10.3826L20.784 10.5434L20.8128 10.493L21.264 12.7274L20.1312 12.1898C19.8912 12.065 19.6704 11.969 19.524 11.969C19.3776 11.969 19.2528 11.9906 19.0632 12.1682C18.8736 12.3458 18.1944 12.5762 18.1944 12.5762C18.204 12.5018 18.4344 12.209 18.7704 12.0218C19.1064 11.8322 19.1256 11.7698 19.1256 11.6354C19.1256 11.3306 18.3816 10.9034 17.5752 10.9034C17.292 10.9034 17.0304 11.0186 17.0304 11.3114C17.0304 11.6042 17.1984 11.6666 17.4696 11.897C17.544 12.4202 17.58 13.469 17.604 13.721C17.4864 13.721 17.4168 13.757 17.3832 13.8962C17.3472 14.0354 17.244 14.3618 17.244 14.3618H16.992C16.752 14.3618 16.5 14.5154 16.5312 14.8082C16.5744 15.2162 16.5312 15.2906 16.9416 15.3434ZM17.592 11.3906L17.3184 11.4122L17.3016 11.129L17.5752 11.1074L17.592 11.3906ZM20.9352 9.50902L20.6112 7.90822L20.6952 7.89382L20.8704 8.05462L21.7848 7.93942L20.9352 9.50902ZM21.372 13.2002C21.372 13.1354 21.4248 13.085 21.4872 13.085C21.552 13.085 21.6024 13.1378 21.6024 13.2002C21.6024 13.265 21.5496 13.3154 21.4872 13.3154C21.4224 13.3154 21.372 13.265 21.372 13.2002ZM19.2816 12.257C19.2816 12.185 19.3392 12.1274 19.4112 12.1274C19.4832 12.1274 19.5408 12.185 19.5408 12.257C19.5408 12.329 19.4832 12.3866 19.4112 12.3866C19.3392 12.3866 19.2816 12.329 19.2816 12.257ZM17.8008 11.3522C17.8008 11.2658 17.8704 11.1962 17.9568 11.1962C18.0432 11.1962 18.1128 11.2658 18.1128 11.3522C18.1128 11.4386 18.0432 11.5082 17.9568 11.5082C17.8704 11.5082 17.8008 11.4386 17.8008 11.3522ZM16.6992 14.8082C16.6992 14.7338 16.7592 14.6714 16.836 14.6714C16.9128 14.6714 16.9728 14.7314 16.9728 14.8082C16.9728 14.8826 16.9128 14.945 16.836 14.945C16.7592 14.945 16.6992 14.8826 16.6992 14.8082Z" fill="currentColor"/>
<path d="M3.2736 11.5776C1.4664 11.5776 0 13.044 0 14.8608C0 16.68 1.4664 18.1536 3.2736 18.1536C5.0808 18.1536 6.5448 16.68 6.5448 14.8608C6.5448 13.044 5.0808 11.5776 3.2736 11.5776ZM3.2736 16.3872C2.4384 16.3872 1.7592 15.7056 1.7592 14.8632C1.7592 14.0184 2.4384 13.3392 3.2736 13.3392C4.1088 13.3392 4.788 14.0184 4.788 14.8632C4.788 15.7032 4.1088 16.3872 3.2736 16.3872Z" fill="currentColor"/>
<path d="M15.7008 15.0602C15.3456 14.4242 14.6688 13.9946 13.8912 13.9946C12.8784 13.9946 12.0336 14.729 11.8536 15.6938C11.832 15.8186 11.8176 15.9458 11.8176 16.0754C11.8176 17.2274 12.7488 18.1634 13.8912 18.1634C15.036 18.1634 15.9648 17.2274 15.9648 16.0754C15.9648 15.7034 15.8688 15.3602 15.7008 15.0602ZM13.8912 16.985C13.392 16.985 12.984 16.577 12.984 16.073C12.984 15.9362 13.0152 15.809 13.068 15.6914C13.212 15.3794 13.5264 15.161 13.8888 15.161C14.004 15.161 14.112 15.185 14.2128 15.2234C14.5512 15.3554 14.796 15.6818 14.796 16.073C14.8008 16.577 14.3928 16.985 13.8912 16.985Z" fill="currentColor"/>
<path d="M5.30164 10.584C4.84805 10.368 4.35605 10.224 3.83765 10.1784L3.97685 7.452C3.97925 7.38 4.01045 7.3128 4.06325 7.2624C4.11605 7.212 4.18565 7.188 4.26245 7.1928L5.29204 7.2024L5.52245 7.2048L8.68564 7.2384L8.92805 9.9192L8.65684 10.128C8.60644 10.0848 8.56084 10.0584 8.52484 10.0512C8.33765 10.02 8.15524 10.032 8.04964 10.0416L8.07844 10.0152L8.03284 9.9216C8.04964 9.888 8.05204 9.8472 8.03764 9.8088C8.00884 9.7416 7.99204 9.672 7.98244 9.5976L8.16244 9.4152C8.21044 9.3672 8.20804 9.2904 8.16004 9.2424L8.14084 9.2232C8.09764 9.1824 8.02564 9.1776 7.97284 9.228L6.99364 10.2336C6.96724 10.2552 6.95284 10.2912 6.95524 10.3224C6.95524 10.3536 6.96724 10.3848 6.99364 10.4112L7.00564 10.4232C7.02724 10.4472 7.06084 10.4616 7.09204 10.4616C7.12324 10.4616 7.15444 10.4496 7.17844 10.4256L7.41844 10.1784C7.45924 10.212 7.50244 10.2456 7.54804 10.2744C7.58644 10.2984 7.63204 10.3032 7.67524 10.284L7.77124 10.332V10.3296L9.15364 12.4368L9.15604 12.432V12.444H11.1024C11.124 12.444 11.6376 12.4488 12.0432 12.8664C12.1824 13.008 12.4728 13.3464 12.8016 13.7328C13.1328 13.5744 13.5024 13.488 13.8912 13.488C14.9568 13.488 15.8712 14.1384 16.2648 15.0624H17.0688V13.3176H15.8928C15.888 12.4152 15.8616 11.3592 15.7944 10.8888C15.696 10.2264 12.7992 9.9864 10.8264 9.8616V6.2136C10.8264 6.096 10.7304 6 10.6128 6C10.4952 6 10.3992 6.096 10.3992 6.2136V9.8328C10.0056 9.8088 9.66724 9.7896 9.42484 9.7704L9.14884 6.732L4.27445 6.6792C4.07045 6.6744 3.86885 6.7464 3.71765 6.888C3.56645 7.0296 3.47765 7.224 3.47045 7.428L3.33125 10.1592C3.21605 10.1616 3.10085 10.1688 2.98565 10.1832C2.21765 10.2672 1.48565 10.56 0.871246 11.0208C0.758446 11.1048 0.736846 11.2656 0.818446 11.376C0.902446 11.4888 1.06085 11.5104 1.17365 11.4264C1.71605 11.0184 2.36405 10.764 3.04325 10.6872C5.13365 10.4592 7.01764 11.9736 7.24564 14.0664C7.24564 14.0808 7.25284 14.0928 7.25764 14.1072L7.55044 16.2576H8.85604V15.6888H11.3448C11.4576 14.9352 11.892 14.2872 12.504 13.8912C12.1992 13.5336 11.9304 13.224 11.8056 13.0944C11.4984 12.7776 11.1096 12.7728 11.1072 12.7728H7.42324C7.37044 12.6576 7.31524 12.5424 7.25524 12.4344H7.25764C6.85924 11.6952 6.25444 11.1 5.53204 10.6992L5.30164 10.584Z" fill="currentColor"/>
</g>
<defs>
<clipPath id="clip0_1437_2434">
<rect width="24" height="12.1608" fill="currentColor" transform="translate(0 6)"/>
</clipPath>
</defs>
</svg>
