<svg width="24" height="24" viewBox="0 0 24 24" fill="currentColor" xmlns="http://www.w3.org/2000/svg">
<g clip-path="url(#clip0_1413_1629)">
<path d="M1.43274 15.6096C0.763142 15.6096 0.215942 16.1568 0.215942 16.8312C0.215942 17.508 0.760742 18.0576 1.43274 18.0576C2.10474 18.0576 2.64954 17.508 2.64954 16.8312C2.64714 16.1592 2.10234 15.6096 1.43274 15.6096ZM1.43274 17.3976C1.12314 17.3976 0.868742 17.1456 0.868742 16.8312C0.868742 16.5192 1.12314 16.2672 1.43274 16.2672C1.74234 16.2672 1.99674 16.5192 1.99674 16.8312C1.99434 17.1456 1.74234 17.3976 1.43274 17.3976Z" fill="currentColor"/>
<path d="M14.1696 14.9664C13.344 14.9664 12.672 15.6408 12.672 16.4736C12.672 17.3064 13.344 17.9808 14.1696 17.9808C14.9976 17.9808 15.6696 17.304 15.6696 16.4736C15.6696 15.6408 14.9976 14.9664 14.1696 14.9664ZM14.1696 17.172C13.7856 17.172 13.476 16.86 13.476 16.4736C13.476 16.0848 13.7856 15.7752 14.1696 15.7752C14.5512 15.7752 14.8632 16.0824 14.8632 16.4736C14.8656 16.86 14.5536 17.172 14.1696 17.172Z" fill="currentColor"/>
<path d="M21.3601 14.8296H17.2057V12.4488H16.5625V9.35278H15.8809V15.4512H16.5433H16.5625H17.2057V15.4392H21.4033C21.5233 15.4392 24.0001 15.408 24.0001 15.288V15.1248C24.0001 14.9448 21.4801 14.8296 21.3601 14.8296Z" fill="currentColor"/>
<path d="M15.276 14.8705V5.94006H13.1904C13.1352 5.94006 13.092 5.98326 13.092 6.03846C13.092 6.03846 13.308 6.47286 13.3464 6.47766H13.6992V10.6081L13.3584 10.8745V14.7025C13.6056 14.5873 13.8816 14.5201 14.172 14.5201C14.58 14.5225 14.9616 14.6521 15.276 14.8705Z" fill="currentColor"/>
<path d="M12.8976 10.9032H10.848V10.896L10.8384 10.9032H10.8312L8.8944 6.54001C8.7192 6.14641 8.5104 5.76001 7.9032 5.76001H3.6192L3.1632 11.6472L4.2 13.7592H7.86V12.8328C7.86 12.684 7.7784 12.5568 7.6632 12.5088C7.6632 12.4872 7.6632 12.4656 7.6608 12.444C7.6488 12.2016 7.5 11.9928 7.3296 11.9832C6.7848 11.9376 6.2424 11.9352 5.7024 11.9568C5.7528 11.9352 5.8008 11.9064 5.8416 11.868C5.9328 11.7792 5.988 11.6592 5.9904 11.5296C6.0072 10.7736 5.8392 10.0272 5.4984 9.36241C5.4624 9.29041 5.3952 9.24241 5.316 9.23761C5.2176 9.23281 5.1192 9.23281 5.0184 9.24001C4.956 9.24481 4.9032 9.27601 4.8648 9.32161C4.8264 9.36961 4.8072 9.43441 4.812 9.49681L5.0112 11.652H3.972L4.1472 6.04801H7.8864C8.2848 6.04801 8.4888 6.35521 8.6376 6.66961L10.1232 10.1712L9.8904 10.3536C9.7176 10.1352 9.552 9.96961 9.4464 9.95041C9.228 9.91441 9.012 9.92401 8.892 9.93841L8.9256 9.90241L8.8704 9.79441C8.892 9.75601 8.8944 9.70801 8.8776 9.66481C8.8464 9.58801 8.8248 9.50401 8.8152 9.41761L9.024 9.20401C9.0768 9.14641 9.0744 9.05761 9.0216 9.00241L9 8.98321C8.9472 8.93281 8.8632 8.92801 8.8008 8.98561L7.656 10.1568C7.6272 10.1856 7.6104 10.224 7.6128 10.26C7.6128 10.296 7.6272 10.3296 7.656 10.3608L7.6728 10.3752C7.6992 10.4064 7.7352 10.4184 7.7736 10.4184C7.8096 10.4184 7.8456 10.4064 7.8744 10.3776L8.1528 10.0896C8.2008 10.1304 8.2536 10.1688 8.304 10.2024C8.3472 10.2312 8.4024 10.2384 8.4504 10.212L8.5632 10.2672L8.5728 10.26L10.152 12.5448L10.1592 12.5256L9.8952 13.6272L9.8496 13.8144V14.2872H3.864L2.6184 11.6496H1.9224C1.9224 11.3832 1.92 10.992 1.9032 10.5312C1.872 9.67681 0.9408 9.41761 0.9408 9.41761C0.9408 9.41761 0.9552 9.63121 1.0488 10.1352C1.3992 10.272 1.3224 10.5312 1.3224 10.5312V11.6496H0.8688C0.3336 11.6448 0.0144 11.6304 0.0144 12.0816L0 12.5208C0 12.864 0.00960001 14.5512 0.1344 15.7968C0.4392 15.4128 0.9072 15.168 1.4328 15.168C2.3472 15.168 3.0936 15.9144 3.0936 16.8336C3.0936 16.9512 3.0816 17.064 3.0576 17.1744L9.9192 17.1768L12.1056 14.3928H12.9L12.8976 10.9032Z" fill="currentColor"/>
<path d="M5.89926 15.3864C5.89926 15.4248 5.87286 15.456 5.83926 15.456H5.64246V15.6912C5.64246 15.7296 5.61606 15.7608 5.58246 15.7608H5.42886C5.39526 15.7608 5.36886 15.7296 5.36886 15.6912V15.456H5.17206C5.13846 15.456 5.11206 15.4248 5.11206 15.3864V15.204C5.11206 15.1656 5.13846 15.1344 5.17206 15.1344H5.36886V14.8992C5.36886 14.8608 5.39526 14.8296 5.42886 14.8296H5.58246C5.61606 14.8296 5.64246 14.8608 5.64246 14.8992V15.1344H5.83926C5.87286 15.1344 5.89926 15.1656 5.89926 15.204V15.3864ZM7.37526 15.4872L6.29526 16.7712C6.28806 16.7784 6.27846 16.7832 6.26886 16.7832C6.26166 16.7832 6.25686 16.7808 6.25206 16.7784C6.23766 16.7688 6.23286 16.752 6.23766 16.7376L6.61686 15.8376H6.26886C6.25686 15.8376 6.24726 15.8304 6.24006 15.8208C6.23286 15.8112 6.23286 15.7992 6.23766 15.7872L6.74406 14.7744C6.74886 14.7624 6.76086 14.7552 6.77526 14.7552H7.31526C7.32726 14.7552 7.33926 14.7624 7.34406 14.772C7.34886 14.7816 7.34886 14.796 7.34406 14.8056L6.94806 15.4296H7.34886C7.36086 15.4296 7.37286 15.4368 7.38006 15.4488C7.38486 15.4632 7.38246 15.4776 7.37526 15.4872ZM8.50086 15.3816C8.50086 15.4224 8.47206 15.456 8.43846 15.456H7.83846C7.80486 15.456 7.77606 15.4224 7.77606 15.3816V15.2064C7.77606 15.1656 7.80486 15.132 7.83846 15.132H8.43846C8.47206 15.132 8.50086 15.1656 8.50086 15.2064V15.3816Z" fill="currentColor"/>
</g>
<defs>
<clipPath id="clip0_1413_1629">
<rect width="24" height="12.2976" fill="currentColor" transform="translate(0 5.76001)"/>
</clipPath>
</defs>
</svg>
