<svg width="24" height="24" viewBox="0 0 24 24" fill="currentColor" xmlns="http://www.w3.org/2000/svg">
<g clip-path="url(#clip0_1415_1142)">
<path d="M15.8808 19.9222C15.768 19.8838 15.6456 19.8574 15.5208 19.8574C14.8944 19.8574 14.3856 20.3662 14.3856 20.9974C14.3856 21.1174 14.4096 21.2326 14.4432 21.3406C14.5896 21.8014 15.0144 22.1398 15.5208 22.1398C16.1472 22.1398 16.656 21.6286 16.656 20.9974C16.656 20.4934 16.3296 20.0734 15.8808 19.9222ZM15.5208 21.5254C15.2304 21.5254 14.9952 21.2902 14.9952 20.9974C14.9952 20.7046 15.2304 20.4694 15.5208 20.4694C15.8112 20.4694 16.0464 20.7046 16.0464 20.9974C16.0464 21.2902 15.8112 21.5254 15.5208 21.5254Z" fill="currentColor"/>
<path d="M10.0368 21.5974V19.2694L2.8632 19.2214L0.0192 19.903L0 21.5086H0.456V21.0862H2.2392V21.5278L10.0368 21.5974Z" fill="currentColor"/>
<path d="M10.0368 18.6791V12.9958C10.0368 12.9958 9.3576 13.0006 8.2848 13.0006C2.8848 13.0006 0.364804 14.0854 0.228004 15.7198C0.136804 16.8166 0.0144043 19.267 0.0144043 19.267L2.8392 18.5903L10.0368 18.6791Z" fill="currentColor"/>
<path d="M15.5208 20.9639C15.5352 20.9639 15.552 20.9759 15.552 20.9999C15.552 21.0191 15.5376 21.0335 15.5208 21.0335C15.504 21.0335 15.4896 21.0191 15.4896 20.9999C15.4896 20.9759 15.504 20.9639 15.5208 20.9639Z" fill="currentColor"/>
<path d="M10.6224 19.2695L14.4696 19.7111L14.4648 19.7591C14.1144 20.0591 13.8936 20.5031 13.8936 20.9999C13.8936 21.1583 13.92 21.3215 13.9752 21.4943C13.9872 21.5303 13.9992 21.5663 14.0136 21.5999H10.6224V19.2695Z" fill="currentColor"/>
<path d="M16.0391 19.4543C15.8615 19.3943 15.6911 19.3631 15.5183 19.3631C15.3047 19.3631 15.1367 19.3895 14.9495 19.4639L14.7983 19.3991L14.8607 18.8447H18.2759V20.2823L16.9607 20.2655L16.9319 20.1911C16.7399 19.8527 16.4279 19.5839 16.0391 19.4543Z" fill="currentColor"/>
<path d="M18.3 4.73026V4.02466H12.1032V4.72786H12.4752V11.7695H10.6392L10.656 18.6647L14.5032 19.0703C14.5032 19.0703 14.5296 18.8759 14.5656 18.5519C14.6352 17.9135 14.6184 17.1047 14.3928 16.1375L17.0328 16.4735C17.0568 16.6895 17.196 16.8647 17.3808 16.9271L17.4024 18.4607L18.1896 18.4727L17.8728 12.0623L13.4808 11.7143V4.73026H18.3ZM14.0496 12.2879L17.3208 12.5111L17.3688 15.8951C17.268 15.9335 17.1792 16.0031 17.1192 16.0967L14.292 15.7511C14.2848 15.7295 14.2824 15.7079 14.2752 15.6863C13.7856 13.9895 13.32 13.4471 14.0184 12.3551C14.0208 12.3455 14.0496 12.2879 14.0496 12.2879Z" fill="currentColor"/>
<path d="M14.0327 12.3286C14.0255 12.3382 14.0231 12.3478 14.0159 12.3574C14.0135 12.3622 14.0159 12.3574 14.0327 12.3286Z" fill="currentColor"/>
<path d="M14.5536 15.5256L15.4968 15.624C15.4968 15.624 15.4968 15.3864 15.4968 15.0912C15.4968 14.796 15.0144 14.6592 14.7312 14.6592C14.448 14.6592 14.2968 14.6592 14.2968 14.6592L14.5536 15.5256Z" fill="currentColor"/>
<path d="M18.8184 4.02002V4.72802L21.9432 4.74962V4.02002H18.8184Z" fill="currentColor"/>
<path d="M19.956 5.26074H18.8616V14.9999H19.956V5.26074Z" fill="currentColor"/>
<path d="M9.93843 4.05103H8.57764V12.523H10.0248L9.93843 4.05103Z" fill="currentColor"/>
<path d="M11.6232 1.91992H10.6584V11.2631H11.6232V1.91992Z" fill="currentColor"/>
<path d="M21.5376 5.26074H21.3648H21.0264H20.7576H20.436V14.9999H21.0264V10.6751H21.3648V14.9999H21.9192V5.26074H21.5376Z" fill="currentColor"/>
<path d="M24.0001 15.5159H18.8809V19.2527H19.2841V16.3463H20.8057V19.2479H22.0657V16.3511H23.6089V19.2767H23.9953L24.0001 15.5159Z" fill="currentColor"/>
<path d="M20.4864 16.6943H19.6224V19.4639H19.428V20.2847H21.0336V19.4615H20.496L20.4864 16.6943Z" fill="currentColor"/>
<path d="M22.3944 16.6943H23.2584V19.4639H23.4528V20.2847H21.8472V19.4615H22.3848L22.3944 16.6943Z" fill="currentColor"/>
<path d="M0.752101 21.8125L1.9281 21.8125L1.9281 21.4045L0.752101 21.4045L0.752101 21.8125Z" fill="currentColor"/>
<path d="M19.6595 21.0093L20.8354 21.0093L20.8354 20.6013L19.6595 20.6013L19.6595 21.0093Z" fill="currentColor"/>
<path d="M22.1045 21.0093L23.2805 21.0093L23.2805 20.6013L22.1045 20.6013L22.1045 21.0093Z" fill="currentColor"/>
</g>
<defs>
<clipPath id="clip0_1415_1142">
<rect width="24" height="20.22" fill="currentColor" transform="translate(0 1.91992)"/>
</clipPath>
</defs>
</svg>
