<svg width="24" height="24" viewBox="0 0 24 24" fill="currentColor" xmlns="http://www.w3.org/2000/svg">
<g clip-path="url(#clip0_1437_1863)">
<path d="M23.64 14.7769H23.22V14.8729H23.64V14.7769Z" fill="currentColor"/>
<path d="M23.6376 14.7384H23.5608V14.6304C23.5608 14.6232 23.5656 14.6184 23.5728 14.6184H23.6256C23.6328 14.6184 23.6376 14.6232 23.6376 14.6304V14.7384Z" fill="currentColor"/>
<path d="M8.84888 14.7983C8.84888 16.1231 9.91928 17.2007 11.2345 17.2007C12.5497 17.2007 13.6201 16.1231 13.6201 14.7983C13.6201 14.6495 13.6033 14.5031 13.5769 14.3591C13.3705 13.2479 12.3985 12.4055 11.2321 12.4055C10.3369 12.4055 9.55928 12.8999 9.14888 13.6319C8.96168 13.9775 8.84888 14.3735 8.84888 14.7983ZM10.1905 14.7983C10.1905 14.3471 10.4713 13.9703 10.8625 13.8191C10.9801 13.7759 11.1049 13.7495 11.2345 13.7495C11.6545 13.7495 12.0145 14.0015 12.1801 14.3591C12.2425 14.4935 12.2785 14.6399 12.2785 14.7983C12.2785 15.3791 11.8081 15.8495 11.2345 15.8495C10.6585 15.8471 10.1905 15.3791 10.1905 14.7983Z" fill="currentColor"/>
<path d="M8.7671 14.0255L7.7207 13.8935L7.7975 13.2935L9.0287 13.4495C9.0119 13.4783 8.9951 13.5047 8.9783 13.5335C8.8895 13.6895 8.8199 13.8551 8.7671 14.0255Z" fill="currentColor"/>
<path d="M3.18747 8.04858L21.9075 8.04858L21.9075 7.13898L3.18747 7.13898L3.18747 8.04858Z" fill="currentColor"/>
<path d="M17.5151 11.7791H16.6055L14.9087 14.0711L17.0663 14.3183L17.5151 11.7791Z" fill="currentColor"/>
<path d="M2.25603 10.6343H0.727228L0.638428 10.8695L2.14323 10.8911L2.25603 10.6343Z" fill="currentColor"/>
<path d="M14.6495 9.93587V9.90467H14.6159C14.5895 9.88787 14.5583 9.87587 14.5199 9.87587C14.4983 9.87587 14.4623 9.88067 14.4239 9.90467L5.46229 9.94787L3.19189 8.28467H21.9119L18.8567 10.4207L14.7599 10.4351C14.7551 10.3655 14.7503 10.2983 14.7431 10.2407C14.7311 10.1423 14.7143 10.0103 14.6495 9.93587Z" fill="currentColor"/>
<path d="M2.41437 11.7697L2.13357 11.0065L0.60477 10.9849L0.04077 12.2161L0.04317 12.2137C0.02397 12.2545 0.00716997 12.3001 0.00236997 12.3457C-0.04083 12.6961 0.37197 13.0249 0.93837 13.0945C1.00557 13.1017 1.07277 13.1065 1.13757 13.1065C1.32717 13.1065 1.50717 13.0729 1.65837 13.0081C1.82397 12.9361 1.93917 12.8305 1.99197 12.7057L2.41437 11.7697ZM1.59357 12.8569C1.41837 12.9337 1.19277 12.9601 0.95757 12.9313C0.49677 12.8761 0.13197 12.6145 0.16317 12.3625C0.19437 12.1081 0.60957 11.9425 1.07037 11.9977C1.53117 12.0529 1.89597 12.3145 1.86477 12.5665C1.85277 12.6841 1.75677 12.7873 1.59357 12.8569Z" fill="currentColor"/>
<path d="M14.3232 12.0767L14.2488 12.7343L14.5416 12.7415L14.8344 12.4055L14.4432 12.2999L14.3232 12.0767Z" fill="currentColor"/>
<path d="M15.4656 11.6737C15.3 11.5321 15.1248 11.4385 14.976 11.4049L14.5992 11.1673C14.6064 11.0569 14.6088 10.9345 14.6088 10.8001C14.6064 10.3777 14.5656 10.0369 14.5152 10.0369C14.5056 10.0369 14.4984 10.0489 14.4888 10.0705C14.4888 10.0705 14.4864 10.0705 14.4864 10.0681V10.0633L0.900021 10.1305V10.1329C0.897621 10.1329 0.895221 10.1305 0.892821 10.1305C0.832821 10.1305 0.780021 10.2673 0.751221 10.4737H2.25602H2.50082L2.40242 10.6993L2.28962 10.9585L2.26802 11.0209L2.30882 11.1649L2.46482 11.5729L11.784 11.5465L11.9352 11.6785L14.3496 11.9281C14.3664 11.9521 14.3904 11.9857 14.3904 12.0001C14.3904 12.0217 14.4432 12.1657 14.4576 12.1873C14.472 12.2089 14.556 12.2257 14.556 12.2257L14.9448 12.3601L15.12 12.3337C15.1224 12.3337 15.1224 12.3361 15.1248 12.3361C15.072 12.3529 14.9472 12.4345 14.9472 12.4345L14.6256 12.8473L14.16 12.8329L14.1672 12.5857L13.38 13.3465C13.4904 13.5097 13.5816 13.6849 13.6536 13.8721L14.0424 13.9633L15.6744 12.5089C15.7224 12.4969 15.7632 12.4777 15.7944 12.4441C15.9264 12.2881 15.7848 11.9497 15.4656 11.6737ZM15.7104 12.3745C15.6696 12.4225 15.5808 12.4297 15.4632 12.3961C15.3312 12.3577 15.1848 12.2713 15.0504 12.1561C14.7648 11.9089 14.6544 11.6305 14.736 11.5345C14.8176 11.4385 15.108 11.5057 15.396 11.7553C15.684 12.0025 15.792 12.2809 15.7104 12.3745Z" fill="currentColor"/>
<path d="M7.56006 11.6663L11.6497 11.6783L11.8753 11.8583C11.8753 11.8583 14.1793 12.0047 14.2129 12.0047C14.2465 12.0047 14.2249 12.3071 14.2249 12.3071L13.3249 13.2671C12.8497 12.6167 12.0841 12.2039 11.2369 12.2039C10.3873 12.2039 9.59766 12.6263 9.11526 13.3199L7.97526 13.1471L7.56006 11.6663Z" fill="currentColor"/>
<path d="M18.8423 7.06549H18.9887V6.75109C18.9887 6.73909 18.9791 6.72949 18.9671 6.72949H18.8639C18.8519 6.72949 18.8423 6.73909 18.8423 6.75109V7.06549Z" fill="currentColor"/>
<path d="M14.5007 7.05597H14.6471V6.74157C14.6471 6.72957 14.6375 6.71997 14.6255 6.71997H14.5223C14.5103 6.71997 14.5007 6.72957 14.5007 6.74157V7.05597Z" fill="currentColor"/>
<path d="M10.1279 7.05597H10.2743V6.74157C10.2743 6.72957 10.2647 6.71997 10.2527 6.71997H10.1495C10.1375 6.71997 10.1279 6.72957 10.1279 6.74157V7.05597Z" fill="currentColor"/>
<path d="M5.61841 7.05597H5.76481V6.74157C5.76481 6.72957 5.75521 6.71997 5.74321 6.71997H5.64001C5.62801 6.71997 5.61841 6.72957 5.61841 6.74157V7.05597Z" fill="currentColor"/>
<path d="M23.5775 15.4367L23.5967 15.2927L23.3279 15.2591V14.9519H23.2127V15.2447L22.0343 15.0959L22.0559 14.6183L22.4495 14.6615L22.4615 14.5487L19.7279 14.2487L19.7159 14.3615L20.2487 14.4191L20.1959 14.8631L18.3791 14.6327L18.0815 11.0111L18.2519 10.8791L18.7919 10.5095H17.5559L16.4543 11.6783H17.6231V11.3639L17.8919 11.1575L18.1751 14.6063L13.7063 14.0423C13.7351 14.1335 13.7567 14.2271 13.7759 14.3231C13.7975 14.4431 13.8119 14.5559 13.8167 14.6639L23.2103 15.8519V16.3703H23.0807V16.4615H23.4767V16.3703H23.3279V15.8663L23.5199 15.8903L23.5487 15.6671L23.9687 15.7199L23.9975 15.4871L23.5775 15.4367ZM21.6887 15.0503L20.3399 14.8799L20.3927 14.4335L21.9023 14.5991L21.6887 15.0503Z" fill="currentColor"/>
</g>
<defs>
<clipPath id="clip0_1437_1863">
<rect width="24" height="10.4784" fill="currentColor" transform="translate(0 6.71997)"/>
</clipPath>
</defs>
</svg>
