<svg width="24" height="24" viewBox="0 0 24 24" fill="currentColor" xmlns="http://www.w3.org/2000/svg">
<g clip-path="url(#clip0_1417_1907)">
<path d="M21.9168 11.2657L21.0744 10.5601L21.5136 10.2745C21.6072 10.2121 21.6336 10.0849 21.5736 9.99127C21.5112 9.89767 21.384 9.87127 21.2904 9.93127L19.9632 10.8001C19.8696 10.8625 19.8432 10.9897 19.9032 11.0833C19.9416 11.1433 20.0088 11.1769 20.0736 11.1769C20.112 11.1769 20.1504 11.1649 20.1864 11.1433L20.6808 10.8193L20.8872 11.2513L21.9168 11.2657Z" fill="currentColor"/>
<path d="M4.01281 14.1936C5.35201 14.1936 6.43681 15.2784 6.43681 16.6176C6.43681 17.9568 5.35201 19.0416 4.01281 19.0416C2.67361 19.0416 1.58881 17.9568 1.58881 16.6176C1.58881 15.2784 2.67361 14.1936 4.01281 14.1936ZM3.01921 16.5912C3.01921 17.1552 3.47521 17.6112 4.03921 17.6112C4.60321 17.6112 5.05921 17.1552 5.05921 16.5912C5.05921 16.0272 4.60321 15.5712 4.03921 15.5712C3.47521 15.5712 3.01921 16.0272 3.01921 16.5912Z" fill="currentColor"/>
<path d="M16.944 14.7649C18.1368 14.7649 19.1016 15.7321 19.1016 16.9225C19.1016 18.1153 18.1344 19.0801 16.944 19.0801C15.7512 19.0801 14.7864 18.1129 14.7864 16.9225C14.784 15.7297 15.7512 14.7649 16.944 14.7649ZM16.0584 16.8985C16.0584 17.4001 16.464 17.8057 16.9656 17.8057C17.4672 17.8057 17.8728 17.4001 17.8728 16.8985C17.8728 16.3969 17.4672 15.9913 16.9656 15.9913C16.4664 15.9913 16.0584 16.3969 16.0584 16.8985Z" fill="currentColor"/>
<path d="M24 17.1528L23.9688 12.0216L23.712 11.9568L21.4272 5.76484C21.4272 5.76484 21.2088 5.16964 20.436 5.12164C19.6632 5.07124 3.1824 5.04004 3.1824 5.04004V12.0528L0 12.0216V16.7016H0.7992C0.7992 16.6728 0.7944 16.6464 0.7944 16.6176C0.7944 14.8056 2.2992 13.3392 4.1256 13.4016C5.736 13.4568 7.092 14.748 7.2216 16.3536C7.2648 16.884 7.176 17.3904 6.9888 17.844H14.076C14.076 17.844 14.0664 17.7408 14.064 17.5728C14.016 17.364 13.9896 17.148 13.9896 16.9248C13.9896 15.0072 15.828 13.5096 17.8344 14.1024C18.4224 14.2752 18.9288 14.664 19.2864 15.1632C19.9176 16.044 19.9872 16.8648 19.8168 17.5944L24 17.1528ZM16.896 11.6352C16.8984 11.5032 16.8864 11.3544 16.8432 11.22C16.7208 10.8504 16.4544 10.5264 16.3824 10.2504C16.3104 9.97444 16.3776 9.74884 16.1832 9.74884C16.0296 9.74884 16.02 9.83284 16.02 9.85684C16.02 9.87124 16.02 10.9224 16.02 11.6352H11.3352C11.3376 11.5032 11.3256 11.3544 11.2824 11.22C11.16 10.8504 10.8936 10.5264 10.8216 10.2504C10.7496 9.97444 10.8168 9.74884 10.6224 9.74884C10.4688 9.74884 10.4592 9.83284 10.4592 9.85684C10.4592 9.87124 10.4592 10.9224 10.4592 11.6352H5.5512C5.5536 11.5032 5.5416 11.3544 5.4984 11.22C5.376 10.8504 5.1096 10.5264 5.0376 10.2504C4.9656 9.97444 5.0328 9.74884 4.8384 9.74884C4.6848 9.74884 4.6752 9.83284 4.6752 9.85684C4.6752 9.87124 4.6752 10.9224 4.6752 11.6352H4.0128V6.67924C4.0128 5.90884 4.6896 6.00244 4.6896 6.00244H19.9848C20.58 6.00244 20.6736 6.29284 20.6736 6.29284C20.6736 6.29284 22.5144 10.3608 22.5144 10.98C22.5144 11.5992 21.8616 11.6328 21.8616 11.6328H16.896V11.6352Z" fill="currentColor"/>
</g>
<defs>
<clipPath id="clip0_1417_1907">
<rect width="24" height="14.0424" fill="currentColor" transform="translate(0 5.04004)"/>
</clipPath>
</defs>
</svg>
