<svg width="24" height="24" viewBox="0 0 24 24" fill="currentColor" xmlns="http://www.w3.org/2000/svg">
<g clip-path="url(#clip0_1432_1194)">
<path d="M21.7679 14.736C21.1679 14.736 20.6687 15.1704 20.5631 15.7416C20.5487 15.816 20.5415 15.8904 20.5415 15.9672C20.5415 16.6488 21.0911 17.2008 21.7679 17.2008C22.4447 17.2008 22.9943 16.6464 22.9943 15.9672C22.9943 15.7488 22.9367 15.5448 22.8383 15.3672C22.6271 14.9904 22.2263 14.736 21.7679 14.736ZM21.7679 16.5048C21.4727 16.5048 21.2327 16.2624 21.2327 15.9648C21.2327 15.8832 21.2519 15.8088 21.2831 15.7392C21.3671 15.5544 21.5543 15.4248 21.7679 15.4248C21.8351 15.4248 21.8999 15.4392 21.9599 15.4608C22.1615 15.5376 22.3055 15.732 22.3055 15.9624C22.3031 16.2624 22.0631 16.5048 21.7679 16.5048Z" fill="currentColor"/>
<path d="M0.7224 10.8359H0V14.3327H0.7224V10.8359Z" fill="currentColor"/>
<path d="M23.8009 9.57116C23.7217 9.55676 15.8329 8.12156 14.5873 7.82636C13.2049 7.49756 12.5881 7.85996 12.0313 8.29196C11.7361 8.52236 10.7545 9.45596 9.89289 10.2864C9.81849 10.2768 9.74409 10.272 9.66969 10.272C9.23769 10.272 8.84409 10.4208 8.52969 10.6704L3.48009 9.35036C3.27129 9.31916 3.06969 9.32396 2.87289 9.35756C2.87049 9.23036 2.86329 9.09836 2.85609 8.96876C2.82969 8.49116 2.80089 7.94876 2.98329 7.75676C3.01209 7.72556 3.06489 7.68956 3.16569 7.68236V7.86476H3.79689V6.95996H3.16569V7.36076C2.99529 7.36796 2.85369 7.42556 2.74809 7.53596C2.47209 7.82876 2.50089 8.39036 2.53209 8.98796C2.53929 9.14156 2.54649 9.29756 2.54889 9.44396C1.80969 9.70796 1.26489 10.4136 1.26489 11.2608V14.2464C1.26489 15.2904 2.11209 16.14 3.15849 16.14H9.43209C9.91689 16.14 10.3105 15.7464 10.3105 15.2616V13.8672C10.6441 13.7424 10.9297 13.524 11.1409 13.2432L11.1217 15.5376L20.1577 16.2216C20.1433 16.1376 20.1361 16.0512 20.1361 15.9624C20.1361 15.8664 20.1457 15.768 20.1649 15.6624C20.3089 14.8896 20.9833 14.3256 21.7681 14.3256C21.9313 14.3256 22.0897 14.352 22.2409 14.4C22.2889 13.584 21.6889 12.8664 20.8681 12.7776L13.7953 12.0336L13.3705 10.056L13.1665 10.0872L12.8017 8.39516L12.7873 8.36876C13.1713 8.17436 13.6489 8.09996 14.4721 8.29436C15.7297 8.59436 23.3857 9.98636 23.7097 10.0464C23.8417 10.0704 23.9689 9.98156 23.9929 9.85196C24.0193 9.72236 23.9329 9.59516 23.8009 9.57116ZM12.8857 10.1112L12.9121 10.1304L12.6913 10.164L12.9217 11.3304L13.0585 11.9592L11.4817 11.7936C11.4433 11.5896 11.3785 11.3976 11.2801 11.2224C11.0881 10.8792 10.7905 10.6056 10.4329 10.44C11.2297 9.67196 12.0721 8.87516 12.3289 8.67356C12.4009 8.61836 12.4729 8.56316 12.5473 8.51276L12.8857 10.1112Z" fill="currentColor"/>
</g>
<defs>
<clipPath id="clip0_1432_1194">
<rect width="24" height="10.2384" fill="currentColor" transform="translate(0 6.95996)"/>
</clipPath>
</defs>
</svg>
