<svg width="24" height="24" viewBox="0 0 24 24" fill="currentColor" xmlns="http://www.w3.org/2000/svg">
<g clip-path="url(#clip0_1430_2280)">
<path d="M0 18.7514C0 18.7514 0 20.381 0 20.6306C0 20.8826 0.1296 21.029 0.2952 21.029H8.7792V20.5106H8.0784C8.0784 20.5106 8.0784 19.1162 8.0784 18.0938C8.0784 18.053 8.0784 18.0122 8.076 17.9714L12.0072 14.105L12.12 14.2178L15.3288 11.0594L9.0048 20.5106V21.029H10.2336L22.4064 2.85382L22.38 2.00661C22.296 1.85781 22.248 1.68501 22.248 1.50261C22.248 1.26021 22.332 1.03941 22.4712 0.861815L22.2528 0.720215L16.9512 8.64021L11.7072 13.8002L11.8152 13.9082L8.0664 17.6018C8.0208 16.7546 7.8456 16.0058 7.4544 16.0058C7.4544 16.0058 6.2184 16.0058 5.8824 16.0058C5.5464 16.0058 5.4072 16.085 5.3616 16.3346L5.1288 17.8874H0.3024V18.5378C0.1152 18.5378 0 18.641 0 18.7514ZM6.2016 16.193H7.56C7.9272 16.6298 7.9152 17.813 7.9152 18.1778V18.6098L6.6336 18.2762L6.2016 18.0194V16.193ZM5.34 17.5058L5.4912 16.4522C5.5224 16.2338 5.7816 16.193 6.0696 16.193V17.9402L5.34 17.5058Z" fill="currentColor"/>
<path d="M22.5648 1.56036L22.74 8.14836H22.7376V9.16596L23.076 9.88836H23.2584C23.088 10.1284 22.9968 10.3612 22.9968 10.4308C22.9968 10.51 23.088 10.7596 23.3808 10.7596C23.6736 10.7596 23.7312 10.438 23.688 10.174C23.604 10.318 23.5176 10.5388 23.4336 10.5388C23.3496 10.5388 23.2728 10.5052 23.2728 10.402C23.2728 10.2988 23.4816 9.88836 23.4816 9.88836L23.82 9.16596V8.14836H23.8176L23.988 1.57476C23.9904 1.55076 23.9952 1.52916 23.9952 1.50516C23.9952 1.10676 23.6736 0.785156 23.2752 0.785156C22.8768 0.785156 22.5552 1.10676 22.5552 1.50516C22.56 1.52436 22.5648 1.54116 22.5648 1.56036ZM22.6968 1.92276C22.8264 2.10516 23.04 2.22516 23.28 2.22516C23.52 2.22516 23.7312 2.10516 23.8632 1.92516L23.7024 8.14836H22.8624L22.6968 1.92276Z" fill="currentColor"/>
<path d="M0.528033 22.2841C0.523233 22.3177 0.518433 22.3513 0.518433 22.3873C0.518433 22.9297 0.957633 23.3713 1.49763 23.3713H10.476C11.016 23.3713 11.4552 22.9297 11.4552 22.3873C11.4552 21.8449 11.016 21.4033 10.476 21.4033H1.49523C1.44003 21.4033 1.38723 21.4105 1.33443 21.4201C0.907233 21.4921 0.573633 21.8425 0.528033 22.2841ZM9.91443 22.3873C9.91443 22.0777 10.1664 21.8257 10.4736 21.8257C10.7808 21.8257 11.0328 22.0777 11.0328 22.3873C11.0328 22.6969 10.7808 22.9489 10.4736 22.9489C10.1664 22.9489 9.91443 22.6969 9.91443 22.3873ZM0.936033 22.3873C0.936033 22.0777 1.18563 21.8257 1.49523 21.8257C1.80243 21.8257 2.05203 22.0777 2.05203 22.3873C2.05203 22.6969 1.80243 22.9489 1.49523 22.9489C1.18803 22.9489 0.936033 22.6969 0.936033 22.3873Z" fill="currentColor"/>
</g>
<defs>
<clipPath id="clip0_1430_2280">
<rect width="24" height="22.6512" fill="currentColor" transform="translate(0 0.720215)"/>
</clipPath>
</defs>
</svg>
