<svg width="24" height="24" viewBox="0 0 24 24" fill="currentColor" xmlns="http://www.w3.org/2000/svg">
<g clip-path="url(#clip0_1437_808)">
<path d="M15.5855 15.6768C13.5599 15.6768 11.8727 17.1408 11.5151 19.0704C11.4695 19.3176 11.4431 19.572 11.4431 19.8312C11.4431 22.1304 13.3031 24 15.5855 24C17.8703 24 19.7279 22.1304 19.7279 19.8312C19.7279 19.0944 19.5359 18.4056 19.1999 17.8056C18.4895 16.536 17.1383 15.6768 15.5855 15.6768ZM15.5855 21.6528C14.5895 21.6528 13.7735 20.8368 13.7735 19.8288C13.7735 19.5552 13.8359 19.3008 13.9439 19.068C14.2319 18.444 14.8583 18.0072 15.5855 18.0072C15.8135 18.0072 16.0319 18.0552 16.2335 18.1296C16.9127 18.3912 17.3999 19.0464 17.3999 19.8288C17.3999 20.8392 16.5863 21.6528 15.5855 21.6528Z" fill="currentColor"/>
<path d="M3.4104 6.09596V11.4168L8.7312 14.4648L17.2176 13.8672L18.5928 11.4168L18.5328 7.23116L17.6352 3.40796L3.4104 6.09596Z" fill="currentColor"/>
<path d="M17.6952 2.7504L17.8152 0L0.959961 2.988L3.11276 5.4984L17.6952 2.7504Z" fill="currentColor"/>
<path d="M20.9737 20.3257L21.4153 15.7081L20.7001 15.6409L20.2633 20.2153L20.2489 20.2129C20.2057 20.7697 20.0641 21.2977 19.8433 21.7825L22.6873 22.2337L22.9417 20.6401L20.9737 20.3257Z" fill="currentColor"/>
<path d="M9.32886 14.9425L12.5857 16.2361C13.4041 15.5497 14.4553 15.1417 15.5881 15.1417C16.5601 15.1417 17.4889 15.4489 18.2641 15.9913L19.6081 15.6001L22.1785 9.0241L20.6233 8.6665L17.6953 14.3449L9.32886 14.9425Z" fill="currentColor"/>
<path d="M11.0495 20.9808H9.20869V19.9056C9.35749 19.7568 1.13989 23.1936 1.13989 23.1936H9.20869V22.476H11.7167C11.4143 22.0248 11.1839 21.5208 11.0495 20.9808Z" fill="currentColor"/>
</g>
<defs>
<clipPath id="clip0_1437_808">
<rect width="21.9792" height="24" fill="currentColor" transform="translate(0.959961)"/>
</clipPath>
</defs>
</svg>
