<svg width="24" height="24" viewBox="0 0 24 24" fill="currentColor" xmlns="http://www.w3.org/2000/svg">
<g clip-path="url(#clip0_1421_1622)">
<path d="M16.7328 14.861C16.7328 15.4802 17.232 15.9842 17.8488 15.9842C18.348 15.9842 18.7656 15.653 18.9096 15.1994C18.9432 15.0914 18.9672 14.9786 18.9672 14.861C18.9672 14.2394 18.4656 13.7402 17.8488 13.7402C17.724 13.7402 17.6064 13.7642 17.4936 13.8026C17.052 13.9514 16.7328 14.3642 16.7328 14.861ZM17.3328 14.861C17.3328 14.573 17.5656 14.3402 17.8488 14.3402C18.1344 14.3402 18.3672 14.573 18.3672 14.861C18.3672 15.1466 18.1344 15.3794 17.8488 15.3794C17.5632 15.3794 17.3328 15.1466 17.3328 14.861Z" fill="currentColor"/>
<path d="M12.984 14.7388H14.2248" stroke="currentColor" stroke-width="0.2046" stroke-miterlimit="10"/>
<path d="M24 11.5034V11.237H21.9096H21.8112H14.6064V8.57537H14.4768V11.237H14.4696V14.6402H14.328V10.745H13.704V8.90177C13.704 8.37377 13.4688 8.33057 13.2288 8.33057H11.7576C11.3424 8.33057 11.3424 8.67857 11.3424 8.86577V10.9682H10.1088V11.2346H9.7608V10.9682H0.576V11.2346H0.2064V11.693H3.2832L4.8408 12.2714L4.9296 12.4514L7.7616 13.4978L5.5296 14.3474H0.972V14.6762H0V15.4418H0.972H1.476H5.0808C5.0832 15.7418 5.3256 15.9818 5.6232 15.9818C5.8656 15.9818 6.0672 15.821 6.1368 15.6002C6.1536 15.5498 6.1632 15.497 6.1632 15.4418H14.808H16.5288C16.4496 15.2642 16.4064 15.0674 16.4064 14.8586C16.4064 14.237 16.8024 13.6874 17.3904 13.4906C17.5488 13.4354 17.7 13.409 17.8512 13.409C18.648 13.409 19.296 14.0594 19.296 14.8562C19.296 14.9954 19.272 15.1394 19.224 15.293C19.2072 15.3434 19.188 15.3914 19.1688 15.4394H20.4792L21.9144 14.9786V14.9666H22.3464V14.5154H21.9144V11.5034H24ZM13.1928 8.52737H13.2288C13.4016 8.52737 13.5072 8.52737 13.5072 8.90417V9.69377H13.1928V8.52737ZM13.1928 9.88817H13.5072V10.9706H13.1928V9.88817ZM5.1312 11.9666L4.932 12.0386L3.9816 11.6954H7.7664L9.8232 12.713L8.472 13.2266L5.1312 11.9666ZM5.6232 15.6914C5.4864 15.6914 5.376 15.581 5.3736 15.4442H5.8752C5.8704 15.581 5.76 15.6914 5.6232 15.6914ZM9.6432 14.3498H6.8568L8.4576 13.757L9.828 14.2634L9.6432 14.3498ZM9.1728 13.493L10.4448 13.0226L11.3544 13.4738L11.3424 13.5578L10.4472 13.973L9.1728 13.493ZM12.9312 14.6402H12.2088L11.2368 14.273L12.5832 13.5938C12.5832 13.5938 11.8032 12.7322 11.6304 12.5834L11.988 12.4514L12.0768 12.2714L12.9312 11.9546V14.6402ZM12.9312 11.6978L11.9856 12.0386L11.7864 11.9666L10.8168 12.3362C10.1424 12.1394 9.1944 11.8634 8.6256 11.6954L12.9312 11.6978ZM12.996 10.9706H11.5392V9.88817H12.996V10.9706ZM12.996 9.69137H11.5392V8.86577C11.5392 8.60657 11.5704 8.52497 11.7576 8.52497H12.996V9.69137ZM14.196 14.6402H13.0632V14.033H14.196V14.6402ZM14.196 13.9034H13.0632V13.265H14.196V13.9034ZM14.196 13.1354H13.0632V12.497H14.196V13.1354ZM14.196 12.365H13.0632V11.9066L13.5504 11.7266H14.196V12.365ZM14.196 11.597H13.812V11.237H13.704V10.877H14.196V11.597Z" fill="currentColor"/>
<path d="M21.4104 9.08656L21.216 9.05776L20.9736 10.6874H20.8152V10.5074H20.7432V8.16016H15.9144V10.5074H15.8544V10.9946H20.8152V10.8866H21.144L21.4104 9.08656ZM20.5464 10.5074H19.0032L19.0488 9.78976H20.5464V10.5074ZM20.5464 9.59536H19.0608L19.1256 8.57536L18.8064 8.35696H20.5464V9.59536ZM17.8728 8.35696L17.5992 8.68576C17.5728 8.71936 17.5776 8.76736 17.6088 8.79376C17.6304 8.81056 17.6568 8.81536 17.6808 8.80816C17.6952 8.80336 17.7072 8.79616 17.7168 8.78416L18.072 8.35696H18.576L18.288 8.68576L18.0384 8.52976L17.94 8.64976L18.1344 8.86096L17.8848 9.14656L17.9952 9.59536H16.1088V8.35696H17.8728ZM16.1112 9.78976H18.0456L18.2232 10.5074H16.1112V9.78976Z" fill="currentColor"/>
</g>
<defs>
<clipPath id="clip0_1421_1622">
<rect width="24" height="7.824" fill="currentColor" transform="translate(0 8.16016)"/>
</clipPath>
</defs>
</svg>
