<svg width="24" height="24" viewBox="0 0 24 24" fill="currentColor" xmlns="http://www.w3.org/2000/svg">
<g clip-path="url(#clip0_1432_1199)">
<path d="M0.6312 11.3016H0V14.352H0.6312V11.3016Z" fill="currentColor"/>
<path d="M22.0896 15.6409L23.2032 15.2017L24 15.5041L23.2296 15.7513L22.0896 15.6409Z" fill="currentColor"/>
<path d="M19.1256 12.4896C18.8208 12.2856 18.6816 11.9112 18.78 11.5584L19.0224 10.6896L17.3496 10.224L17.004 11.46L15.7176 11.1216C15.5016 11.064 15.2952 11.1408 15.2568 11.292L14.7288 13.3104L12.9576 12.4392L13.3056 12.0912C13.4088 11.988 13.464 11.8512 13.464 11.7072V10.452C13.464 10.308 13.4064 10.1688 13.3056 10.068L12.4176 9.18004C12.3144 9.07684 12.1776 9.02164 12.0336 9.02164H10.776C10.632 9.02164 10.4928 9.07924 10.392 9.18004L9.6864 9.88564C9.5088 9.81844 9.3552 9.76324 9.2448 9.72004L9.204 9.70324C8.8512 9.56644 8.1912 9.30964 7.4376 9.74404C7.0176 9.98404 6.2328 10.4016 5.6712 10.6968L3.036 10.008C2.8536 9.98164 2.676 9.98644 2.508 10.0152C2.5056 9.90244 2.5008 9.78964 2.4936 9.67684C2.472 9.25924 2.4456 8.78644 2.604 8.61844C2.628 8.59204 2.6736 8.55844 2.7624 8.55364V8.71204H3.312V7.92004H2.7624V8.27044C2.6136 8.27524 2.4912 8.32564 2.3976 8.42404C2.1552 8.67844 2.1816 9.17044 2.2104 9.69124C2.2176 9.82324 2.2224 9.96004 2.2248 10.0896C1.5792 10.32 1.104 10.9344 1.104 11.676V13.2816C1.104 14.7456 2.292 15.9336 3.756 15.9336H8.232C8.6544 15.9336 8.9976 15.5904 8.9976 15.168V12.3648C8.9976 11.8944 8.6808 11.4816 8.2248 11.364L7.0344 11.052C7.2552 10.932 7.4592 10.8192 7.6128 10.7328C8.2224 10.3824 8.736 10.5816 9.0768 10.716L9.12 10.7328C9.1824 10.7568 9.2592 10.7856 9.3456 10.8192V11.7096C9.3456 11.8536 9.4032 11.9928 9.504 12.0936C9.4128 12.168 9.3528 12.2784 9.3528 12.4056V15.4536C9.3528 15.684 9.54 15.8688 9.768 15.8688H17.8344V15.4872H21.7728L21.9504 15.5328L23.0304 15.096L19.1256 12.4896ZM9.3456 10.44C9.3096 10.4256 9.276 10.4136 9.2448 10.4016L9.204 10.3848C8.8512 10.248 8.1912 9.99124 7.4376 10.4256C7.212 10.5552 6.8808 10.7352 6.5352 10.92L6.1776 10.8264C6.6888 10.5576 7.272 10.2432 7.6152 10.0464C8.2248 9.69604 8.7384 9.89764 9.0792 10.0296L9.1224 10.0464C9.2064 10.0776 9.3096 10.1184 9.432 10.164C9.3768 10.2456 9.348 10.3416 9.3456 10.44ZM13.2672 10.7256V11.0784V11.4312C13.2672 11.6112 13.0728 11.724 12.9168 11.6328L12.612 11.4552L12.3048 11.28C12.1488 11.1912 12.1488 10.9656 12.3048 10.8768L12.6096 10.6992L12.9144 10.5216C13.0728 10.4352 13.2672 10.5456 13.2672 10.7256ZM12.0216 9.83764L12.0816 9.61924C12.1272 9.44644 12.3456 9.38644 12.4728 9.51364L12.72 9.76084L12.9696 10.0104C13.0968 10.1376 13.0392 10.3536 12.864 10.4016L12.5232 10.4928L12.1824 10.584C12.1248 10.6008 12.0672 10.5912 12.0216 10.5672V9.83764ZM10.0872 9.76084L10.3368 9.51124C10.464 9.38404 10.68 9.44164 10.728 9.61684L10.8192 9.95764L10.8648 10.128L10.8336 10.3056C10.644 10.236 10.452 10.1664 10.272 10.0992C10.1376 10.0488 10.0104 10.0032 9.8904 9.95764L10.0872 9.76084ZM10.1496 10.4304C10.236 10.4616 10.3272 10.4952 10.4184 10.5288L10.2816 10.4928L9.9408 10.4016C9.8808 10.3848 9.8376 10.3488 9.8088 10.3056C9.9168 10.344 10.032 10.3872 10.1496 10.4304ZM9.8904 10.524L10.1952 10.7016L10.4568 10.8528C10.3968 10.8312 10.3344 10.8072 10.2768 10.7856C10.0392 10.6968 9.816 10.6152 9.6288 10.5456C9.7008 10.488 9.8016 10.4712 9.8904 10.524ZM9.5424 11.4312V11.0784V10.8888C9.7248 10.956 9.9336 11.0328 10.1568 11.1144C10.2792 11.16 10.4064 11.2056 10.536 11.2536C10.5264 11.2632 10.5168 11.2704 10.5048 11.2776L10.2 11.4552L9.8952 11.6328C9.7368 11.724 9.5424 11.6112 9.5424 11.4312ZM10.872 12H9.7704C9.7632 11.8944 9.8256 11.7864 9.9408 11.7552L10.2816 11.664L10.6224 11.5728C10.6848 11.556 10.7424 11.5656 10.7928 11.5944C10.8072 11.7 10.8456 11.796 10.9032 11.8752L10.872 12ZM11.4192 9.53284L11.0544 9.92404L11.0256 9.87364L10.848 9.56644C10.7592 9.41044 10.872 9.21604 11.052 9.21604H11.4048H11.7576C11.9376 9.21604 12.0504 9.41044 11.9592 9.56644L11.9568 9.56884C11.8944 9.48004 11.7912 9.42244 11.6736 9.42244C11.5776 9.42244 11.484 9.46084 11.4192 9.53284ZM12.4632 12.1968C12.2952 12.1368 12.1248 12.0912 11.952 12.06L11.904 11.8776C11.964 11.796 12.0024 11.7 12.0144 11.5968C12.0648 11.5704 12.1224 11.5608 12.1848 11.5752L12.5256 11.6664L12.8664 11.7576C13.0392 11.8032 13.0992 12.0216 12.972 12.1488L12.7704 12.3504L12.4632 12.1968ZM17.8368 15.0912V14.8416L16.224 14.0472L20.2536 15.0912H17.8368Z" fill="currentColor"/>
</g>
<defs>
<clipPath id="clip0_1432_1199">
<rect width="24" height="8.0112" fill="currentColor" transform="translate(0 7.92004)"/>
</clipPath>
</defs>
</svg>
