<svg width="24" height="24" viewBox="0 0 24 24" fill="currentColor" xmlns="http://www.w3.org/2000/svg">
<g clip-path="url(#clip0_1433_1489)">
<path d="M22.5744 13.3249C22.1016 12.4801 21.1992 11.9065 20.1648 11.9065C18.816 11.9065 17.6928 12.8833 17.4528 14.1673C17.424 14.3329 17.4048 14.5009 17.4048 14.6737C17.4048 16.2049 18.6456 17.4505 20.1648 17.4505C21.6864 17.4505 22.9248 16.2049 22.9248 14.6737C22.9272 14.1841 22.7976 13.7257 22.5744 13.3249ZM20.1672 15.8905C19.5024 15.8905 18.96 15.3481 18.96 14.6761C18.96 14.4937 19.0008 14.3257 19.0728 14.1697C19.2648 13.7545 19.6824 13.4641 20.1672 13.4641C20.3184 13.4641 20.4648 13.4953 20.5992 13.5457C21.0504 13.7209 21.3768 14.1553 21.3768 14.6761C21.3744 15.3457 20.832 15.8905 20.1672 15.8905Z" fill="currentColor"/>
<path d="M17.8152 18.7321C17.5512 18.6529 16.824 18.2953 16.824 18.2953C16.824 18.2953 16.5984 18.0961 15.9 17.5561C15.1992 17.0137 14.328 15.6937 14.196 15.4705C14.1144 15.3289 13.9896 15.2737 13.8696 15.2473C14.0616 15.7633 14.7216 17.1217 14.964 17.4265C15.2568 17.7937 15.3456 18.1441 15.2184 18.4081C15.1248 18.6049 14.928 18.7153 14.6784 18.7153C14.6688 18.7153 14.6568 18.7153 14.6448 18.7153C14.5392 18.7105 14.1456 18.6649 13.6152 18.5881C13.6368 18.8809 13.656 19.1041 13.6656 19.1929C13.7184 19.6033 13.9704 19.6153 14.208 19.6033C14.4456 19.5889 17.4168 19.1665 17.772 19.1401C18.132 19.1161 18.0792 18.8113 17.8152 18.7321Z" fill="currentColor"/>
<path d="M2.5392 13.1209C3.1872 13.1329 4.2696 13.3849 4.8096 13.6225C5.352 13.8601 6.1032 14.4817 6.1032 14.4817C6.1704 14.8393 7.0152 16.5937 7.3176 16.9777C7.6224 17.3617 7.6488 17.7049 7.2912 17.6905C6.9336 17.6761 3.5952 17.2009 2.3784 16.8049C1.1616 16.4089 0.0143983 15.8137 0.00239831 15.0889C-0.0120017 14.3617 -0.0120017 13.6897 0.491998 13.4641C0.993598 13.2409 1.8264 13.1089 2.5392 13.1209Z" fill="currentColor"/>
<path d="M14.6855 17.6498C14.3807 17.2658 13.5359 15.5114 13.4711 15.1538C13.4711 15.1538 12.7175 14.5322 12.1775 14.2946C11.6351 14.057 10.5527 13.805 9.90711 13.793C9.19431 13.7786 8.36151 13.913 7.85991 14.1362C7.39911 14.3426 7.36311 14.9282 7.37031 15.5858C7.09911 15.2162 6.89031 14.897 6.83031 14.7962C6.74871 14.6546 6.62391 14.5994 6.50391 14.573C6.69591 15.089 7.35591 16.4474 7.59831 16.7522C7.89111 17.1194 7.97991 17.4698 7.85271 17.7338C7.75911 17.9306 7.56231 18.041 7.31271 18.041C7.30311 18.041 7.29111 18.041 7.27911 18.041C7.17351 18.0362 6.77991 17.9906 6.24951 17.9138C6.27111 18.2066 6.29031 18.4298 6.29991 18.5186C6.35271 18.929 6.60471 18.941 6.84231 18.929C7.07991 18.917 10.0511 18.4922 10.4063 18.4658C10.7639 18.4394 10.7111 18.1346 10.4447 18.0554C10.1807 17.9762 9.45351 17.6186 9.45351 17.6186C9.45351 17.6186 9.29991 17.4842 8.86551 17.141C9.14391 17.2634 9.44151 17.3738 9.74391 17.4722C10.9583 17.8682 14.2991 18.3434 14.6567 18.3578C15.0167 18.377 14.9903 18.0338 14.6855 17.6498Z" fill="currentColor"/>
<path d="M22.7375 12.2138C22.3799 12.2138 22.3055 12.0026 22.3055 11.8226V11.609L22.8791 11.6282V10.3202L22.3055 10.301V7.43297H21.8807V10.2866L18.9359 10.1834L18.9671 9.48497L18.5903 9.46817L18.7871 5.01857C18.7967 4.77617 18.6095 4.57217 18.3647 4.56017C18.1223 4.55057 17.9159 4.73777 17.9063 4.98017L17.8511 6.20177L11.4071 9.92177L3.58069 9.64817V9.66737L3.35509 9.66017C3.35509 9.66017 2.25829 10.889 2.03509 11.0858C1.80949 11.285 1.85029 11.9306 1.94149 12.089C1.99909 12.1874 2.05189 12.3626 2.34949 12.7634C2.37829 12.7634 2.40709 12.7634 2.43589 12.7634C2.47189 12.7634 2.50549 12.7634 2.54149 12.7634C2.91349 12.7706 3.43189 12.8522 3.92149 12.9698C4.13989 12.713 4.89589 11.813 5.54389 11.0234L9.32629 11.1554C9.22309 11.2682 9.10309 11.3978 9.00469 11.5082C8.80549 11.7314 8.88469 12.2618 8.97829 12.4202C9.03589 12.5186 9.41989 13.037 9.71749 13.4378C9.74629 13.4378 9.77509 13.4378 9.80389 13.4378C9.83989 13.4378 9.87349 13.4378 9.90949 13.4378C10.2815 13.445 10.7999 13.5266 11.2895 13.6442C11.6663 13.2026 12.9791 11.6714 13.2287 11.2922L17.3279 11.4362L17.3087 11.8706L18.8519 11.9402L18.8711 11.4914L21.8735 11.597V11.825C21.8735 12.2018 22.0991 12.641 22.7303 12.641C23.4263 12.641 23.5679 12.8474 23.5679 13.157V14.2586H23.9999V13.157C23.9999 12.5306 23.5751 12.2138 22.7375 12.2138ZM2.50549 12.3554C2.41429 12.3554 2.33989 12.281 2.33989 12.1898C2.33989 12.0986 2.41429 12.0242 2.50549 12.0242C2.59669 12.0242 2.67109 12.0986 2.67109 12.1898C2.67109 12.281 2.59669 12.3554 2.50549 12.3554ZM9.87349 13.0298C9.78229 13.0298 9.70789 12.9554 9.70789 12.8642C9.70789 12.773 9.78229 12.6986 9.87349 12.6986C9.96469 12.6986 10.0391 12.773 10.0391 12.8642C10.0391 12.9554 9.96469 13.0298 9.87349 13.0298ZM12.7511 9.96977L17.8127 7.04657L17.7071 9.43217L17.4191 9.42017L17.3879 10.133L12.7511 9.96977Z" fill="currentColor"/>
</g>
<defs>
<clipPath id="clip0_1433_1489">
<rect width="24" height="15.048" fill="currentColor" transform="translate(0 4.56006)"/>
</clipPath>
</defs>
</svg>
