<svg width="24" height="24" viewBox="0 0 24 24" fill="currentColor" xmlns="http://www.w3.org/2000/svg">
<g clip-path="url(#clip0_1432_1038)">
<path d="M8.50799 13.1809C7.73759 13.1809 7.09679 13.7377 6.96239 14.4697C6.94559 14.5633 6.93359 14.6593 6.93359 14.7577C6.93359 15.6313 7.63919 16.3417 8.50799 16.3417C9.37679 16.3417 10.0824 15.6313 10.0824 14.7577C10.0824 14.4769 10.008 14.2153 9.88079 13.9873C9.61199 13.5073 9.09839 13.1809 8.50799 13.1809ZM8.50799 15.4513C8.12879 15.4513 7.81919 15.1417 7.81919 14.7577C7.81919 14.6545 7.84319 14.5585 7.88399 14.4697C7.99439 14.2321 8.23199 14.0665 8.50799 14.0665C8.59439 14.0665 8.67599 14.0833 8.75519 14.1121C9.01199 14.2105 9.19919 14.4601 9.19919 14.7577C9.19679 15.1417 8.88959 15.4513 8.50799 15.4513Z" fill="currentColor"/>
<path d="M11.4289 14.8777C11.0713 14.8777 10.7761 15.1345 10.7137 15.4753C10.7065 15.5185 10.7017 15.5641 10.7017 15.6097C10.7017 16.0153 11.0281 16.3441 11.4313 16.3441C11.8345 16.3441 12.1609 16.0153 12.1609 15.6097C12.1609 15.4801 12.1273 15.3601 12.0673 15.2521C11.9401 15.0289 11.7001 14.8777 11.4289 14.8777ZM11.4289 15.9313C11.2537 15.9313 11.1097 15.7873 11.1097 15.6097C11.1097 15.5617 11.1193 15.5161 11.1385 15.4753C11.1889 15.3649 11.2993 15.2881 11.4265 15.2881C11.4673 15.2881 11.5057 15.2953 11.5393 15.3097C11.6593 15.3553 11.7433 15.4705 11.7433 15.6097C11.7481 15.7873 11.6041 15.9313 11.4289 15.9313Z" fill="currentColor"/>
<path d="M19.9538 14.1744C19.5962 14.1744 19.301 14.4312 19.2386 14.772C19.2314 14.8152 19.2266 14.8608 19.2266 14.9064C19.2266 15.312 19.553 15.6408 19.9562 15.6408C20.3594 15.6408 20.6858 15.312 20.6858 14.9064C20.6858 14.7768 20.6522 14.6568 20.5922 14.5488C20.465 14.3256 20.2274 14.1744 19.9538 14.1744ZM19.9538 15.2256C19.7786 15.2256 19.6346 15.0816 19.6346 14.904C19.6346 14.856 19.6442 14.8104 19.6634 14.7696C19.7138 14.6592 19.8242 14.5824 19.9514 14.5824C19.9922 14.5824 20.0306 14.5896 20.0642 14.604C20.1842 14.6496 20.2682 14.7648 20.2682 14.904C20.273 15.0816 20.129 15.2256 19.9538 15.2256Z" fill="currentColor"/>
<path d="M0.348047 12.0985C0.348047 12.0985 -0.0479531 14.5729 0.00484687 14.5561C0.0576469 14.5393 5.17925 14.9689 5.24645 14.9353C5.31605 14.9017 7.92725 12.8041 7.92725 12.8041L0.348047 12.0985Z" fill="currentColor"/>
<path d="M18.8616 9.04565H14.7312V13.2385H18.8616V9.04565Z" fill="currentColor"/>
<path d="M18.8616 8.0929H14.7312V8.8249H18.8616V8.0929Z" fill="currentColor"/>
<path d="M20.0041 14.7793C19.9849 14.7721 19.9705 14.7697 19.9537 14.7697C19.9033 14.7697 19.8553 14.8009 19.8313 14.8489C19.8217 14.8681 19.8193 14.8849 19.8193 14.9041C19.8193 14.9785 19.8793 15.0409 19.9537 15.0409C20.0281 15.0409 20.0881 14.9809 20.0881 14.9041C20.0881 14.8489 20.0545 14.7985 20.0041 14.7793Z" fill="currentColor"/>
<path d="M20.1841 13.2481C20.0809 13.2985 18.4297 14.1241 18.4297 14.1241L15.4561 13.5385L15.4153 13.7113H14.5801V13.3681L14.1313 13.2121V11.5129H14.5105V10.9969H14.1313V10.3105H14.5105V8.61845L14.1313 8.66885V7.86245L13.8025 8.06165V8.71445L11.5201 9.01685V8.68565H10.8001V9.11045L9.87133 9.23285V7.89845L7.86013 7.96565L6.57613 8.91605L4.86973 7.68005H1.27693L0.0217285 9.00245V11.7865L8.15293 12.6121L8.76253 13.0153C9.27133 13.0897 9.72733 13.3873 10.0033 13.8337L11.3833 14.7433H13.2457C13.7929 15.0673 14.6809 15.4513 16.1953 15.4513C16.5985 15.4513 17.0497 15.4225 17.5489 15.3601C17.7793 15.4153 17.9353 15.4513 17.9521 15.4489C18.0001 15.4369 18.7033 15.3313 19.1113 15.2521C19.0681 15.1441 19.0441 15.0289 19.0441 14.9041C19.0441 14.8513 19.0489 14.7961 19.0609 14.7361C19.1425 14.3017 19.5193 13.9873 19.9585 13.9873C20.2873 13.9873 20.5945 14.1673 20.7553 14.4577C20.8105 14.5561 20.8609 14.7745 20.8609 14.7745L21.3745 14.1433C21.3697 14.1433 20.2873 13.1977 20.1841 13.2481ZM13.8025 13.0969L12.7921 12.7441V11.5129H13.8025V13.0969ZM10.8001 11.9785L10.1593 11.5129H10.8001V11.9785ZM13.8025 10.9969H12.7921V10.3105H13.8025V10.9969ZM8.34733 10.2025L9.14893 9.88085V10.3129H10.8001V10.9993H9.44653L8.34733 10.2025ZM13.7497 14.7457H14.5801V14.5393H15.2137L15.1633 14.7457C15.1633 14.7457 16.1041 14.9953 16.8913 15.1969C15.4273 15.3073 14.4745 15.0865 13.7497 14.7457Z" fill="currentColor"/>
<path d="M18.8425 13.4808H16.1233L18.3409 13.8936L18.8425 13.4808Z" fill="currentColor"/>
<path d="M23.9352 14.7577L21.564 14.2537L21.0864 14.8609L24 15.3505L23.9352 14.7577Z" fill="currentColor"/>
</g>
<defs>
<clipPath id="clip0_1432_1038">
<rect width="24" height="8.664" fill="currentColor" transform="translate(0 7.68005)"/>
</clipPath>
</defs>
</svg>
