<svg width="24" height="24" viewBox="0 0 24 24" fill="currentColor" xmlns="http://www.w3.org/2000/svg">
<g clip-path="url(#clip0_1433_1485)">
<path d="M23.9831 15.372L23.7167 14.7072C23.6687 14.5872 23.5295 14.5272 23.4095 14.5752L21.7895 15.2256C21.6623 15.0528 21.6791 14.796 21.8351 14.6448C21.9959 14.4888 21.9695 14.2656 21.7799 14.148C21.5903 14.0304 21.5183 13.7712 21.6167 13.572C21.7175 13.3728 21.6215 13.1688 21.4031 13.1184C21.1847 13.068 21.0335 12.8472 21.0623 12.6264C21.0935 12.4056 20.9351 12.2448 20.7143 12.2664C20.4935 12.2904 20.2751 12.1296 20.2319 11.9112C20.1887 11.6928 19.9871 11.5896 19.7855 11.6856C19.5839 11.7792 19.3271 11.7 19.2143 11.5056C19.1015 11.3136 18.8807 11.2824 18.7199 11.436C18.5591 11.5896 18.2903 11.5992 18.1223 11.4528C18.0623 11.4 17.9927 11.3736 17.9279 11.3664L17.0927 9.19201L17.0543 9.20641V9.20161H16.7159L16.0703 7.51921C16.6055 7.52161 17.1599 7.52401 17.7407 7.52641L17.6999 9.38401L19.1423 9.41761L19.1759 8.90881H18.2399L18.2831 7.02001H18.0143C17.3351 7.01761 16.6175 7.01521 15.8759 7.01041L15.5423 6.14161L14.6231 6.49441L14.8199 7.00561C11.3711 6.98641 7.62951 6.96241 5.22471 6.93841V6.36481C5.22471 6.03121 4.95351 5.76001 4.61991 5.76001C4.28631 5.76001 4.01511 6.03121 4.01511 6.36481V7.37521H3.61191V8.70481H2.58471L1.73511 10.3656V16.0632C1.73511 16.4064 2.01351 16.6824 2.35431 16.6824H11.8727C12.2159 16.6824 12.4919 16.404 12.4919 16.0632V14.496H13.8623C13.8623 14.496 13.9127 13.5552 14.1239 12.996C14.3375 12.4368 14.7023 12.072 14.7023 12.072V10.8096H15.8783L16.4495 12.3C16.3703 12.3576 16.2719 12.3912 16.1711 12.3864C15.9479 12.3744 15.7991 12.5448 15.8423 12.7632C15.8855 12.9816 15.7439 13.212 15.5279 13.272C15.3143 13.332 15.2279 13.5408 15.3383 13.7352C15.4487 13.9296 15.3911 14.1912 15.2063 14.3184C15.0239 14.4456 15.0095 14.6712 15.1775 14.8176C15.3455 14.964 15.3743 15.2328 15.2423 15.4128C15.1103 15.5928 15.1703 15.8088 15.3767 15.8952C15.5831 15.9792 15.6983 16.224 15.6311 16.4376C15.5639 16.6512 15.6935 16.836 15.9167 16.848C16.1399 16.86 16.3271 17.0544 16.3343 17.2776C16.3415 17.5008 16.5215 17.6352 16.7375 17.5752C16.9535 17.5152 17.1935 17.6376 17.2703 17.8464C17.3495 18.0552 17.5631 18.1224 17.7479 17.9952C17.9327 17.868 18.1991 17.9064 18.3407 18.0792C18.4823 18.252 18.7079 18.2448 18.8399 18.0672C18.9719 17.8872 19.2383 17.8368 19.4279 17.9544C19.6175 18.072 19.8287 17.9928 19.8959 17.7792C19.9631 17.5656 20.1959 17.4312 20.4143 17.4816C20.6327 17.5296 20.8055 17.388 20.8007 17.1648C20.7983 17.0496 20.8439 16.9392 20.9207 16.8576L23.8463 15.684C23.9735 15.6312 24.0311 15.4944 23.9831 15.372ZM4.62711 6.77521C4.43271 6.77521 4.27671 6.61921 4.27671 6.42481C4.27671 6.23041 4.43271 6.07441 4.62711 6.07441C4.82151 6.07441 4.97751 6.23041 4.97751 6.42481C4.97751 6.61921 4.81911 6.77521 4.62711 6.77521ZM12.4919 9.20401V8.70481H5.67591V7.45441C7.50951 7.47601 10.4135 7.49521 15.0167 7.51441L15.6647 9.20161H12.4919V9.20401ZM18.9119 17.268C18.7343 17.268 18.5903 17.124 18.5903 16.9464C18.5903 16.7688 18.7343 16.6248 18.9119 16.6248C19.0895 16.6248 19.2335 16.7688 19.2335 16.9464C19.2335 17.124 19.0895 17.268 18.9119 17.268ZM19.7615 16.9392C19.5839 16.9392 19.4399 16.7952 19.4399 16.6176C19.4399 16.44 19.5839 16.296 19.7615 16.296C19.9391 16.296 20.0831 16.44 20.0831 16.6176C20.0831 16.7952 19.9391 16.9392 19.7615 16.9392Z" fill="currentColor"/>
<path d="M0 9.79684H1.6632L2.3568 8.37124L3.1824 8.36404V7.37524H0V9.79684Z" fill="currentColor"/>
</g>
<defs>
<clipPath id="clip0_1433_1485">
<rect width="24" height="12.444" fill="currentColor" transform="translate(0 5.76001)"/>
</clipPath>
</defs>
</svg>
