<svg width="24" height="24" viewBox="0 0 24 24" fill="currentColor" xmlns="http://www.w3.org/2000/svg">
<g clip-path="url(#clip0_1437_2165)">
<path d="M5.39527 12.2832C5.07127 12.8616 4.88647 13.5264 4.88647 14.2392C4.88647 16.4568 6.67927 18.264 8.88487 18.264C11.0881 18.264 12.8833 16.4592 12.8833 14.2392C12.8833 13.9896 12.8569 13.7448 12.8137 13.5048C12.4681 11.6424 10.8409 10.2288 8.88487 10.2288C7.38487 10.2288 6.08167 11.0592 5.39527 12.2832ZM7.13287 14.2392C7.13287 13.4856 7.60327 12.852 8.25847 12.6C8.45287 12.528 8.66407 12.4824 8.88487 12.4824C9.58807 12.4824 10.1929 12.9024 10.4689 13.5048C10.5745 13.7304 10.6321 13.9752 10.6321 14.2392C10.6321 15.2112 9.84487 15.9984 8.88487 15.9984C7.91767 15.9984 7.13287 15.2112 7.13287 14.2392Z" fill="currentColor"/>
<path d="M12.9241 8.0375L16.0057 7.1687L13.5097 7.2215L12.9241 8.0375Z" fill="currentColor"/>
<path d="M23.9999 14.7047V14.5271H22.9295V14.7167L21.8927 14.5487V14.2703H21.6479V14.0015H21.7103L21.8999 14.0735H22.0679V13.7279H21.5831C21.5831 13.7279 21.5831 12.6863 21.5831 12.5183C21.5831 11.9543 21.0527 11.8271 20.8463 11.8271C20.8463 11.8271 20.9351 11.7047 20.9351 11.5367C20.9351 11.3687 20.9519 11.1863 20.8295 11.1863H20.6567C20.7119 10.9919 20.6231 10.8911 20.5223 10.8911H20.3111V10.5599H20.5223V9.38395H20.3543C20.3543 9.38395 20.3543 8.76475 20.3543 8.62315C20.3543 8.48395 20.2583 8.39515 20.1479 8.41195C20.1479 8.41195 19.6343 8.52235 19.5407 8.53915C19.4471 8.55595 19.3847 8.59435 19.3847 8.69515V9.63115H19.3223L19.2599 9.56875H18.5807V9.44155H18.4199V9.55195H18.2519L18.0911 9.22315L18.0239 8.72155L17.9447 8.68315L18.3095 8.61595L17.0687 8.43835V10.9463H16.8599V11.6807C16.8599 12.0911 16.5263 12.4271 16.1135 12.4271H13.2527C12.8423 12.4271 12.5063 12.0935 12.5063 11.6807V10.9463H11.5127C12.0647 11.3903 12.5039 11.9711 12.7799 12.6359H13.3439L13.4399 12.9623L13.3943 13.0511L12.8975 12.9623C12.9479 13.1255 12.9935 13.2887 13.0271 13.4591C13.0367 13.5143 13.0439 13.5719 13.0511 13.6271L21.9383 15.0863H22.3175L22.3631 15.0983L22.5311 15.8687V16.6391H22.2623V16.7183H23.0207V16.6295H22.7423V15.8711L22.8983 15.4463H23.3447V15.0383H23.9255V14.9327H23.5199V14.6975H23.9999V14.7047ZM19.4951 8.74315C19.4951 8.64955 19.5287 8.64955 19.5887 8.63275L20.1287 8.52235C20.2295 8.51755 20.2391 8.52715 20.2391 8.61595L20.2343 9.38635H19.9535V9.86395H19.4927C19.4951 9.86395 19.4951 8.83675 19.4951 8.74315ZM19.4663 9.94075H19.9535V10.1975L20.0447 10.2695V10.6943H20.1287V10.8239H19.4663V9.94075ZM19.2551 10.6271C19.2767 10.6223 19.3655 10.1687 19.3823 9.97915V10.8215H19.0703C19.0703 10.8239 19.2311 10.6343 19.2551 10.6271ZM18.5135 11.1743L19.0319 10.9175H19.3823L19.4039 11.8319H18.5111V11.1743H18.5135ZM14.1071 13.0919H13.6823V12.7415L13.9175 12.6431H14.1071V13.0919ZM14.7167 13.0319H14.4551V12.6431H14.7791L14.7167 13.0319ZM15.3119 13.0991H15.1055V12.7535H15.4679L15.3119 13.0991ZM17.1071 13.4879C16.9295 13.3487 16.4927 13.1711 16.1639 13.1711H15.7559V12.6431H16.6415L17.1479 13.0919L17.1815 13.4879H17.1071ZM17.8895 13.2815C17.8895 12.7583 18.6263 12.4127 18.9215 12.4127H19.8479V13.3223C19.6919 13.4159 19.3319 13.6607 19.3319 13.6607L19.1903 13.6799L17.8919 13.5071V13.2815H17.8895ZM19.8455 13.5167V13.6679L19.6607 13.6559L19.8455 13.5167ZM21.2927 14.4311L18.2687 13.9247L18.1583 13.7687L19.0511 13.9535L21.2951 14.0087V14.4311H21.2927ZM21.2927 13.6943L20.0687 13.6559L20.1191 13.3607C20.2367 13.2767 20.3591 13.2719 20.4527 13.2719H20.7215C20.7335 13.3391 20.8007 13.3727 20.9111 13.3727H21.2927V13.6943ZM21.4295 12.8639L21.2927 13.0487L20.8223 13.0367C20.7167 13.0367 20.7335 13.0991 20.7335 13.0991C20.5895 13.0991 20.4095 13.0871 20.1479 13.1783C20.1479 13.1783 20.0975 13.0727 20.1767 12.9887H20.6807V11.9951H20.9279C21.1391 11.9951 21.4295 12.0623 21.4295 12.3959C21.4295 12.7295 21.4295 12.8639 21.4295 12.8639Z" fill="currentColor"/>
<path d="M14.1311 8.00641L19.1975 7.24561L19.1063 6.59521L14.1311 8.00641Z" fill="currentColor"/>
<path d="M12.1319 8.19613L12.5207 8.11213L13.1255 7.23853L8.82471 7.31293L12.1319 8.19613Z" fill="currentColor"/>
<path d="M16.1137 10.3247H13.2529C12.9073 10.3247 12.6265 10.6055 12.6265 10.9511V11.6879C12.6265 12.0335 12.9073 12.3119 13.2529 12.3119H16.1137C16.4593 12.3119 16.7401 12.0311 16.7401 11.6879V10.9511C16.7377 10.6055 16.4569 10.3247 16.1137 10.3247Z" fill="currentColor"/>
<path d="M12.5183 10.8312C12.5759 10.476 12.8807 10.2048 13.2527 10.2048H16.1135C16.4855 10.2048 16.7903 10.4784 16.8479 10.8312H16.9487V8.44556L6.41992 10.0896L6.50392 10.7688C7.18312 10.3032 8.00152 10.0272 8.88472 10.0272C9.80872 10.0272 10.6583 10.3272 11.3519 10.8312H12.5183Z" fill="currentColor"/>
<path d="M5.448 10.4112L6.3144 10.2384L6.2832 9.98882L16.9464 8.32322V8.30642L18.4824 8.52482L18.4056 8.14802L20.34 7.83122L20.6232 8.08322L21.8832 7.73282L21.552 5.52002L19.584 6.07202L5.7216 6.50162L5.4984 6.62162H5.2536L5.2128 6.68642H4.9776L4.8768 6.56162H3.2424L3.192 6.64082L3.012 6.62882V6.49682L1.6608 6.21602H1.1592L0.7248 6.31682V6.80642H0.8928L0.9936 7.14002V8.88002L0.4248 9.03602L0.5904 9.48242L0.2352 9.81602V9.96002H0V10.116H0.3792V10.428H1.176V10.4832H2.1624L2.364 10.416H2.6544L4.9512 12.2664V12.5232H5.0328C5.0856 12.4056 5.1408 12.2904 5.2032 12.18C5.436 11.7672 5.7336 11.4 6.0864 11.088L5.8656 10.9464L5.448 10.4112ZM0.9936 9.85202H0.8424L0.5784 9.10562L0.9984 8.99522L0.9936 9.85202ZM13.2096 8.26802L13.1832 8.15042L19.2048 6.44162L19.332 7.34642L13.2096 8.26802ZM19.2552 6.24002L19.2048 6.34082L16.26 7.15922L12.6936 8.21282L13.3896 7.22162C13.4736 7.08242 13.9416 6.51362 14.0592 6.38402L19.2552 6.24002ZM13.3776 6.40562L13.6464 6.64562L13.248 7.27202L12.5928 8.22002L12.1296 8.32082L8.604 7.31522L6.8136 6.84002L6.7752 6.61202L13.3776 6.40562ZM6.804 7.01522L7.7184 7.20722L12.1392 8.39042L6.3672 9.27122L6.0528 9.27842L6.0408 9.40562L5.7456 9.46802L6.3984 8.57522L6.372 9.17762L11.556 8.35922L7.6848 7.32482C7.6848 7.32482 6.936 7.30082 6.7368 7.30082C6.5352 7.30082 6.4752 7.32962 6.4752 7.52402H6.3072V7.60802H6.1392L6.0696 7.50962H5.6712L6.012 7.01522H6.804ZM2.0736 8.54882L2.3424 7.39922L2.532 7.48802L2.544 8.84882L2.0736 8.54882ZM2.604 7.03202L2.3976 6.96962L2.52 6.46802L2.7144 6.52322L2.604 7.03202ZM3.0624 7.25522L2.7336 7.09442L2.8344 6.87602H3.1944L3.2448 6.91202H4.8792L4.98 6.80402H5.2152L5.256 6.84962H5.784L5.8512 6.91682V7.00082L5.484 7.51202H4.8408L4.7928 7.58402L4.5792 7.54562L4.608 7.44482L4.212 7.38962L3.588 7.25522H3.0624ZM3.9264 9.10082L4.1784 7.79522L4.3392 7.80002L4.3512 8.01842H4.4136L4.5192 7.74962H4.7952L4.8408 7.78082H5.28L4.2144 9.24002L3.9264 9.10082ZM4.812 9.55682C4.7784 9.46322 4.4784 9.31202 4.3368 9.30482C4.1976 9.30002 5.4864 7.78082 5.4864 7.78082H6.0696L6.1392 7.67762H6.3408L6.4512 7.71602C6.4464 7.82642 6.4008 8.36402 6.4008 8.36402L5.5704 9.48482L4.812 9.55682Z" fill="currentColor"/>
</g>
<defs>
<clipPath id="clip0_1437_2165">
<rect width="24" height="12.7416" fill="currentColor" transform="translate(0 5.52002)"/>
</clipPath>
</defs>
</svg>
