<svg width="24" height="24" viewBox="0 0 24 24" fill="currentColor" xmlns="http://www.w3.org/2000/svg">
<g clip-path="url(#clip0_1437_1521)">
<path d="M23.8824 14.1913C23.8824 14.1913 23.5896 14.3425 23.58 14.3449V14.3497C23.5344 14.2873 23.4648 14.2441 23.3832 14.2441C23.3208 14.2441 23.2656 14.2681 23.2224 14.3065L21.1704 13.5265L21.2016 13.2601H13.9968L16.1232 13.5985L16.0536 14.0353H16.2192V14.4985H12.8712V14.0353H16.0104L11.1528 13.2601H10.3824L9.98397 13.1017L10.1664 12.9961L15.9624 13.9201L16.0008 13.6849L10.2648 12.7681L15.3432 13.2337L15.3648 12.9985L9.94557 12.5041L10.848 11.8177L10.7328 11.6641L9.27117 12.7081L8.97837 13.6873L7.98957 13.7377L7.95117 14.6833L8.35677 14.7769L8.22237 14.1841L9.12717 14.4409L12.1032 15.8257L12.2712 15.5809L14.3544 16.7521C14.9424 16.7929 15.6144 16.7881 15.8328 16.3969L12.2256 14.8825H16.2144V15.5953H16.38V14.8825H22.548V14.4985H20.3856V14.0353H21.0984L21.1296 13.8073L23.1504 14.5753C23.184 14.6737 23.2728 14.7433 23.3832 14.7433C23.4936 14.7433 23.5848 14.6689 23.616 14.5705C23.6232 14.5681 23.9976 14.3761 23.9976 14.3761L23.8824 14.1913ZM12.528 14.4985H11.3112L10.2264 14.0425L10.2288 14.0353H12.528V14.4985ZM20.0448 14.4985H16.3824V14.0353H20.0448V14.4985Z" fill="currentColor"/>
<path d="M16.0513 14.0352H16.0105L16.0513 14.0424V14.0352Z" fill="currentColor"/>
<path d="M1.76889 15.3384C1.05849 15.3384 0.468095 15.852 0.343295 16.5288C0.326495 16.6152 0.316895 16.704 0.316895 16.7952C0.316895 17.6016 0.969694 18.2568 1.76889 18.2568C2.57049 18.2568 3.22089 17.6016 3.22089 16.7952C3.22089 16.536 3.15369 16.296 3.03609 16.0848C2.78649 15.6384 2.31369 15.3384 1.76889 15.3384ZM1.76889 17.4336C1.41849 17.4336 1.13289 17.148 1.13289 16.7952C1.13289 16.6992 1.15449 16.6104 1.19289 16.5288C1.29369 16.3104 1.51209 16.1568 1.76889 16.1568C1.84809 16.1568 1.92489 16.1736 1.99689 16.2C2.23449 16.2912 2.40489 16.5216 2.40489 16.7952C2.40489 17.148 2.11929 17.4336 1.76889 17.4336Z" fill="currentColor"/>
<path d="M4.0272 16.5C4.1664 15.756 4.8168 15.1896 5.5992 15.1896C6.0552 15.1896 6.2448 15.3168 6.384 15.3984L7.7736 14.9712L7.836 13.356L6.3216 12.7968L6.1944 12.7896V11.0088H6.3984C6.2328 9.73682 5.4576 8.79362 4.656 8.04002C4.0944 7.51202 3.5232 7.04882 3.1296 6.79442L1.1184 5.67362L0 5.52002V5.73602L0.7752 6.12962C1.3656 6.40802 4.2072 7.95122 5.0616 9.81842C5.2224 10.1688 5.1768 10.6464 5.1768 11.0088H5.3664V12.7488L5.0232 12.732L4.4736 13.1928C4.4736 13.188 4.4736 13.1832 4.4736 13.1784C4.4736 12.8544 4.212 12.5928 3.888 12.5928C3.6624 12.5928 3.4656 12.7224 3.3672 12.9096L3.2736 12.9192C3.1488 12.7584 2.952 12.6552 2.7336 12.6552C2.46 12.6552 2.2224 12.816 2.112 13.0488H2.1096L1.6128 14.1168L2.0616 15.2184C2.5344 15.3072 2.9352 15.6024 3.1632 16.0104C3.2928 16.2432 3.3672 16.5072 3.3672 16.7928C3.3672 16.9248 3.3504 17.0544 3.3192 17.1768L4.044 17.1696C4.0152 17.0496 3.9984 16.9224 3.9984 16.7928C3.9984 16.6944 4.008 16.596 4.0272 16.5Z" fill="currentColor"/>
<path d="M12.1536 16.0009L12.0984 15.9745L9.07922 14.5681L8.41442 14.3809L8.69042 15.5641L9.20882 16.0993C9.28562 16.1545 9.35282 16.2049 9.41522 16.2529L8.34242 15.8593L7.97042 15.3673C7.99682 15.3121 7.99922 15.2569 7.96322 15.1993C7.90082 15.0985 7.73522 15.1849 7.53122 15.2473L6.42962 15.6001C6.19442 15.4345 5.90882 15.3337 5.59922 15.3337C4.88882 15.3337 4.29842 15.8473 4.17362 16.5241C4.15682 16.6105 4.14722 16.6993 4.14722 16.7905C4.14722 17.5969 4.80002 18.2521 5.59922 18.2521C6.40082 18.2521 7.05122 17.5969 7.05122 16.7905C7.05122 16.7497 7.04642 16.7113 7.04402 16.6705H8.81762L7.00322 16.0993L7.62002 15.8689C7.62002 15.8689 7.74002 15.6409 7.83602 15.5257L8.10002 16.3393L9.07922 16.6705H9.37202L10.272 16.7281C10.7136 16.9105 11.4864 17.2417 11.4864 17.2417C11.4864 17.2417 14.0568 17.8513 14.3472 17.8513C14.6208 17.8513 15.2016 17.7625 15.5976 17.6041L12.3144 15.7585L12.1536 16.0009ZM5.59922 17.4337C5.24882 17.4337 4.96322 17.1481 4.96322 16.7953C4.96322 16.6993 4.98482 16.6105 5.02322 16.5289C5.12402 16.3105 5.34242 16.1569 5.59922 16.1569C5.67842 16.1569 5.75522 16.1737 5.82722 16.2001C6.06482 16.2913 6.23522 16.5217 6.23522 16.7953C6.23522 17.1481 5.94962 17.4337 5.59922 17.4337ZM7.76642 15.2929C7.76642 15.2593 7.79522 15.2305 7.82882 15.2305C7.86242 15.2305 7.89122 15.2593 7.89122 15.2929C7.89122 15.3265 7.86242 15.3553 7.82882 15.3553C7.79522 15.3553 7.76642 15.3265 7.76642 15.2929Z" fill="currentColor"/>
</g>
<defs>
<clipPath id="clip0_1437_1521">
<rect width="24" height="12.7368" fill="currentColor" transform="translate(0 5.52002)"/>
</clipPath>
</defs>
</svg>
