<svg width="24" height="24" viewBox="0 0 24 24" fill="currentColor" xmlns="http://www.w3.org/2000/svg">
<g clip-path="url(#clip0_1422_1925)">
<path d="M18.7201 9.3192V1.0704C18.7201 0.5088 18.3865 0.0552 17.9785 0.0552L5.76968 0C5.35928 0 5.02808 0.456 5.02808 1.0128V6.6096H5.03288V9.2352H5.37608L5.37368 9.2424L9.83768 10.6632L5.37368 12.084L5.47928 12.72L5.37128 13.356L9.83528 14.7768L5.37128 16.2L5.46968 16.7712L5.37128 17.34L9.83528 18.7584L9.72968 18.792H14.0257L13.9177 18.7584L18.3793 17.34L18.2833 16.7712L18.3793 16.2L13.9177 14.7792L18.3793 13.3584L18.2737 12.72L18.3817 12.084L13.9201 10.6632L18.1465 9.3168H18.7201V9.3192ZM5.48168 3.6456H18.3217L18.3241 3.0192L5.48168 3.024V1.0128C5.48168 0.7968 5.60888 0.6216 5.76968 0.6216L17.9809 0.6744C18.1393 0.6744 18.2665 0.8496 18.2665 1.0656L18.2617 5.9856L5.48168 5.9904V3.6456ZM16.0873 16.7712L11.8777 18.1104L7.66808 16.7712L11.8777 15.4272L16.0873 16.7712ZM16.2937 12.72L11.8753 14.1288L7.46168 12.72L11.8777 11.3136L16.2937 12.72ZM17.6137 8.1888L11.8753 10.0128L6.32888 8.2464V8.1096H17.6137V8.1888Z" fill="currentColor"/>
<path d="M18.8857 18.7273H4.86011V20.8393H18.8857V18.7273Z" fill="currentColor"/>
<path d="M16.6321 22.7951C16.6321 23.4599 17.1697 23.9999 17.8273 23.9999C18.4873 23.9999 19.0225 23.4599 19.0225 22.7951C19.0225 22.7207 19.0153 22.6463 19.0009 22.5743C18.8977 22.0175 18.4105 21.5951 17.8249 21.5951C17.8033 21.5951 17.7817 21.5951 17.7625 21.5975L17.7289 21.3647H17.0497L17.2225 21.7583C17.0377 21.8663 16.8841 22.0223 16.7809 22.2095C16.6897 22.3847 16.6321 22.5839 16.6321 22.7951ZM17.3065 22.7951C17.3065 22.6271 17.3833 22.4807 17.5057 22.3847L17.7049 22.8335C17.7289 22.8887 17.7889 22.9175 17.8465 22.9031C17.9065 22.8863 17.9449 22.8287 17.9353 22.7687L17.8633 22.2743C18.0601 22.2863 18.2257 22.4063 18.3049 22.5767C18.3361 22.6439 18.3529 22.7183 18.3529 22.7975C18.3529 23.0879 18.1177 23.3231 17.8297 23.3231C17.5393 23.3231 17.3065 23.0879 17.3065 22.7951Z" fill="currentColor"/>
<path d="M7.0224 22.212C6.9168 22.0248 6.7656 21.8688 6.5808 21.7608L6.7536 21.3672H6.0768L6.0432 21.6C6.0216 21.6 6.0024 21.5976 5.9808 21.5976C5.3952 21.5976 4.908 22.02 4.8048 22.5768C4.7904 22.6488 4.7832 22.7208 4.7832 22.7952C4.7832 23.46 5.3208 24 5.9784 24C6.6384 24 7.1736 23.46 7.1736 22.7952C7.176 22.584 7.1208 22.3848 7.0224 22.212ZM5.9784 23.3232C5.6904 23.3232 5.4552 23.088 5.4552 22.7976C5.4552 22.7184 5.472 22.6464 5.5032 22.5768C5.5824 22.4064 5.748 22.2864 5.9448 22.2744L5.8728 22.7688C5.8632 22.8288 5.9016 22.8888 5.9616 22.9032C6.0192 22.9176 6.0792 22.8888 6.1032 22.8336L6.3024 22.3848C6.4224 22.4808 6.5016 22.6272 6.5016 22.7952C6.504 23.088 6.2688 23.3232 5.9784 23.3232Z" fill="currentColor"/>
</g>
<defs>
<clipPath id="clip0_1422_1925">
<rect width="14.2416" height="24" fill="currentColor" transform="translate(4.7832)"/>
</clipPath>
</defs>
</svg>
