<svg width="24" height="24" viewBox="0 0 24 24" fill="currentColor" xmlns="http://www.w3.org/2000/svg">
<g clip-path="url(#clip0_1420_1145)">
<path d="M18.912 20.0737C19.0968 20.0737 19.2744 20.1001 19.4472 20.1433V19.3057H16.6056L13.8168 22.8145H16.7496C16.7112 22.6513 16.6896 22.4785 16.6896 22.3057C16.6896 21.0745 17.688 20.0737 18.912 20.0737Z" fill="currentColor"/>
<path d="M19.4472 20.7095C19.2792 20.6519 19.0992 20.6135 18.912 20.6135C17.9832 20.6135 17.2272 21.3671 17.2272 22.3031C17.2272 22.4807 17.2632 22.6511 17.3136 22.8119C17.532 23.4959 18.1608 23.9975 18.912 23.9975C19.8408 23.9975 20.5944 23.2367 20.5944 22.3031C20.5944 21.5591 20.112 20.9327 19.4472 20.7095ZM18.912 23.0879C18.4824 23.0879 18.132 22.7375 18.132 22.3055C18.132 21.8711 18.4824 21.5207 18.912 21.5207C19.3416 21.5207 19.692 21.8711 19.692 22.3055C19.692 22.7375 19.3416 23.0879 18.912 23.0879Z" fill="currentColor"/>
<path d="M3.44644 20.7095C3.27844 20.6519 3.09844 20.6135 2.91124 20.6135C1.98004 20.6159 1.22644 21.3695 1.22644 22.3055C1.22644 22.4831 1.26244 22.6535 1.31284 22.8143C1.53124 23.5007 2.16004 23.9999 2.91124 23.9999C3.84004 23.9999 4.59604 23.2391 4.59604 22.3055C4.59604 21.5591 4.11364 20.9327 3.44644 20.7095ZM2.91124 23.0879C2.48164 23.0879 2.13124 22.7375 2.13124 22.3055C2.13124 21.8711 2.48164 21.5207 2.91124 21.5207C3.34084 21.5207 3.69124 21.8711 3.69124 22.3055C3.69124 22.7375 3.34084 23.0879 2.91124 23.0879Z" fill="currentColor"/>
<path d="M14.8392 3.97909L16.0896 2.30629V1.95829V0.715088L14.0448 3.45109L11.4888 6.86629L12.2472 7.43989L14.8392 3.97909Z" fill="currentColor"/>
<path d="M16.0345 19.3008L16.3417 18.912L16.3585 18.8904L16.1497 16.3992C16.1497 15.9816 15.8113 15.6408 15.3985 15.6408H12.9073C12.8881 15.6408 12.8689 15.6456 12.8497 15.648L11.2945 14.196L11.1409 14.3856V14.3496L8.92565 12.276L12.1705 7.94396L11.0353 7.08716L2.75525 18.084V20.0808C2.80565 20.076 2.85845 20.0712 2.91125 20.0712C4.13525 20.0712 5.13365 21.072 5.13365 22.3032C5.13365 22.4784 5.11205 22.6488 5.07365 22.8096H10.1497L4.50725 18.1776L8.74325 12.516L10.9633 14.6016L10.8217 14.7768L12.2233 16.0896C12.1801 16.1832 12.1561 16.2864 12.1561 16.3992V19.3272H6.61205L10.4329 22.464L10.4761 22.5H13.4953L16.0153 19.3272L16.0345 19.3008ZM12.5137 16.3992C12.5137 16.3872 12.5185 16.3776 12.5209 16.368L14.0785 17.832H12.5137V16.3992ZM12.5137 19.3272V18.1896H14.4625L15.6745 19.3272H12.5137ZM13.2289 16.0032H15.3985C15.6145 16.0032 15.7921 16.1808 15.7921 16.4136L15.9721 18.5688L13.2289 16.0032Z" fill="currentColor"/>
<path d="M22.4569 0V0.4752H16.8721V0H16.4449V1.7832H16.8721V1.308H22.4569V1.7832H22.8841V1.308V0.4752V0H22.4569Z" fill="currentColor"/>
<path d="M21.6552 1.85034H20.9328H20.5728H19.8048H19.4472H18.6792H18.3216H17.6736H17.2272V2.30154V6.76554V7.21674H17.6736H18.3216H18.6792H19.4472H19.8048H20.5728H20.9328H21.6552H22.0968H22.1016V1.85034H22.0968H21.6552ZM17.6736 6.76794V2.30154H18.3216V6.76554H17.6736V6.76794ZM18.6816 6.76794V2.30154H19.4496V6.76554H18.6816V6.76794ZM19.8072 6.76794V2.30154H20.5752V6.76554H19.8072V6.76794ZM20.9328 6.76794V2.30154H21.6552V6.76554H20.9328V6.76794Z" fill="currentColor"/>
</g>
<defs>
<clipPath id="clip0_1420_1145">
<rect width="21.6576" height="24" fill="currentColor" transform="translate(1.22644)"/>
</clipPath>
</defs>
</svg>
