<svg width="24" height="24" viewBox="0 0 24 24" fill="currentColor" xmlns="http://www.w3.org/2000/svg">
<g clip-path="url(#clip0_1420_1392)">
<path d="M3.34557 18.7246C1.90077 18.7246 0.719971 19.903 0.719971 21.3622C0.719971 22.819 1.90077 23.9998 3.34557 23.9998C4.79757 23.9998 5.97117 22.819 5.97117 21.3622C5.97117 19.903 4.79757 18.7246 3.34557 18.7246ZM3.34557 22.5838C2.67597 22.5838 2.13117 22.039 2.13117 21.3622C2.13117 20.6854 2.67597 20.1358 3.34557 20.1358C4.01757 20.1358 4.55997 20.6878 4.55997 21.3622C4.55997 22.039 4.01757 22.5838 3.34557 22.5838Z" fill="currentColor"/>
<path d="M9.17277 0H0.719971V18.0624H9.17277V0Z" fill="currentColor"/>
<path d="M8.47915 18.7031H5.43115V18.7247C6.14395 19.1711 6.62395 19.9487 6.66235 20.8415H8.47915V18.7031Z" fill="currentColor"/>
<path d="M10.932 18.3384L9.08398 19.1376V20.2104L11.3184 19.2336L10.932 18.3384ZM10.6392 19.212C10.5096 19.212 10.4064 19.1064 10.4064 18.9792C10.4064 18.852 10.512 18.7464 10.6392 18.7464C10.7688 18.7464 10.872 18.852 10.872 18.9792C10.872 19.1064 10.7688 19.212 10.6392 19.212Z" fill="currentColor"/>
<path fill-rule="evenodd" clip-rule="evenodd" d="M18.3264 18.5017L11.556 18.7393L11.3472 18.3193H18.3264V18.5017Z" fill="currentColor"/>
<path d="M17.4912 8.15527H12.2856V14.7361H12.6744V12.3793H17.4912C18.1344 12.3793 18.6576 11.8561 18.6576 11.2129V9.31927C18.6576 8.67847 18.1344 8.15527 17.4912 8.15527ZM18.2688 11.2153C18.2688 11.6449 17.9208 11.9929 17.4912 11.9929H12.6744V8.54407H17.4912C17.9208 8.54407 18.2688 8.89207 18.2688 9.32167V11.2153Z" fill="currentColor"/>
<path fill-rule="evenodd" clip-rule="evenodd" d="M11.352 14.7383V17.9759H23.2176V14.7383H11.352ZM18.2856 15.7151H16.2816V15.2351H18.2856V15.7151Z" fill="currentColor"/>
</g>
<defs>
<clipPath id="clip0_1420_1392">
<rect width="22.4976" height="24" fill="currentColor" transform="translate(0.719971)"/>
</clipPath>
</defs>
</svg>
