<svg width="24" height="24" viewBox="0 0 24 24" fill="currentColor" xmlns="http://www.w3.org/2000/svg">
<g clip-path="url(#clip0_1417_1669)">
<path d="M1.59841 20.7288L1.59601 21.7872C1.78081 21.8784 1.90321 22.0656 1.91041 22.2744H2.04721V22.62H2.52481V22.2744H2.68561L2.68801 20.6544L1.59841 20.7288Z" fill="currentColor"/>
<path d="M5.51999 18.9696C4.37519 18.9696 3.44159 19.9032 3.44159 21.0576C3.44159 22.212 4.37519 23.1432 5.51999 23.1432C6.66959 23.1432 7.59839 22.2096 7.59839 21.0576C7.59839 19.9032 6.66959 18.9696 5.51999 18.9696ZM5.51999 22.0224C4.98959 22.0224 4.55759 21.5904 4.55759 21.0576C4.55759 20.5224 4.98959 20.088 5.51999 20.088C6.05279 20.088 6.47999 20.5248 6.47999 21.0576C6.48239 21.5904 6.05279 22.0224 5.51999 22.0224Z" fill="currentColor"/>
<path d="M20.6976 18.5856C19.6848 18.5856 18.8592 19.4112 18.8592 20.4312C18.8592 21.4512 19.6848 22.2768 20.6976 22.2768C21.7128 22.2768 22.536 21.4512 22.536 20.4312C22.536 19.4112 21.7128 18.5856 20.6976 18.5856ZM20.6976 21.2856C20.2296 21.2856 19.848 20.904 19.848 20.4312C19.848 19.9584 20.2296 19.572 20.6976 19.572C21.168 19.572 21.5472 19.9584 21.5472 20.4312C21.5472 20.904 21.168 21.2856 20.6976 21.2856Z" fill="currentColor"/>
<path d="M4.79999 1.96076C4.79999 1.96076 4.80239 1.26236 4.80239 1.16396C4.80239 1.00076 4.97759 0.959961 5.31839 0.959961C5.65919 0.959961 5.82959 0.983961 5.82959 1.15436C5.82959 1.32476 5.83919 1.94876 5.83919 1.94876L4.79999 1.96076Z" fill="currentColor"/>
<path d="M17.5176 21.3312H9.43201V21.9792L9.43681 22.104L9.64801 22.1088H17.304L17.5224 22.1136L17.5176 21.9792V21.3312Z" fill="currentColor"/>
<path d="M0.30481 15.8688L0.97681 19.8456C1.02241 20.112 1.26241 20.3016 1.53121 20.2848L3.18961 20.1768C3.54481 19.2312 4.45681 18.5592 5.52001 18.5592C6.46801 18.5592 7.29601 19.0944 7.71601 19.8816L11.496 19.6344V19.92H9.92161V20.8632H17.028V19.92H15.4536V19.3752L18.8448 19.152C19.2504 18.5616 19.9296 18.1752 20.6976 18.1752C21.36 18.1752 21.9552 18.4632 22.368 18.9216L23.4864 18.8496C23.7648 18.8304 23.9808 18.6 23.9808 18.3216V15.8688H0.30481Z" fill="currentColor"/>
<path d="M17.1648 15.3527H8.15759V8.82471H16.5072C16.872 8.82471 17.1648 9.11991 17.1648 9.48231V15.3527Z" fill="currentColor"/>
<path d="M1.4016 6.05273L0.525595 9.05274C0.415195 9.42954 0.698395 9.80634 1.0896 9.80634H1.2864V11.0759H0.719995C0.307195 11.0759 -0.0216051 11.4239 0.00239495 11.8343L0.189595 15.3503H7.464V11.4791V11.0759V9.80634V9.57594V6.05273H1.4016Z" fill="currentColor"/>
<path d="M2.6952 3.08876L6.048 2.48636C6.4488 2.41436 6.8304 2.68076 6.9048 3.08156L7.3512 5.53436H1.4592L2.1264 3.57836C2.2152 3.32156 2.4312 3.13676 2.6952 3.08876Z" fill="currentColor"/>
<path d="M21.3792 15.3527H24C24 15.3527 23.8392 12.0839 23.2824 9.37911C23.064 8.31591 22.6152 7.13031 22.2024 6.17511C21.8856 5.44311 22.1928 4.52391 22.0368 4.21911C21.9744 4.09911 21.8256 4.05351 21.708 4.12071L21.4992 4.23831L21.3936 4.04871L21.4344 4.02711L21.372 3.91431L21.0048 4.11591L21.0672 4.22871L21.108 4.20711L21.2136 4.39911L20.796 4.63431C20.6304 4.57431 20.4744 4.52391 20.3688 4.49511L20.4528 4.45431L20.4264 4.21911C20.4888 4.15911 20.5272 4.07511 20.5224 3.98151C20.5176 3.81831 20.5344 3.65271 20.5752 3.48711L21.0984 3.23991C21.168 3.20871 21.2208 3.15351 21.2472 3.08391C21.2736 3.01671 21.2736 2.93751 21.2376 2.86551L21.2136 2.82231C21.1872 2.75511 21.1296 2.70231 21.0624 2.67591C20.9976 2.65191 20.916 2.65191 20.8512 2.68791L17.9448 4.05111C17.868 4.08471 17.8128 4.15191 17.7984 4.20951C17.772 4.27911 17.7768 4.35831 17.8104 4.42551L17.8296 4.46631C17.8584 4.53351 17.9136 4.58631 17.9832 4.61271C18.0504 4.63911 18.1272 4.63431 18.1992 4.60551L18.9096 4.27431C18.972 4.37751 19.0392 4.48071 19.1088 4.57911C19.1688 4.66311 19.26 4.71351 19.3728 4.70391L19.548 4.88151L19.6056 4.85271L19.7232 5.23431L19.2528 5.49831C19.1424 5.56071 19.1016 5.69751 19.1568 5.81031C19.4328 6.36231 20.208 7.99671 20.7888 9.98151C21.1248 11.1287 21.2784 12.3287 21.3456 13.3031L20.9088 13.4591L21.0336 13.8071L21.3696 13.6871C21.3768 13.8527 21.384 14.0063 21.3888 14.1527L21.0024 14.2895L21.1272 14.6375L21.396 14.5415C21.396 15.0407 21.3792 15.3527 21.3792 15.3527Z" fill="currentColor"/>
<path d="M10.4208 8.42638C10.4208 8.42638 13.644 8.46958 13.9968 8.46958C14.3496 8.46958 14.5152 8.36638 14.5968 8.06158C14.6688 7.79278 14.5992 7.45678 14.0832 7.37998C13.7328 7.32958 11.0832 7.01278 10.6872 6.92398C10.2888 6.83518 10.5096 6.39358 10.5096 6.39358C10.5096 6.39358 10.7304 5.36398 10.5096 4.65838C10.2888 3.95278 9.80398 3.33358 9.67198 2.80318C9.53998 2.27278 9.66238 1.84558 9.30718 1.84558C9.02638 1.84558 9.00958 2.00878 9.00958 2.05198C9.00958 2.09758 9.00958 6.83518 9.00958 6.83518H9.36238C9.36238 8.47198 10.4208 8.42638 10.4208 8.42638Z" fill="currentColor"/>
<path d="M4.80719 2.45042L5.82959 2.29922V2.10962H4.80719V2.45042Z" fill="currentColor"/>
</g>
<defs>
<clipPath id="clip0_1417_1669">
<rect width="24" height="22.1832" fill="currentColor" transform="translate(0 0.959961)"/>
</clipPath>
</defs>
</svg>
