<svg width="24" height="24" viewBox="0 0 24 24" fill="currentColor" xmlns="http://www.w3.org/2000/svg">
<g clip-path="url(#clip0_1417_1571)">
<path d="M13.7016 17.7H8.7984V18.0864L8.8008 18.1608L8.9304 18.1632H13.5696L13.704 18.1656L13.7016 18.0864V17.7Z" fill="currentColor"/>
<path d="M3.3168 14.7144C2.3304 14.7144 1.5264 15.504 1.5264 16.4808C1.5264 17.4576 2.3304 18.2472 3.3168 18.2472C4.3056 18.2472 5.1048 17.4576 5.1048 16.4808C5.1048 15.5064 4.3056 14.7144 3.3168 14.7144ZM3.3168 17.2992C2.8608 17.2992 2.4888 16.9344 2.4888 16.4808C2.4888 16.0272 2.8608 15.66 3.3168 15.66C3.7752 15.66 4.1448 16.0296 4.1448 16.4808C4.1448 16.9344 3.7752 17.2992 3.3168 17.2992Z" fill="currentColor"/>
<path d="M16.572 14.7144C15.5856 14.7144 14.7816 15.504 14.7816 16.4808C14.7816 17.4576 15.5856 18.2472 16.572 18.2472C17.5608 18.2472 18.36 17.4576 18.36 16.4808C18.36 15.5064 17.5608 14.7144 16.572 14.7144ZM16.572 17.2992C16.116 17.2992 15.744 16.9344 15.744 16.4808C15.744 16.0272 16.116 15.66 16.572 15.66C17.0304 15.66 17.4 16.0296 17.4 16.4808C17.4 16.9344 17.0304 17.2992 16.572 17.2992Z" fill="currentColor"/>
<path d="M16.572 14.3808C16.3656 14.3808 16.1664 14.412 15.9768 14.4672H17.1696C16.98 14.412 16.7784 14.3808 16.572 14.3808Z" fill="currentColor"/>
<path d="M5.6616 14.4672L5.1072 13.464H0V16.4448H1.1904C1.212 15.3048 2.1576 14.3832 3.3168 14.3832C4.476 14.3832 5.4216 15.3048 5.4432 16.4448H10.0512V16.86H9.096V17.4216H13.404V16.86H12.4488V16.4448H14.4432C14.46 15.5088 15.1032 14.7216 15.9744 14.4696H5.6616V14.4672Z" fill="currentColor"/>
<path d="M22.3128 16.0512C22.3128 15.5352 22.0656 15.1176 21.7512 15.0768V14.4672H17.1672C18.0384 14.7192 18.6792 15.5064 18.6984 16.4424H20.6016L19.3992 17.4072C19.3992 17.4432 19.4112 17.4792 19.4304 17.5104C19.4496 17.628 19.5216 17.7648 19.728 17.8704L19.8 17.7312C19.9224 17.7672 20.0664 17.7936 20.2176 17.8104L20.1816 18.0096C20.3184 18.0336 20.4648 18.0504 20.616 18.0624L20.6304 17.8464C20.7744 17.8512 20.916 17.8536 21.048 17.8584V18.0792L21.1872 18.0816C21.2904 18.0816 21.3864 18.0792 21.468 18.0768L21.4632 17.8536C21.5664 17.8536 21.648 17.8512 21.6984 17.8512C21.7392 17.8512 21.8016 17.8536 21.8808 17.8536L21.876 18.0768C21.9696 18.0768 22.0872 18.0792 22.2216 18.0792H22.224H22.2984V17.856C22.4304 17.8536 22.572 17.8512 22.7136 17.844L22.7256 18.0624C22.8744 18.0552 23.0232 18.0408 23.16 18.0192L23.1264 17.8152C23.2752 17.8008 23.4168 17.7768 23.5416 17.748L23.6088 17.904C23.9232 17.7768 23.988 17.5824 23.9904 17.4384C23.9904 17.4264 23.9952 17.4192 23.9952 17.4072L22.3128 16.0512Z" fill="currentColor"/>
<path d="M8.9736 14.076H13.5312V6.56161L8.9736 6.17041V14.076Z" fill="currentColor"/>
<path d="M17.7 6.69124C17.7 6.69124 17.7024 6.24484 17.7024 6.18484C17.7024 6.08164 17.8152 6.05524 18.0384 6.05524C18.2592 6.05524 18.3696 6.06964 18.3696 6.18004C18.3696 6.29044 18.3744 6.68644 18.3744 6.68644L17.7 6.69124Z" fill="currentColor"/>
<path d="M1.7064 6.17042C1.7064 6.07442 1.7016 5.75282 1.7016 5.65442C1.7016 5.53682 1.5816 5.52002 1.3416 5.52002C1.1016 5.52002 0.9792 5.54882 0.9792 5.66162C0.9792 5.71682 0.9768 6.06002 0.9768 6.17282H0V13.092H5.3448L5.916 14.076H8.4984V6.17042H1.7064Z" fill="currentColor"/>
<path d="M19.6248 7.4496C19.0968 6.564 18.5832 6.6288 18.5832 6.6288H14.028L14.0016 14.076C14.0016 14.076 16.3536 14.016 17.4384 14.0064L15.5568 10.8384C15.2832 10.8384 14.6952 10.8384 14.6952 10.8384L14.6592 7.272H18.5568C18.5568 7.272 19.4112 8.124 19.9968 10.3128L19.8312 10.1544L19.2144 10.5504L18.7032 10.1304L18.984 9.9504C19.044 9.912 19.0608 9.8328 19.0224 9.7728C18.9816 9.7128 18.9024 9.696 18.8424 9.7344L17.9928 10.2792C17.9328 10.3176 17.916 10.3968 17.9544 10.4568C17.9784 10.4952 18.0216 10.5144 18.0648 10.5144C18.0888 10.5144 18.1152 10.5072 18.1368 10.4928L18.4536 10.2888L18.7176 10.8384C18.5664 10.8384 18.4656 10.8384 18.4656 10.8384L18.504 13.9512C18.504 13.9512 21.312 13.9824 21.4392 13.98C21.3336 11.2344 20.1504 8.3352 19.6248 7.4496Z" fill="currentColor"/>
</g>
<defs>
<clipPath id="clip0_1417_1571">
<rect width="24" height="12.7296" fill="currentColor" transform="translate(0 5.52002)"/>
</clipPath>
</defs>
</svg>
