<svg width="25" height="24" viewBox="0 0 25 24" fill="currentColor" xmlns="http://www.w3.org/2000/svg">
<g clip-path="url(#clip0_1417_1188)">
<path d="M23.976 18.0072H18.8952V18.5952L18.9 18.708L19.032 18.7128H23.8416L23.9808 18.7176L23.976 18.5952V18.0072Z" fill="currentColor"/>
<path d="M0.628804 16.7256L0.626404 17.8464C0.823204 17.9424 0.952804 18.1416 0.957604 18.3624H1.104V18.7272H1.6104V18.3624H1.7808L1.7832 16.7232H0.628804V16.7256Z" fill="currentColor"/>
<path d="M0.506411 18.0432C0.470411 18.0312 0.432011 18.024 0.393611 18.024C0.196811 18.024 0.0360107 18.1848 0.0360107 18.384C0.0360107 18.4225 0.0432107 18.4585 0.0552107 18.4921C0.100811 18.6385 0.235211 18.7441 0.396011 18.7441C0.592811 18.7441 0.753611 18.5833 0.753611 18.384C0.748811 18.2232 0.648011 18.0888 0.506411 18.0432ZM0.391211 18.5473C0.300011 18.5473 0.225611 18.4729 0.225611 18.3817C0.225611 18.288 0.300011 18.216 0.391211 18.216C0.482411 18.216 0.556811 18.2904 0.556811 18.3817C0.556811 18.4729 0.482411 18.5473 0.391211 18.5473Z" fill="currentColor"/>
<path d="M22.0632 11.6424C21.7368 10.632 19.8864 7.14962 16.9752 6.95762C16.8888 6.90002 16.7952 6.84722 16.7016 6.83042C16.3752 6.77522 16.0488 6.79442 15.8688 6.81362L15.9192 6.76082L15.8376 6.60002C15.8664 6.54002 15.8712 6.46802 15.8448 6.40322C15.7968 6.28802 15.7632 6.16322 15.7488 6.03122L16.0608 5.70962C16.1016 5.66882 16.1256 5.61362 16.1256 5.55602C16.1256 5.50082 16.104 5.44322 16.0584 5.40002L16.0296 5.37602C15.9912 5.33522 15.936 5.31122 15.8808 5.31122C15.8256 5.31122 15.768 5.33522 15.732 5.37842L13.9968 7.15442C13.9512 7.20002 13.9272 7.26242 13.9344 7.30802C13.9344 7.36562 13.9584 7.42322 14.0016 7.46162L14.0256 7.48562C14.0664 7.52642 14.1192 7.55042 14.1768 7.55042C14.232 7.55042 14.2872 7.52882 14.3304 7.48562L14.7552 7.05362C14.8272 7.11122 14.904 7.16882 14.9808 7.21922C15.048 7.26242 15.1272 7.27442 15.2064 7.23842L15.3816 7.32002L15.4152 7.28402L16.8912 9.20402L16.9032 11.2128H12.888V10.6776L13.932 10.1976V9.37682H11.2392L10.8144 8.66402C10.8384 8.59442 10.8552 8.52242 10.8552 8.44562C10.8768 7.40402 10.6728 6.37202 10.26 5.45762C10.2144 5.35922 10.1304 5.29442 10.0392 5.28962C9.91921 5.28242 9.79681 5.28242 9.67681 5.29202C9.60481 5.29922 9.54001 5.34242 9.49201 5.40962C9.44641 5.47922 9.42241 5.56082 9.42961 5.64962L9.45361 5.93522C9.06961 5.94962 8.47441 5.99282 7.55041 6.07922C5.63761 6.25202 1.55281 7.10642 1.33201 8.58242C1.22161 9.32402 1.18081 10.9536 1.16641 12.3936H22.224C22.1832 12.108 22.1304 11.8464 22.0632 11.6424Z" fill="currentColor"/>
<path d="M7.51919 17.1816C7.46879 17.5944 7.332 17.9808 7.1088 18.3096H7.21919H11.4672V17.1816H7.51919Z" fill="currentColor"/>
<path d="M4.96561 15.0048C3.95041 15.0048 3.12241 15.8328 3.12241 16.8576C3.12241 17.88 3.95041 18.7104 4.96561 18.7104C5.98561 18.7104 6.80881 17.8824 6.80881 16.8576C6.80881 15.8328 5.98321 15.0048 4.96561 15.0048ZM4.96561 17.7144C4.49521 17.7144 4.11361 17.3304 4.11361 16.8576C4.11361 16.3824 4.49761 15.996 4.96561 15.996C5.43841 15.996 5.81761 16.3824 5.81761 16.8576C5.81761 17.3304 5.43601 17.7144 4.96561 17.7144Z" fill="currentColor"/>
<path d="M22.68 16.2072H24L23.9808 15.6168C23.9808 14.8272 23.6112 14.1912 23.1384 14.1288V13.1976H0V16.2144H2.4672C2.7528 15.0888 3.7608 14.256 4.9632 14.256C6.1704 14.256 7.1736 15.0888 7.4616 16.2144L20.1912 16.2096V16.7736V16.728H19.2024V17.5848H23.6688V16.728H22.68V16.2072Z" fill="currentColor"/>
</g>
<defs>
<clipPath id="clip0_1417_1188">
<rect width="24" height="13.4616" fill="currentColor" transform="translate(0 5.28003)"/>
</clipPath>
</defs>
</svg>
