<svg width="25" height="24" viewBox="0 0 25 24" fill="currentColor" xmlns="http://www.w3.org/2000/svg">
<g clip-path="url(#clip0_1417_1200)">
<path d="M20.1144 11.7912C19.8312 10.908 18.216 7.87202 15.6768 7.70402C15.6 7.65362 15.5208 7.60802 15.4392 7.59362C15.1536 7.54562 14.8704 7.56242 14.712 7.57922L14.7552 7.53362L14.6832 7.39202C14.7096 7.33922 14.712 7.27682 14.688 7.21922C14.6472 7.11842 14.616 7.00802 14.604 6.89522L14.88 6.61442C14.916 6.57842 14.9352 6.53042 14.9352 6.48002C14.9352 6.43202 14.916 6.38162 14.8776 6.34322L14.8512 6.32162C14.8176 6.28562 14.7696 6.26642 14.7216 6.26642C14.6736 6.26642 14.6232 6.28562 14.592 6.32402L13.0752 7.87202C13.0344 7.91282 13.0152 7.96562 13.02 8.00642C13.02 8.05682 13.0416 8.10722 13.0776 8.14082L13.0992 8.16242C13.1328 8.19842 13.1808 8.21762 13.2312 8.21762C13.2792 8.21762 13.3272 8.19842 13.3656 8.16242L13.7352 7.78562C13.7976 7.83602 13.8648 7.88642 13.932 7.93202C13.9896 7.97042 14.0592 7.98002 14.1288 7.94882L14.2824 8.02082L14.3112 7.98962L15.6 9.66482L15.612 11.4168H12.108V10.9512L13.02 10.5312V9.81602H10.6704L10.3008 9.19442C10.3224 9.13442 10.3368 9.07202 10.3368 9.00482C10.356 8.09522 10.176 7.19522 9.81841 6.39842C9.77761 6.31202 9.70561 6.25682 9.62641 6.25202C9.52081 6.24482 9.41521 6.24482 9.30961 6.25442C9.24721 6.26162 9.18961 6.29762 9.14881 6.35522C9.10801 6.41522 9.08881 6.48722 9.09361 6.56642L9.11281 6.81602C8.77681 6.82802 8.25841 6.86642 7.45201 6.94082C5.78641 7.08722 2.22241 7.83362 2.03041 9.12002C1.93441 9.76802 1.89841 11.1888 1.88641 12.4464H20.256C20.22 12.1968 20.1744 11.9688 20.1144 11.7912Z" fill="currentColor"/>
<path d="M0 16.6224V17.6064H3.3264C3.132 17.3208 3.012 16.9824 2.9688 16.6224H0Z" fill="currentColor"/>
<path d="M7.42797 16.6224C7.38477 16.9824 7.26477 17.3184 7.07037 17.6064H7.16637H16.0176V16.6224H7.42797Z" fill="currentColor"/>
<path d="M5.19839 14.724C4.31279 14.724 3.59039 15.4464 3.59039 16.3392C3.59039 17.232 4.31279 17.9544 5.19839 17.9544C6.08879 17.9544 6.80639 17.232 6.80639 16.3392C6.80639 15.4464 6.08879 14.724 5.19839 14.724ZM5.19839 17.088C4.78799 17.088 4.45439 16.7544 4.45439 16.3392C4.45439 15.9264 4.78799 15.588 5.19839 15.588C5.61119 15.588 5.94239 15.9264 5.94239 16.3392C5.94239 16.752 5.61119 17.088 5.19839 17.088Z" fill="currentColor"/>
<path d="M21.7896 15.2568C21.7896 14.568 21.4656 14.0136 21.0552 13.9584V13.1448H0.868774V15.7776H3.02158C3.27118 14.796 4.14958 14.0688 5.20078 14.0688C6.25438 14.0688 7.13038 14.796 7.37998 15.7776H19.5504L17.9736 17.0616C17.9736 17.1096 17.988 17.1552 18.0144 17.1984C18.0408 17.3544 18.1344 17.5368 18.4056 17.6784L18.4992 17.4936C18.66 17.5416 18.8472 17.5776 19.0464 17.5992L18.9984 17.8632C19.1784 17.8968 19.3704 17.9184 19.5672 17.9328L19.5864 17.6448C19.776 17.652 19.9608 17.6568 20.1336 17.6592V17.9544L20.316 17.9592C20.4528 17.9592 20.5752 17.9544 20.6832 17.952L20.6784 17.6544C20.8128 17.6544 20.9208 17.6496 20.9856 17.6496C21.0384 17.6496 21.1224 17.6544 21.2256 17.6544L21.2208 17.952C21.3432 17.952 21.4992 17.9544 21.672 17.9544H21.6768H21.7728V17.6592C21.9456 17.6568 22.1304 17.652 22.3176 17.6448L22.3344 17.9352C22.5312 17.9256 22.7232 17.9064 22.9032 17.8776L22.86 17.6064C23.0568 17.5872 23.2416 17.556 23.4048 17.5152L23.4912 17.7216C23.9016 17.5512 23.988 17.292 23.9928 17.1024C23.9928 17.088 24 17.076 24 17.0616L21.7896 15.2568Z" fill="currentColor"/>
</g>
<defs>
<clipPath id="clip0_1417_1200">
<rect width="24" height="11.7192" fill="currentColor" transform="translate(0 6.23999)"/>
</clipPath>
</defs>
</svg>
