<svg width="24" height="24" viewBox="0 0 24 24" fill="currentColor" xmlns="http://www.w3.org/2000/svg">
<g clip-path="url(#clip0_1532_954)">
<path d="M12.7487 10.6589C12.7847 10.6565 12.8231 10.6421 12.8543 10.6181L14.0735 9.66768C14.1599 9.60048 14.1767 9.47568 14.1071 9.38688C14.0399 9.30048 13.9151 9.28368 13.8263 9.35328L12.6071 10.3037C12.5207 10.3709 12.5039 10.4957 12.5735 10.5845C12.6167 10.6373 12.6839 10.6637 12.7487 10.6589Z" fill="currentColor"/>
<path d="M15.3598 15.1757V15.1733H15.355L15.3598 15.1757Z" fill="currentColor"/>
<path d="M13.4951 10.3995L13.8335 10.9803C13.7207 11.1867 13.6031 11.4243 13.6031 11.4243L14.8463 13.8411L15.3599 15.1731L17.2199 15.1203L15.0143 10.3155C14.8559 10.3155 14.7047 10.3155 14.6807 10.3155L14.2535 10.4811L14.1983 10.5315L13.8095 10.1499L13.4951 10.3995Z" fill="currentColor"/>
<path d="M14.1074 16.8193C13.0826 16.8193 12.2306 17.5609 12.0482 18.5353C12.0266 18.6601 12.0122 18.7897 12.0122 18.9193C12.0122 20.0809 12.953 21.0265 14.1074 21.0265C15.2618 21.0265 16.2026 20.0809 16.2026 18.9193C16.2026 18.5473 16.1042 18.1993 15.9362 17.8945C15.5762 17.2537 14.8922 16.8193 14.1074 16.8193ZM14.1074 19.8433C13.6034 19.8433 13.1906 19.4305 13.1906 18.9217C13.1906 18.7825 13.2218 18.6553 13.277 18.5377C13.4234 18.2209 13.7402 18.0025 14.1074 18.0025C14.2226 18.0025 14.333 18.0265 14.4338 18.0649C14.777 18.1969 15.0242 18.5281 15.0242 18.9241C15.0242 19.4305 14.6138 19.8433 14.1074 19.8433Z" fill="currentColor"/>
<path d="M2.0832 16.5386C1.0656 16.5386 0.216 17.2754 0.036 18.245C0.0144 18.3698 0 18.4994 0 18.629C0 19.7858 0.936 20.7266 2.0832 20.7266C3.2328 20.7266 4.1664 19.7858 4.1664 18.629C4.1664 18.2594 4.0704 17.9114 3.9 17.6114C3.5448 16.9706 2.8656 16.5386 2.0832 16.5386ZM2.0832 19.5458C1.5816 19.5458 1.1712 19.1354 1.1712 18.629C1.1712 18.4922 1.2024 18.3626 1.2576 18.2474C1.4016 17.933 1.7184 17.7146 2.0832 17.7146C2.1984 17.7146 2.3064 17.7386 2.4096 17.777C2.7504 17.909 2.9952 18.2378 2.9952 18.6314C2.9952 19.1354 2.5872 19.5458 2.0832 19.5458Z" fill="currentColor"/>
<path d="M8.86307 13.6443C8.86307 13.6443 11.0831 13.6779 11.3255 13.6779C11.5679 13.6779 11.6831 13.5987 11.7383 13.3587C11.7863 13.1475 11.7407 12.8859 11.3855 12.8283C11.1455 12.7875 9.31907 12.5427 9.04547 12.4731C8.77187 12.4035 8.92307 12.0603 8.92307 12.0603C8.92307 12.0603 9.07427 11.3715 8.92307 10.8195C8.87027 10.6227 8.79107 10.4379 8.71187 10.2579L8.63747 7.20034L10.3895 3.53074C10.4567 3.38674 10.3967 3.21634 10.2527 3.14674C10.1087 3.07714 9.93827 3.13954 9.86867 3.28114L8.02067 7.16194L8.02787 8.62834C7.89587 8.65234 7.88867 8.75314 7.88867 8.78434C7.88867 8.82034 7.88867 12.4011 7.88867 12.4011H8.13107C8.13347 13.6803 8.86307 13.6443 8.86307 13.6443Z" fill="currentColor"/>
<path d="M6.11058 18.665H7.23138L6.07218 18.881C5.92338 18.9098 5.82738 19.0514 5.85378 19.2002L5.93058 19.6154L5.38818 19.7162L5.50578 20.3402L6.31458 20.189L6.51618 20.1506L8.32578 19.8122C8.47458 19.7834 8.57058 19.6418 8.54418 19.493L8.40018 18.7202C8.39538 18.6986 8.39058 18.6794 8.38098 18.6626H8.70018V17.3306H6.10818V18.665H6.11058Z" fill="currentColor"/>
<path d="M23.7816 18.3506H22.2793C21.9025 18.3506 21.5785 18.6746 21.4993 19.1258L21.3072 20.2442C21.2736 20.4458 21.3984 20.6354 21.5664 20.6354H23.7816C23.9016 20.6354 24 20.5154 24 20.3666V18.6194C24 18.4706 23.9016 18.3506 23.7816 18.3506Z" fill="currentColor"/>
<path d="M8.03513 15.1996H13.4111L13.2047 14.5084C13.1471 14.3164 12.9719 14.1868 12.7727 14.1868H7.87913L7.34633 10.7212C6.20393 10.8244 4.05593 11.0188 3.24233 11.1124C2.15273 11.2348 0.727125 12.1684 0.727125 13.5868C0.727125 15.0076 0.703125 15.1996 0.703125 15.1996H7.47113H8.03513Z" fill="currentColor"/>
<path d="M21.4343 18.4538C21.4319 18.3338 21.3359 18.2378 21.2159 18.2378H21.2135L21.0935 18.2402V17.7746H18.7127V18.2618C18.3551 18.2618 18.0143 18.257 17.6951 18.2498C17.2679 18.2402 17.1551 17.7866 17.0087 17.0498C17.0039 17.0306 17.0015 17.009 16.9967 16.9898H18.8975L18.1391 15.6914H0.163086V16.9898H0.290286C0.739086 16.505 1.37749 16.2026 2.07589 16.2002H2.08549C2.77189 16.2002 3.41989 16.493 3.87829 16.9898H12.5639C12.9863 16.6466 13.5239 16.4426 14.0999 16.4402H14.1095C14.6783 16.4402 15.2207 16.6418 15.6527 16.9898H16.5551C16.5647 17.0378 16.5743 17.0882 16.5839 17.1362C16.7279 17.8538 16.8887 18.6674 17.6879 18.689C18.0095 18.6962 18.3551 18.701 18.7151 18.701V19.4594H21.0959V18.6818L21.2207 18.6794C21.3407 18.6722 21.4367 18.5738 21.4343 18.4538Z" fill="currentColor"/>
<path d="M20.6206 19.647H18.5758C18.391 19.647 18.2422 19.7958 18.2422 19.9806V20.643H20.9542V19.9806C20.9542 19.7958 20.8054 19.647 20.6206 19.647Z" fill="currentColor"/>
<path d="M20.8415 16.8797C20.8271 16.7597 20.7263 16.6709 20.6063 16.6709H20.3303C20.2151 16.6709 20.1167 16.7525 20.0975 16.8653L19.9775 17.5109H20.9231L20.8415 16.8797Z" fill="currentColor"/>
<path d="M10.9367 17.9881C10.9079 17.8105 10.7423 17.6881 10.5623 17.7145L9.24469 17.9209C9.06709 17.9497 8.94469 18.1153 8.97109 18.2953L8.90869 19.2985C8.93749 19.4761 9.10309 19.5985 9.28309 19.5721L10.8143 19.3321C10.9919 19.3033 11.1143 19.1377 11.0879 18.9577L10.9367 17.9881Z" fill="currentColor"/>
</g>
<defs>
<clipPath id="clip0_1532_954">
<rect width="24" height="17.9088" fill="currentColor" transform="translate(0 3.12012)"/>
</clipPath>
</defs>
</svg>
