<svg width="24" height="24" viewBox="0 0 24 24" fill="currentColor" xmlns="http://www.w3.org/2000/svg">
<g clip-path="url(#clip0_1437_2626)">
<path d="M2.88479 9.79906C2.88479 9.79906 6.11039 9.84226 6.46319 9.84226C6.81599 9.84226 6.98159 9.73906 7.06319 9.43186C7.13519 9.16066 7.06559 8.82706 6.54959 8.75026C6.19919 8.69986 3.54719 8.38306 3.14879 8.29426C2.75039 8.20546 2.97119 7.76386 2.97119 7.76386C2.97119 7.76386 3.19199 6.88066 2.97119 6.17266C2.75279 5.46706 2.26559 4.85026 2.13359 4.31986C2.00159 3.78946 2.12399 3.35986 1.76879 3.35986C1.48799 3.35986 1.47119 3.52306 1.47119 3.56866C1.47119 3.61426 1.47119 8.20786 1.47119 8.20786H1.82399C1.82399 9.84466 2.88479 9.79906 2.88479 9.79906Z" fill="currentColor"/>
<path d="M3.4848 13.416C1.7808 13.416 0.3624 14.6472 0.0624 16.2696C0.024 16.4784 0 16.692 0 16.9104C0 18.8448 1.5648 20.4168 3.4848 20.4168C5.4072 20.4168 6.9696 18.8448 6.9696 16.9104C6.9696 16.2912 6.8064 15.7128 6.5256 15.2064C5.928 14.1384 4.7904 13.416 3.4848 13.416ZM3.4848 18.444C2.6472 18.444 1.9608 17.7576 1.9608 16.9104C1.9608 16.68 2.0112 16.4664 2.1024 16.2696C2.3448 15.744 2.8704 15.3792 3.4824 15.3792C3.6744 15.3792 3.8568 15.4176 4.0272 15.4824C4.5984 15.7032 5.0088 16.2528 5.0088 16.9104C5.0112 17.7576 4.3272 18.444 3.4848 18.444Z" fill="currentColor"/>
<path d="M20.8944 15.5732C19.716 15.5732 18.7344 16.4252 18.5256 17.5484C18.4992 17.6924 18.4824 17.8412 18.4824 17.99C18.4824 19.3268 19.5648 20.4164 20.8944 20.4164C22.224 20.4164 23.3064 19.3292 23.3064 17.99C23.3064 17.5604 23.1936 17.1596 22.9992 16.8116C22.584 16.0724 21.7968 15.5732 20.8944 15.5732ZM20.8944 19.0508C20.3136 19.0508 19.8408 18.5756 19.8408 17.99C19.8408 17.8316 19.8768 17.6828 19.9392 17.5484C20.1072 17.186 20.472 16.9316 20.8944 16.9316C21.0264 16.9316 21.1536 16.958 21.2712 17.0036C21.6648 17.1548 21.9504 17.5364 21.9504 17.9924C21.948 18.578 21.4752 19.0508 20.8944 19.0508Z" fill="currentColor"/>
<path d="M7.62234 15.331H12.4079L19.8071 15.3574C20.1431 15.2182 20.5103 15.139 20.8943 15.139C21.2807 15.139 21.6575 15.2182 22.0031 15.3646L22.9631 15.367C23.0567 14.071 23.2007 10.1518 23.1671 9.4798C23.0711 7.5334 14.6663 6.0934 13.8575 6.0454C13.0487 5.9974 12.7175 6.2638 12.7175 6.2638L12.0671 6.6742C11.9639 6.5686 11.8655 6.4942 11.7863 6.4702C11.3759 6.3598 10.9631 6.343 10.7279 6.343L10.7975 6.2878L10.7159 6.0694C10.7591 5.9998 10.7735 5.9062 10.7519 5.8198C10.7039 5.6662 10.6799 5.5006 10.6751 5.3326L11.1167 4.963C11.2319 4.8646 11.2463 4.6966 11.1503 4.5766L11.1095 4.531C11.0207 4.4302 10.8647 4.4038 10.7303 4.5046L8.31834 6.5374C8.25354 6.5806 8.21274 6.6574 8.21274 6.727C8.20554 6.799 8.22714 6.871 8.27754 6.9334L8.30394 6.9622C8.34954 7.0222 8.41674 7.0582 8.49114 7.0654C8.56314 7.0726 8.63034 7.0534 8.69514 7.0054L9.28794 6.5062C9.37194 6.5926 9.46314 6.6766 9.55674 6.7486C9.63594 6.8134 9.73914 6.8326 9.83994 6.7966L10.0463 6.9238V6.919L10.7735 8.3998L10.1927 8.7238L10.6559 10.1542C10.7015 10.291 10.7855 10.4134 10.8983 10.5022L11.1647 10.711L12.2159 14.5942H8.34954V14.5654C8.34954 14.5654 7.86714 13.3438 6.91434 12.4054L7.72554 11.5942H8.97114C8.97354 11.6878 9.04554 11.7598 9.13674 11.7598H10.2071C10.3007 11.7598 10.3751 11.6854 10.3751 11.5918V11.3662C10.3751 11.2726 10.3007 11.1982 10.2071 11.1982H9.13674C9.05034 11.1982 8.98074 11.2654 8.97114 11.3494H7.62234L6.72954 12.2398C6.68874 12.2038 6.64554 12.1654 6.60234 12.1294L6.09594 10.2886L2.97114 10.2046C2.97114 10.2046 3.03114 10.5142 3.08634 10.8046C2.11194 10.6054 1.33914 10.5142 1.33914 10.5142L0.849544 11.8366C0.775144 12.0358 0.926344 12.247 1.13754 12.2398C1.46874 12.2302 2.41434 12.0022 4.51914 12.5134C6.65994 13.0342 7.54314 15.1366 7.61514 15.3166V15.3286H7.62234C7.62234 15.331 7.62234 15.331 7.62234 15.331Z" fill="currentColor"/>
<path d="M8.44075 18.5205C8.09755 18.5205 7.80955 18.7701 7.74955 19.0965C7.74235 19.1397 7.73755 19.1829 7.73755 19.2261C7.73755 19.6173 8.05435 19.9341 8.44075 19.9341C8.82955 19.9341 9.14395 19.6173 9.14395 19.2261C9.14395 19.1013 9.11035 18.9837 9.05515 18.8829C8.93515 18.6669 8.70475 18.5205 8.44075 18.5205ZM8.44075 19.5381C8.27035 19.5381 8.13355 19.3989 8.13355 19.2285C8.13355 19.1829 8.14315 19.1397 8.16235 19.0989C8.21035 18.9933 8.31835 18.9189 8.44075 18.9189C8.47915 18.9189 8.51755 18.9261 8.55115 18.9405C8.66635 18.9861 8.75035 19.0965 8.75035 19.2285C8.74795 19.3989 8.61115 19.5381 8.44075 19.5381Z" fill="currentColor"/>
<path d="M18.4488 16.2792C18.228 16.0944 17.8968 16.1232 17.712 16.344L17.2608 16.8624L16.1232 16.8648V15.7944H9.47759V17.2416H13.6296L13.9176 17.796H8.43359V18.2016C8.43599 18.2016 8.43839 18.2016 8.44079 18.2016C8.81039 18.2016 9.15359 18.4032 9.33359 18.7272C9.41759 18.8808 9.46319 19.0536 9.46319 19.2264C9.46319 19.3848 9.42719 19.5336 9.36239 19.668H16.1424V19.608L16.2144 19.6584L18.0912 17.496C18.0936 17.484 18.0936 17.4744 18.096 17.4648C18.1704 17.0664 18.3264 16.7016 18.5424 16.3848C18.516 16.3488 18.4848 16.3104 18.4488 16.2792Z" fill="currentColor"/>
<path d="M23.6183 14.0085L23.2991 13.9893L23.2175 15.3741L23.5367 15.3933C23.7599 15.4053 23.9519 15.2349 23.9663 15.0117L23.9999 14.4357C24.0119 14.2125 23.8415 14.0205 23.6183 14.0085Z" fill="currentColor"/>
</g>
<defs>
<clipPath id="clip0_1437_2626">
<rect width="24" height="17.0568" fill="currentColor" transform="translate(0 3.35986)"/>
</clipPath>
</defs>
</svg>
