<svg width="24" height="24" viewBox="0 0 24 24" fill="currentColor" xmlns="http://www.w3.org/2000/svg">
<path d="M15.1992 16.608C15.1992 18.036 16.3488 19.1952 17.7696 19.1952C18.9168 19.1952 19.8792 18.432 20.2104 17.3856C20.2896 17.1384 20.3424 16.8792 20.3424 16.608C20.3424 15.18 19.1904 14.0256 17.7696 14.0256C17.484 14.0256 17.2104 14.0832 16.9536 14.1696C15.936 14.5128 15.1992 15.468 15.1992 16.608ZM16.5792 16.608C16.5792 15.9432 17.1144 15.4104 17.7696 15.4104C18.4272 15.4104 18.96 15.9456 18.96 16.608C18.96 17.268 18.4248 17.8032 17.7696 17.8032C17.112 17.8032 16.5792 17.268 16.5792 16.608Z" fill="currentColor"/>
<path d="M0.741608 16.608C0.741608 18.036 1.89121 19.1952 3.31201 19.1952C4.45921 19.1952 5.42161 18.432 5.75281 17.3856C5.83201 17.1384 5.88481 16.8792 5.88481 16.608C5.88481 15.18 4.73281 14.0256 3.31201 14.0256C3.02641 14.0256 2.75281 14.0832 2.49601 14.1696C1.47841 14.5128 0.741608 15.468 0.741608 16.608ZM2.12161 16.608C2.12161 15.9432 2.65681 15.4104 3.31201 15.4104C3.96961 15.4104 4.50241 15.9456 4.50241 16.608C4.50241 17.268 3.96721 17.8032 3.31201 17.8032C2.65681 17.8032 2.12161 17.268 2.12161 16.608Z" fill="currentColor"/>
<path d="M7.25041 9.96721C7.24561 9.89521 7.18561 9.84241 7.11361 9.84481L4.50721 9.99601L3.76321 10.32C3.69841 10.3488 3.66721 10.4256 3.69601 10.4904C3.71281 10.5312 3.74881 10.5576 3.78961 10.5648C3.81361 10.5696 3.84241 10.5672 3.86641 10.5576L4.56961 10.2528L5.18641 10.2168L5.21281 10.6224L5.60641 10.6752L5.90881 10.308L5.88721 10.176L7.13041 10.104C7.20001 10.0992 7.25521 10.0392 7.25041 9.96721Z" fill="currentColor"/>
<path d="M18.8664 8.42884L19.0224 8.76004L19.2744 8.61364L19.0248 8.32324L18.8664 8.42884Z" fill="currentColor"/>
<path d="M19.1928 7.9752C19.164 7.932 19.1064 7.92 19.0632 7.9488L18.4536 8.3496C18.4104 8.3784 18.3984 8.436 18.4272 8.4792C18.4464 8.508 18.4752 8.5224 18.5064 8.5224C18.5232 8.5224 18.5424 8.5176 18.5568 8.508L19.1664 8.1072C19.2096 8.0784 19.2216 8.0208 19.1928 7.9752Z" fill="currentColor"/>
<path d="M21.8688 9.76313C21.8688 9.66713 21.792 9.59033 21.696 9.59033H20.9808C20.8848 9.59033 20.808 9.66713 20.808 9.76313V10.1951H21.1392V10.4735H21.54V10.1951H21.8712V9.76313H21.8688Z" fill="currentColor"/>
<path d="M21.12 10.6633H15.0024V11.9521H21.12V10.6633Z" fill="currentColor"/>
<path d="M23.9568 11.9497H21.5616V10.6609H22.3848L23.5872 11.1745C23.8104 11.2705 23.9544 11.4889 23.9544 11.7313V11.9497H23.9568Z" fill="currentColor"/>
<path d="M15.4752 10.4448H15.0192L15.312 5.64478H15.768L15.4752 10.4448Z" fill="currentColor"/>
<path d="M20.556 5.68799H20.1288V10.4736H20.556V5.68799Z" fill="currentColor"/>
<path d="M21.2616 5.48164H15.0624V5.04004H19.3464H20.82C21.0648 5.04004 21.2616 5.23684 21.2616 5.48164Z" fill="currentColor"/>
<path d="M20.3664 13.3704V14.7288C20.724 15.2232 20.9424 15.8232 20.9688 16.4736L21.7392 16.9968H22.7808L23.6952 16.7928C23.8608 16.7568 23.9808 16.608 23.9808 16.4376V13.3704H20.3664Z" fill="currentColor"/>
<path d="M19.9296 9.73195C19.9272 9.70555 19.896 9.33835 19.872 9.35995L19.5144 8.65435L18.7392 9.13195L18.84 9.34555L18.2112 9.29035V9.35035L16.524 8.97835C16.5192 8.94715 16.5192 8.91835 16.5096 8.88955C16.4496 8.67115 16.3176 8.47915 16.2816 8.31595C16.2456 8.15275 16.2792 8.02075 16.1832 8.02075C16.1064 8.02075 16.1016 8.07115 16.1016 8.08555C16.1016 8.09275 16.1016 8.50555 16.1016 8.88715L15.78 8.81515L15.6576 10.464H19.932V9.73195H19.9296Z" fill="currentColor"/>
<path d="M24 12.4825C24 12.3601 23.8992 12.2593 23.7768 12.2593H14.8152L14.6904 12.6817H12.912V12.7009L12.6216 13.7905C11.9304 13.7881 11.3232 13.7857 11.34 13.7785L7.7616 11.2585L6.0432 10.4233L5.7072 10.8361L5.2896 10.7929L5.3112 11.0185L5.424 11.0617L5.5944 11.3017L6.4848 11.6977L6.2712 12.6121L6.1488 12.5881L5.9688 13.4545H2.7672L0.9792 14.0833L0 15.9913H0.2712L1.1592 14.3305L2.8008 13.7377H4.248C4.248 13.7377 6.1248 14.7433 6.1704 14.7769L6.18 14.7721V17.9257H10.6968H10.8864H13.7184L15.384 13.1689H24V12.4825ZM13.1088 12.9337H14.616L14.364 13.7953C14.0832 13.7953 13.4784 13.7953 12.8808 13.7929L13.1088 12.9337ZM6.6072 12.6793L6.7944 11.8225L9.8016 14.0065C8.5704 13.8865 6.7368 13.7857 6.7368 13.7857L6.552 13.5841L6.732 12.7033L6.6072 12.6793ZM10.8816 17.7025V14.1961H10.8912H10.8888C10.8888 14.1937 10.8816 14.1913 10.8816 14.1913V14.1601C11.904 14.1481 13.7808 14.1649 14.2536 14.1673L14.0184 14.9713H12.132V15.2281H13.944L13.6368 16.2745H11.0568V16.5385H13.5576L13.2168 17.7001H10.8816V17.7025Z" fill="currentColor"/>
</svg>
