<svg width="24" height="24" viewBox="0 0 24 24" fill="currentColor" xmlns="http://www.w3.org/2000/svg">
<g clip-path="url(#clip0_1437_1501)">
<path d="M2.34008 15.281H2.03767C1.61287 15.701 0.895275 16.4114 0.741675 16.5818C0.508875 16.8362 0.120075 17.8874 0.0984749 18.6554C0.0960749 18.7154 0.144075 18.7634 0.201675 18.7658H0.204075C0.261675 18.7658 0.309675 18.7202 0.309675 18.6626C0.328875 17.933 0.710475 16.9298 0.897675 16.7282C1.06807 16.5386 1.97047 15.6482 2.34008 15.281Z" fill="currentColor"/>
<path d="M3.0096 15.281C2.5848 15.701 1.8672 16.4114 1.7136 16.5818C1.4808 16.8362 1.092 17.8898 1.0704 18.6554C1.068 18.7154 1.116 18.7634 1.1736 18.7658H1.176C1.2336 18.7658 1.2816 18.7202 1.2816 18.6626C1.3008 17.933 1.6824 16.9298 1.8696 16.7282C2.04 16.5434 2.94 15.6506 3.312 15.2834H3.0096V15.281Z" fill="currentColor"/>
<path d="M5.40721 15.281H5.10481C4.68001 15.701 3.96241 16.4114 3.80881 16.5818C3.57601 16.8362 3.18721 17.8874 3.16561 18.6554C3.16321 18.7154 3.21121 18.7634 3.26881 18.7658H3.27121C3.32881 18.7658 3.37681 18.7202 3.37681 18.6626C3.39601 17.933 3.77761 16.9298 3.96481 16.7282C4.13521 16.5386 5.03521 15.6482 5.40721 15.281Z" fill="currentColor"/>
<path d="M5.77913 15.281C5.35433 15.701 4.63673 16.4114 4.48313 16.5818C4.25033 16.8362 3.86153 17.8898 3.83993 18.6554C3.83753 18.7154 3.88553 18.7634 3.94313 18.7658H3.94553C4.00313 18.7658 4.05113 18.7202 4.05113 18.6626C4.07033 17.933 4.45193 16.9298 4.63913 16.7282C4.80953 16.5434 5.70953 15.6506 6.08153 15.2834H5.77913V15.281Z" fill="currentColor"/>
<path d="M10.7209 15.281H10.4185C10.7905 15.6482 11.6905 16.541 11.8609 16.7258C12.0481 16.9298 12.4273 17.9306 12.4489 18.6602C12.4513 18.7178 12.4969 18.7634 12.5545 18.7634H12.5569C12.6169 18.761 12.6625 18.713 12.6601 18.653C12.6385 17.885 12.2497 16.8338 12.0169 16.5794C11.8633 16.4114 11.1457 15.701 10.7209 15.281Z" fill="currentColor"/>
<path d="M10.0463 15.281H9.7439C10.1159 15.6482 11.0159 16.541 11.1863 16.7258C11.3735 16.9298 11.7527 17.9306 11.7743 18.6602C11.7767 18.7178 11.8223 18.7634 11.8799 18.7634H11.8823C11.9399 18.761 11.9879 18.713 11.9855 18.653C11.9639 17.8874 11.5751 16.8338 11.3423 16.5794C11.1887 16.4114 10.4711 15.701 10.0463 15.281Z" fill="currentColor"/>
<path d="M14.0111 15.281H13.7087C14.0807 15.6482 14.9807 16.541 15.1511 16.7258C15.3383 16.9298 15.7175 17.9306 15.7391 18.6602C15.7415 18.7178 15.7871 18.7634 15.8447 18.7634H15.8471C15.9071 18.761 15.9527 18.713 15.9503 18.653C15.9287 17.885 15.5399 16.8338 15.3071 16.5794C15.1511 16.4114 14.4359 15.701 14.0111 15.281Z" fill="currentColor"/>
<path d="M13.0392 15.281H12.7368C13.1088 15.6482 14.0088 16.541 14.1792 16.7258C14.3664 16.9298 14.7456 17.9306 14.7672 18.6602C14.7696 18.7178 14.8152 18.7634 14.8728 18.7634H14.8752C14.9328 18.761 14.9808 18.713 14.9784 18.653C14.9568 17.8874 14.568 16.8338 14.3352 16.5794C14.1792 16.4114 13.4616 15.701 13.0392 15.281Z" fill="currentColor"/>
<path d="M23.988 11.2609L21.936 5.07372C21.9384 5.07132 21.9432 5.07132 21.9456 5.07132C22.1496 4.98492 22.2456 4.74972 22.1592 4.54572L21.7872 3.66732C21.7008 3.46332 21.4656 3.36732 21.2616 3.45372C21.0576 3.54012 20.9616 3.77532 21.048 3.97932L21.3168 4.61772C21.1992 4.69452 21.132 4.83612 21.1584 4.98252L23.1408 10.9609L10.0008 9.25452V8.33292H8.3784V8.22732L8.496 8.18412H14.1048V8.54172H14.6712V8.18412H16.0128V7.82652H14.6712V7.29132H14.1048V7.82652H9.4824L19.3584 4.24572C19.4496 4.75452 19.8912 5.14332 20.4264 5.14332H20.796L20.8896 4.70172L20.6544 4.14492C20.5272 3.84252 20.5944 3.50412 20.8008 3.27372L19.3464 3.12012H19.344H19.3392V3.12252L8.3496 7.10892H7.668V7.82892H1.908V7.29372H1.3416V7.82892H0V8.18652H1.3416V8.54412H1.908V8.18652H7.6656V10.3585H4.0872L1.9944 13.5457L1.992 14.1577H2.3304L2.328 13.7593L4.1352 11.0041H5.9208L5.0592 13.5433L5.0568 14.1553H5.3952L5.3928 13.7569L6.3264 11.0017H7.6632V14.3641H2.0112V15.0385H7.668V15.7897C6.6312 15.9433 5.8032 16.7449 5.6136 17.7721C5.5872 17.9185 5.5704 18.0697 5.5704 18.2233C5.5704 19.5865 6.672 20.6929 8.0256 20.6929C9.3792 20.6929 10.4808 19.5841 10.4808 18.2233C10.4808 17.7865 10.3656 17.3785 10.1688 17.0233C9.804 16.3705 9.1512 15.9025 8.3832 15.7897V15.0385H14.04V14.3641H8.3808V11.0065H9.4896L10.4232 13.7617L10.4208 14.1601H10.7592L10.7568 13.5481L9.8952 11.0089H11.8896L13.6968 13.7641L13.6944 14.1625H14.0328L14.0304 13.5505L11.9568 10.3897V10.3633H11.94H8.3808V10.2145H10.0032V9.79932L23.3448 11.5321C23.4024 11.6113 23.5008 11.6521 23.6016 11.6353L23.7864 11.6017C23.94 11.5681 24.0336 11.4121 23.988 11.2609ZM21.2616 3.76572C21.2616 3.68652 21.324 3.62412 21.4032 3.62412C21.4824 3.62412 21.5448 3.68652 21.5448 3.76572C21.5448 3.84492 21.48 3.90732 21.4032 3.90732C21.3264 3.90732 21.2616 3.84252 21.2616 3.76572ZM8.4072 17.2225C8.808 17.3785 9.0984 17.7649 9.0984 18.2281C9.0984 18.8257 8.616 19.3081 8.0232 19.3081C7.4328 19.3081 6.9504 18.8257 6.9504 18.2281C6.9504 18.0673 6.9864 17.9161 7.0512 17.7769C7.1712 17.5153 7.3944 17.3113 7.668 17.2129V18.1825C7.668 18.3793 7.8288 18.5401 8.0256 18.5401C8.2224 18.5401 8.3832 18.3793 8.3832 18.1825V17.2129C8.3904 17.2177 8.3976 17.2177 8.4072 17.2225ZM23.6832 11.3929C23.6664 11.4001 23.6472 11.4049 23.628 11.4049C23.5488 11.4049 23.484 11.3401 23.484 11.2609C23.484 11.1817 23.5488 11.1169 23.628 11.1169C23.6616 11.1169 23.6904 11.1313 23.7144 11.1481C23.748 11.1745 23.772 11.2129 23.772 11.2609C23.772 11.3185 23.736 11.3713 23.6832 11.3929Z" fill="currentColor"/>
</g>
<defs>
<clipPath id="clip0_1437_1501">
<rect width="24" height="17.5776" fill="currentColor" transform="translate(0 3.12012)"/>
</clipPath>
</defs>
</svg>
