<svg width="24" height="24" viewBox="0 0 24 24" fill="currentColor" xmlns="http://www.w3.org/2000/svg">
<g clip-path="url(#clip0_1422_1304)">
<path d="M24 22.2959H22.0248V22.7423H24V22.2959Z" fill="currentColor"/>
<path d="M3.34802 19.7688L1.01282 22.0008H1.52162L3.55682 20.5152C3.63842 20.244 3.76562 19.992 3.92882 19.7688H3.34802Z" fill="currentColor"/>
<path d="M1.9752 22.3152H0V22.7616H1.9752V22.3152Z" fill="currentColor"/>
<path d="M14.3688 19.3271H8.10485C8.10485 19.3247 7.76165 19.3247 7.51685 19.3247C8.05925 19.7807 8.40725 20.4647 8.40725 21.2303C8.40725 21.5543 8.34485 21.8615 8.23205 22.1447H13.656C13.5432 21.8615 13.4808 21.5543 13.4808 21.2303C13.4808 20.4671 13.8264 19.7831 14.3688 19.3271Z" fill="currentColor"/>
<path d="M18.348 19.9151L22.5408 21.9215L23.5368 21.9959L18.6984 19.2503L17.7288 19.1567C17.9784 19.3703 18.1872 19.6247 18.348 19.9151Z" fill="currentColor"/>
<path d="M16.008 16.0295V16.0127C15.9048 14.4599 13.8 13.4207 13.7112 13.3776L10.8264 13.1951L10.3608 15.3359L10.0344 15.3263L10.4688 13.0655L10.3152 13.0439L10.3344 13.0319L10.7088 11.0855C10.728 11.0543 10.74 11.0207 10.7472 10.9823C10.752 10.9559 10.7472 10.9343 10.7424 10.9079L10.7472 10.8815L10.74 10.8791C10.716 10.7759 10.6296 10.6919 10.5192 10.6775L10.4664 10.6703L14.2416 5.62795C13.8504 5.46955 13.4616 5.30875 13.068 5.14795L5.51036 15.1823L4.21436 15.1415L4.42796 17.7671H15.9744C16.14 17.1719 16.0848 16.7087 16.008 16.0295ZM10.1016 11.1551L10.44 11.2055C10.4568 11.2079 10.4712 11.2031 10.488 11.2031L10.1328 13.0175L9.99116 12.9983L9.54235 15.3071L7.05116 15.2279L10.1016 11.1551ZM13.2552 15.4247L11.0352 15.3551L11.4168 13.6055L13.2552 13.7135V15.4247ZM13.6296 15.4367V13.7591C13.944 13.9271 15.0888 14.5895 15.492 15.4967L13.6296 15.4367Z" fill="currentColor"/>
<path d="M13.26 18.1008H9.63599V18.9552H13.26V18.1008Z" fill="currentColor"/>
<path d="M14.9593 2.90632C14.7217 2.87512 14.5033 3.04312 14.4697 3.28072C14.4673 3.29272 14.4697 3.30232 14.4673 3.31432L13.4041 4.81192L14.2993 5.18872L15.2401 3.82792L17.5513 4.14232C17.5777 4.14472 17.6017 4.14472 17.6257 4.14472V3.26872L14.9593 2.90632Z" fill="currentColor"/>
<path d="M21.5808 4.11118H18.828V2.53438H18.4008V0.47998H17.9496V4.51918H18.3888H18.4008H18.7296C18.732 4.51918 18.7368 4.51918 18.7392 4.51918H18.828V4.51438H21.612C21.6912 4.51438 23.3328 4.49518 23.3328 4.41358V4.30558C23.3328 4.18558 21.66 4.11118 21.5808 4.11118Z" fill="currentColor"/>
<path d="M7.98718 21.6433C8.03758 21.3841 8.03758 21.1297 7.98718 20.8705C7.93438 20.8705 7.88398 20.8705 7.83358 20.8705C7.81198 20.7913 7.79278 20.7169 7.77118 20.6425C7.81678 20.6161 7.85758 20.5897 7.90318 20.5633C7.81678 20.3137 7.68958 20.0929 7.51918 19.8937C7.47358 19.9201 7.42798 19.9441 7.38958 19.9681C7.33198 19.9105 7.27678 19.8577 7.21918 19.8001C7.24318 19.7593 7.26718 19.7137 7.29358 19.6681C7.09438 19.4977 6.87358 19.3681 6.62638 19.2817C6.59758 19.3297 6.57358 19.3705 6.54718 19.4161C6.47038 19.3945 6.39598 19.3753 6.31678 19.3537C6.31678 19.3033 6.31678 19.2529 6.31678 19.2001C6.05758 19.1497 5.80318 19.1497 5.54398 19.2025C5.54398 19.2553 5.54398 19.3081 5.54398 19.3561C5.46478 19.3777 5.39278 19.3969 5.31838 19.4185C5.29198 19.3729 5.26558 19.3297 5.23918 19.2841C4.98958 19.3729 4.76878 19.5001 4.57198 19.6705C4.59838 19.7185 4.62478 19.7617 4.64398 19.7977C4.58638 19.8553 4.53118 19.9105 4.47358 19.9681C4.43518 19.9465 4.39198 19.9225 4.34638 19.8961C4.17598 20.0977 4.04638 20.3185 3.95998 20.5657C4.00798 20.5945 4.05118 20.6185 4.09438 20.6449C4.07278 20.7241 4.05118 20.7985 4.02958 20.8753C3.97918 20.8753 3.92878 20.8753 3.87838 20.8753C3.82798 21.1345 3.82798 21.3889 3.87838 21.6505C3.93118 21.6505 3.98158 21.6505 4.03198 21.6505C4.05358 21.7297 4.07278 21.8041 4.09438 21.8785C4.04878 21.9049 4.00798 21.9313 3.96238 21.9577C4.05118 22.2049 4.17838 22.4281 4.34878 22.6273C4.39678 22.6009 4.43998 22.5745 4.47838 22.5529C4.53838 22.6105 4.59118 22.6657 4.64878 22.7209C4.62478 22.7617 4.60078 22.8049 4.57438 22.8529C4.77598 23.0233 4.99438 23.1529 5.24158 23.2393C5.27038 23.1913 5.29438 23.1505 5.32078 23.1049C5.39758 23.1265 5.46958 23.1457 5.55118 23.1673C5.55118 23.2177 5.55118 23.2705 5.55118 23.3209C5.81038 23.3713 6.06478 23.3713 6.32398 23.3209C6.32398 23.2657 6.32398 23.2153 6.32398 23.1673C6.40318 23.1457 6.47518 23.1265 6.54958 23.1049C6.57598 23.1481 6.60238 23.1937 6.62638 23.2345C6.80878 23.1913 7.21678 22.9513 7.29358 22.8457C7.26958 22.8025 7.24558 22.7593 7.22638 22.7257C7.28398 22.6657 7.33918 22.6105 7.39678 22.5529C7.43518 22.5745 7.47838 22.5985 7.52398 22.6249C7.69438 22.4233 7.82398 22.2025 7.90798 21.9553C7.85998 21.9265 7.81678 21.9001 7.77598 21.8761C7.79758 21.7969 7.81678 21.7249 7.83838 21.6457C7.88638 21.6433 7.93678 21.6433 7.98718 21.6433ZM5.03758 21.2569C5.03758 20.7553 5.43598 20.3617 5.93038 20.3617C6.42238 20.3617 6.82318 20.7577 6.82318 21.2569C6.82318 21.7513 6.42238 22.1545 5.93038 22.1545C5.43598 22.1545 5.03758 21.7513 5.03758 21.2569Z" fill="currentColor"/>
<path d="M18.2136 21.6433C18.264 21.3841 18.264 21.1297 18.2136 20.8705C18.1608 20.8705 18.1104 20.8705 18.06 20.8705C18.0384 20.7913 18.0192 20.7169 17.9976 20.6425C18.0432 20.6161 18.084 20.5897 18.1296 20.5633C18.0432 20.3137 17.916 20.0929 17.7456 19.8937C17.7 19.9201 17.6544 19.9441 17.616 19.9681C17.5584 19.9105 17.5032 19.8577 17.4456 19.8001C17.4696 19.7593 17.4936 19.7137 17.52 19.6681C17.3208 19.4977 17.1 19.3681 16.8528 19.2817C16.824 19.3297 16.8 19.3705 16.7736 19.4161C16.6968 19.3945 16.6224 19.3753 16.5432 19.3537C16.5432 19.3033 16.5432 19.2529 16.5432 19.2001C16.284 19.1497 16.0296 19.1497 15.7704 19.2025C15.7704 19.2553 15.7704 19.3081 15.7704 19.3561C15.6912 19.3777 15.6192 19.3969 15.5448 19.4185C15.5184 19.3729 15.492 19.3297 15.4656 19.2841C15.216 19.3729 14.9952 19.5001 14.7984 19.6705C14.8248 19.7185 14.8512 19.7617 14.8704 19.7977C14.8128 19.8553 14.7576 19.9105 14.7 19.9681C14.6616 19.9465 14.6184 19.9225 14.5728 19.8961C14.4024 20.0977 14.2728 20.3185 14.1864 20.5657C14.2344 20.5945 14.2776 20.6185 14.3208 20.6449C14.2992 20.7241 14.2776 20.7985 14.256 20.8753C14.2056 20.8753 14.1552 20.8753 14.1048 20.8753C14.0544 21.1345 14.0544 21.3889 14.1048 21.6505C14.1576 21.6505 14.208 21.6505 14.2584 21.6505C14.28 21.7297 14.2992 21.8041 14.3208 21.8785C14.2752 21.9049 14.2344 21.9313 14.1888 21.9577C14.2776 22.2049 14.4048 22.4281 14.5752 22.6273C14.6232 22.6009 14.6664 22.5745 14.7048 22.5529C14.7648 22.6105 14.8176 22.6657 14.8752 22.7209C14.8512 22.7617 14.8272 22.8049 14.8008 22.8529C15.0024 23.0233 15.2208 23.1529 15.468 23.2393C15.4968 23.1913 15.5208 23.1505 15.5472 23.1049C15.624 23.1265 15.696 23.1457 15.7776 23.1673C15.7776 23.2177 15.7776 23.2705 15.7776 23.3209C16.0368 23.3713 16.2912 23.3713 16.5504 23.3209C16.5504 23.2657 16.5504 23.2153 16.5504 23.1673C16.6296 23.1457 16.7016 23.1265 16.776 23.1049C16.8024 23.1481 16.8288 23.1937 16.8528 23.2345C17.0352 23.1913 17.4432 22.9513 17.52 22.8457C17.496 22.8025 17.472 22.7593 17.4528 22.7257C17.5104 22.6657 17.5656 22.6105 17.6232 22.5529C17.6616 22.5745 17.7048 22.5985 17.7504 22.6249C17.9208 22.4233 18.0504 22.2025 18.1344 21.9553C18.0864 21.9265 18.0432 21.9001 18.0024 21.8761C18.024 21.7969 18.0432 21.7249 18.0648 21.6457C18.1128 21.6433 18.1632 21.6433 18.2136 21.6433ZM15.2664 21.2569C15.2664 20.7553 15.6648 20.3617 16.1592 20.3617C16.6512 20.3617 17.052 20.7577 17.052 21.2569C17.052 21.7513 16.6512 22.1545 16.1592 22.1545C15.6648 22.1545 15.2664 21.7513 15.2664 21.2569Z" fill="currentColor"/>
</g>
<defs>
<clipPath id="clip0_1422_1304">
<rect width="24" height="22.8744" fill="currentColor" transform="translate(0 0.47998)"/>
</clipPath>
</defs>
</svg>
