<svg width="24" height="24" viewBox="0 0 24 24" fill="currentColor" xmlns="http://www.w3.org/2000/svg">
<g clip-path="url(#clip0_1437_1496)">
<path d="M21.75 14.7476L23.106 14.7476L23.106 14.4356L21.75 14.4356L21.75 14.7476Z" fill="currentColor"/>
<path d="M24.0001 12.6745L23.6377 12.5425L23.6689 12.4537L18.9889 10.6465L19.0729 10.4257L23.2849 12.0721L23.2705 12.1081C23.2657 12.1201 23.2705 12.1369 23.2801 12.1441L23.5321 12.3409C23.5489 12.3529 23.5729 12.3481 23.5801 12.3265L23.6281 12.2065L23.7601 12.2569L23.8417 12.0457L23.7097 11.9953L23.7577 11.8753C23.7649 11.8561 23.7529 11.8345 23.7313 11.8321L23.4121 11.8057C23.3977 11.8057 23.3857 11.8129 23.3809 11.8249L23.3665 11.8609L19.1569 10.2145L19.1977 10.1065L18.6937 9.91212L18.6529 10.0177L17.3809 9.52092V9.36732H6.70331V9.12012H6.23291V10.9945H6.69851H6.70331H11.9737H12.4441H12.7369C12.7873 10.9945 12.8281 10.9537 12.8281 10.9033V10.7761C12.8281 10.7257 12.7873 10.6849 12.7369 10.6849H12.4441V10.4377H16.2697L16.2721 10.9777L20.3953 11.5777L22.2673 12.2833V14.2921H22.6633L22.6609 12.4321L23.5561 12.7705L23.5849 12.6937L23.9473 12.8257L24.0001 12.6745ZM18.5713 10.2289L18.4849 10.4521L17.3809 10.0249V9.76332L18.5713 10.2289ZM11.9737 10.6849H6.70331V10.4377H11.9737V10.6849Z" fill="currentColor"/>
<path d="M13.5792 11.1793H8.3904V11.1121H5.1984V11.1793H0V11.3449H0.0288V14.0905C0.0288 14.1217 0.0528 14.1457 0.084 14.1457C0.1152 14.1457 0.1392 14.1217 0.1392 14.0905V11.3473H0.3984V14.0929C0.3984 14.1241 0.4224 14.1481 0.4536 14.1481C0.4848 14.1481 0.5088 14.1241 0.5088 14.0929V11.3473H0.924V14.0929C0.924 14.1241 0.948 14.1481 0.9792 14.1481C1.0104 14.1481 1.0344 14.1241 1.0344 14.0929V11.3473H1.296V14.0929C1.296 14.1241 1.32 14.1481 1.3512 14.1481C1.3824 14.1481 1.4064 14.1241 1.4064 14.0929V11.3473H1.8216V14.0929C1.8216 14.1241 1.8456 14.1481 1.8768 14.1481C1.908 14.1481 1.932 14.1241 1.932 14.0929V11.3473H2.1912V14.0929C2.1912 14.1241 2.2152 14.1481 2.2464 14.1481C2.2776 14.1481 2.3016 14.1241 2.3016 14.0929V11.3473H3.66L3.3552 12.6745V14.0905C3.3552 14.1217 3.3792 14.1457 3.4104 14.1457C3.4416 14.1457 3.4656 14.1217 3.4656 14.0905L3.4632 12.6865L3.7728 11.3473H3.8928L3.588 12.6745V13.0657C3.5736 13.1161 3.5568 13.1641 3.5472 13.2145C3.5328 13.2913 3.5256 13.3705 3.5256 13.4521C3.5256 13.5865 3.552 13.7137 3.5904 13.8361V14.0905C3.5904 14.1217 3.6144 14.1457 3.6456 14.1457C3.6768 14.1457 3.7008 14.1217 3.7008 14.0905C3.924 14.4817 4.3368 14.7481 4.8144 14.7481C5.5248 14.7481 6.1008 14.1673 6.1008 13.4521C6.1008 13.2241 6.0408 13.0081 5.9376 12.8233C5.7288 12.4489 5.34 12.1945 4.8912 12.1657L5.0808 11.3449H5.2056V11.4241H6.6456L6.5808 11.6833H6.3864L6.276 13.1161H6.3384V13.2457H6.2616C6.2712 13.3153 6.276 13.3825 6.276 13.4521C6.276 13.5241 6.2688 13.5937 6.2592 13.6633H6.3384V14.0905C6.3384 14.1217 6.3624 14.1457 6.3936 14.1457C6.4248 14.1457 6.4488 14.1217 6.4488 14.0905V13.6633H6.48V14.0905C6.48 14.1217 6.504 14.1457 6.5352 14.1457C6.5664 14.1457 6.5904 14.1217 6.5904 14.0905V13.6633H6.684V14.0905C6.684 14.1217 6.708 14.1457 6.7392 14.1457C6.7704 14.1457 6.7944 14.1217 6.7944 14.0905V13.6633H6.8304V14.0905C6.8304 14.1217 6.8544 14.1457 6.8856 14.1457C6.9168 14.1457 6.9408 14.1217 6.9408 14.0905V13.6633H7.0344V14.0905C7.0344 14.1217 7.0584 14.1457 7.0896 14.1457C7.1208 14.1457 7.1448 14.1217 7.1448 14.0905V13.6633H7.1808V14.0905C7.1808 14.1217 7.2048 14.1457 7.236 14.1457C7.2672 14.1457 7.2912 14.1217 7.2912 14.0905V13.6633H7.5072C7.608 14.2777 8.136 14.7481 8.7744 14.7481C9.4848 14.7481 10.0608 14.1673 10.0608 13.4521C10.0608 13.2241 10.0008 13.0081 9.8976 12.8233C9.8904 12.8089 9.8808 12.7969 9.8736 12.7849V12.6625L9.5688 11.3473H9.7584L10.068 12.6745V14.0905C10.068 14.1217 10.092 14.1457 10.1232 14.1457C10.1544 14.1457 10.1784 14.1217 10.1784 14.0905L10.176 12.6601L9.8712 11.3449H9.9912L10.2984 12.6721V14.0881C10.2984 14.1193 10.3224 14.1433 10.3536 14.1433C10.3848 14.1433 10.4088 14.1193 10.4088 14.0881L10.4064 12.6577L10.1016 11.3425H11.2944V14.0881C11.2944 14.1193 11.3184 14.1433 11.3496 14.1433C11.3808 14.1433 11.4048 14.1193 11.4048 14.0881V11.3473H11.664V14.0929C11.664 14.1241 11.688 14.1481 11.7192 14.1481C11.7504 14.1481 11.7744 14.1241 11.7744 14.0929V11.3473H12.1896V14.0929C12.1896 14.1241 12.2136 14.1481 12.2448 14.1481C12.276 14.1481 12.3 14.1241 12.3 14.0929V11.3473H12.5592V14.0929C12.5592 14.1241 12.5832 14.1481 12.6144 14.1481C12.6456 14.1481 12.6696 14.1241 12.6696 14.0929V11.3473H13.0848V14.0929C13.0848 14.1241 13.1088 14.1481 13.14 14.1481C13.1712 14.1481 13.1952 14.1241 13.1952 14.0929V11.3473H13.4544V14.0929C13.4544 14.1241 13.4784 14.1481 13.5096 14.1481C13.5408 14.1481 13.5648 14.1241 13.5648 14.0929V11.3473H13.5792V11.1793ZM4.3296 12.2569L4.5408 11.3473H4.7304L4.536 12.1945C4.4616 12.2089 4.3944 12.2305 4.3296 12.2569ZM4.0608 12.4081L4.3056 11.3473H4.4256L4.2024 12.3169C4.152 12.3433 4.1064 12.3745 4.0608 12.4081ZM3.6936 12.6865L4.0032 11.3473H4.1928L3.9216 12.5233C3.8328 12.6073 3.756 12.7033 3.6936 12.8089V12.6865ZM4.2456 13.4521C4.2456 13.3681 4.2648 13.2889 4.2984 13.2145C4.3272 13.1497 4.3728 13.0969 4.4232 13.0465V13.8577C4.3152 13.7569 4.2456 13.6129 4.2456 13.4521ZM4.5312 12.9649C4.5696 12.9433 4.6104 12.9217 4.6536 12.9097V13.9873C4.6104 13.9753 4.5696 13.9585 4.5312 13.9345V12.9649ZM5.3712 13.4521C5.3712 13.7665 5.1192 14.0185 4.8072 14.0185C4.7928 14.0185 4.7784 14.0113 4.764 14.0089V12.8929C4.7784 12.8905 4.7928 12.8857 4.8072 12.8857C4.8792 12.8857 4.9464 12.9001 5.0088 12.9241C5.22 13.0057 5.3712 13.2097 5.3712 13.4521ZM4.7736 12.1633C4.7328 12.1633 4.692 12.1681 4.6512 12.1753L4.8432 11.3473H4.9632L4.7736 12.1633ZM8.9904 12.1825L8.796 11.3473H8.916L9.1152 12.2089C9.0744 12.1969 9.0312 12.1897 8.9904 12.1825ZM9.2376 12.2521L9.0288 11.3473H9.2184L9.4536 12.3625C9.3864 12.3169 9.3144 12.2809 9.2376 12.2521ZM8.6832 11.3473L8.8752 12.1681C8.8416 12.1657 8.8056 12.1609 8.772 12.1609C8.2872 12.1609 7.8672 12.4321 7.6464 12.8305L7.5576 11.6833H7.536L7.6008 11.4241H8.3928V11.3473H8.6832ZM6.9888 11.4265L6.924 11.6857H6.8352L6.9 11.4265H6.9888ZM7.104 11.4265H7.1376L7.0728 11.6857H7.0392L7.104 11.4265ZM7.2504 11.4265H7.3392L7.2744 11.6857H7.1856L7.2504 11.4265ZM7.452 11.4265H7.4856L7.4208 11.6857H7.3872L7.452 11.4265ZM6.7536 11.4265H6.7872L6.7224 11.6857H6.6888L6.7536 11.4265ZM6.4416 13.2457V13.1161H6.48V13.2457H6.4416ZM6.588 13.2457V13.1161H6.6816V13.2457H6.588ZM6.792 13.2457V13.1161H6.8304V13.2457H6.792ZM6.9384 13.2457V13.1161H7.032V13.2457H6.9384ZM7.1424 13.2457V13.1161H7.1808V13.2457H7.1424ZM7.2888 13.1161H7.5336C7.524 13.1497 7.512 13.1809 7.5072 13.2145C7.5048 13.2241 7.5048 13.2337 7.5048 13.2433H7.2912L7.2888 13.1161ZM8.2488 13.6633H8.8512V13.2457H8.2488C8.2536 13.2361 8.2536 13.2265 8.2584 13.2169C8.3472 13.0225 8.5416 12.8881 8.7696 12.8881C8.8416 12.8881 8.9088 12.9025 8.9712 12.9265C8.9784 12.9289 8.9832 12.9337 8.9904 12.9385V13.9753C8.9232 14.0041 8.8464 14.0209 8.7696 14.0209C8.5344 14.0185 8.3328 13.8721 8.2488 13.6633ZM9.1008 13.8985V12.9985C9.1488 13.0321 9.1896 13.0729 9.2232 13.1209V13.7713C9.1896 13.8193 9.1488 13.8625 9.1008 13.8985ZM9.7464 12.6145C9.6984 12.5569 9.6456 12.5041 9.588 12.4561L9.3312 11.3449H9.4512L9.7464 12.6145Z" fill="currentColor"/>
</g>
<defs>
<clipPath id="clip0_1437_1496">
<rect width="24" height="5.628" fill="currentColor" transform="translate(0 9.12012)"/>
</clipPath>
</defs>
</svg>
