<svg width="24" height="24" viewBox="0 0 24 24" fill="currentColor" xmlns="http://www.w3.org/2000/svg">
<g clip-path="url(#clip0_1422_1296)">
<path d="M10.9896 20.7744H5.44557C5.44317 20.772 5.44317 20.772 5.44317 20.772C5.51277 21.0288 5.55117 21.2976 5.55117 21.5784C5.55117 21.9504 5.48397 22.3032 5.36877 22.6344H11.0688C10.9512 22.3032 10.884 21.9504 10.884 21.5784C10.884 21.3 10.9224 21.0312 10.9896 20.7744Z" fill="currentColor"/>
<path d="M12.948 2.65913C12.5856 2.61113 12.252 2.86553 12.2016 3.23033C12.1992 3.24953 12.2016 3.26393 12.1992 3.28073L1.52157 17.4647L0.0263672 17.4167L0.165567 19.3775C0.734367 18.7895 1.53117 18.4247 2.40957 18.4247C3.67917 18.4247 4.76877 19.1855 5.26557 20.2751H11.1648C11.5008 19.5311 12.1224 18.9455 12.8808 18.6479C12.9744 18.6119 13.068 18.5759 13.1664 18.5471C13.2096 18.5351 13.2552 18.5279 13.3008 18.5159C13.4088 18.4919 13.5192 18.4655 13.6296 18.4511L13.6272 18.4199C13.512 16.6319 11.0832 15.4319 10.98 15.3815L7.65357 15.1727L7.11597 17.6399L6.70557 17.6279L6.95277 15.2855L6.79197 15.2783L6.81117 15.2639L7.02477 13.2311C7.04157 13.1975 7.05117 13.1615 7.05357 13.1231C7.05597 13.0967 7.04877 13.0727 7.04397 13.0487L7.04637 13.0199H7.03917C7.00557 12.9215 6.91677 12.8471 6.80877 12.8327L13.3728 4.06553L16.8912 4.54313C16.9296 4.54793 16.968 4.54793 17.004 4.54793V3.21593L12.948 2.65913ZM10.8888 15.8231C11.2512 16.0175 12.5712 16.7831 13.0368 17.8271L10.8888 17.7575V15.8231ZM8.33517 15.6455L10.4568 15.7703V17.7455L7.89597 17.6663L8.33517 15.6455ZM6.76317 13.3799C6.77997 13.3799 6.79437 13.3751 6.81357 13.3727L6.60717 15.2687L6.45837 15.2615L6.20397 17.6111L3.29757 17.5199L6.41517 13.3559L6.76317 13.3799Z" fill="currentColor"/>
<path d="M21.8857 4.62479H18.5617V2.71919H18.0457V0.23999H17.5009V5.11679H18.0289H18.0457H18.4417C18.4441 5.11679 18.4489 5.11679 18.4537 5.11679H18.5617V5.10959H21.9241C22.0201 5.10959 24.0025 5.08559 24.0025 4.98959V4.85999C24.0001 4.71359 21.9817 4.62479 21.8857 4.62479Z" fill="currentColor"/>
<path d="M4.7328 22.0175C4.7904 21.7223 4.7904 21.4319 4.7328 21.1367C4.6728 21.1367 4.6152 21.1367 4.5576 21.1367C4.5336 21.0455 4.5096 20.9615 4.4856 20.8751C4.536 20.8439 4.584 20.8151 4.6368 20.7863C4.5384 20.5031 4.392 20.2511 4.1976 20.0231C4.1448 20.0543 4.0944 20.0831 4.0488 20.1071C3.9816 20.0423 3.9192 19.9799 3.8544 19.9151C3.8808 19.8671 3.9096 19.8167 3.9384 19.7639C3.7104 19.5695 3.4584 19.4231 3.1752 19.3247C3.144 19.3775 3.1152 19.4279 3.0864 19.4759C2.9976 19.4519 2.9136 19.4279 2.8248 19.4039C2.8248 19.3463 2.8248 19.2887 2.8248 19.2287C2.5272 19.1711 2.2392 19.1711 1.9416 19.2311C1.9416 19.2935 1.9416 19.3511 1.9416 19.4063C1.8504 19.4303 1.7688 19.4543 1.6824 19.4783C1.6512 19.4279 1.6224 19.3775 1.5936 19.3247C1.3104 19.4255 1.056 19.5695 0.8328 19.7663C0.864 19.8215 0.8928 19.8695 0.9144 19.9103C0.8472 19.9775 0.7848 20.0399 0.72 20.1047C0.6768 20.0807 0.6288 20.0519 0.576 20.0231C0.3792 20.2535 0.2328 20.5055 0.1368 20.7863C0.192 20.8199 0.24 20.8463 0.288 20.8751C0.264 20.9639 0.24 21.0479 0.216 21.1367C0.1584 21.1367 0.1008 21.1367 0.0432 21.1367C-0.0144 21.4319 -0.0144 21.7223 0.0432 22.0199C0.1032 22.0199 0.1608 22.0199 0.2184 22.0199C0.2424 22.1111 0.2664 22.1951 0.288 22.2791C0.2376 22.3103 0.1872 22.3391 0.1368 22.3703C0.2376 22.6535 0.3816 22.9055 0.576 23.1335C0.6288 23.1023 0.6792 23.0735 0.7224 23.0495C0.7896 23.1167 0.852 23.1767 0.9168 23.2415C0.8904 23.2871 0.8616 23.3375 0.8328 23.3927C1.0608 23.5871 1.3128 23.7335 1.5936 23.8319C1.6248 23.7791 1.6536 23.7287 1.6824 23.6807C1.7688 23.7047 1.8528 23.7263 1.944 23.7527C1.944 23.8103 1.944 23.8703 1.944 23.9279C2.2416 23.9855 2.5296 23.9855 2.8248 23.9279C2.8248 23.8655 2.8248 23.8079 2.8248 23.7527C2.9136 23.7287 2.9976 23.7047 3.084 23.6831C3.1152 23.7335 3.144 23.7839 3.1728 23.8319C3.3792 23.7815 3.8472 23.5079 3.9336 23.3879C3.9072 23.3399 3.8784 23.2895 3.8568 23.2511C3.924 23.1839 3.9864 23.1191 4.0488 23.0543C4.092 23.0783 4.1424 23.1071 4.1952 23.1383C4.3896 22.9079 4.536 22.6559 4.6344 22.3751C4.5792 22.3415 4.5312 22.3127 4.4832 22.2839C4.5072 22.1951 4.5312 22.1111 4.5552 22.0223C4.6176 22.0175 4.6752 22.0175 4.7328 22.0175ZM1.3704 21.5783C1.3704 21.0071 1.824 20.5559 2.388 20.5559C2.9472 20.5559 3.4056 21.0071 3.4056 21.5783C3.4056 22.1447 2.9496 22.6031 2.388 22.6031C1.824 22.6007 1.3704 22.1423 1.3704 21.5783Z" fill="currentColor"/>
<path d="M16.3967 22.0175C16.4543 21.7223 16.4543 21.4319 16.3967 21.1367C16.3367 21.1367 16.2791 21.1367 16.2215 21.1367C16.1975 21.0455 16.1735 20.9615 16.1495 20.8751C16.1999 20.8439 16.2479 20.8151 16.3007 20.7863C16.2023 20.5031 16.0559 20.2511 15.8615 20.0231C15.8087 20.0543 15.7583 20.0831 15.7127 20.1071C15.6455 20.0423 15.5831 19.9799 15.5183 19.9151C15.5447 19.8671 15.5735 19.8167 15.6023 19.7639C15.3743 19.5695 15.1223 19.4231 14.8391 19.3247C14.8079 19.3775 14.7791 19.4279 14.7503 19.4759C14.6615 19.4519 14.5775 19.4279 14.4887 19.4039C14.4887 19.3463 14.4887 19.2887 14.4887 19.2287C14.1911 19.1711 13.9031 19.1711 13.6055 19.2311C13.6055 19.2935 13.6055 19.3511 13.6055 19.4063C13.5143 19.4303 13.4327 19.4543 13.3463 19.4783C13.3151 19.4279 13.2863 19.3775 13.2575 19.3247C12.9743 19.4255 12.7199 19.5695 12.4967 19.7663C12.5279 19.8215 12.5567 19.8695 12.5783 19.9103C12.5111 19.9775 12.4487 20.0399 12.3839 20.1047C12.3407 20.0807 12.2927 20.0519 12.2399 20.0231C12.0431 20.2535 11.8967 20.5055 11.8007 20.7863C11.8559 20.8199 11.9039 20.8463 11.9519 20.8751C11.9279 20.9639 11.9039 21.0479 11.8799 21.1367C11.8223 21.1367 11.7647 21.1367 11.7071 21.1367C11.6495 21.4319 11.6495 21.7223 11.7071 22.0199C11.7671 22.0199 11.8247 22.0199 11.8823 22.0199C11.9063 22.1111 11.9303 22.1951 11.9519 22.2791C11.9015 22.3103 11.8511 22.3391 11.8007 22.3703C11.9015 22.6535 12.0455 22.9055 12.2399 23.1335C12.2927 23.1023 12.3431 23.0735 12.3863 23.0495C12.4535 23.1167 12.5159 23.1767 12.5807 23.2415C12.5543 23.2871 12.5255 23.3375 12.4967 23.3927C12.7247 23.5871 12.9767 23.7335 13.2575 23.8319C13.2887 23.7791 13.3175 23.7287 13.3463 23.6807C13.4327 23.7047 13.5167 23.7263 13.6079 23.7527C13.6079 23.8103 13.6079 23.8703 13.6079 23.9279C13.9055 23.9855 14.1935 23.9855 14.4887 23.9279C14.4887 23.8655 14.4887 23.8079 14.4887 23.7527C14.5775 23.7287 14.6615 23.7047 14.7479 23.6831C14.7791 23.7335 14.8079 23.7839 14.8367 23.8319C15.0431 23.7815 15.5111 23.5079 15.5975 23.3879C15.5711 23.3399 15.5423 23.2895 15.5207 23.2511C15.5879 23.1839 15.6503 23.1191 15.7127 23.0543C15.7559 23.0783 15.8063 23.1071 15.8591 23.1383C16.0535 22.9079 16.1999 22.6559 16.2983 22.3751C16.2431 22.3415 16.1951 22.3127 16.1471 22.2839C16.1711 22.1951 16.1951 22.1111 16.2191 22.0223C16.2815 22.0175 16.3391 22.0175 16.3967 22.0175ZM13.0343 21.5783C13.0343 21.0071 13.4879 20.5559 14.0519 20.5559C14.6111 20.5559 15.0695 21.0071 15.0695 21.5783C15.0695 22.1447 14.6135 22.6031 14.0519 22.6031C13.4879 22.6007 13.0343 22.1423 13.0343 21.5783Z" fill="currentColor"/>
</g>
<defs>
<clipPath id="clip0_1422_1296">
<rect width="24" height="23.7312" fill="currentColor" transform="translate(0 0.23999)"/>
</clipPath>
</defs>
</svg>
