<svg width="24" height="24" viewBox="0 0 24 24" fill="currentColor" xmlns="http://www.w3.org/2000/svg">
<g clip-path="url(#clip0_1532_1092)">
<path d="M15.7462 8.5248C15.6718 8.4672 15.5662 8.4816 15.511 8.5536L14.7118 9.5832C14.6542 9.6576 14.6686 9.7632 14.7406 9.8184C14.7862 9.8544 14.8462 9.8616 14.899 9.8448C14.9278 9.8352 14.9566 9.816 14.9758 9.7896L15.775 8.76C15.8326 8.688 15.8206 8.5824 15.7462 8.5248Z" fill="currentColor"/>
<path d="M16.4089 9.16567L16.0945 9.38887L16.0609 9.44167L15.6625 9.20887L15.4561 9.48007L15.8521 9.88567C15.8017 10.0777 15.7561 10.2961 15.7561 10.2961L17.2729 12.0145L17.9713 12.9985L18.2113 13.3489L19.4089 12.5425L16.7161 9.13927C16.5889 9.12007 16.4305 9.12487 16.4089 9.16567Z" fill="currentColor"/>
<path d="M13.332 15.4678C11.892 15.4678 10.6944 16.5094 10.44 17.8798C10.4088 18.055 10.3872 18.2374 10.3872 18.4198C10.3872 20.0542 11.7096 21.3814 13.332 21.3814C14.9544 21.3814 16.2768 20.0518 16.2768 18.4198C16.2768 17.8966 16.14 17.407 15.9024 16.9798C15.396 16.0798 14.436 15.4678 13.332 15.4678ZM13.332 19.7158C12.624 19.7158 12.0456 19.1374 12.0456 18.4198C12.0456 18.2254 12.0888 18.0454 12.1656 17.8798C12.3696 17.4358 12.816 17.1262 13.332 17.1262C13.4952 17.1262 13.6488 17.1598 13.7928 17.2126C14.2752 17.3974 14.6208 17.863 14.6208 18.4198C14.6208 19.1374 14.0448 19.7158 13.332 19.7158Z" fill="currentColor"/>
<path d="M2.3856 15.9625C1.884 15.9625 1.4352 16.1881 1.1352 16.5457C0.3264 16.4545 0.324 16.1593 0.324 15.6481C0.324 15.1201 0.9264 14.7913 1.6152 14.6857V15.1393H15.2784V13.9033H1.6152V14.3569C0.7536 14.4745 0 14.9113 0 15.6481C0 16.2721 0.0744 16.6969 0.9408 16.8433C0.8664 16.9873 0.8064 17.1409 0.7752 17.3041C0.7584 17.4025 0.7464 17.5033 0.7464 17.6041C0.7464 18.5137 1.4832 19.2553 2.3856 19.2553C3.2904 19.2553 4.0248 18.5161 4.0248 17.6041C4.0248 17.3113 3.948 17.0401 3.816 16.8025C3.5352 16.3009 3 15.9625 2.3856 15.9625ZM2.3856 18.3289C1.992 18.3289 1.668 18.0073 1.668 17.6065C1.668 17.4985 1.692 17.3977 1.7352 17.3065C1.848 17.0593 2.0976 16.8865 2.3856 16.8865C2.4768 16.8865 2.5608 16.9057 2.6424 16.9345C2.9112 17.0377 3.1032 17.2969 3.1032 17.6065C3.1056 18.0049 2.784 18.3289 2.3856 18.3289Z" fill="currentColor"/>
<path d="M23.9399 20.6784C23.8583 20.5344 23.7047 20.436 23.5295 20.436C23.2991 20.436 23.1071 20.6016 23.0663 20.8224C23.0615 20.8512 23.0591 20.88 23.0591 20.9088C23.0591 21.1704 23.2703 21.3816 23.5295 21.3816C23.7887 21.3816 23.9999 21.168 23.9999 20.9088C23.9999 20.8248 23.9783 20.748 23.9399 20.6784ZM23.5295 21.1176C23.4167 21.1176 23.3231 21.024 23.3231 20.9112C23.3231 20.88 23.3303 20.8512 23.3423 20.8248C23.3759 20.7528 23.4455 20.7048 23.5295 20.7048C23.5559 20.7048 23.5799 20.7096 23.6039 20.7192C23.6807 20.748 23.7359 20.8224 23.7359 20.9112C23.7359 21.024 23.6423 21.1176 23.5295 21.1176Z" fill="currentColor"/>
<path d="M16.8986 20.436C16.6682 20.436 16.4762 20.6016 16.4354 20.8224C16.4306 20.8512 16.4282 20.88 16.4282 20.9088C16.4282 21.1704 16.6394 21.3816 16.8986 21.3816C17.1578 21.3816 17.369 21.168 17.369 20.9088C17.369 20.8248 17.3474 20.748 17.309 20.6784C17.2274 20.5344 17.0738 20.436 16.8986 20.436ZM16.8986 21.1176C16.7858 21.1176 16.6922 21.024 16.6922 20.9112C16.6922 20.88 16.6994 20.8512 16.7114 20.8248C16.745 20.7528 16.8146 20.7048 16.8986 20.7048C16.925 20.7048 16.949 20.7096 16.973 20.7192C17.0498 20.748 17.105 20.8224 17.105 20.9112C17.105 21.024 17.0114 21.1176 16.8986 21.1176Z" fill="currentColor"/>
<path d="M11.8342 9.47488C11.6974 8.98048 11.3998 8.54848 11.3182 8.17888C11.2366 7.80928 11.3134 7.50928 11.0926 7.50928C10.9198 7.50928 10.9102 7.62208 10.9102 7.65328C10.9102 7.68448 10.9102 10.8909 10.9102 10.8909H11.1286C11.1286 12.0333 11.7814 12.0021 11.7814 12.0021C11.7814 12.0021 13.7686 12.0333 13.987 12.0333C14.2054 12.0333 14.3062 11.9613 14.3566 11.7477C14.3998 11.5581 14.359 11.3253 14.0398 11.2725C13.8238 11.2365 12.1894 11.0157 11.9446 10.9557C11.6998 10.8933 11.8366 10.5861 11.8366 10.5861C11.8366 10.5861 11.971 9.96688 11.8342 9.47488Z" fill="currentColor"/>
<path d="M12.1174 15.3789H3.04541V15.7509C3.48701 15.9093 3.86621 16.2237 4.10141 16.6461C4.19981 16.8213 4.26701 17.0085 4.30781 17.2053H6.16781V17.8029H8.52941V17.2053H10.2982C10.6342 16.3653 11.2966 15.7101 12.1174 15.3789Z" fill="currentColor"/>
<path d="M14.1169 13.0535L13.2217 12.3503H10.6609L10.1665 6.6983L11.0857 2.9783C11.1049 2.9327 11.1025 2.8847 11.0953 2.8391H16.9945L16.8169 2.3999H7.7617L7.6201 2.8415H10.5937L9.6145 6.7055L10.0297 12.3527H9.5881L9.4681 9.3479L7.9657 9.3719L7.5817 9.8447L2.5633 11.1647L2.1001 13.5887H14.1073L14.1169 13.0535Z" fill="currentColor"/>
<path d="M15.5425 13.903V14.8702H15.8833L15.8737 14.875C15.8809 14.8966 16.7161 16.9222 17.0017 17.7622C17.2825 18.5878 17.9041 18.6478 18.1921 18.6478C18.2209 18.6478 18.2473 18.6478 18.2689 18.6478H18.9121V19.5022H21.2737V19.111C21.7993 19.0126 22.8241 18.6574 23.2873 17.9902C23.4841 17.7046 23.5489 17.4046 23.4793 17.0926C23.2513 16.0846 21.5473 15.5542 20.1049 15.4246C20.1361 15.3598 20.1649 15.2926 20.1889 15.2254C20.3665 14.7238 20.3089 14.2318 20.0329 13.819L20.1385 13.759L19.6561 12.9214L17.9473 13.9078H15.5425V13.903ZM19.5673 15.715C19.5769 15.715 19.5889 15.715 19.5985 15.715C19.5889 15.727 19.5769 15.7366 19.5673 15.7462V15.715ZM17.3089 17.6542C17.0593 16.9246 16.4065 15.3166 16.2241 14.8678H18.1633V18.319C17.9089 18.3166 17.5129 18.2494 17.3089 17.6542ZM23.1625 17.1598C23.2129 17.3806 23.1673 17.5894 23.0209 17.8006C22.6777 18.295 21.8401 18.6598 21.2737 18.775V17.7358H19.5649V16.0942C19.6897 16.0054 19.8097 15.8806 19.9177 15.7318C21.2953 15.8302 22.9729 16.3198 23.1625 17.1598ZM19.8073 13.9462C20.1073 14.383 20.0545 14.827 19.9441 15.1342C19.9105 15.2302 19.8673 15.319 19.8217 15.4006C19.7353 15.3958 19.6489 15.3934 19.5673 15.391V14.0854L19.8073 13.9462Z" fill="currentColor"/>
<path d="M23.1718 20.2581C22.9246 20.0229 22.591 19.8789 22.2238 19.8789H18.223C17.8438 19.8789 17.5006 20.0325 17.251 20.2797C17.3686 20.3445 17.467 20.4405 17.5366 20.5605C17.599 20.6685 17.6302 20.7933 17.6302 20.9181C17.6302 21.0405 17.599 21.1557 17.5438 21.2613H22.8958C22.8358 21.1557 22.7998 21.0309 22.7998 20.9013C22.7998 20.8581 22.8046 20.8149 22.8118 20.7669C22.8502 20.5461 22.987 20.3637 23.1718 20.2581Z" fill="currentColor"/>
<path d="M9.54458 18.5591C9.38138 18.5591 9.24698 18.6767 9.21818 18.8303C9.21338 18.8495 9.21338 18.8711 9.21338 18.8903C9.21338 19.0751 9.36218 19.2239 9.54698 19.2239C9.72938 19.2239 9.88058 19.0727 9.88058 18.8903C9.88058 18.8303 9.86618 18.7751 9.83738 18.7271C9.77738 18.6287 9.66938 18.5591 9.54458 18.5591ZM9.54458 19.0391C9.46538 19.0391 9.39818 18.9743 9.39818 18.8927C9.39818 18.8711 9.40298 18.8495 9.41258 18.8327C9.43658 18.7823 9.48698 18.7487 9.54458 18.7487C9.56378 18.7487 9.58058 18.7535 9.59738 18.7583C9.65258 18.7799 9.69098 18.8327 9.69098 18.8951C9.68858 18.9743 9.62378 19.0391 9.54458 19.0391Z" fill="currentColor"/>
<path d="M4.86245 18.5591C4.69925 18.5591 4.56485 18.6767 4.53605 18.8303C4.53125 18.8495 4.53125 18.8711 4.53125 18.8903C4.53125 19.0751 4.68005 19.2239 4.86485 19.2239C5.04725 19.2239 5.19845 19.0727 5.19845 18.8903C5.19845 18.8303 5.18405 18.7751 5.15525 18.7271C5.09525 18.6287 4.98725 18.5591 4.86245 18.5591ZM4.86245 19.0391C4.78325 19.0391 4.71605 18.9743 4.71605 18.8927C4.71605 18.8711 4.72085 18.8495 4.73045 18.8327C4.75445 18.7823 4.80485 18.7487 4.86245 18.7487C4.88165 18.7487 4.89845 18.7535 4.91525 18.7583C4.97045 18.7799 5.00885 18.8327 5.00885 18.8951C5.00885 18.9743 4.94405 19.0391 4.86245 19.0391Z" fill="currentColor"/>
<path d="M9.29262 18.4343C9.11742 18.2687 8.88222 18.1655 8.62302 18.1655H5.79822C5.52942 18.1655 5.28702 18.2735 5.11182 18.4487C5.19342 18.4943 5.26542 18.5615 5.31342 18.6479C5.35662 18.7247 5.38062 18.8111 5.38062 18.8999C5.38062 18.9863 5.35902 19.0679 5.31822 19.1423H9.09582C9.05262 19.0679 9.02862 18.9815 9.02862 18.8879C9.02862 18.8567 9.03102 18.8255 9.03822 18.7943C9.06462 18.6359 9.16062 18.5063 9.29262 18.4343Z" fill="currentColor"/>
</g>
<defs>
<clipPath id="clip0_1532_1092">
<rect width="24" height="18.984" fill="currentColor" transform="translate(0 2.3999)"/>
</clipPath>
</defs>
</svg>
