<svg width="24" height="24" viewBox="0 0 24 24" fill="currentColor" xmlns="http://www.w3.org/2000/svg">
<g clip-path="url(#clip0_1413_1808)">
<path d="M18.144 16.7256C18.0264 16.7256 17.928 16.6296 17.928 16.5096V12.8208H17.4552V16.7256V16.9872L17.4576 16.9896C17.4552 16.9992 17.4552 17.0088 17.4552 17.0184C17.4552 17.1192 17.5368 17.1984 17.6352 17.1984H22.9248L24 17.0568V16.7256H18.144Z" fill="currentColor"/>
<path d="M5.79599 9.95519L5.40719 10.008V8.45279C5.40719 8.45279 5.45759 8.28239 5.22719 8.19359C5.16719 7.86479 5.15759 7.72559 5.15759 7.72559C5.15759 7.72559 5.76479 7.89599 5.78639 8.45279C5.80799 9.00959 5.79599 9.95519 5.79599 9.95519Z" fill="currentColor"/>
<path d="M4.58153 10.104L3.97193 10.1856L3.98153 9.73442H3.58313L3.87113 9.46082H4.71833L4.91033 9.73442H4.58153V10.104Z" fill="currentColor"/>
<path d="M11.8728 7.02483C11.4456 6.31683 10.956 6.10083 10.4112 6.08643C9.8424 6.07203 8.5536 6.08403 8.004 6.10323C7.2552 6.12723 6.84 6.54723 6.7104 6.90963C6.5784 7.27203 6.4152 8.46483 6.3528 9.02403C6.288 9.60723 6.2688 10.1472 6.2688 10.1472L6.5544 10.9032C6.5544 10.9032 7.6824 12.7848 7.9272 13.1904C8.256 13.7328 8.832 13.8312 8.832 13.8312H10.7184L11.5128 12.6312L14.1096 11.5464C14.1096 11.5464 12.3 7.73043 11.8728 7.02483ZM10.8456 6.66003C11.0904 6.79203 11.328 7.08483 11.6328 7.68723C11.784 7.98243 12.4848 9.40323 12.9024 10.2504L12.7728 10.3344L11.7264 9.76803L11.472 10.02L12.0432 10.8072L11.9232 10.8864H8.7984L8.7336 6.52083C8.7336 6.52083 10.4208 6.42963 10.8456 6.66003ZM6.5952 10.0752C6.5952 10.0752 6.8784 7.42563 6.9888 7.13763C7.1544 6.71283 7.356 6.43683 8.2728 6.43683L8.2968 9.88803C8.0616 9.45363 7.764 9.13443 7.5912 9.13443C7.2912 9.13443 7.1544 9.09363 7.0968 9.24963C7.0488 9.37923 7.2192 10.1904 7.3704 10.8528H6.9216L6.5952 10.0752ZM11.364 12.384L10.5504 13.548L10.3776 13.5504L10.1208 12.4056L9.7872 12.2952L9.5112 12.2064L9.6432 12.0192L9.5424 11.8536L9.588 11.7432C9.6768 11.7432 9.7656 11.7432 9.8544 11.7432C9.8544 11.6136 9.8544 11.4912 9.8448 11.3832H12.0192L12.2472 12.0168L11.364 12.384Z" fill="currentColor"/>
<path d="M10.8408 10.3248C10.8744 10.3176 10.9056 10.3032 10.9296 10.2768L11.9112 9.31681C11.9808 9.24961 11.9832 9.13681 11.9136 9.06721C11.844 8.99761 11.7336 8.99521 11.664 9.06481L10.6824 10.0248C10.6128 10.092 10.6104 10.2048 10.68 10.2744C10.7232 10.3176 10.7832 10.3344 10.8408 10.3248Z" fill="currentColor"/>
<path d="M17.0544 5.04004H14.9688C14.9136 5.04004 14.8704 5.08324 14.8704 5.13844C14.8704 5.13844 15.0864 5.57284 15.1248 5.57764H15.4776V9.70804L15.1368 9.97444V13.8C15.8568 14.112 16.4304 14.7 16.7304 15.4272C16.8672 15.432 17.052 15.4368 17.0568 15.4392V5.04004H17.0544Z" fill="currentColor"/>
<path d="M11.0663 15.6841C11.1599 15.3865 11.2967 15.1057 11.4743 14.8537H10.9487H5.96873V14.8513L5.55113 14.8537L4.73753 13.6729C4.73753 13.6729 2.49353 13.6729 2.27513 13.6729C2.05673 13.6729 0.820728 14.1001 0.856728 15.9313C0.892728 15.9457 0.991128 15.9937 1.15913 16.0657C1.44473 15.4417 2.01593 14.8705 2.69753 14.6425C2.97833 14.5465 3.24233 14.5009 3.50633 14.5009C4.70873 14.5009 5.71913 15.3433 5.98073 16.4737L7.00313 16.4617L7.21673 16.7905H6.55913V17.2681H10.4567V16.8409H9.78233L10.4591 15.6913L11.0663 15.6841Z" fill="currentColor"/>
<path d="M14.2128 11.8704L11.7144 12.9192L10.8624 14.2344C10.8624 14.2344 9.33119 14.2512 8.90159 14.2344C8.47199 14.2176 7.91039 13.836 7.63439 13.4304C7.35599 13.0224 6.21359 11.064 6.06959 10.7976C5.92799 10.5312 5.86319 10.2096 5.86319 10.2096L2.69759 10.7496L0.643187 11.5872C0.643187 11.5872 0.561587 12.1464 0.527987 12.4104C0.494387 12.6744 0.347987 12.8376 0.182387 12.936C0.0167869 13.0344 0.0167869 13.248 0.00238689 13.3296C-0.0144131 13.4112 0.0839869 14.7936 0.151187 15.2544C0.215987 15.7152 0.266387 15.5832 0.611987 15.8472C0.513587 13.6944 2.05199 13.3872 2.25839 13.3872C2.46479 13.3872 4.97759 13.38 4.97759 13.38L5.79839 14.5752H11.1696V14.5728H11.6952C12.036 14.1912 12.4728 13.8936 12.9816 13.7232C13.3152 13.6104 13.6272 13.5552 13.9392 13.5552C14.1912 13.5552 14.436 13.5864 14.6712 13.6464L14.2128 11.8704Z" fill="currentColor"/>
<path d="M16.3895 17.0376C16.4495 16.7304 16.4495 16.428 16.3895 16.1208C16.3271 16.1208 16.2671 16.1208 16.2071 16.1208C16.1807 16.0272 16.1567 15.9384 16.1327 15.8496C16.1855 15.8184 16.2359 15.7872 16.2911 15.756C16.1879 15.4608 16.0367 15.1992 15.8351 14.9616C15.7799 14.9928 15.7271 15.0216 15.6815 15.048C15.6119 14.9808 15.5471 14.916 15.4799 14.8488C15.5063 14.8008 15.5375 14.748 15.5687 14.6904C15.3311 14.4888 15.0695 14.3352 14.7767 14.2344C14.7431 14.2896 14.7143 14.34 14.6831 14.3928C14.5919 14.3688 14.5055 14.3424 14.4095 14.3184C14.4095 14.2584 14.4095 14.1984 14.4095 14.136C14.1023 14.076 13.7999 14.076 13.4927 14.1384C13.4927 14.2032 13.4927 14.2632 13.4927 14.3208C13.3991 14.3472 13.3127 14.3712 13.2239 14.3952C13.1927 14.3424 13.1615 14.2896 13.1303 14.2368C12.8351 14.3424 12.5735 14.4912 12.3383 14.6952C12.3695 14.7528 12.4007 14.8032 12.4247 14.8464C12.3551 14.916 12.2903 14.9808 12.2231 15.048C12.1775 15.0216 12.1271 14.9928 12.0719 14.9616C11.8679 15.1992 11.7167 15.4632 11.6159 15.756C11.6735 15.7896 11.7239 15.8184 11.7743 15.8496C11.7479 15.9432 11.7239 16.0296 11.6975 16.1208C11.6375 16.1208 11.5775 16.1208 11.5175 16.1208C11.4575 16.428 11.4575 16.7304 11.5175 17.04C11.5799 17.04 11.6399 17.04 11.6999 17.04C11.7263 17.1336 11.7503 17.2224 11.7743 17.3112C11.7215 17.3424 11.6711 17.3736 11.6159 17.4048C11.7191 17.7 11.8703 17.9616 12.0743 18.1992C12.1295 18.168 12.1823 18.1368 12.2255 18.1128C12.2951 18.1824 12.3599 18.2448 12.4295 18.312C12.4031 18.36 12.3719 18.4128 12.3407 18.468C12.5783 18.672 12.8399 18.8232 13.1327 18.9264C13.1663 18.8712 13.1951 18.8208 13.2263 18.768C13.3151 18.792 13.4015 18.816 13.4999 18.8424C13.4999 18.9024 13.4999 18.9624 13.4999 19.0248C13.8071 19.0848 14.1095 19.0848 14.4167 19.0248C14.4167 18.96 14.4167 18.9 14.4167 18.8424C14.5103 18.816 14.5967 18.7944 14.6855 18.768C14.7167 18.8208 14.7479 18.8712 14.7767 18.9216C14.9927 18.8688 15.4775 18.5856 15.5663 18.4608C15.5375 18.4104 15.5087 18.36 15.4847 18.3192C15.5543 18.2496 15.6191 18.1824 15.6863 18.1152C15.7319 18.1416 15.7823 18.1704 15.8375 18.2016C16.0391 17.964 16.1927 17.7 16.2935 17.4072C16.2359 17.3736 16.1855 17.3424 16.1375 17.3136C16.1639 17.22 16.1879 17.1336 16.2119 17.04C16.2695 17.0376 16.3295 17.0376 16.3895 17.0376ZM12.8951 16.5792C12.8951 15.984 13.3679 15.516 13.9535 15.516C14.5367 15.516 15.0119 15.984 15.0119 16.5792C15.0119 17.1672 14.5367 17.6424 13.9535 17.6424C13.3655 17.6424 12.8951 17.1672 12.8951 16.5792Z" fill="currentColor"/>
<path d="M5.59676 17.4744C5.64716 17.2176 5.64716 16.9632 5.59676 16.7064C5.54396 16.7064 5.49356 16.7064 5.44556 16.7064C5.42396 16.6272 5.40476 16.5552 5.38316 16.4784C5.42636 16.452 5.46956 16.428 5.51516 16.3992C5.42876 16.152 5.30156 15.9336 5.13356 15.7344C5.08796 15.7608 5.04236 15.7848 5.00396 15.8088C4.94636 15.7512 4.89116 15.6984 4.83596 15.6432C4.85996 15.6024 4.88396 15.5568 4.91036 15.5112C4.71116 15.3408 4.49276 15.2136 4.24556 15.1296C4.21916 15.1752 4.19276 15.2184 4.16876 15.2616C4.09196 15.24 4.01996 15.2208 3.94076 15.1992C3.94076 15.1488 3.94076 15.0984 3.94076 15.048C3.68156 14.9976 3.42956 14.9976 3.17276 15.0504C3.17276 15.1032 3.17276 15.1536 3.17276 15.2016C3.09356 15.2232 3.02156 15.2424 2.94716 15.264C2.92076 15.2184 2.89436 15.1752 2.86796 15.132C2.62076 15.2208 2.39996 15.3456 2.20556 15.516C2.23196 15.564 2.25596 15.6072 2.27756 15.6432C2.21516 15.6984 2.15996 15.7512 2.10476 15.8088C2.06636 15.7872 2.02556 15.7632 1.97996 15.7368C1.80716 15.936 1.67996 16.1568 1.59596 16.4016C1.64396 16.4304 1.68716 16.4544 1.72796 16.4784C1.70636 16.5552 1.68476 16.6296 1.66556 16.7064C1.61516 16.7064 1.56476 16.7064 1.51436 16.7064C1.46396 16.9632 1.46396 17.2176 1.51436 17.4768C1.56716 17.4768 1.61756 17.4768 1.66556 17.4768C1.68716 17.556 1.70636 17.628 1.72796 17.7024C1.68236 17.7288 1.64156 17.7552 1.59596 17.7816C1.68236 18.0288 1.80956 18.2472 1.97996 18.4464C2.02556 18.42 2.07116 18.3936 2.10716 18.3744C2.16476 18.432 2.21996 18.4848 2.27756 18.54C2.25596 18.5808 2.22956 18.624 2.20316 18.6696C2.40236 18.84 2.62076 18.9672 2.86556 19.0536C2.89436 19.0056 2.91836 18.9648 2.94476 18.9216C3.01916 18.9432 3.09116 18.9624 3.17276 18.984C3.17276 19.0344 3.17276 19.0848 3.17276 19.1352C3.43196 19.1856 3.68396 19.1856 3.94076 19.1352C3.94076 19.0824 3.94076 19.032 3.94076 18.9816C4.01996 18.96 4.09196 18.9408 4.16636 18.9192C4.19276 18.9624 4.21916 19.0056 4.24316 19.0488C4.42316 19.0056 4.83116 18.768 4.90556 18.6624C4.88156 18.6192 4.85756 18.5784 4.83836 18.5424C4.89596 18.4824 4.95116 18.4272 5.00636 18.372C5.04476 18.3936 5.08796 18.4176 5.13356 18.444C5.30156 18.2448 5.43116 18.024 5.51516 17.7792C5.46716 17.7504 5.42396 17.7264 5.38316 17.7C5.40476 17.6232 5.42396 17.5488 5.44556 17.472C5.49596 17.4744 5.54636 17.4744 5.59676 17.4744ZM2.66876 17.0904C2.66876 16.5936 3.06476 16.2 3.55436 16.2C4.04156 16.2 4.43996 16.5936 4.43996 17.0904C4.43996 17.5824 4.04156 17.9808 3.55436 17.9808C3.06476 17.9832 2.66876 17.5848 2.66876 17.0904Z" fill="currentColor"/>
</g>
<defs>
<clipPath id="clip0_1413_1808">
<rect width="24" height="14.136" fill="currentColor" transform="translate(0 5.04004)"/>
</clipPath>
</defs>
</svg>
