<svg width="24" height="24" viewBox="0 0 24 24" fill="currentColor" xmlns="http://www.w3.org/2000/svg">
<g clip-path="url(#clip0_1437_1513)">
<path d="M6.8256 16.1353C6.4608 15.4849 5.7696 15.0457 4.9776 15.0457C3.9408 15.0457 3.0792 15.7945 2.8968 16.7809C2.8728 16.9081 2.8584 17.0377 2.8584 17.1697C2.8584 18.3457 3.8112 19.3033 4.9776 19.3033C6.1464 19.3033 7.0968 18.3457 7.0968 17.1697C7.0944 16.7929 6.996 16.4425 6.8256 16.1353ZM4.9752 18.1033C4.4664 18.1033 4.0488 17.6857 4.0488 17.1697C4.0488 17.0305 4.08 16.9009 4.1352 16.7809C4.2816 16.4617 4.6032 16.2385 4.9752 16.2385C5.0928 16.2385 5.2032 16.2625 5.3064 16.3009C5.6544 16.4353 5.9016 16.7689 5.9016 17.1697C5.904 17.6857 5.4888 18.1033 4.9752 18.1033Z" fill="currentColor"/>
<path d="M14.0064 18.0625C13.8648 17.8081 13.5936 17.6353 13.2816 17.6353C12.876 17.6353 12.5376 17.9281 12.4656 18.3169C12.456 18.3673 12.4512 18.4177 12.4512 18.4705C12.4512 18.9313 12.8232 19.3057 13.2816 19.3057C13.74 19.3057 14.112 18.9313 14.112 18.4705C14.112 18.3193 14.0712 18.1825 14.0064 18.0625ZM13.2792 18.8329C13.08 18.8329 12.9168 18.6697 12.9168 18.4681C12.9168 18.4129 12.9288 18.3625 12.9504 18.3145C13.008 18.1897 13.1328 18.1009 13.2792 18.1009C13.3248 18.1009 13.368 18.1105 13.4088 18.1249C13.5456 18.1777 13.6416 18.3097 13.6416 18.4657C13.644 18.6697 13.4808 18.8329 13.2792 18.8329Z" fill="currentColor"/>
<path d="M15.9983 17.5032C15.9143 17.352 15.7535 17.2512 15.5711 17.2512C15.3311 17.2512 15.1319 17.424 15.0887 17.652C15.0839 17.6808 15.0791 17.712 15.0791 17.7432C15.0791 18.0144 15.2999 18.2376 15.5687 18.2376C15.8399 18.2376 16.0583 18.0168 16.0583 17.7432C16.0607 17.6544 16.0391 17.5728 15.9983 17.5032ZM15.5711 17.9568C15.4535 17.9568 15.3575 17.8608 15.3575 17.7408C15.3575 17.7096 15.3647 17.6784 15.3767 17.6496C15.4103 17.5752 15.4847 17.5248 15.5711 17.5248C15.5975 17.5248 15.6239 17.5296 15.6479 17.5392C15.7271 17.5704 15.7847 17.6472 15.7847 17.7408C15.7847 17.8608 15.6887 17.9568 15.5711 17.9568Z" fill="currentColor"/>
<path d="M4.99926 14.1794L3.30486 8.97616L3.18726 7.04416C3.18726 7.04416 11.3857 5.74336 15.2905 9.21136C15.4489 10.6706 15.7249 12.6794 14.5009 14.0594C12.3721 13.6658 12.2521 13.193 4.99926 14.1794Z" fill="currentColor"/>
<path d="M4.93205 14.4553L4.98005 14.5945L4.73285 14.6833L3.96485 14.9593L3.89765 14.9833L3.82805 14.9689L1.51685 14.5369C1.52885 14.6761 1.54085 14.8129 1.55045 14.8489C1.56485 14.9041 2.49365 15.4609 3.03605 15.7849C3.47285 15.1729 4.18565 14.7817 4.97525 14.7817C5.83445 14.7817 6.63125 15.2497 7.05605 16.0057C7.18325 16.2337 7.26965 16.4785 7.31765 16.7329L9.31445 15.3025V14.7697C9.31445 14.7697 6.33845 14.9857 6.25925 15.0073C6.18005 15.0265 5.64725 14.4169 5.64725 14.4169L5.66645 14.3569C5.46005 14.3833 5.24885 14.4121 5.03285 14.4409L4.93205 14.4553Z" fill="currentColor"/>
<path d="M6.62158 14.2345L6.66958 14.7049C7.07758 14.6713 7.84318 14.6137 9.29518 14.5057L9.57838 14.4841V14.7697V15.0673L9.79198 15.0601C9.81118 14.8561 9.85678 14.6857 9.89518 14.5921C9.97198 14.3977 10.1808 14.2873 10.464 14.2873C10.6344 14.2873 10.8648 14.3305 11.004 14.4505C11.052 14.4913 11.2776 14.7097 11.5728 15.0025H11.58L11.6112 13.8673C11.484 13.8625 11.3496 13.8601 11.2032 13.8601C10.152 13.8577 8.70238 13.9777 6.62158 14.2345Z" fill="currentColor"/>
<path d="M13.3176 17.1145C12.9624 16.7401 10.9728 14.7697 10.8336 14.6497C10.6968 14.5321 10.2216 14.4913 10.1448 14.6881C10.0656 14.8849 9.90717 15.5953 10.3224 16.1281C10.6224 16.5145 11.688 17.5513 12.252 18.0937C12.4056 17.6641 12.8136 17.3689 13.2816 17.3689C13.3824 17.3689 13.4784 17.3833 13.572 17.4097C13.5048 17.3209 13.4208 17.2249 13.3176 17.1145ZM10.584 15.4009C10.44 15.4009 10.3248 15.2857 10.3248 15.1417C10.3248 14.9977 10.44 14.8825 10.584 14.8825C10.728 14.8825 10.8432 14.9977 10.8432 15.1417C10.8432 15.2857 10.728 15.4009 10.584 15.4009Z" fill="currentColor"/>
<path d="M1.98713 15.4151L1.66313 15.2375L1.39673 16.6727L1.72313 16.7015L1.98713 15.4151Z" fill="currentColor"/>
<path d="M2.75282 9.03364L2.61602 7.21924C2.40002 7.23844 1.67042 7.55524 1.43282 7.67284C1.19522 7.79044 1.11842 8.14564 0.801622 9.54484C0.612022 10.3824 0.734422 11.8704 0.864022 12.936H0.681622L0.364822 12.5664C0.384022 12.3744 0.376822 12.2424 0.340822 12.2352C0.280822 12.2232 0.163222 12.5496 0.0792219 12.9672C-0.00477808 13.3848 -0.0263781 13.7304 0.0336219 13.7424C0.0936219 13.7544 0.211222 13.428 0.295222 13.0104C0.316822 12.9048 0.333622 12.8016 0.348022 12.7104L0.633622 13.0416H0.876022C0.957622 13.704 1.03922 14.1768 1.03922 14.1768L3.87842 14.7096L4.64642 14.4336L2.75282 9.03364Z" fill="currentColor"/>
<path d="M2.77211 4.72314L2.42651 4.76154L2.15771 7.07994C2.28731 7.03194 2.40732 6.99354 2.50332 6.97434L2.77211 4.72314Z" fill="currentColor"/>
<path d="M4.52652 4.56006L2.85132 4.71846L3.87132 5.41926L3.71772 6.70806C3.81852 6.69606 3.93132 6.68406 4.05372 6.67206L4.17852 5.63286L5.53692 6.56886C5.71692 6.56166 5.90412 6.55446 6.09852 6.54966L4.52652 4.56006Z" fill="currentColor"/>
<path d="M23.9999 16.4615L23.5847 16.3103L23.6207 16.2095L17.7623 13.9439L20.9375 14.1383L20.9351 14.1791C20.9351 14.1959 20.9447 14.2103 20.9591 14.2151L21.3023 14.3423C21.3263 14.3519 21.3503 14.3351 21.3503 14.3111L21.3599 14.1647L21.5207 14.1743L21.5375 13.9151L21.3767 13.9055L21.3863 13.7567C21.3887 13.7327 21.3647 13.7135 21.3407 13.7183L20.9831 13.7999C20.9663 13.8047 20.9567 13.8167 20.9543 13.8335L20.9519 13.8791L16.9607 13.6343L16.1663 13.3271L15.1487 13.7111L15.1511 14.2367L11.8679 14.3855L11.8775 14.5967L14.4119 14.4815L14.5199 16.9343L12.2279 15.5759L12.2015 15.6983C12.5927 16.0847 12.9839 16.4783 13.2383 16.7327L14.8655 17.6903C14.8679 17.6639 14.8703 17.6375 14.8751 17.6087C14.9015 17.4695 14.9663 17.3495 15.0599 17.2535L14.7383 17.0639L14.6231 14.4719L15.1535 14.4479V14.5175L19.8695 15.2039L23.4839 16.5671L23.5151 16.4807L23.9279 16.6319L23.9999 16.4615Z" fill="currentColor"/>
</g>
<defs>
<clipPath id="clip0_1437_1513">
<rect width="24" height="14.7432" fill="currentColor" transform="translate(0 4.56006)"/>
</clipPath>
</defs>
</svg>
