<svg width="24" height="24" viewBox="0 0 24 24" fill="currentColor" xmlns="http://www.w3.org/2000/svg">
<g clip-path="url(#clip0_1432_1187)">
<path d="M9.48016 17.268L2.05935 16.8672C1.24095 16.824 0.542554 17.4504 0.499354 18.2688L0.410554 19.908C0.367354 20.7264 0.993754 21.4248 1.81215 21.468L9.23296 21.8664C10.0514 21.9096 10.7498 21.2832 10.793 20.4648L10.8818 18.8256C10.925 18.0096 10.2986 17.3112 9.48016 17.268ZM7.70415 19.8072C7.68736 20.1336 7.40656 20.3856 7.08016 20.3664L4.11135 20.208C3.78495 20.1912 3.53295 19.9104 3.55215 19.584L3.58815 18.9288C3.60495 18.6024 3.88575 18.3504 4.21215 18.3696L7.18096 18.5304C7.50736 18.5472 7.75936 18.828 7.74016 19.1544L7.70415 19.8072Z" fill="currentColor"/>
<path d="M11.4146 20.6881L13.5578 21.0361L13.9322 18.7417L19.6298 18.4465L11.8826 17.5249L11.4146 20.6881Z" fill="currentColor"/>
<path d="M16.9489 11.5153L18.9217 12.3073L18.6601 12.8425C18.5785 12.8257 18.4993 12.8089 18.4153 12.7993L11.6785 11.9689L11.1025 16.6297L21.3265 17.8897L21.5305 16.4185L21.2113 16.3849C21.3649 15.1369 20.7817 13.9729 19.8025 13.3177L20.0713 12.7705L22.0801 13.5769L23.9425 4.16649L22.7569 3.70569L16.9489 11.5153Z" fill="currentColor"/>
<path d="M23.9496 2.25844C23.9256 2.05924 23.8464 1.92004 23.8464 1.92004C23.8464 1.92004 23.8056 2.08084 23.7024 2.22964C23.5992 2.37844 23.0088 3.19204 23.0088 3.19204L24.0024 3.52804C24 3.53044 23.9712 2.46004 23.9496 2.25844Z" fill="currentColor"/>
<path d="M0.811286 8.5512C1.08729 8.8272 1.49529 8.8248 1.92969 8.8272H1.98969C2.08569 8.8272 2.15769 8.8536 2.21289 8.9136C2.35689 9.0648 2.39289 9.396 2.39289 9.7176L0.907286 9.6936L0.972086 16.0776L10.1185 16.5384L10.7761 11.604L3.89049 9.7416L2.74809 9.7224C2.74569 9.324 2.69769 8.904 2.46729 8.664C2.34249 8.5344 2.18169 8.4696 1.98729 8.4696H1.92969C1.54569 8.4696 1.23609 8.4696 1.06329 8.2992C0.952886 8.1888 0.888086 7.9944 0.866486 7.716C0.914486 7.7136 0.960086 7.7136 1.01049 7.704L1.84089 6.0792L1.87449 4.7184C1.87449 4.7184 0.746486 4.536 0.0168865 4.8024C-0.0167135 5.0016 0.0168865 7.3728 0.0168865 7.3728C0.0168865 7.3728 0.194486 7.5816 0.506486 7.6776C0.528086 8.0856 0.626486 8.3664 0.811286 8.5512ZM0.230486 6.576C0.230486 6.2928 0.460886 6.0624 0.744086 6.0624C1.02729 6.0624 1.25769 6.2928 1.25769 6.576C1.25769 6.8592 1.02729 7.0896 0.744086 7.0896C0.460886 7.0896 0.230486 6.8592 0.230486 6.576Z" fill="currentColor"/>
<path d="M4.98831 6.30699L4.21582 9.06396L10.7905 10.9062L11.563 8.14918L4.98831 6.30699Z" fill="currentColor"/>
<path d="M15.9432 11.832L12.0624 8.37842L11.436 11.1096L15.9432 11.832Z" fill="currentColor"/>
</g>
<defs>
<clipPath id="clip0_1432_1187">
<rect width="24" height="19.9488" fill="currentColor" transform="translate(0 1.92004)"/>
</clipPath>
</defs>
</svg>
