<svg width="24" height="24" viewBox="0 0 24 24" fill="currentColor" xmlns="http://www.w3.org/2000/svg">
<g clip-path="url(#clip0_1422_1913)">
<path d="M17.9568 20.8513C17.0904 20.8513 16.3872 21.5521 16.3872 22.4233C16.3872 23.2945 17.088 24.0001 17.9568 24.0001C18.8184 24.0001 19.5216 23.2945 19.5216 22.4233C19.5216 21.5521 18.8184 20.8513 17.9568 20.8513ZM17.9568 23.1529C17.556 23.1529 17.2296 22.8217 17.2296 22.4233C17.2296 22.0177 17.556 21.6937 17.9568 21.6937C18.3552 21.6937 18.6816 22.0201 18.6816 22.4233C18.6816 22.8241 18.3552 23.1529 17.9568 23.1529Z" fill="currentColor"/>
<path d="M6.06964 20.8513C5.20564 20.8513 4.50244 21.5521 4.50244 22.4233C4.50244 23.2945 5.20324 24.0001 6.06964 24.0001C6.93604 24.0001 7.63924 23.2945 7.63924 22.4233C7.63924 21.5521 6.93604 20.8513 6.06964 20.8513ZM6.06964 23.1529C5.66884 23.1529 5.34244 22.8217 5.34244 22.4233C5.34244 22.0177 5.66884 21.6937 6.06964 21.6937C6.47044 21.6937 6.79684 22.0201 6.79684 22.4233C6.79444 22.8241 6.46804 23.1529 6.06964 23.1529Z" fill="currentColor"/>
<path d="M21.1104 5.268V1.0224C21.1104 0.4848 20.676 0.0504 20.1456 0.0504L4.24082 0C3.70802 0 3.27362 0.4344 3.27362 0.9696V6.324H3.28082V6.3504V7.7592V8.8368H3.72722L3.72482 8.844L9.53762 10.2048L3.72482 11.5656L3.86642 12.1752L3.72482 12.7848L9.53762 14.1456L3.72482 15.504L3.85202 16.0512L3.72482 16.596L9.53762 17.9544L8.79122 18.1296H2.92322V22.2456H3.76322C3.76562 20.9736 4.80002 19.9392 6.06962 19.9392C7.34162 19.9392 8.37362 20.976 8.37602 22.2456H15.6504C15.6528 20.9736 16.6848 19.9392 17.9568 19.9392C19.2264 19.9392 20.2584 20.976 20.2608 22.2456H21.0912V19.3176H20.6688V19.3152L14.856 17.952L20.6688 16.5936L20.544 16.0488L20.6688 15.5016L14.856 14.1408L20.6688 12.78L20.5296 12.1704L20.6688 11.5608L14.856 10.2L20.3592 8.9112H21.108V7.7544V6.3456V5.268H21.1104ZM12.6432 0.624L18.5952 0.6456V2.8944H12.6432V0.624ZM12.6432 3.4872H18.5952V5.268H12.6432V3.4872ZM10.5288 0.6168L12.0528 0.6216V2.8944H10.5288V0.6168ZM10.5288 3.4872H12.0528V5.7336H10.5288V3.4872ZM3.86642 0.9696C3.86642 0.7632 4.03442 0.5952 4.24082 0.5952L9.93602 0.6144V2.892H3.86642V0.9696ZM3.86642 3.4872H9.93602V5.7336H3.86642V3.4872ZM17.6808 16.0512L12.1968 17.3328L6.71282 16.0512L12.1968 14.7648L17.6808 16.0512ZM17.9496 12.1728L12.1968 13.5216L6.44402 12.1728L12.1968 10.8264L17.9496 12.1728ZM19.668 7.836L12.1944 9.5832L4.97042 7.8912V7.7616H19.668V7.836ZM20.5176 5.268H19.1856V0.6432L20.1432 0.648C20.3496 0.648 20.5176 0.816 20.5176 1.0224V5.268Z" fill="currentColor"/>
</g>
<defs>
<clipPath id="clip0_1422_1913">
<rect width="18.1872" height="24" fill="currentColor" transform="translate(2.92322)"/>
</clipPath>
</defs>
</svg>
