<svg width="24" height="24" viewBox="0 0 24 24" fill="currentColor" xmlns="http://www.w3.org/2000/svg">
<g clip-path="url(#clip0_1430_1865)">
<path d="M4.79518 12.1533C4.59118 12.0837 4.37518 12.0381 4.14958 12.0381C3.02638 12.0381 2.11438 12.9501 2.11438 14.0805C2.11438 14.2965 2.15758 14.5005 2.21758 14.6973C2.47918 15.5253 3.23998 16.1277 4.14718 16.1277C5.27038 16.1277 6.17998 15.2109 6.17998 14.0805C6.18238 13.1781 5.59918 12.4245 4.79518 12.1533ZM4.14958 15.0261C3.63118 15.0261 3.20878 14.6037 3.20878 14.0805C3.20878 13.5549 3.63118 13.1325 4.14958 13.1325C4.66798 13.1325 5.09038 13.5549 5.09038 14.0805C5.09038 14.6037 4.66798 15.0261 4.14958 15.0261Z" fill="currentColor"/>
<path d="M18.9192 12.1533C18.7152 12.0837 18.4992 12.0381 18.2736 12.0381C17.1504 12.0381 16.2384 12.9501 16.2384 14.0805C16.2384 14.2965 16.2816 14.5005 16.3416 14.6973C16.6032 15.5253 17.364 16.1277 18.2712 16.1277C19.3944 16.1277 20.304 15.2109 20.304 14.0805C20.3064 13.1781 19.7232 12.4245 18.9192 12.1533ZM18.2736 15.0261C17.7552 15.0261 17.3328 14.6037 17.3328 14.0805C17.3328 13.5549 17.7552 13.1325 18.2736 13.1325C18.792 13.1325 19.2144 13.5549 19.2144 14.0805C19.2168 14.6037 18.7944 15.0261 18.2736 15.0261Z" fill="currentColor"/>
<path d="M4.42077 8.63524C4.42077 8.54164 4.34397 8.46484 4.25037 8.46484H4.03197C3.93837 8.46484 3.86157 8.54164 3.86157 8.63524V8.69284H3.98397V10.416H4.29837V8.69284H4.42077V8.63524Z" fill="currentColor"/>
<path d="M2.1552 13.0439H0.5712C0.2544 13.0439 0 13.2983 0 13.6127V13.6559C0 13.9487 0.2208 14.1935 0.5112 14.2223L1.9224 14.3495C1.9104 14.2583 1.9008 14.1671 1.9008 14.0807C1.9032 13.7063 1.9944 13.3559 2.1552 13.0439Z" fill="currentColor"/>
<path d="M20.976 13.3053L23.5776 13.5477L23.6256 12.9597L23.6712 12.4269C23.7264 11.7885 23.2536 11.2269 22.6152 11.1717L22.5312 11.1645L19.3104 10.8237L19.2552 11.3469L20.0616 11.4885L20.976 13.3053Z" fill="currentColor"/>
<path d="M12.624 9.20162L12.8736 9.34802C12.9672 9.22802 13.1184 9.12482 13.4256 9.11762H13.4376C13.7832 9.11762 14.3784 9.43922 14.58 9.56402L14.5872 9.56882L14.7552 9.29042C14.7552 9.29042 14.8536 9.13922 15.06 9.20402C15.0864 9.21122 15.1128 9.22082 15.1416 9.23282L15.1632 9.20402L15.096 9.13202C14.7072 8.72402 14.1024 8.23682 13.4328 8.23682C12.7704 8.23682 12.2184 8.94962 12.0768 9.20162L12.0744 9.20402L12.072 9.21122L12.156 9.25442C12.18 9.24482 12.2064 9.23762 12.228 9.23522C12.3192 9.22562 12.624 9.20162 12.624 9.20162Z" fill="currentColor"/>
<path d="M22.1664 9.50392L19.608 9.23272C19.548 9.22552 19.4952 9.26872 19.488 9.32872L19.344 10.7039L22.116 10.9991L22.2624 9.62392C22.2696 9.56392 22.2264 9.51112 22.1664 9.50392ZM19.776 10.2143L19.836 9.68872C19.8456 9.59032 19.9344 9.51832 20.0328 9.52792L20.436 9.57112L20.3304 10.5383L20.0112 10.5047C19.8648 10.4903 19.7592 10.3583 19.776 10.2143ZM21.9288 9.91192L21.8688 10.4375C21.8544 10.5839 21.7224 10.6871 21.5784 10.6727L20.5248 10.5599L20.6304 9.59272L21.768 9.71512C21.8688 9.72472 21.9384 9.81352 21.9288 9.91192Z" fill="currentColor"/>
<path d="M23.772 12.9359L23.6736 13.7183L20.8344 13.4567L19.8648 11.6183L18.9048 11.4551C18.9144 11.3951 18.9456 11.1743 18.972 10.9871C19.0056 10.7687 18.804 10.7855 18.7224 10.7807C18.6408 10.7759 18.4344 10.7543 18.1896 10.7471C18.2016 10.2959 17.9064 9.99112 17.7648 9.97432C17.6232 9.95752 17.3184 9.92632 17.3184 9.92632L17.3304 9.87832C17.3304 9.87832 17.3304 9.87832 17.3304 9.83032C17.3304 9.78232 17.2872 9.78232 17.2608 9.78232C17.232 9.77992 17.1 9.76792 17.04 9.76792C16.98 9.76792 16.9848 9.81592 16.9704 9.88792C16.9104 9.88792 16.812 9.96472 16.7832 9.98872L16.428 9.97192L16.4184 10.2071L15.588 9.85432C15.6432 9.56152 15.2952 9.37432 15.0864 9.30952C14.88 9.24712 14.784 9.39832 14.784 9.39832L14.5224 9.83272L13.608 9.86632L12.6504 9.31192C12.6504 9.31192 12.348 9.33592 12.2544 9.34552C12.1632 9.35512 12.024 9.42232 12.012 9.61192C12 9.79192 12.1776 9.88552 12.2808 9.89752L12.7032 9.98152L12.876 11.7407C12.8376 11.7599 12.7944 11.7815 12.744 11.8055L12.5568 10.0295C12.5568 10.0295 12.3768 10.0079 12.2448 9.98152C12.036 9.94072 11.9376 9.78712 11.9376 9.78712L11.7216 10.1975C11.7216 10.1975 11.5176 10.4903 11.748 10.6223C11.9496 10.7399 12.2064 10.4159 12.2064 10.4159L12.324 11.5655L11.5584 11.8847L11.4072 12.3743H8.21519V12.3383L8.98559 10.7831L8.80559 10.7087L8.13119 11.9639C8.10719 11.9375 8.08079 11.9135 8.04959 11.8943L8.52719 10.0079L8.63039 9.85912L8.41439 9.71272L7.21439 11.2775V10.5623H3.72239V10.2071C3.72239 10.1159 3.64799 10.0415 3.55679 10.0415H3.23759C3.23519 9.47752 3.23519 8.38552 3.23519 8.34232C3.23519 8.28712 3.20399 8.19352 3.12479 8.13112C3.04559 8.06872 2.69999 7.91992 2.69999 7.91992L2.88719 8.34712C2.93279 8.34712 2.96639 8.36872 2.96639 8.42152C2.96639 8.45752 2.96639 9.49432 2.96639 10.0415H2.46719C2.37599 10.0415 2.30159 10.1159 2.30159 10.2071V10.5647H1.20719L0.799194 12.8015L2.31839 12.7679H2.32319C2.73359 12.1871 3.40799 11.8079 4.17119 11.8079C4.40639 11.8079 4.64159 11.8487 4.89119 11.9351C5.08319 11.9999 5.26079 12.0887 5.42399 12.1991H7.21439V11.7575L7.57679 11.9711C7.52639 12.0311 7.49279 12.1079 7.49279 12.1943V12.3815H5.66399C6.14639 12.8039 6.43919 13.4183 6.43919 14.0879C6.43919 14.4167 6.36719 14.7311 6.24239 15.0119L6.85679 15.2207H7.64639C8.44319 15.2855 9.80159 15.4007 9.80159 15.4007C9.80159 15.4007 9.92399 15.4343 10.0128 15.4823C10.1016 15.5303 10.1832 15.5639 10.3872 15.5471C10.5816 15.5327 11.0136 15.4583 11.0592 15.2207H11.2608C11.2608 15.2207 12.0768 14.8463 12.5496 14.0303C12.5568 14.0183 12.5616 14.0063 12.5688 13.9943L12.5856 14.1695L12.9864 14.1287L12.8856 13.1735C12.8928 13.1447 12.8976 13.1159 12.9048 13.0871C13.2384 12.9719 13.6032 12.8375 13.6512 12.8375C14.0112 12.8375 14.304 12.5447 14.304 12.1847C14.304 11.9711 14.2008 11.7815 14.0424 11.6639C14.0664 11.4623 14.2488 10.7183 15.1848 10.7231C16.164 10.7279 16.3392 11.4287 16.356 11.5127V11.5247L17.0472 11.5559C16.3776 11.8703 15.8712 12.5015 15.7272 13.3511L15.6216 13.9871L16.0104 14.0111C16.0512 12.7919 17.0496 11.8151 18.276 11.8151C18.5112 11.8151 18.7464 11.8559 18.996 11.9423C19.92 12.2519 20.5416 13.1159 20.5416 14.0903C20.5416 14.1263 20.5368 14.1623 20.5368 14.2007L23.88 14.3399L23.9976 12.9671L23.772 12.9359ZM12.3648 9.79672C12.2712 9.79672 12.1944 9.71992 12.1944 9.62632C12.1944 9.53272 12.2712 9.45592 12.3648 9.45592C12.4584 9.45592 12.5352 9.53272 12.5352 9.62632C12.5376 9.72232 12.4608 9.79672 12.3648 9.79672ZM11.8848 10.5335C11.8056 10.5335 11.7432 10.4687 11.7432 10.3919C11.7432 10.3127 11.808 10.2503 11.8848 10.2503C11.964 10.2503 12.0264 10.3151 12.0264 10.3919C12.0264 10.4687 11.964 10.5335 11.8848 10.5335ZM15.0888 9.50632C15.192 9.50632 15.2736 9.59032 15.2736 9.69112C15.2736 9.79432 15.1896 9.87592 15.0888 9.87592C14.9856 9.87592 14.904 9.79192 14.904 9.69112C14.9016 9.59032 14.9856 9.50632 15.0888 9.50632ZM7.85999 11.9639C7.97279 11.9639 8.06399 12.0551 8.06399 12.1679C8.06399 12.2807 7.97279 12.3719 7.85999 12.3719C7.74719 12.3719 7.65599 12.2807 7.65599 12.1679C7.65599 12.0551 7.74719 11.9639 7.85999 11.9639ZM7.99199 11.2823C7.90559 11.2343 7.70399 11.1215 7.63679 11.0783L8.25119 10.3583L7.99199 11.2823ZM7.52879 11.2103L7.93199 11.4983L7.83359 11.8463L7.36799 11.5607C7.37759 11.5367 7.49999 11.2751 7.52879 11.2103ZM15.9936 10.4831L15.996 10.5239L13.7856 10.6679L13.7736 10.4783L15.984 10.3343L15.9864 10.3823L16.4112 10.3559L16.4064 10.4567L15.9936 10.4831ZM17.4888 10.1567C17.8656 10.2311 17.8296 10.4711 17.7864 10.6079C17.7384 10.7591 17.5464 11.3183 17.532 11.3855C17.4984 11.3927 17.4648 11.4023 17.4312 11.4119L17.4888 10.1567Z" fill="currentColor"/>
</g>
<defs>
<clipPath id="clip0_1430_1865">
<rect width="24" height="8.208" fill="currentColor" transform="translate(0 7.91992)"/>
</clipPath>
</defs>
</svg>
