<svg width="24" height="24" viewBox="0 0 24 24" fill="currentColor" xmlns="http://www.w3.org/2000/svg">
<g clip-path="url(#clip0_1418_904)">
<path d="M12.6528 15.3887L12.6816 9.59268L24 9.61668L23.5608 9.13668L22.224 9.13188L11.8152 3.18468L11.7984 2.87988H11.4288C11.4288 2.87988 11.4336 2.97828 11.4432 3.14388L11.4288 3.10788L9.9336 4.78068L6.2952 6.79428C6.2064 6.77748 5.8848 6.72468 5.484 6.69348L10.9608 3.61908L11.4312 3.10788L5.0088 6.66948C4.596 6.65988 4.1616 6.68868 3.8304 6.80148V7.32468L0.6168 9.10548H0.3528L0 9.61428L6.2256 9.58548L6.1632 19.7159L5.2512 20.8967H7.6848L6.8352 19.7447L6.816 16.4567H12.1944L12.2544 19.7087L11.3832 20.8703H13.632L12.8112 19.7087L12.6528 15.3887ZM11.7168 8.19828L8.4144 8.16468L11.5152 4.45428C11.5896 5.79108 11.6856 7.58388 11.7168 8.19828ZM11.8464 3.82068L12.8664 4.95588L11.8728 4.32948L11.8464 3.82068ZM11.8968 4.85748L15.4704 9.11508L12.4296 9.10788L12.0744 8.42868L11.8968 4.85748ZM11.8872 4.63428L11.88 4.51188L13.2384 5.37108L14.1624 6.40068L16.7544 9.11748L15.7224 9.11508L11.8872 4.63428ZM13.9776 5.83908L19.1736 9.12468L16.9776 9.11748L17.0544 9.11028C17.0544 9.11268 15.2112 7.16628 13.9776 5.83908ZM13.5744 5.40468C13.2288 5.02788 12.9768 4.74948 12.9096 4.66308C12.7272 4.42308 12.264 3.89748 11.9376 3.52788L12.3336 3.75588L12.3168 3.76308L21.1032 9.13188L19.4808 9.12708L13.5744 5.40468ZM11.5056 4.25028L8.088 8.15988L7.3656 8.15268L10.2888 4.79028L11.4984 4.12548C11.5008 4.16388 11.5032 4.20708 11.5056 4.25028ZM11.7984 9.69588L9.5568 12.0911L7.1184 9.69588H11.7984ZM21.7416 9.13188H21.4512L17.2176 6.56148L21.6696 9.11988L21.7416 9.13188ZM11.46 3.43908C11.4672 3.58068 11.4768 3.74148 11.4864 3.92148L10.6296 4.39428L11.46 3.43908ZM3.8304 7.61988V8.15268C3.5784 8.30148 2.5128 8.93508 2.1936 9.10548H1.1856L3.8304 7.61988ZM6.2352 8.14548L6.2304 9.10788L2.4936 9.10548L3.8304 8.31348V8.33508H6.0792V7.96788L6.3216 7.95348V6.97428L9.576 5.18148L6.924 8.14788L6.576 8.14548H6.2352ZM6.7608 15.3599L6.8184 9.72468L9.42 12.3671L6.7608 15.3599ZM6.8904 15.6455L9.5568 12.6239L12.156 15.6455H6.8904ZM9.6936 12.3479L12.0912 9.73428L12.1896 9.75348L12.2256 15.3599L9.6936 12.3479Z" fill="currentColor"/>
<path d="M3.80161 8.45752L3.90001 8.98552L6.12001 9.02872L6.06481 8.48632L3.80161 8.45752Z" fill="currentColor"/>
</g>
<defs>
<clipPath id="clip0_1418_904">
<rect width="24" height="18.0168" fill="currentColor" transform="translate(0 2.87988)"/>
</clipPath>
</defs>
</svg>
