<svg width="24" height="24" viewBox="0 0 24 24" fill="currentColor" xmlns="http://www.w3.org/2000/svg">
<g clip-path="url(#clip0_1413_2514)">
<path d="M6.24237 23.4047C6.24237 23.7287 5.98077 23.9903 5.65677 23.9903C5.33277 23.9903 5.07117 23.7287 5.07117 23.4047C5.07117 23.0807 5.33277 22.8191 5.65677 22.8191C5.98077 22.8191 6.24237 23.0831 6.24237 23.4047ZM5.64957 23.1527C5.51277 23.1527 5.40237 23.2631 5.40237 23.3999C5.40237 23.5367 5.51277 23.6471 5.64957 23.6471C5.78637 23.6471 5.89677 23.5367 5.89677 23.3999C5.89677 23.2631 5.78637 23.1527 5.64957 23.1527Z" fill="currentColor"/>
<path d="M19.4807 23.5295C19.4807 23.7887 19.2695 23.9999 19.0103 23.9999C18.7511 23.9999 18.5399 23.7887 18.5399 23.5295C18.5399 23.2703 18.7511 23.0591 19.0103 23.0591C19.2695 23.0615 19.4807 23.2703 19.4807 23.5295ZM19.0055 23.3279C18.8975 23.3279 18.8087 23.4167 18.8087 23.5247C18.8087 23.6327 18.8975 23.7215 19.0055 23.7215C19.1135 23.7215 19.2023 23.6327 19.2023 23.5247C19.2023 23.4167 19.1135 23.3279 19.0055 23.3279Z" fill="currentColor"/>
<path d="M17.664 15.6288H13.74V13.3824H13.1328V10.4568H12.4896V16.2168H13.116H13.1352H13.7424V16.2072H17.7072C17.82 16.2072 20.16 16.1784 20.16 16.0632V15.9096C20.1576 15.7368 17.7768 15.6288 17.664 15.6288Z" fill="currentColor"/>
<path d="M18.6048 22.7593H12.156V23.3881L18.1488 23.3809C18.1968 23.1097 18.3696 22.8841 18.6048 22.7593Z" fill="currentColor"/>
<path d="M20.16 22.7593H19.416C19.6536 22.8841 19.8264 23.1121 19.872 23.3857L20.16 23.3881V22.7593Z" fill="currentColor"/>
<path d="M10.392 0V0.2832H10.7808V7.176L9.56877 7.6032V8.5896L10.7304 8.8992V14.2176H8.46717V13.8048L7.29117 13.3728L7.26717 8.7768L7.93437 7.86L7.95117 7.524L8.62797 7.5264L8.89197 7.08L3.72717 7.092L3.73437 7.524H4.28157V14.2152H4.06557V23.3808H4.66557C4.67757 22.8456 5.11677 22.4136 5.65437 22.4136C6.19197 22.4136 6.63117 22.8456 6.64317 23.3808H11.7144V0.2952L12.108 0.288V0H10.392ZM4.78077 14.2176V7.5192L5.73117 7.5216V7.8624L6.38157 8.7672L6.43917 14.22H4.78077V14.2176Z" fill="currentColor"/>
</g>
<defs>
<clipPath id="clip0_1413_2514">
<rect width="16.4328" height="24" fill="currentColor" transform="translate(3.72717)"/>
</clipPath>
</defs>
</svg>
