<svg width="24" height="24" viewBox="0 0 24 24" fill="currentColor" xmlns="http://www.w3.org/2000/svg">
<g clip-path="url(#clip0_1413_2792)">
<path d="M1.7232 17.5681C2.124 17.5681 2.4504 17.8945 2.4504 18.2953C2.4504 18.6961 2.124 19.0225 1.7232 19.0225C1.3224 19.0225 0.996002 18.6961 0.996002 18.2953C0.996002 17.8921 1.32 17.5681 1.7232 17.5681ZM1.4256 18.2857C1.4256 18.4537 1.5624 18.5905 1.7304 18.5905C1.8984 18.5905 2.0352 18.4537 2.0352 18.2857C2.0352 18.1177 1.8984 17.9809 1.7304 17.9809C1.5624 17.9809 1.4256 18.1177 1.4256 18.2857Z" fill="currentColor"/>
<path d="M22.8168 18.6648C22.7808 18.7512 22.6944 18.8112 22.5936 18.8112C22.4928 18.8112 22.4088 18.7512 22.3704 18.6648H22.02C22.0632 18.9408 22.3008 19.152 22.5888 19.152C22.8768 19.152 23.1144 18.9408 23.1576 18.6648H22.8168Z" fill="currentColor"/>
<path d="M20.9976 18.6648C20.9664 18.7608 20.8776 18.8328 20.7696 18.8328C20.6616 18.8328 20.5728 18.7608 20.5416 18.6648H20.1936C20.2272 18.9504 20.4696 19.1736 20.7648 19.1736C21.06 19.1736 21.3 18.9504 21.336 18.6648H20.9976Z" fill="currentColor"/>
<path d="M24 18.408L23.9784 17.5464L8.89439 17.4888L8.88959 18.408H24Z" fill="currentColor"/>
<path d="M1.3824 6.72725C1.4424 6.76325 1.5024 6.80165 1.5624 6.83765C1.9032 7.03445 2.4312 7.08245 3.0888 6.97925C3.4776 6.91925 4.0488 6.79205 4.4184 6.70805C4.4208 6.41285 4.3776 5.78405 3.9816 5.36405C3.4512 4.80005 3.144 4.80005 2.4744 4.80005C1.8048 4.80005 1.428 4.81685 1.068 5.16005C0.707997 5.50325 0.571198 5.86325 0.571198 6.05045C0.571198 6.16565 0.571198 6.32165 0.571198 6.42485C0.890397 6.42245 1.1544 6.58565 1.3824 6.72725Z" fill="currentColor"/>
<path d="M4.788 10.8024L4.824 9.65044C4.824 9.65044 4.8432 9.30725 5.4192 8.98325C5.9952 8.65925 7.1304 7.97524 7.1304 7.97524C7.1304 7.97524 7.4376 7.79524 7.4904 7.57924C7.5456 7.36324 7.3272 6.69604 7.3272 6.69604L4.8768 7.06564C4.7496 7.09684 3.7656 7.33444 3.1608 7.42804C2.9184 7.46644 2.688 7.48564 2.472 7.48564C2.016 7.48564 1.632 7.39925 1.3392 7.23124C1.272 7.19044 1.2072 7.14964 1.1424 7.11124C0.7872 6.88804 0.5952 6.78964 0.2808 6.96724C0.2112 7.02244 0.1464 7.10404 0.0912 7.21924L0 18.2544L0.552 18.36C0.5496 18.3384 0.5448 18.3168 0.5448 18.2952C0.5448 17.6448 1.0728 17.1168 1.7232 17.1168C2.3736 17.1168 2.9016 17.6448 2.9016 18.2952C2.9016 18.3336 2.8944 18.3672 2.8896 18.3768L8.2704 18.4512L8.2968 10.8576L4.788 10.8024Z" fill="currentColor"/>
</g>
<defs>
<clipPath id="clip0_1413_2792">
<rect width="24" height="14.3736" fill="currentColor" transform="translate(0 4.80005)"/>
</clipPath>
</defs>
</svg>
