<svg width="24" height="24" viewBox="0 0 24 24" fill="currentColor" xmlns="http://www.w3.org/2000/svg">
<g clip-path="url(#clip0_1413_2780)">
<path d="M1.72317 17.5681C2.12397 17.5681 2.45037 17.8945 2.45037 18.2953C2.45037 18.6961 2.12397 19.0225 1.72317 19.0225C1.32237 19.0225 0.995972 18.6961 0.995972 18.2953C0.995972 17.8921 1.31997 17.5681 1.72317 17.5681ZM1.42557 18.2857C1.42557 18.4537 1.56237 18.5905 1.73037 18.5905C1.89837 18.5905 2.03517 18.4537 2.03517 18.2857C2.03517 18.1177 1.89837 17.9809 1.73037 17.9809C1.56237 17.9809 1.42557 18.1177 1.42557 18.2857Z" fill="currentColor"/>
<path d="M22.4112 18.2161C22.6704 18.2161 22.8816 18.4273 22.8816 18.6865C22.8816 18.9457 22.6704 19.1569 22.4112 19.1569C22.152 19.1569 21.9408 18.9457 21.9408 18.6865C21.9408 18.4273 22.152 18.2161 22.4112 18.2161ZM22.2192 18.6817C22.2192 18.7921 22.308 18.8785 22.416 18.8785C22.5264 18.8785 22.6128 18.7897 22.6128 18.6817C22.6128 18.5713 22.524 18.4849 22.416 18.4849C22.308 18.4825 22.2192 18.5713 22.2192 18.6817Z" fill="currentColor"/>
<path d="M20.9256 18.2329C21.1848 18.2329 21.396 18.4441 21.396 18.7033C21.396 18.9625 21.1848 19.1737 20.9256 19.1737C20.6664 19.1737 20.4552 18.9625 20.4552 18.7033C20.4552 18.4441 20.6664 18.2329 20.9256 18.2329ZM20.7336 18.6985C20.7336 18.8089 20.8224 18.8953 20.9304 18.8953C21.0408 18.8953 21.1272 18.8065 21.1272 18.6985C21.1272 18.5905 21.0384 18.5017 20.9304 18.5017C20.8224 18.5017 20.7336 18.5881 20.7336 18.6985Z" fill="currentColor"/>
<path d="M20.9256 17.7816C21.228 17.7816 21.4944 17.9304 21.6624 18.1536C21.8304 17.9184 22.104 17.7624 22.4136 17.7624C22.8624 17.7624 23.2368 18.084 23.3184 18.5112L24 18.408L23.9784 17.5488L8.89439 17.4888L8.88959 18.408L18.888 18.3912L20.0208 18.5448C20.0952 18.1128 20.472 17.7816 20.9256 17.7816Z" fill="currentColor"/>
<path d="M1.38243 6.72725C1.44243 6.76325 1.50243 6.80165 1.56243 6.83765C1.90323 7.03445 2.43123 7.08245 3.08883 6.97925C3.47763 6.91925 4.04883 6.79205 4.41843 6.70805C4.42083 6.41285 4.37763 5.78405 3.98163 5.36405C3.45123 4.80005 3.14403 4.80005 2.47443 4.80005C1.80483 4.80005 1.42803 4.81685 1.06803 5.16005C0.708028 5.50325 0.571228 5.86325 0.571228 6.05045C0.571228 6.16565 0.571228 6.32165 0.571228 6.42485C0.890428 6.42245 1.15443 6.58565 1.38243 6.72725Z" fill="currentColor"/>
<path d="M4.788 10.8024L4.824 9.65044C4.824 9.65044 4.8432 9.30725 5.4192 8.98325C5.9952 8.65925 7.1304 7.97524 7.1304 7.97524C7.1304 7.97524 7.4376 7.79524 7.4904 7.57924C7.5456 7.36324 7.3272 6.69604 7.3272 6.69604L4.8768 7.06564C4.7496 7.09684 3.7656 7.33444 3.1608 7.42804C2.9184 7.46644 2.688 7.48564 2.472 7.48564C2.016 7.48564 1.632 7.39925 1.3392 7.23124C1.272 7.19044 1.2072 7.14964 1.1424 7.11124C0.7872 6.88804 0.5952 6.78964 0.2808 6.96724C0.2112 7.02244 0.1464 7.10404 0.0912 7.21924L0 18.2544L0.552 18.36C0.5496 18.3384 0.5448 18.3168 0.5448 18.2952C0.5448 17.6448 1.0728 17.1168 1.7232 17.1168C2.3736 17.1168 2.9016 17.6448 2.9016 18.2952C2.9016 18.3336 2.8944 18.3672 2.8896 18.3768L8.2704 18.4512L8.2968 10.8576L4.788 10.8024Z" fill="currentColor"/>
</g>
<defs>
<clipPath id="clip0_1413_2780">
<rect width="24" height="14.3736" fill="currentColor" transform="translate(0 4.80005)"/>
</clipPath>
</defs>
</svg>
