<svg width="24" height="24" viewBox="0 0 24 24" fill="currentColor" xmlns="http://www.w3.org/2000/svg">
<g clip-path="url(#clip0_1437_1963)">
<path d="M9.85195 14.2199C9.82315 13.9031 9.72715 13.6079 9.58075 13.3439C9.57355 13.3295 9.56395 13.3175 9.55675 13.3055C9.55435 13.3031 9.55435 13.3007 9.55195 13.2959C9.52315 13.2479 9.49195 13.1999 9.46075 13.1543C9.45595 13.1471 9.45115 13.1423 9.44875 13.1351C9.37915 13.0367 9.30235 12.9455 9.21835 12.8615C9.21115 12.8543 9.20395 12.8471 9.19435 12.8399C9.16075 12.8063 9.12475 12.7751 9.08875 12.7439C9.07675 12.7343 9.06715 12.7247 9.05515 12.7151C9.01675 12.6839 8.97835 12.6527 8.93755 12.6239C8.93035 12.6191 8.92315 12.6119 8.91595 12.6071C8.86795 12.5735 8.81995 12.5423 8.76955 12.5111C8.75995 12.5063 8.75035 12.4991 8.73835 12.4943C8.69755 12.4703 8.65675 12.4487 8.61595 12.4295C8.60155 12.4223 8.58475 12.4151 8.57035 12.4079C8.52955 12.3887 8.48875 12.3719 8.44795 12.3551C8.43355 12.3503 8.42155 12.3431 8.40715 12.3383C8.35195 12.3191 8.29675 12.2999 8.23915 12.2831C8.23195 12.2807 8.22235 12.2783 8.21275 12.2759C8.16475 12.2639 8.11435 12.2519 8.06635 12.2423C8.04715 12.2399 8.03035 12.2351 8.01115 12.2327C7.96795 12.2255 7.92475 12.2207 7.88155 12.2159C7.86475 12.2135 7.84555 12.2111 7.82875 12.2111C7.76875 12.2063 7.70875 12.2039 7.64635 12.2039C7.58395 12.2039 7.52395 12.2063 7.46395 12.2111C7.44475 12.2135 7.42795 12.2159 7.41115 12.2159C7.36795 12.2207 7.32475 12.2255 7.28155 12.2327C7.26235 12.2351 7.24555 12.2375 7.22635 12.2423C7.17595 12.2519 7.12795 12.2639 7.07995 12.2759C7.07275 12.2783 7.06315 12.2807 7.05355 12.2831C6.99595 12.2999 6.94075 12.3167 6.88555 12.3383C6.87115 12.3431 6.85915 12.3479 6.84475 12.3551C6.80395 12.3719 6.76315 12.3887 6.72235 12.4079C6.70555 12.4151 6.69115 12.4223 6.67675 12.4295C6.63595 12.4511 6.59275 12.4727 6.55435 12.4943C6.54475 12.4991 6.53515 12.5063 6.52315 12.5111C6.47275 12.5399 6.42475 12.5735 6.37675 12.6071C6.36955 12.6119 6.36235 12.6167 6.35515 12.6239C6.31435 12.6527 6.27595 12.6839 6.23755 12.7151C6.22555 12.7247 6.21595 12.7343 6.20395 12.7439C6.16795 12.7751 6.13195 12.8063 6.09835 12.8399C6.09115 12.8471 6.08395 12.8543 6.07435 12.8615C5.99035 12.9455 5.91355 13.0391 5.84395 13.1351C5.83915 13.1423 5.83435 13.1471 5.83195 13.1543C5.79835 13.1999 5.76955 13.2479 5.74075 13.2959C5.73835 13.2983 5.73835 13.3007 5.73595 13.3055C5.72875 13.3175 5.71915 13.3319 5.71195 13.3439C5.56555 13.6079 5.46955 13.9031 5.44075 14.2199V14.2223C5.43355 14.2895 5.43115 14.3567 5.43115 14.4263C5.43115 15.6551 6.42475 16.6559 7.64635 16.6559C8.86795 16.6559 9.86155 15.6551 9.86155 14.4263C9.86155 14.3567 9.85675 14.2895 9.85195 14.2223V14.2199ZM6.67915 14.4263C6.67915 14.4071 6.68155 14.3855 6.68155 14.3663C6.68395 14.3471 6.68395 14.3255 6.68635 14.3063C6.68875 14.2799 6.69355 14.2511 6.70075 14.2247C6.70315 14.2151 6.70555 14.2055 6.70795 14.1959C6.72235 14.1335 6.74395 14.0735 6.77035 14.0159C6.80875 13.9343 6.85675 13.8575 6.91675 13.7879L6.91915 13.7855C6.94315 13.7567 6.97195 13.7303 6.99835 13.7039C7.00795 13.6967 7.01515 13.6871 7.02475 13.6799C7.04635 13.6607 7.07035 13.6439 7.09435 13.6271C7.11115 13.6151 7.12795 13.6031 7.14715 13.5911C7.16635 13.5791 7.18315 13.5695 7.20235 13.5599C7.22875 13.5455 7.25275 13.5335 7.27915 13.5239C7.29835 13.5167 7.31755 13.5095 7.33675 13.5023C7.35835 13.4951 7.37755 13.4879 7.39915 13.4831C7.42555 13.4759 7.45435 13.4687 7.48315 13.4639C7.49755 13.4615 7.51435 13.4591 7.52875 13.4567C7.56715 13.4519 7.60795 13.4471 7.64875 13.4471C7.68955 13.4471 7.73035 13.4519 7.76875 13.4567C7.78315 13.4591 7.79995 13.4615 7.81435 13.4639C7.84315 13.4687 7.86955 13.4759 7.89835 13.4831C7.91995 13.4879 7.94155 13.4951 7.96075 13.5023C7.97995 13.5095 7.99915 13.5167 8.01835 13.5239C8.04475 13.5359 8.07115 13.5479 8.09515 13.5599C8.11435 13.5695 8.13355 13.5791 8.15035 13.5911C8.16955 13.6031 8.18635 13.6151 8.20315 13.6271C8.22715 13.6439 8.25115 13.6607 8.27275 13.6799C8.28235 13.6871 8.28955 13.6967 8.29915 13.7039C8.32795 13.7303 8.35435 13.7567 8.37835 13.7855L8.38075 13.7879C8.43835 13.8551 8.48875 13.9319 8.52715 14.0159C8.55355 14.0735 8.57515 14.1335 8.58955 14.1959C8.59195 14.2055 8.59435 14.2151 8.59675 14.2247C8.60155 14.2511 8.60635 14.2775 8.61115 14.3063C8.61355 14.3255 8.61355 14.3447 8.61595 14.3663C8.61835 14.3855 8.61835 14.4047 8.61835 14.4263C8.61835 14.9663 8.18155 15.4007 7.64875 15.4007C7.11595 15.4007 6.67915 14.9663 6.67915 14.4263Z" fill="currentColor"/>
<path d="M23.7769 13.7759C23.4745 13.2359 22.9009 12.8711 22.2409 12.8711C21.3817 12.8711 20.6641 13.4927 20.5129 14.3135C20.4937 14.4191 20.4817 14.5271 20.4817 14.6375C20.4817 15.6143 21.2713 16.4087 22.2409 16.4087C23.2105 16.4087 24.0001 15.6143 24.0001 14.6375C24.0001 14.3231 23.9185 14.0303 23.7769 13.7759ZM22.2409 15.4103C21.8185 15.4103 21.4705 15.0647 21.4705 14.6351C21.4705 14.5199 21.4969 14.4119 21.5425 14.3111C21.6649 14.0471 21.9313 13.8599 22.2409 13.8599C22.3369 13.8599 22.4305 13.8791 22.5169 13.9127C22.8049 14.0231 23.0113 14.3015 23.0113 14.6351C23.0113 15.0647 22.6657 15.4103 22.2409 15.4103Z" fill="currentColor"/>
<path d="M18.4128 9.54722L18.5088 9.74882L18.6648 9.66002L18.5112 9.48242L18.4128 9.54722Z" fill="currentColor"/>
<path d="M18.144 9.5784C18.156 9.5952 18.1728 9.6048 18.192 9.6048C18.2016 9.6048 18.2136 9.6024 18.2232 9.5952L18.5952 9.3504C18.6216 9.3336 18.6288 9.2976 18.612 9.2712C18.5952 9.2448 18.5592 9.2376 18.5328 9.2544L18.1608 9.4992C18.1344 9.516 18.1272 9.552 18.144 9.5784Z" fill="currentColor"/>
<path d="M14.6665 12.3C14.6665 12.3 15.3361 12.0432 15.4465 10.116C15.5569 8.18879 14.9209 7.88159 14.9209 7.88159L14.6785 7.86719L14.4241 12.2856L14.6665 12.3Z" fill="currentColor"/>
<path d="M14.1889 13.0391L14.4793 7.85265L6.74888 7.42065L6.46568 11.8727C5.70008 12.2183 5.11688 12.8951 4.90088 13.7207H5.09528C5.40728 12.6215 6.42008 11.8127 7.62008 11.8127C8.82008 11.8127 9.83288 12.6215 10.1449 13.7207H10.1689V14.1071H12.0625V15.4679H13.1737V12.9815L14.1889 13.0391ZM12.0601 13.2455H10.1665V13.2503C10.0921 13.0919 10.0033 12.9407 9.90008 12.7991L12.0601 12.9191V13.2455Z" fill="currentColor"/>
<path d="M23.2608 12.4847V11.7575C23.2608 11.6111 23.1552 11.4863 23.0112 11.4623L19.512 10.8695L20.2608 7.63433H20.6424V7.25513H16.2672V7.63433H16.596V10.8695H15.6432V11.3999C15.2928 11.5655 15.0456 11.9639 15.06 12.3575C15.072 12.7127 15.0672 12.8927 15.06 12.9815C15.0408 13.2479 14.9832 13.3967 14.8368 13.5551C14.7048 13.6967 14.4528 13.9367 14.4024 13.9847H13.704V13.9871C13.5096 14.0015 13.3584 14.1623 13.3584 14.3591V14.8751C13.3584 15.0815 13.5264 15.2495 13.7328 15.2495C13.9392 15.2495 14.1072 15.0815 14.1072 14.8751V14.4479H16.2048L16.1448 14.5727V15.3023H19.356H19.7952H19.836L20.7384 12.4871H23.2608V12.4847ZM19.1352 11.5583L19.0176 10.4567L19.6704 7.63433H20.0424L19.1352 11.5583ZM19.4544 7.63433L18.9264 9.91673L18.8112 9.68633L18.3768 9.95513L16.9248 9.95993V7.63433H19.4544ZM15.1656 13.8575C15.3816 13.6247 15.48 13.3799 15.5064 13.0127C15.516 12.8687 15.516 12.6431 15.5064 12.3431C15.5016 12.2111 15.5568 12.0719 15.6432 11.9639V13.9823H15.048C15.0912 13.9367 15.132 13.8935 15.1656 13.8575Z" fill="currentColor"/>
<path d="M4.392 15.2111H4.3848L4.3896 15.2087L3.324 14.1431V11.6303H3.0432V13.7159H2.5992C2.8944 13.0247 2.6664 11.8031 2.5416 11.1263C2.508 10.9391 2.4768 10.7783 2.4768 10.7231H2.2488C2.2488 10.7999 2.2752 10.9463 2.316 11.1671C2.4432 11.8535 2.6784 13.1255 2.3424 13.7159H2.1264C2.3472 13.0679 2.2176 11.7095 2.1528 11.0375C2.1384 10.8887 2.1264 10.7711 2.1264 10.7303H1.9008C1.9008 10.7807 1.9104 10.8911 1.9272 11.0591C1.9872 11.6903 2.1312 13.1663 1.884 13.7159H1.6584C1.944 12.8543 1.8432 11.4575 1.8048 10.9127C1.7976 10.8239 1.7928 10.7639 1.7928 10.7375H1.5696C1.5696 10.7663 1.5744 10.8335 1.5816 10.9295C1.6176 11.4263 1.7232 12.9119 1.4208 13.7183H1.0512C1.56 12.5663 1.4592 11.4839 1.4112 10.9535C1.4016 10.8551 1.3944 10.7783 1.3944 10.7303H1.1712C1.1712 10.7879 1.1784 10.8695 1.188 10.9727C1.236 11.4983 1.3368 12.5855 0.8064 13.7183H0.636C0.7608 13.2767 0.9384 12.6071 0.9912 12.3431C1.0512 12.0383 1.0512 11.4239 1.0512 10.8791V10.7303H0.8256V10.8791C0.8256 11.4119 0.8256 12.0167 0.7704 12.2975C0.72 12.5519 0.5256 13.2839 0.4032 13.7159H0.3024C0.2232 13.0631 0.4392 11.9399 0.5664 11.2655C0.624 10.9583 0.6552 10.7927 0.6576 10.7135L0.4344 10.7087C0.432 10.7735 0.3936 10.9823 0.348 11.2223C0.2184 11.8991 0.0048 13.0247 0.0792 13.7135H0V13.9319H0.1032C0.1176 14.0111 0.1536 14.1143 0.2208 14.2343C0.1296 14.4791 0.0504 14.8415 0.3576 15.0647C0.6048 15.2447 0.888 15.2111 1.2216 14.9591C1.5384 14.7215 1.7784 14.5727 1.9896 14.8007C2.1024 14.9231 2.0832 15.0167 2.0664 15.1079C2.0592 15.1415 2.0544 15.1703 2.0544 15.2039H2.2776C2.2776 15.1895 2.2824 15.1727 2.2848 15.1535C2.3064 15.0479 2.3448 14.8535 2.1528 14.6495C2.0712 14.5631 1.9872 14.5127 1.9032 14.4863L1.9608 13.9343H2.5704L3.8016 15.2447V15.3479H1.9752V15.7943H2.496C2.46 15.8519 2.4312 15.9191 2.4192 15.9887C2.412 16.0223 2.4096 16.0559 2.4096 16.0919C2.4096 16.4039 2.6616 16.6559 2.9712 16.6559C3.2808 16.6559 3.5328 16.4039 3.5328 16.0919C3.5328 15.9911 3.5064 15.8999 3.4608 15.8183C3.456 15.8111 3.4512 15.8039 3.4464 15.7943H3.804V16.0295H4.3944V15.7943H4.7688V15.3479H4.392V15.2111ZM2.9688 16.3391C2.8344 16.3391 2.724 16.2287 2.724 16.0919C2.724 16.0559 2.7312 16.0199 2.748 15.9887C2.7864 15.9047 2.8728 15.8447 2.9712 15.8447C3.0024 15.8447 3.0312 15.8519 3.06 15.8615C3.1512 15.8975 3.2184 15.9863 3.2184 16.0919C3.216 16.2287 3.1056 16.3391 2.9688 16.3391ZM0.3384 13.9343C0.3384 13.9367 0.336 13.9391 0.336 13.9415C0.336 13.9391 0.3336 13.9367 0.3336 13.9343H0.3384ZM0.4872 14.8871C0.2808 14.7359 0.3648 14.4551 0.4896 14.1743C0.4992 14.1503 0.5088 14.1287 0.516 14.1119C0.528 14.0831 0.5472 14.0207 0.5736 13.9343H0.7032C0.5712 14.2199 0.4752 14.4839 0.5952 14.6903C0.6504 14.7887 0.7488 14.8583 0.8904 14.9039C0.6936 14.9975 0.5784 14.9519 0.4872 14.8871ZM1.1568 14.7287C0.9576 14.7071 0.8328 14.6567 0.7872 14.5775C0.7128 14.4479 0.8256 14.1911 0.9504 13.9343H1.3152C1.224 14.0855 1.1208 14.2559 1.176 14.4311C1.2 14.5031 1.2456 14.5655 1.3152 14.6183C1.26 14.6543 1.2072 14.6927 1.1568 14.7287ZM1.86 14.4743C1.7568 14.4527 1.6536 14.4671 1.5552 14.5007C1.488 14.4695 1.4088 14.4239 1.392 14.3639C1.3656 14.2847 1.44 14.1647 1.5096 14.0495C1.5312 14.0111 1.5552 13.9727 1.5768 13.9343H1.9224C1.8624 14.0615 1.812 14.2655 1.86 14.4743Z" fill="currentColor"/>
<path d="M2.64732 8.71431C2.75772 8.55591 2.86332 8.40471 2.97132 8.27271L2.99532 8.24391C3.27852 7.90071 3.66492 7.43031 4.27212 7.55751C4.77132 7.66311 4.91052 7.97991 4.89852 8.45751H4.15932V8.59911H4.89132C4.87452 8.81511 4.83372 9.05511 4.78332 9.32391C4.70652 9.73191 4.75692 10.0487 4.93932 10.2671C5.10012 10.4615 5.32572 10.5335 5.52492 10.5575C5.64012 11.6135 6.04332 11.8223 6.04332 11.8223L6.28572 11.8343L6.51132 7.41591L6.26892 7.40391C6.26892 7.40391 5.88252 7.54071 5.65452 8.45991H5.23932C5.24892 7.89831 5.07612 7.38711 4.34652 7.23111C3.53772 7.05831 3.03852 7.66791 2.73852 8.03271L2.71452 8.06151C2.59692 8.20311 2.48892 8.35911 2.37372 8.52471C2.19372 8.77911 2.00652 9.04311 1.76172 9.30231L2.00412 9.53511C2.26812 9.25671 2.46972 8.96871 2.64732 8.71431ZM5.62092 8.59911C5.56572 8.86071 5.52252 9.17991 5.50332 9.56631C5.49132 9.80631 5.49132 10.0223 5.49852 10.2143C5.38812 10.1927 5.27532 10.1471 5.19852 10.0535C5.08572 9.91671 5.05692 9.69351 5.11452 9.38871C5.16252 9.14391 5.21292 8.87031 5.23212 8.60151H5.62092V8.59911Z" fill="currentColor"/>
<path d="M2.472 10.1903H1.5864C1.5864 10.1255 1.5888 10.0463 1.5912 9.9791C1.5936 9.9167 1.6152 9.8903 1.8048 9.7223L1.5768 9.4751C1.3824 9.6479 1.2648 9.7535 1.2552 9.9671C1.2528 10.0391 1.2504 10.1255 1.2504 10.1927H0.4104V10.5551H2.472V10.1903Z" fill="currentColor"/>
</g>
<defs>
<clipPath id="clip0_1437_1963">
<rect width="24" height="9.456" fill="currentColor" transform="translate(0 7.19995)"/>
</clipPath>
</defs>
</svg>
