<svg width="24" height="24" viewBox="0 0 24 24" fill="currentColor" xmlns="http://www.w3.org/2000/svg">
<g clip-path="url(#clip0_1432_1029)">
<path d="M0 12.6864C0 13.3488 0.5328 13.884 1.1928 13.884C1.8504 13.884 2.3856 13.3488 2.3856 12.6864C2.3856 12.588 2.3736 12.492 2.3496 12.3984C2.4936 12.3264 2.604 12.2688 2.6568 12.2448C2.8656 12.1488 3.0816 11.9304 3.0816 11.6496C3.0816 11.5128 3.0144 11.4216 2.8536 11.4216C2.8008 11.4216 2.7432 11.4288 2.6832 11.4432V10.9944H8.0808C8.076 10.776 8.0712 10.5744 8.0712 10.488C8.0712 10.3392 8.136 10.0896 8.5704 10.0896C8.8944 10.0896 9.7704 10.332 10.6752 10.7376C11.436 11.0808 11.9712 11.3544 12.3528 11.5608L12.3888 11.3952L14.6904 11.9568L13.4832 12.2592C13.3512 12.1848 12.8064 11.976 12.6696 11.8992C12.2736 11.6784 11.6784 11.3472 10.6176 10.8696C9.744 10.476 8.8752 10.2336 8.5728 10.2336C8.256 10.2336 8.22 10.3776 8.22 10.4856C8.22 10.7064 8.3016 14.6976 8.3016 14.6976C8.316 14.9064 8.316 15.1224 8.6496 15.2088C8.9832 15.2928 15.3768 17.3304 15.9816 17.5152C16.5864 17.7 17.5608 17.856 18.3192 17.856C18.6936 17.856 19.224 17.7336 19.7544 17.544C19.92 17.5056 20.6544 17.3256 21.8616 16.9728C23.1192 16.6056 23.2728 15.8232 23.3472 15.4488C23.3568 15.3984 23.3664 15.3552 23.376 15.3192L24.0048 12.264C24.012 12.2256 23.988 12.1872 23.9496 12.1776C23.9112 12.1704 23.8728 12.1944 23.8632 12.2328L23.2296 15.288C23.22 15.324 23.2104 15.3696 23.2008 15.4224C23.1264 15.7968 22.992 16.4928 21.8184 16.836C21.3384 16.9752 20.9328 17.088 20.6064 17.1768C20.8344 17.0592 21.0456 16.9344 21.2184 16.8048L17.1264 14.6136C17.1912 14.6328 17.2584 14.6448 17.328 14.652L19.104 14.9208C19.5288 15.0168 19.9728 14.8296 20.2248 14.448L20.952 13.488L22.1136 13.7712L22.2288 13.3032L21.2688 13.068L21.36 12.948C21.6576 12.6024 21.732 12.108 21.552 11.6904L20.9112 9.9216C20.784 9.4824 20.4168 9.1728 19.9824 9.1368L18.2064 8.868C17.7816 8.772 17.3376 8.9592 17.0856 9.3408L15.948 10.8408C15.7416 11.0808 15.6432 11.3928 15.6624 11.7024L12.4896 10.9272L12.6192 10.3344L12.9456 7.224C12.9984 6.9624 13.2192 6.468 13.62 6.3792V6.1968L13.1856 6C13.1856 6 10.128 6 9.8904 6C9.6528 6 9.4992 6.1104 9.4584 6.2904C9.4176 6.4704 9.0384 8.0712 9.0384 8.0712C8.2704 8.0544 7.3248 8.0688 6.2088 8.2416C5.1312 8.4096 4.1856 8.7672 4.044 8.8776C3.9264 9.012 3.7344 9.4272 3.7344 9.8016C3.6168 10.0056 3.7128 10.32 3.7512 10.3944H2.2608V10.992H2.4744V11.5104C2.3136 11.5752 2.1432 11.6736 1.9728 11.7816C1.764 11.5992 1.4904 11.4864 1.1904 11.4864C0.5328 11.4888 0 12.0264 0 12.6864ZM20.6856 12.9288C20.844 12.6192 20.9328 12.2664 20.9328 11.8944C20.9328 10.6344 19.9128 9.6144 18.6528 9.6144C17.4 9.6144 16.3824 10.6248 16.3728 11.8752L16.1544 11.8224C16.1928 10.476 17.2968 9.3936 18.6528 9.3936C20.0352 9.3936 21.1536 10.5144 21.1536 11.8944C21.1536 12.2856 21.0648 12.6528 20.904 12.9816L20.6856 12.9288ZM17.8776 12.7392C17.8584 12.828 17.8056 13.068 17.784 13.1544C17.76 13.2552 17.7192 13.284 17.6472 13.3248C17.4072 13.464 17.04 13.0752 16.932 12.8856C16.8792 12.7944 16.8192 12.6336 16.7952 12.4728L17.8776 12.7392ZM16.9656 12.0192C17.0112 12 17.0568 11.9928 17.1288 12.0144C17.2272 12.0456 17.532 12.1416 17.5656 12.1512C17.5776 12.1536 17.5968 12.1632 17.6232 12.18L16.9656 12.0192ZM16.9344 10.9008C17.0448 10.7112 17.4096 10.3224 17.6496 10.4616C17.7192 10.5024 17.7624 10.5312 17.7864 10.632C17.8104 10.7328 17.8776 11.0448 17.8872 11.0784C17.8968 11.1192 17.8968 11.3304 17.8416 11.424C17.7888 11.5176 17.6064 11.6232 17.5656 11.6352C17.532 11.6448 17.2272 11.7408 17.1288 11.772C17.0304 11.8032 16.9824 11.7792 16.9128 11.7408C16.6728 11.6016 16.824 11.0904 16.9344 10.9008ZM19.0344 13.02C19.116 13.0944 19.2576 13.224 19.3128 13.2744C19.3896 13.344 19.392 13.3968 19.392 13.4784C19.392 13.7568 18.8736 13.8792 18.6552 13.8792C18.4368 13.8792 17.9184 13.7568 17.9184 13.4784C17.9184 13.3968 17.9232 13.3464 17.9976 13.2744C18.0744 13.2048 18.3096 12.9888 18.3336 12.9648C18.3504 12.9504 18.408 12.9144 18.4728 12.8832L19.0344 13.02ZM18.6528 12.1032C18.5376 12.1032 18.444 12.0096 18.444 11.8944C18.444 11.7792 18.5376 11.6856 18.6528 11.6856C18.768 11.6856 18.8616 11.7792 18.8616 11.8944C18.8616 12.0096 18.768 12.1032 18.6528 12.1032ZM17.916 10.308C17.916 10.0296 18.4344 9.9072 18.6528 9.9072C18.8712 9.9072 19.3896 10.0296 19.3896 10.308C19.3896 10.3896 19.3848 10.44 19.3104 10.512C19.2336 10.5816 18.9984 10.7976 18.9744 10.8216C18.9432 10.8504 18.7608 10.956 18.6528 10.956C18.5448 10.956 18.3624 10.8528 18.3312 10.8216C18.3048 10.7976 18.0696 10.5816 17.9952 10.512C17.9208 10.44 17.916 10.3896 17.916 10.308ZM19.416 12.6168C19.4184 12.5352 19.4304 12.4224 19.4664 12.3624C19.5192 12.2688 19.7016 12.1632 19.7424 12.1512C19.776 12.1416 20.0808 12.0456 20.1792 12.0144C20.2776 11.9832 20.3256 12.0072 20.3952 12.0456C20.6232 12.1776 20.4984 12.6456 20.3904 12.8544L19.416 12.6168ZM20.0184 13.2624C19.896 13.344 19.764 13.3872 19.656 13.3248C19.5864 13.284 19.5432 13.2552 19.5192 13.1544C19.5192 13.1496 19.5168 13.1448 19.5168 13.14L20.0184 13.2624ZM19.4208 11.0808C19.4304 11.0472 19.4976 10.7352 19.5216 10.6344C19.5456 10.5336 19.5864 10.5048 19.6584 10.464C19.8984 10.3248 20.2656 10.7136 20.3736 10.9032C20.484 11.0928 20.6352 11.604 20.3952 11.7432C20.3256 11.784 20.2776 11.8056 20.1792 11.7744C20.0808 11.7432 19.776 11.6472 19.7424 11.6376C19.7016 11.6256 19.5192 11.52 19.4664 11.4264C19.4136 11.3328 19.4112 11.1216 19.4208 11.0808ZM16.1904 12.3264L16.4256 12.384C16.6488 13.4088 17.5608 14.1744 18.6528 14.1744C19.356 14.1744 19.9848 13.8552 20.4024 13.356L20.64 13.4136C20.184 14.0112 19.464 14.3952 18.6528 14.3952C17.4192 14.3952 16.3968 13.5 16.1904 12.3264ZM15.2904 12.1056L15.804 12.2304L16.3944 13.8648C16.4592 14.0856 16.5816 14.2728 16.7448 14.4096L15.1152 13.5384C14.6424 13.284 14.6208 12.8568 14.0616 12.5784C14.0136 12.5544 13.9416 12.516 13.848 12.4656L15.2904 12.1056ZM10.4328 6.216H13.2816C12.8568 6.5832 12.8352 6.708 12.6912 7.3344L12.432 9.492L10.4352 8.6592V6.216H10.4328ZM9.3984 8.2224C9.3984 8.2224 9.6672 7.0272 9.7656 6.7392C9.8544 6.4776 10.0776 6.2688 10.2984 6.2184V8.604L9.3984 8.2224ZM0.6408 12.6864C0.6408 12.3792 0.888 12.1296 1.1928 12.1296C1.272 12.1296 1.3464 12.1464 1.416 12.1776C1.1328 12.3912 0.9144 12.5664 0.8616 12.5616L0.996 12.9936C1.1136 12.9888 1.4232 12.8544 1.7448 12.7008C1.7376 13.0008 1.4928 13.2408 1.1928 13.2408C0.8856 13.2408 0.6408 12.9936 0.6408 12.6864Z" fill="currentColor"/>
</g>
<defs>
<clipPath id="clip0_1432_1029">
<rect width="24" height="11.8584" fill="currentColor" transform="translate(0 6)"/>
</clipPath>
</defs>
</svg>
