<svg width="24" height="24" viewBox="0 0 24 24" fill="currentColor" xmlns="http://www.w3.org/2000/svg">
<g clip-path="url(#clip0_1437_1968)">
<path d="M16.2504 11.7048C14.9256 11.7048 13.824 12.6624 13.5888 13.9248C13.56 14.0856 13.5408 14.2536 13.5408 14.4216C13.5408 15.924 14.7576 17.148 16.2504 17.148C17.7456 17.148 18.96 15.924 18.96 14.4216C18.96 13.9392 18.8328 13.4904 18.6144 13.0968C18.1512 12.2664 17.2656 11.7048 16.2504 11.7048ZM16.2504 15.6144C15.6 15.6144 15.0648 15.0816 15.0648 14.4216C15.0648 14.244 15.1056 14.076 15.1752 13.9248C15.3624 13.5168 15.7728 13.2312 16.248 13.2312C16.3968 13.2312 16.5384 13.2624 16.6728 13.3104C17.1168 13.4808 17.436 13.9104 17.436 14.4216C17.4384 15.0816 16.9056 15.6144 16.2504 15.6144Z" fill="currentColor"/>
<path d="M5.99988 11.7048C4.67508 11.7048 3.57108 12.6456 3.33828 13.884C3.30948 14.0424 3.29028 14.2056 3.29028 14.3712C3.29028 15.8472 4.50708 17.0472 5.99988 17.0472C7.49508 17.0472 8.70948 15.8472 8.70948 14.3712C8.70948 13.8984 8.58228 13.4568 8.36388 13.0704C7.89828 12.2568 7.01508 11.7048 5.99988 11.7048ZM5.99988 15.5424C5.34948 15.5424 4.81428 15.0192 4.81428 14.3712C4.81428 14.196 4.85508 14.0328 4.92468 13.884C5.11188 13.4832 5.52228 13.2048 5.99748 13.2048C6.14628 13.2048 6.28788 13.236 6.42228 13.284C6.86628 13.452 7.18548 13.872 7.18548 14.3736C7.18548 15.0192 6.65268 15.5424 5.99988 15.5424Z" fill="currentColor"/>
<path d="M24 9.24237V8.70717H19.416H19.056H18.8784V10.3152H18.06V10.2984C18.06 9.66237 17.544 9.14397 16.9056 9.14397H15.6144C14.9784 9.14397 14.46 9.65997 14.46 10.2984V10.3152H14.0784V11.232L13.3008 12.0552H8.2536V12.0816C8.1072 11.9424 7.9488 11.82 7.7808 11.712H13.0224L13.7136 11.0064V8.91597L21.5352 8.54637L21.5208 8.22237L23.2608 8.14077L23.2392 7.67517L22.7976 7.69677L22.08 7.12317L23.2584 7.06797L23.244 6.71997L0.0048 7.81677L0.0216 8.16477L1.344 8.10237L1.3728 8.70717L0 8.77197L0.0216 9.23757L0.9096 9.19677L0.9216 9.43197H0.9192L0.936 9.78717L0.1344 9.82557L0.156 10.2912L0.1944 10.2888L1.6464 10.7376L6.8112 10.4928V11.2848C6.5472 11.2176 6.276 11.1792 5.9976 11.1792C4.7472 11.1792 3.6408 11.8848 3.1032 12.9408V12.084H2.5536V12.2256H2.34V12.924H2.5536V13.164H2.34V13.6128H2.5536V13.7352H2.8248C2.82 13.7544 2.8152 13.7712 2.8128 13.7904C2.7744 13.9992 2.7552 14.1888 2.7552 14.376C2.7552 14.556 2.772 14.7312 2.8008 14.9016H3.0072C2.976 14.7312 2.9592 14.556 2.9592 14.376C2.9592 14.2032 2.976 14.0232 3.012 13.8288C3.2808 12.4128 4.536 11.3832 6 11.3832C7.0968 11.3832 8.1144 11.9712 8.6544 12.9168C8.8584 13.2744 8.9808 13.656 9.024 14.0544H9.1968H9.228H13.0368C13.0344 14.0664 13.032 14.0784 13.032 14.0904C13.0224 14.1864 13.0176 14.2824 13.0176 14.3736C13.0176 14.5536 13.0344 14.7288 13.0632 14.8992H13.2696C13.2384 14.7288 13.2216 14.5536 13.2216 14.3736C13.2216 14.2008 13.2384 14.0208 13.2744 13.8264C13.3008 13.6896 13.3368 13.56 13.38 13.4304C13.3872 13.4088 13.3944 13.3872 13.4016 13.3656C13.4472 13.2432 13.4976 13.1256 13.5576 13.0104C13.5672 12.9912 13.5792 12.972 13.5888 12.9528C13.6536 12.8352 13.7232 12.7224 13.8024 12.6168L13.8048 12.6144C13.8864 12.5064 13.9752 12.4032 14.0688 12.3072C14.0784 12.2976 14.088 12.2856 14.1 12.2736C14.1624 12.2112 14.2272 12.1512 14.2944 12.096C14.2992 12.0912 14.304 12.0888 14.3088 12.084C14.3832 12.0216 14.4624 11.9616 14.544 11.9088C14.5464 11.9064 14.5488 11.9064 14.5536 11.904C14.628 11.8536 14.7048 11.808 14.784 11.7648C14.8056 11.7528 14.8296 11.7408 14.8536 11.7288C14.9136 11.6976 14.9736 11.6688 15.036 11.64C15.0648 11.628 15.096 11.616 15.1272 11.604C15.1848 11.58 15.2424 11.5584 15.3024 11.5392C15.336 11.5272 15.3696 11.5176 15.4032 11.508C15.4632 11.4912 15.5232 11.4768 15.5832 11.4624C15.6168 11.4552 15.6504 11.4456 15.6864 11.4408C15.7512 11.4288 15.816 11.4192 15.8832 11.4096C15.9144 11.4048 15.9432 11.4 15.9744 11.3976C16.0704 11.388 16.1688 11.3832 16.2696 11.3832C16.68 11.3832 17.0808 11.4648 17.4504 11.6184C17.8176 11.772 18.1536 11.9952 18.4368 12.2784C18.6264 12.4656 18.7896 12.6816 18.924 12.9168C18.9696 12.9984 19.0104 13.08 19.0488 13.164C19.0608 13.1928 19.0728 13.2216 19.0848 13.2528C19.1064 13.308 19.128 13.3608 19.1472 13.416C19.1592 13.452 19.1712 13.488 19.1832 13.524C19.1976 13.5744 19.212 13.6248 19.224 13.6776C19.2336 13.716 19.2432 13.752 19.2504 13.7904C19.2672 13.8768 19.284 13.9656 19.2936 14.0544H19.4976C19.488 13.9704 19.476 13.8864 19.4616 13.8048H22.4616V13.1568H22.4472L23.6688 9.24717H24V9.24237ZM16.6272 7.98717L15.2232 8.05437L15.9672 7.45917L16.6272 7.98717ZM18.6168 7.89357L17.2656 7.95837L17.9808 7.38717L18.6168 7.89357ZM20.4864 7.80477L19.1832 7.86717L19.8744 7.31517L20.4864 7.80477ZM20.0808 7.21677L21.588 7.14477L20.7888 7.78317L20.0808 7.21677ZM18.8832 7.84317L18.2112 7.30557L19.6368 7.23837L18.8832 7.84317ZM16.9272 7.96317L16.2216 7.39917L17.7216 7.32717L16.9272 7.96317ZM14.9136 8.03757L14.2344 7.49277L15.6792 7.42557L14.9136 8.03757ZM14.64 8.08077L13.164 8.15037L13.944 7.52637L14.64 8.08077ZM12.8592 8.16477L12.7512 8.16957L12.036 7.59597L13.6224 7.52157L12.8448 8.14317L12.8592 8.16477ZM10.368 8.28237L9.0312 8.34477L9.7392 7.77837L10.368 8.28237ZM12.4416 8.18397L11.1408 8.24637L11.8296 7.69437L12.4416 8.18397ZM10.7904 8.26077L10.68 8.26797L9.9648 7.69437L11.5968 7.61757L10.7904 8.26077ZM8.6832 8.36157L8.64 8.36397L7.9248 7.79037L9.4896 7.71597L8.6832 8.36157ZM8.3304 8.37837L7.0392 8.43837L7.7232 7.89117L8.3304 8.37837ZM21.132 7.77357L21.8496 7.19997L22.4856 7.70877L21.132 7.77357ZM3.5232 7.99917L7.4952 7.81197L6.6888 8.45517L3.552 8.60397L3.5232 7.99917ZM19.416 11.2608V9.24237H19.9872V12.5376L19.416 11.2608ZM22.2216 13.1496L20.2488 13.1232L20.1912 12.996V9.24237H23.4432L22.2216 13.1496Z" fill="currentColor"/>
</g>
<defs>
<clipPath id="clip0_1437_1968">
<rect width="24" height="10.428" fill="currentColor" transform="translate(0 6.71997)"/>
</clipPath>
</defs>
</svg>
