<svg width="24" height="24" viewBox="0 0 24 24" fill="currentColor" xmlns="http://www.w3.org/2000/svg">
<g clip-path="url(#clip0_1413_2538)">
<path d="M3.96481 23.016C3.96481 23.5584 4.40161 24 4.94161 24C5.37841 24 5.74321 23.7096 5.87041 23.3112C5.89921 23.2176 5.92081 23.1192 5.92081 23.016C5.92081 22.4736 5.48161 22.0344 4.94161 22.0344C4.83361 22.0344 4.72801 22.056 4.63201 22.0896C4.24321 22.2192 3.96481 22.5816 3.96481 23.016ZM4.48801 23.016C4.48801 22.764 4.69201 22.56 4.94161 22.56C5.19121 22.56 5.39521 22.764 5.39521 23.016C5.39521 23.268 5.19121 23.4696 4.94161 23.4696C4.69201 23.4696 4.48801 23.268 4.48801 23.016Z" fill="currentColor"/>
<path d="M7.85762 20.5703V13.5671H6.32162C6.11522 13.5671 5.94962 13.7351 5.94962 13.9391V20.5703H7.85762Z" fill="currentColor"/>
<path d="M12.6384 20.1265C12.4704 20.1265 12.336 19.9921 12.336 19.8241V14.6377H11.6688V20.1265V20.4937L11.6736 20.4985C11.6712 20.5105 11.6688 20.5249 11.6688 20.5393C11.6688 20.6785 11.7816 20.7937 11.9208 20.7937H20.9112L22.4208 20.5945V20.1289H12.6384V20.1265Z" fill="currentColor"/>
<path d="M19.9176 22.584H10.0224L10.02 19.716H10.8168V13.5624H10.0176L10.008 0H8.44322V0.4824H7.61042V1.8144H8.44322L8.44562 6.3456H6.89762C6.73442 6.3408 5.88482 6.3864 5.72402 7.6344C5.59682 8.6208 5.53442 9.12 5.53442 9.4344C5.53442 9.6888 5.58242 10.1592 5.90162 10.4688C6.08642 10.6464 6.32642 10.7376 6.60962 10.7376H6.66002C7.13762 10.7208 7.96562 10.7256 8.44802 10.7328L8.45522 21.0888H4.99442V19.164L5.05202 19.1112L3.70562 13.4784C4.25762 13.2648 4.22402 11.976 4.11842 11.4984C4.07522 11.304 4.01762 11.1048 3.83282 10.9968C3.59522 10.8576 3.29762 10.9392 2.64482 11.1336C2.33522 11.2272 1.38962 11.5104 1.57442 12.2472C1.70162 12.7584 2.30882 13.3464 2.76722 13.5288C2.95682 13.6056 3.08162 13.6392 3.19922 13.6344L4.57922 19.428L4.33202 19.6344V21.0936H4.04402L4.04162 21.7344H6.46802L7.90562 23.3016H17.9184C17.904 23.3496 17.8968 23.4 17.8968 23.4528C17.8968 23.7528 18.1368 23.9952 18.4344 23.9952C18.6744 23.9952 18.876 23.8344 18.9456 23.616C18.9624 23.5632 18.972 23.5104 18.972 23.4528C18.972 23.4 18.9624 23.3496 18.948 23.3016H19.5984L19.9176 22.584ZM3.53282 13.0344C3.46802 13.0608 3.41282 13.0824 3.36482 13.104C3.18962 13.1808 3.17762 13.1856 2.94242 13.0896C2.61602 12.96 2.12402 12.4848 2.03522 12.1368C1.98722 11.94 2.23682 11.7576 2.78402 11.5944C3.06242 11.5104 3.40562 11.4072 3.55202 11.4072C3.57842 11.4072 3.58802 11.4096 3.58802 11.4096C3.59282 11.4144 3.61682 11.448 3.65282 11.604C3.77762 12.1704 3.64322 12.9912 3.53282 13.0344ZM6.64082 10.1016C6.50642 10.1064 6.41042 10.0752 6.34322 10.0104C6.21602 9.8856 6.16802 9.6312 6.16802 9.432C6.16802 9.1464 6.23762 8.592 6.35282 7.7136C6.44882 6.972 6.82802 6.9744 6.87602 6.9768H8.44802L8.45042 10.0944C7.96322 10.0896 7.14002 10.0824 6.64082 10.1016ZM18.6816 23.4576C18.6816 23.5968 18.5688 23.7072 18.432 23.7072C18.2952 23.7072 18.1824 23.5944 18.1824 23.4576C18.1824 23.4 18.204 23.3496 18.2376 23.3064H18.6264C18.66 23.3496 18.6816 23.4 18.6816 23.4576Z" fill="currentColor"/>
</g>
<defs>
<clipPath id="clip0_1413_2538">
<rect width="20.8752" height="24" fill="currentColor" transform="translate(1.55042)"/>
</clipPath>
</defs>
</svg>
