<svg width="24" height="24" viewBox="0 0 24 24" fill="currentColor" xmlns="http://www.w3.org/2000/svg">
<g clip-path="url(#clip0_1413_1506)">
<path d="M18.876 18.2952C18.876 19.2912 19.6776 20.1 20.6688 20.1C21.468 20.1 22.1376 19.5672 22.3704 18.84C22.4256 18.6672 22.4616 18.4872 22.4616 18.2976C22.4616 17.3016 21.6576 16.4976 20.6688 16.4976C20.4696 16.4976 20.28 16.5384 20.1 16.5984C19.3896 16.836 18.876 17.5008 18.876 18.2952ZM19.8384 18.2952C19.8384 17.832 20.2104 17.46 20.6688 17.46C21.1272 17.46 21.4992 17.832 21.4992 18.2952C21.4992 18.756 21.1272 19.128 20.6688 19.128C20.2104 19.128 19.8384 18.756 19.8384 18.2952Z" fill="currentColor"/>
<path d="M4.05359 18.2952C4.05359 19.2912 4.85519 20.1 5.84639 20.1C6.64559 20.1 7.31519 19.5672 7.54799 18.84C7.60319 18.6672 7.63919 18.4872 7.63919 18.2976C7.63919 17.3016 6.83519 16.4976 5.84639 16.4976C5.64719 16.4976 5.45759 16.5384 5.27759 16.5984C4.56719 16.836 4.05359 17.5008 4.05359 18.2952ZM5.01599 18.2952C5.01599 17.832 5.38799 17.46 5.84639 17.46C6.30479 17.46 6.67679 17.832 6.67679 18.2952C6.67679 18.756 6.30479 19.128 5.84639 19.128C5.38799 19.128 5.01599 18.756 5.01599 18.2952Z" fill="currentColor"/>
<path d="M5.97604 8.97595H4.91284V15.2616H5.97604V8.97595Z" fill="currentColor"/>
<path d="M7.28158 12.912L6.21838 12.3864V14.8512H6.41998V15.2616H7.01998V14.8512H7.28158V12.912Z" fill="currentColor"/>
<path d="M21.8112 7.66557L20.8032 7.38477H17.5032V15.2568H22.5216L22.8936 13.7832L21.8112 7.66557ZM22.26 13.4184L21.816 12.3792L22.0776 12.2688L21.8688 11.7792L21.2952 12.024L21.0864 11.5368L21.3984 11.4C21.4488 11.3784 21.4704 11.3208 21.4488 11.2704C21.4272 11.22 21.3696 11.1984 21.3192 11.22L20.3736 11.6328C20.3232 11.6544 20.3016 11.712 20.3232 11.7624C20.34 11.7984 20.376 11.8224 20.4144 11.8224C20.4264 11.8224 20.4408 11.82 20.4528 11.8152L20.8656 11.6352L21.072 12.12L20.8584 12.2112L21.06 12.6816L21.2856 13.212L20.3256 13.008C20.304 12.792 20.2368 12.6408 20.0256 12.6408C19.716 12.6408 19.2384 12.6408 19.2384 12.6408C19.1856 11.868 18.5736 11.0064 18.3048 11.0064C18.1248 11.0064 17.9856 11.0064 17.9136 11.0064V7.79517H20.748L21.456 7.92477L22.3896 13.4472L22.26 13.4184Z" fill="currentColor"/>
<path d="M10.6512 18.9312H9.92395V19.2408H10.6512V18.9312Z" fill="currentColor"/>
<path d="M16.872 15.7944H16.5792V15.0312H15.852V15.7944H15.5712V3.83997H14.736V4.13757H11.7672V3.83997H10.932V15.7944H10.6512V15.0312H9.92405V15.7944H9.70325V18.1728H9.92405V18.6264H10.6512V18.1728H15.852V18.6264H16.5792V18.1728H16.872V15.7944ZM13.6416 6.74877H14.736V10.236H13.6416V6.74877ZM12.8616 10.2384H11.7672V6.74877H12.8616V10.2384ZM14.736 10.5168V15.792H13.6416V10.5168H14.736ZM14.736 4.41837V6.47037H13.6416V5.71677H12.8616V6.46797H11.7672V4.41837H14.736ZM11.7672 10.5168H12.8616V15.792H11.7672V10.5168Z" fill="currentColor"/>
<path d="M16.5793 18.9312H15.8521V19.2408H16.5793V18.9312Z" fill="currentColor"/>
<path d="M0 18.5567L3.624 18.5639C3.6144 18.4751 3.6072 18.3863 3.6072 18.2951C3.6072 17.3327 4.2216 16.4783 5.1336 16.1735C5.3808 16.0895 5.6136 16.0487 5.8464 16.0487C7.0824 16.0487 8.088 17.0567 8.088 18.2951C8.088 18.5135 8.052 18.7343 7.9752 18.9743C7.9464 19.0631 7.9128 19.1471 7.8744 19.2311L9.0792 19.2431V15.7727H0V18.5567Z" fill="currentColor"/>
<path d="M17.46 15.7727V19.2287L18.6336 19.2311C18.504 18.9455 18.4296 18.6311 18.4296 18.2975C18.4296 17.3351 19.044 16.4807 19.956 16.1759C20.2032 16.0919 20.436 16.0511 20.6688 16.0511C21.7824 16.0511 22.7064 16.8695 22.8792 17.9375H22.956H24V15.7727H17.46Z" fill="currentColor"/>
<path d="M4.34876 15.2616H3.70076V13.6512C3.70076 13.6512 3.78476 13.368 3.40316 13.2192C3.30476 12.672 3.28796 12.4392 3.28796 12.4392C3.28796 12.4392 4.30076 12.7224 4.33436 13.6512C4.36796 14.58 4.34876 15.2616 4.34876 15.2616Z" fill="currentColor"/>
</g>
<defs>
<clipPath id="clip0_1413_1506">
<rect width="24" height="16.26" fill="currentColor" transform="translate(0 3.83997)"/>
</clipPath>
</defs>
</svg>
