<svg width="24" height="24" viewBox="0 0 24 24" fill="currentColor" xmlns="http://www.w3.org/2000/svg">
<g clip-path="url(#clip0_1413_1510)">
<path d="M2.75284 9.72961L2.75524 19.4712H2.01604L1.92004 10.5984L2.75284 9.72961Z" fill="currentColor"/>
<path d="M8.49602 8.37842L8.33042 7.84082C8.33042 7.84082 8.26562 7.81442 8.38082 7.77602C8.49602 7.73762 8.62322 7.68722 8.64962 7.73762C8.67602 7.78802 8.67602 8.35202 8.67602 8.35202L8.81762 9.32642H8.71202L8.49602 8.37842Z" fill="currentColor"/>
<path d="M8.99041 8.39276L8.94481 7.83116C8.94481 7.83116 8.88721 7.79276 9.00961 7.78076C9.12961 7.76876 9.26641 7.74716 9.28081 7.80236C9.29521 7.85756 9.17041 8.40716 9.17041 8.40716L9.09361 9.38876L8.99281 9.36716L8.99041 8.39276Z" fill="currentColor"/>
<path d="M8.01123 8.38555L7.80723 7.84795C7.80723 7.84795 7.74243 7.82635 7.85283 7.77835C7.96563 7.73035 8.09043 7.67035 8.11923 7.72075C8.14803 7.77115 8.18643 8.34715 8.18643 8.34715L8.39283 9.33115L8.28963 9.33835L8.01123 8.38555Z" fill="currentColor"/>
<path d="M12.3433 18.6864L21.0385 18.7224L21.9241 19.4928H12.3433V18.6864Z" fill="currentColor"/>
<path d="M18.1321 15.0528H13.7329V12.5328H13.0513V9.25439H12.3289V15.7104H13.0297H13.0489H13.7305V15.6984H18.1753C18.3025 15.6984 20.9233 15.6648 20.9233 15.5376V15.3648C20.9257 15.1728 18.2593 15.0528 18.1321 15.0528Z" fill="currentColor"/>
<path d="M2.05683 20.1624L2.00403 23.2992H7.18083C7.14243 23.1528 7.11843 23.0016 7.11843 22.8432C7.11843 21.8472 7.92723 21.0384 8.92323 21.0384C9.91923 21.0384 10.728 21.8472 10.728 22.8432C10.728 23.0016 10.7016 23.1528 10.6608 23.2992H18.8304C18.7584 23.1024 18.7152 22.8912 18.7152 22.6704C18.7152 21.6672 19.5312 20.8512 20.5344 20.8512C21.144 20.8512 21.6816 21.1536 22.0128 21.6144L22.0224 20.1624H2.05683Z" fill="currentColor"/>
<path d="M20.1625 21.2784H20.9137C20.9497 21.2784 20.9785 21.3072 20.9785 21.3432V23.9328C20.9785 23.9688 20.9497 23.9976 20.9137 23.9976H20.1625C20.1265 23.9976 20.0977 23.9688 20.0977 23.9328V21.3432C20.0977 21.3072 20.1265 21.2784 20.1625 21.2784Z" fill="currentColor"/>
<path d="M8.51768 21.2784H9.26888C9.30488 21.2784 9.33368 21.3072 9.33368 21.3432V23.9328C9.33368 23.9688 9.30488 23.9976 9.26888 23.9976H8.51768C8.48168 23.9976 8.45288 23.9688 8.45288 23.9328V21.3432C8.45288 21.3072 8.48168 21.2784 8.51768 21.2784Z" fill="currentColor"/>
<path d="M11.9016 3.492H11.2224L11.1672 0H2.20801V0.7968H3.89521V9.6432L3.28321 9.648V19.4784H5.25361C5.25361 19.4784 5.22241 13.776 5.34961 12.8856C5.44561 12.228 5.68081 11.1072 5.79601 10.6344H9.69121L9.69841 11.1264L6.39601 11.1408C6.39601 11.1408 6.33121 11.2584 6.06241 12.78C5.78641 14.3376 5.89441 19.4832 5.89441 19.4832H9.83281L11.0304 19.4856H11.9016V3.492ZM10.5168 14.7768L7.82401 17.9712C7.80721 17.9904 7.78321 18 7.75921 18C7.74481 18 7.72801 17.9952 7.71601 17.988C7.68001 17.9664 7.66561 17.9208 7.68241 17.8848L8.62561 15.648H7.76161C7.73281 15.648 7.70641 15.6336 7.68961 15.6072C7.67521 15.5832 7.67281 15.552 7.68481 15.5256L8.94481 13.0032C8.95921 12.9744 8.98801 12.9576 9.01921 12.9576H10.3656C10.3968 12.9576 10.4256 12.9744 10.44 13.0008C10.4544 13.0272 10.4544 13.0608 10.4376 13.0872L9.45361 14.64H10.4496C10.4832 14.64 10.512 14.6592 10.5264 14.688C10.5408 14.7168 10.536 14.7528 10.5168 14.7768ZM9.47761 3.492V3.9936L8.72641 4.056V4.4616L8.96641 4.68V7.0272L9.54721 7.1208L9.65761 9.6L4.60801 9.6384L4.52401 0.7968H10.5672L10.6056 3.4896L9.47761 3.492Z" fill="currentColor"/>
</g>
<defs>
<clipPath id="clip0_1413_1510">
<rect width="20.1072" height="24" fill="currentColor" transform="translate(1.92004)"/>
</clipPath>
</defs>
</svg>
