<svg width="24" height="24" viewBox="0 0 24 24" fill="currentColor" xmlns="http://www.w3.org/2000/svg">
<g clip-path="url(#clip0_1433_1271)">
<path d="M7.23838 1.2696V1.7544H6.89278V19.7904H6.94558V22.6128H6.56878V24H8.46478V23.6976H17.2536V23.52L8.46478 23.2512V22.7592H8.84158V16.4232C8.84158 16.1424 8.67118 15.9024 8.42878 15.7992V10.6008H17.4816V9.1656L8.43118 8.7864V0H7.23838V0.0024H6.47998V1.1928L7.23838 1.2696ZM7.69678 22.0176C7.69678 21.9072 7.78558 21.8184 7.89598 21.8184C8.00638 21.8184 8.09518 21.9072 8.09518 22.0176C8.09518 22.128 8.00638 22.2168 7.89598 22.2168C7.78558 22.2144 7.69678 22.1256 7.69678 22.0176ZM7.69678 18.8304C7.69678 18.72 7.78558 18.6312 7.89598 18.6312C8.00638 18.6312 8.09518 18.72 8.09518 18.8304C8.09518 18.9408 8.00638 19.0296 7.89598 19.0296C7.78558 19.0272 7.69678 18.9384 7.69678 18.8304ZM7.69678 18.0864C7.69678 17.976 7.78558 17.8872 7.89598 17.8872C8.00638 17.8872 8.09518 17.976 8.09518 18.0864C8.09518 18.1968 8.00638 18.2856 7.89598 18.2856C7.78558 18.2856 7.69678 18.1968 7.69678 18.0864ZM7.69678 17.3448C7.69678 17.2344 7.78558 17.1456 7.89598 17.1456C8.00638 17.1456 8.09518 17.2344 8.09518 17.3448C8.09518 17.4552 8.00638 17.544 7.89598 17.544C7.78558 17.544 7.69678 17.4552 7.69678 17.3448ZM7.68718 0.3744H8.09278V1.3584V15.744V15.7824H7.68718V1.7568V1.3176V0.3744Z" fill="currentColor"/>
</g>
<defs>
<clipPath id="clip0_1433_1271">
<rect width="11.004" height="24" fill="currentColor" transform="translate(6.47998)"/>
</clipPath>
</defs>
</svg>
