<svg width="24" height="24" viewBox="0 0 24 24" fill="currentColor" xmlns="http://www.w3.org/2000/svg">
<g clip-path="url(#clip0_1437_1860)">
<path d="M23.9425 17.5488H22.3633V17.9112H23.9425V17.5488Z" fill="currentColor"/>
<path d="M4.3079 14.6089C3.4919 14.6089 2.7815 15.0601 2.4095 15.7273C2.2343 16.0417 2.1311 16.4041 2.1311 16.7905C2.1311 17.9977 3.1079 18.9817 4.3079 18.9817C5.5079 18.9817 6.4847 18.0001 6.4847 16.7905C6.4847 16.6537 6.4703 16.5217 6.4463 16.3897C6.2591 15.3769 5.3735 14.6089 4.3079 14.6089ZM4.3079 17.7481C3.7823 17.7481 3.3551 17.3209 3.3551 16.7905C3.3551 16.3801 3.6119 16.0345 3.9671 15.8977C4.0727 15.8593 4.1879 15.8329 4.3079 15.8329C4.6895 15.8329 5.0183 16.0609 5.1695 16.3897C5.2271 16.5121 5.2583 16.6465 5.2583 16.7905C5.2607 17.3209 4.8311 17.7481 4.3079 17.7481Z" fill="currentColor"/>
<path d="M9.27836 14.6089C8.46236 14.6089 7.75196 15.0601 7.37996 15.7273C7.20476 16.0417 7.10156 16.4041 7.10156 16.7905C7.10156 17.9977 8.07836 18.9817 9.27836 18.9817C10.4784 18.9817 11.4552 18.0001 11.4552 16.7905C11.4552 16.6537 11.4408 16.5217 11.4168 16.3897C11.2272 15.3769 10.3416 14.6089 9.27836 14.6089ZM9.27836 17.7481C8.75276 17.7481 8.32556 17.3209 8.32556 16.7905C8.32556 16.3801 8.58236 16.0345 8.93756 15.8977C9.04316 15.8593 9.15836 15.8329 9.27836 15.8329C9.65996 15.8329 9.98876 16.0609 10.14 16.3897C10.1976 16.5121 10.2288 16.6465 10.2288 16.7905C10.2288 17.3209 9.80156 17.7481 9.27836 17.7481Z" fill="currentColor"/>
<path d="M23.34 15.66V14.6544L22.8816 14.8584V15.6624H20.928V7.95124H20.6664V15.66H13.9416L15.2064 14.736H20.388V5.04004H3.432L0 8.11204V8.75284H4.38V9.34324H2.9592L0 12.3024V14.736H2.9784C3.3696 14.4816 3.828 14.3376 4.308 14.3376C4.7952 14.3376 5.2536 14.484 5.6376 14.736H7.944C8.3352 14.4816 8.7936 14.3376 9.2736 14.3376C9.7608 14.3376 10.2192 14.484 10.6032 14.736H12.252V16.584H12.6744L13.032 16.3224H20.664V16.9848H20.9256V16.3224H22.8768L22.8744 17.3832H23.3352V16.3224H24V15.66H23.34Z" fill="currentColor"/>
<path d="M4.14005 9.04573C4.14005 8.96173 4.07285 8.89453 3.98885 8.89453C3.90485 8.89453 3.83765 8.96173 3.83765 9.04573C3.83765 9.12973 3.90485 9.19693 3.98885 9.19693C4.07285 9.19693 4.14005 9.12973 4.14005 9.04573Z" fill="currentColor"/>
<path d="M0 9.3457V11.6593L2.3136 9.3457H0Z" fill="currentColor"/>
</g>
<defs>
<clipPath id="clip0_1437_1860">
<rect width="24" height="13.9416" fill="currentColor" transform="translate(0 5.04004)"/>
</clipPath>
</defs>
</svg>
