<svg width="24" height="24" viewBox="0 0 24 24" fill="currentColor" xmlns="http://www.w3.org/2000/svg">
<g clip-path="url(#clip0_1415_934)">
<path d="M16.1544 18.4968C14.964 18.4968 13.9968 19.4664 13.9968 20.6664C13.9968 21.864 14.964 22.8384 16.1544 22.8384C17.3472 22.8384 18.312 21.864 18.312 20.6664C18.312 19.4664 17.3472 18.4968 16.1544 18.4968ZM16.1544 21.672C15.6024 21.672 15.156 21.2208 15.156 20.6664C15.156 20.1048 15.6024 19.6632 16.1544 19.6632C16.704 19.6632 17.1528 20.1072 17.1528 20.6664C17.1528 21.2208 16.704 21.672 16.1544 21.672Z" fill="currentColor"/>
<path d="M20.2008 16.4592H14.22V13.0344H13.2936V8.5752H12.312V17.352L20.2608 17.3352C20.4336 17.3352 23.9976 17.292 23.9976 17.1168V16.884C24 16.6248 20.3736 16.4592 20.2008 16.4592Z" fill="currentColor"/>
<path d="M2.5224 19.8191C2.1624 19.8191 1.8312 19.9439 1.5648 20.1503C1.3128 20.3471 1.1232 20.6183 1.0296 20.9303C0.986402 21.0743 0.962402 21.2255 0.962402 21.3839C0.962402 21.5351 0.984002 21.6815 1.0248 21.8207C1.212 22.4759 1.8096 22.9559 2.5224 22.9559C3.2328 22.9559 3.8304 22.4759 4.0176 21.8207C4.056 21.6815 4.08 21.5375 4.08 21.3839C4.08 20.5223 3.3816 19.8191 2.5224 19.8191ZM2.5224 22.1111C2.2896 22.1111 2.0808 21.9959 1.9488 21.8231C1.8552 21.7007 1.8 21.5519 1.8 21.3863C1.8 20.9855 2.1264 20.6615 2.5248 20.6615C2.9232 20.6615 3.2472 20.9855 3.2472 21.3863C3.2472 21.5519 3.1896 21.7007 3.0984 21.8231C2.9616 21.9959 2.7552 22.1111 2.5224 22.1111Z" fill="currentColor"/>
<path d="M11.5896 18.3577C11.5896 17.5921 10.968 16.9705 10.2024 16.9705C9.67202 16.9705 9.21123 17.2681 8.97603 17.7073C8.87043 17.8849 8.81042 18.0889 8.81042 18.3097V21.1369C8.81042 21.2857 8.93043 21.4057 9.07923 21.4057H11.316C11.4648 21.4057 11.5848 21.2857 11.5848 21.1369V18.4609C11.5872 18.4249 11.5896 18.3913 11.5896 18.3577Z" fill="currentColor"/>
<path d="M10.2 16.4423C10.74 16.4423 11.2248 16.668 11.5752 17.0256V1.19995H8.57282C8.49362 1.19995 8.40242 1.29355 8.43122 1.37755L8.65442 1.98715C8.70962 2.09995 8.74322 2.15515 8.79602 2.16475H9.30242V9.83275L8.81282 10.3104V17.0399C9.16802 16.6631 9.66722 16.4423 10.2 16.4423Z" fill="currentColor"/>
<path d="M15.12 18.084H12.3384V20.5248H13.3896C13.4448 19.4184 14.1432 18.4824 15.12 18.084Z" fill="currentColor"/>
<path d="M8.0904 16.6558V13.003H1.2144V5.80783H1.416H6.9408V10.4398H7.524V5.80783V5.18143V5.17183H6.7272H4.788H1.2144V5.16943H0.0096V13.0054H0V16.7902H0.0096V20.911V21.7774H0.384C0.36 21.6478 0.348 21.5158 0.348 21.3862C0.348 21.1726 0.3792 20.9614 0.4416 20.755C0.5712 20.323 0.8304 19.9486 1.1856 19.6678C1.572 19.3654 2.0328 19.2046 2.5224 19.2046C3.72 19.2046 4.6944 20.1838 4.6944 21.3862C4.6944 21.5206 4.68 21.655 4.656 21.7894L8.0952 21.799V16.6558H8.0904ZM0.0264 20.9086V16.7878V20.9086Z" fill="currentColor"/>
<path d="M4.48075 12.408H1.87915V10.4832C1.87915 10.3776 1.96555 10.2888 2.07355 10.2888H4.28875C4.39435 10.2888 4.48315 10.3752 4.48315 10.4832V12.408H4.48075Z" fill="currentColor"/>
<path d="M6.65994 11.3784L6.43434 11.112C6.34074 11.0016 6.17514 10.9872 6.06234 11.0808C5.95194 11.1744 5.93754 11.34 6.03114 11.4528L6.23274 11.6904L5.26074 12.4056H7.52634V10.7424L6.65994 11.3784Z" fill="currentColor"/>
</g>
<defs>
<clipPath id="clip0_1415_934">
<rect width="24" height="21.756" fill="currentColor" transform="translate(0 1.19995)"/>
</clipPath>
</defs>
</svg>
