<svg width="24" height="24" viewBox="0 0 24 24" fill="currentColor" xmlns="http://www.w3.org/2000/svg">
<g clip-path="url(#clip0_1422_756)">
<path d="M11.3737 16.4352C11.3737 17.8944 12.5497 19.08 14.0017 19.08C15.1729 19.08 16.1569 18.3 16.4953 17.232C16.5745 16.98 16.6297 16.716 16.6297 16.4352C16.6297 14.9736 15.4513 13.7976 13.9993 13.7976C13.7065 13.7976 13.4281 13.8552 13.1641 13.9464C12.1273 14.292 11.3737 15.2688 11.3737 16.4352ZM12.7849 16.4352C12.7849 15.756 13.3321 15.2112 14.0017 15.2112C14.6737 15.2112 15.2185 15.7584 15.2185 16.4352C15.2185 17.1096 14.6713 17.6568 14.0017 17.6568C13.3321 17.6544 12.7849 17.1096 12.7849 16.4352Z" fill="currentColor"/>
<path d="M3.73438 16.4352C3.73438 17.8944 4.91038 19.08 6.36238 19.08C7.53358 19.08 8.51758 18.3 8.85598 17.232C8.93518 16.98 8.99038 16.716 8.99038 16.4352C8.99038 14.9736 7.81198 13.7976 6.35998 13.7976C6.06718 13.7976 5.78878 13.8552 5.52478 13.9464C4.48798 14.292 3.73438 15.2688 3.73438 16.4352ZM5.14558 16.4352C5.14558 15.756 5.69278 15.2112 6.36238 15.2112C7.03438 15.2112 7.57918 15.7584 7.57918 16.4352C7.57918 17.1096 7.03198 17.6568 6.36238 17.6568C5.69038 17.6544 5.14558 17.1096 5.14558 16.4352Z" fill="currentColor"/>
<path d="M2.86797 9.21358L2.18157 9.25678L1.93677 7.79518L2.26557 7.56958L3.70317 8.23198L6.28077 8.22478L15.1392 10.9776L18.6696 13.8312L18.108 16.8816L17.172 17.2872C17.2704 17.364 17.46 15.384 16.6728 14.3496C16.1208 13.6248 14.268 12.7248 14.268 12.7248L6.89517 10.5384L4.05357 10.2888L2.86797 9.21358Z" fill="currentColor"/>
<path d="M15.1393 10.5696L13.8889 10.0704C13.8889 10.0704 13.1713 6.16558 13.0777 6.10318C12.9841 6.04078 7.73526 6.22798 7.73526 6.22798L8.32086 8.39998L6.32886 7.75918L6.54726 5.16718L14.5753 5.03998L14.7001 5.72638L14.2009 5.75758L15.1393 10.5696Z" fill="currentColor"/>
<path d="M18.168 18.7848C18.168 18.66 18.96 15.2016 18.96 15.2016L23.3328 18.12V18.6624L24 18.744L23.9592 19.0344L18.168 18.7848Z" fill="currentColor"/>
<path d="M12.96 13.5192C13.3008 13.404 13.62 13.3464 13.9392 13.3464C14.3304 13.3464 14.7048 13.4232 15.0504 13.5576L15.0144 13.38L12.36 12.5688L5.80084 12.5376L2.73604 9.56879L1.29844 9.66239L0.144043 9.75599L0.393643 16.0656L2.92324 17.3472H3.36004C3.27124 17.0592 3.22324 16.752 3.22324 16.4328C3.22324 15.1104 4.06564 13.9392 5.31844 13.5192C5.65924 13.404 5.97844 13.3464 6.29764 13.3464C7.99444 13.3464 9.37444 14.7312 9.37444 16.4328C9.37444 16.7232 9.32404 17.0232 9.22324 17.3472H10.9992C10.9104 17.0592 10.8624 16.752 10.8624 16.4328C10.8648 15.1128 11.7072 13.9416 12.96 13.5192Z" fill="currentColor"/>
<path d="M1.764 9.14636L1.2168 9.23276L0.036 6.44156C0.036 6.44156 -0.108 5.89436 0.18 5.83676C0.468 5.77916 0.8712 5.95196 1.1304 6.61436C1.3896 7.27676 1.764 9.14636 1.764 9.14636Z" fill="currentColor"/>
</g>
<defs>
<clipPath id="clip0_1422_756">
<rect width="24" height="14.04" fill="currentColor" transform="translate(0 5.03998)"/>
</clipPath>
</defs>
</svg>
