<svg width="24" height="24" viewBox="0 0 24 24" fill="currentColor" xmlns="http://www.w3.org/2000/svg">
<g clip-path="url(#clip0_1420_1388)">
<path d="M5.088 18.7246C3.6432 18.7246 2.4624 19.903 2.4624 21.3622C2.4624 22.819 3.6432 23.9998 5.088 23.9998C6.54 23.9998 7.7136 22.819 7.7136 21.3622C7.7136 19.903 6.54 18.7246 5.088 18.7246ZM5.088 22.5838C4.4184 22.5838 3.8736 22.039 3.8736 21.3622C3.8736 20.6854 4.4184 20.1358 5.088 20.1358C5.76 20.1358 6.3024 20.6878 6.3024 21.3622C6.3024 22.039 5.76 22.5838 5.088 22.5838Z" fill="currentColor"/>
<path d="M10.9152 0H2.4624V18.0624H10.9152V0Z" fill="currentColor"/>
<path d="M10.2216 18.7031H7.17361V18.7247C7.88641 19.1711 8.36642 19.9487 8.40482 20.8415H10.2216V18.7031Z" fill="currentColor"/>
<path d="M5.088 18.7246C3.6432 18.7246 2.4624 19.903 2.4624 21.3622C2.4624 22.819 3.6432 23.9998 5.088 23.9998C6.54 23.9998 7.7136 22.819 7.7136 21.3622C7.7136 19.903 6.54 18.7246 5.088 18.7246ZM5.088 22.5838C4.4184 22.5838 3.8736 22.039 3.8736 21.3622C3.8736 20.6854 4.4184 20.1358 5.088 20.1358C5.76 20.1358 6.3024 20.6878 6.3024 21.3622C6.3024 22.039 5.76 22.5838 5.088 22.5838Z" fill="currentColor"/>
<path d="M10.9152 0H2.4624V18.0624H10.9152V0Z" fill="currentColor"/>
<path d="M10.2216 18.7031H7.17361V18.7247C7.88641 19.1711 8.36642 19.9487 8.40482 20.8415H10.2216V18.7031Z" fill="currentColor"/>
<path fill-rule="evenodd" clip-rule="evenodd" d="M21.3816 17.8848L19.9872 17.4072H11.496V18.0624H21.3816V17.8848Z" fill="currentColor"/>
<path d="M13.9464 16.8672L10.8264 19.7688V20.8416L14.5104 17.4048L13.9464 16.8672Z" fill="currentColor"/>
<path d="M13.5984 17.9593C13.4688 17.9593 13.3656 17.8537 13.3656 17.7265C13.3656 17.5993 13.4712 17.4937 13.5984 17.4937C13.728 17.4937 13.8312 17.5993 13.8312 17.7265C13.8312 17.8537 13.7256 17.9593 13.5984 17.9593Z" fill="currentColor"/>
</g>
<defs>
<clipPath id="clip0_1420_1388">
<rect width="18.9192" height="24" fill="currentColor" transform="translate(2.4624)"/>
</clipPath>
</defs>
</svg>
