<svg width="24" height="24" viewBox="0 0 24 24" fill="currentColor" xmlns="http://www.w3.org/2000/svg">
<g clip-path="url(#clip0_1421_1856)">
<path d="M21.7632 16.207C20.8104 16.207 20.0376 16.9798 20.0376 17.9326C20.0376 18.8854 20.8104 19.6582 21.7632 19.6582C22.716 19.6582 23.4888 18.8854 23.4888 17.9326C23.4912 16.9798 22.7184 16.207 21.7632 16.207ZM21.804 18.6598C21.4032 18.6598 21.0792 18.3358 21.0792 17.935C21.0792 17.5342 21.4032 17.2078 21.804 17.2078C22.2048 17.2078 22.5312 17.5318 22.5312 17.935C22.5312 18.3334 22.2072 18.6598 21.804 18.6598Z" fill="currentColor"/>
<path d="M12.9 11.0518H3.9024V12.115H12.9V11.0518Z" fill="currentColor"/>
<path d="M9.35282 10.5046C9.35282 10.5046 12.4512 10.5478 12.7896 10.5478C13.128 10.5478 13.2888 10.4494 13.3656 10.1542C13.4328 9.89502 13.368 9.57342 12.8712 9.49902C12.5352 9.44862 9.98641 9.14622 9.60481 9.06222C9.22321 8.97822 9.43442 8.55342 9.43442 8.55342C9.43442 8.55342 9.64562 7.70382 9.43442 7.02462C9.22082 6.34542 8.75522 5.75022 8.62802 5.24142C8.50322 4.73262 8.62081 4.31982 8.28001 4.31982C8.00881 4.31982 7.99442 4.47582 7.99442 4.51902C7.99442 4.56222 7.99442 8.97582 7.99442 8.97582H8.33282C8.33282 10.5478 9.35282 10.5046 9.35282 10.5046Z" fill="currentColor"/>
<path d="M3.89999 14.8032C2.57279 14.8032 1.49759 15.8784 1.49759 17.2056C1.49759 18.5328 2.57279 19.608 3.89999 19.608C5.22719 19.608 6.30239 18.5328 6.30239 17.2056C6.30239 15.8784 5.22719 14.8032 3.89999 14.8032ZM3.92639 18.1896C3.36719 18.1896 2.91599 17.736 2.91599 17.1792C2.91599 16.62 3.36959 16.1688 3.92639 16.1688C4.48559 16.1688 4.93679 16.6224 4.93679 17.1792C4.93679 17.736 4.48319 18.1896 3.92639 18.1896Z" fill="currentColor"/>
<path d="M15.444 7.18314C15.5064 7.18314 15.5688 7.16634 15.6264 7.13274L16.8432 6.42234L17.7576 7.77354L18.5712 6.77514L17.9688 5.76715L18.9096 5.21755C19.0824 5.11675 19.14 4.89595 19.0392 4.72315C18.9384 4.55035 18.7152 4.49275 18.5448 4.59355L15.2616 6.50874C15.0888 6.60954 15.0312 6.83034 15.132 7.00314C15.1992 7.11834 15.3192 7.18314 15.444 7.18314Z" fill="currentColor"/>
<path d="M1.2576 12.1174L2.5176 8.62303C2.7888 8.61103 3.0072 8.38783 3.0072 8.11423C3.0072 7.83103 2.7792 7.60303 2.496 7.60303C2.2128 7.60303 1.9848 7.83103 1.9848 8.11423C1.9848 8.26063 2.0472 8.39263 2.148 8.48623L0.839996 12.115L1.2576 12.1174Z" fill="currentColor"/>
<path d="M23.172 14.8943L21.6432 8.06151L18.9264 7.21191L17.7384 8.65431L18.588 15.5303L12.912 15.4463L12.9024 12.7295L0 12.6983L0.0432 17.4527L0.8184 17.4479C0.8112 17.3687 0.8064 17.2871 0.8064 17.2055C0.8064 15.4991 2.1936 14.1119 3.9 14.1119C5.6064 14.1119 6.9936 15.4991 6.9936 17.2055C6.9936 17.5343 6.9384 17.8511 6.84 18.1463H19.4568C19.4496 18.0767 19.4448 18.0047 19.4448 17.9327C19.4448 16.6535 20.484 15.6143 21.7632 15.6143C22.4784 15.6143 23.1168 15.9383 23.5416 16.4495L23.9976 16.4543V14.8943H23.172ZM11.1552 15.1175L9.2712 17.3543C9.2592 17.3687 9.2424 17.3759 9.2256 17.3759C9.216 17.3759 9.204 17.3735 9.1944 17.3663C9.1704 17.3519 9.1608 17.3207 9.1704 17.2943L9.8304 15.7271H9.2256C9.204 15.7271 9.1872 15.7175 9.1752 15.6983C9.1656 15.6815 9.1632 15.6599 9.1728 15.6407L10.056 13.8743C10.0656 13.8551 10.0872 13.8407 10.1088 13.8407H11.0496C11.0712 13.8407 11.0904 13.8527 11.1 13.8719C11.1096 13.8911 11.1096 13.9127 11.0976 13.9319L10.4088 15.0191H11.1072C11.1312 15.0191 11.1504 15.0335 11.16 15.0527C11.172 15.0743 11.1696 15.1007 11.1552 15.1175Z" fill="currentColor"/>
</g>
<defs>
<clipPath id="clip0_1421_1856">
<rect width="24" height="15.3384" fill="currentColor" transform="translate(0 4.31982)"/>
</clipPath>
</defs>
</svg>
