<svg width="24" height="24" viewBox="0 0 24 24" fill="currentColor" xmlns="http://www.w3.org/2000/svg">
<g clip-path="url(#clip0_1431_3404)">
<path d="M4.6032 11.9352C2.0616 11.9352 0 13.9992 0 16.5528C0 19.1112 2.0616 21.1824 4.6032 21.1824C7.1448 21.1824 9.204 19.1112 9.204 16.5528C9.2016 13.9992 7.1448 11.9352 4.6032 11.9352ZM4.6032 18.696C3.4272 18.696 2.472 17.736 2.472 16.5528C2.472 15.3648 3.4272 14.412 4.6032 14.412C5.7768 14.412 6.7344 15.3672 6.7344 16.5528C6.732 17.7384 5.7768 18.696 4.6032 18.696Z" fill="currentColor"/>
<path d="M19.5312 15.3312C18.1056 15.3312 16.9176 16.3632 16.6656 17.7192C16.6344 17.8944 16.6152 18.072 16.6152 18.2544C16.6152 19.872 17.9256 21.1896 19.5312 21.1896C21.1392 21.1896 22.4472 19.8744 22.4472 18.2544C22.4472 17.736 22.3104 17.2512 22.0752 16.8288C21.576 15.936 20.6256 15.3312 19.5312 15.3312ZM19.5312 19.5384C18.8304 19.5384 18.2568 18.9648 18.2568 18.2544C18.2568 18.0624 18.3 17.8824 18.3768 17.7192C18.5784 17.28 19.02 16.9728 19.5312 16.9728C19.692 16.9728 19.8456 17.0064 19.9872 17.0592C20.4648 17.244 20.808 17.7048 20.808 18.2544C20.808 18.9648 20.2368 19.5384 19.5312 19.5384Z" fill="currentColor"/>
<path d="M10.4353 13.6248C10.3633 13.4616 10.2841 13.3008 10.2001 13.1472H10.2025C9.89051 12.5664 9.48251 12.0504 9.00731 11.6064C8.94971 11.6304 8.87771 11.6424 8.78651 11.6424C8.87771 11.6424 8.94971 11.6328 9.00731 11.6064C9.09851 11.568 9.15131 11.4936 9.18491 11.3688C9.23291 11.1888 9.18731 10.968 8.84411 10.9176C8.74331 10.9032 8.35931 10.8552 7.93451 10.8024C7.37291 10.7304 6.73931 10.6488 6.58811 10.6152C6.32411 10.5576 6.47051 10.2624 6.47051 10.2624C6.47051 10.2624 6.48011 10.2288 6.48971 10.1712C6.52331 9.98881 6.58331 9.56401 6.47051 9.20641C6.32411 8.73841 6.00251 8.32801 5.91371 7.97521C5.82491 7.62241 5.90891 7.33921 5.67131 7.33921C5.48411 7.33921 5.47451 7.44721 5.47451 7.47601C5.47451 7.49761 5.47451 9.08641 5.47451 9.97201C5.44811 9.96961 5.42171 9.96481 5.39291 9.96241L4.83371 9.94321V3.2112C4.83371 3.0288 4.68491 2.88 4.50251 2.88C4.32011 2.88 4.17131 3.0288 4.17131 3.2112V9.97681C3.09851 10.0992 2.08091 10.5072 1.22171 11.1528C1.06331 11.2704 1.03211 11.496 1.14971 11.6544C1.26971 11.8128 1.49051 11.844 1.64891 11.7264C2.41211 11.1528 3.32171 10.7952 4.27691 10.6872C4.76891 10.6344 5.25371 10.6488 5.71931 10.7256C6.52811 10.8576 7.28171 11.172 7.93451 11.6328C9.15131 12.4896 10.0105 13.8456 10.1857 15.4416C10.1857 15.4608 10.1953 15.48 10.2025 15.4992L10.6129 18.5232H12.4489V17.7216H15.9481C16.1065 16.6632 16.7185 15.7512 17.5777 15.1944L18.0001 14.9592C18.4657 14.736 18.9841 14.6136 19.5313 14.6136C21.0289 14.6136 22.3153 15.528 22.8697 16.8288H23.9977V14.376H22.3441C22.3369 13.1088 22.3009 11.6232 22.2049 10.9632C22.0249 9.75841 13.7569 9.37441 13.2505 9.39601C12.7441 9.41521 12.5545 9.60241 12.5545 9.60241L12.1753 9.89761C12.1033 9.83761 12.0385 9.79921 11.9881 9.78721C11.7265 9.74401 11.4673 9.75841 11.3209 9.77281L11.3617 9.73441L11.2969 9.60241C11.3209 9.55681 11.3233 9.49681 11.3041 9.44401C11.2633 9.35041 11.2393 9.24961 11.2273 9.14641L11.4793 8.88961C11.5465 8.82241 11.5441 8.71441 11.4769 8.64721L11.4481 8.62081C11.3857 8.56321 11.2873 8.55601 11.2105 8.62801L9.83531 10.0392C9.79691 10.0704 9.77771 10.1208 9.78011 10.164C9.78011 10.2096 9.79931 10.2528 9.83291 10.2888L9.85211 10.3056C9.88331 10.3392 9.92891 10.3584 9.97451 10.3584C10.0201 10.3584 10.0609 10.3416 10.0969 10.308L10.4353 9.96241C10.4929 10.0104 10.5553 10.056 10.6177 10.0968C10.6705 10.1304 10.7377 10.1376 10.7977 10.1112L10.9345 10.1784V10.176L12.8785 13.1376L12.8809 13.1304L12.8833 13.1496L10.4353 13.6248Z" fill="currentColor"/>
</g>
<defs>
<clipPath id="clip0_1431_3404">
<rect width="24" height="18.3096" fill="currentColor" transform="translate(0 2.88)"/>
</clipPath>
</defs>
</svg>
