<svg width="24" height="24" viewBox="0 0 24 24" fill="currentColor" xmlns="http://www.w3.org/2000/svg">
<g clip-path="url(#clip0_1430_1997)">
<path d="M7.272 13.4327C6.9792 13.3343 6.6696 13.2671 6.3456 13.2671C4.7352 13.2671 3.4248 14.5751 3.4248 16.1975C3.4248 16.5071 3.4848 16.8023 3.5736 17.0807C3.9504 18.2687 5.0424 19.1351 6.3432 19.1351C7.9536 19.1351 9.2616 17.8175 9.2616 16.1975C9.264 14.9039 8.4264 13.8215 7.272 13.4327ZM6.3456 17.5535C5.5992 17.5535 4.9944 16.9463 4.9944 16.1975C4.9944 15.4439 5.6016 14.8367 6.3456 14.8367C7.0896 14.8367 7.6968 15.4439 7.6968 16.1975C7.6968 16.9487 7.092 17.5535 6.3456 17.5535Z" fill="currentColor"/>
<path d="M6.34562 16.7709C6.03602 16.7709 5.78162 16.5165 5.78162 16.2021C5.78162 15.8877 6.03362 15.6309 6.34562 15.6309C6.65522 15.6309 6.90962 15.8877 6.90962 16.2021C6.90722 16.5165 6.65522 16.7709 6.34562 16.7709Z" fill="currentColor"/>
<path d="M24 13.5022L22.5816 13.4446L21.2232 13.7662C20.6304 13.0918 19.764 12.6646 18.7944 12.6646C17.4456 12.6646 16.2912 13.4902 15.804 14.6638H13.2552V15.1821H11.6904V14.6014L13.008 14.083H8.85596C9.33356 14.6542 9.61196 15.3862 9.61196 16.1686C9.61196 16.3653 9.59036 16.5597 9.55916 16.7469H11.6904V16.1398H13.2552V17.3565H15.9072C16.44 18.4125 17.532 19.1374 18.7944 19.1374C20.5152 19.1374 21.9168 17.7958 22.02 16.1014L23.9136 15.415L24 13.5022ZM18.7944 12.9742C19.608 12.9742 20.3448 13.3078 20.8752 13.8478L17.4264 14.6614H16.1496C16.6152 13.6654 17.6232 12.9742 18.7944 12.9742ZM18.7944 18.8253C17.712 18.8253 16.7664 18.2325 16.26 17.3565H18.5544L21.7008 16.2166C21.5424 17.6805 20.2992 18.8253 18.7944 18.8253Z" fill="currentColor"/>
<path d="M8.41915 10.4614L6.58555 10.039C6.38395 9.99345 6.17275 10.0054 5.97835 10.0726L3.43435 10.9678C3.43195 10.6222 3.43195 10.2214 3.43195 10.183C3.43195 10.1062 3.38635 9.96945 3.27595 9.88305C3.16555 9.79665 2.67355 9.58545 2.67355 9.58545L2.93995 10.1926C3.00475 10.1926 3.05275 10.2238 3.05275 10.2982C3.05275 10.3318 3.05275 10.771 3.05275 11.1046L1.38715 11.6878C0.955147 11.839 0.664747 12.2422 0.655147 12.7006L0.640747 13.5334H4.43035C4.97035 13.135 5.63275 12.8974 6.35275 12.8974C6.68875 12.8974 7.02715 12.9574 7.38715 13.0798C7.70635 13.1878 8.00154 13.3414 8.26555 13.5334H9.19915L8.41915 10.4614Z" fill="currentColor"/>
<path d="M3.8448 14.083H0V14.6134C0 14.9158 0.1464 15.2014 0.3936 15.3766L2.064 16.5718C2.2224 16.6846 2.4144 16.747 2.6112 16.747H3.156C3.1176 16.5478 3.0936 16.3558 3.0936 16.1686C3.0936 15.3766 3.3768 14.6494 3.8448 14.083Z" fill="currentColor"/>
<path d="M15.5136 8.49343C15.1656 6.70783 14.7456 5.42383 14.7456 5.42383H8.41916C8.41916 5.42383 8.14316 6.89983 8.23196 8.27743C8.31836 9.65263 8.82476 10.4062 8.82476 10.4062L9.57836 13.5478H14.1408L15.8352 11.983C15.8328 11.983 15.8688 10.3054 15.5136 8.49343ZM10.272 10.0966C10.2696 10.0918 10.2696 10.087 10.2696 10.0822C10.1712 9.77023 9.95756 9.49663 9.89996 9.26383C9.84236 9.02863 9.89516 8.84143 9.73916 8.84143C9.61436 8.84143 9.60716 8.91343 9.60716 8.93263C9.60716 8.94223 9.60716 9.52063 9.60716 10.0606L9.29036 10.0414C9.29036 10.0414 8.81756 7.84063 9.29516 5.85823C10.548 5.84863 13.38 5.83423 13.3656 5.84863L13.3728 10.2742L10.272 10.0966ZM15.528 11.2006C15.0648 11.0422 14.052 10.6366 14.052 10.6366L13.8792 5.84143H14.604C14.6016 5.84143 15.6432 9.75583 15.528 11.2006Z" fill="currentColor"/>
<path d="M15.2112 5.2198H7.95597L7.80957 4.7998H15.384L15.2112 5.2198Z" fill="currentColor"/>
</g>
<defs>
<clipPath id="clip0_1430_1997">
<rect width="24" height="14.3352" fill="currentColor" transform="translate(0 4.7998)"/>
</clipPath>
</defs>
</svg>
