<svg width="24" height="24" viewBox="0 0 24 24" fill="currentColor" xmlns="http://www.w3.org/2000/svg">
<g clip-path="url(#clip0_1437_804)">
<path d="M0 18.0239C0 19.9271 1.5384 21.4751 3.4296 21.4751C5.3184 21.4751 6.8592 19.9271 6.8592 18.0239C6.8592 17.8103 6.8352 17.5991 6.7992 17.3951C6.7344 17.0447 6.612 16.7135 6.4512 16.4087L8.6952 14.1647C8.1576 14.0639 7.7112 13.7015 7.4952 13.2167C7.4184 13.0415 7.3704 12.8519 7.3584 12.6527C7.356 12.6191 7.3536 12.5855 7.3536 12.5519C7.3536 12.2423 7.44 11.9567 7.5888 11.7095H5.3136V13.2167H6.792L5.0232 14.9855C4.5456 14.7335 4.0056 14.5871 3.4272 14.5871C2.1432 14.5871 1.0224 15.2999 0.4344 16.3487C0.1608 16.8431 0 17.4119 0 18.0239ZM3.9288 17.7911C3.9288 17.9903 3.768 18.1511 3.5688 18.1511C3.3696 18.1511 3.2088 17.9903 3.2088 17.7911C3.2088 17.5919 3.3696 17.4311 3.5688 17.4311C3.7656 17.4311 3.9288 17.5919 3.9288 17.7911ZM1.9296 18.0239C1.9296 17.3759 2.3328 16.8335 2.8944 16.6175C3.0624 16.5551 3.2424 16.5167 3.4296 16.5167C3.4488 16.5167 3.468 16.5191 3.4872 16.5215L2.8008 17.2079C2.4072 17.6015 2.4072 18.2399 2.8008 18.6335C3.1944 19.0271 3.8328 19.0271 4.2264 18.6335L4.9248 17.9351C4.9272 17.9639 4.9296 17.9951 4.9296 18.0263C4.9296 18.8615 4.2552 19.5359 3.4296 19.5359C2.6016 19.5311 1.9296 18.8567 1.9296 18.0239Z" fill="currentColor"/>
<path d="M10.0297 12.5495C10.0297 13.1207 9.5665 13.5839 8.9929 13.5839C8.4217 13.5839 7.9585 13.1207 7.9585 12.5495C7.9585 11.9783 8.4217 11.5151 8.9929 11.5151C9.5665 11.5151 10.0297 11.9783 10.0297 12.5495Z" fill="currentColor"/>
<path d="M9.45117 10.5862H12.4176L12.1752 11.143H9.69357L9.45117 10.5862Z" fill="currentColor"/>
<path d="M12.5208 7.94387H12.4176V10.3559H9.45124V7.94387H9.34804C9.29764 7.94387 9.25684 7.90307 9.25684 7.85267C9.25684 7.80227 9.29764 7.76147 9.34804 7.76147H12.5208C12.5712 7.76147 12.612 7.80227 12.612 7.85267C12.612 7.90307 12.5712 7.94387 12.5208 7.94387Z" fill="currentColor"/>
<path d="M17.0735 7.14952H13.7639L13.4399 6.40552H17.3975L17.0735 7.14952Z" fill="currentColor"/>
<path d="M17.5345 2.88469H17.3977V6.10309H13.4401V2.88469H13.3033C13.2361 2.88469 13.1809 2.82949 13.1809 2.76229C13.1809 2.69509 13.2361 2.63989 13.3033 2.63989H17.5345C17.6017 2.63989 17.6569 2.69509 17.6569 2.76229C17.6569 2.82949 17.6017 2.88469 17.5345 2.88469Z" fill="currentColor"/>
<path d="M21.7991 20.136L22.4471 20.1432C22.7615 20.736 23.2463 21.1704 23.9999 21.2016L23.3615 20.7216C22.5743 20.0496 22.6079 17.7624 22.6127 16.8984V16.692H21.9191V13.2144H22.5047V11.7072H21.9191V11.0808H21.1079V11.7072H17.3687L16.4879 10.2408C16.5431 10.0896 16.5767 9.92878 16.5767 9.75838V7.44238H14.2991V9.76558C14.2991 10.1784 13.9655 10.512 13.5527 10.512C13.3415 10.512 13.1711 10.6824 13.1711 10.8936V11.1432H14.2991H14.8631H15.1943C15.5711 11.1432 15.9119 10.992 16.1615 10.7472L16.7375 11.7072H12.7607V13.2144H17.6423L21.7991 20.136ZM15.8759 8.31118C15.8759 8.56558 15.6695 8.77438 15.4127 8.77438C15.1583 8.77438 14.9495 8.56798 14.9495 8.31118C14.9495 8.05678 15.1559 7.84798 15.4127 7.84798C15.6695 7.84798 15.8759 8.05678 15.8759 8.31118ZM21.1079 13.2144V17.6592L20.8895 17.5704L18.2735 13.2144H21.1079ZM21.9191 17.9904V17.9856C21.9191 17.9856 21.9191 17.988 21.9191 17.9904Z" fill="currentColor"/>
<path d="M7.71132 11.1144H8.94972V9.15356H6.88092V10.4784H5.31372V11.1144H6.88092H7.71132ZM7.67052 9.79196C7.67052 9.52316 7.88892 9.30476 8.15772 9.30476C8.42652 9.30476 8.64492 9.52316 8.64492 9.79196C8.64492 10.0608 8.42652 10.2792 8.15772 10.2792C7.88892 10.2792 7.67052 10.0608 7.67052 9.79196Z" fill="currentColor"/>
<path d="M5.1119 10.2H4.8623V11.4288H5.1119V10.2Z" fill="currentColor"/>
<path d="M4.45908 10.9464C4.44468 10.992 4.40388 11.0256 4.35348 11.0256C4.29108 11.0256 4.24068 10.9752 4.24068 10.9128C4.24068 10.8528 4.28868 10.8048 4.34628 10.8024C4.34388 10.7928 4.33908 10.7832 4.33908 10.7712C4.33908 10.7496 4.34388 10.7304 4.35108 10.7112C4.28868 10.7112 4.23828 10.6608 4.23828 10.5984C4.23828 10.536 4.28868 10.4856 4.35108 10.4856C4.41348 10.4856 4.46148 10.536 4.46388 10.596C4.48308 10.5888 4.50468 10.584 4.52628 10.584H4.71348V10.9584H4.52628C4.50228 10.9608 4.48068 10.956 4.45908 10.9464Z" fill="currentColor"/>
<path d="M10.7329 15.2926C10.7329 15.6406 10.4497 15.9238 10.1017 15.9238C9.75366 15.9238 9.47046 15.6406 9.47046 15.2926C9.47046 14.9446 9.75366 14.6614 10.1017 14.6614C10.4497 14.6614 10.7329 14.9446 10.7329 15.2926Z" fill="currentColor"/>
<path d="M8.95429 14.191H8.99509C8.99989 14.191 9.00709 14.191 9.01189 14.191C8.72629 14.4718 8.55109 14.863 8.55109 15.2926C8.55109 15.9934 9.01669 16.5862 9.65509 16.7782C9.79669 16.8214 9.94549 16.8454 10.1015 16.8454C10.3271 16.8454 10.5431 16.795 10.7375 16.7086C10.9823 16.5982 11.1935 16.4254 11.3519 16.2118C11.5415 15.955 11.6543 15.6382 11.6543 15.295C11.6543 14.9518 11.5415 14.635 11.3519 14.3782C11.0735 14.0014 10.6295 13.7518 10.1279 13.7446C10.1927 13.6846 10.2503 13.6174 10.3031 13.5478C10.7111 13.5934 11.0759 13.7806 11.3519 14.0566V13.2142H10.4951C10.5863 13.0102 10.6367 12.787 10.6367 12.5494C10.6367 12.2398 10.5503 11.9542 10.4015 11.707H12.1631V12.0454V13.2142V16.7086H12.7487V14.0302H13.5599V16.6918H14.2535V16.8982C14.2487 17.7622 14.2151 20.0494 15.0023 20.7214L15.6407 21.2014C14.8799 21.1726 14.3903 20.731 14.0783 20.1286V20.4958H9.65509V16.9918C8.90149 16.7926 8.34229 16.1086 8.34229 15.2926C8.34229 14.8654 8.49349 14.4766 8.74789 14.1718C8.81509 14.1814 8.88469 14.1886 8.95429 14.191Z" fill="currentColor"/>
</g>
<defs>
<clipPath id="clip0_1437_804">
<rect width="24" height="18.8352" fill="currentColor" transform="translate(0 2.63989)"/>
</clipPath>
</defs>
</svg>
