<svg width="25" height="24" viewBox="0 0 25 24" fill="currentColor" xmlns="http://www.w3.org/2000/svg">
<g clip-path="url(#clip0_1420_1384)">
<path d="M3.24238 11.8848C1.51438 11.8848 0.10318 13.296 0.10318 15.0384C0.10318 16.7808 1.51438 18.192 3.24238 18.192C4.97758 18.192 6.38158 16.7808 6.38158 15.0384C6.38158 13.296 4.97998 11.8848 3.24238 11.8848ZM3.24238 16.4976C2.44078 16.4976 1.79038 15.8448 1.79038 15.0384C1.79038 14.2296 2.44318 13.572 3.24238 13.572C4.04638 13.572 4.69438 14.232 4.69438 15.0384C4.69438 15.8472 4.04638 16.4976 3.24238 16.4976Z" fill="currentColor"/>
<path d="M10.2096 5.75977H0.10318V11.0926H10.2096V5.75977Z" fill="currentColor"/>
<path d="M10.2096 11.8584H5.73599V11.8824C6.58799 12.4152 7.16399 13.344 7.20719 14.412H10.212V11.8584H10.2096Z" fill="currentColor"/>
<path d="M3.24238 11.8848C1.51438 11.8848 0.10318 13.296 0.10318 15.0384C0.10318 16.7808 1.51438 18.192 3.24238 18.192C4.97758 18.192 6.38158 16.7808 6.38158 15.0384C6.38158 13.296 4.97998 11.8848 3.24238 11.8848ZM3.24238 16.4976C2.44078 16.4976 1.79038 15.8448 1.79038 15.0384C1.79038 14.2296 2.44318 13.572 3.24238 13.572C4.04638 13.572 4.69438 14.232 4.69438 15.0384C4.69438 15.8472 4.04638 16.4976 3.24238 16.4976Z" fill="currentColor"/>
<path d="M10.2096 5.75977H0.10318V11.0926H10.2096V5.75977Z" fill="currentColor"/>
<path d="M10.2096 11.8584H5.73599V11.8824C6.58799 12.4152 7.16399 13.344 7.20719 14.412H10.212V11.8584H10.2096Z" fill="currentColor"/>
<path fill-rule="evenodd" clip-rule="evenodd" d="M24.1032 14.5126L22.4352 13.9438H12.2856V14.7262H24.1032V14.5126Z" fill="currentColor"/>
<path d="M13.068 8.76709H12.2856V13.9439H13.068V8.76709Z" fill="currentColor"/>
<path d="M12.3744 9.79395L10.2096 11.8579V13.1395L13.0464 10.4347L12.3744 9.79395Z" fill="currentColor"/>
<path d="M9.82797 10.7563L12.5016 9.36914H12.78L17.0088 14.0923" stroke="currentColor" stroke-width="0.3833" stroke-miterlimit="10"/>
</g>
<defs>
<clipPath id="clip0_1420_1384">
<rect width="24" height="12.432" fill="currentColor" transform="translate(0.10318 5.75977)"/>
</clipPath>
</defs>
</svg>
