<svg width="24" height="24" viewBox="0 0 24 24" fill="currentColor" xmlns="http://www.w3.org/2000/svg">
<g clip-path="url(#clip0_1422_1660)">
<path d="M18.6312 15.6313C18.5736 15.6121 18.5112 15.5977 18.4488 15.5977C18.1296 15.5977 17.8728 15.8569 17.8728 16.1761C17.8728 16.2361 17.8848 16.2961 17.9016 16.3513C17.976 16.5865 18.192 16.7569 18.4488 16.7569C18.768 16.7569 19.0248 16.4977 19.0248 16.1761C19.0248 15.9217 18.8592 15.7081 18.6312 15.6313ZM18.4488 16.4449C18.3024 16.4449 18.1824 16.3249 18.1824 16.1761C18.1824 16.0273 18.3024 15.9073 18.4488 15.9073C18.5952 15.9073 18.7152 16.0273 18.7152 16.1761C18.7152 16.3273 18.5952 16.4449 18.4488 16.4449Z" fill="currentColor"/>
<path d="M13.4904 16.3824C13.4473 15.9888 13.1521 15.6744 12.768 15.6096C12.72 15.6024 12.6745 15.5952 12.6241 15.5952H5.68325C5.20085 15.5952 4.80725 15.9912 4.80725 16.476C4.80725 16.9632 5.20085 17.3568 5.68325 17.3568H12.6216C13.104 17.3568 13.4977 16.9608 13.4977 16.476C13.4977 16.4424 13.4929 16.4136 13.4904 16.3824ZM5.68325 16.9776C5.40725 16.9776 5.18165 16.752 5.18165 16.4736C5.18165 16.1976 5.40725 15.972 5.68325 15.972C5.95925 15.972 6.18485 16.1976 6.18485 16.4736C6.18485 16.752 5.95925 16.9776 5.68325 16.9776ZM12.6216 16.9776C12.3456 16.9776 12.1224 16.752 12.1224 16.4736C12.1224 16.1976 12.3456 15.972 12.6216 15.972C12.8976 15.972 13.1233 16.1976 13.1233 16.4736C13.1233 16.752 12.9001 16.9776 12.6216 16.9776Z" fill="currentColor"/>
<path d="M23.8656 9.99598H23.5104V7.95838H23.8656C23.94 7.95838 24 7.89838 24 7.82398C24 7.74958 23.94 7.68958 23.8656 7.68958H23.5104V6.61438C23.5104 6.53998 23.4504 6.47998 23.376 6.47998H19.2048C19.1304 6.47998 19.0704 6.53998 19.0704 6.61438V7.68958H18.7992C18.7944 7.68958 18.7896 7.69198 18.7848 7.69198H18.6288H18.564H17.664V10.3968H18.5616V11.0064H17.8032L16.3512 10.4112L18.1056 12.2088H19.0152V12.828H23.796V11.6016H23.5104V10.2648H23.8656C23.94 10.2648 24 10.2048 24 10.1304C24 10.056 23.94 9.99598 23.8656 9.99598ZM22.2552 6.74878H23.2416V7.68958H22.2552V6.74878ZM22.2552 7.95838H23.2416V9.99598H22.2552V7.95838ZM20.4672 6.74878H21.984V7.68958H20.4672V6.74878ZM20.4672 7.95838H21.984V9.99598H20.4672V7.95838ZM21.9864 10.2624V11.5992H20.4696V10.2624H21.9864ZM19.3392 6.74878H20.2008V7.68958H19.3392V6.74878ZM19.3392 7.95838H20.2008V9.99598H19.3392V7.95838ZM20.2008 10.2624V11.5992H19.3392V10.2624H20.2008ZM22.2552 11.6016V10.2648H23.2416V11.6016H22.2552Z" fill="currentColor"/>
<path d="M17.6472 15.7751H16.6152L15.156 14.6711L14.8488 11.3399L16.7784 11.7671L15.4128 10.2407L14.7336 10.0967L14.4936 7.49748L13.9728 7.88628L14.0616 9.95268L7.6032 8.57748L7.6392 7.73508L7.1184 7.34388L7.0176 8.45028L0.6504 7.09668L0 7.47828L0.0336 14.1287L0.5784 14.5895L6.5616 13.3895L6.528 13.7591L4.8744 14.0159C4.8264 13.9679 4.8096 15.0551 4.8096 15.0551H13.5168L14.9808 16.2743V16.2887H17.5368C17.5296 16.2503 17.5272 16.2119 17.5272 16.1759C17.5272 16.0295 17.5704 15.8903 17.6472 15.7751ZM0.78 13.3007C0.5832 13.3007 0.4224 13.1399 0.4224 12.9431C0.4224 12.7463 0.5832 12.5855 0.78 12.5855C0.9768 12.5855 1.1376 12.7463 1.1376 12.9431C1.1376 13.1423 0.9768 13.3007 0.78 13.3007ZM0.78 9.20868C0.5832 9.20868 0.4224 9.04788 0.4224 8.85108C0.4224 8.65428 0.5832 8.49348 0.78 8.49348C0.9768 8.49348 1.1376 8.65428 1.1376 8.85108C1.1376 9.04788 0.9768 9.20868 0.78 9.20868ZM6.6936 11.9495L1.56 12.9767L1.5504 11.4935L6.4776 10.6415L6.4488 10.4687L6.84 10.4015L6.6936 11.9495ZM6.8664 10.0655L6.3888 10.1471L6.3576 9.97428L1.5432 10.8071L1.5264 8.39748L6.9096 9.58788L6.8664 10.0655ZM7.5552 9.72948L8.1096 9.85188L7.5456 9.95028L7.5552 9.72948ZM11.436 13.5311H8.0256L7.392 13.6295L7.4088 13.2239L11.436 12.4175V13.5311ZM11.436 10.9967L7.4688 11.7935L7.5312 10.2815L8.9472 10.0367L13.2912 10.9967H11.436ZM13.5144 13.6103V11.0447L14.112 11.1767L14.2344 14.0663L13.5144 13.6103ZM14.9808 15.7751V15.9047L14.9784 15.7847V14.9807L16.0248 15.7727H14.9808V15.7751Z" fill="currentColor"/>
<path d="M15.1104 8.12889C15.3251 8.12889 15.4992 7.80868 15.4992 7.41369C15.4992 7.01869 15.3251 6.69849 15.1104 6.69849C14.8956 6.69849 14.7216 7.01869 14.7216 7.41369C14.7216 7.80868 14.8956 8.12889 15.1104 8.12889Z" fill="currentColor"/>
<path d="M6.50159 7.97752C6.71759 7.97752 6.89039 7.65832 6.89039 7.26232C6.89039 6.86632 6.71519 6.54712 6.50159 6.54712C6.28559 6.54712 6.11279 6.86632 6.11279 7.26232C6.11279 7.65832 6.28559 7.97752 6.50159 7.97752Z" fill="currentColor"/>
</g>
<defs>
<clipPath id="clip0_1422_1660">
<rect width="24" height="10.8768" fill="currentColor" transform="translate(0 6.47998)"/>
</clipPath>
</defs>
</svg>
