<svg width="24" height="24" viewBox="0 0 24 24" fill="currentColor" xmlns="http://www.w3.org/2000/svg">
<g clip-path="url(#clip0_1418_880)">
<path d="M23.628 12.6289H16.4688V12.1705H14.1192L13.7496 11.3617C13.6944 11.1505 13.5024 11.0041 13.284 11.0041H12.4752V10.5769C12.4752 10.3033 12.252 10.0801 11.9784 10.0801C11.7048 10.0801 11.4816 10.3033 11.4816 10.5769V11.0017H10.6728C10.4544 11.0017 10.2624 11.1481 10.2072 11.3593L9.8376 12.1681H7.488V12.6289H0.2928L0 13.2385V13.8745L0.4512 13.8769V13.2361H7.488V13.4497H16.4712V13.2361H23.472V13.9249L23.9952 13.9273L24 13.2385L23.628 12.6289ZM11.9784 10.3321C12.0672 10.3321 12.1368 10.4041 12.1368 10.4905C12.1368 10.5793 12.0648 10.6489 11.9784 10.6489C11.8896 10.6489 11.82 10.5769 11.82 10.4905C11.8176 10.4017 11.8896 10.3321 11.9784 10.3321Z" fill="currentColor"/>
</g>
<defs>
<clipPath id="clip0_1418_880">
<rect width="24" height="3.8496" fill="currentColor" transform="translate(0 10.0801)"/>
</clipPath>
</defs>
</svg>
