<svg width="24" height="24" viewBox="0 0 24 24" fill="currentColor" xmlns="http://www.w3.org/2000/svg">
<g clip-path="url(#clip0_1437_1508)">
<path d="M8.9881 15.78C8.6713 15.2136 8.0665 14.8296 7.3753 14.8296C6.4705 14.8296 5.7193 15.4824 5.5585 16.344C5.5393 16.4544 5.5249 16.5672 5.5249 16.6824C5.5249 17.7096 6.3553 18.5424 7.3729 18.5424C8.3929 18.5424 9.2209 17.7072 9.2209 16.6824C9.2233 16.356 9.1369 16.0488 8.9881 15.78ZM7.3753 17.4984C6.9313 17.4984 6.5665 17.1336 6.5665 16.6848C6.5665 16.5624 6.5929 16.4496 6.6433 16.3464C6.7705 16.068 7.0513 15.8736 7.3753 15.8736C7.4761 15.8736 7.5745 15.8952 7.6633 15.9288C7.9657 16.0464 8.1841 16.3368 8.1841 16.6872C8.1841 17.1336 7.8217 17.4984 7.3753 17.4984Z" fill="currentColor"/>
<path d="M13.8409 15.78C13.5241 15.2136 12.9193 14.8296 12.2281 14.8296C11.3233 14.8296 10.5721 15.4824 10.4113 16.344C10.3921 16.4544 10.3777 16.5672 10.3777 16.6824C10.3777 17.7096 11.2081 18.5424 12.2257 18.5424C13.2457 18.5424 14.0737 17.7072 14.0737 16.6824C14.0761 16.356 13.9897 16.0488 13.8409 15.78ZM12.2257 17.4984C11.7817 17.4984 11.4169 17.1336 11.4169 16.6848C11.4169 16.5624 11.4433 16.4496 11.4937 16.3464C11.6209 16.068 11.9017 15.8736 12.2257 15.8736C12.3265 15.8736 12.4249 15.8952 12.5137 15.9288C12.8161 16.0464 13.0345 16.3368 13.0345 16.6872C13.0345 17.1336 12.6721 17.4984 12.2257 17.4984Z" fill="currentColor"/>
<path d="M20.16 17.328C20.0208 17.0784 19.7544 16.9104 19.4496 16.9104C19.0512 16.9104 18.72 17.1984 18.6504 17.5776C18.6408 17.6256 18.636 17.676 18.636 17.7264C18.636 18.1776 19.0008 18.5448 19.4496 18.5448C19.8984 18.5448 20.2632 18.1776 20.2632 17.7264C20.2656 17.5824 20.2272 17.448 20.16 17.328ZM19.452 18.084C19.2576 18.084 19.0968 17.9232 19.0968 17.7264C19.0968 17.6736 19.1088 17.6232 19.1304 17.5776C19.188 17.4552 19.3104 17.3688 19.452 17.3688C19.4976 17.3688 19.5384 17.3784 19.5792 17.3928C19.7112 17.4432 19.8072 17.5728 19.8072 17.7264C19.8072 17.9256 19.6488 18.084 19.452 18.084Z" fill="currentColor"/>
<path d="M20.0784 11.9785L15.7032 11.1289L13.6416 11.1673L15.8064 8.13847C15.8064 8.13847 18.5712 7.97287 19.9104 10.4905C20.076 10.7569 20.0784 11.9785 20.0784 11.9785Z" fill="currentColor"/>
<path d="M19.7304 13.6248C19.7112 13.6488 19.692 13.6752 19.6704 13.6968C19.3704 14.0328 19.0152 14.2536 18.588 14.3712L18.5544 14.5344L20.8296 14.9352L20.8608 14.1528C20.8608 14.1504 20.1312 13.8216 19.7304 13.6248Z" fill="currentColor"/>
<path d="M21.3553 12.9073L21.3409 14.1625L21.8857 14.7409L24.0001 14.8825V15.2569L21.0601 15.1921L21.1105 12.6121L21.3553 12.9073Z" fill="currentColor"/>
<path d="M4.71603 13.6946L0.794434 14.3138L0.885634 14.8562L4.66323 14.0186L4.71603 13.6946Z" fill="currentColor"/>
<path d="M0.367864 9.47103L-0.000732422 9.53662L0.808271 14.0826L1.17687 14.0171L0.367864 9.47103Z" fill="currentColor"/>
<path d="M1.69435 9.78491L1.32715 9.84971L1.53355 11.0113C1.55755 11.0089 1.69195 10.9849 1.90315 10.9489L1.69435 9.78491Z" fill="currentColor"/>
<path d="M15.6215 11.4385L4.34152 11.5177L4.52152 11.1841L5.97832 11.1793L6.00712 10.2241C5.99512 10.2241 5.54872 10.3033 4.94152 10.4113L5.54872 9.29286L6.59032 9.27846L6.59992 9.97686L6.35512 9.98406L6.32872 11.1841H13.3319L13.9271 10.3729L15.6191 8.00646L15.6839 7.91766L15.7943 7.91046C15.7991 7.91046 15.8399 7.90806 15.9119 7.90806C16.0391 7.90806 16.3031 7.91766 16.6487 7.97286C16.4471 7.68726 15.6407 7.39206 14.1335 7.37766C12.9215 7.36566 11.1407 7.36806 10.3823 7.36806C10.3799 7.36806 10.3775 7.36566 10.3727 7.36566H10.3703L10.0967 7.36806C10.0463 7.36806 10.0127 7.36806 10.0127 7.36806H10.0103L6.83992 7.40166L6.81592 5.65926C6.81592 5.58246 6.75352 5.52246 6.67672 5.52246H6.67432C6.59752 5.52246 6.53752 5.58726 6.53752 5.66406L6.56152 7.28166C6.54952 7.26006 6.53272 7.24086 6.51112 7.22886C6.44392 7.19286 6.35992 7.21686 6.32392 7.28406L6.25672 7.40886L6.05272 7.41126C5.97592 7.41126 5.91352 7.47366 5.91592 7.55046C5.91592 7.62726 5.97832 7.68726 6.05272 7.68726H6.05512H6.10552L5.38552 9.01686H5.31112C5.23432 9.01926 5.17192 9.08166 5.17432 9.15846C5.17432 9.20886 5.20552 9.25206 5.24632 9.27606L4.59832 10.4737C3.66232 10.6393 2.50072 10.8457 1.90552 10.9513L2.41672 13.8193L3.18472 13.6969L3.78952 11.1889L4.21192 11.1865L4.02712 11.5201H3.94792L3.47272 13.5001C3.47272 13.5001 16.5503 14.1553 17.4815 14.2225C18.4367 14.2921 19.0391 14.0545 19.4999 13.5409C19.8863 13.1089 20.0351 12.2617 20.0351 12.2617L15.6215 11.4385ZM8.26312 9.92886L6.87832 9.96726L6.86872 9.27126L8.60152 9.24486C8.41192 9.62406 8.26312 9.92886 8.26312 9.92886ZM9.54232 7.65366C9.40792 7.77126 9.26632 7.92966 9.15112 8.15046C9.03352 8.37846 8.88232 8.67846 8.73832 8.96646L6.86152 8.99526L6.84232 7.68006L9.54232 7.65366ZM6.41992 7.68246L6.56632 7.68006L6.58552 8.99526L5.69992 9.00966L6.41992 7.68246Z" fill="currentColor"/>
<path d="M1.53361 11.0112C1.53121 11.0112 1.53121 11.0112 1.52881 11.0112C1.47841 11.0112 0.859211 11.1792 1.05121 12.0816C1.24561 12.984 1.39681 13.9776 1.39681 13.9776L2.04241 13.8744L1.53361 11.0112ZM1.34161 11.8368C1.23841 11.8368 1.15441 11.7528 1.15441 11.6496C1.15441 11.5464 1.23841 11.4624 1.34161 11.4624C1.44481 11.4624 1.52881 11.5464 1.52881 11.6496C1.52881 11.7528 1.44481 11.8368 1.34161 11.8368Z" fill="currentColor"/>
<path d="M15.1585 14.3184C15.0553 15.3096 15.4465 16.1952 15.4465 16.1952C15.4465 16.1952 15.7969 16.3608 16.6009 16.8144C17.4049 16.8552 18.024 16.1136 18.024 16.1136V14.484L15.1585 14.3184ZM16.2409 16.2888C16.0801 16.2888 15.9505 16.1592 15.9505 15.9984C15.9505 15.8376 16.0801 15.708 16.2409 15.708C16.4017 15.708 16.5313 15.8376 16.5313 15.9984C16.5313 16.1568 16.4017 16.2888 16.2409 16.2888Z" fill="currentColor"/>
<path d="M14.9257 14.3088L4.85769 13.7712L4.84569 14.0808L4.40649 14.184L5.59929 15.6024C5.96649 14.9952 6.63129 14.5992 7.37529 14.5992C8.12649 14.5992 8.82009 15.0096 9.18969 15.6672C9.35529 15.9672 9.44649 16.3032 9.45369 16.6416L10.1473 16.6728C10.1473 16.5552 10.1593 16.4328 10.1833 16.3008C10.3657 15.3144 11.2249 14.5968 12.2281 14.5968C12.9169 14.5968 13.5601 14.9424 13.9465 15.5112H15.0025C14.9305 15.1752 14.8825 14.7552 14.9257 14.3088Z" fill="currentColor"/>
<path d="M20.0064 16.428C19.9272 16.3368 19.8072 16.212 19.6272 16.068C19.2408 15.7584 18.5568 15.6816 18.2592 15.7464C18.2592 15.7464 18.2592 15.7464 18.2544 15.744V16.1136V16.1976L18.2016 16.2624C18.1776 16.2912 17.6808 16.8768 16.968 17.0184C17.2608 17.5632 18.036 17.6184 18.4608 17.604C18.4632 17.5848 18.4656 17.5656 18.468 17.5464C18.552 17.0952 18.9312 16.7616 19.3848 16.7328L19.368 16.5888L19.716 16.7664C19.7352 16.7712 19.7544 16.7784 19.7712 16.7832C19.8456 16.8096 19.932 16.788 19.9896 16.7328C20.076 16.6488 20.0832 16.5168 20.0064 16.428ZM19.8216 16.6608C19.7616 16.6608 19.7112 16.6104 19.7112 16.5504C19.7112 16.4904 19.7616 16.44 19.8216 16.44C19.8816 16.44 19.932 16.4904 19.932 16.5504C19.932 16.6128 19.8816 16.6608 19.8216 16.6608Z" fill="currentColor"/>
<path d="M20.8416 13.8577L20.8584 12.9265H20.5344L20.2368 13.5889L20.8416 13.8577Z" fill="currentColor"/>
<path d="M21.6096 13.5098V13.9922C21.6096 13.9922 22.0224 13.9658 22.3104 13.997C22.5984 14.0282 22.7352 14.0666 22.8744 14.1266C23.0112 14.1866 23.112 14.2346 23.1744 14.2202C23.2368 14.2058 23.3328 14.0954 23.3208 13.9418C23.3088 13.7882 23.2008 13.685 23.0208 13.7234C22.8408 13.7618 22.8408 13.7402 22.8408 13.7618C22.8408 13.7834 22.5648 13.8122 22.2696 13.7402C21.9744 13.6682 21.6096 13.5098 21.6096 13.5098Z" fill="currentColor"/>
</g>
<defs>
<clipPath id="clip0_1437_1508">
<rect width="24" height="13.0248" fill="currentColor" transform="translate(0 5.52002)"/>
</clipPath>
</defs>
</svg>
