<svg width="24" height="24" viewBox="0 0 24 24" fill="currentColor" xmlns="http://www.w3.org/2000/svg">
<g clip-path="url(#clip0_1413_2788)">
<path d="M21.6576 16.985C21.6528 17.441 21.2856 17.8058 20.8368 17.801C20.388 17.7962 20.0256 17.4242 20.0304 16.9706C20.0352 16.517 20.4024 16.1498 20.8512 16.1546C21.3024 16.1594 21.6624 16.5314 21.6576 16.985ZM20.8392 16.6226C20.6496 16.6202 20.496 16.7738 20.4936 16.9658C20.4912 17.1578 20.6424 17.3138 20.832 17.3162C21.0216 17.3186 21.1752 17.165 21.1776 16.973C21.18 16.781 21.0288 16.625 20.8392 16.6226Z" fill="currentColor"/>
<path d="M19.1111 16.985C19.1063 17.4386 18.7391 17.8058 18.2903 17.801C17.8415 17.7962 17.4791 17.4242 17.4839 16.9706C17.4887 16.517 17.8559 16.1498 18.3047 16.1546C18.7559 16.1594 19.1159 16.5314 19.1111 16.985ZM18.2927 16.6226C18.1031 16.6202 17.9495 16.7738 17.9471 16.9658C17.9447 17.1578 18.0959 17.3138 18.2855 17.3162C18.4751 17.3186 18.6287 17.165 18.6311 16.973C18.6335 16.781 18.4823 16.625 18.2927 16.6226Z" fill="currentColor"/>
<path d="M2.95677 16.8505C2.95197 17.3809 2.52237 17.8057 1.99917 17.8009C1.47597 17.7961 1.05597 17.3617 1.06077 16.8337C1.06557 16.3033 1.49517 15.8785 2.01837 15.8833C2.54157 15.8881 2.96157 16.3225 2.95677 16.8505ZM2.00157 16.4281C1.78077 16.4257 1.60077 16.6057 1.59837 16.8289C1.59597 17.0521 1.77357 17.2345 1.99437 17.2369C2.21517 17.2393 2.39517 17.0593 2.39757 16.8385C2.39997 16.6129 2.22237 16.4305 2.00157 16.4281Z" fill="currentColor"/>
<path d="M8.53197 15.5209L8.55117 10.4569L5.32557 10.4257V8.58488H1.53117L1.50237 7.92248C1.50237 7.92248 2.06637 6.84008 1.91997 6.57608C1.70157 6.18008 1.61517 6.24248 1.42317 6.15848C1.02957 5.98568 0.14877 5.91368 0.0623703 6.15848C-0.0264297 6.40328 -0.0528297 6.85928 0.21357 7.31768C0.48237 7.77608 0.58797 7.94168 0.58797 7.94168L0.64077 8.58728H0.30477L0.37917 13.6729L0.00957034 13.9585L0.00237034 16.7689L0.72477 17.2129C0.69117 17.0905 0.67197 16.9633 0.67197 16.8289C0.67917 16.0921 1.27917 15.4945 2.00877 15.4945H2.02077H2.02317C2.38077 15.4969 2.71677 15.6409 2.96637 15.9001C3.21597 16.1569 3.35037 16.4953 3.34797 16.8553C3.34797 16.9105 3.33837 16.9633 3.33117 17.0161H17.1C17.1 16.9993 17.0976 16.9825 17.0976 16.9657C17.1048 16.3033 17.6424 15.7657 18.3 15.7657H18.3096H18.312C18.6336 15.7681 18.936 15.8977 19.1592 16.1305C19.3824 16.3609 19.5048 16.6657 19.5024 16.9897C19.5024 16.9993 19.5 17.0065 19.5 17.0161H19.6464C19.6464 16.9993 19.644 16.9825 19.644 16.9657C19.6512 16.3033 20.1888 15.7657 20.8464 15.7657H20.856H20.8584C21.18 15.7681 21.4824 15.8977 21.7056 16.1305C21.9288 16.3609 22.0512 16.6657 22.0488 16.9897C22.0488 16.9993 22.0464 17.0065 22.0464 17.0161H23.9832L24.0024 15.6265L8.53197 15.5209ZM8.07837 14.1673H5.46237V11.9017L8.07837 11.8681V14.1673Z" fill="currentColor"/>
</g>
<defs>
<clipPath id="clip0_1413_2788">
<rect width="24" height="11.8008" fill="currentColor" transform="translate(0 6)"/>
</clipPath>
</defs>
</svg>
