<svg width="24" height="24" viewBox="0 0 24 24" fill="currentColor" xmlns="http://www.w3.org/2000/svg">
<g clip-path="url(#clip0_1413_1347)">
<path d="M21.2448 19.5312H16.9056V17.0472H16.2336V13.812H15.5232V20.1792H16.2144H16.2336H16.9056V20.1672H21.288C21.4128 20.1672 23.9976 20.136 23.9976 20.0088V19.8384C24 19.6512 21.3696 19.5312 21.2448 19.5312Z" fill="currentColor"/>
<path d="M0.585588 10.6008L0.587988 10.5528C0.319188 10.5696 0.585588 10.6008 0.585588 10.6008Z" fill="currentColor"/>
<path d="M2.29677 19.6608C1.79277 19.6608 1.38477 20.0688 1.38477 20.5728C1.38477 21.0768 1.79277 21.4848 2.29677 21.4848C2.80077 21.4848 3.20877 21.0768 3.20877 20.5728C3.20637 20.0688 2.79837 19.6608 2.29677 19.6608ZM2.30157 21.2472C1.91997 21.2472 1.61037 20.9376 1.61037 20.556C1.61037 20.1744 1.91997 19.8648 2.30157 19.8648C2.68317 19.8648 2.99277 20.1744 2.99277 20.556C2.99277 20.9376 2.68317 21.2472 2.30157 21.2472Z" fill="currentColor"/>
<path d="M11.9904 18.5568C11.0832 18.5568 10.3488 19.2912 10.3488 20.1984C10.3488 21.1056 11.0832 21.84 11.9904 21.84C12.8976 21.84 13.632 21.1056 13.632 20.1984C13.632 19.2912 12.8976 18.5568 11.9904 18.5568ZM12 21.4176C11.3112 21.4176 10.7544 20.8608 10.7544 20.172C10.7544 19.4832 11.3112 18.9264 12 18.9264C12.6888 18.9264 13.2456 19.4832 13.2456 20.172C13.2456 20.8608 12.6888 21.4176 12 21.4176Z" fill="currentColor"/>
<path d="M11.46 2.67117V3.19917H12.9456L12.9744 7.25997H11.796V8.17437H12.9792L13.0176 14.2632L10.5 13.1736C10.2912 12.552 10.0872 11.9712 10.0176 11.88C9.86396 11.6712 7.91036 10.5888 7.91036 10.5888L6.42236 2.93517H6.64316L6.63116 2.16957C6.63116 2.16957 1.72076 2.14797 0.95996 2.16957C0.19916 2.19117 0.25676 2.63997 0.25676 2.63997L0.25436 2.96637H0.40796L0.25436 10.7544C-0.0120401 10.8648 -4.01084e-05 11.2176 -4.01084e-05 11.2176L0.0767599 19.3176L0.46316 21.0048L0.67196 21.0384L0.92396 21.0336C0.87596 20.892 0.84956 20.7384 0.84956 20.5824C0.84956 19.7856 1.49756 19.1352 2.29676 19.1352C3.09596 19.1352 3.74396 19.7832 3.74396 20.5824C3.74396 20.724 3.72236 20.8608 3.68396 20.9904L9.85916 20.8896C9.79676 20.6832 9.76076 20.4648 9.76076 20.2368C9.76076 19.0032 10.764 17.9976 12 17.9976C12.0264 17.9976 12.0504 18 12.0744 18.0024L11.0328 14.8176C11.0328 14.8176 10.9344 14.5032 10.7976 14.0808L13.0224 14.8896L13.044 18.2568C13.7544 18.6312 14.2416 19.3776 14.2416 20.2368C14.2416 20.532 14.1816 20.8152 14.0784 21.072H14.8272V2.67117H11.46ZM1.04876 2.96397H5.85116L7.27916 10.5552L0.94556 10.5528L1.04876 2.96397ZM2.91836 15.2136C2.91836 15.276 2.87516 15.3288 2.82236 15.3288H2.50316V15.708C2.50316 15.7704 2.45996 15.8232 2.40716 15.8232H2.15996C2.10716 15.8232 2.06396 15.7728 2.06396 15.708V15.3288H1.74476C1.69196 15.3288 1.64876 15.2784 1.64876 15.2136V14.916C1.64876 14.8536 1.69196 14.8008 1.74476 14.8008H2.06396V14.4192C2.06396 14.3568 2.10716 14.3064 2.15996 14.3064H2.40956C2.46236 14.3064 2.50556 14.3568 2.50556 14.4192V14.8008H2.82476C2.87756 14.8008 2.92076 14.8512 2.92076 14.916V15.2136H2.91836ZM5.31356 15.3744L3.55916 17.4576C3.54956 17.4696 3.53276 17.4768 3.51836 17.4768C3.50876 17.4768 3.49916 17.4744 3.48956 17.4696C3.46556 17.4552 3.45836 17.4264 3.46796 17.4024L4.07996 15.9432H3.51596C3.49676 15.9432 3.47996 15.9336 3.47036 15.9168C3.46076 15.9 3.45836 15.8808 3.46796 15.864L4.29116 14.22C4.30076 14.2008 4.31996 14.1888 4.33916 14.1888H5.21516C5.23436 14.1888 5.25356 14.2008 5.26316 14.2176C5.27276 14.2344 5.27276 14.256 5.26076 14.2728L4.61996 15.2856H5.27036C5.29196 15.2856 5.31116 15.2976 5.32076 15.3168C5.32796 15.336 5.32556 15.36 5.31356 15.3744ZM7.13996 15.2064C7.13996 15.2736 7.09436 15.3264 7.03916 15.3264H6.06476C6.00956 15.3264 5.96396 15.2736 5.96396 15.2064V14.9208C5.96396 14.8536 6.00956 14.8008 6.06476 14.8008H7.03916C7.09436 14.8008 7.13996 14.8536 7.13996 14.9208V15.2064ZM8.55836 12.8184V20.3616H8.33996V12.8184H0.58556V12.6H8.33756H8.55596V12.8184H8.55836Z" fill="currentColor"/>
</g>
<defs>
<clipPath id="clip0_1413_1347">
<rect width="24" height="19.68" fill="currentColor" transform="translate(0 2.15997)"/>
</clipPath>
</defs>
</svg>
