<svg width="24" height="24" viewBox="0 0 24 24" fill="currentColor" xmlns="http://www.w3.org/2000/svg">
<g clip-path="url(#clip0_1413_2784)">
<path d="M6.77285 17.3715C6.77285 17.6571 6.54245 17.8875 6.25684 17.8875C5.97124 17.8875 5.74084 17.6571 5.74084 17.3715C5.74084 17.0859 5.97124 16.8555 6.25684 16.8555C6.54245 16.8555 6.77285 17.0859 6.77285 17.3715ZM6.25204 17.1483C6.13204 17.1483 6.03604 17.2467 6.03604 17.3643C6.03604 17.4843 6.13204 17.5803 6.25204 17.5803C6.37204 17.5803 6.46805 17.4843 6.46805 17.3643C6.46805 17.2443 6.37204 17.1483 6.25204 17.1483Z" fill="currentColor"/>
<path d="M22.2576 17.7338C22.2576 17.9258 22.1016 18.0794 21.912 18.0794C21.72 18.0794 21.5664 17.9234 21.5664 17.7338C21.5664 17.5418 21.7224 17.3882 21.912 17.3882C22.104 17.3858 22.2576 17.5418 22.2576 17.7338ZM21.9072 17.5826C21.8256 17.5826 21.7608 17.6474 21.7608 17.729C21.7608 17.8082 21.8256 17.8754 21.9072 17.8754C21.9864 17.8754 22.0536 17.8106 22.0536 17.729C22.0536 17.6498 21.9888 17.5826 21.9072 17.5826Z" fill="currentColor"/>
<path d="M24 17.3906C24 17.3378 23.9016 16.7186 23.9016 16.7186L10.5552 16.817C10.5552 16.817 10.5024 10.3634 10.5024 9.71056C10.5024 9.05776 10.3944 8.79136 10.176 8.61616C10.032 8.49856 9.84722 8.44336 9.24722 8.30176C8.64722 8.16016 7.04882 8.22736 6.65042 8.29696C6.25202 8.36656 6.09362 8.40256 5.94242 8.56096C5.79122 8.71936 5.32322 10.2218 5.23442 10.5938C5.14562 10.9658 5.07602 12.4586 5.07602 12.4586L4.98722 13.5026C4.98722 13.5026 4.89842 16.0034 4.88162 16.2338C4.86482 16.4642 4.90802 16.9226 4.99682 17.1098C5.04962 17.2178 5.23682 17.3114 5.38322 17.3714C5.38562 16.8914 5.77442 16.5026 6.25442 16.5026C6.73442 16.5026 7.12562 16.8938 7.12562 17.3738C7.12562 17.477 7.10402 17.5754 7.07042 17.6666C7.10642 17.6978 7.14002 17.7026 7.14002 17.7026L10.1664 17.7194L10.3344 17.6138L18.1128 17.5874L18.2544 17.7194L19.368 17.8778L21.2232 17.8706C21.2136 17.8274 21.2088 17.7818 21.2088 17.7362C21.2088 17.3498 21.5232 17.0354 21.9096 17.0354C22.296 17.0354 22.6104 17.3498 22.6104 17.7362C22.6104 17.741 22.608 17.7482 22.608 17.753C23.0136 17.6594 24 17.4314 24 17.3906Z" fill="currentColor"/>
<path d="M3.65041 7.77612C3.65041 7.77612 3.39601 7.51452 3.11761 6.98172C2.83681 6.45132 2.70721 6.10332 2.33281 6.02892C1.96081 5.95692 0.928812 6.04092 0.928812 6.04092C0.928812 6.04092 0.674412 6.70812 0.842412 6.78492C1.01041 6.86412 1.26001 6.96252 1.46641 6.97692C1.67281 6.99372 2.37841 7.10172 2.37841 7.10172C2.37841 7.10172 2.55361 7.55292 2.72401 7.81692C2.89441 8.08092 3.12481 8.17932 3.41761 8.35932C3.71041 8.53932 4.54801 9.03612 4.54801 9.03612L4.66321 9.54972H4.88401L5.21041 8.64252L3.65041 7.77612Z" fill="currentColor"/>
<path d="M0.0672 16.7042H4.4136V16.1738H0.0672C0.0312 16.1738 0 16.2026 0 16.241V16.637C0 16.673 0.0312 16.7042 0.0672 16.7042Z" fill="currentColor"/>
</g>
<defs>
<clipPath id="clip0_1413_2784">
<rect width="24" height="12.0792" fill="currentColor" transform="translate(0 6)"/>
</clipPath>
</defs>
</svg>
