<svg width="24" height="24" viewBox="0 0 24 24" fill="currentColor" xmlns="http://www.w3.org/2000/svg">
<g clip-path="url(#clip0_1413_2509)">
<path d="M6.35516 23.4047C6.35516 23.7287 6.09356 23.9903 5.76956 23.9903C5.44556 23.9903 5.18396 23.7287 5.18396 23.4047C5.18396 23.0807 5.44556 22.8191 5.76956 22.8191C6.09356 22.8191 6.35516 23.0831 6.35516 23.4047ZM5.76236 23.1527C5.62556 23.1527 5.51516 23.2631 5.51516 23.3999C5.51516 23.5367 5.62556 23.6471 5.76236 23.6471C5.89916 23.6471 6.00956 23.5367 6.00956 23.3999C6.00956 23.2631 5.89916 23.1527 5.76236 23.1527Z" fill="currentColor"/>
<path d="M19.5935 23.5295C19.5935 23.7887 19.3823 23.9999 19.1231 23.9999C18.8639 23.9999 18.6527 23.7887 18.6527 23.5295C18.6527 23.2703 18.8639 23.0591 19.1231 23.0591C19.3823 23.0615 19.5935 23.2703 19.5935 23.5295ZM19.1183 23.3279C19.0103 23.3279 18.9215 23.4167 18.9215 23.5247C18.9215 23.6327 19.0103 23.7215 19.1183 23.7215C19.2263 23.7215 19.3151 23.6327 19.3151 23.5247C19.3151 23.4167 19.2263 23.3279 19.1183 23.3279Z" fill="currentColor"/>
<path d="M17.7768 15.6288H13.8528V13.3824H13.2456V10.4568H12.6024V16.2168H13.2288H13.248H13.8552V16.2072H17.82C17.9328 16.2072 20.2728 16.1784 20.2728 16.0632V15.9096C20.2704 15.7368 17.8896 15.6288 17.7768 15.6288Z" fill="currentColor"/>
<path d="M18.7176 22.7593H12.2688V23.3881L18.2616 23.3809C18.3096 23.1097 18.4824 22.8841 18.7176 22.7593Z" fill="currentColor"/>
<path d="M20.2728 22.7593H19.5288C19.7664 22.8841 19.9392 23.1121 19.9848 23.3857L20.2728 23.3881V22.7593Z" fill="currentColor"/>
<path d="M10.5048 0V0.2832H10.8936V7.176L9.68157 7.6032V8.5896L10.8432 8.8992V14.2176H8.57997V13.8048L7.89597 13.5528V13.1328C7.89597 12.8592 7.67517 12.6384 7.40157 12.636L7.38237 8.7768L8.04957 7.86L8.06637 7.524L8.74317 7.5264L9.00717 7.08L3.83997 7.092L3.84717 7.524H4.39437V14.2152H4.17837V23.3808H4.77837C4.79037 22.8456 5.22957 22.4136 5.76717 22.4136C6.30477 22.4136 6.74397 22.8456 6.75597 23.3808H11.8272V0.2952L12.2208 0.288V0H10.5048ZM4.89357 14.2176V7.5192L5.84397 7.5216V7.8624L6.49437 8.7672L6.53517 12.6384H5.85117C5.57757 12.6384 5.35437 12.8616 5.35437 13.1352V14.22H4.89357V14.2176Z" fill="currentColor"/>
</g>
<defs>
<clipPath id="clip0_1413_2509">
<rect width="16.4328" height="24" fill="currentColor" transform="translate(3.83997)"/>
</clipPath>
</defs>
</svg>
