<svg width="24" height="24" viewBox="0 0 24 24" fill="currentColor" xmlns="http://www.w3.org/2000/svg">
<g clip-path="url(#clip0_1437_2633)">
<path d="M7.95122 14.3232C6.36242 14.3232 5.03762 15.4728 4.75682 16.9872C4.72082 17.1816 4.69922 17.3808 4.69922 17.5848C4.69922 19.3896 6.16082 20.8584 7.95122 20.8584C9.74402 20.8584 11.2032 19.3896 11.2032 17.5848C11.2032 17.0064 11.052 16.4664 10.788 15.996C10.2312 14.9976 9.17042 14.3232 7.95122 14.3232ZM7.95122 19.0152C7.16882 19.0152 6.53042 18.3744 6.53042 17.5848C6.53042 17.3712 6.57842 17.1696 6.66242 16.9872C6.88802 16.4976 7.38002 16.1544 7.95122 16.1544C8.13122 16.1544 8.30162 16.1904 8.46002 16.2504C8.99282 16.4544 9.37442 16.9704 9.37442 17.5824C9.37442 18.3744 8.73602 19.0152 7.95122 19.0152Z" fill="currentColor"/>
<path d="M23.7766 17.6208C23.623 17.3472 23.3998 17.1192 23.131 16.9632L23.3854 16.3896H22.3942L22.3462 16.728C22.315 16.7256 22.2862 16.7256 22.255 16.7256C21.4006 16.7256 20.6902 17.3424 20.539 18.156C20.5198 18.2592 20.5078 18.3672 20.5078 18.4776C20.5078 19.4472 21.2926 20.2344 22.2526 20.2344C23.215 20.2344 23.9974 19.4472 23.9974 18.4776C23.9998 18.1656 23.9182 17.8752 23.7766 17.6208ZM22.255 19.2432C21.835 19.2432 21.4918 18.9 21.4918 18.4752C21.4918 18.36 21.5182 18.252 21.5638 18.1536C21.679 17.904 21.9214 17.7288 22.207 17.7096L22.1038 18.432C22.0918 18.5208 22.147 18.6048 22.2334 18.6288C22.3174 18.6504 22.4062 18.6096 22.4398 18.528L22.7302 17.8728C22.9054 18.012 23.0182 18.228 23.0182 18.4728C23.0182 18.9 22.675 19.2432 22.255 19.2432Z" fill="currentColor"/>
<path d="M0 16.9369H4.3536C4.356 16.9297 4.356 16.9225 4.3584 16.9129C4.3848 16.7737 4.4184 16.6369 4.4592 16.5049H0V16.9369Z" fill="currentColor"/>
<path d="M18.1606 15.7393H22.4062V16.1713H23.5558V15.7393V15.6409V14.5153H18.1606V11.8849L16.903 10.5697H11.1574V13.7545H10.6222V10.2289L6.83503 5.90652L6.62623 5.96172V3.31452C6.62623 3.20652 6.53983 3.12012 6.43183 3.12012C6.32383 3.12012 6.23743 3.20652 6.23743 3.31452V6.06732L4.99663 6.40332L5.94223 10.2289V10.5457L4.39663 10.3705L4.89583 6.35772L4.64383 6.32652C4.32223 6.28572 4.02703 6.51612 3.98863 6.83772L3.51103 10.6825C3.47023 11.0041 3.70063 11.2993 4.02223 11.3377L4.27423 11.3689L4.35823 10.6993L5.94463 10.8793V14.5201C6.52543 14.1385 7.21663 13.9177 7.95103 13.9177C9.24703 13.9177 10.4518 14.6137 11.1094 15.7393L11.1598 15.8257C11.3326 16.1401 11.455 16.4785 11.5294 16.8265H11.9806V19.8913H19.5766V16.6993H18.1606V15.7393Z" fill="currentColor"/>
</g>
<defs>
<clipPath id="clip0_1437_2633">
<rect width="24" height="17.736" fill="currentColor" transform="translate(0 3.12012)"/>
</clipPath>
</defs>
</svg>
