<svg width="24" height="24" viewBox="0 0 24 24" fill="currentColor" xmlns="http://www.w3.org/2000/svg">
<g clip-path="url(#clip0_1417_1903)">
<path d="M21.768 16.188C22.7208 16.188 23.4912 16.9584 23.4912 17.9112C23.4912 18.864 22.7208 19.6344 21.768 19.6344C20.8152 19.6344 20.0448 18.864 20.0448 17.9112C20.0448 16.9584 20.8152 16.188 21.768 16.188ZM21.0624 17.892C21.0624 18.2928 21.3864 18.6168 21.7872 18.6168C22.188 18.6168 22.512 18.2928 22.512 17.892C22.512 17.4912 22.188 17.1672 21.7872 17.1672C21.3864 17.1672 21.0624 17.4912 21.0624 17.892Z" fill="currentColor"/>
<path d="M8.35921 8.96887H8.02081C8.02081 8.96887 8.02081 4.56247 8.02081 4.51927C8.02081 4.47607 8.03761 4.32007 8.30641 4.32007C8.64721 4.32007 8.52961 4.73047 8.65681 5.23927C8.78401 5.74807 9.24961 6.34087 9.46081 7.02007C9.67201 7.69687 9.46081 8.54647 9.46081 8.54647C9.46081 8.54647 9.24961 8.97127 9.63121 9.05527C10.0128 9.13927 12.5568 9.44167 12.8928 9.49207C13.3872 9.56407 13.4544 9.88567 13.3848 10.1449C13.308 10.4401 13.1472 10.5385 12.8088 10.5385C12.4704 10.5385 9.37681 10.4953 9.37681 10.4953C9.37681 10.4953 8.35921 10.5385 8.35921 8.96887Z" fill="currentColor"/>
<path d="M3.93361 14.8826C5.25841 14.8826 6.33122 15.9554 6.33122 17.2802C6.33122 18.605 5.25841 19.6778 3.93361 19.6778C2.60881 19.6778 1.53601 18.605 1.53601 17.2802C1.53361 15.9578 2.60881 14.8826 3.93361 14.8826ZM2.94961 17.2562C2.94961 17.813 3.40081 18.2642 3.95761 18.2642C4.51442 18.2642 4.96562 17.813 4.96562 17.2562C4.96562 16.6994 4.51442 16.2458 3.95761 16.2458C3.40081 16.2458 2.94961 16.6994 2.94961 17.2562Z" fill="currentColor"/>
<path d="M19.0488 4.72095C18.948 4.54815 18.7272 4.49055 18.5544 4.59135L15.276 6.50415C15.1032 6.60495 15.0456 6.82575 15.1464 6.99855C15.2136 7.11375 15.3336 7.17855 15.4584 7.17855C15.5208 7.17855 15.5832 7.16175 15.6408 7.13055L16.8552 6.42255L17.7696 7.77135L18.5808 6.77535L17.9784 5.76735L18.9168 5.22015C19.092 5.11455 19.1496 4.89375 19.0488 4.72095Z" fill="currentColor"/>
<path d="M7.2 11.0424V5.94482H0.0072V11.04H0V12.1032H12.9192V11.04L7.2 11.0424ZM2.0688 8.22722C2.0688 8.29442 2.0232 8.34962 1.9656 8.34962H1.6248V8.75762C1.6248 8.82482 1.5792 8.88002 1.5216 8.88002H1.2552C1.1976 8.88002 1.152 8.82482 1.152 8.75762V8.34962H0.8088C0.7512 8.34962 0.7056 8.29442 0.7056 8.22722V7.90802C0.7056 7.84082 0.7512 7.78562 0.8088 7.78562H1.152V7.37762C1.152 7.31042 1.1976 7.25522 1.2552 7.25522H1.5216C1.5792 7.25522 1.6248 7.31042 1.6248 7.37762V7.78562H1.968C2.0256 7.78562 2.0712 7.84082 2.0712 7.90802V8.22722H2.0688ZM4.6344 8.40002L2.7552 10.632C2.7432 10.6464 2.7264 10.6536 2.7096 10.6536C2.7 10.6536 2.688 10.6512 2.6784 10.644C2.6544 10.6296 2.6448 10.5984 2.6544 10.572L3.312 9.00722H2.7072C2.688 9.00722 2.6688 8.99762 2.6568 8.97842C2.6472 8.96162 2.6448 8.94002 2.6544 8.92082L3.5352 7.15682C3.5448 7.13762 3.5664 7.12322 3.588 7.12322H4.5288C4.5504 7.12322 4.5696 7.13522 4.5792 7.15442C4.5888 7.17362 4.5888 7.19522 4.5768 7.21442L3.8904 8.29922H4.5864C4.6104 8.29922 4.6296 8.31362 4.6392 8.33282C4.6536 8.35922 4.6512 8.38322 4.6344 8.40002ZM6.5928 8.22002C6.5928 8.29202 6.5448 8.34962 6.4848 8.34962H5.4408C5.3808 8.34962 5.3328 8.29202 5.3328 8.22002V7.91522C5.3328 7.84322 5.3808 7.78562 5.4408 7.78562H6.4848C6.5448 7.78562 6.5928 7.84322 6.5928 7.91522V8.22002Z" fill="currentColor"/>
<path d="M23.1744 14.8753L21.648 8.05448L18.936 7.20728L17.7504 8.64728L18.5976 15.5113L12.9312 15.4273L12.9216 12.7153L0.0383911 12.6841L0.0815911 17.5225H0.856791C0.849591 17.4433 0.844791 17.3617 0.844791 17.2801C0.844791 15.5785 2.22959 14.1913 3.93359 14.1913C5.63759 14.1913 7.02239 15.5761 7.02239 17.2801C7.02239 17.5897 6.97199 17.8873 6.88559 18.1681H18.528L19.4688 18.1345C19.4616 18.0601 19.4568 17.9857 19.4568 17.9089C19.4568 16.6321 20.496 15.5953 21.7704 15.5953C22.4832 15.5953 23.1216 15.9193 23.5464 16.4281L24.0024 16.4329V14.8753H23.1744Z" fill="currentColor"/>
</g>
<defs>
<clipPath id="clip0_1417_1903">
<rect width="24" height="15.36" fill="currentColor" transform="translate(0 4.32007)"/>
</clipPath>
</defs>
</svg>
