<svg width="24" height="24" viewBox="0 0 24 24" fill="currentColor" xmlns="http://www.w3.org/2000/svg">
<g clip-path="url(#clip0_1418_862)">
<path d="M18.5664 21.8495C18.456 21.8111 18.3384 21.7871 18.216 21.7871C17.6088 21.7871 17.1144 22.2791 17.1144 22.8911C17.1144 23.0087 17.1384 23.1191 17.1696 23.2247C17.3112 23.6711 17.724 23.9975 18.2136 23.9975C18.8208 23.9975 19.3128 23.5007 19.3128 22.8911C19.3176 22.4039 19.0008 21.9959 18.5664 21.8495ZM18.216 23.4047C17.9352 23.4047 17.7072 23.1767 17.7072 22.8935C17.7072 22.6103 17.9352 22.3799 18.216 22.3799C18.4968 22.3799 18.7248 22.6079 18.7248 22.8935C18.7272 23.1743 18.4968 23.4047 18.216 23.4047Z" fill="currentColor"/>
<path d="M15.3936 21.8495C15.2832 21.8111 15.1656 21.7871 15.0432 21.7871C14.436 21.7871 13.9416 22.2791 13.9416 22.8911C13.9416 23.0087 13.9656 23.1191 13.9968 23.2247C14.1384 23.6711 14.5512 23.9975 15.0408 23.9975C15.648 23.9975 16.14 23.5007 16.14 22.8911C16.1424 22.4039 15.828 21.9959 15.3936 21.8495ZM15.0432 23.4047C14.7624 23.4047 14.5344 23.1767 14.5344 22.8935C14.5344 22.6103 14.7624 22.3799 15.0432 22.3799C15.324 22.3799 15.552 22.6079 15.552 22.8935C15.552 23.1743 15.324 23.4047 15.0432 23.4047Z" fill="currentColor"/>
<path d="M9.5064 21.8495C9.396 21.8111 9.2784 21.7871 9.156 21.7871C8.5488 21.7871 8.0544 22.2791 8.0544 22.8911C8.0544 23.0087 8.0784 23.1191 8.1096 23.2247C8.2512 23.6711 8.664 23.9975 9.1536 23.9975C9.7608 23.9975 10.2528 23.5007 10.2528 22.8911C10.2576 22.4039 9.9432 21.9959 9.5064 21.8495ZM9.1584 23.4047C8.8776 23.4047 8.6496 23.1767 8.6496 22.8935C8.6496 22.6103 8.8776 22.3799 9.1584 22.3799C9.4392 22.3799 9.6672 22.6079 9.6672 22.8935C9.6672 23.1743 9.4392 23.4047 9.1584 23.4047Z" fill="currentColor"/>
<path d="M6.3144 21.8495C6.204 21.8111 6.0864 21.7871 5.964 21.7871C5.3568 21.7871 4.8624 22.2791 4.8624 22.8911C4.8624 23.0087 4.8864 23.1191 4.9176 23.2247C5.0592 23.6711 5.472 23.9975 5.9616 23.9975C6.5688 23.9975 7.0608 23.5007 7.0608 22.8911C7.0632 22.4039 6.7488 21.9959 6.3144 21.8495ZM5.964 23.4047C5.6832 23.4047 5.4552 23.1767 5.4552 22.8935C5.4552 22.6103 5.6832 22.3799 5.964 22.3799C6.2448 22.3799 6.4728 22.6079 6.4728 22.8935C6.4728 23.1743 6.2448 23.4047 5.964 23.4047Z" fill="currentColor"/>
<path d="M9.15359 6.80883C9.10079 6.79203 9.04559 6.78003 8.98799 6.78003C8.69999 6.78003 8.46719 7.01283 8.46719 7.30323C8.46719 7.35843 8.47919 7.41123 8.49359 7.46163C8.56079 7.67283 8.75519 7.82883 8.98799 7.82883C9.27599 7.82883 9.50879 7.59363 9.50879 7.30323C9.50879 7.07043 9.35999 6.87843 9.15359 6.80883ZM8.98799 7.54323C8.85599 7.54323 8.74559 7.43523 8.74559 7.30083C8.74559 7.16643 8.85359 7.05843 8.98799 7.05843C9.11999 7.05843 9.23039 7.16643 9.23039 7.30083C9.23039 7.43523 9.12239 7.54323 8.98799 7.54323Z" fill="currentColor"/>
<path d="M15.3072 6.80883C15.2544 6.79203 15.1992 6.78003 15.1416 6.78003C14.8536 6.78003 14.6208 7.01283 14.6208 7.30323C14.6208 7.35843 14.6328 7.41123 14.6472 7.46163C14.7144 7.67283 14.9088 7.82883 15.1416 7.82883C15.4296 7.82883 15.6624 7.59363 15.6624 7.30323C15.6624 7.07043 15.5136 6.87843 15.3072 6.80883ZM15.1416 7.54323C15.0096 7.54323 14.8992 7.43523 14.8992 7.30083C14.8992 7.16643 15.0072 7.05843 15.1416 7.05843C15.2736 7.05843 15.384 7.16643 15.384 7.30083C15.3816 7.43523 15.2736 7.54323 15.1416 7.54323Z" fill="currentColor"/>
<path d="M10.2456 21.2329L10.716 22.5241H13.4208L13.824 21.2329H10.2456Z" fill="currentColor"/>
<path d="M21.4656 8.4432H16.8048V1.2048H20.412V0.7416H16.8048V0.5304H16.7616H16.1256H8.00159H7.32239H7.07999V0H6.21839V2.3448H7.07999V1.7832H7.32239V8.4456H2.63759L2.39999 8.9352V9.4392V13.4832H7.32239V19.5288H6.30239V19.02H5.60399V19.5288H3.89519L3.90959 23.1648H4.36799V22.3416L5.07839 20.6352H5.60159V21.2616H6.29999V20.6352H8.76239V21.2616H9.46079V20.6352H14.724V21.2616H15.4224V20.6352H17.8008V21.2616H18.4992V20.6352H19.0392L19.8216 22.4016V23.124L20.2632 23.1432V19.5264H18.4992V19.0176H17.8008V19.5264H16.8048V13.4808H21.7608V9.456L21.7632 8.9352L21.4656 8.4432ZM8.00159 1.7832H16.128V1.872L12.7344 8.0712H11.352L8.00159 1.8648V1.7832ZM12.276 9.4392L12.4584 9.108H15.6888V8.9352H16.1256V9.4392H12.276ZM15.2784 9.696V13.176H14.9376V9.696H15.2784ZM14.412 9.696V13.176H14.0712V9.696H14.412ZM13.5456 9.696V13.176H13.2048V9.696H13.5456ZM12.6792 9.696V13.176H12.3384V9.696H12.6792ZM15.6888 8.4432V8.0712H13.0248L15.6768 3.2232H16.1256V8.4408H15.6888V8.4432ZM12.168 9.1056L12.0384 9.3432L11.9112 9.1056H12.168ZM8.00159 3.2256H8.44559L11.064 8.0736H8.44079V8.4456H8.00159V3.2256ZM8.00159 8.9328H8.44079V9.1056H11.6208L11.8008 9.4368H8.00159V8.9328ZM11.8128 9.696V13.176H11.472V9.696H11.8128ZM10.9464 9.696V13.176H10.6056V9.696H10.9464ZM10.08 9.696V13.176H9.73919V9.696H10.08ZM9.21359 9.696V13.176H8.87279V9.696H9.21359ZM8.34719 9.696V13.176H8.00639V9.696H8.34719ZM8.00159 13.4808H9.77519L8.42399 15.9528H8.00159V13.4808ZM2.63759 8.9328H7.32239V9.4368H2.63759V8.9328ZM3.20879 13.1736H2.86559V9.696H3.20639V13.1736H3.20879ZM4.03439 13.1736H3.69119V9.696H4.03199V13.1736H4.03439ZM4.85999 13.1736H4.51679V9.696H4.85759V13.1736H4.85999ZM5.68319 13.1736H5.34239V9.696H5.68319V13.1736ZM6.50879 13.1736H6.16799V9.696H6.50879V13.1736ZM7.33439 13.1736H6.99359V9.696H7.33439V13.1736ZM16.1256 19.5264H8.00159V17.256L10.0656 13.4808H13.9848L16.128 17.448V19.5264H16.1256ZM16.1256 15.9528H15.6072L14.2728 13.4808H16.1256V15.9528ZM16.1448 13.1736H15.804V9.696H16.1448V13.1736ZM17.1576 13.1736H16.8168V9.696H17.1576V13.1736ZM17.9832 13.1736H17.6424V9.696H17.9832V13.1736ZM18.8088 13.1736H18.468V9.696H18.8088V13.1736ZM19.6344 13.1736H19.2936V9.696H19.6344V13.1736ZM20.46 13.1736H20.1192V9.696H20.46V13.1736ZM21.2856 13.1736H20.9448V9.696H21.2856V13.1736ZM16.8048 9.4392V8.9352H21.4656V9.4392H16.8048Z" fill="currentColor"/>
<path d="M20.1792 1.52637H17.5272L17.0808 3.79677L17.8224 4.24317H19.8792L20.58 3.79677L20.1792 1.52637ZM19.908 1.79997L20.1384 3.09117H17.5344L17.7888 1.79997H19.908ZM19.6704 3.97197H18.024L17.4312 3.61437L17.4888 3.32157H20.1792L20.232 3.61437L19.6704 3.97197Z" fill="currentColor"/>
</g>
<defs>
<clipPath id="clip0_1418_862">
<rect width="19.3656" height="24" fill="currentColor" transform="translate(2.39999)"/>
</clipPath>
</defs>
</svg>
