<svg width="25" height="24" viewBox="0 0 25 24" fill="currentColor" xmlns="http://www.w3.org/2000/svg">
<g clip-path="url(#clip0_1417_1184)">
<path d="M21.4824 6.67203L20.3976 9.86163L19.9896 9.79443L19.4808 10.7784L21.0408 12.3048L21.4824 13.7976L19.9896 14.2728L19.6848 14.6112L11.3016 16.0704L10.0464 16.3752L9.6048 15.288L10.5888 14.9496L10.7592 10.0296L14.6952 6.36483L19.9896 5.28003C19.9896 5.28003 20.4312 5.68803 20.4312 5.85603C20.4312 6.02643 20.532 6.16083 20.736 6.12723C20.94 6.09363 21.0072 6.02643 21.2448 6.22803C21.4824 6.43443 21.552 6.46803 21.4824 6.67203Z" fill="currentColor"/>
<path d="M0 10.2144V15.9168L1.0536 15.6792L1.4424 13.5096L6.7608 11.6832L9.9408 11.4864L10.0152 10.6008L6.7704 10.8408L5.6016 10.5888L1.3608 11.8776L1.0536 10.2144H0Z" fill="currentColor"/>
<path d="M13.56 16.5864C13.4064 16.74 13.4064 16.9872 13.56 17.1408C13.6368 17.2176 13.7376 17.256 13.8384 17.256C13.9392 17.256 14.04 17.2176 14.1168 17.1408L15.216 16.0416L13.872 16.2744L13.56 16.5864Z" fill="currentColor"/>
<path d="M23.0376 10.2961C23.2248 10.1881 23.2896 9.94805 23.1816 9.76085C23.0736 9.57365 22.8336 9.50885 22.6464 9.61685L20.592 10.8025L21.1752 11.3713L23.0376 10.2961Z" fill="currentColor"/>
<path d="M21.6456 11.8368L21.6984 12.0192L21.7488 12.1896L23.5128 11.7168C23.7216 11.6616 23.8464 11.4456 23.7912 11.2368C23.736 11.028 23.52 10.9032 23.3112 10.9584L21.2976 11.4984L21.5088 11.7072L21.6456 11.8368Z" fill="currentColor"/>
<path d="M20.3352 10.5528L20.52 10.7352L20.6832 10.572L20.352 10.5192L20.3352 10.5528Z" fill="currentColor"/>
<path d="M20.9448 10.3104L22.2072 9.04802C22.3608 8.89442 22.3608 8.64722 22.2072 8.49362C22.0536 8.34002 21.8064 8.34002 21.6528 8.49362L21.516 8.63042L21.0432 10.0176L20.9448 10.3104Z" fill="currentColor"/>
<path d="M20.1864 15.0192L20.0184 15.2064L19.7712 15.2496H19.7664L21.6576 17.1408C21.7344 17.2176 21.8352 17.256 21.936 17.256C22.0368 17.256 22.1376 17.2176 22.2144 17.1408C22.368 16.9872 22.368 16.74 22.2144 16.5864L20.4336 14.8056L20.3664 14.8272L20.1864 15.0192Z" fill="currentColor"/>
<path d="M16.0248 18.2449C15.9696 18.4537 16.092 18.6697 16.3032 18.7249C16.3368 18.7345 16.3704 18.7393 16.404 18.7393C16.5768 18.7393 16.7352 18.6241 16.7832 18.4489L17.4936 15.7993V18.5425C17.4936 18.7585 17.6688 18.9337 17.8848 18.9337C18.1008 18.9337 18.276 18.7585 18.276 18.5425V15.7969L18.9864 18.4465C19.032 18.6217 19.1928 18.7369 19.3656 18.7369C19.3992 18.7369 19.4328 18.7321 19.4664 18.7225C19.6752 18.6673 19.8 18.4513 19.7448 18.2425L19.0344 15.5929L20.4072 17.9689C20.4792 18.0961 20.6112 18.1657 20.748 18.1657C20.8152 18.1657 20.8824 18.1489 20.9448 18.1129C21.132 18.0049 21.1968 17.7649 21.0888 17.5777L19.7472 15.2545L16.6848 15.7873L16.0248 18.2449Z" fill="currentColor"/>
<path d="M22.644 16.0176C22.7064 16.0536 22.7736 16.0704 22.8408 16.0704C22.9776 16.0704 23.1072 16.0008 23.1816 15.8736C23.2896 15.6864 23.2248 15.4464 23.0376 15.3384L21.5136 14.46L20.5008 14.7816L22.644 16.0176Z" fill="currentColor"/>
<path d="M24 12.816C24 12.6 23.8248 12.4248 23.6088 12.4248H21.8208L22.0536 13.2096H23.6088C23.8248 13.2096 24 13.0344 24 12.816Z" fill="currentColor"/>
<path d="M14.6832 17.5776C14.5752 17.7648 14.64 18.0048 14.8272 18.1128C14.8896 18.1488 14.9568 18.1656 15.024 18.1656C15.1608 18.1656 15.2904 18.096 15.3648 17.9688L16.6176 15.7968L15.6096 15.972L14.6832 17.5776Z" fill="currentColor"/>
<path d="M21.9624 14.316L23.3112 14.676C23.3448 14.6856 23.3784 14.6904 23.412 14.6904C23.5848 14.6904 23.7432 14.5752 23.7912 14.4C23.8464 14.1912 23.724 13.9752 23.5128 13.92L22.152 13.5552L22.3416 14.196L21.9624 14.316Z" fill="currentColor"/>
<path d="M19.7448 15.2545L19.764 15.2497L19.7136 15.2017L19.7448 15.2545Z" fill="currentColor"/>
<path d="M16.6176 15.7992L16.6824 15.7872L16.7352 15.5928L16.6176 15.7992Z" fill="currentColor"/>
</g>
<defs>
<clipPath id="clip0_1417_1184">
<rect width="24" height="13.6536" fill="currentColor" transform="translate(0 5.28003)"/>
</clipPath>
</defs>
</svg>
