<svg width="24" height="24" viewBox="0 0 24 24" fill="currentColor" xmlns="http://www.w3.org/2000/svg">
<g clip-path="url(#clip0_1422_1684)">
<path d="M14.1577 22.9512C14.1577 23.532 13.6873 24 13.1089 24C12.5281 24 12.0601 23.5296 12.0601 22.9512C12.0601 22.3704 12.5305 21.9024 13.1089 21.9024C13.6873 21.9 14.1577 22.3704 14.1577 22.9512ZM13.0969 22.4976C12.8521 22.4976 12.6553 22.6944 12.6553 22.9392C12.6553 23.184 12.8521 23.3808 13.0969 23.3808C13.3417 23.3808 13.5385 23.184 13.5385 22.9392C13.5385 22.6944 13.3393 22.4976 13.0969 22.4976Z" fill="currentColor"/>
<path d="M7.34882 22.9033C7.34882 23.4841 6.87842 23.9521 6.30002 23.9521C5.71922 23.9521 5.25122 23.4817 5.25122 22.9033C5.25122 22.3225 5.72162 21.8545 6.30002 21.8545C6.87842 21.8545 7.34882 22.3225 7.34882 22.9033ZM6.28802 22.4497C6.04322 22.4497 5.84642 22.6465 5.84642 22.8913C5.84642 23.1361 6.04322 23.3329 6.28802 23.3329C6.53282 23.3329 6.72962 23.1361 6.72962 22.8913C6.72962 22.6489 6.53282 22.4497 6.28802 22.4497Z" fill="currentColor"/>
<path d="M11.6977 20.2055L11.6089 21.1727C11.6089 21.1727 5.30893 21.2447 5.09533 21.2447C4.88173 21.2447 4.84333 21.1367 4.80733 21.0455C4.77373 20.9543 4.82893 19.7999 4.84093 19.6439C4.85293 19.4879 4.94173 19.2911 5.28013 19.2911C5.61853 19.2911 9.00973 19.2551 9.12733 19.2551C9.24493 19.2551 10.2577 19.4735 10.7305 19.5983C11.2057 19.7231 11.7217 19.8815 11.6977 20.2055Z" fill="currentColor"/>
<path d="M16.121 2.50312L15.557 1.35112L13.8026 5.37112L13.7642 5.84632L9.43937 15.2783L9.52817 15.3407L7.93697 18.6911L7.60097 18.7031L9.17537 15.1415L9.26417 15.1919L9.80897 13.9319L9.31697 14.3447L7.38737 18.3911L7.34897 18.7295L5.34497 18.7799L5.74577 17.6903L6.50897 17.4143L15.4322 0.136719L16.409 2.15272L16.121 2.50312ZM12.8762 5.86072L13.013 6.14392L15.4562 1.18552L15.3578 0.976719L12.8762 5.86072Z" fill="currentColor"/>
<path d="M19.0848 1.5576H18.9576V0.6552H19.0848C19.1208 0.6552 19.1472 0.6288 19.1472 0.5952C19.1472 0.5616 19.1184 0.5352 19.0848 0.5352H18.9576V0.06C18.9576 0.0264 18.9288 0 18.8952 0H16.9368C16.9008 0 16.8744 0.0264 16.8744 0.06V0.5376H16.7064C16.6704 0.5376 16.644 0.564 16.644 0.5976C16.644 0.6312 16.6728 0.6576 16.7064 0.6576H16.8744V1.56H16.7064C16.6704 1.56 16.644 1.5864 16.644 1.62C16.644 1.6536 16.6728 1.68 16.7064 1.68H16.8744V2.2728H16.74V2.8176H18.9864V2.2704H18.96V1.6776H19.0872C19.1232 1.6776 19.1496 1.6512 19.1496 1.6176C19.1472 1.584 19.1184 1.5576 19.0848 1.5576ZM18.4248 0.12H18.8304V0.5376H18.4248V0.12ZM18.4248 0.6552H18.8304V1.5576H18.4248V0.6552ZM17.5872 0.12H18.3V0.5376H17.5872V0.12ZM17.5872 0.6552H18.3V1.5576H17.5872V0.6552ZM18.3 1.6776V2.2704H17.5872V1.6776H18.3ZM16.9968 0.12H17.46V0.5376H16.9968V0.12ZM16.9968 0.6552H17.46V1.5576H16.9968V0.6552ZM16.9968 1.6776H17.46V2.2704H16.9968V1.6776ZM18.4248 2.2704V1.6776H18.8304V2.2704H18.4248Z" fill="currentColor"/>
<path d="M12.3794 21.7657L10.8002 21.4873L9.34582 21.5041L7.14502 21.7993C7.47622 22.0537 7.69222 22.4545 7.69222 22.9033C7.69222 23.0089 7.68022 23.1097 7.65862 23.2081H11.7554C11.7194 23.0761 11.717 22.9849 11.717 22.9513C11.7146 22.4497 11.981 22.0105 12.3794 21.7657Z" fill="currentColor"/>
</g>
<defs>
<clipPath id="clip0_1422_1684">
<rect width="14.3472" height="24" fill="currentColor" transform="translate(4.80005)"/>
</clipPath>
</defs>
</svg>
