<svg width="24" height="24" viewBox="0 0 24 24" fill="currentColor" xmlns="http://www.w3.org/2000/svg">
<g clip-path="url(#clip0_1413_1342)">
<path d="M13.0032 16.908C11.9976 16.908 11.184 17.724 11.184 18.7272C11.184 19.7328 12 20.5464 13.0032 20.5464C14.0088 20.5464 14.8224 19.7304 14.8224 18.7272C14.8224 17.724 14.0064 16.908 13.0032 16.908ZM12.9816 19.4736C12.5592 19.4736 12.216 19.1304 12.216 18.708C12.216 18.2856 12.5592 17.9424 12.9816 17.9424C13.404 17.9424 13.7472 18.2856 13.7472 18.708C13.7472 19.1328 13.4064 19.4736 12.9816 19.4736Z" fill="currentColor"/>
<path d="M4.65358 11.5944H4.44958C4.44958 11.5944 4.44958 9.0648 4.44958 9.0408C4.44958 9.0168 4.45918 8.9256 4.62238 8.9256C4.82878 8.9256 4.75678 9.1608 4.83358 9.4536C4.91038 9.7464 5.19118 10.0872 5.31838 10.476C5.44558 10.8648 5.31838 11.352 5.31838 11.352C5.31838 11.352 5.19118 11.5944 5.42158 11.6448C5.65198 11.6928 7.18558 11.868 7.38718 11.8944C7.68478 11.9352 7.72558 12.12 7.68478 12.2688C7.63918 12.4368 7.54318 12.4944 7.33678 12.4944C7.13278 12.4944 5.26798 12.4704 5.26798 12.4704C5.26798 12.4704 4.65358 12.4968 4.65358 11.5944Z" fill="currentColor"/>
<path d="M21.5544 17.5824H17.7048V15.3768H17.1096V12.5064H16.4784V18.156H17.0928H17.1096H17.7048V18.1464H21.5952C21.7056 18.1464 24 18.1176 24 18.0048V17.856C24 17.688 21.6648 17.5824 21.5544 17.5824Z" fill="currentColor"/>
<path d="M13.5096 5.71919V6.18719H14.1144L14.196 16.1256L12.8448 12.804L9.05279 3.35999H1.83119C1.83119 3.35999 1.20719 6.86879 1.20719 7.19519C1.20719 7.52159 1.15199 12.7632 1.15199 12.7632H0.652794L0.203994 13.1688C0.203994 13.1688 -0.0120062 15.7152 -6.17761e-06 16.3944C0.0119938 17.0736 0.134394 18.0192 0.134394 18.0192C0.134394 18.0192 0.148794 18.4224 0.379194 19.0152H0.635994C0.688794 19.6152 1.19039 20.0856 1.80239 20.0856C2.41439 20.0856 2.91839 19.6152 2.96879 19.0152H10.704C10.692 18.9216 10.6848 18.8256 10.6848 18.7272C10.6848 17.448 11.724 16.4088 13.0032 16.4088C14.2824 16.4088 15.3216 17.448 15.3216 18.7272C15.3216 18.9816 15.2784 19.2288 15.2016 19.4568H15.7824V5.71919H13.5096ZM1.79279 19.3944C1.55999 19.3944 1.36559 19.2336 1.31519 19.0176H2.27279C2.21999 19.2336 2.02559 19.3944 1.79279 19.3944ZM3.13919 15.9792C3.13919 16.0344 3.10079 16.08 3.05519 16.08H2.77199V16.4184C2.77199 16.4736 2.73359 16.5192 2.68799 16.5192H2.46719C2.41919 16.5192 2.38319 16.4736 2.38319 16.4184V16.08H2.09759C2.04959 16.08 2.01359 16.0344 2.01359 15.9792V15.7152C2.01359 15.66 2.05199 15.6144 2.09759 15.6144H2.38079V15.276C2.38079 15.2208 2.41919 15.1752 2.46479 15.1752H2.68559C2.73359 15.1752 2.76959 15.2208 2.76959 15.276V15.6144H3.05279C3.10079 15.6144 3.13679 15.66 3.13679 15.7152V15.9792H3.13919ZM5.26319 16.1232L3.70559 17.9712C3.69599 17.9832 3.68159 17.988 3.66719 17.988C3.65759 17.988 3.65039 17.9856 3.64079 17.9808C3.61919 17.9688 3.61199 17.9424 3.62159 17.9208L4.16639 16.6272H3.66719C3.65039 16.6272 3.63359 16.6176 3.62639 16.6032C3.61679 16.5888 3.61679 16.572 3.62399 16.5552L4.35359 15.096C4.36079 15.0792 4.37759 15.0696 4.39679 15.0696H5.17439C5.19119 15.0696 5.20799 15.0792 5.21759 15.096C5.22719 15.1104 5.22479 15.1296 5.21519 15.1464L4.64639 16.044H5.22239C5.24159 16.044 5.25839 16.056 5.26559 16.0728C5.27999 16.0896 5.27519 16.1088 5.26319 16.1232ZM6.88559 15.9744C6.88559 16.0344 6.84479 16.08 6.79679 16.08H5.93279C5.88239 16.08 5.84399 16.032 5.84399 15.9744V15.72C5.84399 15.66 5.88479 15.6144 5.93279 15.6144H6.79679C6.84719 15.6144 6.88559 15.6624 6.88559 15.72V15.9744ZM7.89119 14.1456V18.444H7.69679V14.1456H0.815994V13.9512H7.69679H7.89119V14.1456ZM9.06719 15.324C9.06719 15.324 9.21599 13.9152 8.93279 13.5624C8.64719 13.2096 7.83599 13.0872 6.71039 12.8856C5.58479 12.684 1.83119 12.696 1.83119 12.696C1.83119 12.696 1.76399 8.10239 1.79039 7.46639C1.81679 6.83039 2.29199 3.99599 2.29199 3.99599L8.62079 4.01039L10.32 8.12159L11.0688 10.0224C11.0688 10.0224 10.7136 9.69599 10.5144 9.51839C10.3128 9.34079 9.98399 9.26879 9.98399 9.26879L9.82799 9.03359L10.2432 8.73359C10.2864 8.70239 10.3152 8.65679 10.3224 8.60399C10.3296 8.55119 10.3176 8.50079 10.2864 8.45759C10.224 8.37119 10.1016 8.34959 10.0128 8.41199H10.0104L8.63999 9.40079C8.55119 9.46319 8.53199 9.58799 8.59439 9.67679C8.62559 9.71999 8.67119 9.74879 8.72159 9.75599C8.77199 9.76319 8.82479 9.75359 8.86559 9.72239C8.86559 9.72239 8.86799 9.72239 8.86799 9.71999L9.31679 9.39599L9.58079 9.57839C9.58079 9.57839 9.51359 9.78239 9.60719 10.0392C9.70319 10.296 11.1624 12.1008 11.1624 12.1008L10.932 12.3048L11.7048 12.996L12.1392 14.5416L12.492 15.0696L9.06719 15.324Z" fill="currentColor"/>
</g>
<defs>
<clipPath id="clip0_1413_1342">
<rect width="24" height="17.1888" fill="currentColor" transform="translate(0 3.35999)"/>
</clipPath>
</defs>
</svg>
