<svg width="24" height="24" viewBox="0 0 24 24" fill="currentColor" xmlns="http://www.w3.org/2000/svg">
<g clip-path="url(#clip0_1417_1823)">
<path d="M4.06081 19.0752C4.06081 20.7288 5.39761 22.0704 7.03681 22.0704C8.68561 22.0704 10.0176 20.7288 10.0176 19.0752C10.0176 17.4192 8.68561 16.0824 7.03681 16.0824C5.39761 16.0824 4.06081 17.4192 4.06081 19.0752ZM5.66161 19.0752C5.66161 18.3024 6.27841 17.688 7.03681 17.688C7.80001 17.688 8.41921 18.3024 8.41921 19.0752C8.41921 19.8408 7.80001 20.4624 7.03681 20.4624C6.27841 20.4624 5.66161 19.8408 5.66161 19.0752Z" fill="currentColor"/>
<path d="M3.12959 14.304H7.59599C7.61759 14.304 7.64159 14.2992 7.66079 14.2872L9.08639 13.5072C9.20879 13.44 9.16079 13.2528 9.02159 13.2528H2.74559C2.64479 13.2528 2.57999 13.3584 2.62559 13.4472L3.00959 14.2272C3.03119 14.2752 3.07679 14.304 3.12959 14.304Z" fill="currentColor"/>
<path d="M12.192 11.0545L11.9976 12.3553C11.9592 12.6193 11.7312 12.8161 11.4648 12.8161H2.60879C2.34239 12.8161 2.11439 12.6217 2.07599 12.3577L1.80479 10.5673H10.9512C11.2992 10.5673 11.832 10.7377 12.192 11.0545Z" fill="currentColor"/>
<path d="M13.8696 1.92004H0.2064C0.0936 1.92004 0 2.01364 0 2.12644V2.94964C0 3.06484 0.0936 3.15604 0.2064 3.15604H1.0464V5.46004C1.0464 5.50804 1.0512 5.55844 1.0584 5.60644L1.7256 10.0152H10.956C11.3184 10.0152 11.844 10.152 12.288 10.4376L13.0248 5.50324C13.032 5.46004 13.0344 5.41684 13.0344 5.37124V3.15604H13.8744C13.9896 3.15604 14.0808 3.06244 14.0808 2.94964V2.12644C14.076 2.01364 13.9824 1.92004 13.8696 1.92004Z" fill="currentColor"/>
<path d="M9.21359 16.1208C9.81839 15.4608 10.6728 14.532 11.8656 13.236C12.3048 12.7608 12.7704 12.0648 12.5064 11.4624C12.4392 11.3064 12.3264 11.172 12.192 11.0544L12.2832 10.4376C12.5904 10.6344 12.8592 10.8984 13.008 11.2392C13.2192 11.7216 13.2624 12.5256 12.2664 13.608C11.0832 14.8944 10.2336 15.8184 9.62879 16.4784C9.50159 16.3464 9.35999 16.2312 9.21359 16.1208Z" fill="currentColor"/>
<path d="M23.2392 17.3041H21.1704V17.6641H19.536V14.9689H18.612L21.408 9.3433L21.5328 9.4057L22.6152 7.2289L21.9312 6.8905L20.8488 9.0673L20.9736 9.1297L18.072 14.9689H16.8264V17.6665H10.4232C10.4976 17.8489 10.5576 18.0385 10.6032 18.2329H21.1728V18.4273H24V18.0649C24 17.6449 23.6592 17.3041 23.2392 17.3041Z" fill="currentColor"/>
</g>
<defs>
<clipPath id="clip0_1417_1823">
<rect width="24" height="20.1528" fill="currentColor" transform="translate(0 1.92004)"/>
</clipPath>
</defs>
</svg>
