<svg width="24" height="24" viewBox="0 0 24 24" fill="currentColor" xmlns="http://www.w3.org/2000/svg">
<g clip-path="url(#clip0_1437_2176)">
<path d="M10.5553 13.3655C10.0705 12.4991 9.1465 11.9111 8.0857 11.9111C6.7033 11.9111 5.5513 12.9119 5.3065 14.2295C5.2753 14.3975 5.2561 14.5727 5.2561 14.7479C5.2561 16.3175 6.5257 17.5943 8.0857 17.5943C9.6457 17.5943 10.9153 16.3175 10.9153 14.7479C10.9153 14.2463 10.7833 13.7759 10.5553 13.3655ZM8.0857 15.9935C7.4065 15.9935 6.8497 15.4367 6.8497 14.7479C6.8497 14.5607 6.8905 14.3879 6.9649 14.2295C7.1617 13.8023 7.5889 13.5047 8.0857 13.5047C8.2417 13.5047 8.3905 13.5359 8.5273 13.5887C8.9905 13.7663 9.3241 14.2151 9.3241 14.7479C9.3241 15.4367 8.7697 15.9935 8.0857 15.9935Z" fill="currentColor"/>
<path d="M4.53369 13.9967H4.78809C4.80729 13.9319 4.82889 13.8695 4.85049 13.8071H4.59129C4.57209 13.8719 4.55049 13.9343 4.53369 13.9967Z" fill="currentColor"/>
<path d="M2.4072 14.0111V14.3687H0.9864L0.156 13.5383L0 13.6919L0.7944 14.4863L1.2192 14.9111H2.4072H2.5176H4.1304V14.0111H2.4072Z" fill="currentColor"/>
<path d="M3.48711 7.86475C3.48711 7.86475 2.61111 8.22475 2.61111 10.8119C2.61111 11.7551 2.72871 12.4055 2.87511 12.8519L2.28711 13.0751L2.48871 13.6079L3.10551 13.3751C3.30231 13.7087 3.48471 13.7927 3.48471 13.7927H3.80871V7.86475H3.48711Z" fill="currentColor"/>
<path d="M17.6832 7.19758L17.0376 7.19038L17.1168 6.47998L17.7552 6.55198L17.6832 7.19758Z" fill="currentColor"/>
<path d="M19.6727 7.37026C19.1495 6.80386 18.1559 6.64066 17.9183 6.62866L17.8823 6.87106C18.0863 6.88066 19.0295 7.03666 19.4903 7.53586C19.9175 7.99906 20.0663 8.56786 19.9007 9.09346C19.8407 9.28066 19.7735 9.46066 19.7111 9.63346C19.6247 9.86866 19.5479 10.0799 19.5047 10.2647C19.3847 8.20066 18.6479 7.86466 18.6479 7.86466H18.3239V13.7927H18.6479C18.6479 13.7927 19.3367 13.5047 19.4903 11.6303H19.7735V10.6823H19.5191C19.5167 10.6247 19.5167 10.5647 19.5143 10.5095L19.7135 10.5143C19.7183 10.3199 19.8215 10.0439 19.9415 9.71986C20.0063 9.54226 20.0759 9.36226 20.1359 9.16786C20.3279 8.56306 20.1551 7.89106 19.6727 7.37026Z" fill="currentColor"/>
<path d="M22.1447 15.7632L20.0519 15.636L20.0759 15.2064L18.5807 15.1248L18.5567 15.5472L17.9975 15.5136V13.7064V7.86476H17.6999V7.29836H16.9847V7.86476H16.1159V7.39676C16.1159 7.30316 16.0415 7.22876 15.9479 7.22876H15.5399C15.4463 7.22876 15.3719 7.30316 15.3719 7.39676V7.86236H5.7983V7.66316H4.9367V7.86236H4.1543V13.8072H4.5935C4.5743 13.8696 4.5527 13.932 4.5359 13.9968H4.7903C5.1983 12.5592 6.5207 11.5032 8.0879 11.5032C9.5855 11.5032 10.8575 12.468 11.3231 13.8072C11.3279 13.8216 11.3327 13.836 11.3375 13.8504C11.3519 13.8936 11.3687 13.9368 11.3807 13.9824V14.6808H12.9455V16.2744H13.4759V15.9672L23.9519 16.7112L23.9999 16.224L22.1447 15.7632ZM12.9431 13.9848H11.6351C11.6327 13.9728 11.6279 13.9608 11.6255 13.9512C11.6135 13.9032 11.5967 13.8576 11.5823 13.812H12.9455V13.9848H12.9431ZM15.7463 7.39196C15.8183 7.39196 15.8759 7.44956 15.8759 7.52156C15.8759 7.59356 15.8183 7.65116 15.7463 7.65116C15.6743 7.65116 15.6167 7.59356 15.6167 7.52156C15.6167 7.44956 15.6743 7.39196 15.7463 7.39196ZM17.4671 15.48L13.4759 15.24V14.6832H17.4671V15.48ZM17.4671 13.9848H13.4735V13.8096H17.4647V13.9848H17.4671Z" fill="currentColor"/>
<path d="M20.6497 14.6376L20.1937 14.6112L20.2201 14.1912L18.5209 14.0928L18.4705 14.9568L20.1673 15.0552L20.1745 14.94L20.6353 14.9664L21.1369 15.1176L21.1561 14.5464L20.6497 14.6376Z" fill="currentColor"/>
</g>
<defs>
<clipPath id="clip0_1437_2176">
<rect width="24" height="11.1168" fill="currentColor" transform="translate(0 6.47998)"/>
</clipPath>
</defs>
</svg>
