<svg width="24" height="24" viewBox="0 0 24 24" fill="currentColor" xmlns="http://www.w3.org/2000/svg">
<g clip-path="url(#clip0_1413_1816)">
<path d="M13.344 16.4664H9.10798V14.04H8.45277V10.8816H7.75677V17.1H8.43117H8.45037H9.10557V17.088H13.3872C13.5096 17.088 16.0344 17.0568 16.0344 16.9344V16.7688C16.0344 16.584 13.4664 16.4664 13.344 16.4664Z" fill="currentColor"/>
<path d="M13.5384 0H10.2528V0.516H11.7048L11.7312 4.4808H10.5816V5.376H11.7384L11.7336 19.2072H13.5384V0Z" fill="currentColor"/>
<path d="M20.6544 22.0344C20.5704 21.24 19.9704 20.604 19.1952 20.4744C19.0992 20.4576 19.0056 20.4432 18.9048 20.4432H4.88879C3.91199 20.4432 3.12 21.24 3.12 22.2192C3.12 23.2008 3.91199 24 4.88879 24H18.9024C19.8768 24 20.6712 23.2008 20.6712 22.2192C20.6712 22.1568 20.6616 22.0944 20.6544 22.0344ZM4.88879 23.2368C4.33199 23.2368 3.8784 22.7808 3.8784 22.2192C3.8784 21.66 4.33199 21.204 4.88879 21.204C5.44559 21.204 5.89919 21.66 5.89919 22.2192C5.89919 22.7808 5.44559 23.2368 4.88879 23.2368ZM18.9024 23.2368C18.3456 23.2368 17.8944 22.7808 17.8944 22.2192C17.8944 21.66 18.3456 21.204 18.9024 21.204C19.4616 21.204 19.9128 21.66 19.9128 22.2192C19.9128 22.7808 19.4616 23.2368 18.9024 23.2368Z" fill="currentColor"/>
<path d="M15.216 9.68884H10.7232C10.2456 9.68884 9.85677 10.08 9.85677 10.5552V17.2872H7.96557C7.76877 17.2872 7.60797 17.448 7.60797 17.6448C7.60797 17.8416 7.76877 18.0024 7.96557 18.0024H9.85677V18.2712C9.85677 18.8136 10.3008 19.2552 10.8408 19.2552H15.1224C15.708 19.2552 16.1856 18.7776 16.1856 18.192V10.656C16.1856 10.1256 15.7488 9.68884 15.216 9.68884Z" fill="currentColor"/>
</g>
<defs>
<clipPath id="clip0_1413_1816">
<rect width="17.5512" height="24" fill="currentColor" transform="translate(3.12)"/>
</clipPath>
</defs>
</svg>
