<svg width="24" height="24" viewBox="0 0 24 24" fill="currentColor" xmlns="http://www.w3.org/2000/svg">
<g clip-path="url(#clip0_1437_2638)">
<path d="M23.2346 11.7217C23.0978 11.7961 22.9418 11.8393 22.7762 11.8393C22.6634 11.8393 22.553 11.8177 22.4522 11.7817C22.2146 11.9305 22.0562 12.1945 22.0562 12.4945C22.0562 12.7969 22.217 13.0609 22.457 13.2097C22.6226 13.0945 22.8242 13.0273 23.0426 13.0273C23.1938 13.0273 23.3354 13.0609 23.465 13.1185C23.6354 12.9649 23.7434 12.7417 23.7434 12.4945C23.7434 12.1513 23.5322 11.8537 23.2346 11.7217Z" fill="currentColor"/>
<path d="M23.0617 8.62305C22.9105 8.72865 22.7305 8.78865 22.5337 8.78865C22.3873 8.78865 22.2481 8.75265 22.1257 8.69265C21.9097 8.85345 21.7681 9.11025 21.7681 9.39825C21.7681 9.71025 21.9313 9.98625 22.1785 10.1422C22.3417 10.0102 22.5505 9.93105 22.7761 9.93105C22.9441 9.93105 23.1001 9.97425 23.2393 10.051C23.4169 9.89025 23.5297 9.65745 23.5297 9.39825C23.5273 9.06465 23.3377 8.77185 23.0617 8.62305Z" fill="currentColor"/>
<path d="M22.8359 5.67627C22.6847 5.78427 22.4999 5.84907 22.3007 5.84907C22.1351 5.84907 21.9815 5.80587 21.8471 5.72907C21.6551 5.88507 21.5303 6.12267 21.5303 6.38667C21.5303 6.70587 21.7079 6.98187 21.9671 7.12827C22.1231 7.00827 22.3175 6.93627 22.5287 6.93627C22.6727 6.93627 22.8071 6.96987 22.9271 7.02747C23.1071 6.87147 23.2223 6.64347 23.2223 6.38667C23.2271 6.08907 23.0711 5.82747 22.8359 5.67627Z" fill="currentColor"/>
<path d="M23.477 13.2072C23.465 13.2 23.453 13.1952 23.441 13.1904C23.429 13.1856 23.4146 13.1784 23.4026 13.1736C23.2922 13.128 23.1698 13.104 23.0426 13.104C22.853 13.104 22.6778 13.1592 22.529 13.2552C22.517 13.2624 22.505 13.2696 22.493 13.2792C22.481 13.2864 22.4714 13.296 22.4618 13.3032C22.2338 13.4784 22.085 13.7544 22.085 14.064C22.085 14.592 22.5146 15.0216 23.0426 15.0216C23.5706 15.0216 24.0002 14.592 24.0002 14.064C24.0002 13.6896 23.7866 13.3656 23.477 13.2072Z" fill="currentColor"/>
<path d="M23.2442 10.1427C23.2322 10.1355 23.2226 10.1283 23.2106 10.1235C23.1986 10.1163 23.1866 10.1115 23.1746 10.1043C23.0546 10.0419 22.9178 10.0059 22.7738 10.0059C22.5746 10.0059 22.3922 10.0731 22.2434 10.1835C22.2314 10.1907 22.2218 10.2003 22.2098 10.2075C22.2002 10.2147 22.1906 10.2243 22.181 10.2339C22.0034 10.3947 21.8906 10.6275 21.8906 10.8867C21.8906 11.2563 22.1186 11.5707 22.4402 11.7027C22.4546 11.7075 22.469 11.7147 22.4858 11.7195C22.5026 11.7243 22.5194 11.7315 22.5362 11.7363C22.6106 11.7579 22.6898 11.7699 22.7714 11.7699C22.901 11.7699 23.0234 11.7411 23.1338 11.6907C23.1506 11.6835 23.165 11.6763 23.1818 11.6667C23.1962 11.6595 23.2082 11.6499 23.2226 11.6427C23.4794 11.4891 23.6522 11.2083 23.6522 10.8867C23.657 10.5723 23.4914 10.2987 23.2442 10.1427Z" fill="currentColor"/>
<path d="M22.9416 7.1139C22.9296 7.1067 22.9176 7.1019 22.9056 7.0971C22.8936 7.0899 22.8816 7.0851 22.8672 7.0779C22.764 7.0347 22.6512 7.0083 22.5312 7.0083C22.3488 7.0083 22.1808 7.0659 22.044 7.1619C22.032 7.1691 22.0224 7.1787 22.0104 7.1859C22.0008 7.1931 21.9888 7.2027 21.9792 7.2099C21.7968 7.3659 21.6792 7.5987 21.6792 7.8579C21.6792 8.1771 21.8568 8.4555 22.116 8.6019C22.128 8.6091 22.14 8.6139 22.1544 8.6211C22.1664 8.6283 22.1808 8.6355 22.1928 8.6403C22.296 8.6859 22.4112 8.7099 22.5312 8.7099C22.6968 8.7099 22.8504 8.6619 22.9824 8.5803C22.9944 8.5731 23.0064 8.5659 23.0184 8.5563C23.0304 8.5491 23.04 8.5395 23.052 8.5323C23.2536 8.3763 23.3856 8.1315 23.3856 7.8579C23.3856 7.5411 23.2056 7.2603 22.9416 7.1139Z" fill="currentColor"/>
<path d="M21.8448 5.64248C21.8568 5.64968 21.8664 5.65688 21.8784 5.66168C21.8904 5.66888 21.9024 5.67608 21.9144 5.68088C22.0296 5.74088 22.1616 5.77448 22.3008 5.77448C22.4736 5.77448 22.632 5.72168 22.7664 5.63528C22.7784 5.62808 22.7904 5.61848 22.8 5.61128C22.8096 5.60408 22.8216 5.59688 22.8312 5.58728C23.0256 5.43128 23.148 5.19368 23.148 4.92728C23.148 4.45928 22.7664 4.08008 22.3008 4.08008C21.8328 4.08008 21.4536 4.46168 21.4536 4.92728C21.4536 5.22728 21.6096 5.49128 21.8448 5.64248Z" fill="currentColor"/>
<path d="M22.2385 14.705C22.2361 14.7026 22.2336 14.6978 22.2312 14.693C22.212 14.669 22.1953 14.6426 22.1761 14.6186C22.1713 14.6114 22.1664 14.6018 22.1616 14.5946C22.1472 14.573 22.1353 14.549 22.1233 14.5274C22.1185 14.5178 22.1137 14.5058 22.1089 14.4962C22.0993 14.4746 22.0897 14.453 22.08 14.429C22.0753 14.417 22.0705 14.405 22.0657 14.393C22.0585 14.3714 22.0512 14.3474 22.0465 14.3234C22.0441 14.3114 22.0392 14.297 22.0368 14.285C22.032 14.261 22.0272 14.2346 22.0248 14.2106C22.0224 14.1986 22.0201 14.1866 22.0201 14.1746C22.0152 14.1362 22.0129 14.1002 22.0129 14.0618C22.0129 14.0234 22.0152 13.985 22.0201 13.949C22.0224 13.937 22.0248 13.925 22.0248 13.913C22.0296 13.889 22.032 13.8626 22.0368 13.8386C22.0392 13.8266 22.0441 13.8122 22.0465 13.8002C22.0536 13.7786 22.0585 13.7546 22.0657 13.733C22.0705 13.721 22.0753 13.709 22.08 13.6946C22.0897 13.673 22.0968 13.6514 22.1065 13.6298C22.1112 13.6178 22.1161 13.6082 22.1233 13.5962C22.1353 13.5746 22.1473 13.553 22.1593 13.5314C22.1641 13.5218 22.1713 13.5122 22.1761 13.505C22.1905 13.481 22.2073 13.457 22.2264 13.4354C22.2313 13.4306 22.2337 13.4234 22.2385 13.4186C22.2841 13.361 22.3368 13.3082 22.3944 13.2626C22.3656 13.2434 22.3368 13.2218 22.308 13.1978C22.3032 13.1954 22.3009 13.1906 22.2961 13.1882C22.2745 13.169 22.2528 13.1498 22.2336 13.1282C22.2264 13.121 22.2216 13.1162 22.2168 13.109C22.2 13.0898 22.1832 13.0682 22.1665 13.0466C22.1617 13.0394 22.1569 13.0322 22.1521 13.025C22.1329 12.9986 22.1136 12.9698 22.0968 12.9386C22.08 12.9074 22.0656 12.8762 22.0512 12.845C22.0488 12.8354 22.044 12.8282 22.0416 12.8186C22.032 12.7946 22.0248 12.7706 22.0176 12.7466C22.0152 12.7346 22.0128 12.725 22.008 12.713C22.0032 12.689 21.9984 12.665 21.9936 12.641C21.9912 12.6314 21.9889 12.6194 21.9889 12.6098C21.9841 12.5738 21.9816 12.5378 21.9816 12.5018C21.9816 12.4682 21.9841 12.4346 21.9889 12.401C21.9889 12.3914 21.9912 12.3842 21.9936 12.3746C21.996 12.3506 22.0009 12.3242 22.0057 12.3002C22.0081 12.293 22.0105 12.2834 22.0129 12.2762C22.0201 12.2498 22.0272 12.2258 22.0344 12.2018C22.0368 12.197 22.0393 12.1922 22.0393 12.185C22.0513 12.1562 22.0633 12.1274 22.0753 12.0986C22.1353 11.9762 22.2241 11.8706 22.3297 11.7866V11.7842C22.3417 11.7746 22.3537 11.765 22.3657 11.7554C22.3513 11.7482 22.3392 11.7434 22.3248 11.7362V11.7338C22.0992 11.6138 21.9288 11.4098 21.8544 11.1602C21.852 11.1554 21.8521 11.1506 21.8496 11.1434C21.8401 11.1098 21.8328 11.0786 21.828 11.045C21.8256 11.0354 21.8257 11.0258 21.8232 11.0138C21.8184 10.973 21.8136 10.9346 21.8136 10.8938C21.8136 10.8602 21.8161 10.8266 21.8185 10.7954C21.8185 10.7882 21.8208 10.7786 21.8232 10.7714C21.8257 10.7474 21.8305 10.721 21.8353 10.697C21.8377 10.6898 21.84 10.6826 21.84 10.6754C21.8449 10.6514 21.8521 10.625 21.8593 10.601C21.8617 10.5962 21.864 10.5914 21.864 10.5866C21.8736 10.5602 21.8833 10.5362 21.8929 10.5098C21.8953 10.5074 21.8952 10.505 21.8976 10.5002C21.9096 10.4738 21.9217 10.4474 21.9361 10.4234C21.9361 10.421 21.9385 10.421 21.9385 10.421C21.9529 10.3946 21.9697 10.3682 21.9889 10.3442C22.0249 10.2914 22.068 10.2458 22.1136 10.2002C22.0824 10.1786 22.0536 10.157 22.0248 10.133C22.02 10.1282 22.0177 10.1258 22.0129 10.121C21.9913 10.1018 21.9696 10.0802 21.948 10.0586C21.9408 10.0514 21.9361 10.0442 21.9289 10.037C21.9097 10.0154 21.8929 9.99622 21.8761 9.97222C21.8713 9.96502 21.8641 9.95782 21.8593 9.95062C21.8401 9.92182 21.8208 9.89302 21.804 9.86182C21.804 9.86182 21.804 9.86182 21.804 9.85942C21.7872 9.82822 21.7705 9.79462 21.7585 9.76102C21.7537 9.75142 21.7513 9.74182 21.7489 9.73462C21.7393 9.71062 21.732 9.68422 21.7248 9.66022C21.7224 9.64822 21.7177 9.63622 21.7153 9.62422C21.7105 9.60022 21.7056 9.57382 21.7008 9.54742C21.6984 9.53542 21.6961 9.52582 21.6961 9.51382C21.6913 9.47782 21.6889 9.43942 21.6889 9.40102C21.6889 9.36502 21.6913 9.33142 21.6961 9.29542C21.6961 9.28582 21.6984 9.27382 21.7008 9.26422C21.7032 9.24022 21.7081 9.21622 21.7129 9.19462C21.7153 9.18262 21.7177 9.17062 21.7225 9.16102C21.7273 9.13942 21.7344 9.11782 21.7416 9.09622C21.7464 9.08422 21.7488 9.07462 21.7536 9.06502C21.7632 9.04342 21.7705 9.02182 21.78 9.00022C21.7849 8.99062 21.7897 8.98102 21.7921 8.97382C21.8041 8.94982 21.816 8.92822 21.8304 8.90422C21.8328 8.89942 21.8376 8.89222 21.84 8.88742C21.8952 8.80102 21.9672 8.72422 22.0465 8.65942C21.9481 8.59942 21.8616 8.52022 21.7896 8.42902C21.7873 8.42662 21.7849 8.42182 21.7825 8.41942C21.7609 8.39302 21.744 8.36422 21.7248 8.33302C21.7224 8.33062 21.72 8.32582 21.7176 8.32342C21.6816 8.26102 21.6528 8.19142 21.6312 8.11942C21.6288 8.10982 21.6264 8.10022 21.624 8.09062C21.6168 8.06422 21.612 8.03782 21.6072 8.00902C21.6048 7.99942 21.6049 7.98742 21.6025 7.97782C21.5977 7.94182 21.5953 7.90342 21.5953 7.86502C21.5953 7.83142 21.5977 7.80022 21.6 7.76662C21.6 7.75702 21.6024 7.74982 21.6048 7.74022C21.6072 7.71622 21.612 7.69222 21.6168 7.67062C21.6192 7.66102 21.6216 7.65382 21.624 7.64662C21.6288 7.62262 21.636 7.60102 21.6432 7.57942C21.6456 7.57222 21.648 7.56502 21.6504 7.55782C21.6576 7.53382 21.6672 7.50982 21.6768 7.48822C21.6792 7.48342 21.6816 7.47862 21.684 7.47382C21.696 7.44982 21.708 7.42582 21.72 7.40182C21.7224 7.39942 21.7248 7.39462 21.7248 7.39222C21.7392 7.36822 21.7561 7.34422 21.7729 7.32022C21.7729 7.31782 21.7753 7.31782 21.7753 7.31542C21.7921 7.29142 21.8113 7.26742 21.8328 7.24582C21.8328 7.24582 21.8328 7.24582 21.8328 7.24342C21.8545 7.21942 21.876 7.19782 21.9 7.17622C21.7993 7.11622 21.7128 7.03942 21.6408 6.94822C21.6384 6.94582 21.636 6.94342 21.6336 6.93862C21.612 6.91222 21.5953 6.88342 21.5761 6.85462C21.5737 6.84982 21.5713 6.84742 21.5689 6.84262C21.5329 6.78022 21.5041 6.71062 21.4825 6.63862C21.4801 6.62902 21.4777 6.61942 21.4753 6.60982C21.4681 6.58342 21.4633 6.55702 21.4585 6.52822C21.4561 6.51862 21.456 6.50662 21.4536 6.49702C21.4488 6.46102 21.4465 6.42262 21.4465 6.38422C21.4465 6.35062 21.4488 6.31702 21.4512 6.28582C21.4512 6.27622 21.4537 6.26662 21.4561 6.25702C21.4585 6.23542 21.4632 6.21142 21.468 6.18982C21.4704 6.18022 21.4729 6.16822 21.4753 6.15862C21.4801 6.13702 21.4873 6.11782 21.4921 6.09622C21.4945 6.08662 21.4992 6.07702 21.504 6.06742C21.5112 6.04822 21.5208 6.02662 21.528 6.00742C21.5472 6.00022 21.552 5.99062 21.5568 5.98342C21.5664 5.96182 21.5784 5.94262 21.5904 5.92342C21.5952 5.91622 21.6001 5.90902 21.6025 5.90182C21.6145 5.88022 21.6288 5.86102 21.6432 5.84182C21.648 5.83702 21.6505 5.83222 21.6553 5.82502C21.6721 5.80342 21.6888 5.78422 21.708 5.76262C21.7104 5.76022 21.7128 5.75542 21.7176 5.75302C21.7392 5.73142 21.7608 5.70982 21.7848 5.68822C21.756 5.66902 21.7297 5.64742 21.7057 5.62582C21.6985 5.62102 21.6937 5.61382 21.6865 5.60902C21.6673 5.59222 21.648 5.57302 21.6312 5.55622C21.624 5.54902 21.6169 5.54182 21.6121 5.53462C21.5953 5.51542 21.5784 5.49382 21.564 5.47462C21.5592 5.46742 21.5545 5.46022 21.5497 5.45542C21.5304 5.42662 21.5112 5.39782 21.4944 5.36662C21.4776 5.33782 21.4656 5.30662 21.4512 5.27542C21.4464 5.26582 21.444 5.25622 21.4416 5.24662C21.4344 5.22502 21.4248 5.20102 21.42 5.17702C21.4176 5.16502 21.4128 5.15302 21.4104 5.14342C21.4056 5.11942 21.4009 5.09542 21.3961 5.07142C21.3937 5.05942 21.3912 5.04982 21.3912 5.04022C21.3864 5.00422 21.384 4.97062 21.384 4.93222C21.384 4.90102 21.3865 4.86982 21.3889 4.83862C21.3913 4.82182 21.3937 4.80742 21.3961 4.79062C21.3985 4.77622 21.4008 4.76182 21.4032 4.74742C21.4081 4.72582 21.4128 4.70422 21.42 4.68262C21.4225 4.67542 21.4224 4.66822 21.4248 4.66102C21.432 4.63702 21.4416 4.61302 21.4512 4.58902C21.4536 4.58662 21.4537 4.58182 21.4561 4.57702C21.4681 4.55062 21.4801 4.52422 21.4921 4.50022V4.49782C21.5329 4.42102 21.5857 4.34902 21.6457 4.28662H21.1489L21.6385 10.7066L21.3504 10.8338H21.1368L19.4232 7.97542L19.1472 7.98982L19.1257 8.26582L19.4761 15.2906L19.5336 15.293H19.2864V15.7034H19.104L19.0632 15.5378L18.5328 15.2762H18.2089V15.5234H17.2104V15.8066H18.2089V16.0802L19.1448 16.349C19.2816 16.4042 19.3993 16.4666 19.5361 16.4666C19.7569 16.4666 19.9225 16.3418 19.9225 16.3418L19.944 16.1906L19.764 15.9842V15.293H19.7089L19.44 8.94502L20.4504 11.0018L20.4912 11.525L20.7121 11.5874L20.7816 11.897H21.7248L21.9504 14.8658H22.3921C22.3369 14.8178 22.2841 14.765 22.2385 14.705Z" fill="currentColor"/>
<path d="M3.3336 12.9985C1.4928 12.9985 0 14.4937 0 16.3441C0 18.1969 1.4928 19.6993 3.3336 19.6993C5.1744 19.6993 6.6648 18.1993 6.6648 16.3441C6.6672 14.4937 5.1744 12.9985 3.3336 12.9985ZM3.3336 17.8969C2.4816 17.8969 1.7904 17.2009 1.7904 16.3441C1.7904 15.4849 2.4816 14.7937 3.3336 14.7937C4.1832 14.7937 4.8768 15.4849 4.8768 16.3441C4.8768 17.2009 4.1832 17.8969 3.3336 17.8969Z" fill="currentColor"/>
<path d="M15.9913 16.5433C15.6289 15.8953 14.9401 15.4585 14.1481 15.4585C13.1161 15.4585 12.2545 16.2049 12.0721 17.1889C12.0481 17.3161 12.0337 17.4457 12.0337 17.5777C12.0337 18.7489 12.9817 19.7041 14.1457 19.7041C15.3097 19.7041 16.2577 18.7513 16.2577 17.5777C16.2601 17.2009 16.1617 16.8505 15.9913 16.5433ZM14.1481 18.5065C13.6393 18.5065 13.2241 18.0913 13.2241 17.5777C13.2241 17.4385 13.2553 17.3089 13.3105 17.1889C13.4569 16.8697 13.7761 16.6489 14.1481 16.6489C14.2657 16.6489 14.3761 16.6729 14.4793 16.7113C14.8249 16.8457 15.0745 17.1793 15.0745 17.5777C15.0745 18.0913 14.6593 18.5065 14.1481 18.5065Z" fill="currentColor"/>
<path d="M5.39989 11.9859C4.93909 11.7651 4.43749 11.6187 3.90949 11.5731L4.05109 8.79627C4.05349 8.72427 4.08469 8.65227 4.13989 8.60427C4.19269 8.55387 4.26469 8.52747 4.34389 8.53227L5.39269 8.54427L5.62789 8.54667L8.84869 8.58027L9.09589 11.3091L8.81989 11.5203C8.76709 11.4771 8.72149 11.4483 8.68309 11.4411C8.49349 11.4099 8.30629 11.4195 8.20069 11.4291L8.22949 11.4003L8.18149 11.3043C8.19829 11.2707 8.20069 11.2275 8.18629 11.1891C8.15749 11.1219 8.14069 11.0475 8.12869 10.9731L8.31109 10.7859C8.35909 10.7355 8.35909 10.6587 8.30869 10.6107L8.28949 10.5915C8.24389 10.5483 8.17189 10.5435 8.11669 10.5963L7.12069 11.6187C7.09429 11.6427 7.07989 11.6787 7.08229 11.7099C7.08229 11.7435 7.09669 11.7747 7.12069 11.8011L7.13269 11.8131C7.15669 11.8395 7.18789 11.8515 7.22149 11.8515C7.25269 11.8515 7.28389 11.8395 7.31029 11.8155L7.55509 11.5635C7.59589 11.5995 7.64149 11.6331 7.68709 11.6619C7.72549 11.6883 7.77349 11.6907 7.81669 11.6715L7.91509 11.7195V11.7171L9.32149 13.8627L9.32389 13.8579L9.32629 13.8723H11.3087C11.3303 13.8723 11.8535 13.8771 12.2663 14.3043C12.4079 14.4483 12.7055 14.7939 13.0391 15.1851C13.3775 15.0243 13.7519 14.9355 14.1479 14.9355C15.2327 14.9355 16.1639 15.5979 16.5671 16.5387H17.3855V14.7603H16.1879C16.1807 13.8411 16.1567 12.7659 16.0871 12.2883C15.9863 11.6139 13.0367 11.3691 11.0279 11.2419V7.53627C11.0279 7.41627 10.9295 7.31787 10.8095 7.31787C10.6895 7.31787 10.5911 7.41627 10.5911 7.53627V11.2203C10.1903 11.1963 9.84469 11.1771 9.59749 11.1579L9.31669 8.06427L4.35349 8.01147C4.14469 8.00427 3.94069 8.07867 3.78709 8.22507C3.63349 8.37147 3.54229 8.56587 3.53509 8.77467L3.39349 11.5563C3.27589 11.5587 3.15829 11.5683 3.04069 11.5803C2.25589 11.6643 1.51189 11.9619 0.885488 12.4323C0.770288 12.5187 0.746288 12.6819 0.832688 12.7947C0.919088 12.9099 1.07989 12.9339 1.19509 12.8475C1.74949 12.4323 2.40709 12.1731 3.09829 12.0939C5.22709 11.8611 7.14469 13.4043 7.37749 15.5379C7.37749 15.5523 7.38469 15.5643 7.38949 15.5787L7.68709 17.7699H9.01669V17.1891H11.5511C11.6639 16.4211 12.1079 15.7635 12.7319 15.3579C12.4223 14.9931 12.1487 14.6787 12.0215 14.5467C11.7095 14.2227 11.3135 14.2203 11.3111 14.2203H7.55989C7.50709 14.1027 7.44949 13.9851 7.38949 13.8747H7.39189C6.98629 13.1235 6.36949 12.5163 5.63269 12.1059L5.39989 11.9859Z" fill="currentColor"/>
</g>
<defs>
<clipPath id="clip0_1437_2638">
<rect width="24" height="15.6216" fill="currentColor" transform="translate(0 4.08008)"/>
</clipPath>
</defs>
</svg>
