<svg width="24" height="24" viewBox="0 0 24 24" fill="currentColor" xmlns="http://www.w3.org/2000/svg">
<g clip-path="url(#clip0_1422_1917)">
<path d="M18.1727 22.32C18.1007 21.6408 17.5871 21.096 16.9247 20.9856C16.8431 20.9712 16.7615 20.9592 16.6751 20.9592H7.15909C6.32629 20.9592 5.64709 21.6408 5.64709 22.4784C5.64709 23.316 6.32389 24 7.15909 24H16.6775C17.5103 24 18.1895 23.3184 18.1895 22.4784C18.1895 22.4256 18.1799 22.3728 18.1727 22.32ZM7.15909 23.3496C6.68389 23.3496 6.29509 22.9608 6.29509 22.4808C6.29509 22.0032 6.68149 21.6144 7.15909 21.6144C7.63669 21.6144 8.02309 22.0032 8.02309 22.4808C8.02309 22.9584 7.63429 23.3496 7.15909 23.3496ZM16.6775 23.3496C16.2023 23.3496 15.8159 22.9608 15.8159 22.4808C15.8159 22.0032 16.2023 21.6144 16.6775 21.6144C17.1551 21.6144 17.5415 22.0032 17.5415 22.4808C17.5415 22.9584 17.1551 23.3496 16.6775 23.3496Z" fill="currentColor"/>
<path d="M20.1143 19.8312V17.2224H19.7375V17.22L14.5559 16.0056L19.7375 14.796L19.6247 14.3112L19.7375 13.824L14.5559 12.612L19.7375 11.4L19.6127 10.8576L19.7375 10.3152L14.5559 9.1032L19.4639 7.956H20.1311V6.9264V5.664V4.6968V0.912C20.1311 0.4344 19.7447 0.0456 19.2695 0.0456L5.09032 0C4.61512 0 4.22872 0.3888 4.22872 0.864V5.64H4.23352V5.664V6.9216V7.8816H4.63192L4.62952 7.8864L9.81352 9.0984L4.62952 10.3104L4.75432 10.8528L4.62952 11.3952L9.81352 12.6072L4.62952 13.8192L4.74472 14.3064L4.62952 14.7912L9.81352 16.0008L9.14632 16.1568H3.70792L3.69592 19.8312H20.1143ZM12.5831 0.5568L17.8895 0.576V2.5824H12.5831V0.5568ZM12.5831 3.1104H17.8895V4.6992H12.5831V3.1104ZM10.6967 0.5496L12.0575 0.552V2.5776H10.6967V0.5496ZM10.6967 3.1104H12.0575V5.112H10.6967V3.1104ZM4.75672 0.864C4.75672 0.6792 4.90552 0.5304 5.09032 0.5304L10.1687 0.5472V2.5776H4.75672V0.864ZM4.75672 3.1104H10.1687V5.112H4.75672V3.1104ZM17.0711 14.3088L12.1823 15.4512L7.29352 14.3088L12.1823 13.1616L17.0711 14.3088ZM17.3135 10.8528L12.1823 12.0552L7.05592 10.8528L12.1847 9.6528L17.3135 10.8528ZM18.8447 6.9864L12.1823 8.544L5.74072 7.0368V6.9216H18.8447V6.9864ZM19.6007 4.6968H18.4151V0.5736L19.2695 0.576C19.4543 0.576 19.6031 0.7248 19.6031 0.912V4.6968H19.6007Z" fill="currentColor"/>
</g>
<defs>
<clipPath id="clip0_1422_1917">
<rect width="16.4328" height="24" fill="currentColor" transform="translate(3.69592)"/>
</clipPath>
</defs>
</svg>
