<svg width="24" height="24" viewBox="0 0 24 24" fill="currentColor" xmlns="http://www.w3.org/2000/svg">
<g clip-path="url(#clip0_1431_3379)">
<path d="M22.0776 16.0968C21.6672 15.3648 20.9568 14.8272 20.112 14.6568L5.628 11.316C5.2968 11.2416 4.9536 11.2008 4.6008 11.2008C2.0616 11.2008 0 13.2648 0 15.8208C0 18.3792 2.0616 20.4504 4.6032 20.4504L19.5336 20.4576C21.1416 20.4576 22.4496 19.1424 22.4496 17.5224C22.4496 17.004 22.3128 16.5192 22.0776 16.0968ZM4.6032 17.964C3.4272 17.964 2.472 17.004 2.472 15.8208C2.472 14.6328 3.4272 13.68 4.6032 13.68C5.7768 13.68 6.7344 14.6352 6.7344 15.8208C6.732 17.004 5.7768 17.964 4.6032 17.964ZM19.5312 18.8064C18.8304 18.8064 18.2568 18.2328 18.2568 17.5224C18.2568 17.3304 18.3 17.1504 18.3768 16.9872C18.5784 16.548 19.02 16.2408 19.5312 16.2408C19.692 16.2408 19.8456 16.2744 19.9872 16.3272C20.4648 16.512 20.808 16.9728 20.808 17.5224C20.808 18.2328 20.2368 18.8064 19.5312 18.8064Z" fill="currentColor"/>
<path d="M22.3465 13.644C22.3393 12.3768 22.3033 10.8912 22.2073 10.2312C22.0681 9.29998 17.9953 8.96159 15.2233 8.78639V3.65999C15.2233 3.49439 15.0889 3.35999 14.9233 3.35999C14.7577 3.35999 14.6233 3.49439 14.6233 3.65999V8.74798C14.0689 8.71439 13.5913 8.68798 13.2529 8.66158L12.8641 4.38959L6.00971 4.31519C5.72171 4.30799 5.44091 4.40879 5.22731 4.60799C5.01611 4.80959 4.88891 5.07839 4.87931 5.36638L4.68251 9.20639C4.52171 9.21118 4.35851 9.22078 4.19531 9.23998C3.11531 9.35998 2.08571 9.76798 1.22171 10.4184C1.06331 10.536 1.03211 10.7616 1.14971 10.92C1.26971 11.0784 1.49051 11.1096 1.64891 10.992C2.41211 10.4184 3.32171 10.0608 4.27691 9.95278C5.81531 9.78478 7.27211 10.2936 8.35931 11.2368L19.9417 13.908C21.1945 14.1624 22.3681 14.916 22.8721 16.0968H24.0001V13.644H22.3465ZM5.39531 9.23278L5.59211 5.39999C5.59451 5.29919 5.63771 5.20319 5.71211 5.13599C5.78651 5.06639 5.88251 5.03039 5.99291 5.03759L7.44251 5.05199L7.45451 9.80639C6.81611 9.50159 6.12491 9.29758 5.39531 9.23278ZM12.1753 9.16319C12.1033 9.10319 12.0385 9.06478 11.9881 9.05278C11.7265 9.00958 11.4673 9.02398 11.3209 9.03838L11.3617 8.99998L11.2969 8.86799C11.3209 8.82239 11.3233 8.76238 11.3041 8.70959C11.2633 8.61598 11.2393 8.51518 11.2273 8.41198L11.4793 8.15518C11.5465 8.08799 11.5441 7.97998 11.4769 7.91278L11.4481 7.88638C11.3857 7.82878 11.2873 7.82158 11.2105 7.89358L9.83531 9.30478C9.79691 9.33599 9.77771 9.38638 9.78011 9.42958C9.78011 9.47518 9.79931 9.51838 9.83291 9.55438L9.85211 9.57118C9.88331 9.60718 9.92891 9.62398 9.97451 9.62398C10.0201 9.62398 10.0609 9.60718 10.0969 9.57358L10.4353 9.22798C10.4929 9.27599 10.5553 9.32158 10.6177 9.36238C10.6705 9.39839 10.7377 9.40318 10.7977 9.37678L10.9345 9.44398V9.44159L12.0217 11.1H9.23771C8.81051 10.656 8.32091 10.2744 7.78091 9.97678L7.76651 5.05199L12.2137 5.09999L12.5545 8.86799L12.1753 9.16319Z" fill="currentColor"/>
</g>
<defs>
<clipPath id="clip0_1431_3379">
<rect width="24" height="17.0976" fill="currentColor" transform="translate(0 3.35999)"/>
</clipPath>
</defs>
</svg>
