<svg width="24" height="24" viewBox="0 0 24 24" fill="currentColor" xmlns="http://www.w3.org/2000/svg">
<g clip-path="url(#clip0_1427_1579)">
<path d="M23.8368 12.6096C23.5416 12.4392 22.908 12.1824 22.6824 12.0912C22.788 10.884 22.9704 8.75521 23.0616 7.57201L23.2608 10.6008L23.3592 10.6272L23.4528 12.4008L23.7312 12.5232L23.604 10.62L23.7144 10.5888L23.3784 6.71281L23.1384 6.27361C23.1576 5.88241 23.1672 5.53441 23.0904 5.43361C22.98 5.29441 22.7832 4.86001 22.6272 4.64881C22.4904 4.46401 22.2888 4.60561 22.1928 4.68721C21.768 4.56001 21.7032 4.86241 21.7032 4.86241L18.948 5.55601L18.9216 5.48401L14.3472 6.38641L14.304 6.52561C14.304 6.52561 14.1168 6.54481 13.9872 6.57841C13.8576 6.61201 13.8096 6.69121 13.608 6.75121C13.4448 6.79921 13.3224 6.99121 13.2816 7.06321C12.7032 7.27921 12.0384 7.62961 11.5944 8.16241C11.5944 8.16241 12.2616 9.83761 12.2544 9.95281C12.2472 10.068 12.8544 8.99761 14.9304 8.49121C16.8528 8.02321 20.3952 7.30801 21.0984 7.17841L22.08 13.044L22.0824 13.1448L21.9408 13.152L21.7464 13.2864L20.1432 13.572L20.124 13.3848L19.3704 13.4472L19.3968 13.692L18.5976 13.3224L17.9808 13.596L18.4656 14.0568L18.8496 14.4528L20.04 15.6552C20.04 15.6552 20.3112 15.8736 20.712 15.9072C21.1152 15.9408 21.7944 16.0944 22.1424 15.792C22.4904 15.4896 22.6584 15.3 22.6776 15.108C22.6944 14.916 22.62 14.7336 22.7016 14.6112C22.7832 14.4888 22.7448 14.4936 22.9896 14.4672C23.2344 14.4408 23.2008 14.4816 23.2248 14.3472C23.2488 14.2128 23.2272 14.0232 23.2272 14.0232L23.8104 12.9936L23.8416 13.008C23.8416 13.008 24.2016 12.8184 23.8368 12.6096ZM20.0448 6.33121C19.8528 6.35281 16.812 6.57361 15.2736 6.69121L19.044 5.93521L19.032 5.81281L21.6696 5.09521L21.6864 5.21281C21.6528 5.24881 21.6312 5.27041 21.6312 5.27041L21.2136 6.15841C20.9952 6.13201 20.8008 6.11761 20.784 6.12001C20.532 6.13681 20.2968 6.30481 20.0448 6.33121ZM23.1984 13.38L22.7136 13.1088L22.6584 13.1112L22.6056 12.9864C22.6056 12.9864 22.6224 12.7872 22.6512 12.4584L23.4168 12.8112L23.1984 13.38Z" fill="currentColor"/>
<path d="M3.25824 16.229L9.19104 16.229L9.19104 15.1082L3.25824 15.1082L3.25824 16.229Z" fill="currentColor"/>
<path d="M0.264038 11.645V14.6642H11.9952V10.9466C11.9952 10.937 11.9952 10.9274 11.9952 10.9178C11.9952 10.8842 11.9904 10.8482 11.976 10.8146L10.2768 6.46096C10.2408 6.36736 10.1616 6.30736 10.0728 6.28336V6.26416H6.64564V6.31936H6.63604V10.9178H0.991238C0.590438 10.9178 0.264038 11.2442 0.264038 11.645ZM7.86964 7.49776H9.35764L10.6944 10.9178H7.86964V7.49776ZM3.06964 12.0842C3.06964 12.1826 2.98804 12.2642 2.88964 12.2642H1.07044C0.972038 12.2642 0.890438 12.1826 0.890438 12.0842C0.890438 11.9858 0.972038 11.9042 1.07044 11.9042H2.88964C2.98804 11.9042 3.06964 11.9858 3.06964 12.0842ZM0.868838 12.6458C0.868838 12.5474 0.950438 12.4658 1.04884 12.4658H2.86804C2.96644 12.4658 3.04804 12.5474 3.04804 12.6458C3.04804 12.7442 2.96644 12.8258 2.86804 12.8258H1.04884C0.950438 12.8234 0.868838 12.7442 0.868838 12.6458Z" fill="currentColor"/>
<path d="M11.6184 17.9617C11.5512 17.3305 11.076 16.8265 10.4616 16.7257C10.3872 16.7137 10.3104 16.7017 10.2312 16.7017H1.4016C0.6288 16.6993 0 17.3329 0 18.1081C0 18.8857 0.6288 19.5193 1.4016 19.5193H10.2312C11.004 19.5193 11.6328 18.8857 11.6328 18.1081C11.6328 18.0577 11.6256 18.0097 11.6184 17.9617ZM1.4016 18.9145C0.96 18.9145 0.6 18.5521 0.6 18.1081C0.6 17.6665 0.96 17.3041 1.4016 17.3041C1.8432 17.3041 2.2032 17.6665 2.2032 18.1081C2.2032 18.5545 1.8432 18.9145 1.4016 18.9145ZM10.2312 18.9145C9.7896 18.9145 9.432 18.5521 9.432 18.1081C9.432 17.6665 9.7896 17.3041 10.2312 17.3041C10.6728 17.3041 11.0328 17.6665 11.0328 18.1081C11.0328 18.5545 10.6728 18.9145 10.2312 18.9145Z" fill="currentColor"/>
</g>
<defs>
<clipPath id="clip0_1427_1579">
<rect width="24" height="14.9592" fill="currentColor" transform="translate(0 4.56006)"/>
</clipPath>
</defs>
</svg>
