<svg width="24" height="24" viewBox="0 0 24 24" fill="currentColor" xmlns="http://www.w3.org/2000/svg">
<g clip-path="url(#clip0_1426_1378)">
<path d="M6.69118 15.5713C6.61198 15.5449 6.53038 15.5281 6.44158 15.5281C6.00958 15.5281 5.65918 15.8785 5.65918 16.3153C5.65918 16.3993 5.67598 16.4785 5.69998 16.5529C5.80078 16.8721 6.09358 17.1049 6.44398 17.1049C6.87598 17.1049 7.22638 16.7521 7.22638 16.3177C7.22398 15.9673 7.00078 15.6769 6.69118 15.5713ZM6.44158 16.6777C6.24238 16.6777 6.07918 16.5145 6.07918 16.3129C6.07918 16.1113 6.24238 15.9481 6.44158 15.9481C6.64078 15.9481 6.80398 16.1113 6.80398 16.3129C6.80398 16.5145 6.64078 16.6777 6.44158 16.6777Z" fill="currentColor"/>
<path d="M16.3897 16.1352C16.3537 16.1232 16.3177 16.116 16.2769 16.116C16.0825 16.116 15.9241 16.2744 15.9241 16.4688C15.9241 16.5072 15.9313 16.5408 15.9433 16.5744C15.9889 16.7184 16.1209 16.8216 16.2769 16.8216C16.4713 16.8216 16.6297 16.6632 16.6297 16.4664C16.6297 16.3128 16.5289 16.1808 16.3897 16.1352ZM16.2769 16.632C16.1857 16.632 16.1137 16.5576 16.1137 16.4688C16.1137 16.3776 16.1881 16.3056 16.2769 16.3056C16.3657 16.3056 16.4401 16.38 16.4401 16.4688C16.4401 16.56 16.3657 16.632 16.2769 16.632Z" fill="currentColor"/>
<path d="M20.8632 10.1688C20.8632 10.212 20.8992 10.248 20.9424 10.248H21.1032V11.0352H21.072V11.7576H23.88V11.0352H23.712V10.248H23.9208C23.964 10.248 24 10.212 24 10.1688C24 10.1256 23.964 10.0896 23.9208 10.0896H23.712V8.89199H23.9208C23.964 8.89199 24 8.85599 24 8.81279C24 8.76959 23.964 8.73359 23.9208 8.73359H23.712V8.10239C23.712 8.05919 23.676 8.02319 23.6328 8.02319H21.18C21.1368 8.02319 21.1008 8.05919 21.1008 8.10239V8.73599H20.94C20.8968 8.73599 20.8608 8.77199 20.8608 8.81519C20.8608 8.85839 20.8968 8.89439 20.94 8.89439H21.1008V10.092H20.94C20.8968 10.0896 20.8632 10.1256 20.8632 10.1688ZM21.7656 8.73599H21.2592V8.18159H21.7656V8.73599ZM21.7656 10.0896H21.2592V8.89199H21.7656V10.0896ZM22.8144 8.73599H21.9216V8.18159H22.8144V8.73599ZM22.8144 10.0896H21.9216V8.89199H22.8144V10.0896ZM22.8144 10.248V11.0352H21.9216V10.248H22.8144ZM23.5536 8.73599H22.9728V8.18159H23.5536V8.73599ZM23.5536 10.0896H22.9728V8.89199H23.5536V10.0896ZM23.5536 11.0352H22.9728V10.248H23.5536V11.0352ZM21.2592 11.0352V10.248H21.7656V11.0352H21.2592Z" fill="currentColor"/>
<path d="M9.93851 16.0056H9.09131L10.7833 17.2416H11.2297L9.93851 16.0056Z" fill="currentColor"/>
<path d="M10.7135 17.6533L11.8079 17.6533L11.8079 17.4061L10.7135 17.4061L10.7135 17.6533Z" fill="currentColor"/>
<path d="M10.7135 17.6533L11.8079 17.6533L11.8079 17.4061L10.7135 17.4061L10.7135 17.6533Z" fill="currentColor"/>
<path d="M1.0944 17.4048H0V17.652H1.0944V17.4048Z" fill="currentColor"/>
<path d="M4.55769 15.96H3.12969L0.316895 17.2176L1.08969 17.2296L4.55769 15.96Z" fill="currentColor"/>
<path d="M4.8335 6.67676L5.1383 7.48796L12.5255 9.12956L12.2687 8.31836L4.8335 6.67676Z" fill="currentColor"/>
<path d="M12.8208 8.5271L12.9744 9.0431L20.2896 10.6079L20.4888 11.4071V11.7503H20.7528L20.7504 11.3975L20.4528 10.2311L12.8208 8.5271Z" fill="currentColor"/>
<path d="M4.68238 7.45678L4.35118 6.59038L4.01038 6.47998L3.74878 7.99438L3.92398 8.15278L4.68238 7.45678Z" fill="currentColor"/>
<path d="M18.3529 15.1585L18.0577 14.8633L17.9641 14.9545L18.1681 15.1585H17.9905V15.3673H18.5257V15.1585H18.3529Z" fill="currentColor"/>
<path d="M4.93752 7.72068L4.73218 7.92603L7.45423 10.6481L7.65957 10.4427L4.93752 7.72068Z" fill="currentColor"/>
<path d="M4.42678 8.24095L4.22144 8.44629L6.94009 11.1649L7.14544 10.9596L4.42678 8.24095Z" fill="currentColor"/>
<path d="M17.7481 15.1848L16.4545 15.1584V14.9256H16.0969V15.1512L8.50325 15.0024V14.688L8.72645 14.6904V14.3712L7.05605 13.9608H6.15605L7.73765 12.3792L7.53365 12.1752L5.74805 13.9608H5.50565L5.33525 13.752L7.22165 11.8656L7.01765 11.6616L5.15285 13.5264L4.83365 13.1376L3.04565 12.7368V13.8432L3.97445 14.64L6.63365 14.6688V14.9712H5.82245L3.77525 14.9496L3.54005 15.6552L5.48165 15.7008L5.90405 15.2544L7.09925 15.2856L7.40885 15.7608H10.9729L16.0969 15.4752V15.972H16.4545V15.456L17.7481 15.384V15.1848Z" fill="currentColor"/>
<path d="M7.91516 10.7136L7.22876 11.4024L7.96796 12.144L8.31596 11.772L7.91516 10.7136Z" fill="currentColor"/>
</g>
<defs>
<clipPath id="clip0_1426_1378">
<rect width="24" height="11.172" fill="currentColor" transform="translate(0 6.47998)"/>
</clipPath>
</defs>
</svg>
