<svg width="24" height="24" viewBox="0 0 24 24" fill="currentColor" xmlns="http://www.w3.org/2000/svg">
<g clip-path="url(#clip0_1426_1373)">
<path d="M10.7304 17.2752C10.5888 17.2272 10.4376 17.196 10.2792 17.196C9.4944 17.196 8.8584 17.832 8.8584 18.6216C8.8584 18.7728 8.8872 18.9144 8.9304 19.0512C9.1128 19.6296 9.6456 20.0496 10.2768 20.0496C11.0616 20.0496 11.6952 19.4088 11.6952 18.6216C11.7 17.9928 11.292 17.4648 10.7304 17.2752ZM10.2816 19.2816C9.9192 19.2816 9.624 18.9864 9.624 18.6216C9.624 18.2544 9.9192 17.9592 10.2816 17.9592C10.644 17.9592 10.9392 18.2544 10.9392 18.6216C10.9392 18.9864 10.644 19.2816 10.2816 19.2816Z" fill="currentColor"/>
<path d="M21.7201 18.2953C21.6553 18.2737 21.5881 18.2593 21.5161 18.2593C21.1633 18.2593 20.8777 18.5449 20.8777 18.9001C20.8777 18.9673 20.8921 19.0321 20.9113 19.0945C20.9929 19.3537 21.2329 19.5433 21.5185 19.5433C21.8713 19.5433 22.1569 19.2553 22.1569 18.9001C22.1569 18.6169 21.9745 18.3817 21.7201 18.2953ZM21.5185 19.1977C21.3553 19.1977 21.2233 19.0657 21.2233 18.9001C21.2233 18.7345 21.3553 18.6025 21.5185 18.6025C21.6817 18.6025 21.8137 18.7345 21.8137 18.9001C21.8137 19.0657 21.6817 19.1977 21.5185 19.1977Z" fill="currentColor"/>
<path d="M13.6249 18.0625H12.0913L15.1585 20.3041H15.9673L13.6249 18.0625Z" fill="currentColor"/>
<path d="M15.0327 21.0483L17.0151 21.0483L17.0151 20.5995L15.0327 20.5995L15.0327 21.0483Z" fill="currentColor"/>
<path d="M0.000632405 21.0483L1.98303 21.0483L1.98303 20.5995L0.000632405 20.5995L0.000632405 21.0483Z" fill="currentColor"/>
<path d="M8.26325 17.9761H5.67125L0.57605 20.2585L1.97285 20.2801L8.26325 17.9761Z" fill="currentColor"/>
<path d="M21.8401 16.421V16.1018H21.1945V16.4066L13.3969 16.2386V15.4202H7.11607V16.1642L5.44807 16.145L5.02087 17.4242L8.53927 17.5106L9.30727 16.6994L11.4721 16.757L12.0361 17.6162H14.3929L21.1945 16.9466V18.0002H21.8401V16.8842L22.6825 16.8002V16.4378L21.8401 16.421Z" fill="currentColor"/>
<path d="M23.6112 16.4353L23.2032 16.0273L23.0328 16.1953L23.2728 16.4353H23.0328V16.8145H24V16.4353H23.6112Z" fill="currentColor"/>
<path d="M12.324 15.0409L16.1832 14.1385L16.0992 13.7761L16.1832 13.4137L12.324 12.5113L16.1832 11.6089L16.0896 11.2057L16.1832 10.8001L12.324 9.89772L15.9792 9.04332H16.476V8.27532V7.33932V6.61932V3.79932C16.476 3.44412 16.188 3.15372 15.8352 3.15372L5.27764 3.12012C4.92484 3.12012 4.63684 3.40812 4.63684 3.76332V7.32012H4.64164V7.33692V8.27292V8.98812H4.93684L4.93444 8.99292L8.79364 9.89532L4.93444 10.8001L5.02804 11.2033L4.93444 11.6065L8.79364 12.5089L4.93444 13.4113L5.01844 13.7737L4.93444 14.1361L8.79364 15.0385H12.324V15.0409ZM15.1992 3.54732L15.8352 3.54972C15.972 3.54972 16.0824 3.66012 16.0824 3.79932V6.61692H15.1992V3.54732ZM10.8552 3.53292L14.808 3.54732V5.04012H10.8552V3.53292ZM10.8552 5.43612H14.808V6.61932H10.8552V5.43612ZM9.45124 3.53052L10.464 3.53292V5.04012H9.45124V3.53052ZM9.45124 5.43612H10.464V6.92652H9.45124V5.43612ZM5.02804 3.76332C5.02804 3.62652 5.13844 3.51612 5.27524 3.51612L9.05764 3.52812V5.04012H5.02804V3.76332ZM5.02804 5.43612H9.05764V6.92652H5.02804V5.43612ZM5.76244 8.35932V8.27292H15.5208V8.32332L10.56 9.48252L5.76244 8.35932ZM6.73924 11.2009L10.5576 10.3081L14.3784 11.2009L10.5576 12.0961L6.73924 11.2009ZM6.91684 13.7761L10.5576 12.9217L14.1984 13.7761L10.5576 14.6281L6.91684 13.7761Z" fill="currentColor"/>
</g>
<defs>
<clipPath id="clip0_1426_1373">
<rect width="24" height="17.928" fill="currentColor" transform="translate(0 3.12012)"/>
</clipPath>
</defs>
</svg>
