<svg width="24" height="24" viewBox="0 0 24 24" fill="currentColor" xmlns="http://www.w3.org/2000/svg">
<g clip-path="url(#clip0_1538_801)">
<path d="M11.9592 0C4.97036 0 0.959961 3.6456 0.959961 10.0008C0.959961 16.7616 5.38076 24 11.9592 24C18.5376 24 22.9584 16.7616 22.9584 10.0008C22.9608 3.6456 18.9504 0 11.9592 0ZM11.9592 4.0008C12.5112 4.0008 12.96 4.4496 12.96 5.0016C12.96 5.5536 12.5112 6 11.9592 6C11.4072 6 10.9584 5.5512 10.9584 4.9992C10.9584 4.4472 11.4072 4.0008 11.9592 4.0008ZM5.95916 4.0008C6.51116 4.0008 6.95996 4.4496 6.95996 5.0016C6.95996 5.5536 6.51116 6 5.95916 6C5.40716 6 4.95836 5.5512 4.95836 4.9992C4.95836 4.4472 5.40716 4.0008 5.95916 4.0008ZM11.9592 19.9992C11.4072 19.9992 10.9584 19.5504 10.9584 18.9984C10.9584 18.4464 11.4072 17.9976 11.9592 17.9976C12.5112 17.9976 12.96 18.4464 12.96 18.9984C12.96 19.5528 12.5112 19.9992 11.9592 19.9992ZM17.9592 19.9992C17.4072 19.9992 16.9584 19.5504 16.9584 18.9984C16.9584 18.4464 17.4072 17.9976 17.9592 17.9976C18.5112 17.9976 18.96 18.4488 18.96 19.0008C18.96 19.5528 18.5112 19.9992 17.9592 19.9992ZM18.96 16.9992H16.9608V13.0008H12.96V17.0016H10.9608V13.0008H5.95916C5.40716 13.0008 4.95836 12.552 4.95836 12V7.0008H6.95996V11.0016H10.9608V7.0008H12.96V11.0016H16.9608V7.0008H18.96V16.9992ZM17.9592 6C17.4072 6 16.9584 5.5512 16.9584 4.9992C16.9584 4.4472 17.4072 3.9984 17.9592 3.9984C18.5112 3.9984 18.96 4.4472 18.96 4.9992C18.96 5.5512 18.5112 6 17.9592 6Z" fill="currentColor"/>
</g>
<defs>
<clipPath id="clip0_1538_801">
<rect width="22.0008" height="24" fill="currentColor" transform="translate(0.959961)"/>
</clipPath>
</defs>
</svg>
