<svg width="24" height="24" viewBox="0 0 24 24" fill="currentColor" xmlns="http://www.w3.org/2000/svg">
<g clip-path="url(#clip0_1437_1875)">
<path d="M4.44488 12.4727C3.60968 12.4727 2.91368 13.0775 2.76728 13.8719C2.74808 13.9751 2.73608 14.0783 2.73608 14.1863C2.73608 15.1343 3.50408 15.9047 4.44488 15.9047C5.38568 15.9047 6.15368 15.1343 6.15368 14.1863C6.15368 13.8815 6.07448 13.5983 5.93528 13.3511C5.64248 12.8279 5.08568 12.4727 4.44488 12.4727ZM4.44488 14.9375C4.03448 14.9375 3.69848 14.6015 3.69848 14.1863C3.69848 14.0735 3.72488 13.9679 3.76808 13.8719C3.88568 13.6151 4.14488 13.4351 4.44488 13.4351C4.53848 13.4351 4.62728 13.4543 4.71128 13.4855C4.99208 13.5935 5.19128 13.8623 5.19128 14.1863C5.19368 14.6015 4.85768 14.9375 4.44488 14.9375Z" fill="currentColor"/>
<path d="M8.68805 12.4727C7.85285 12.4727 7.15685 13.0775 7.01045 13.8719C6.99125 13.9751 6.97925 14.0783 6.97925 14.1863C6.97925 15.1343 7.74725 15.9047 8.68805 15.9047C9.62885 15.9047 10.3968 15.1343 10.3968 14.1863C10.3968 13.8815 10.3176 13.5983 10.1784 13.3511C9.88565 12.8279 9.32645 12.4727 8.68805 12.4727ZM8.68805 14.9375C8.27765 14.9375 7.94165 14.6015 7.94165 14.1863C7.94165 14.0735 7.96805 13.9679 8.01125 13.8719C8.12885 13.6151 8.38805 13.4351 8.68805 13.4351C8.78165 13.4351 8.87045 13.4543 8.95445 13.4855C9.23525 13.5935 9.43445 13.8623 9.43445 14.1863C9.43445 14.6015 9.10085 14.9375 8.68805 14.9375Z" fill="currentColor"/>
<path d="M23.9999 14.1863L22.5143 13.8167L21.6095 13.7615C21.2231 12.5087 20.3279 12.6359 19.7879 12.7127C19.6919 12.7271 19.6007 12.7391 19.5263 12.7439C19.3151 12.7559 19.1855 12.7223 19.0463 12.6863C18.8855 12.6455 18.7151 12.6047 18.4415 12.6431V12.4583H9.60229C9.91429 12.6239 10.1807 12.8759 10.3679 13.1903H16.2143V13.9871L20.4719 14.3111L20.7839 14.8583L20.8439 14.8295L21.1007 15.2807L21.0407 15.3503H20.8847C20.6975 15.3503 20.5463 15.5015 20.5463 15.6887V15.8063C20.5463 15.8615 20.5895 15.9047 20.6447 15.9047H21.7055C21.7511 15.9047 21.7871 15.8687 21.7871 15.8231V15.6791C21.7871 15.6023 21.6143 15.4943 21.4535 15.4247L21.9983 14.8703C22.1135 14.9015 22.2983 14.9375 22.5071 14.9375C22.8215 14.9375 23.1935 14.8535 23.4815 14.5391L23.9591 14.5751L23.9999 14.1863ZM19.6439 13.6439L19.1951 13.6175V13.0583H18.7703L18.4415 13.0511V12.8423C18.6935 12.8015 18.8351 12.8375 18.9959 12.8783C19.1351 12.9143 19.2959 12.9551 19.5335 12.9431C19.6175 12.9383 19.7135 12.9263 19.8143 12.9119C20.3687 12.8327 21.0527 12.7367 21.3983 13.7543L20.8391 13.7207L20.8583 13.3775L19.6607 13.3127L19.6439 13.6439ZM20.9279 14.7959L20.9183 14.7935L20.9831 14.7623L20.7503 14.3495L20.7647 14.3591L20.7383 14.3327L21.9575 14.4263L21.1655 15.2183L20.9279 14.7959ZM22.1615 14.7071L22.4087 14.4599L23.2127 14.5223C22.8647 14.7887 22.4231 14.7599 22.1615 14.7071Z" fill="currentColor"/>
<path d="M6.12473 13.1903H7.00553C7.18793 12.8783 7.45433 12.6263 7.77113 12.4583H5.35913C5.67113 12.6239 5.93753 12.8759 6.12473 13.1903Z" fill="currentColor"/>
<path d="M3.52806 12.4583H1.98486V13.1903H2.76486C2.94726 12.8783 3.21366 12.6263 3.52806 12.4583Z" fill="currentColor"/>
<path d="M18.4416 7.91992H0V12.0935H18.4416V7.91992Z" fill="currentColor"/>
</g>
<defs>
<clipPath id="clip0_1437_1875">
<rect width="24" height="7.9848" fill="currentColor" transform="translate(0 7.91992)"/>
</clipPath>
</defs>
</svg>
