<svg width="24" height="24" viewBox="0 0 24 24" fill="currentColor" xmlns="http://www.w3.org/2000/svg">
<g clip-path="url(#clip0_1430_2184)">
<path d="M12.7992 14.3425C12.7584 13.9657 12.4752 13.6633 12.108 13.6033C12.0624 13.5961 12.0168 13.5889 11.9688 13.5889H4.87923C4.41603 13.5889 4.04163 13.9681 4.04163 14.4313C4.04163 14.8969 4.41843 15.2761 4.87923 15.2761H11.9688C12.432 15.2761 12.8088 14.8969 12.8088 14.4313C12.8088 14.4025 12.8016 14.3713 12.7992 14.3425ZM4.87923 14.9137C4.61523 14.9137 4.39923 14.6977 4.39923 14.4313C4.39923 14.1673 4.61523 13.9513 4.87923 13.9513C5.14323 13.9513 5.35923 14.1673 5.35923 14.4313C5.35683 14.6977 5.14323 14.9137 4.87923 14.9137ZM11.9688 14.9137C11.7048 14.9137 11.4912 14.6977 11.4912 14.4313C11.4912 14.1673 11.7048 13.9513 11.9688 13.9513C12.2328 13.9513 12.4488 14.1673 12.4488 14.4313C12.4488 14.6977 12.2328 14.9137 11.9688 14.9137Z" fill="currentColor"/>
<path d="M2.83914 13.2983H0.895142V13.8311H2.83914V13.2983Z" fill="currentColor"/>
<path d="M0.2376 13.8693H0.7344V10.9077H0L0.2376 13.8693Z" fill="currentColor"/>
<path d="M2.63277 11.2798H1.37037C1.31517 11.2798 1.27197 11.323 1.27197 11.3782V12.6406C1.27197 12.6958 1.31517 12.739 1.37037 12.739H2.63277C2.68797 12.739 2.73117 12.6958 2.73117 12.6406V11.3782C2.73117 11.323 2.68557 11.2798 2.63277 11.2798Z" fill="currentColor"/>
<path d="M9.57357 10.6152C9.53997 10.6152 9.47277 10.6152 9.47277 10.6152H6.57117V13.3104H9.47037V12.3984C9.50397 12.4032 9.53757 12.4056 9.57117 12.4056C10.0656 12.4056 10.4664 12.0048 10.4664 11.5104C10.4664 11.016 10.068 10.6152 9.57357 10.6152Z" fill="currentColor"/>
<path d="M12.66 13.4398L12.7776 12.8662L11.832 12.871L10.9056 13.2286L12.66 13.4398Z" fill="currentColor"/>
<path d="M14.1049 15.391H15.5305C15.6481 15.391 15.7417 15.2974 15.7417 15.1798V14.1646H14.1049V15.391Z" fill="currentColor"/>
<path d="M11.3808 12.6958L10.5576 12.9694L10.5408 12.919L9.92637 13.123C9.85197 13.147 9.81597 13.2334 9.85197 13.303C9.88077 13.3606 9.94797 13.387 10.008 13.3678L10.6224 13.1638L10.6056 13.1134L11.4504 12.8326L11.3808 12.6958Z" fill="currentColor"/>
<path d="M17.5368 10.5213L12.6888 9.69329C12.5208 9.66449 12.3576 9.69809 12.2208 9.77729L11.544 9.69569L8.47442 9.96689L8.39282 10.3653H9.72722C10.2888 10.4373 10.716 10.9293 10.716 11.5101C10.716 12.0309 10.3656 12.4725 9.88562 12.6093H10.3464L11.4096 11.8125L11.46 11.8773L12.54 11.0709L12.708 11.2389L11.6016 12.0645L11.6496 12.1293L11.0112 12.6069H12.8112L13.0632 10.5189L18.1032 11.3805L18.1104 11.3325C18.1752 10.9509 17.9184 10.5885 17.5368 10.5213ZM17.7048 11.1357C17.6256 11.1357 17.5584 11.0709 17.5584 10.9893C17.5584 10.9101 17.6232 10.8429 17.7048 10.8429C17.784 10.8429 17.8512 10.9077 17.8512 10.9893C17.8512 11.0709 17.7864 11.1357 17.7048 11.1357Z" fill="currentColor"/>
<path d="M6.504 8.5367H4.0848V8.8343H3.6864V8.4839L3.9936 8.3999L6.492 8.4671L6.504 8.5367Z" fill="currentColor"/>
<path d="M6.34562 10.6151V8.59668H4.26002V9.65748H3.04562V10.7903L0.88562 10.9055V13.1351L2.99042 13.1399L2.99762 13.8239H3.97442C4.16882 13.5311 4.50242 13.3391 4.87922 13.3391H6.37442V10.6151H6.34562ZM2.80562 12.6383C2.80562 12.7343 2.72882 12.8111 2.63282 12.8111H1.37042C1.27442 12.8111 1.19762 12.7343 1.19762 12.6383V11.3759C1.19762 11.2799 1.27442 11.2031 1.37042 11.2031H2.63282C2.72882 11.2031 2.80562 11.2799 2.80562 11.3759V12.6383ZM6.01442 10.6343V9.92148H6.15842L6.14882 10.6271L6.01442 10.6343ZM5.35682 8.80308C5.46242 8.80308 6.17522 8.80308 6.17522 8.80308L6.16322 9.66948H6.01442V9.64308C6.01442 9.58308 5.96642 9.53508 5.90642 9.53508H5.81762C5.78882 9.53508 5.76242 9.54708 5.74322 9.56628L5.68322 9.53508L5.65682 9.57108L5.71202 9.62388C5.70962 9.63108 5.70962 9.63828 5.70962 9.64548V10.6535L5.24402 10.6775V8.95428C5.24402 8.95428 5.25122 8.80308 5.35682 8.80308ZM4.55522 8.94708H5.02562V9.47028H4.55522V8.94708ZM4.26002 9.80628V10.2719H3.19442V9.80628H4.26002ZM3.19442 10.7831V10.4231H4.26002V10.7279L3.19442 10.7831Z" fill="currentColor"/>
<path d="M5.58479 9.62124C5.58959 9.61884 5.59199 9.61644 5.59439 9.61404L5.69519 9.47484C5.70239 9.46524 5.69999 9.45084 5.69039 9.44364C5.68079 9.43644 5.66639 9.43884 5.65919 9.44844L5.55839 9.58764C5.55119 9.59724 5.55359 9.61164 5.56319 9.61884C5.57039 9.62124 5.57759 9.62364 5.58479 9.62124Z" fill="currentColor"/>
<path d="M23.9928 12.2857L18.2375 11.3857L18.3071 10.9297L18.7631 10.9969L18.7463 11.1001L21.5207 11.5729L24 12.2089L23.9928 12.2857Z" fill="currentColor"/>
<path d="M22.4544 13.3774C22.248 13.3774 22.08 13.5454 22.08 13.7518C22.08 13.9582 22.248 14.1262 22.4544 14.1262C22.6608 14.1262 22.8288 13.9582 22.8288 13.7518C22.8288 13.5454 22.6608 13.3774 22.4544 13.3774Z" fill="currentColor"/>
<path d="M23.5296 13.4617C23.4768 13.1761 23.1864 12.7513 22.86 12.5977C22.5504 12.4537 21.708 12.2425 21.1896 12.1585C20.9088 12.1129 20.6232 12.0649 20.3568 12.0193C19.9704 11.9545 19.6248 11.8945 19.3944 11.8633C19.2792 11.8465 19.0656 11.8129 18.8016 11.7721C18.1536 11.6689 17.268 11.5273 16.7832 11.4769C16.4424 11.4409 15.672 11.3233 14.9256 11.2081C14.1816 11.0953 13.476 10.9873 13.1976 10.9585L13.1616 11.3041C13.4304 11.3305 14.1312 11.4385 14.8704 11.5513C15.6192 11.6665 16.3944 11.7841 16.7424 11.8225C17.22 11.8729 18.1368 12.0193 18.744 12.1153C19.0104 12.1585 19.2264 12.1921 19.3416 12.2089C19.5696 12.2401 19.9128 12.3001 20.2944 12.3649C20.5608 12.4105 20.8488 12.4585 21.1296 12.5041C21.6696 12.5929 22.452 12.7945 22.7088 12.9145C22.7496 12.9337 22.7928 12.9625 22.8312 12.9961C22.74 12.9433 22.6392 12.9049 22.5264 12.8881C22.4928 12.8833 22.4592 12.8809 22.4256 12.8785V12.8713L13.128 11.4121L12.948 12.7657L12.8088 12.6097L12.7776 12.8689L13.9008 14.0929V14.0953H15.5424V13.8361H13.9032L13.4184 13.2913L22.1616 14.6641L22.1664 14.6401C22.2 14.6497 22.2312 14.6569 22.2648 14.6617C22.3488 14.6737 22.4328 14.6713 22.512 14.6617C22.4904 14.6665 22.4712 14.6713 22.4472 14.6761C22.1256 14.7265 21.3264 14.6761 20.8776 14.6017C20.4336 14.5273 15.9288 13.7881 15.9288 13.7881L15.8736 14.1313C15.8736 14.1313 20.3784 14.8705 20.8224 14.9449C21.1296 14.9953 21.6624 15.0433 22.0824 15.0433C22.248 15.0433 22.3944 15.0361 22.5024 15.0193C22.9176 14.9545 23.124 14.7601 23.3376 14.4481C23.5344 14.1529 23.5992 13.8313 23.5296 13.4617ZM21.9792 13.7545C21.9792 13.4929 22.1928 13.2793 22.4544 13.2793C22.716 13.2793 22.9296 13.4929 22.9296 13.7545C22.9296 14.0161 22.716 14.2297 22.4544 14.2297C22.1928 14.2273 21.9792 14.0161 21.9792 13.7545Z" fill="currentColor"/>
</g>
<defs>
<clipPath id="clip0_1430_2184">
<rect width="24" height="6.9912" fill="currentColor" transform="translate(0 8.3999)"/>
</clipPath>
</defs>
</svg>
