<svg width="24" height="24" viewBox="0 0 24 24" fill="currentColor" xmlns="http://www.w3.org/2000/svg">
<g clip-path="url(#clip0_1413_1148)">
<path d="M21.3096 8.87285H17.076V6.44885H16.4208V3.29285H15.7272V9.50165H16.4016H16.4208H16.9248C16.9296 9.50165 16.9344 9.50165 16.9392 9.50165H17.076V9.49205H21.3552C21.4752 9.49205 24 9.46085 24 9.33845V9.17285C24 8.98805 21.432 8.87285 21.3096 8.87285Z" fill="currentColor"/>
<path d="M16.284 19.464C16.284 21.384 17.832 22.9464 19.7424 22.9464C21.2856 22.9464 22.5792 21.9192 23.0256 20.5128C23.1312 20.1816 23.2032 19.8312 23.2032 19.464C23.2032 17.5416 21.6528 15.9912 19.7424 15.9912C19.3584 15.9912 18.9912 16.068 18.6432 16.1856C17.2752 16.6464 16.284 17.9304 16.284 19.464ZM18.1416 19.464C18.1416 18.5712 18.8616 17.8512 19.7424 17.8512C20.6256 17.8512 21.3456 18.5712 21.3456 19.464C21.3456 20.352 20.6256 21.072 19.7424 21.072C18.8592 21.072 18.1416 20.3544 18.1416 19.464Z" fill="currentColor"/>
<path d="M17.2056 16.26H14.2608V14.6232H3.20883C3.20883 14.8056 3.20883 15.0072 3.21123 15.2208C3.03123 15.252 2.85363 15.2976 2.68323 15.3552C1.41843 15.78 0.504028 16.968 0.504028 18.3864C0.504028 20.16 1.93443 21.6024 3.69843 21.6024C5.12403 21.6024 6.31923 20.652 6.73203 19.3536C6.73683 19.3368 6.73923 19.3176 6.74643 19.2984H13.8624V19.8096H15.6672C15.6576 19.6968 15.6504 19.5816 15.6504 19.464C15.6528 18.1896 16.2456 17.0208 17.2056 16.26ZM3.69843 19.8696C2.88243 19.8696 2.21763 19.2048 2.21763 18.384C2.21763 17.7288 2.64003 17.1816 3.22083 16.98C3.22803 17.9688 3.23523 18.9 3.23523 19.2984H4.85763C4.58643 19.644 4.17123 19.8696 3.69843 19.8696Z" fill="currentColor"/>
<path d="M3.48482 8.71924H13.1208C13.6536 8.71924 14.0856 9.15124 14.0856 9.68404V13.92H3.21362V8.99044C3.21362 8.84164 3.33602 8.71924 3.48482 8.71924Z" fill="currentColor"/>
<path d="M7.2168 10.8768C7.2168 10.932 7.1784 10.9776 7.1304 10.9776H6.8448V11.316C6.8448 11.3712 6.8064 11.4168 6.7584 11.4168H6.5352C6.4872 11.4168 6.4488 11.3712 6.4488 11.316V10.9776H6.168C6.12 10.9776 6.0816 10.932 6.0816 10.8768V10.6128C6.0816 10.5576 6.12 10.512 6.168 10.512H6.4536V10.1736C6.4536 10.1184 6.492 10.0728 6.54 10.0728H6.7632C6.8112 10.0728 6.8496 10.1184 6.8496 10.1736V10.512H7.1352C7.1832 10.512 7.2216 10.5576 7.2216 10.6128V10.8768H7.2168ZM9.348 11.0208L7.7856 12.876C7.776 12.888 7.7616 12.8928 7.7472 12.8928C7.7376 12.8928 7.7304 12.8904 7.7208 12.8856C7.6992 12.8736 7.692 12.8472 7.7016 12.8256L8.2488 11.5272H7.7472C7.7304 11.5272 7.7136 11.5176 7.7064 11.5032C7.6968 11.4888 7.6968 11.472 7.704 11.4552L8.436 9.99124C8.4432 9.97444 8.4624 9.96484 8.4792 9.96484H9.2616C9.2784 9.96484 9.2952 9.97444 9.3048 9.99124C9.3144 10.0056 9.312 10.0248 9.3024 10.0416L8.7312 10.944H9.3096C9.3288 10.944 9.3456 10.956 9.3528 10.9728C9.3624 10.9872 9.36 11.0064 9.348 11.0208ZM10.9752 10.872C10.9752 10.932 10.9344 10.98 10.8864 10.98H10.02C9.9696 10.98 9.9312 10.932 9.9312 10.872V10.6176C9.9312 10.5576 9.972 10.5096 10.02 10.5096H10.8864C10.9368 10.5096 10.9752 10.5576 10.9752 10.6176V10.872Z" fill="currentColor"/>
<path d="M14.8464 6.43922L5.4648 7.47362C5.4624 7.46162 5.4624 7.45202 5.46 7.44002C5.3304 7.02482 5.0448 6.66002 4.968 6.34802C4.8912 6.03602 4.9632 5.78402 4.7544 5.78402C4.5888 5.78402 4.5792 5.88002 4.5792 5.90642C4.5792 5.92082 4.5792 6.81122 4.5792 7.57202L4.0368 7.63202C4.08 6.50162 4.1664 4.60562 4.608 3.84002C4.9344 3.27362 5.4456 2.96642 5.9856 3.02402C6.4392 3.07202 7.6968 3.26882 7.9944 3.34562C8.2728 3.41762 8.9448 3.72722 9.1968 5.02322C9.1968 5.02322 9.1968 5.02322 9.1968 5.02562L9.2064 5.06882C9.0384 5.19602 8.9208 5.38802 8.9208 5.61362C8.9208 5.74322 8.964 5.85602 9.024 5.96162L8.5992 6.72722L10.74 6.49202L10.284 5.87282C10.3152 5.79362 10.3368 5.70722 10.3368 5.61602C10.3368 5.24642 10.0488 4.95362 9.6888 4.92002C9.3792 3.35042 8.4912 2.95682 8.1192 2.85842C7.7904 2.77202 6.5256 2.57282 6.0336 2.52242C5.7864 2.49602 5.544 2.52722 5.316 2.60162L5.3208 2.58002L3.4536 2.50322V1.95122H3.7368V1.28402C3.7368 1.10642 3.5928 0.960022 3.4128 0.960022H3.2424C3.0624 0.960022 2.9184 1.10402 2.9184 1.28402V1.95122H3.2184V2.49122H3.2016L3.0432 3.72722L3.9576 4.08242C3.6288 5.08322 3.5616 6.64562 3.5232 7.68962L0 8.07602L2.3976 10.0632L2.5824 10.0512V9.52562C2.5824 8.73122 3.228 8.08562 4.0224 8.08562H10.4232C11.5848 8.08562 12.6384 8.55122 13.4112 9.30242L15.0816 9.18722L14.8464 6.43922ZM9.6288 5.15762C9.8808 5.15762 10.0848 5.36162 10.0848 5.61362C10.0848 5.86562 9.8808 6.06962 9.6288 6.06962C9.3768 6.06962 9.1728 5.86562 9.1728 5.61362C9.1728 5.36402 9.3768 5.15762 9.6288 5.15762Z" fill="currentColor"/>
</g>
<defs>
<clipPath id="clip0_1413_1148">
<rect width="24" height="21.9864" fill="currentColor" transform="translate(0 0.960022)"/>
</clipPath>
</defs>
</svg>
