<svg width="24" height="24" viewBox="0 0 24 24" fill="currentColor" xmlns="http://www.w3.org/2000/svg">
<g clip-path="url(#clip0_1426_1361)">
<path d="M13.5192 11.6878H13.4064V10.8454H13.5192C13.5504 10.8454 13.5744 10.8214 13.5744 10.7902C13.5744 10.759 13.5504 10.735 13.5192 10.735H13.4064V10.291C13.4064 10.2598 13.3824 10.2358 13.3512 10.2358H11.628C11.5968 10.2358 11.5728 10.2598 11.5728 10.291V10.735H11.4264C11.3952 10.735 11.3712 10.759 11.3712 10.7902C11.3712 10.8214 11.3952 10.8454 11.4264 10.8454H11.5728V11.6878H11.4264C11.3952 11.6878 11.3712 11.7118 11.3712 11.743C11.3712 11.7742 11.3952 11.7982 11.4264 11.7982H11.5728V12.3502H11.4552V12.8566H13.4304V12.3502H13.4088V11.7982H13.5216C13.5528 11.7982 13.5768 11.7742 13.5768 11.743C13.5744 11.7118 13.5504 11.6878 13.5192 11.6878ZM12.9408 10.3462H13.296V10.735H12.9408V10.3462ZM12.9408 10.8454H13.296V11.6878H12.9408V10.8454ZM12.2016 10.3462H12.828V10.735H12.2016V10.3462ZM12.2016 10.8454H12.828V11.6878H12.2016V10.8454ZM12.8304 11.7982V12.3502H12.204V11.7982H12.8304ZM11.6832 10.3462H12.0912V10.735H11.6832V10.3462ZM11.6832 10.8454H12.0912V11.6878H11.6832V10.8454ZM11.6832 11.7982H12.0912V12.3502H11.6832V11.7982ZM12.9408 12.3502V11.7982H13.296V12.3502H12.9408Z" fill="currentColor"/>
<path d="M7.70406 13.7808C7.57926 13.7376 7.44486 13.7112 7.30566 13.7112C6.61446 13.7112 6.05286 14.2728 6.05286 14.9688C6.05286 15.1008 6.07926 15.228 6.11766 15.348C6.27846 15.8568 6.74886 16.2288 7.30566 16.2288C7.99686 16.2288 8.55846 15.6648 8.55846 14.9688C8.55846 14.412 8.19846 13.9488 7.70406 13.7808ZM7.30566 15.5496C6.98646 15.5496 6.72486 15.2904 6.72486 14.9688C6.72486 14.6448 6.98406 14.3856 7.30566 14.3856C7.62486 14.3856 7.88646 14.6448 7.88646 14.9688C7.88646 15.2904 7.62486 15.5496 7.30566 15.5496Z" fill="currentColor"/>
<path d="M10.5168 13.7808C10.392 13.7376 10.2576 13.7112 10.1184 13.7112C9.4272 13.7112 8.8656 14.2728 8.8656 14.9688C8.8656 15.1008 8.892 15.228 8.9304 15.348C9.0912 15.8568 9.5616 16.2288 10.1184 16.2288C10.8096 16.2288 11.3712 15.6648 11.3712 14.9688C11.3712 14.412 11.0112 13.9488 10.5168 13.7808ZM10.1184 15.5496C9.7992 15.5496 9.5376 15.2904 9.5376 14.9688C9.5376 14.6448 9.7968 14.3856 10.1184 14.3856C10.4376 14.3856 10.6992 14.6448 10.6992 14.9688C10.6992 15.2904 10.4376 15.5496 10.1184 15.5496Z" fill="currentColor"/>
<path d="M4.89119 13.7808C4.76639 13.7376 4.63199 13.7112 4.49279 13.7112C3.80159 13.7112 3.23999 14.2728 3.23999 14.9688C3.23999 15.1008 3.26639 15.228 3.30479 15.348C3.46559 15.8568 3.93599 16.2288 4.49279 16.2288C5.18399 16.2288 5.74559 15.6648 5.74559 14.9688C5.74559 14.412 5.38559 13.9488 4.89119 13.7808ZM4.49279 15.5496C4.17359 15.5496 3.91199 15.2904 3.91199 14.9688C3.91199 14.6448 4.17119 14.3856 4.49279 14.3856C4.81199 14.3856 5.07359 14.6448 5.07359 14.9688C5.07359 15.2904 4.81199 15.5496 4.49279 15.5496Z" fill="currentColor"/>
<path d="M19.8096 13.7808C19.6848 13.7376 19.5504 13.7112 19.4112 13.7112C18.72 13.7112 18.1584 14.2728 18.1584 14.9688C18.1584 15.1008 18.1848 15.228 18.2232 15.348C18.384 15.8568 18.8544 16.2288 19.4112 16.2288C20.1024 16.2288 20.664 15.6648 20.664 14.9688C20.664 14.412 20.3064 13.9488 19.8096 13.7808ZM19.4136 15.5496C19.0944 15.5496 18.8328 15.2904 18.8328 14.9688C18.8328 14.6448 19.092 14.3856 19.4136 14.3856C19.7328 14.3856 19.9944 14.6448 19.9944 14.9688C19.992 15.2904 19.7328 15.5496 19.4136 15.5496Z" fill="currentColor"/>
<path d="M14.9262 14.4275L16.923 14.4275L16.923 14.1875L14.9262 14.1875L14.9262 14.4275Z" fill="currentColor"/>
<path d="M14.9262 15.0212L16.923 15.0212L16.923 14.7812L14.9262 14.7812L14.9262 15.0212Z" fill="currentColor"/>
<path d="M1.40406 16.0605L2.50806 16.0605L2.50806 15.7581L1.40406 15.7581L1.40406 16.0605Z" fill="currentColor"/>
<path d="M-0.000118136 16.0605L1.10388 16.0605L1.10388 15.7581L-0.000118136 15.7581L-0.000118136 16.0605Z" fill="currentColor"/>
<path d="M16.9908 16.21L18.0948 16.21L18.0948 15.9076L16.9908 15.9076L16.9908 16.21Z" fill="currentColor"/>
<path d="M5.05925 11.9976H1.40405V12.3168H5.05925V11.9976Z" fill="currentColor"/>
<path d="M21.0649 8.08312V7.91992H1.40405L3.48725 9.95032H9.50885L9.75845 10.5959H10.2385L10.9489 9.95032H21.0649V9.76312H24.0001V8.08312H21.0649ZM7.24085 9.80152L7.20245 9.31192L7.52165 9.11032V9.19192V9.70792L7.79765 9.80152H7.24085ZM8.84885 9.51592H7.66565V8.70952H8.84885V9.51592ZM8.99045 9.51592V8.54872H10.1737V9.51592H8.99045ZM10.0633 10.3823C9.95285 10.3823 9.86405 10.2935 9.86405 10.1831C9.86405 10.0727 9.95285 9.98392 10.0633 9.98392C10.1737 9.98392 10.2625 10.0727 10.2625 10.1831C10.2625 10.2935 10.1737 10.3823 10.0633 10.3823ZM23.7073 9.51592H10.3657V8.33272H23.7073V9.51592Z" fill="currentColor"/>
<path d="M10.3656 11.4286L9.1416 10.7062L9.6216 10.6342L9.432 10.1158L8.388 10.2622L8.0328 10.0534H7.2L7.3032 10.2382L7.5504 10.3798L3.876 10.891L0.8496 7.94141H0V9.30461L1.7832 11.7694H4.5528V11.5462L4.4184 11.4166L8.34 10.8286L9.7584 11.6374L10.7352 12.3886V12.8038H11.1984V12.4846L10.3656 11.4286ZM0.684 9.08861C0.5136 9.08861 0.3768 8.95181 0.3768 8.78141C0.3768 8.61101 0.516 8.47181 0.684 8.47181C0.852 8.47181 0.9912 8.60861 0.9912 8.77901C0.9912 8.94941 0.8544 9.08861 0.684 9.08861Z" fill="currentColor"/>
<path d="M23.1768 9.17518C23.316 9.17518 23.4264 9.06238 23.4264 8.92318C23.4264 8.78398 23.3136 8.67358 23.1768 8.67358C23.04 8.67358 22.9272 8.78638 22.9272 8.92318C22.9272 9.06238 23.04 9.17518 23.1768 9.17518Z" fill="currentColor"/>
<path d="M20.3448 13.5599C20.1 13.0895 19.4544 13.1303 19.4544 13.1303H17.784V13.1255H17.304V13.5167H16.9392V12.3455H16.0968V10.1831H15.756V12.3479H15.1392V12.9959H10.1184V12.6215H0V12.9959V13.3631V14.6759H0.312V15.6119H0.792V14.6759H1.7184V15.6119H2.1984V14.6759H2.952V13.9343H3.4464C3.7128 13.6607 4.0848 13.4927 4.4952 13.4927C4.6488 13.4927 4.8 13.5191 4.9632 13.5743C5.1864 13.6487 5.3808 13.7759 5.5392 13.9343H6.2592C6.5256 13.6607 6.8976 13.4927 7.308 13.4927C7.4616 13.4927 7.6128 13.5191 7.776 13.5743C7.9992 13.6487 8.1936 13.7759 8.352 13.9343H9.072C9.3384 13.6607 9.7104 13.4927 10.1208 13.4927C10.2744 13.4927 10.4256 13.5191 10.5888 13.5743C10.812 13.6487 11.0088 13.7735 11.1672 13.9343H11.8248V15.0191H14.4888V13.9343H17.3064V15.7607H17.7864V15.3191H18.0504C18.0168 15.1967 18 15.0815 18 14.9687C18 14.1839 18.636 13.5455 19.4184 13.5455C19.5648 13.5455 19.7112 13.5719 19.8696 13.6247C20.448 13.8191 20.8368 14.3591 20.8368 14.9687C20.8368 15.0887 20.82 15.2063 20.7912 15.3191H22.0752V13.5599C22.068 13.5599 20.8512 13.5647 20.3448 13.5599Z" fill="currentColor"/>
<path d="M21.2424 11.4312L20.88 11.6688C20.8536 11.6856 20.8464 11.7192 20.8632 11.7456C20.8728 11.7624 20.892 11.772 20.9112 11.772C20.9208 11.772 20.9328 11.7696 20.9424 11.7624L21.3048 11.5248C21.3312 11.508 21.3384 11.4744 21.3216 11.448C21.3024 11.4216 21.2688 11.4144 21.2424 11.4312Z" fill="currentColor"/>
<path d="M18.996 11.856H17.8368V12.6456H18.996V11.856Z" fill="currentColor"/>
<path d="M21.5688 10.1494H17.3016V12.9286L19.5672 12.9406C19.5672 12.9406 20.2416 12.9094 20.4552 13.3606H22.0416C22.0416 13.3606 22.0416 12.9598 22.0416 12.3526C22.0416 11.7454 21.6696 10.5334 21.5688 10.1494ZM19.1064 12.7558H17.7288V11.7478H19.1064V12.7558ZM21.4104 11.8126L21.2184 11.6518L21.1248 11.7142L21.2448 11.9662C21.0696 11.9662 20.9232 11.9662 20.8608 11.9662C20.796 11.9662 20.6424 11.8846 20.5488 11.791C20.4552 11.6974 20.3568 11.6494 20.1648 11.6494C19.9728 11.6494 19.7352 11.6494 19.62 11.6494C19.5048 11.6494 19.4328 11.5846 19.4328 11.3974C19.4328 11.2102 19.4112 10.5886 19.4112 10.5886C19.4112 10.4374 19.512 10.3726 19.62 10.3726C19.728 10.3726 21.0744 10.3726 21.156 10.3726C21.2376 10.3726 21.288 10.4782 21.3072 10.5886C21.3264 10.699 21.4128 11.3926 21.4224 11.5414C21.4272 11.6206 21.432 11.7262 21.4104 11.8126Z" fill="currentColor"/>
</g>
<defs>
<clipPath id="clip0_1426_1361">
<rect width="24" height="8.3088" fill="currentColor" transform="translate(0 7.91992)"/>
</clipPath>
</defs>
</svg>
