<svg width="24" height="24" viewBox="0 0 24 24" fill="currentColor" xmlns="http://www.w3.org/2000/svg">
<g clip-path="url(#clip0_1417_1575)">
<path d="M14.8728 6.23999H2.364C1.6224 6.23999 0 7.56719 0 10.4256V13.4328H14.8728V6.23999Z" fill="currentColor"/>
<path d="M17.2224 12.54V9.62396H15.108V13.4328H15.9864C16.3152 12.912 16.884 12.612 17.2224 12.54Z" fill="currentColor"/>
<path d="M18.1608 13.6848C17.0544 13.6848 16.1568 14.5824 16.1568 15.6888C16.1568 16.7952 17.0544 17.6928 18.1608 17.6928C19.2672 17.6928 20.1648 16.7952 20.1648 15.6888C20.1672 14.5824 19.2696 13.6848 18.1608 13.6848ZM18.1392 16.512C17.6736 16.512 17.2968 16.1352 17.2968 15.6696C17.2968 15.204 17.6736 14.8248 18.1392 14.8248C18.6048 14.8248 18.984 15.2016 18.984 15.6696C18.984 16.1352 18.6048 16.512 18.1392 16.512Z" fill="currentColor"/>
<path d="M4.79041 13.6848C3.68401 13.6848 2.78641 14.5824 2.78641 15.6888C2.78641 16.7952 3.68401 17.6928 4.79041 17.6928C5.89681 17.6928 6.79441 16.7952 6.79441 15.6888C6.79681 14.5824 5.89921 13.6848 4.79041 13.6848ZM4.76881 16.512C4.30321 16.512 3.92641 16.1352 3.92641 15.6696C3.92641 15.204 4.30321 14.8248 4.76881 14.8248C5.23441 14.8248 5.61361 15.2016 5.61361 15.6696C5.61361 16.1352 5.23441 16.512 4.76881 16.512Z" fill="currentColor"/>
<path d="M23.784 10.9656C23.784 10.9656 22.98 8.10961 22.764 7.47601C22.548 6.84241 21.5592 6.87361 20.7264 6.78001L17.46 6.64081V12.7224C15.7992 13.14 15.5256 15.1824 15.5256 16.0032H16.0056C15.9912 15.9 15.984 15.7968 15.984 15.6912C15.984 14.4888 16.9584 13.512 18.1632 13.512C19.3656 13.512 20.3424 14.4864 20.3424 15.6912C20.3424 15.7968 20.3352 15.9024 20.3208 16.0032H23.5872V13.452C23.82 13.4208 24.0048 13.0656 24.0048 12.6792C24 12.2952 23.784 10.9656 23.784 10.9656ZM19.4304 10.1184C19.0392 10.0152 18.8712 9.78001 18.8712 9.46801C18.8712 9.15601 18.8592 7.97041 18.8592 7.97041C18.8592 7.81441 18.9384 7.68481 19.3008 7.68481H22.3464L23.1144 10.7712L19.4304 10.1184Z" fill="currentColor"/>
<path d="M3.3912 14.0208H0V15.9912H2.6328C2.6184 15.8928 2.6112 15.7944 2.6112 15.6912C2.6112 15.0192 2.916 14.4192 3.3912 14.0208Z" fill="currentColor"/>
<path d="M6.96959 15.6912C6.96959 15.792 6.96239 15.8928 6.94799 15.9912H10.4592L9.12479 17.04C9.12479 17.076 9.13679 17.1096 9.15599 17.1408C9.17519 17.256 9.24479 17.3904 9.44879 17.4936L9.51839 17.3568C9.64079 17.3928 9.77999 17.4192 9.93119 17.4336L9.89519 17.6304C10.0296 17.6544 10.1736 17.6712 10.3224 17.6808L10.3368 17.4696C10.4784 17.4744 10.6176 17.4768 10.7472 17.4792V17.6952L10.884 17.6976C10.9872 17.6976 11.0784 17.6952 11.16 17.6928L11.1552 17.472C11.256 17.472 11.3376 17.4696 11.3856 17.4696C11.424 17.4696 11.4888 17.472 11.5656 17.472L11.5608 17.6928C11.652 17.6928 11.7696 17.6952 11.8992 17.6952H11.9016H11.9736V17.4792C12.1032 17.4768 12.2424 17.4744 12.3816 17.4696L12.3936 17.6832C12.54 17.676 12.6864 17.6616 12.8208 17.64L12.7872 17.4384C12.9336 17.424 13.0728 17.4 13.1952 17.3712L13.26 17.5248C13.5672 17.4 13.6344 17.208 13.6368 17.0688C13.6368 17.0592 13.6416 17.0496 13.6416 17.04L12.336 15.9912H15.228V14.0208H6.17999C6.66719 14.4192 6.96959 15.0192 6.96959 15.6912Z" fill="currentColor"/>
</g>
<defs>
<clipPath id="clip0_1417_1575">
<rect width="24" height="11.46" fill="currentColor" transform="translate(0 6.23999)"/>
</clipPath>
</defs>
</svg>
