<svg width="24" height="24" viewBox="0 0 24 24" fill="currentColor" xmlns="http://www.w3.org/2000/svg">
<g clip-path="url(#clip0_1413_1144)">
<path d="M21.3096 8.87285H17.076V6.44885H16.4208V3.29285H15.7272V9.50165H16.4016H16.4208H16.9248C16.9296 9.50165 16.9344 9.50165 16.9392 9.50165H17.076V9.49205H21.3552C21.4752 9.49205 24 9.46085 24 9.33845V9.17285C24 8.98805 21.432 8.87285 21.3096 8.87285Z" fill="currentColor"/>
<path d="M16.2841 19.464C16.2841 21.384 17.8321 22.9464 19.7425 22.9464C21.2857 22.9464 22.5793 21.9192 23.0257 20.5128C23.1313 20.1816 23.2033 19.8312 23.2033 19.464C23.2033 17.5416 21.6529 15.9912 19.7425 15.9912C19.3585 15.9912 18.9913 16.068 18.6433 16.1856C17.2753 16.6464 16.2841 17.9304 16.2841 19.464ZM18.1417 19.464C18.1417 18.5712 18.8617 17.8512 19.7425 17.8512C20.6257 17.8512 21.3457 18.5712 21.3457 19.464C21.3457 20.352 20.6257 21.072 19.7425 21.072C18.8593 21.072 18.1417 20.3544 18.1417 19.464Z" fill="currentColor"/>
<path d="M17.2056 16.26H14.2608V14.6232H3.20883C3.20883 14.8056 3.20883 15.0072 3.21123 15.2208C3.03123 15.252 2.85363 15.2976 2.68323 15.3552C1.41843 15.78 0.504028 16.968 0.504028 18.3864C0.504028 20.16 1.93443 21.6024 3.69843 21.6024C5.12403 21.6024 6.31923 20.6544 6.73203 19.3536C6.73683 19.3368 6.73923 19.3176 6.74643 19.2984H13.8624V19.8096H15.6672C15.6576 19.6968 15.6504 19.5816 15.6504 19.464C15.6528 18.1896 16.2456 17.0208 17.2056 16.26ZM3.69843 19.8696C2.88243 19.8696 2.21763 19.2048 2.21763 18.384C2.21763 17.7288 2.64003 17.1816 3.22083 16.98C3.22803 17.9688 3.23523 18.9 3.23523 19.2984H4.85763C4.58643 19.644 4.17123 19.8696 3.69843 19.8696Z" fill="currentColor"/>
<path d="M3.48482 8.71924H13.1208C13.6536 8.71924 14.0856 9.15124 14.0856 9.68404V13.92H3.21362V8.99044C3.21362 8.84164 3.33602 8.71924 3.48482 8.71924Z" fill="currentColor"/>
<path d="M14.8464 6.43922L5.4648 7.47362C5.4624 7.46162 5.4624 7.45202 5.46 7.44002C5.3304 7.02482 5.0448 6.66002 4.968 6.34802C4.8912 6.03602 4.9632 5.78402 4.7544 5.78402C4.5888 5.78402 4.5792 5.88002 4.5792 5.90642C4.5792 5.92082 4.5792 6.81122 4.5792 7.56962L4.0368 7.62962C4.08 6.49922 4.1664 4.60322 4.608 3.83762C4.9344 3.27122 5.4504 2.96402 5.988 3.02162C6.4392 3.06722 7.6944 3.26402 7.9968 3.34322C8.2752 3.41522 8.9496 3.72482 9.2016 5.02802L9.2688 5.01602C9.0648 5.14082 8.9232 5.35442 8.9232 5.61122C8.9232 5.74082 8.9664 5.85362 9.0264 5.95922L8.6016 6.72482L10.7424 6.48962L10.2864 5.87042C10.3176 5.79122 10.3392 5.70482 10.3392 5.61362C10.3392 5.24402 10.0512 4.94882 9.6912 4.91762C9.3816 3.35042 8.4936 2.95442 8.124 2.85842C7.7904 2.77202 6.5256 2.57282 6.0384 2.52242C5.7912 2.49362 5.5488 2.52482 5.3208 2.60162L5.3256 2.58002L3.4584 2.50322V1.95122H3.7416V1.28402C3.7416 1.10402 3.5976 0.960022 3.4176 0.960022H3.2472C3.0672 0.960022 2.9232 1.10402 2.9232 1.28402V1.95122H3.2232V2.49122H3.2064L3.048 3.72722L3.9624 4.08242C3.6336 5.08322 3.5664 6.64562 3.528 7.68962L0 8.07602L2.3976 10.0632L2.5824 10.0512V9.52562C2.5824 8.73122 3.228 8.08562 4.0224 8.08562H10.4232C11.5848 8.08562 12.6384 8.55122 13.4112 9.30242L15.0816 9.18722L14.8464 6.43922ZM10.0848 5.61362C10.0848 5.86562 9.8808 6.06962 9.6288 6.06962C9.3768 6.06962 9.1728 5.86562 9.1728 5.61362C9.1728 5.36162 9.3768 5.15762 9.6288 5.15762C9.8808 5.15762 10.0848 5.36162 10.0848 5.61362Z" fill="currentColor"/>
</g>
<defs>
<clipPath id="clip0_1413_1144">
<rect width="24" height="21.9864" fill="currentColor" transform="translate(0 0.960022)"/>
</clipPath>
</defs>
</svg>
