<svg width="24" height="24" viewBox="0 0 24 24" fill="currentColor" xmlns="http://www.w3.org/2000/svg">
<g clip-path="url(#clip0_1413_1140)">
<path d="M15.1344 19.1208C15.1344 19.992 15.8352 20.6976 16.7016 20.6976C17.4 20.6976 17.988 20.232 18.1896 19.596C18.2376 19.4448 18.2688 19.2888 18.2688 19.1208C18.2688 18.2496 17.5656 17.5464 16.7016 17.5464C16.5264 17.5464 16.3608 17.5824 16.2048 17.6352C15.5832 17.844 15.1344 18.4272 15.1344 19.1208ZM15.9744 19.1208C15.9744 18.7152 16.3008 18.3912 16.6992 18.3912C17.1 18.3912 17.424 18.7176 17.424 19.1208C17.424 19.524 17.0976 19.848 16.6992 19.848C16.3008 19.8504 15.9744 19.524 15.9744 19.1208Z" fill="currentColor"/>
<path d="M6.16557 11.2848C6.08397 11.1768 5.93037 11.1552 5.81997 11.2368L4.68237 12.0936C4.62957 12.1344 4.59597 12.192 4.58637 12.2568C4.57677 12.3216 4.59357 12.3864 4.63437 12.4392C4.68237 12.5016 4.75437 12.5376 4.83117 12.5376C4.83597 12.5376 4.84317 12.5376 4.84797 12.5376C4.89597 12.5352 4.94157 12.516 4.97997 12.4896L6.11757 11.6328C6.17037 11.592 6.20397 11.5344 6.21357 11.4696C6.22077 11.4024 6.20397 11.3376 6.16557 11.2848Z" fill="currentColor"/>
<path d="M14.5176 19.1208C14.5176 18.6144 14.712 18.156 15.0312 17.8104H11.832C11.832 17.2752 11.8536 13.5624 11.8536 13.5624H11.1984L11.1936 3.35999H9.972V3.94559L9.0888 3.94319V5.73599H9.9864V14.1672L7.7256 14.1696L6.4704 5.15279H0V14.7264H2.784L2.7888 17.568C2.784 17.568 2.7792 17.568 2.772 17.568C2.5968 17.568 2.4312 17.604 2.2752 17.6568C1.656 17.8656 1.2072 18.4464 1.2072 19.1424C1.2072 20.0136 1.908 20.7192 2.7744 20.7192C3.4728 20.7192 4.0608 20.2536 4.2624 19.6176C4.2696 19.596 4.2744 19.5744 4.2816 19.5528L14.5728 19.5576C14.5344 19.4064 14.5176 19.2624 14.5176 19.1208ZM5.9856 5.83199L6.7392 11.6016L5.5008 12.5448L5.5464 14.0976H4.6128V14.0952H3.864C3.864 13.596 3.8568 13.1712 3.4464 13.1712C3.0288 13.1712 2.3856 13.1712 2.3856 13.1712C2.3136 12.1296 1.488 10.9656 1.1256 10.9656C0.8112 10.9656 0.588 10.9656 0.5328 10.9656V5.83199H5.9856ZM2.7744 19.8696C2.3736 19.8696 2.0496 19.5432 2.0496 19.1424C2.0496 18.7368 2.376 18.4128 2.7744 18.4128C2.7792 18.4128 2.7864 18.4152 2.7912 18.4152L2.7936 19.5528H3.3744C3.2448 19.7424 3.024 19.8696 2.7744 19.8696ZM8.5296 17.8104V15.108L10.3776 17.8104H8.5296Z" fill="currentColor"/>
<path d="M12.7128 5.05438H11.9208V11.0376H12.7128V5.05438Z" fill="currentColor"/>
<path d="M14.4865 11.4336C14.3233 11.4336 14.1937 11.3016 14.1937 11.1408V6.09839H13.5457V11.4336V11.7888L13.5505 11.7936C13.5481 11.8056 13.5457 11.82 13.5457 11.832C13.5457 11.9688 13.6561 12.0792 13.7905 12.0792H22.5313L24.0001 11.8848V11.4312H14.4865V11.4336Z" fill="currentColor"/>
<path d="M4.67283 16.428C4.67283 16.4736 4.64163 16.5096 4.60563 16.5096H4.38003V16.7784C4.38003 16.824 4.34883 16.86 4.31283 16.86H4.13523C4.09683 16.86 4.06803 16.824 4.06803 16.7784V16.5096H3.84003C3.80163 16.5096 3.77283 16.4736 3.77283 16.428V16.2168C3.77283 16.1712 3.80403 16.1352 3.84003 16.1352H4.06563V15.8664C4.06563 15.8208 4.09683 15.7848 4.13283 15.7848H4.31043C4.34883 15.7848 4.37763 15.8208 4.37763 15.8664V16.1352H4.60323C4.64163 16.1352 4.67043 16.1712 4.67043 16.2168V16.428H4.67283ZM6.36723 16.5432L5.12403 18.0192C5.11683 18.0288 5.10483 18.0336 5.09523 18.0336C5.08803 18.0336 5.08083 18.0312 5.07603 18.0288C5.05923 18.0192 5.05203 17.9976 5.06163 17.9808L5.49603 16.9464H5.09763C5.08323 16.9464 5.07123 16.9392 5.06403 16.9272C5.05683 16.9152 5.05683 16.9008 5.06163 16.8888L5.64483 15.7224C5.65203 15.7104 5.66403 15.7008 5.67843 15.7008H6.30003C6.31443 15.7008 6.32643 15.708 6.33363 15.72C6.34083 15.732 6.34083 15.7464 6.33363 15.7584L5.88003 16.476H6.34083C6.35523 16.476 6.36963 16.4856 6.37683 16.4976C6.37923 16.5168 6.37683 16.5336 6.36723 16.5432ZM7.66323 16.4232C7.66323 16.4712 7.63203 16.5072 7.59123 16.5072H6.90243C6.86403 16.5072 6.83043 16.4688 6.83043 16.4232V16.2216C6.83043 16.1736 6.86163 16.1376 6.90243 16.1376H7.59123C7.62963 16.1376 7.66323 16.176 7.66323 16.2216V16.4232Z" fill="currentColor"/>
</g>
<defs>
<clipPath id="clip0_1413_1140">
<rect width="24" height="17.3592" fill="currentColor" transform="translate(0 3.35999)"/>
</clipPath>
</defs>
</svg>
