<svg width="24" height="24" viewBox="0 0 24 24" fill="currentColor" xmlns="http://www.w3.org/2000/svg">
<g clip-path="url(#clip0_1431_2903)">
<path d="M17.8488 11.513C17.8488 10.8794 17.7288 10.6346 17.5776 10.5218L16.8312 10.2098C16.3152 9.97225 9.88085 7.37305 9.88085 7.37305L9.15845 8.10265C12.756 9.54745 13.3968 9.79465 15.8856 10.8242C16.0416 10.889 16.1568 11.021 16.2816 11.1146V12.0386H16.2V13.6322L16.1952 16.4882L17.8488 16.4762L17.8536 12.1466L17.8488 11.513ZM16.9344 13.6298L16.5984 13.6322V12.041H16.5168V11.2874C16.668 11.4002 16.8096 11.5034 16.9344 11.5946V13.6298ZM17.3184 11.2682C17.1984 11.2682 17.1024 11.1722 17.1024 11.0522C17.1024 10.9322 17.1984 10.8362 17.3184 10.8362C17.4384 10.8362 17.5344 10.9322 17.5344 11.0522C17.5344 11.1698 17.436 11.2682 17.3184 11.2682Z" fill="currentColor"/>
<path d="M21.9023 13.8361L22.0151 14.0689L22.1927 13.9681L22.0151 13.7617L21.9023 13.8361Z" fill="currentColor"/>
<path d="M22.1351 13.5142C22.1159 13.483 22.0727 13.4758 22.0439 13.495L21.6119 13.7782C21.5807 13.7974 21.5735 13.8406 21.5927 13.8694C21.6047 13.8886 21.6263 13.9006 21.6479 13.9006C21.6599 13.9006 21.6743 13.8982 21.6839 13.8886L22.1159 13.6054C22.1471 13.5862 22.1567 13.5454 22.1351 13.5142Z" fill="currentColor"/>
<path d="M18.7056 17.875C18.7056 18.5782 19.272 19.1518 19.9728 19.1518C20.5392 19.1518 21.012 18.775 21.1776 18.259C21.216 18.1366 21.2424 18.0094 21.2424 17.875C21.2424 17.1694 20.6736 16.6006 19.9728 16.6006C19.8312 16.6006 19.6968 16.6294 19.5696 16.6726C19.068 16.8406 18.7056 17.311 18.7056 17.875ZM19.3848 17.875C19.3848 17.5486 19.6488 17.2846 19.9728 17.2846C20.2968 17.2846 20.5608 17.5486 20.5608 17.875C20.5608 18.2014 20.2968 18.4654 19.9728 18.4654C19.6488 18.463 19.3848 18.199 19.3848 17.875Z" fill="currentColor"/>
<path d="M5.12402 17.875C5.12402 18.5782 5.69042 19.1518 6.39122 19.1518C6.95762 19.1518 7.43042 18.775 7.59602 18.259C7.63442 18.1366 7.66082 18.0094 7.66082 17.875C7.66082 17.1694 7.09202 16.6006 6.39122 16.6006C6.24962 16.6006 6.11522 16.6294 5.98802 16.6726C5.48642 16.8406 5.12402 17.311 5.12402 17.875ZM5.80562 17.875C5.80562 17.5486 6.06962 17.2846 6.39362 17.2846C6.71762 17.2846 6.98162 17.5486 6.98162 17.875C6.98162 18.2014 6.71762 18.4654 6.39362 18.4654C6.06722 18.463 5.80562 18.199 5.80562 17.875Z" fill="currentColor"/>
<path d="M16.02 14.5361H0V16.1873H16.02V14.5361Z" fill="currentColor"/>
<path d="M5.69044 16.4326H0.674438V17.803L1.02964 17.1646L1.89364 17.1094L4.92004 17.3566C5.04244 16.9582 5.31844 16.6222 5.69044 16.4326Z" fill="currentColor"/>
<path d="M9.70562 7.39174C9.68642 7.41814 9.02162 8.03014 9.02162 8.03014L3.90002 5.88214L4.14482 5.13574L9.70562 7.39174Z" fill="currentColor"/>
<path d="M2.63038 8.38022L2.71438 8.17142C2.72638 8.14022 2.75758 8.11862 2.79118 8.11862H2.94478V6.24902L3.11758 6.29702V8.12102H3.29278C3.32638 8.12102 3.35758 8.14262 3.36958 8.17382L3.45358 8.38262C3.46078 8.40182 3.46078 8.42582 3.45358 8.44502L3.36958 8.65382C3.35758 8.68502 3.32638 8.70662 3.29278 8.70662H3.25198C3.25198 8.75222 3.21358 8.79062 3.16798 8.79062H3.12718V8.82182C3.12718 8.92022 3.07198 9.01142 2.98798 9.05222C2.94478 9.07382 2.91838 9.11702 2.91838 9.16502C2.91838 9.23222 2.97598 9.28982 3.04318 9.28982C3.11278 9.28982 3.16798 9.23462 3.16798 9.16502C3.16798 9.11942 3.20638 9.08102 3.25198 9.08102C3.29758 9.08102 3.33598 9.11942 3.33598 9.16502C3.33598 9.32582 3.20398 9.45782 3.04318 9.45782C2.88478 9.45782 2.75038 9.32342 2.75038 9.16502C2.75038 9.05222 2.81278 8.95142 2.91358 8.90342C2.93998 8.88902 2.95918 8.85782 2.95918 8.82182V8.79062H2.91838C2.87278 8.79062 2.83438 8.75222 2.83438 8.70662H2.79358C2.75998 8.70662 2.72878 8.68502 2.71678 8.65382L2.63278 8.44502C2.62318 8.42342 2.62318 8.40182 2.63038 8.38022Z" fill="currentColor"/>
<path d="M2.70715 6.055L3.15355 6.1702L3.75595 5.8078L3.95275 5.0638L3.05515 4.7998L2.70715 6.055ZM2.91355 5.8486C2.91115 5.7838 2.96155 5.7286 3.02875 5.7262C3.09355 5.7238 3.14875 5.7742 3.15115 5.8414C3.15355 5.9062 3.10315 5.9614 3.03595 5.9638C2.96875 5.9638 2.91595 5.9134 2.91355 5.8486Z" fill="currentColor"/>
<path d="M16.6836 19.1465L17.4276 19.1465L17.4276 18.9425L16.6836 18.9425L16.6836 19.1465Z" fill="currentColor"/>
<path d="M23.8608 13.303H23.784C23.7072 13.303 23.6448 13.3654 23.6448 13.4422V14.2606H23.1936L22.0512 12.0022C21.9768 11.8534 21.8232 11.7598 21.6576 11.7598H18.6744C18.432 11.7598 18.2328 11.9566 18.2328 12.2014V16.6366H14.424L14.1624 16.4302H7.10156C7.59356 16.687 7.92956 17.203 7.92956 17.7982V17.8006H16.896V18.8422H17.22V17.8006H18.4392V17.7982C18.4392 17.7142 18.4464 17.6326 18.4584 17.5534C18.5016 17.2894 18.612 17.0446 18.7752 16.8382C18.9552 16.6126 19.1976 16.4374 19.4856 16.3414C19.656 16.2838 19.8144 16.255 19.9752 16.255C20.76 16.255 21.408 16.8478 21.5016 17.611H23.0112C23.2536 17.611 23.4528 17.4142 23.4528 17.1694V14.8654C23.4528 14.7958 23.436 14.7286 23.4048 14.6662L23.2608 14.383H23.6496V14.395C23.6496 14.4718 23.712 14.5342 23.7888 14.5342H23.8656C23.9424 14.5342 24.0048 14.4718 24.0048 14.395V13.4422C24 13.3654 23.9376 13.303 23.8608 13.303ZM20.2704 14.1118L19.3704 13.7254C19.2648 13.6798 19.1952 13.5766 19.1952 13.459V12.463C19.1952 12.3046 19.3248 12.175 19.4832 12.175H20.2704V14.1118ZM22.2072 15.475H21.396C21.276 15.475 21.168 15.4006 21.1248 15.2854L20.8128 14.4406C20.7864 14.3662 20.7288 14.3062 20.6568 14.275L20.5824 14.2438H21.9624L21.816 14.335L22.3416 15.4438C22.2984 15.463 22.2552 15.475 22.2072 15.475ZM22.4112 14.0926L22.3608 13.9942L22.2024 14.0926H20.4192V12.1726H21.2952C21.4008 12.1726 21.4992 12.2326 21.5496 12.3262L22.4592 14.035C22.4688 14.0542 22.476 14.0734 22.4808 14.0926H22.4112ZM22.4976 14.2606L22.488 14.2438H22.4976V14.2606Z" fill="currentColor"/>
</g>
<defs>
<clipPath id="clip0_1431_2903">
<rect width="24" height="14.3496" fill="currentColor" transform="translate(0 4.7998)"/>
</clipPath>
</defs>
</svg>
