<svg width="24" height="24" viewBox="0 0 24 24" fill="currentColor" xmlns="http://www.w3.org/2000/svg">
<g clip-path="url(#clip0_1420_1396)">
<path d="M2.5824 18.6553C1.1592 18.6553 0 19.8145 0 21.2497C0 22.6825 1.1592 23.8441 2.5824 23.8441C4.0104 23.8441 5.1648 22.6849 5.1648 21.2497C5.1648 19.8145 4.0104 18.6553 2.5824 18.6553ZM2.5824 22.4497C1.9248 22.4497 1.3872 21.9145 1.3872 21.2497C1.3872 20.5849 1.9224 20.0425 2.5824 20.0425C3.2448 20.0425 3.7776 20.5849 3.7776 21.2497C3.7776 21.9145 3.2448 22.4497 2.5824 22.4497Z" fill="currentColor"/>
<path d="M8.3136 0.240234H0V18.005H8.3136V0.240234Z" fill="currentColor"/>
<path d="M7.62962 18.6338H4.63202V18.653C5.33282 19.0922 5.80562 19.8554 5.84162 20.7338H7.62962V18.6338Z" fill="currentColor"/>
<path fill-rule="evenodd" clip-rule="evenodd" d="M16.716 17.9186H10.4184V17.2729H16.716" fill="currentColor"/>
<path fill-rule="evenodd" clip-rule="evenodd" d="M24 17.4481L19.1928 17.9186H16.9128V17.2729H24V17.4481Z" fill="currentColor"/>
<path d="M10.0416 18.2764L8.22479 19.0612V20.1148L10.4232 19.1548L10.0416 18.2764ZM9.75599 19.1332C9.62879 19.1332 9.52559 19.03 9.52559 18.9028C9.52559 18.7756 9.62879 18.6724 9.75599 18.6724C9.88319 18.6724 9.98639 18.7756 9.98639 18.9028C9.98639 19.03 9.88319 19.1332 9.75599 19.1332Z" fill="currentColor"/>
<path fill-rule="evenodd" clip-rule="evenodd" d="M17.3136 18.4368L10.656 18.6696L10.452 18.2544H17.3136V18.4368Z" fill="currentColor"/>
<path fill-rule="evenodd" clip-rule="evenodd" d="M20.352 11.0308H10.7976V11.4124H11.568V17.2756H11.9496V14.338H19.1976V17.2756H19.5792H19.5912V11.4124H20.3496V11.0308H20.352ZM11.9496 13.9564V11.4124H19.1976V13.9564H11.9496Z" fill="currentColor"/>
</g>
<defs>
<clipPath id="clip0_1420_1396">
<rect width="24" height="23.604" fill="currentColor" transform="translate(0 0.240234)"/>
</clipPath>
</defs>
</svg>
