<svg width="24" height="24" viewBox="0 0 24 24" fill="currentColor" xmlns="http://www.w3.org/2000/svg">
<g clip-path="url(#clip0_1437_2430)">
<path d="M20.8033 12.4561C20.7409 12.3841 20.6353 12.3769 20.5633 12.4369L19.5601 13.2961C19.4881 13.3585 19.4809 13.4641 19.5409 13.5361C19.5793 13.5817 19.6369 13.6009 19.6921 13.5937C19.7233 13.5889 19.7545 13.5769 19.7809 13.5529L20.7841 12.6937C20.8561 12.6361 20.8633 12.5281 20.8033 12.4561Z" fill="currentColor"/>
<path d="M17.6329 16.7974C16.7785 16.7974 16.0657 17.4166 15.9145 18.2302C15.8953 18.3358 15.8833 18.4414 15.8833 18.5518C15.8833 19.5214 16.6681 20.311 17.6329 20.311C18.5977 20.311 19.3825 19.5214 19.3825 18.5518C19.3825 18.2398 19.3009 17.9494 19.1593 17.6974C18.8593 17.1598 18.2881 16.7974 17.6329 16.7974ZM17.6329 19.3198C17.2129 19.3198 16.8673 18.9766 16.8673 18.5494C16.8673 18.4342 16.8937 18.3262 16.9393 18.2278C17.0617 17.9638 17.3257 17.7814 17.6329 17.7814C17.7289 17.7814 17.8201 17.8006 17.9065 17.8342C18.1921 17.9446 18.3985 18.2206 18.3985 18.5518C18.3985 18.9766 18.0553 19.3198 17.6329 19.3198Z" fill="currentColor"/>
<path d="M6.77279 16.2266C5.77919 16.2266 4.95119 16.9466 4.77599 17.8922C4.75439 18.0146 4.73999 18.1394 4.73999 18.2666C4.73999 19.3946 5.65199 20.3114 6.77279 20.3114C7.89359 20.3114 8.80559 19.3946 8.80559 18.2666C8.80559 17.9042 8.71199 17.5682 8.54639 17.273C8.19839 16.6466 7.53599 16.2266 6.77279 16.2266ZM6.77279 19.1594C6.28319 19.1594 5.88479 18.7586 5.88479 18.2642C5.88479 18.1298 5.91599 18.005 5.96879 17.8898C6.11039 17.5826 6.41759 17.369 6.77519 17.369C6.88799 17.369 6.99359 17.393 7.09199 17.429C7.42559 17.5562 7.66319 17.8778 7.66319 18.2618C7.66319 18.7586 7.26479 19.1594 6.77279 19.1594Z" fill="currentColor"/>
<path d="M18.6792 14.1336C18.5016 14.1048 17.16 13.9224 16.9584 13.872C16.7568 13.8216 16.8696 13.5672 16.8696 13.5672C16.8696 13.5672 16.9824 13.0608 16.8696 12.6552C16.7568 12.2496 16.512 11.8944 16.4448 11.5896C16.3752 11.2848 16.44 11.04 16.2576 11.04C16.116 11.04 16.1064 11.1336 16.1064 11.16C16.1064 11.1864 16.1064 13.8216 16.1064 13.8216H16.2864C16.2864 14.76 16.824 14.7336 16.824 14.7336C16.824 14.7336 18.456 14.76 18.636 14.76C18.816 14.76 18.9 14.7 18.9408 14.5248C18.9744 14.3688 18.9408 14.1768 18.6792 14.1336Z" fill="currentColor"/>
<path d="M4.36328 17.4382H4.53128C4.87208 16.5094 5.76008 15.8686 6.77288 15.8686C7.63688 15.8686 8.43608 16.339 8.86088 17.0974C8.92088 17.2078 8.97368 17.3206 9.01688 17.4382H9.44888V18.8446H12.4705V17.4382H14.6353V14.563H4.36328V17.4382Z" fill="currentColor"/>
<path d="M14.6353 11.2728C14.6353 10.7424 14.2057 10.3104 13.6729 10.3104H9.38408V9.30235C9.38408 9.19675 9.29768 9.11035 9.19208 9.11035C9.08648 9.11035 9.00008 9.19675 9.00008 9.30235V10.3104H8.05688C6.01688 10.3104 4.36328 11.964 4.36328 14.004V14.2104H14.6353V11.2728Z" fill="currentColor"/>
<path d="M2.37109 16.6608L4.08469 15.1824V14.5728H2.37109V16.6608Z" fill="currentColor"/>
<path d="M2.03759 15.5566H0.381592V16.2262H2.03759V15.5566Z" fill="currentColor"/>
<path d="M2.03759 16.4253H0.381592V16.7517H2.03759V16.4253Z" fill="currentColor"/>
<path d="M0.715122 15.3599L1.07032 4.9751H0.775122L0.419922 15.3599H0.715122Z" fill="currentColor"/>
<path d="M1.97755 15.3599L1.62235 4.9751H1.32715L1.68235 15.3599H1.97755Z" fill="currentColor"/>
<path d="M0.1632 14.7601C0.0912 14.7553 0.0312 14.8081 0.0264 14.8801L0 15.3217L0.2568 15.3361L0.2832 14.8945C0.2856 14.8249 0.2328 14.7625 0.1632 14.7601Z" fill="currentColor"/>
<path d="M0.429482 11.7741C0.434282 11.7045 0.379082 11.6421 0.309482 11.6397C0.239882 11.6373 0.177482 11.6901 0.175082 11.7597L0.148682 12.2013L0.405482 12.2157L0.429482 11.7741Z" fill="currentColor"/>
<path d="M0.556679 8.42864C0.561479 8.35904 0.506279 8.29664 0.436679 8.29424C0.367079 8.28944 0.304679 8.34464 0.302279 8.41424L0.275879 8.85584L0.532679 8.87024L0.556679 8.42864Z" fill="currentColor"/>
<path d="M0.679196 5.10002C0.683996 5.03042 0.628796 4.96802 0.559196 4.96562C0.489596 4.96082 0.427196 5.01602 0.422396 5.08562L0.395996 5.52722L0.652796 5.54402L0.679196 5.10002Z" fill="currentColor"/>
<path d="M24.0001 14.5319C24.0001 13.8095 23.4433 13.2167 22.7329 13.1591L20.5513 8.12867H21.7009C21.8185 8.12867 21.8809 7.99187 21.8041 7.90307L21.5761 7.63907H16.4857V7.35107H15.3961V7.63907H15.2209C15.0481 7.63907 14.9065 7.78067 14.9065 7.95347V9.04067H15.3745V14.6783L15.0913 14.6183V17.4383L15.7777 17.5631C16.1353 16.8887 16.8409 16.4423 17.6353 16.4423C18.3961 16.4423 19.0993 16.8575 19.4737 17.5247C19.6057 17.7599 19.6897 18.0167 19.7233 18.2831L20.3617 18.4007V18.3935H23.1169V18.3839H24.0001V14.5319ZM20.1577 17.0615C20.0281 16.2167 19.3897 15.5375 18.5521 15.3575L15.8617 14.7791V8.87747L16.2553 8.40227C16.3993 8.22707 16.6153 8.12627 16.8433 8.12627H20.3089L22.4881 13.1519V14.8679L21.6145 13.2119C21.4777 13.2191 21.3505 13.2239 21.3289 13.2263L20.9713 13.3847L20.9281 13.4303L20.5801 13.1207L20.3209 13.3487L20.6329 13.8311C20.5441 14.0111 20.4553 14.2199 20.4553 14.2199L21.6121 16.2335L22.1065 17.3519L22.2697 17.7239H20.2609L20.1577 17.0615Z" fill="currentColor"/>
<path d="M16.7281 6.86176C16.7281 6.68896 16.5865 6.54736 16.4137 6.54736H15.3745C15.2017 6.54736 15.0601 6.68896 15.0601 6.86176V7.19296H16.7281V6.86176Z" fill="currentColor"/>
<path d="M2.00693 3.84078L1.78638 3.85107L1.88591 5.98473L2.10647 5.97444L2.00693 3.84078Z" fill="currentColor"/>
</g>
<defs>
<clipPath id="clip0_1437_2430">
<rect width="24" height="16.4712" fill="currentColor" transform="translate(0 3.83984)"/>
</clipPath>
</defs>
</svg>
