<svg width="24" height="24" viewBox="0 0 24 24" fill="currentColor" xmlns="http://www.w3.org/2000/svg">
<g clip-path="url(#clip0_1422_1389)">
<path d="M14.5368 3.8425L8.00879 3.6001V4.5337L14.5368 4.7761V3.8425ZM14.352 4.5841L8.19599 4.3561V3.7921L14.352 4.0225V4.5841Z" fill="currentColor"/>
<path d="M11.9664 11.273C11.9664 11.273 11.7912 11.0162 11.6592 10.781C11.5272 10.5458 11.3016 10.3826 10.8816 10.3826H8.724L9.0936 11.7794C9.2328 11.9978 11.1768 15.0506 11.628 15.8162C12.0504 16.5314 12.204 16.5314 12.6168 16.529H12.684H16.26V11.273H11.9664Z" fill="currentColor"/>
<path d="M20.4528 13.1162C18.4968 13.1162 16.9104 14.7026 16.9104 16.673C16.9104 18.6434 18.4968 20.237 20.4528 20.237C22.4136 20.237 24 18.641 24 16.673C24 14.705 22.4136 13.1162 20.4528 13.1162ZM20.4528 18.3242C19.548 18.3242 18.8112 17.5778 18.8112 16.673C18.8112 15.7586 19.548 15.0218 20.4528 15.0218C21.3576 15.0218 22.0944 15.7586 22.0944 16.673C22.0968 17.5778 21.36 18.3242 20.4528 18.3242Z" fill="currentColor"/>
<path d="M4.47123 13.1162C2.51523 13.1162 0.928833 14.7026 0.928833 16.673C0.928833 18.6434 2.51523 20.237 4.47123 20.237C6.43203 20.237 8.01843 18.641 8.01843 16.673C8.01843 14.705 6.42963 13.1162 4.47123 13.1162ZM4.47123 18.3242C3.56643 18.3242 2.82963 17.5778 2.82963 16.673C2.82963 15.7586 3.56643 15.0218 4.47123 15.0218C5.37603 15.0218 6.11283 15.7586 6.11283 16.673C6.11283 17.5778 5.37603 18.3242 4.47123 18.3242Z" fill="currentColor"/>
<path d="M16.608 16.6729C16.608 14.5345 18.3312 12.8113 20.4528 12.8113C21.1896 12.8113 21.876 13.0225 22.4616 13.3801L22.5528 13.0081L22.2768 12.9001L22.1544 12.3145L21.708 12.2521L21.804 11.6593L21.4248 10.9825L21.4752 10.3465L21.2904 10.0897L16.7208 9.64809L14.6808 4.92009L7.6416 4.67529L7.5432 7.92729H4.056L1.4328 9.10569H0.2784V9.84009H0V12.6241H0.1848V14.4097H0.384L1.0296 14.2705H1.3368L1.6176 14.0857C2.3208 13.3033 3.336 12.8113 4.4688 12.8113C6.5976 12.8113 8.3208 14.5345 8.3208 16.6729C8.3208 16.8505 8.304 17.0257 8.2824 17.1961C8.2992 17.2225 8.3088 17.2393 8.3088 17.2393H16.656C16.6272 17.0545 16.608 16.8649 16.608 16.6729ZM0.5568 9.84009V9.38409H1.4928L4.116 8.20569H7.5504L7.9488 9.84009H0.5568ZM16.4448 16.7137H12.6168C12.6048 16.7137 12.5928 16.7137 12.5808 16.7137C12.1248 16.7137 11.9112 16.6657 11.4648 15.9097C10.9992 15.1201 8.9472 11.8969 8.9256 11.8657L8.9184 11.8537L8.5368 10.4041L8.628 10.3801L9.2112 9.72489L8.8128 7.97289V5.73129L9.3864 5.31129L14.1816 5.49609L16.3536 10.2193V11.2753H16.4472V16.7137H16.4448Z" fill="currentColor"/>
</g>
<defs>
<clipPath id="clip0_1422_1389">
<rect width="24" height="16.6368" fill="currentColor" transform="translate(0 3.6001)"/>
</clipPath>
</defs>
</svg>
