<svg width="24" height="24" viewBox="0 0 24 24" fill="currentColor" xmlns="http://www.w3.org/2000/svg">
<g clip-path="url(#clip0_1426_1365)">
<path d="M19.6031 16.2385C19.6031 16.9273 20.1599 17.4889 20.8463 17.4889C21.4007 17.4889 21.8663 17.1193 22.0247 16.6153C22.0631 16.4953 22.0896 16.3705 22.0896 16.2385C22.0896 15.5473 21.5327 14.9905 20.8463 14.9905C20.7071 14.9905 20.5751 15.0193 20.4527 15.0601C19.9583 15.2257 19.6031 15.6865 19.6031 16.2385ZM20.2703 16.2385C20.2703 15.9169 20.5295 15.6601 20.8463 15.6601C21.1631 15.6601 21.4224 15.9193 21.4224 16.2385C21.4224 16.5577 21.1631 16.8169 20.8463 16.8169C20.5271 16.8145 20.2703 16.5577 20.2703 16.2385Z" fill="currentColor"/>
<path d="M6.36719 16.2385C6.36719 16.9273 6.92399 17.4889 7.61039 17.4889C8.16479 17.4889 8.63039 17.1193 8.78879 16.6153C8.82719 16.4953 8.85359 16.3705 8.85359 16.2385C8.85359 15.5473 8.29679 14.9905 7.61039 14.9905C7.47119 14.9905 7.33919 15.0193 7.21679 15.0601C6.72239 15.2257 6.36719 15.6865 6.36719 16.2385ZM7.03199 16.2385C7.03199 15.9169 7.29119 15.6601 7.60799 15.6601C7.92479 15.6601 8.18399 15.9193 8.18399 16.2385C8.18399 16.5577 7.92479 16.8169 7.60799 16.8169C7.29119 16.8145 7.03199 16.5577 7.03199 16.2385Z" fill="currentColor"/>
<path d="M22.2792 15.3696C22.3248 15.4392 22.3656 15.5136 22.3992 15.5928C22.3728 15.5232 22.332 15.4488 22.2792 15.3696Z" fill="currentColor"/>
<path d="M10.1544 7.61523L4.57678 8.32083L4.67038 9.01204L10.1544 8.33043V7.61523Z" fill="currentColor"/>
<path d="M3.88085 16.0439V16.4159H0.448853V16.0751C0.448853 16.0775 4.12565 16.0439 3.88085 16.0439Z" fill="currentColor"/>
<path d="M2.592 12.384L2.4456 12.1608C2.4336 12.1416 2.4096 12.1296 2.3856 12.1296H0.2016C0.1776 12.1296 0.156 12.1416 0.1416 12.1608L0 12.384H0.2832C0.2832 12.9312 0.2832 14.6952 0.2832 14.928C0.2832 15.204 0.5088 15.2184 0.72 15.2184C0.9312 15.2184 1.7568 15.2184 2.016 15.2184C2.2752 15.2184 2.3064 15.024 2.3064 14.928C2.3064 14.8464 2.3064 12.996 2.3064 12.384H2.592Z" fill="currentColor"/>
<path d="M4.23605 8.94474L4.15685 8.38794L2.89925 8.57994L3.24005 13.7447H2.62085V14.6759L3.45125 15.1175H3.45365H3.45605L3.71045 15.1199L3.50645 9.03354L4.23605 8.94474Z" fill="currentColor"/>
<path d="M9.62643 15.7176C9.53043 15.1944 9.19923 14.8464 9.19923 14.8464H14.7408V9.42725H4.77123C4.52883 9.42725 4.33203 9.62405 4.33203 9.86645V16.4232H5.96403C5.95683 16.3608 5.94963 16.2984 5.94963 16.2361C5.94963 15.3192 6.69363 14.5728 7.60803 14.5728C7.78083 14.5728 7.95363 14.604 8.13363 14.664C8.81043 14.892 9.26403 15.5232 9.26403 16.2361C9.26403 16.2984 9.25923 16.3608 9.25203 16.4232H14.736V15.7152C14.7408 15.7176 9.78483 15.7176 9.62643 15.7176Z" fill="currentColor"/>
<path d="M14.8464 6.84957L14.9304 6.71997L10.6248 7.55517L10.608 9.05277L13.2456 9.03597L14.8464 6.84957Z" fill="currentColor"/>
<path d="M15.5689 7.044L15.4705 6.9624L13.9705 9.0528H14.7409L15.4873 8.0472L15.5689 7.044Z" fill="currentColor"/>
<path d="M18.6865 11.3617C18.6505 11.3065 18.5761 11.2897 18.5185 11.3257L17.7361 11.8369C17.6809 11.8729 17.6641 11.9473 17.7001 12.0049C17.7241 12.0409 17.7625 12.0601 17.8009 12.0601C17.8225 12.0601 17.8465 12.0529 17.8657 12.0409L18.6481 11.5297C18.7081 11.4913 18.7225 11.4169 18.6865 11.3617Z" fill="currentColor"/>
<path d="M23.712 13.6849C23.6352 13.4929 23.0592 13.2049 22.9056 13.1281C22.752 13.0513 20.1696 11.9137 20.1696 11.9137C20.1696 11.9137 18.3312 9.85927 17.9352 9.64807C17.7552 9.55207 17.5224 9.43207 17.232 9.42727C16.4952 9.42007 15.3552 9.42727 15.3552 9.42727V14.8297H19.1592C19.1592 14.8297 18.828 15.1777 18.732 15.7009C17.9496 15.7009 15.3552 15.7033 15.3552 15.7033V16.4281L19.1424 16.4377C19.1448 16.4161 19.1448 16.3153 19.1448 16.2865C19.1448 15.5545 19.6128 14.9065 20.3064 14.6713C20.4912 14.6089 20.6688 14.5777 20.8488 14.5777C21.4512 14.5777 21.9792 14.8921 22.2816 15.3649C22.3344 15.4441 22.3752 15.5209 22.4016 15.5881C22.4976 15.8017 22.5528 16.0369 22.5528 16.2865C22.5528 16.3633 22.5456 16.4377 22.5336 16.5169C22.6584 16.4929 23.0592 16.4161 23.2536 16.3537C23.484 16.2769 23.9448 16.0465 23.9448 15.8353C23.9448 15.6241 24.0024 14.9713 24.0024 14.7217C24 14.4721 23.7888 13.8769 23.712 13.6849ZM15.684 12.0409V10.2745C15.684 10.0945 15.8304 9.94807 16.0104 9.94807H17.532C17.6256 9.94807 17.7168 9.98887 17.7768 10.0609L19.3128 11.8273C19.3584 11.8801 19.3824 11.9377 19.3896 11.9977L18.9984 12.2521L18.4656 11.8057L18.2616 11.9401L18.4632 12.3649H16.0104C15.8304 12.3673 15.684 12.2209 15.684 12.0409ZM17.1312 13.2361L16.0944 13.1593L16.1112 12.8185L17.148 12.8953L17.1312 13.2361Z" fill="currentColor"/>
</g>
<defs>
<clipPath id="clip0_1426_1365">
<rect width="24" height="10.7688" fill="currentColor" transform="translate(0 6.71997)"/>
</clipPath>
</defs>
</svg>
