<svg width="24" height="24" viewBox="0 0 24 24" fill="currentColor" xmlns="http://www.w3.org/2000/svg">
<g clip-path="url(#clip0_1422_1668)">
<path d="M17.3952 21.4297C18.1056 21.4297 18.6816 22.0057 18.6816 22.7137C18.6816 23.4241 18.1056 23.9977 17.3952 23.9977C16.6848 23.9977 16.1112 23.4217 16.1112 22.7137C16.1112 22.0057 16.6848 21.4297 17.3952 21.4297ZM16.8696 22.7017C16.8696 22.9993 17.112 23.2417 17.4096 23.2417C17.7096 23.2417 17.9496 22.9993 17.9496 22.7017C17.9496 22.4041 17.7072 22.1617 17.4096 22.1617C17.112 22.1593 16.8696 22.4017 16.8696 22.7017Z" fill="currentColor"/>
<path d="M6.82087 21.3984C7.53127 21.3984 8.10487 21.9744 8.10487 22.6824C8.10487 23.3928 7.52887 23.9664 6.82087 23.9664C6.11047 23.9664 5.53687 23.3904 5.53687 22.6824C5.53447 21.9744 6.11047 21.3984 6.82087 21.3984ZM6.29287 22.6704C6.29287 22.968 6.53527 23.2104 6.83287 23.2104C7.13047 23.2104 7.37287 22.968 7.37287 22.6704C7.37287 22.3728 7.13047 22.1304 6.83287 22.1304C6.53527 22.128 6.29287 22.3704 6.29287 22.6704Z" fill="currentColor"/>
<path d="M18.4752 10.2912L18.4728 9.1896C18.4704 8.7528 18.4464 3.8544 18.4296 3.3648C18.4128 2.8512 18.408 1.9512 18.3144 1.8144C18.18 1.62 18.0168 1.4952 17.7864 1.4832C17.5848 1.476 12.1728 1.464 10.752 1.4616V1.0896L10.7208 0.0048L9.99841 0L10.0584 15.0144L10.6296 15.012L10.7256 10.3152L18.4752 10.2912ZM12.3408 5.3496L12.852 5.9016L10.7376 5.88L10.74 5.3376L12.3408 5.3496ZM10.74 5.0832L10.7448 3.6336L12.1056 5.1L10.74 5.0832ZM12.6984 5.352L13.8648 5.3616L14.3736 5.9184L13.2 5.9064L12.6984 5.352ZM14.6304 6.1992L17.3664 9.1848L16.1688 9.18L13.4568 6.192L14.6304 6.1992ZM14.9136 6.1992L17.544 6.2184L17.5536 9.1536L14.9136 6.1992ZM17.5416 5.9592V5.9496L14.664 5.9208L14.1672 5.364L17.5416 5.3904V5.9592ZM13.944 5.1168L11.5248 2.4072L17.064 2.5416C17.064 2.5416 17.3712 2.5392 17.4576 2.8416C17.5128 3.036 17.5392 5.0424 17.5392 5.0424V5.1528L13.944 5.1168ZM13.6368 5.1144L12.468 5.1024L10.7448 3.204L10.7472 2.3904L11.148 2.4L13.6368 5.1144ZM10.7496 2.1864V1.9608L10.9584 2.1888C10.8744 2.1888 10.8024 2.1888 10.7496 2.1864ZM10.7376 6.1704L13.1184 6.1872L15.8928 9.1776L10.728 9.1536L10.7376 6.1704ZM17.7504 9.1872L17.7288 5.3904L18.2112 5.3952C18.2184 6.3312 18.2304 7.5624 18.2472 9.1896L17.7504 9.1872ZM17.7312 1.7016C17.9808 1.7256 18.1296 1.9512 18.1464 2.0904C18.1872 2.4 18.1848 2.4816 18.2064 5.1624L17.724 5.1576L17.7096 2.8272C17.7096 2.8272 17.784 2.268 16.9848 2.2704C16.3656 2.2728 12.864 2.22 11.3352 2.196L10.9152 1.728C12.192 1.7184 17.5104 1.6824 17.7312 1.7016Z" fill="currentColor"/>
<path d="M7.06804 18.7607L9.34804 18.2015V3.33594H8.75524V6.25914H8.26804V12.3623L6.95764 12.8231L7.06804 18.7607Z" fill="currentColor"/>
<path d="M6.83279 22.6079C6.79919 22.6079 6.77039 22.6367 6.77039 22.6703C6.77039 22.7039 6.79919 22.7327 6.83279 22.7327C6.86639 22.7327 6.89519 22.7039 6.89519 22.6703C6.89519 22.6343 6.86879 22.6079 6.83279 22.6079Z" fill="currentColor"/>
<path d="M17.4097 22.6392C17.3761 22.6392 17.3473 22.668 17.3473 22.7016C17.3473 22.7352 17.3761 22.764 17.4097 22.764C17.4433 22.764 17.4721 22.7352 17.4721 22.7016C17.4721 22.6656 17.4433 22.6392 17.4097 22.6392Z" fill="currentColor"/>
<path d="M17.184 20.9664C17.22 20.844 17.2344 20.5944 16.896 20.3592C16.3992 20.0136 15.84 19.668 14.5176 19.5936C13.1952 19.5216 9.76085 19.4352 9.76085 19.4352L9.34805 18.864L5.88965 19.6536L5.92565 21.1656C6.18725 21.0096 6.49205 20.9184 6.82085 20.9184C7.79285 20.9184 8.58485 21.7104 8.58485 22.6824C8.58485 22.944 8.52725 23.1912 8.42405 23.4144H15.78C15.6864 23.1984 15.6336 22.9632 15.6336 22.7136C15.6336 21.8136 16.3128 21.0696 17.184 20.9664Z" fill="currentColor"/>
<path d="M6.50164 18.5831C5.38804 18.5831 5.04004 18.3599 5.04004 16.9679V11.0471C5.04004 10.1447 5.39524 9.85669 6.50164 9.85669C6.63364 9.85669 6.74164 9.96469 6.74164 10.0967C6.74164 10.2287 6.63364 10.3367 6.50164 10.3367C5.51764 10.3367 5.51764 10.5311 5.51764 11.0495V16.9679C5.51764 18.1031 5.66884 18.1031 6.50164 18.1031C6.63364 18.1031 6.74164 18.2111 6.74164 18.3431C6.74164 18.4751 6.63364 18.5831 6.50164 18.5831Z" fill="currentColor"/>
</g>
<defs>
<clipPath id="clip0_1422_1668">
<rect width="13.7616" height="24" fill="currentColor" transform="translate(5.04004)"/>
</clipPath>
</defs>
</svg>
