<svg width="24" height="24" viewBox="0 0 24 24" fill="currentColor" xmlns="http://www.w3.org/2000/svg">
<g clip-path="url(#clip0_1433_1476)">
<path d="M10.0752 11.7214C9.43918 11.7214 8.88478 12.0742 8.59198 12.595C8.45518 12.8422 8.37598 13.123 8.37598 13.4254C8.37598 14.3686 9.13678 15.1342 10.0752 15.1342C11.0112 15.1342 11.7744 14.3686 11.7744 13.4254C11.7744 13.3198 11.7624 13.2142 11.7456 13.1134C11.5968 12.3238 10.9056 11.7214 10.0752 11.7214ZM10.0752 14.1718C9.66478 14.1718 9.33118 13.8382 9.33118 13.4254C9.33118 13.1038 9.53038 12.8374 9.80878 12.7294C9.89278 12.6982 9.98158 12.679 10.0752 12.679C10.3728 12.679 10.6296 12.8566 10.7472 13.1134C10.7928 13.2094 10.8168 13.3126 10.8168 13.4254C10.8168 13.8382 10.4832 14.1718 10.0752 14.1718Z" fill="currentColor"/>
<path d="M24 12.1967V11.7503H23.2272V10.9727H22.9656V11.7503H19.6176V11.0831H19.1424V11.7503H18.0456V10.4855H17.9496V8.8895C18.1056 8.8319 18.2664 8.7743 18.432 8.7143L18.7752 9.8519L19.38 9.6719L19.3104 9.4391L18.936 9.5495L18.5904 8.3999L18.4704 8.4431C18.2736 8.5151 18.0624 8.5919 17.8488 8.6687H17.7048V8.7215C15.648 9.4655 13.104 10.3799 12.9624 10.4135L12.9696 10.4519L12.948 10.4159L12.456 10.6271L12.3744 10.3223L8.8944 11.1095L8.9496 11.3159H7.392C7.3632 11.2127 7.2696 11.1335 7.1568 11.1335H4.4112C4.356 11.1335 4.3152 11.1527 4.2792 11.1815L3.7776 11.1887L2.6544 11.4479L2.6352 11.3687L1.9992 11.4767L2.0304 11.5919L1.3608 11.7479L1.404 11.9375L2.0808 11.7815L2.2152 12.2711L0.276 12.8255L0.3216 13.0775L0.3864 13.0583L0.4608 13.3847L0.36 13.4087L0.4296 13.7423L0.3744 13.7783L0.4656 13.9199L0.4752 13.9703C0.3576 14.0639 0.2688 14.1911 0.228 14.3399L0.0192 14.2967L0 14.3903L0.2088 14.4335C0.204 14.4671 0.2016 14.5007 0.2016 14.5343C0.2016 14.6639 0.2352 14.7839 0.2952 14.8895L0.1176 15.0071L0.1704 15.0887L0.3504 14.9711C0.444 15.0959 0.5784 15.1895 0.732 15.2327L0.6888 15.4415L0.7848 15.4607L0.828 15.2519C0.8616 15.2567 0.8952 15.2591 0.9288 15.2591C1.0584 15.2591 1.1784 15.2255 1.284 15.1655L1.4016 15.3431L1.4832 15.2903L1.3656 15.1103C1.4904 15.0167 1.584 14.8823 1.6272 14.7287L1.836 14.7719L1.8552 14.6759L1.6464 14.6327C1.6512 14.5991 1.6536 14.5655 1.6536 14.5319C1.6536 14.4023 1.62 14.2823 1.56 14.1767L1.7376 14.0591L1.6848 13.9775L1.5048 14.0951C1.4112 13.9703 1.2768 13.8767 1.1232 13.8335L1.1664 13.6247L1.0704 13.6055L1.032 13.7879L0.9288 13.2887L0.768 13.3223L0.6888 12.9743L4.0992 11.9975V12.0047H5.4864V12.5087H6.0432V12.4295L6.1488 12.4271C6.4464 12.4223 6.8976 12.4127 7.1088 12.6215C7.1976 12.7079 7.2408 12.8279 7.2408 12.9887C7.2408 13.3583 7.0536 13.5071 6.804 13.5719L6.8088 13.5647L6.5112 13.4807L6.5688 13.1759L6.2592 13.1927L6.216 12.8855L5.928 13.0007L5.7864 12.7247L5.5512 12.9287L5.328 12.7127L5.172 12.9815L4.8912 12.8495L4.8312 13.1543L4.524 13.1207L4.5672 13.4279L4.2648 13.4975L4.404 13.7735L4.14 13.9367L4.3608 14.1527L4.164 14.3927L4.4448 14.5247L4.3368 14.8151L4.644 14.8487L4.6368 15.1583L4.9392 15.0911L5.0328 15.3863L5.2968 15.2231L5.4816 15.4727L5.6784 15.2327L5.9328 15.4079L6.0408 15.1175L6.3384 15.2015L6.348 14.8919L6.672 14.8799L6.5808 14.5847L6.8688 14.4671L6.6864 14.2175L6.9192 14.0135L6.6792 13.8479C7.0224 13.8023 7.4928 13.6511 7.4928 12.9935C7.4928 12.7679 7.4232 12.5879 7.2888 12.4535C7.0032 12.1751 6.4896 12.1823 6.1536 12.1895L6.0528 12.1919V12.0095H7.4088V11.9015H8.9664C9.1464 11.7695 9.3504 11.6711 9.564 11.6087C9.7344 11.5607 9.9072 11.5367 10.0848 11.5367C10.4928 11.5367 10.8768 11.6663 11.1984 11.9015C11.2752 11.9591 11.352 12.0191 11.4216 12.0887C11.5008 12.1679 11.5728 12.2543 11.6376 12.3455C11.7696 12.5351 11.8632 12.7439 11.916 12.9623L13.236 12.4631L13.1064 12.1223L13.3584 12.0935L13.3968 11.8991H14.5752V12.0071H15.456V12.5111H16.0128V12.4319L16.1184 12.4295C16.416 12.4247 16.8672 12.4151 17.0784 12.6239C17.1672 12.7103 17.2104 12.8303 17.2104 12.9911C17.2104 13.2503 17.1168 13.3991 16.9776 13.4903L16.9512 13.4831L17.0088 13.1783L16.6992 13.1951L16.656 12.8879L16.368 13.0031L16.2264 12.7271L15.9912 12.9311L15.768 12.7151L15.612 12.9839L15.3312 12.8519L15.2712 13.1567L14.964 13.1231L15.0072 13.4303L14.7048 13.4999L14.844 13.7759L14.58 13.9391L14.8008 14.1551L14.604 14.3951L14.8848 14.5271L14.7768 14.8175L15.084 14.8511L15.0768 15.1607L15.3792 15.0935L15.4728 15.3887L15.7368 15.2255L15.9216 15.4751L16.1184 15.2351L16.3728 15.4103L16.4808 15.1199L16.7784 15.2039L16.788 14.8943L17.1048 14.8799L17.0136 14.5847L17.3016 14.4671L17.1192 14.2175L17.352 14.0135L17.0976 13.8359L17.2464 13.5767C17.3688 13.4495 17.4552 13.2671 17.4552 12.9911C17.4552 12.7655 17.3856 12.5855 17.2512 12.4511C16.9656 12.1727 16.452 12.1799 16.116 12.1871L16.0128 12.1895V12.0071H17.5872V11.8991H17.7048V12.5975H18.0408L21.0216 12.1991H22.968V14.1815H22.6248V14.3879H23.52V14.1815H23.2272V12.1991H24V12.1967ZM1.0608 14.6135C1.056 14.6207 1.0536 14.6255 1.0488 14.6303C1.0272 14.6567 1.0008 14.6759 0.9672 14.6831C0.96 14.6855 0.9528 14.6879 0.9456 14.6879C0.9408 14.6879 0.9336 14.6903 0.9288 14.6903C0.9 14.6903 0.8736 14.6831 0.852 14.6687C0.8448 14.6639 0.84 14.6615 0.8352 14.6567C0.7992 14.6279 0.7752 14.5847 0.7752 14.5367C0.7752 14.4647 0.8232 14.4047 0.8904 14.3879C0.9024 14.3855 0.9168 14.3831 0.9288 14.3831C1.0128 14.3831 1.0824 14.4527 1.0824 14.5367C1.0824 14.5655 1.0728 14.5895 1.0608 14.6135ZM5.532 14.2487C5.448 14.2487 5.3808 14.1815 5.3808 14.0951C5.3808 14.0111 5.448 13.9415 5.532 13.9415C5.616 13.9415 5.6856 14.0087 5.6856 14.0951C5.6856 14.1791 5.616 14.2487 5.532 14.2487ZM15.9672 14.2487C15.8832 14.2487 15.816 14.1815 15.816 14.0951C15.816 14.0111 15.8832 13.9415 15.9672 13.9415C16.0512 13.9415 16.1208 14.0087 16.1208 14.0951C16.1184 14.1791 16.0512 14.2487 15.9672 14.2487ZM13.0968 10.4951L13.008 10.5239L13.0968 10.4951ZM12.8808 10.5527C12.9144 10.5527 12.936 10.5743 12.9504 10.6031L12.9312 10.6415C12.9384 10.6439 12.9456 10.6487 12.9576 10.6487C12.9504 10.6871 12.9216 10.7159 12.8808 10.7159C12.8352 10.7159 12.7992 10.6799 12.7992 10.6343C12.7992 10.5887 12.8352 10.5527 12.8808 10.5527ZM2.7 11.6399L3.8688 11.3711L4.0584 11.7431L2.8128 12.1007L2.7 11.6399ZM9.6576 11.3159L12.1848 10.7447C12.1848 10.7471 12.2232 11.0111 12.2664 11.3159H9.6576ZM17.5704 11.3159C17.5416 11.2127 17.448 11.1335 17.3352 11.1335H14.8224C14.7096 11.1335 14.616 11.2103 14.5872 11.3159H13.4568L13.068 10.6271C13.3512 10.5479 14.2944 10.2167 17.7072 8.9783V10.4855H17.7048V11.3159H17.5704Z" fill="currentColor"/>
<path d="M23.208 10.5791H22.26V10.7975H23.208V10.5791Z" fill="currentColor"/>
<path d="M22.4399 10.291C22.4399 10.2502 22.4087 10.219 22.3679 10.219H22.3391C22.2983 10.219 22.2671 10.2502 22.2671 10.291V10.4902H22.4399V10.291Z" fill="currentColor"/>
</g>
<defs>
<clipPath id="clip0_1433_1476">
<rect width="24" height="7.0776" fill="currentColor" transform="translate(0 8.3999)"/>
</clipPath>
</defs>
</svg>
