<svg width="24" height="24" viewBox="0 0 24 24" fill="currentColor" xmlns="http://www.w3.org/2000/svg">
<g clip-path="url(#clip0_1415_1154)">
<path d="M10.5096 23.1864C10.5096 23.6352 10.872 24 11.316 24C11.676 24 11.9784 23.76 12.0816 23.4312C12.1056 23.3544 12.1224 23.2728 12.1224 23.1864C12.1224 22.7376 11.76 22.3752 11.3136 22.3752C11.2248 22.3752 11.1384 22.392 11.0568 22.4208C10.74 22.5288 10.5096 22.8288 10.5096 23.1864ZM10.9416 23.1864C10.9416 22.9776 11.1096 22.8096 11.316 22.8096C11.5224 22.8096 11.6904 22.9776 11.6904 23.1864C11.6904 23.3928 11.5224 23.5608 11.316 23.5608C11.1096 23.5632 10.9416 23.3952 10.9416 23.1864Z" fill="currentColor"/>
<path d="M9.95277 23.1864C9.95277 22.9536 10.0272 22.74 10.1544 22.5648C9.62157 22.5648 9.08157 22.5672 8.66877 22.5768C8.66877 19.0152 7.93677 16.8936 7.93677 16.8936H4.57197V23.4792L4.54797 23.724H10.104C10.0656 23.6568 10.032 23.5872 10.008 23.5104C9.96957 23.3976 9.95277 23.292 9.95277 23.1864Z" fill="currentColor"/>
<path d="M12.9264 22.5769C12.9264 22.5769 12.672 22.5745 12.4608 22.5745C12.5856 22.7497 12.6576 22.9633 12.6576 23.1889C12.6576 23.3833 12.6048 23.5657 12.5136 23.7241H12.9288V22.5769H12.9264Z" fill="currentColor"/>
<path d="M3.83997 16.9297C1.83117 16.9297 1.98957 20.6161 1.98957 20.6161V23.7145H2.33037C2.47917 23.8873 2.69517 24.0001 2.94237 24.0001C3.18717 24.0001 3.40317 23.8873 3.54957 23.7145H3.83997V16.9297Z" fill="currentColor"/>
<path d="M14.7936 10.6487H15.396V11.9279L21.7992 11.8847V12.1631L18.528 12.3911H14.8008L14.7936 10.6487Z" fill="currentColor"/>
<path d="M14.0112 11.8464V5.9808H13.4016H9.88798V11.34H9.21358V4.0608H9.21118L9.22078 0.588H12.7392V0.0048L8.64958 0V4.0608H7.96798V15.4392H4.56958V16.2432H8.51278C8.73838 16.9848 9.11758 18.4464 9.21598 20.1672V12.5376L13.968 11.8464H14.0112ZM10.4832 6.5112H13.4016L13.404 8.7912H10.4832V6.5112ZM10.4904 9.3504H13.4064V11.3424H12.3168H10.4904V9.3504Z" fill="currentColor"/>
</g>
<defs>
<clipPath id="clip0_1415_1154">
<rect width="19.812" height="24" fill="currentColor" transform="translate(1.98718)"/>
</clipPath>
</defs>
</svg>
