<svg width="24" height="24" viewBox="0 0 24 24" fill="currentColor" xmlns="http://www.w3.org/2000/svg">
<g clip-path="url(#clip0_1415_1146)">
<path d="M6.48956 12.624H3.68396V21.396H6.48956V12.624Z" fill="currentColor"/>
<path d="M1.728 13.0991H0V21.3959H1.5864V21.3815V21.1967H1.7688H2.6328H2.8152V21.3815V21.3959H3.3984V12.6143H2.3928L1.728 13.0991Z" fill="currentColor"/>
<path d="M1.76918 21.7507L2.63318 21.7507L2.63318 21.3715L1.76918 21.3715L1.76918 21.7507Z" fill="currentColor"/>
<path d="M4.07229 12.429L4.83069 12.429L4.83069 11.8626L4.07229 11.8626L4.07229 12.429Z" fill="currentColor"/>
<path d="M14.2392 20.4335H12.012V20.5319H8.92323V12.7487H9.14403V2.29432V1.97032V1.91992H5.68323V2.29432H6.99603V10.6967H6.77523V10.6991H6.50163V11.6135H6.77523V21.3935H8.88483H11.0688V21.3791V21.1967H11.2512H12.1152H12.2976V21.6095H12.408C12.4992 21.7607 12.6624 21.8615 12.8496 21.8615C13.0368 21.8615 13.2 21.7607 13.2912 21.6095H13.9392C14.0304 21.7607 14.1936 21.8615 14.3808 21.8615C14.568 21.8615 14.7312 21.7607 14.8224 21.6095H14.8416C14.928 21.6095 15 21.5399 15 21.4511V21.1919C14.9976 20.7743 14.6592 20.4335 14.2392 20.4335Z" fill="currentColor"/>
<path d="M11.2511 21.7507L12.1151 21.7507L12.1151 21.3715L11.2511 21.3715L11.2511 21.7507Z" fill="currentColor"/>
<path d="M24.0001 20.8583L18.9937 21.0383H15.5833V20.6279H24.0001V20.8583Z" fill="currentColor"/>
<path d="M9.97201 19.7928V17.0592H11.2032C11.7384 17.0592 11.9016 16.896 12.0888 16.7064L13.7256 15.0696C13.9944 14.8032 14.2464 14.5488 14.2464 14.2584C14.2464 14.0064 14.2848 12.6 14.2848 12.5856C14.2848 12.5544 14.2728 12.5256 14.2512 12.5016C14.2296 12.48 14.2008 12.468 14.1696 12.468H10.9776C11.0352 12.3192 11.064 12.18 11.064 12.072V10.1664C11.064 9.71277 10.8168 9.29517 10.6584 9.13917C10.5696 9.05037 10.2024 8.74797 9.97201 8.55837V3.56637H13.6728L15.36 3.18237V2.77197H9.45361V3.51357V3.56397V19.7928V20.0136V20.256H11.7216L11.7192 20.1576H14.2392C14.7576 20.1576 15.1848 20.5392 15.2616 21.0384H15.456V19.7952H9.97201V19.7928ZM9.97201 12.6984H10.5912C10.5432 12.7656 10.488 12.8328 10.4208 12.9L9.97201 13.3488V12.6984ZM14.0544 12.6984C14.0448 13.0464 14.0184 14.0448 14.0184 14.2584C14.0184 14.4552 13.7976 14.676 13.5648 14.9088L11.928 16.5456C11.7576 16.7184 11.6448 16.8312 11.2032 16.8312H9.97201V13.6704L10.5816 13.0608C10.7016 12.9408 10.7928 12.8184 10.8648 12.6984H14.0544ZM10.4976 9.29997C10.608 9.41037 10.836 9.76557 10.836 10.1664V12.072C10.836 12.1728 10.8048 12.3144 10.7304 12.468H9.97441V8.85357C10.1952 9.03597 10.4328 9.23757 10.4976 9.29997Z" fill="currentColor"/>
</g>
<defs>
<clipPath id="clip0_1415_1146">
<rect width="24" height="19.9416" fill="currentColor" transform="translate(0 1.91992)"/>
</clipPath>
</defs>
</svg>
