<svg width="24" height="24" viewBox="0 0 24 24" fill="currentColor" xmlns="http://www.w3.org/2000/svg">
<g clip-path="url(#clip0_1415_1149)">
<path d="M13.8241 18.8952C13.6849 18.8952 13.5721 18.7824 13.5721 18.6432V14.304H13.0153V18.8952V19.2024L13.0177 19.2072C13.0153 19.2192 13.0153 19.2288 13.0153 19.2408C13.0153 19.3584 13.1089 19.452 13.2265 19.4544H20.7481L22.0105 19.2864V18.8952H13.8241Z" fill="currentColor"/>
<path d="M18.504 22.7497C18.504 23.4409 17.9448 24.0001 17.2536 24.0001C16.5624 24.0001 16.0032 23.4409 16.0032 22.7497C16.0032 22.0585 16.5624 21.4993 17.2536 21.4993C17.9448 21.5017 18.504 22.0609 18.504 22.7497ZM17.2416 22.2097C16.9512 22.2097 16.716 22.4449 16.716 22.7353C16.716 23.0257 16.9512 23.2609 17.2416 23.2609C17.532 23.2609 17.7672 23.0257 17.7672 22.7353C17.7672 22.4473 17.532 22.2097 17.2416 22.2097Z" fill="currentColor"/>
<path d="M16.2601 21.468H2.46729V23.8632H16.0921C15.8377 23.5632 15.6817 23.1744 15.6817 22.752C15.6817 22.2408 15.9049 21.7824 16.2601 21.468Z" fill="currentColor"/>
<path d="M9.60726 12.2688H4.85046V13.0608H9.60726V12.2688Z" fill="currentColor"/>
<path d="M9.87129 13.3823H2.47449V21.0407H9.87129V13.3823Z" fill="currentColor"/>
<path d="M9.8832 0V0.2904H10.3392V0.6768C10.08 0.9864 9.2568 1.9752 8.8272 2.4936C8.6712 2.6808 8.6688 2.9496 8.82 3.1416L10.3416 5.064V21.0408H12.3432V0.2904V0.2088V0H9.8832Z" fill="currentColor"/>
<path d="M7.50963 5.0473V4.2793H2.16003V5.0473H2.48883V13.0609H4.48803V12.0097H6.62643V10.1929C6.62643 9.8761 6.36963 9.6169 6.05043 9.6169H4.48803V5.0473H7.50963Z" fill="currentColor"/>
</g>
<defs>
<clipPath id="clip0_1415_1149">
<rect width="19.8528" height="24" fill="currentColor" transform="translate(2.16003)"/>
</clipPath>
</defs>
</svg>
