<svg width="24" height="24" viewBox="0 0 24 24" fill="currentColor" xmlns="http://www.w3.org/2000/svg">
<g clip-path="url(#clip0_1430_2001)">
<path d="M12.7249 7.69678H9.73206V11.4984H12.7249V7.69678Z" fill="currentColor"/>
<path d="M9.35524 11.496H7.36084V8.01358L9.35524 7.69678V11.496Z" fill="currentColor"/>
<path d="M18.6504 11.496H22.0584V7.73518L18.6504 7.69678V11.496Z" fill="currentColor"/>
<path d="M6.95526 9.13159L2.81766 8.15479L2.65686 8.85319L5.77926 9.61879L6.76806 11.2364L6.77766 10.0964L6.64566 9.73159L6.87846 9.76519L6.95526 9.13159Z" fill="currentColor"/>
<path d="M20.9616 7.39648H19.7472V7.77568H20.9616V7.39648Z" fill="currentColor"/>
<path d="M16.5672 6.87582V4.58142H15.3576C15.336 4.58142 15.3144 4.59102 15.2928 4.59342C15.2712 4.59102 15.252 4.58142 15.228 4.58142H14.7912V4.31982H14.124V4.58142H13.9224C13.6848 4.58142 13.4928 4.77342 13.4928 5.01102L13.7856 6.14862C13.7856 6.38622 13.9776 6.57822 14.2152 6.57822H14.8656V6.85422C13.9776 7.18782 13.344 8.03742 13.344 9.04062C13.344 10.3342 14.3928 11.383 15.6864 11.383C16.98 11.383 18.0288 10.3342 18.0288 9.04062C18.0312 8.06142 17.424 7.22382 16.5672 6.87582ZM15.6864 10.3534C14.9616 10.3534 14.376 9.76542 14.376 9.04302C14.376 8.31822 14.964 7.73262 15.6864 7.73262C16.4088 7.73262 16.9968 8.32062 16.9968 9.04302C16.9992 9.76782 16.4112 10.3534 15.6864 10.3534Z" fill="currentColor"/>
<path d="M18.1391 4.58154H16.8503V6.16794C16.8503 6.39594 17.0351 6.58074 17.2631 6.58074H18.1391C18.3671 6.58074 18.5519 6.39594 18.5519 6.16794V4.99434C18.5543 4.76634 18.3671 4.58154 18.1391 4.58154Z" fill="currentColor"/>
<path d="M1.584 7.81653L2.0808 7.37733C2.1528 7.41573 2.244 7.40853 2.3088 7.35093C2.3928 7.27653 2.4 7.14693 2.3256 7.06293C2.2512 6.97893 2.1216 6.97173 2.0376 7.04613C1.9728 7.10373 1.9536 7.19253 1.9824 7.26933L1.4352 7.75173L1.6056 7.01973C1.6872 7.00773 1.7568 6.95013 1.776 6.86613C1.8024 6.75573 1.7328 6.64773 1.6248 6.62133C1.5144 6.59493 1.4064 6.66453 1.38 6.77253C1.3608 6.85653 1.3968 6.94053 1.464 6.98613L1.2912 7.73013L0.3 7.43973L0 8.44533L1.8984 9.00453L1.9848 8.71173L2.304 8.78613L2.484 8.08053L1.584 7.81653ZM0.5112 8.25813C0.3816 8.25813 0.276 8.15253 0.276 8.02293C0.276 7.89333 0.3816 7.78773 0.5112 7.78773C0.6408 7.78773 0.7464 7.89333 0.7464 8.02293C0.7464 8.15253 0.6408 8.25813 0.5112 8.25813Z" fill="currentColor"/>
<path d="M23.1575 11.834H6.53515C6.06955 11.834 5.69275 12.2108 5.69275 12.6764V13.4612C5.69275 13.9268 6.06955 14.3036 6.53515 14.3036H8.04955C7.48315 14.894 7.13275 15.6908 7.13275 16.5716C7.13275 18.3788 8.60395 19.85 10.4111 19.85C12.2183 19.85 13.6895 18.3788 13.6895 16.5716C13.6895 15.6908 13.3391 14.8916 12.7727 14.3036H16.9247C16.3583 14.894 16.0079 15.6908 16.0079 16.5716C16.0079 18.3788 17.4791 19.85 19.2863 19.85C21.0935 19.85 22.5647 18.3788 22.5647 16.5716C22.5647 15.6908 22.2143 14.8916 21.6479 14.3036H23.1623C23.6279 14.3036 24.0047 13.9268 24.0047 13.4612V12.6764C23.9999 12.2108 23.6231 11.834 23.1575 11.834ZM6.92155 13.4924C6.92155 13.658 6.78715 13.7948 6.61915 13.7948C6.45115 13.7948 6.31675 13.6604 6.31675 13.4924V12.6236C6.31675 12.458 6.45115 12.3212 6.61915 12.3212C6.78715 12.3212 6.92155 12.4556 6.92155 12.6236V13.4924ZM10.4087 19.4204C8.83675 19.4204 7.55755 18.1412 7.55755 16.5692C7.55755 15.7172 7.93435 14.954 8.52955 14.4308L8.87515 17.4452H11.9399L12.2855 14.4308C12.8807 14.954 13.2575 15.7172 13.2575 16.5692C13.2599 18.1412 11.9807 19.4204 10.4087 19.4204ZM19.2839 19.4204C17.7119 19.4204 16.4327 18.1412 16.4327 16.5692C16.4327 15.7172 16.8095 14.954 17.4047 14.4308L17.7503 17.4452H20.8151L21.1607 14.4308C21.7559 14.954 22.1327 15.7172 22.1327 16.5692C22.1351 18.1412 20.8559 19.4204 19.2839 19.4204ZM23.3783 13.5164C23.3783 13.6796 23.2463 13.8116 23.0831 13.8116C22.9199 13.8116 22.7879 13.6796 22.7879 13.5164V12.6188C22.7879 12.4556 22.9199 12.3236 23.0831 12.3236C23.2463 12.3236 23.3783 12.4556 23.3783 12.6188V13.5164Z" fill="currentColor"/>
</g>
<defs>
<clipPath id="clip0_1430_2001">
<rect width="24" height="15.528" fill="currentColor" transform="translate(0 4.31982)"/>
</clipPath>
</defs>
</svg>
