<svg width="24" height="24" viewBox="0 0 24 24" fill="currentColor" xmlns="http://www.w3.org/2000/svg">
<path d="M5.18444 0C5.15564 0.0096 5.13164 0.0216 5.11004 0.0384C5.09564 0.0384 5.07884 0.0408 5.06444 0.0432C4.90844 0.048 4.75964 0.1824 4.81004 0.3864L8.77004 15.3192C8.73884 15.3768 8.71964 15.4392 8.71244 15.5064C8.69564 15.7584 8.88524 15.9744 9.13724 15.9912L9.18764 15.996L9.22844 15.9984L9.29324 16.0032C9.29324 17.052 9.29564 17.988 9.29564 18.7296L9.23324 18.7992C9.22364 18.8112 9.21404 18.828 9.20444 18.8472L9.19244 18.84C9.15404 18.8352 9.11564 18.9 9.10364 18.9864C9.09404 19.0704 9.11804 19.1424 9.15644 19.1472L9.17564 19.1496C9.17804 19.1712 9.18284 19.1928 9.19004 19.2072L9.23804 19.2936C9.24524 19.3032 9.25484 19.3104 9.26444 19.3128H9.26684L9.30044 19.3176C9.30044 19.9728 8.80124 23.5344 8.80124 23.5944C8.79884 23.8128 8.85884 23.9136 8.92604 23.9136V23.916L10.1452 23.9976C10.2364 24.0048 10.282 23.9904 10.3348 23.6664C10.342 23.6256 10.882 20.1648 10.9516 19.656L11.614 19.6608C11.6524 20.8416 12.0868 21.7608 13.3948 21.1368C13.438 19.9776 14.6788 19.14 14.6788 19.14L15.6148 19.2456L15.6244 19.1136L15.4372 15.0216L14.4844 16.1424C14.4844 16.1424 14.4484 16.1928 14.3812 16.2696C14.6812 15.2688 15.6916 14.5848 15.6916 14.5848L16.7068 14.7L16.7164 14.5584L16.5268 10.3776C16.6276 10.2984 16.6924 10.2528 16.6924 10.2528L17.7412 10.3704L17.7508 10.224L17.5468 5.7168C17.758 5.5296 17.914 5.424 17.914 5.424L19.042 5.5536L19.0516 5.3952L18.826 0.4704L17.6788 1.8216C17.6788 1.8216 16.6516 3.3384 14.9524 2.2464C14.7508 2.5392 14.5156 3.2784 14.3668 4.128L13.09 3.8328C13.1716 3.228 13.2196 2.8752 13.2196 2.8752L13.2124 2.8728C13.2388 2.8728 13.2604 2.856 13.2628 2.8296L13.3468 1.5624C13.3492 1.536 13.3276 1.512 13.3012 1.512L13.2628 1.5096H13.246L13.4884 1.3008C13.5988 1.212 13.6756 1.08 13.6852 0.9288C13.6972 0.7368 13.606 0.5664 13.4596 0.4656L5.18444 0ZM12.3628 14.9472C12.3604 15.7536 12.5116 16.4784 12.9388 16.8C12.7204 16.7568 12.4828 16.6656 12.2236 16.5C12.034 16.7784 11.806 17.532 11.6908 18.3576L11.1436 18.2304C11.2684 17.3112 11.422 16.1736 11.59 14.94L12.3628 14.9472ZM13.4428 11.9376C13.3108 11.8848 13.174 11.8128 13.03 11.7216C12.8428 11.9952 12.622 12.6936 12.49 13.4904L11.8084 13.332C11.8708 12.8616 11.9356 12.3864 12.0004 11.9088C12.5044 11.7672 12.946 11.4744 13.2724 11.0784C13.2964 11.3952 13.3516 11.6904 13.4428 11.9376ZM14.2156 5.6232C14.1916 6.4032 14.2852 7.1376 14.5852 7.596C14.386 7.5384 14.1724 7.4448 13.9444 7.2984C13.8196 7.4808 13.6804 7.8504 13.5604 8.3088C13.3444 7.8984 13.0204 7.5504 12.622 7.3104C12.7036 6.7008 12.7804 6.1296 12.85 5.6112L14.2156 5.6232ZM11.446 2.7552L11.2108 4.476C11.2084 4.4784 11.2036 4.476 11.2012 4.4808L11.134 4.5528C11.1244 4.5648 11.1148 4.5816 11.1076 4.6008L11.0884 4.5984C11.05 4.5936 11.0092 4.6584 10.9996 4.7424C10.99 4.8264 11.014 4.8984 11.0524 4.9032L11.0692 4.9056C11.0716 4.9248 11.0764 4.9464 11.086 4.9608L11.1316 5.0448L10.8772 6.912C10.8124 6.9096 10.75 6.9072 10.6876 6.912L10.6852 2.7L11.446 2.7552ZM11.9044 1.0824L11.4724 1.3872L10.9492 1.3512L11.2396 1.1016C11.2636 1.0824 11.2828 1.0632 11.302 1.0392L11.9044 1.0824ZM5.59484 0.6576L9.94124 0.9504L9.50684 1.2552L9.38444 1.248C9.35804 1.2456 9.33404 1.2672 9.33404 1.2936L9.24764 2.5608C9.24524 2.5872 9.26444 2.6088 9.29084 2.6112H9.28844C9.28844 2.6112 9.29084 4.6848 9.29324 7.416C8.72204 7.8432 8.33324 8.5056 8.28044 9.2736C8.22044 10.164 8.63084 10.9752 9.29564 11.472C9.29564 12.6792 9.29804 13.8888 9.29804 15.0096L5.48924 0.6528L5.59484 0.6576ZM12.6316 0.468L11.2732 0.3768L12.6316 0.468ZM10.6948 0.3384L6.23564 0.0384L5.83964 0.012L5.70524 0.0048" fill="currentColor"/>
</svg>
