<svg width="25" height="24" viewBox="0 0 25 24" fill="currentColor" xmlns="http://www.w3.org/2000/svg">
<g clip-path="url(#clip0_1417_1192)">
<path d="M15.3912 19.5072C15.204 19.4424 15.0048 19.4016 14.796 19.4016C13.7592 19.4016 12.9168 20.244 12.9168 21.2856C12.9168 21.4848 12.9552 21.6744 13.0128 21.8544C13.2552 22.6176 13.9584 23.1744 14.7936 23.1744C15.8304 23.1744 16.6704 22.3272 16.6704 21.2856C16.6704 20.4528 16.1328 19.7568 15.3912 19.5072ZM14.7936 22.1568C14.3136 22.1568 13.9248 21.7656 13.9248 21.2856C13.9248 20.8008 14.316 20.412 14.7936 20.412C15.2736 20.412 15.6624 20.8032 15.6624 21.2856C15.6648 21.768 15.2736 22.1568 14.7936 22.1568Z" fill="currentColor"/>
<path d="M10.0752 5.43841C10.0752 5.43841 10.6752 9.12241 10.788 9.56881C10.8984 10.0152 11.0856 10.944 13.4664 10.944C15.8472 10.944 23.2008 10.8696 23.2008 10.8696C23.2008 10.8696 22.5072 6.55201 19.3488 4.93921C18.8184 5.45041 18.4848 5.89681 17.6664 6.19441C16.8432 6.49441 15.4248 6.19441 13.6032 5.95201C11.7816 5.70961 10.0752 5.43841 10.0752 5.43841Z" fill="currentColor"/>
<path d="M6.21359 3.97442C6.21359 3.97442 15.6024 5.52722 16.5984 5.48882C17.1744 5.46722 17.4816 5.38562 17.7792 5.16242C18.0768 4.93922 18.5808 4.45202 18.5808 4.45202C18.5808 4.45202 14.0112 3.79202 11.9232 3.52802C9.39839 3.20882 6.54959 2.86322 6.74399 2.87282L6.21359 3.97442Z" fill="currentColor"/>
<path d="M4.248 11.0832C4.0128 7.0512 4.908 5.028 5.0256 4.7808L5.0352 4.7592L3.3984 4.3512L2.7048 5.652L0.899998 6.804C0.899998 6.804 0.698399 7.7064 0.587999 8.46C0.477599 9.2136 1.536 14.0928 1.536 14.0928L3.288 14.544C3.408 14.9832 3.516 15.3024 3.5712 15.4872C3.7296 16.0272 4.0728 16.1376 4.38 16.1856C4.6944 16.2336 5.1888 16.1568 5.1888 16.1568C5.1888 16.1568 4.4136 13.9464 4.248 11.0832Z" fill="currentColor"/>
<path d="M3.52801 0.998405C3.42001 0.950405 3.29761 0.948005 3.18721 0.991205C3.07681 1.03441 2.98801 1.11841 2.94001 1.22641L1.49041 4.50001L0.218405 5.26321C0.115205 5.32561 0.043205 5.42161 0.014405 5.53681C-0.014395 5.65201 0.00240505 5.77201 0.064805 5.87521C0.144005 6.00961 0.292805 6.09121 0.448805 6.09121C0.530405 6.09121 0.609605 6.06961 0.679205 6.02641L2.19601 5.11681L3.75841 1.58401C3.85441 1.36321 3.75121 1.09921 3.52801 0.998405Z" fill="currentColor"/>
<path d="M22.6248 18.0168C24.0384 17.868 24 15.4512 24 15.4512L23.2944 11.6592C23.2944 11.6592 14.7048 11.6952 12.4728 11.6952C10.2408 11.6952 10.0176 10.6536 9.72001 9.72482C9.42241 8.79602 9.09601 5.53202 9.09601 5.53202C9.09601 5.53202 6.84721 5.13122 5.7672 4.90802C4.8384 7.80962 4.7736 10.0584 5.4048 13.9992C5.59921 15.216 5.952 16.3176 6.3432 17.256L4.8768 17.1L4.752 16.8L3.4248 17.1672L3.5256 17.532L3.8424 17.448L4.3824 17.5392L6.612 17.8608C6.7824 18.2256 6.95761 18.5616 7.12561 18.864L5.088 18.8688L5.0832 20.8752C5.3592 21.0096 5.5392 21.2856 5.5464 21.5976H5.7504V22.1088H6.4584V21.5976H6.6984L6.7032 19.6176H7.572C7.7304 19.8696 7.8744 20.0784 7.992 20.2416C7.524 20.292 7.1568 20.6832 7.1568 21.168C7.1568 21.2664 7.17601 21.36 7.20481 21.4512C7.32481 21.8304 7.6752 22.1088 8.0904 22.1088C8.4144 22.1088 8.6976 21.9432 8.8656 21.6912H11.616V20.6592H12.2856C12.2856 20.6592 12.6576 19.4328 13.7736 19.0968C14.5752 18.8568 16.6752 18.6048 18.6624 18.4008V20.6184H17.3544V21.7488H23.256V20.616H21.948V18.084C22.2264 18.0576 22.4568 18.0336 22.6248 18.0168ZM8.0904 21.6024C7.8528 21.6024 7.6584 21.408 7.6584 21.168C7.6584 21.072 7.6896 20.9856 7.7424 20.9136C7.8216 20.8056 7.9464 20.7336 8.0904 20.7336C8.328 20.7336 8.5224 20.928 8.5224 21.168C8.5224 21.228 8.51041 21.2856 8.4888 21.336C8.42401 21.492 8.268 21.6024 8.0904 21.6024Z" fill="currentColor"/>
<path d="M23.6616 22.2432H16.9488V23.0208L16.9536 23.1696L17.1264 23.1744H23.4816L23.6664 23.1792L23.6616 23.0208V22.2432Z" fill="currentColor"/>
<path d="M4.91281 21.1464C4.86241 21.1296 4.80961 21.12 4.75201 21.12C4.47601 21.12 4.25281 21.3432 4.25281 21.6216C4.25281 21.6744 4.26241 21.7248 4.27921 21.7728C4.34401 21.9768 4.53121 22.1256 4.75441 22.1256C5.03041 22.1256 5.25361 21.9 5.25361 21.6216C5.25361 21.3984 5.10961 21.2136 4.91281 21.1464ZM4.75201 21.8544C4.62481 21.8544 4.52161 21.7512 4.52161 21.6216C4.52161 21.492 4.62481 21.3888 4.75201 21.3888C4.87921 21.3888 4.98241 21.492 4.98241 21.6216C4.98481 21.7488 4.88161 21.8544 4.75201 21.8544Z" fill="currentColor"/>
</g>
<defs>
<clipPath id="clip0_1417_1192">
<rect width="24" height="22.2192" fill="currentColor" transform="translate(0 0.960022)"/>
</clipPath>
</defs>
</svg>
