<svg width="24" height="24" viewBox="0 0 24 24" fill="currentColor" xmlns="http://www.w3.org/2000/svg">
<g clip-path="url(#clip0_1413_2772)">
<path d="M1.82158 20.3398C1.46398 20.3398 1.17358 20.6302 1.17358 20.9878C1.17358 21.3454 1.46398 21.6358 1.82158 21.6358C2.17918 21.6358 2.46958 21.3454 2.46958 20.9878C2.46958 20.6302 2.18158 20.3398 1.82158 20.3398ZM1.81438 21.2542C1.66318 21.2542 1.54078 21.1318 1.54078 20.9806C1.54078 20.8294 1.66318 20.707 1.81438 20.707C1.96558 20.707 2.08798 20.8294 2.08798 20.9806C2.08798 21.1318 1.96558 21.2542 1.81438 21.2542Z" fill="currentColor"/>
<path d="M24 21.1294C24 21.0622 23.9904 20.1694 23.9904 20.1694L7.22637 20.2918C7.22637 20.2918 7.15916 12.187 7.15916 11.3638C7.15916 10.543 7.02237 10.2094 6.74876 9.98861C6.56636 9.84221 6.33596 9.77021 5.58237 9.59261C4.82636 9.41501 3.57357 9.49901 3.07436 9.58781C2.57517 9.67661 2.37596 9.72221 2.18636 9.92141C1.99676 10.1206 1.40876 12.0094 1.29836 12.475C1.18796 12.9406 1.09916 14.8174 1.09916 14.8174L0.674365 14.8078C0.674365 14.8078 0.640765 11.1886 0.619165 10.7998C0.597565 10.411 0.619165 8.50061 0.674365 7.71341C0.729565 6.92621 1.09677 6.39101 1.09677 6.39101C1.09677 6.39101 1.52877 6.00221 1.86237 5.66861C2.19597 5.33501 2.14076 4.97021 2.03996 4.28141C1.94156 3.59261 1.76397 3.12701 1.50717 2.63981C1.25277 2.15021 0.863965 2.53901 0.664765 2.68301C0.465565 2.82701 0.499165 3.26141 0.499165 3.26141C0.499165 3.26141 0.220765 4.33661 0.153565 4.72541C0.086365 5.11421 0.331165 6.13421 0.331165 6.13421C0.331165 6.13421 0.242365 6.53501 0.196765 6.74381C0.151165 6.95501 0.086365 7.26461 0.031165 7.56461C-0.024035 7.86461 0.00956497 9.14141 0.019165 9.26381C0.031165 9.38861 0.031165 14.8078 0.031165 14.8078L0.230365 16.1302C0.230365 16.1302 0.119965 19.2718 0.095965 19.5598C0.074365 19.8478 0.129565 20.4262 0.239965 20.659C0.304765 20.7958 0.539965 20.9134 0.724765 20.9878C0.727165 20.3854 1.21676 19.8958 1.81916 19.8958C2.42396 19.8958 2.91356 20.3878 2.91356 20.9902C2.91356 21.1198 2.88716 21.2422 2.84636 21.3574C2.89196 21.3958 2.93277 21.403 2.93277 21.403L6.73436 21.4246L6.94556 21.0862L16.716 21.0526L16.8936 21.2182C16.8936 21.2182 19.5216 21.2038 21.5832 21.1822C21.6336 21.4438 21.8616 21.643 22.14 21.643C22.4232 21.643 22.6536 21.4366 22.7016 21.1678C23.4696 21.1582 24 21.1462 24 21.1294ZM22.1472 21.307C22.056 21.307 21.9768 21.2542 21.9384 21.1798C22.0824 21.1774 22.2264 21.1774 22.3608 21.175C22.3224 21.2542 22.2408 21.307 22.1472 21.307Z" fill="currentColor"/>
</g>
<defs>
<clipPath id="clip0_1413_2772">
<rect width="24" height="19.2456" fill="currentColor" transform="translate(0 2.3999)"/>
</clipPath>
</defs>
</svg>
