<svg width="24" height="24" viewBox="0 0 24 24" fill="currentColor" xmlns="http://www.w3.org/2000/svg">
<g clip-path="url(#clip0_1413_2526)">
<path d="M20.064 22.9104C20.3184 22.9104 20.5224 23.1168 20.5224 23.3688C20.5224 23.6232 20.316 23.8272 20.064 23.8272C19.8096 23.8272 19.6056 23.6208 19.6056 23.3688C19.6056 23.1144 19.812 22.9104 20.064 22.9104ZM19.8768 23.364C19.8768 23.4696 19.9632 23.5584 20.0712 23.5584C20.1768 23.5584 20.2632 23.472 20.2632 23.364C20.2632 23.2584 20.1768 23.172 20.0712 23.172C19.9632 23.172 19.8768 23.2584 19.8768 23.364Z" fill="currentColor"/>
<path d="M3.91678 22.1855C4.41838 22.1855 4.82398 22.5911 4.82398 23.0927C4.82398 23.5943 4.41838 23.9999 3.91678 23.9999C3.41518 23.9999 3.00958 23.5943 3.00958 23.0927C3.00958 22.5911 3.41518 22.1855 3.91678 22.1855ZM3.54478 23.0831C3.54478 23.2943 3.71518 23.4647 3.92638 23.4647C4.13758 23.4647 4.30798 23.2943 4.30798 23.0831C4.30798 22.8719 4.13758 22.7015 3.92638 22.7015C3.71518 22.7015 3.54478 22.8719 3.54478 23.0831Z" fill="currentColor"/>
<path d="M15.9168 11.7983H11.556V9.30229H10.8816V6.05029H10.1664V12.4487H10.8624H10.8816H11.556V12.4367H15.9624C16.0872 12.4367 18.6864 12.4055 18.6864 12.2783V12.1079C18.6864 11.9183 16.0416 11.7983 15.9168 11.7983Z" fill="currentColor"/>
<path d="M22.4736 21.7656L22.464 21.0936H8.87039V16.3992H9.31199L9.18959 0H8.48399V0.4536H7.49279V6.0888H6.97199L7.51439 7.6728V8.304H7.78559V12.2952C7.78559 12.2952 6.45359 11.9016 5.68319 11.9808C4.91039 12.06 3.87119 12.1152 3.36719 13.356C2.86559 14.5944 2.98799 18.6624 2.98799 18.6624L2.33519 18.672C2.33279 17.9064 2.32079 13.9776 2.30159 13.6104C2.27759 13.2024 2.39519 13.0632 2.57039 12.6312C2.74559 12.1992 2.92079 12.024 3.02639 11.8152C3.13199 11.604 3.20159 11.4192 3.24719 11.0208C3.29279 10.6248 3.28319 10.3896 3.24719 10.1448C3.21119 9.9 2.97839 9.8064 2.88479 9.7008C2.79119 9.5952 2.55839 9.456 2.45279 9.456C2.34719 9.456 2.21999 9.456 2.12639 9.6072C2.03279 9.7608 2.17199 10.6128 2.17199 11.0784C2.17199 11.544 2.14799 11.8944 2.03279 12.2208C1.91519 12.5472 1.88159 12.9216 1.88159 12.9216L1.83599 18.828C1.79999 18.8688 1.76639 18.9144 1.74959 18.9792C1.66079 19.3056 1.67279 19.4136 1.79519 19.5168C1.91759 19.62 2.54399 19.692 2.54399 19.692L2.16239 20.9784L2.23919 22.8648C2.23919 22.8648 2.19359 23.256 2.41919 23.436C2.47919 23.484 2.54159 23.5176 2.60399 23.544C2.55599 23.4024 2.52959 23.2536 2.52959 23.0976C2.52959 22.332 3.15359 21.708 3.91919 21.708C4.62959 21.708 5.21519 22.2432 5.29919 22.932L5.57039 21.9192L18.3936 22.1232L18.9768 22.2408L19.116 22.2168L19.3944 22.7184C19.5408 22.5696 19.7352 22.4712 19.9536 22.4448L19.884 22.2144L22.4736 21.7656ZM7.95839 6.2712V6.108H7.84079V2.1888H8.28479L8.35199 6.2736H7.95839V6.2712Z" fill="currentColor"/>
</g>
<defs>
<clipPath id="clip0_1413_2526">
<rect width="20.7816" height="24" fill="currentColor" transform="translate(1.69202)"/>
</clipPath>
</defs>
</svg>
