<svg width="24" height="24" viewBox="0 0 24 24" fill="currentColor" xmlns="http://www.w3.org/2000/svg">
<g clip-path="url(#clip0_1532_1097)">
<path d="M11.6159 18.6069C11.3183 18.6069 11.0687 18.8229 11.0159 19.1061C11.0087 19.1421 11.0063 19.1805 11.0063 19.2189C11.0063 19.5573 11.2799 19.8333 11.6159 19.8333C11.9519 19.8333 12.2255 19.5573 12.2255 19.2189C12.2255 19.1109 12.1967 19.0101 12.1487 18.9213C12.0431 18.7341 11.8439 18.6069 11.6159 18.6069ZM11.6159 19.4877C11.4695 19.4877 11.3495 19.3677 11.3495 19.2189C11.3495 19.1781 11.3591 19.1421 11.3735 19.1061C11.4167 19.0149 11.5079 18.9501 11.6159 18.9501C11.6495 18.9501 11.6807 18.9573 11.7119 18.9693C11.8127 19.0077 11.8847 19.1037 11.8847 19.2189C11.8823 19.3677 11.7623 19.4877 11.6159 19.4877Z" fill="currentColor"/>
<path d="M15.6672 18.6069C15.3696 18.6069 15.12 18.8229 15.0672 19.1061C15.06 19.1421 15.0576 19.1805 15.0576 19.2189C15.0576 19.5573 15.3312 19.8333 15.6672 19.8333C16.0032 19.8333 16.2768 19.5573 16.2768 19.2189C16.2768 19.1109 16.248 19.0101 16.2 18.9213C16.0944 18.7341 15.8952 18.6069 15.6672 18.6069ZM15.6672 19.4877C15.5208 19.4877 15.4008 19.3677 15.4008 19.2189C15.4008 19.1781 15.4104 19.1421 15.4248 19.1061C15.468 19.0149 15.5592 18.9501 15.6672 18.9501C15.7008 18.9501 15.732 18.9573 15.7632 18.9693C15.864 19.0077 15.936 19.1037 15.936 19.2189C15.9336 19.3677 15.8136 19.4877 15.6672 19.4877Z" fill="currentColor"/>
<path d="M16.8454 16.5357C16.8886 16.4037 16.8166 16.2597 16.6822 16.2165C16.6606 16.2093 15.2494 15.7485 14.1814 15.3981C14.1454 14.8269 13.6726 14.3757 13.0918 14.3781C12.7486 14.3781 12.4414 14.5389 12.2422 14.7885C11.995 14.7309 11.7454 14.6877 11.5318 14.6757C11.2534 14.6589 10.9486 14.7309 10.459 14.9037C10.4374 14.8893 10.4158 14.8797 10.3894 14.8725C9.439 14.6205 7.855 14.1837 7.6534 14.0877C7.603 14.0637 7.4422 13.9749 7.4182 13.8117C7.4014 13.6917 7.4494 13.4277 7.9318 12.9957C9.127 13.1133 9.20621 13.3533 9.41261 13.6893C9.66461 14.0973 9.9454 14.0973 10.2286 14.0661C10.5118 14.0349 10.7782 14.0829 11.1862 14.2221C11.4478 14.3133 11.8102 14.3133 12.2806 14.2965C12.511 14.1357 12.7918 14.0421 13.0942 14.0421C13.7734 14.0421 14.3422 14.5197 14.4862 15.1557C14.5942 15.1941 14.7574 15.2493 15.0022 15.3213C14.8606 14.8653 14.4838 14.1909 14.107 14.0181C13.7302 13.8453 11.767 12.9045 10.591 12.5109C9.36701 12.1965 8.03261 12.1821 7.70141 12.1965C7.3726 12.2133 7.2766 12.5253 6.979 12.9333C7.0822 12.9381 7.1782 12.9405 7.2718 12.9453C6.9982 13.2741 6.8758 13.5861 6.9166 13.8765C6.955 14.1573 7.14941 14.4069 7.4374 14.5413C7.6606 14.6469 8.8942 14.9901 9.6622 15.1965C9.5734 15.2301 9.4798 15.2661 9.3814 15.3045L9.2782 15.3453C8.8174 15.0525 8.2702 14.8797 7.6798 14.8797H7.471C7.0294 14.8797 6.6694 15.2373 6.6694 15.6813V16.1061C6.16781 16.0821 5.9326 15.9453 5.9326 15.1629V13.4901C5.9326 12.8325 5.6422 12.3645 5.2798 11.9229L5.4022 11.7717L2.6734 8.32771H3.5182C3.5806 8.45971 3.715 8.55331 3.8734 8.55331C4.0918 8.55331 4.267 8.37571 4.267 8.15971C4.267 7.94131 4.0894 7.76611 3.8734 7.76611C3.7174 7.76611 3.583 7.85971 3.5182 7.99171H2.4046L0.976605 6.18691L2.4118 4.75171C2.5102 4.65331 2.5102 4.49251 2.4118 4.39411C2.3134 4.29571 2.1526 4.29571 2.0542 4.39411L0.499005 5.95171C0.475005 5.96131 0.453405 5.97331 0.434205 5.99011L0.115005 6.24211C-0.0169952 6.34531 -0.0385952 6.53731 0.0670048 6.66691L0.319005 6.98611L0.00700482 7.50931C0.00700482 7.50931 0.477405 8.21491 2.0566 9.74611C3.235 10.8909 4.2958 11.7309 4.7566 12.0837C5.131 12.5181 5.42861 12.9237 5.42861 13.4901V15.1629C5.42861 16.3821 6.0502 16.5789 6.6718 16.6101V17.4165C6.6718 18.6165 7.6438 19.5885 8.8438 19.5885H9.31421C10.0654 19.5885 10.675 18.9789 10.675 18.2277V17.8701C10.675 17.0205 10.3174 16.2525 9.7486 15.7077C10.7278 15.3309 11.191 15.1581 11.5078 15.1773C11.659 15.1845 11.839 15.2157 12.0286 15.2541C12.0142 15.3237 12.007 15.3933 12.007 15.4677C12.007 15.8517 12.2062 16.1877 12.5086 16.3821C12.7198 16.1853 13.003 16.0629 13.315 16.0629C13.5238 16.0629 13.7206 16.1157 13.8934 16.2117C13.9798 16.1205 14.047 16.0149 14.0998 15.8997C15.1366 16.2405 16.447 16.6677 16.531 16.6965C16.5574 16.7061 16.5838 16.7085 16.6102 16.7085C16.7134 16.7085 16.8118 16.6413 16.8454 16.5357Z" fill="currentColor"/>
<path d="M15.506 18.2828V17.138L14.3732 16.7804C14.4452 16.9316 14.486 17.102 14.486 17.2796C14.486 17.93 13.958 18.458 13.3076 18.458C12.6572 18.458 12.1292 17.93 12.1292 17.2796C12.1292 17.0924 12.1748 16.9148 12.2516 16.7588L11.9828 16.7612C11.8124 16.7612 11.6732 16.9004 11.6708 17.0732L11.6636 18.2732C11.9852 18.2924 12.278 18.4724 12.4388 18.7556C12.518 18.8972 12.5588 19.058 12.5588 19.2188C12.5588 19.3148 12.5444 19.406 12.518 19.4948H14.7548C14.7284 19.4084 14.714 19.3148 14.714 19.2188C14.714 19.1636 14.7188 19.106 14.7308 19.046C14.8076 18.6476 15.122 18.3476 15.506 18.2828Z" fill="currentColor"/>
<path d="M23.7237 15.727H23.1477C22.9941 15.727 22.8717 15.8518 22.8717 16.003V16.2694L21.5061 16.1014L21.5085 15.9934C21.5157 15.7798 21.3573 15.595 21.1437 15.571L18.4725 15.2518C18.3261 15.235 18.1821 15.295 18.0933 15.4126L16.7541 17.179C16.6965 17.2534 16.6677 17.347 16.6701 17.4406L16.7157 19.087C16.7229 19.3174 16.9173 19.4998 17.1477 19.4878L21.0237 19.3054C21.2397 19.2958 21.4101 19.1206 21.4173 18.9046L21.4941 16.3534L22.8669 16.5238V16.9318C22.8669 17.0854 22.9917 17.2078 23.1429 17.2078H23.7189C23.8725 17.2078 23.9949 17.083 23.9949 16.9318V16.003C23.9997 15.8494 23.8749 15.727 23.7237 15.727Z" fill="currentColor"/>
<path d="M22.8696 19.0027C22.8696 19.0723 22.9272 19.1299 22.9968 19.1299C23.0664 19.1299 23.124 19.0723 23.124 19.0027V17.6299H22.872V19.0027H22.8696Z" fill="currentColor"/>
<path d="M23.3086 19.0027C23.3086 19.0723 23.3662 19.1299 23.4358 19.1299C23.5054 19.1299 23.563 19.0723 23.563 19.0027V17.6299H23.311V19.0027H23.3086Z" fill="currentColor"/>
<path d="M23.748 19.0027C23.748 19.0723 23.8056 19.1299 23.8752 19.1299C23.9448 19.1299 24.0024 19.0723 24.0024 19.0027V17.6299H23.7504V19.0027H23.748Z" fill="currentColor"/>
</g>
<defs>
<clipPath id="clip0_1532_1097">
<rect width="24" height="15.5136" fill="currentColor" transform="translate(0 4.31982)"/>
</clipPath>
</defs>
</svg>
