<svg width="24" height="24" viewBox="0 0 24 24" fill="currentColor" xmlns="http://www.w3.org/2000/svg">
<g clip-path="url(#clip0_1437_2622)">
<path d="M7.91529 11.4863C6.26169 11.4863 4.88649 12.6815 4.59369 14.2559C4.55769 14.4575 4.53369 14.6663 4.53369 14.8775C4.53369 16.7543 6.05289 18.2783 7.91289 18.2783C9.77769 18.2783 11.2921 16.7519 11.2921 14.8775C11.2921 14.2751 11.1337 13.7159 10.8625 13.2239C10.2841 12.1895 9.18249 11.4863 7.91529 11.4863ZM7.91529 16.3655C7.10169 16.3655 6.43689 15.7007 6.43689 14.8775C6.43689 14.6543 6.48729 14.4479 6.57609 14.2559C6.81129 13.7471 7.32249 13.3919 7.91529 13.3919C8.10249 13.3919 8.27769 13.4303 8.44329 13.4927C8.99769 13.7063 9.39369 14.2391 9.39369 14.8775C9.39609 15.7007 8.73129 16.3655 7.91529 16.3655Z" fill="currentColor"/>
<path d="M23.808 15.1223C23.676 14.8871 23.484 14.6903 23.2512 14.5559L23.4696 14.0591H22.6152L22.572 14.3543C22.5456 14.3519 22.5192 14.3495 22.4928 14.3495C21.756 14.3495 21.144 14.8823 21.0144 15.5831C20.9976 15.6719 20.988 15.7655 20.988 15.8591C20.988 16.6943 21.6648 17.3735 22.4928 17.3735C23.3232 17.3735 23.9976 16.6943 23.9976 15.8591C24 15.5903 23.9304 15.3407 23.808 15.1223ZM22.4952 16.5215C22.1328 16.5215 21.8376 16.2263 21.8376 15.8591C21.8376 15.7607 21.8592 15.6671 21.9 15.5831C21.9984 15.3695 22.2072 15.2159 22.4544 15.2015L22.3656 15.8255C22.3536 15.9023 22.404 15.9743 22.4784 15.9959C22.5504 16.0151 22.6272 15.9791 22.656 15.9095L22.9056 15.3455C23.0568 15.4655 23.1552 15.6503 23.1552 15.8615C23.1528 16.2263 22.8576 16.5215 22.4952 16.5215Z" fill="currentColor"/>
<path d="M19.7833 15.4321C19.4545 15.4321 19.1809 15.6697 19.1209 15.9841C19.1137 16.0249 19.1089 16.0657 19.1089 16.1089C19.1089 16.4833 19.4113 16.7857 19.7833 16.7857C20.1553 16.7857 20.4577 16.4809 20.4577 16.1089C20.4577 15.9889 20.4265 15.8785 20.3713 15.7801C20.2561 15.5713 20.0353 15.4321 19.7833 15.4321ZM19.7833 16.4017C19.6225 16.4017 19.4881 16.2697 19.4881 16.1065C19.4881 16.0633 19.4977 16.0201 19.5145 15.9817C19.5601 15.8809 19.6633 15.8089 19.7809 15.8089C19.8169 15.8089 19.8529 15.8161 19.8865 15.8281C19.9969 15.8713 20.0761 15.9769 20.0761 16.1041C20.0785 16.2697 19.9465 16.4017 19.7833 16.4017Z" fill="currentColor"/>
<path d="M8.75045 9.76555C8.89205 9.76555 9.00725 9.65035 9.00725 9.50875C9.00725 9.36715 8.89205 9.25195 8.75045 9.25195C8.60885 9.25195 8.49365 9.36715 8.49365 9.50875C8.49365 9.65275 8.60885 9.76555 8.75045 9.76555Z" fill="currentColor"/>
<path d="M19.7832 15.1247C19.7928 15.1247 19.8048 15.1271 19.8144 15.1271V14.7383H18.8376L19.2504 14.4743C19.4304 14.3591 19.4856 14.1191 19.3704 13.9391C19.2552 13.7591 19.0152 13.7039 18.8352 13.8191L17.3472 14.7383H16.428L16.1688 13.7999H13.608L13.3992 14.7383H11.988V16.5287H18.9024C18.84 16.4015 18.8064 16.2575 18.8064 16.1063C18.8064 16.0487 18.8112 15.9911 18.8232 15.9263C18.9072 15.4631 19.3128 15.1247 19.7832 15.1247ZM19.0416 13.9703C19.1232 13.9703 19.188 14.0351 19.188 14.1167C19.188 14.1983 19.1232 14.2631 19.0416 14.2631C18.96 14.2631 18.8952 14.1983 18.8952 14.1167C18.8952 14.0375 18.96 13.9703 19.0416 13.9703Z" fill="currentColor"/>
<path d="M4.19035 7.69208H5.07835V7.46648H5.19595V7.37048C5.19595 7.28888 5.12875 7.22168 5.04715 7.22168H4.22155C4.13995 7.22168 4.07275 7.28888 4.07275 7.37048V7.46648H4.19035V7.69208Z" fill="currentColor"/>
<path d="M22.6249 13.4998V13.8718H23.6161V12.4438H14.4049L11.1577 12.9694C11.1697 12.9886 11.1817 13.0078 11.1937 13.027C11.3593 13.3222 11.4841 13.639 11.5657 13.9654L14.5201 13.4998H22.6249Z" fill="currentColor"/>
<path d="M5.9976 11.6352L5.7936 11.2752V8.25356C5.7936 7.98956 5.58 7.77836 5.3184 7.77836H3.8232L2.9424 6.21596L3.2352 5.87036C3.312 5.78156 3.3 5.64716 3.2112 5.57036C3.1224 5.49356 2.988 5.50556 2.9112 5.59436L2.4096 6.18476H1.476C1.2504 6.18476 1.0584 6.29996 0.9456 6.46796H0.2136C0.096 6.47036 0 6.56636 0 6.68396C0 6.80156 0.096 6.89756 0.2136 6.89756H0.84C0.8448 6.94556 0.8568 6.99356 0.8736 7.04156L2.592 11.856L2.5848 13.0344L3.5496 14.5392H4.1688C4.1784 14.4288 4.1952 14.316 4.2144 14.2008C4.4184 13.0944 5.088 12.1752 5.9976 11.6352Z" fill="currentColor"/>
<path d="M7.91514 11.1048C8.93034 11.1048 9.89034 11.52 10.5887 12.228H11.0999V11.2224H10.1999V10.2528C10.1999 10.0296 10.0199 9.84961 9.79674 9.84961H6.88074C6.65754 9.84961 6.47754 10.0296 6.47754 10.2528V11.3952C6.91914 11.2104 7.39914 11.1072 7.90314 11.1048H7.91514Z" fill="currentColor"/>
<path d="M10.4209 11.0642H10.9825V10.5194C10.9825 10.3898 10.8769 10.2842 10.7473 10.2842H10.6561C10.5265 10.2842 10.4209 10.3898 10.4209 10.5194V11.0642Z" fill="currentColor"/>
<path d="M9.00233 8.70955C8.98793 8.76715 8.97833 8.82475 8.97833 8.88715C8.97833 9.29515 9.30953 9.62635 9.71753 9.62635C10.1255 9.62635 10.4567 9.29515 10.4567 8.88715C10.4567 8.48395 10.1351 8.15755 9.73433 8.15035V8.14795H9.00473C8.87513 8.14795 8.76953 8.25355 8.76953 8.38315V8.47675C8.76953 8.60395 8.87273 8.70715 9.00233 8.70955Z" fill="currentColor"/>
</g>
<defs>
<clipPath id="clip0_1437_2622">
<rect width="24" height="12.7584" fill="currentColor" transform="translate(0 5.52002)"/>
</clipPath>
</defs>
</svg>
