<svg width="24" height="24" viewBox="0 0 24 24" fill="currentColor" xmlns="http://www.w3.org/2000/svg">
<g clip-path="url(#clip0_1413_2522)">
<path d="M20.1192 23.4264C20.1192 23.7192 19.8816 23.9568 19.5888 23.9568C19.296 23.9568 19.0584 23.7192 19.0584 23.4264C19.0584 23.1336 19.296 22.896 19.5888 22.896C19.884 22.8984 20.1192 23.1336 20.1192 23.4264ZM19.584 23.1984C19.4616 23.1984 19.3608 23.2992 19.3608 23.4216C19.3608 23.544 19.4616 23.6448 19.584 23.6448C19.7064 23.6448 19.8072 23.544 19.8072 23.4216C19.8072 23.2968 19.7088 23.1984 19.584 23.1984Z" fill="currentColor"/>
<path d="M18.6096 23.4696C18.6096 23.7624 18.372 24 18.0792 24C17.7864 24 17.5488 23.7624 17.5488 23.4696C17.5488 23.1768 17.7864 22.9392 18.0792 22.9392C18.3744 22.9416 18.6096 23.1792 18.6096 23.4696ZM18.0744 23.2416C17.952 23.2416 17.8512 23.3424 17.8512 23.4648C17.8512 23.5872 17.952 23.688 18.0744 23.688C18.1968 23.688 18.2976 23.5872 18.2976 23.4648C18.2976 23.3424 18.1992 23.2416 18.0744 23.2416Z" fill="currentColor"/>
<path d="M5.08082 22.9777C5.08082 23.2705 4.84322 23.5081 4.55042 23.5081C4.25762 23.5081 4.02002 23.2705 4.02002 22.9777C4.02002 22.6849 4.25762 22.4473 4.55042 22.4473C4.84562 22.4473 5.08082 22.6849 5.08082 22.9777ZM4.54802 22.7473C4.42562 22.7473 4.32482 22.8481 4.32482 22.9705C4.32482 23.0929 4.42562 23.1937 4.54802 23.1937C4.67042 23.1937 4.77122 23.0929 4.77122 22.9705C4.77122 22.8481 4.67042 22.7473 4.54802 22.7473Z" fill="currentColor"/>
<path d="M16.644 12.1439H11.712V9.31909H10.9488V5.63989H10.14V12.8807H10.9272H10.9512H11.7144V12.8663H16.6992C16.8408 12.8663 19.7808 12.8303 19.7808 12.6863V12.4943C19.7784 12.2807 16.788 12.1439 16.644 12.1439Z" fill="currentColor"/>
<path d="M8.99282 22.248V4.92H9.18242V3.2424H8.93522V1.5072H9.14162V0H8.55122V0.2472H7.93922V0H7.48322C7.48322 0 7.42562 12.4824 7.48322 12.78C7.54082 13.0776 7.08482 13.1784 7.08482 13.1784L7.11362 13.0368L7.11122 12.6384L6.28082 12.648V12.7968L6.54482 12.9648C6.54482 12.9648 6.33602 13.0656 6.25682 13.1112C6.17762 13.1568 6.14882 13.1712 5.77442 13.4472C5.32802 13.7784 5.05202 14.016 4.72562 14.712C4.56482 15.0552 4.39202 15.7656 4.26002 16.3968C4.25282 14.748 4.25522 12.3912 4.31762 12.0576C4.41122 11.5368 4.83842 11.1096 5.19362 10.7568C5.54882 10.404 5.43122 10.26 5.38322 9.8808C5.33522 9.5016 5.10002 8.556 4.98002 8.3904C4.86242 8.2248 4.74242 8.1528 4.74242 8.1528C4.74242 8.1528 4.36322 8.3184 4.14962 8.532C3.94082 8.7432 3.82322 9.8088 3.79922 10.3536C3.77522 10.8984 4.01282 11.2776 4.01282 11.2776C4.01282 11.2776 3.87122 11.6328 3.84722 11.94C3.82322 12.2472 3.72962 12.4848 3.72962 12.4848L3.63602 18.2928L3.20882 19.0224L3.07922 19.0776C3.07922 19.0776 3.10802 21.1968 3.16562 21.9216C3.19922 22.3488 3.43682 22.6512 3.62882 22.8336C3.69842 22.3848 4.08482 22.0392 4.55282 22.0392C5.06402 22.0392 5.47922 22.4496 5.48882 22.9584L5.88002 22.9032L6.59042 23.2584H16.8624L16.9848 23.4048H17.124C17.16 22.92 17.5608 22.536 18.0552 22.536C18.3528 22.536 18.6144 22.6776 18.7872 22.8936C18.9576 22.6512 19.2384 22.4904 19.5552 22.4904C20.0592 22.4904 20.4672 22.8888 20.4888 23.388H21.024V22.248H8.99282Z" fill="currentColor"/>
</g>
<defs>
<clipPath id="clip0_1413_2522">
<rect width="17.9472" height="24" fill="currentColor" transform="translate(3.07922)"/>
</clipPath>
</defs>
</svg>
