<svg width="24" height="24" viewBox="0 0 24 24" fill="currentColor" xmlns="http://www.w3.org/2000/svg">
<g clip-path="url(#clip0_1431_2912)">
<path d="M18.6384 18.1589C18.5088 18.1157 18.372 18.0869 18.228 18.0869C17.5128 18.0869 16.932 18.6677 16.932 19.3877C16.932 19.5245 16.9584 19.6565 16.9992 19.7789C17.1672 20.3045 17.6496 20.6909 18.228 20.6909C18.9432 20.6909 19.5216 20.1077 19.5216 19.3877C19.5216 18.8117 19.152 18.3317 18.6384 18.1589ZM18.228 19.9877C17.8968 19.9877 17.628 19.7189 17.628 19.3853C17.628 19.0517 17.8968 18.7829 18.228 18.7829C18.5592 18.7829 18.828 19.0517 18.828 19.3853C18.828 19.7189 18.5592 19.9877 18.228 19.9877Z" fill="currentColor"/>
<path d="M6.38165 19.9629C6.30005 20.0805 6.16325 20.1597 6.00965 20.1597C5.85605 20.1597 5.71925 20.0829 5.63765 19.9629H5.06885C5.07125 19.9749 5.07605 19.9869 5.07845 20.0013C5.20565 20.3997 5.57285 20.6901 6.00965 20.6901C6.46085 20.6901 6.84005 20.3805 6.95525 19.9629H6.38165Z" fill="currentColor"/>
<path d="M16.6896 18.4775H7.7616V19.6391H16.4448C16.4304 19.5527 16.4232 19.4687 16.4232 19.3847C16.4232 19.0511 16.5216 18.7415 16.6896 18.4775Z" fill="currentColor"/>
<path d="M7.31998 18.4775H4.84558V19.6391H7.31998V18.4775Z" fill="currentColor"/>
<path d="M14.148 12.8809H11.8608V17.9089H14.148V12.8809Z" fill="currentColor"/>
<path d="M11.0952 9.22363H10.7784V10.7116H11.0952V9.22363Z" fill="currentColor"/>
<path d="M11.2896 14.0908H7.80237V17.9092H11.2896V14.0908Z" fill="currentColor"/>
<path d="M4.82886 17.9092H7.27686V14.0908L4.82886 14.8252V17.9092Z" fill="currentColor"/>
<path d="M18.012 4.31814L18.5112 6.16854L20.8536 5.57814L20.3376 3.71094L18.012 4.31814Z" fill="currentColor"/>
<path d="M10.5768 11.0882V11.321L8.78638 9.74902L7.70398 10.2842L8.28238 13.5986H9.89278L9.18478 10.8794L10.5792 12.065V13.5938H11.2752V11.0882H10.5768ZM10.9176 12.0986C10.8336 12.0986 10.7664 12.0314 10.7664 11.9474C10.7664 11.8634 10.8336 11.7962 10.9176 11.7962C11.0016 11.7962 11.0688 11.8634 11.0688 11.9474C11.0688 12.0314 11.0016 12.0986 10.9176 12.0986Z" fill="currentColor"/>
<path d="M6.65764 12.5085L3.13684 11.6445L2.84644 12.7965L5.64484 13.4565L5.87764 14.0781L6.53764 13.8837L6.39844 13.4685L6.64564 13.4709L6.65764 12.5085Z" fill="currentColor"/>
<path d="M0.780027 11.5638L0.518427 12.3918C0.518427 12.3918 0.216027 12.2094 0.331227 11.871C0.446427 11.5326 0.657627 11.5542 0.780027 11.5638Z" fill="currentColor"/>
<path d="M23.9856 11.4844L23.7911 10.9972C23.7623 10.9228 23.6903 10.8748 23.6111 10.8748H23.2535V6.50684L22.8503 6.61724V10.8724H22.4399C22.3607 10.8724 22.2887 10.9204 22.2599 10.9948L22.0655 11.482C22.0463 11.5276 22.0463 11.5804 22.0655 11.626L22.2599 12.1132C22.2887 12.1876 22.3607 12.2356 22.4399 12.2356H22.5383C22.5383 12.3436 22.6247 12.43 22.7327 12.43H22.8311V12.5044C22.8311 12.7372 22.9583 12.9484 23.1551 13.0444C23.2559 13.0948 23.3183 13.1956 23.3183 13.3084C23.3183 13.4644 23.1815 13.6012 23.0255 13.6012C22.8647 13.6012 22.7327 13.4692 22.7327 13.3084C22.7327 13.2004 22.6463 13.114 22.5383 13.114C22.4303 13.114 22.3439 13.2004 22.3439 13.3084C22.3439 13.6852 22.6511 13.99 23.0255 13.99C23.3951 13.99 23.7071 13.678 23.7071 13.306C23.7071 13.042 23.5607 12.8068 23.3231 12.6916C23.2607 12.6604 23.2199 12.586 23.2199 12.502V12.4276H23.3183C23.4263 12.4276 23.5127 12.3412 23.5127 12.2332H23.6111C23.6903 12.2332 23.7623 12.1852 23.7911 12.1108L23.9856 11.6236C24.0048 11.5828 24.0048 11.53 23.9856 11.4844Z" fill="currentColor"/>
<path d="M22.9944 3.12012L20.9016 3.73692L21.3624 5.47452L22.7664 6.32172L23.8056 6.05052L22.9944 3.12012ZM23.0424 5.83452C22.8912 5.82972 22.7712 5.70252 22.776 5.54892C22.7808 5.39772 22.908 5.27772 23.0616 5.28252C23.2128 5.28732 23.3328 5.41452 23.328 5.56812C23.3232 5.71932 23.196 5.83932 23.0424 5.83452Z" fill="currentColor"/>
<path d="M2.50799 12.7228L2.69999 12.0844L1.06079 11.5996L0.791992 12.4996L2.17679 12.9076L2.25359 12.646L2.50799 12.7228Z" fill="currentColor"/>
<path d="M17.4048 4.29883L4.56482 7.72603L5.17682 9.70603L7.50242 9.09403L7.60802 9.67723L9.27602 8.88043H11.1072L12.3048 7.82203L17.9376 6.35803L17.4048 4.29883ZM6.39842 8.95003C6.03362 8.95003 5.73842 8.65483 5.73842 8.29003C5.73842 7.92523 6.03362 7.63003 6.39842 7.63003C6.76322 7.63003 7.05842 7.92523 7.05842 8.29003C7.05842 8.65483 6.76322 8.95003 6.39842 8.95003ZM10.8288 8.57563C10.6512 8.57563 10.5072 8.43163 10.5072 8.25403C10.5072 8.07643 10.6512 7.93243 10.8288 7.93243C11.0064 7.93243 11.1504 8.07643 11.1504 8.25403C11.1504 8.43163 11.0064 8.57563 10.8288 8.57563Z" fill="currentColor"/>
</g>
<defs>
<clipPath id="clip0_1431_2912">
<rect width="24" height="17.5704" fill="currentColor" transform="translate(0 3.12012)"/>
</clipPath>
</defs>
</svg>
