<svg width="25" height="24" viewBox="0 0 25 24" fill="currentColor" xmlns="http://www.w3.org/2000/svg">
<g clip-path="url(#clip0_1413_2534)">
<path d="M21.0456 14.9135H16.224V12.1511H15.4776V8.55591H14.6856V15.6335H15.4536H15.4752H16.2216V15.6215H21.096C21.2352 15.6215 24.1104 15.5855 24.1104 15.4463V15.2591C24.1104 15.0479 21.1848 14.9135 21.0456 14.9135Z" fill="currentColor"/>
<path d="M16.7688 23.1407C16.7688 23.4263 16.536 23.6591 16.2504 23.6591C15.9648 23.6591 15.732 23.4263 15.732 23.1407C15.732 22.8551 15.9648 22.6223 16.2504 22.6223C16.536 22.6223 16.7688 22.8551 16.7688 23.1407ZM16.2456 22.9175C16.1256 22.9175 16.0272 23.0159 16.0272 23.1359C16.0272 23.2559 16.1256 23.3543 16.2456 23.3543C16.3656 23.3543 16.464 23.2559 16.464 23.1359C16.464 23.0135 16.3656 22.9175 16.2456 22.9175Z" fill="currentColor"/>
<path d="M15.2928 23.1839C15.2928 23.4695 15.06 23.7023 14.7744 23.7023C14.4888 23.7023 14.256 23.4695 14.256 23.1839C14.256 22.8983 14.4888 22.6655 14.7744 22.6655C15.0624 22.6655 15.2928 22.8983 15.2928 23.1839ZM14.7696 22.9607C14.6496 22.9607 14.5512 23.0591 14.5512 23.1791C14.5512 23.2991 14.6496 23.3975 14.7696 23.3975C14.8896 23.3975 14.988 23.2991 14.988 23.1791C14.988 23.0567 14.8896 22.9607 14.7696 22.9607Z" fill="currentColor"/>
<path d="M2.06881 22.7015C2.06881 22.9871 1.83601 23.2199 1.55041 23.2199C1.26481 23.2199 1.03201 22.9871 1.03201 22.7015C1.03201 22.4159 1.26481 22.1831 1.55041 22.1831C1.83601 22.1831 2.06881 22.4159 2.06881 22.7015ZM1.54561 22.4783C1.42561 22.4783 1.32721 22.5767 1.32721 22.6967C1.32721 22.8167 1.42561 22.9151 1.54561 22.9151C1.66561 22.9151 1.76401 22.8167 1.76401 22.6967C1.76401 22.5743 1.66561 22.4783 1.54561 22.4783Z" fill="currentColor"/>
<path d="M5.89201 21.9888V11.3184L9.14641 9.66719L11.9952 11.052L11.7192 11.844L12.312 12.3192V14.0592L12.024 14.0688L12.0336 15.1656H12.3792L12.3888 15.5208H13.7736L13.7592 6.35999L12.864 6.34559L9.10561 8.24399L6.18721 6.34559H5.88961V5.04959H6.07441V3.40799H5.83441V1.71359H6.03601V0.23999H5.46001V0.47999H4.86241V0.23999H4.41841C4.41841 0.23999 4.36321 12.4416 4.41841 12.732C4.47361 13.0248 4.02961 13.1208 4.02961 13.1208L4.05841 12.9816L4.05601 12.5928L3.24481 12.6024V12.7464L3.50161 12.912C3.50161 12.912 3.29761 13.0104 3.22081 13.056C3.14401 13.0992 3.11521 13.1136 2.75041 13.3848C2.31361 13.7088 2.04481 13.9416 1.72561 14.6232C1.56721 14.9592 1.39921 15.6528 1.27201 16.2696C1.26241 14.6568 1.26481 12.3528 1.32241 12.0264C1.41601 11.5176 1.83121 11.1 2.17921 10.7544C2.52721 10.4064 2.40961 10.2696 2.36401 9.89759C2.31841 9.52799 2.08561 8.60159 1.97041 8.44079C1.85521 8.27999 1.74001 8.21039 1.74001 8.21039C1.74001 8.21039 1.37041 8.37359 1.16161 8.57999C0.952813 8.78879 0.837613 9.83039 0.813613 10.3608C0.789613 10.8936 1.02241 11.2632 1.02241 11.2632C1.02241 11.2632 0.883213 11.6112 0.861613 11.9112C0.837613 12.2112 0.746413 12.444 0.746413 12.444L0.652813 18.12L0.235213 18.8328L0.110413 18.888C0.110413 18.888 0.139213 20.9592 0.194413 21.6672C0.228013 22.0848 0.460813 22.3824 0.648013 22.56C0.715213 22.1208 1.09441 21.7824 1.55041 21.7824C2.04961 21.7824 2.45521 22.1832 2.46721 22.68L2.84881 22.6272L3.54481 22.9752H13.5864L13.7064 23.1168H13.8432C13.8792 22.644 14.2704 22.2672 14.7552 22.2672C15.0456 22.2672 15.3024 22.4064 15.4704 22.6176C15.636 22.38 15.912 22.224 16.2216 22.224C16.7136 22.224 17.1144 22.6152 17.136 23.1024H17.6592V21.9912H5.89201V21.9888ZM12.2712 7.76879L12.3096 9.94319L10.332 8.87519L12.2712 7.76879ZM8.25601 8.87519L6.33841 9.94319L6.31921 7.69919L8.25601 8.87519Z" fill="currentColor"/>
</g>
<defs>
<clipPath id="clip0_1413_2534">
<rect width="24" height="23.4624" fill="currentColor" transform="translate(0.110413 0.23999)"/>
</clipPath>
</defs>
</svg>
