<svg width="24" height="24" viewBox="0 0 24 24" fill="currentColor" xmlns="http://www.w3.org/2000/svg">
<g clip-path="url(#clip0_1413_2775)">
<path d="M2.46002 20.9015C2.46002 21.2567 2.17202 21.5471 1.81442 21.5471C1.45922 21.5471 1.16882 21.2591 1.16882 20.9015C1.16882 20.5463 1.45682 20.2559 1.81442 20.2559C2.16962 20.2559 2.46002 20.5463 2.46002 20.9015ZM1.80722 20.6231C1.65842 20.6231 1.53602 20.7455 1.53602 20.8943C1.53602 21.0431 1.65842 21.1655 1.80722 21.1655C1.95602 21.1655 2.07842 21.0431 2.07842 20.8943C2.07842 20.7455 1.95602 20.6231 1.80722 20.6231Z" fill="currentColor"/>
<path d="M21.8208 21.3551C21.8208 21.5951 21.6264 21.7871 21.3888 21.7871C21.1488 21.7871 20.9568 21.5927 20.9568 21.3551C20.9568 21.1151 21.1512 20.9231 21.3888 20.9231C21.6288 20.9231 21.8208 21.1175 21.8208 21.3551ZM21.384 21.1679C21.2832 21.1679 21.2016 21.2495 21.2016 21.3503C21.2016 21.4511 21.2832 21.5327 21.384 21.5327C21.4848 21.5327 21.5664 21.4511 21.5664 21.3503C21.5664 21.2495 21.4848 21.1679 21.384 21.1679Z" fill="currentColor"/>
<path d="M21.3888 20.479C21.8736 20.479 22.2672 20.8726 22.2672 21.3574C22.2672 21.3646 22.2648 21.3718 22.2648 21.379C22.7664 21.2662 24 20.9806 24 20.9278C24 20.8606 23.8776 20.0902 23.8776 20.0902L7.19036 20.2126C7.19036 20.2126 7.12316 12.1438 7.12316 11.3278C7.12316 10.5094 6.98636 10.1806 6.71516 9.95741C6.53276 9.81101 6.30476 9.74141 5.55356 9.56381C4.80236 9.38621 3.55436 9.47021 3.05756 9.55901C2.56076 9.64781 2.36156 9.69101 2.17437 9.89021C1.98716 10.0894 1.40157 11.9686 1.29116 12.4318C1.18077 12.895 1.09197 14.7598 1.09197 14.7598L0.671965 14.7502C0.671965 14.7502 0.638365 11.1478 0.616765 10.7614C0.595165 10.375 0.616765 8.47421 0.671965 7.68941C0.727165 6.90461 1.09197 6.37421 1.09197 6.37421C1.09197 6.37421 1.52397 5.98781 1.85517 5.65661C2.18636 5.32541 2.13117 4.96061 2.03276 4.27421C1.93196 3.58781 1.75436 3.12461 1.49996 2.63741C1.24557 2.15021 0.859165 2.53901 0.659965 2.68061C0.460765 2.82221 0.494365 3.25661 0.494365 3.25661C0.494365 3.25661 0.218365 4.32941 0.153565 4.71581C0.086365 5.10221 0.331165 6.11981 0.331165 6.11981C0.331165 6.11981 0.239965 6.51581 0.196765 6.72701C0.153565 6.93581 0.086365 7.24541 0.031165 7.54541C-0.024035 7.84301 0.00956497 9.11501 0.019165 9.23501C0.031165 9.35741 0.031165 14.7502 0.031165 14.7502L0.230365 16.0654C0.230365 16.0654 0.119965 19.1926 0.098365 19.4806C0.076765 19.7686 0.131965 20.3422 0.242365 20.575C0.307165 20.7118 0.542365 20.827 0.727165 20.9014C0.729565 20.3014 1.21677 19.8142 1.81677 19.8142C2.41676 19.8142 2.90636 20.3038 2.90636 20.9038C2.90636 21.0334 2.87996 21.1558 2.83916 21.271C2.88476 21.3094 2.92556 21.3166 2.92556 21.3166L6.71036 21.3382L6.91916 21.2062L16.644 21.1726L16.8216 21.3382L18.2136 21.5374L20.5344 21.5278C20.5248 21.4726 20.5176 21.4174 20.5176 21.3598C20.5128 20.8726 20.9064 20.479 21.3888 20.479Z" fill="currentColor"/>
</g>
<defs>
<clipPath id="clip0_1413_2775">
<rect width="24" height="19.3872" fill="currentColor" transform="translate(0 2.3999)"/>
</clipPath>
</defs>
</svg>
