<svg width="24" height="24" viewBox="0 0 24 24" fill="currentColor" xmlns="http://www.w3.org/2000/svg">
<g clip-path="url(#clip0_1532_1101)">
<path d="M10.1572 20.7722C10.1572 22.553 11.5948 24.0002 13.366 24.0002C15.1324 24.0002 16.5748 22.553 16.5748 20.7722C16.5748 20.5706 16.5532 20.3738 16.5172 20.1842C16.2412 18.6914 14.9332 17.5562 13.366 17.5562C12.1636 17.5562 11.1172 18.221 10.5676 19.205C10.306 19.6682 10.1572 20.201 10.1572 20.7722ZM11.9596 20.7722C11.9596 20.1674 12.3364 19.661 12.862 19.457C13.018 19.3994 13.186 19.3634 13.3636 19.3634C13.9276 19.3634 14.4124 19.7018 14.6356 20.1842C14.7196 20.3642 14.7676 20.561 14.7676 20.7722C14.7676 21.5522 14.1364 22.1834 13.366 22.1834C12.5884 22.1834 11.9596 21.5522 11.9596 20.7722Z" fill="currentColor"/>
<path d="M22.4256 16.5482H14.6328V15.689H22.3272C22.38 15.689 22.4232 15.7322 22.4232 15.785V16.5482H22.4256Z" fill="currentColor"/>
<path d="M20.9474 22.4542H16.9946V21.8158H20.9474C21.1298 21.8158 21.4826 21.559 21.7538 21.127C21.9578 20.8054 22.0682 20.1046 22.0682 19.159L22.0706 18.9742C22.0754 18.523 22.0826 17.7694 21.845 17.5294C21.8138 17.4982 21.7682 17.4646 21.677 17.4646V16.8262C21.9194 16.8262 22.1354 16.9126 22.2986 17.0782C22.7234 17.5054 22.7138 18.3574 22.709 18.9766L22.7066 19.1542C22.7066 20.251 22.5674 21.0262 22.2938 21.4606C21.9938 21.9454 21.485 22.4542 20.9474 22.4542Z" fill="currentColor"/>
<path d="M14.6763 17.3785C14.7819 17.1169 15.0387 16.9297 15.3411 16.9297H20.7507C21.1467 16.9297 21.4683 17.2513 21.4683 17.6473V18.5785C21.4683 18.9745 21.1467 19.2961 20.7507 19.2961H16.6803C16.2891 18.4105 15.5643 17.7241 14.6763 17.3785Z" fill="currentColor"/>
<path d="M16.9321 20.1047C16.9033 19.9535 16.8625 19.8071 16.8169 19.6631H19.8577V21.4079H16.9369C16.9729 21.2015 16.9969 20.9879 16.9969 20.7719C16.9969 20.5607 16.9753 20.3423 16.9321 20.1047Z" fill="currentColor"/>
<path d="M20.9546 21.4079H20.249V19.6631H20.9546C21.0026 19.6631 21.0434 19.7039 21.0434 19.7519V21.3215C21.0434 21.3695 21.005 21.4079 20.9546 21.4079Z" fill="currentColor"/>
<path d="M10.2387 18.9266H7.06348C7.27708 17.3714 8.60668 16.1714 10.2219 16.1714C11.1579 16.1714 11.9955 16.577 12.5811 17.2178C11.6091 17.4338 10.7571 18.0482 10.2387 18.9266Z" fill="currentColor"/>
<path d="M13.3298 13.5024C12.485 12.9 8.9234 10.1448 7.6898 9.1872L6.7994 3.8424L3.6482 0.1632L3.5066 0L2.9786 0.4608L3.1466 0.6552L3.353 0.4752L6.3962 4.032L6.9074 7.1016L5.8106 3.96L2.0882 0.864L1.9202 0.7272L1.4762 1.272L1.6754 1.4352L1.8506 1.2216L2.9474 2.1336L2.765 2.3136C2.4506 2.1648 1.7162 1.8624 1.2002 2.0088L1.3154 2.4192C1.7186 2.3064 2.4554 2.628 2.705 2.7624L2.8442 2.8368L3.2762 2.4048L5.4506 4.2096L7.1282 9.0192L6.737 9.5232C6.9434 9.684 11.801 13.4544 12.8354 14.1912C13.0874 14.3712 13.2434 14.6016 13.3418 14.856L4.8338 9.2256L4.8842 9.1512C4.9634 9.0312 4.9298 8.8704 4.8098 8.7912L3.9794 8.244C3.8594 8.1648 3.6986 8.1984 3.6194 8.3184L3.3842 8.6784C3.305 8.7984 3.3386 8.9592 3.4586 9.0384L4.289 9.5856C4.409 9.6648 4.5698 9.6312 4.649 9.5112L4.661 9.4944L13.4642 15.324C13.517 15.672 13.5098 16.032 13.4978 16.3608C13.493 16.4832 13.4906 16.596 13.4906 16.6992H14.3402C14.3402 16.6056 14.345 16.5 14.3474 16.3896C14.3714 15.5976 14.4146 14.2776 13.3298 13.5024Z" fill="currentColor"/>
</g>
<defs>
<clipPath id="clip0_1532_1101">
<rect width="21.5088" height="24" fill="currentColor" transform="translate(1.2002)"/>
</clipPath>
</defs>
</svg>
