<svg width="24" height="24" viewBox="0 0 24 24" fill="currentColor" xmlns="http://www.w3.org/2000/svg">
<g clip-path="url(#clip0_1421_1853)">
<path d="M16.4616 18.583C15.0696 18.583 13.9464 19.7926 13.9464 21.2902C13.9464 22.7854 15.0696 23.9998 16.4616 23.9998C17.8464 23.9998 18.9744 22.7854 18.9744 21.2902C18.9744 19.7926 17.8464 18.583 16.4616 18.583ZM16.4616 22.5454C15.8184 22.5454 15.2952 21.9814 15.2952 21.2902C15.2952 20.5918 15.8184 20.035 16.4616 20.035C17.1024 20.035 17.6232 20.5918 17.6232 21.2902C17.6232 21.9814 17.1024 22.5454 16.4616 22.5454Z" fill="currentColor"/>
<path d="M7.95599 19.6079C6.85919 19.6079 5.97359 20.5607 5.97359 21.7415C5.97359 22.9199 6.85919 23.8775 7.95599 23.8775C9.04799 23.8775 9.93839 22.9199 9.93839 21.7415C9.93839 20.5607 9.04799 19.6079 7.95599 19.6079ZM7.95599 22.7303C7.44959 22.7303 7.03679 22.2863 7.03679 21.7415C7.03679 21.1895 7.44959 20.7527 7.95599 20.7527C8.46239 20.7527 8.87279 21.1919 8.87279 21.7415C8.87279 22.2863 8.46239 22.7303 7.95599 22.7303Z" fill="currentColor"/>
<path d="M20.988 15.0216H11.5824V15.7584L11.136 15.8016C10.1496 14.0952 8.43359 11.1456 8.26079 10.872C7.96559 10.4088 6.66239 8.03036 6.17999 7.01276C5.69519 5.99756 5.74799 5.06396 5.74799 5.06396C5.74799 5.06396 5.97839 4.25996 6.12959 3.59997C6.28319 2.93997 5.96399 2.52717 5.36879 1.75197C4.77599 0.976765 4.24799 0.532765 3.61199 0.119965C2.97599 -0.292835 2.80079 0.475165 2.66879 0.801565C2.53919 1.13037 2.87999 1.64157 2.87999 1.64157C2.87999 1.64157 3.30719 3.17997 3.50159 3.71037C3.69599 4.24077 4.68719 5.32077 4.68719 5.32077C4.68719 5.32077 4.86239 5.87996 4.95839 6.17516C5.05439 6.46796 5.19359 6.90236 5.33759 7.31516C5.48159 7.72796 6.40799 9.28076 6.50639 9.42476C6.53039 9.45836 6.86159 10.0344 7.33679 10.8696L7.16639 11.9688L7.37279 12.1896L8.71679 16.0392L8.39279 16.0704V18.384L11.5824 19.0536V21.2952H13.344C13.344 21.2952 13.344 21.2952 13.344 21.2928C13.344 19.4448 14.7432 17.94 16.4616 17.94C18.18 17.94 19.5768 19.4448 19.5768 21.2928C19.5768 21.2928 19.5768 21.2928 19.5768 21.2952H21.4224V15.7176L20.988 15.0216ZM7.82159 11.988L7.93439 11.916C8.66639 13.2 9.53999 14.7336 10.1952 15.8928L9.21839 15.9888L7.82159 11.988ZM14.4 17.2824L12.6888 19.4592C12.6792 19.4736 12.6624 19.4784 12.648 19.4784C12.6384 19.4784 12.6288 19.476 12.6192 19.4712C12.5976 19.4568 12.588 19.4256 12.5976 19.3992L13.1976 17.8752H12.648C12.6288 17.8752 12.612 17.8656 12.6024 17.8488C12.5928 17.832 12.5928 17.8104 12.6 17.7936L13.4016 16.0752C13.4112 16.056 13.428 16.044 13.4496 16.044H14.304C14.3232 16.044 14.3424 16.056 14.352 16.0728C14.3616 16.092 14.3616 16.1136 14.3496 16.1304L13.7256 17.1888H14.3592C14.3808 17.1888 14.4 17.2008 14.4072 17.2224C14.4168 17.2416 14.4144 17.2656 14.4 17.2824Z" fill="currentColor"/>
</g>
<defs>
<clipPath id="clip0_1421_1853">
<rect width="18.7824" height="24" fill="currentColor" transform="translate(2.64)"/>
</clipPath>
</defs>
</svg>
