<svg width="24" height="24" viewBox="0 0 24 24" fill="currentColor" xmlns="http://www.w3.org/2000/svg">
<g clip-path="url(#clip0_1417_1664)">
<path d="M18.96 20.8344C18.0912 20.8344 17.3856 21.5424 17.3856 22.416C17.3856 23.2896 18.0936 23.9976 18.96 23.9976C19.8312 23.9976 20.5344 23.2896 20.5344 22.416C20.5344 21.5424 19.8312 20.8344 18.96 20.8344ZM18.96 23.1504C18.5592 23.1504 18.2304 22.824 18.2304 22.4184C18.2304 22.0128 18.5568 21.6816 18.96 21.6816C19.3632 21.6816 19.6896 22.0128 19.6896 22.4184C19.6872 22.824 19.3632 23.1504 18.96 23.1504Z" fill="currentColor"/>
<path d="M10.6248 22.4832C10.2096 22.4832 9.86879 22.8216 9.86879 23.2416C9.86879 23.6616 10.2072 24 10.6248 24C11.0424 24 11.3808 23.6616 11.3808 23.2416C11.3808 22.8216 11.0424 22.4832 10.6248 22.4832ZM10.6248 23.592C10.4328 23.592 10.2744 23.436 10.2744 23.2416C10.2744 23.0472 10.4304 22.8888 10.6248 22.8888C10.8192 22.8888 10.9752 23.0472 10.9752 23.2416C10.9752 23.4336 10.8192 23.592 10.6248 23.592Z" fill="currentColor"/>
<path d="M15.9428 2.932L15.1479 2.53613L5.30574 22.2978L6.10059 22.6937L15.9428 2.932Z" fill="currentColor"/>
<path d="M11.5981 21.6766L10.3972 21.0785L9.65145 22.5758L10.8523 23.1739L11.5981 21.6766Z" fill="currentColor"/>
<path d="M11.508 23.1744H9.74159V22.2864L11.508 22.0944V23.1744Z" fill="currentColor"/>
<path d="M12.2352 23.4095H9.0168V23.9855H12.2352V23.4095Z" fill="currentColor"/>
<path d="M17.7552 15.1248L17.8872 12.8544C17.9256 12.2064 17.4096 11.6616 16.7616 11.6616H16.2288C16.6032 10.572 16.9104 9.5496 17.1552 8.676C18.312 2.8464 16.32 0.8808 14.4432 0.2568C11.8512 -0.6072 8.28959 0.8928 7.65119 2.2296L8.32559 2.5512C8.73359 1.6992 11.8464 0.1752 14.2104 0.9624C16.4928 1.7208 17.2584 4.3368 16.4328 8.4984C16.176 9.4104 15.852 10.4952 15.444 11.6592H10.0656C9.69119 11.6592 9.34079 11.8464 9.13199 12.156L7.88399 14.0016L7.52879 13.8816C7.42319 13.8456 7.31039 13.9032 7.27439 14.0088L7.27199 14.016C5.77919 13.8 4.87439 14.3904 4.41359 14.868C3.2088 16.1112 3.0048 18.5424 3.95519 20.2848C4.43039 21.1488 5.44079 21.6 6.89519 21.6C7.01279 21.6 7.13039 21.5976 7.25279 21.5904C7.28399 21.588 7.3176 21.5856 7.34879 21.5832C7.54079 21.9336 7.90799 22.176 8.33519 22.176L14.9448 22.4472C14.9448 22.4376 14.9424 22.428 14.9424 22.4184C14.9424 21.3216 15.8304 20.4312 16.9224 20.4312C17.1024 20.4312 17.2752 20.4576 17.4408 20.5032L17.7264 15.6144H13.6584V17.4288H11.7744V15.6144H11.076V15.1248H17.7552ZM7.20959 15.348V18.5184H6.87359C6.76319 18.5184 6.67439 18.6072 6.67439 18.7176V19.4688C6.67439 19.5792 6.76319 19.668 6.87359 19.668H7.20959V20.8416C6.0696 20.8944 5.02559 20.6784 4.61519 19.9248C3.82319 18.4728 3.97679 16.392 4.95359 15.384C5.47439 14.8464 6.18239 14.6352 7.03679 14.7336C7.01039 14.8344 7.06319 14.94 7.16399 14.9736L7.27199 15.0096C7.23359 15.12 7.20959 15.2328 7.20959 15.348Z" fill="currentColor"/>
<path d="M20.1264 15.1248H19.7904L19.7616 15.6144H20.1264V15.1248Z" fill="currentColor"/>
<path d="M11.568 15.4032H9.68399V15.612H11.568V15.4032Z" fill="currentColor"/>
</g>
<defs>
<clipPath id="clip0_1417_1664">
<rect width="17.1744" height="24" fill="currentColor" transform="translate(3.36)"/>
</clipPath>
</defs>
</svg>
