<svg width="24" height="24" viewBox="0 0 24 24" fill="currentColor" xmlns="http://www.w3.org/2000/svg">
<g clip-path="url(#clip0_1430_1693)">
<path d="M13.3344 14.9494C13.3344 16.2262 14.364 17.263 15.6336 17.263C16.6584 17.263 17.52 16.5814 17.8152 15.6454C17.8848 15.4246 17.9328 15.1942 17.9328 14.9494C17.9328 13.6726 16.9032 12.6406 15.6336 12.6406C15.3768 12.6406 15.1344 12.691 14.904 12.7702C13.992 13.0774 13.3344 13.9294 13.3344 14.9494ZM14.568 14.9494C14.568 14.3566 15.0456 13.879 15.6336 13.879C16.2216 13.879 16.6992 14.3566 16.6992 14.9494C16.6992 15.5398 16.2216 16.0174 15.6336 16.0174C15.0456 16.0174 14.568 15.5398 14.568 14.9494Z" fill="currentColor"/>
<path d="M3.66956 14.9494C3.66956 16.2262 4.69916 17.263 5.96876 17.263C6.99356 17.263 7.85515 16.5814 8.15035 15.6454C8.21995 15.4246 8.26796 15.1942 8.26796 14.9494C8.26796 13.6726 7.23836 12.6406 5.96876 12.6406C5.71196 12.6406 5.46956 12.691 5.23916 12.7702C4.32716 13.0774 3.66956 13.9294 3.66956 14.9494ZM4.90316 14.9494C4.90316 14.3566 5.38076 13.879 5.96876 13.879C6.55676 13.879 7.03436 14.3566 7.03436 14.9494C7.03436 15.5398 6.55676 16.0174 5.96876 16.0174C5.38076 16.0174 4.90316 15.5398 4.90316 14.9494Z" fill="currentColor"/>
<path d="M12.1464 10.1354L11.2968 9.54736L10.896 9.81136L10.92 10.5386L12.1464 10.1354Z" fill="currentColor"/>
<path d="M4.34398 9.58551H3.98158V8.68311C3.98158 8.68311 4.02718 8.52471 3.81358 8.44071C3.75838 8.13351 3.74878 8.00391 3.74878 8.00391C3.74878 8.00391 4.31758 8.15991 4.33438 8.68311C4.35118 9.20631 4.34398 9.58551 4.34398 9.58551Z" fill="currentColor"/>
<path d="M5.51758 9.57596H5.11678L5.10718 9.32636H4.83838L5.03278 9.13916H5.61118L5.74078 9.32636H5.51758V9.57596Z" fill="currentColor"/>
<path d="M19.2913 11.3617L19.3897 12.5905L20.0593 13.2193C20.0593 13.2193 20.0593 14.5465 20.8561 14.8537C21.6529 15.1609 22.0849 15.0217 22.5313 14.4625C22.9777 13.9033 23.9977 12.6049 23.9977 12.6049L23.6209 12.7177L20.7721 12.0049L19.9609 10.9561L19.6393 10.9705L19.2913 11.3617Z" fill="currentColor"/>
<path d="M1.04876 10.9754V10.1426C0.787164 10.2554 0.623964 10.445 0.571164 10.7738C0.515964 11.1146 0.326364 12.5018 0.287964 12.7058H1.04876V10.9754Z" fill="currentColor"/>
<path d="M18.2928 10.4282L18.4512 10.1162L16.5984 10.5818L16.6464 10.8338L18.2928 10.4282Z" fill="currentColor"/>
<path d="M18.012 11.0303L17.928 11.6015C17.928 11.6015 18.1464 11.5535 18.2688 11.5415C18.3864 11.5295 18.6 11.4911 18.7344 11.6975C18.8496 11.8751 18.7896 12.1367 18.6672 12.2279C18.5448 12.3191 18.2928 12.5015 18.2928 12.5015L18.6936 12.8231C18.6936 12.8231 19.3728 10.3175 19.4064 10.1999C19.44 10.0823 19.4304 9.91194 19.2216 9.84234C19.0128 9.77274 18.8544 9.92634 18.8184 10.0055C18.78 10.0847 18.6216 10.4087 18.492 10.6463C18.3552 10.8863 18.012 11.0303 18.012 11.0303ZM19.1064 9.97434C19.2024 9.97434 19.2792 10.0511 19.2792 10.1471C19.2792 10.2431 19.2024 10.3199 19.1064 10.3199C19.0104 10.3199 18.9336 10.2431 18.9336 10.1471C18.9336 10.0511 19.0104 9.97434 19.1064 9.97434Z" fill="currentColor"/>
<path d="M19.3944 13.6368L18.0168 12.4728C18.0168 12.4728 18.1824 12.348 18.4056 12.2376C18.4656 12.2088 18.5112 12.1728 18.5448 12.1368C18.5976 12.0864 18.6312 12.0144 18.6312 11.9352C18.6312 11.7816 18.5064 11.6568 18.3528 11.6568C18.3432 11.6568 18.3192 11.6568 18.3096 11.6592C18.2664 11.6592 18.2352 11.6664 18.1752 11.676C17.9424 11.7144 17.2536 11.8704 17.2536 11.8704L15.3624 11.2368L16.392 11.0112L16.2936 10.5288L14.4384 10.9248L14.1984 10.8456L13.8936 11.0544L15.3288 12.1776C15.432 12.1656 15.5328 12.156 15.6336 12.156C16.9296 12.156 18.0216 13.0488 18.3312 14.2512L19.992 15.192L20.1888 15.036L19.3944 13.6368ZM18.3096 11.7576C18.4056 11.7576 18.4824 11.8344 18.4824 11.9304C18.4824 12.0264 18.4056 12.1032 18.3096 12.1032C18.2136 12.1032 18.1368 12.0264 18.1368 11.9304C18.1368 11.8344 18.216 11.7576 18.3096 11.7576Z" fill="currentColor"/>
<path d="M3.8688 13.123H0V14.2798L3.1872 15.103C3.1848 15.0526 3.1824 15.0022 3.1824 14.9494C3.1824 14.2606 3.4368 13.6174 3.8688 13.123Z" fill="currentColor"/>
<path d="M5.96645 12.1558C6.28566 12.1558 6.59046 12.211 6.87606 12.3094L6.87845 9.8374C6.87845 9.8374 3.01926 9.8374 2.55366 9.8374C1.71125 9.8374 1.41125 10.027 1.41125 10.027L1.41605 10.4374V12.7054L4.30806 12.7126C4.53846 12.5422 4.79765 12.4054 5.07845 12.3094C5.38806 12.2062 5.67845 12.1558 5.96645 12.1558Z" fill="currentColor"/>
<path d="M12.36 10.4112L10.572 10.9704V9.6144L11.0592 9.2856C11.1432 9.2304 11.1648 9.1152 11.1096 9.0336C11.0544 8.9496 10.9392 8.928 10.8576 8.9832L10.572 9.1752V7.2792L11.172 7.2744V6.9624H7.25997L7.25757 12.4776C7.30077 12.5016 7.34397 12.5232 7.38477 12.5496C7.40877 12.5616 7.43517 12.5736 7.46397 12.588H12.36V10.4112ZM8.24157 10.1448V7.272L10.2672 7.2672V9.3768L9.88797 9.6312C9.80397 9.6864 9.78237 9.8016 9.83757 9.8832C9.87357 9.936 9.93117 9.9648 9.98877 9.9648C10.0248 9.9648 10.0584 9.9552 10.0896 9.9336L10.2648 9.816V10.4232L8.24157 10.1448Z" fill="currentColor"/>
<path d="M14.7456 12.3122C14.8056 12.293 14.8632 12.2762 14.9208 12.2594L12.9072 10.6538V13.1234H8.07361C8.49601 13.613 8.75521 14.2514 8.75521 14.9498C8.75521 15.1706 8.72161 15.3962 8.65921 15.6362L12.1512 15.6314L12.8544 15.0866C12.852 15.041 12.852 14.9954 12.852 14.9522C12.8496 13.7522 13.6128 12.6914 14.7456 12.3122Z" fill="currentColor"/>
<path d="M7.38721 12.5471C7.34641 12.5231 7.30321 12.4991 7.26001 12.4751V12.4919C7.26001 12.4919 7.30801 12.5111 7.38721 12.5471Z" fill="currentColor"/>
</g>
<defs>
<clipPath id="clip0_1430_1693">
<rect width="24" height="10.3032" fill="currentColor" transform="translate(0 6.95996)"/>
</clipPath>
</defs>
</svg>
