<svg width="25" height="24" viewBox="0 0 25 24" fill="currentColor" xmlns="http://www.w3.org/2000/svg">
<g clip-path="url(#clip0_1422_1921)">
<path d="M1.10405 16.6272H0.314453V21.0264H1.10405V16.6272Z" fill="currentColor"/>
<path d="M1.38 21.3767H0V21.8231H1.38V21.3767Z" fill="currentColor"/>
<path d="M22.4376 16.6272H21.6479V21.0264H22.4376V16.6272Z" fill="currentColor"/>
<path d="M22.7135 21.3767H21.3335V21.8231H22.7135V21.3767Z" fill="currentColor"/>
<path d="M22.8815 0.52798L5.58229 0.48238V0.47998L5.03269 0.48238L4.48309 0.47998C4.45669 0.47998 4.43269 0.48238 4.40869 0.48238L2.24389 0.48958C1.62709 0.48958 1.12549 0.885581 1.12549 1.37278V5.22958V6.21358V7.49518V7.50238H2.79109V7.49518H3.36709V8.39998H3.77269L3.77029 8.40478L9.05269 9.64078L3.77029 10.8768L3.89749 11.4288L3.77029 11.9808L9.05269 13.2168L3.77029 14.4528L3.88549 14.9496L3.77029 15.444L8.80789 16.62H1.72069V20.3856H2.72389C3.08869 19.3272 4.12069 18.5616 5.33269 18.5616C6.54709 18.5616 7.57909 19.3272 7.94389 20.3856H15.4703C15.8351 19.3272 16.8671 18.5616 18.0791 18.5616C19.2935 18.5616 20.3255 19.3272 20.6903 20.3856H21.0431V16.6248H14.1335L19.1687 15.4488L19.0535 14.9544L19.1687 14.4576L13.8887 13.2216L19.1687 11.9856L19.0415 11.4336L19.1687 10.8816L13.8887 9.64558L18.8879 8.47198H19.5695V7.53118H22.3343V7.53838H23.9999V7.53118V6.24958V5.26558V1.40878C23.9999 0.921581 23.4983 0.52798 22.8815 0.52798ZM3.35269 5.68078H1.81189V1.37038C1.81189 1.18078 2.00629 1.02958 2.24389 1.02958L3.35269 1.02478V5.68078ZM11.7575 1.04158L13.5215 1.04638V3.11038H11.7575V1.04158ZM11.7575 3.64798H13.5215V5.68798H11.7575V3.64798ZM4.05109 1.02478L11.0711 1.03678V3.10558L4.04869 3.10318L4.05109 1.02478ZM4.05109 3.64798H11.0735V5.68798L4.05109 5.67838V3.64798ZM11.4719 13.7832L14.5463 14.5032L16.4543 14.9496L11.4719 16.116L10.5287 15.8952L6.48949 14.952L9.31189 14.2896L11.4719 13.7832ZM16.6991 11.4288L13.7375 12.1224L11.4695 12.6528L8.58469 11.976L6.24709 11.4288L11.4719 10.2072L16.6991 11.4288ZM11.4719 9.07678L4.90789 7.54078L18.0815 7.53358L11.4719 9.07678ZM21.0911 5.26558H14.2055V3.64798H21.0911V5.26558ZM21.0911 3.10798H14.2055V1.04638L21.0911 1.06558V3.10798ZM23.3135 5.26558H21.7727V1.06558L22.8815 1.07038C23.1191 1.07038 23.3135 1.22158 23.3135 1.41118V5.26558Z" fill="currentColor"/>
<path d="M11.472 16.1161L10.5264 15.8953L11.472 16.1161Z" fill="currentColor"/>
<path d="M16.452 14.952L14.5464 14.5056L16.452 14.952Z" fill="currentColor"/>
<path d="M20.2273 21.6599C20.2801 21.3863 20.2801 21.1175 20.2273 20.8439C20.1721 20.8439 20.1193 20.8439 20.0665 20.8439C20.0425 20.7599 20.0233 20.6831 20.0017 20.6039C20.0497 20.5751 20.0929 20.5487 20.1409 20.5199C20.0497 20.2583 19.9153 20.0255 19.7353 19.8143C19.6849 19.8431 19.6393 19.8695 19.5985 19.8911C19.5385 19.8311 19.4785 19.7735 19.4185 19.7135C19.4425 19.6703 19.4689 19.6223 19.4977 19.5743C19.2865 19.3943 19.0537 19.2575 18.7921 19.1687C18.7633 19.2191 18.7369 19.2623 18.7105 19.3103C18.6289 19.2887 18.5521 19.2671 18.4681 19.2431C18.4681 19.1903 18.4681 19.1351 18.4681 19.0823C18.1945 19.0295 17.9257 19.0295 17.6521 19.0847C17.6521 19.1423 17.6521 19.1951 17.6521 19.2455C17.5681 19.2695 17.4913 19.2887 17.4121 19.3127C17.3833 19.2647 17.3569 19.2191 17.3281 19.1711C17.0665 19.2647 16.8313 19.3991 16.6225 19.5791C16.6513 19.6295 16.6777 19.6751 16.6993 19.7135C16.6369 19.7759 16.5793 19.8335 16.5193 19.8935C16.4785 19.8719 16.4329 19.8455 16.3849 19.8167C16.2049 20.0279 16.0681 20.2631 15.9793 20.5247C16.0297 20.5559 16.0753 20.5823 16.1209 20.6087C16.0969 20.6927 16.0753 20.7695 16.0537 20.8511C16.0009 20.8511 15.9481 20.8511 15.8929 20.8511C15.8401 21.1247 15.8401 21.3935 15.8929 21.6695C15.9481 21.6695 16.0009 21.6695 16.0537 21.6695C16.0753 21.7535 16.0969 21.8303 16.1185 21.9095C16.0705 21.9383 16.0273 21.9647 15.9769 21.9935C16.0705 22.2551 16.2049 22.4879 16.3849 22.6991C16.4353 22.6703 16.4809 22.6439 16.5193 22.6223C16.5817 22.6823 16.6393 22.7399 16.6993 22.7999C16.6753 22.8431 16.6489 22.8887 16.6201 22.9391C16.8313 23.1191 17.0641 23.2559 17.3257 23.3471C17.3545 23.2967 17.3809 23.2511 17.4097 23.2055C17.4889 23.2271 17.5657 23.2487 17.6521 23.2727C17.6521 23.3279 17.6521 23.3807 17.6521 23.4335C17.9257 23.4863 18.1945 23.4863 18.4681 23.4335C18.4681 23.3759 18.4681 23.3231 18.4681 23.2703C18.5521 23.2487 18.6289 23.2271 18.7081 23.2055C18.7369 23.2511 18.7633 23.2991 18.7897 23.3423C18.9817 23.2967 19.4137 23.0423 19.4929 22.9319C19.4665 22.8863 19.4425 22.8407 19.4209 22.8047C19.4833 22.7423 19.5409 22.6823 19.5985 22.6223C19.6393 22.6463 19.6849 22.6727 19.7329 22.6991C19.9129 22.4855 20.0497 22.2527 20.1385 21.9911C20.0881 21.9599 20.0425 21.9335 19.9993 21.9071C20.0209 21.8255 20.0425 21.7463 20.0665 21.6647C20.1193 21.6599 20.1745 21.6599 20.2273 21.6599ZM17.1169 21.2543C17.1169 20.7263 17.5369 20.3087 18.0577 20.3087C18.5761 20.3087 18.9985 20.7263 18.9985 21.2543C18.9985 21.7775 18.5761 22.2023 18.0577 22.2023C17.5369 22.1999 17.1169 21.7751 17.1169 21.2543Z" fill="currentColor"/>
<path d="M7.49998 21.6599C7.55278 21.3863 7.55278 21.1175 7.49998 20.8439C7.44478 20.8439 7.39198 20.8439 7.33918 20.8439C7.31518 20.7599 7.29598 20.6831 7.27438 20.6039C7.32238 20.5751 7.36558 20.5487 7.41358 20.5199C7.32238 20.2583 7.18798 20.0255 7.00798 19.8143C6.95758 19.8431 6.91198 19.8695 6.87118 19.8911C6.81118 19.8311 6.75118 19.7735 6.69118 19.7135C6.71518 19.6703 6.74158 19.6223 6.77038 19.5743C6.55918 19.3943 6.32638 19.2575 6.06478 19.1687C6.03598 19.2191 6.00958 19.2623 5.98318 19.3103C5.90158 19.2887 5.82478 19.2671 5.74078 19.2431C5.74078 19.1903 5.74078 19.1351 5.74078 19.0823C5.46718 19.0295 5.19838 19.0295 4.92478 19.0847C4.92478 19.1423 4.92478 19.1951 4.92478 19.2455C4.84078 19.2695 4.76398 19.2887 4.68478 19.3127C4.65598 19.2647 4.62958 19.2191 4.60078 19.1711C4.33918 19.2647 4.10398 19.3991 3.89518 19.5791C3.92398 19.6295 3.95038 19.6751 3.97198 19.7135C3.90958 19.7759 3.85198 19.8335 3.79198 19.8935C3.75118 19.8719 3.70558 19.8455 3.65758 19.8167C3.47758 20.0279 3.34078 20.2631 3.25198 20.5247C3.30238 20.5559 3.34798 20.5823 3.39358 20.6087C3.36958 20.6927 3.34798 20.7695 3.32638 20.8511C3.27358 20.8511 3.22078 20.8511 3.16558 20.8511C3.11278 21.1247 3.11278 21.3935 3.16558 21.6695C3.22078 21.6695 3.27358 21.6695 3.32638 21.6695C3.34798 21.7535 3.36958 21.8303 3.39118 21.9095C3.34318 21.9383 3.29998 21.9647 3.24958 21.9935C3.34318 22.2551 3.47758 22.4879 3.65758 22.6991C3.70798 22.6703 3.75358 22.6439 3.79198 22.6223C3.85438 22.6823 3.91198 22.7399 3.97198 22.7999C3.94798 22.8431 3.92158 22.8887 3.89278 22.9391C4.10398 23.1191 4.33678 23.2559 4.59838 23.3471C4.62718 23.2967 4.65358 23.2511 4.68238 23.2055C4.76158 23.2271 4.83838 23.2487 4.92478 23.2727C4.92478 23.3279 4.92478 23.3807 4.92478 23.4335C5.19838 23.4863 5.46718 23.4863 5.74078 23.4335C5.74078 23.3759 5.74078 23.3231 5.74078 23.2703C5.82478 23.2487 5.90158 23.2271 5.98078 23.2055C6.00958 23.2511 6.03598 23.2991 6.06238 23.3423C6.25438 23.2967 6.68638 23.0423 6.76558 22.9319C6.73918 22.8863 6.71518 22.8407 6.69358 22.8047C6.75598 22.7423 6.81358 22.6823 6.87118 22.6223C6.91198 22.6463 6.95758 22.6727 7.00558 22.6991C7.18558 22.4855 7.32238 22.2527 7.41118 21.9911C7.36078 21.9599 7.31518 21.9335 7.27198 21.9071C7.29358 21.8255 7.31518 21.7463 7.33918 21.6647C7.39438 21.6599 7.44718 21.6599 7.49998 21.6599ZM4.38958 21.2543C4.38958 20.7263 4.80958 20.3087 5.33038 20.3087C5.84878 20.3087 6.27118 20.7263 6.27118 21.2543C6.27118 21.7775 5.84878 22.2023 5.33038 22.2023C4.81198 22.1999 4.38958 21.7751 4.38958 21.2543Z" fill="currentColor"/>
</g>
<defs>
<clipPath id="clip0_1422_1921">
<rect width="24" height="22.9872" fill="currentColor" transform="translate(0 0.47998)"/>
</clipPath>
</defs>
</svg>
