<svg width="24" height="24" viewBox="0 0 24 24" fill="currentColor" xmlns="http://www.w3.org/2000/svg">
<g clip-path="url(#clip0_1427_1575)">
<path d="M12.4752 16.814C12.5328 17.3396 12.84 17.63 12.84 17.63C12.84 17.63 12.9504 17.5412 13.0272 17.4644C12.4296 16.6172 13.0152 15.7052 13.0152 15.7052L12.792 15.5708C12.612 15.8756 12.5208 16.1492 12.4848 16.3916L12.0696 16.2044L12.0768 16.6388L12.4752 16.814Z" fill="currentColor"/>
<path d="M10.8553 16.0127C10.7065 15.9623 10.5481 15.9287 10.3824 15.9287C9.56165 15.9287 8.89685 16.5935 8.89685 17.4191C8.89685 17.5775 8.92805 17.7263 8.97365 17.8679C9.16565 18.4727 9.72005 18.9119 10.3849 18.9119C11.2057 18.9119 11.8705 18.2423 11.8705 17.4167C11.8681 16.7591 11.4409 16.2095 10.8553 16.0127ZM10.3824 18.1103C10.0033 18.1103 9.69365 17.8007 9.69365 17.4191C9.69365 17.0351 10.0033 16.7279 10.3824 16.7279C10.7616 16.7279 11.0713 17.0375 11.0713 17.4191C11.0713 17.8007 10.7616 18.1103 10.3824 18.1103Z" fill="currentColor"/>
<path d="M3.4584 16.0127C3.3096 15.9623 3.1512 15.9287 2.9856 15.9287C2.1648 15.9287 1.5 16.5935 1.5 17.4191C1.5 17.5775 1.5312 17.7263 1.5768 17.8679C1.7688 18.4727 2.3232 18.9119 2.988 18.9119C3.8088 18.9119 4.4736 18.2423 4.4736 17.4167C4.4712 16.7591 4.0464 16.2095 3.4584 16.0127ZM2.9856 18.1103C2.6064 18.1103 2.2968 17.8007 2.2968 17.4191C2.2968 17.0351 2.6064 16.7279 2.9856 16.7279C3.3648 16.7279 3.6744 17.0375 3.6744 17.4191C3.6744 17.8007 3.3648 18.1103 2.9856 18.1103Z" fill="currentColor"/>
<path d="M9.86169 11.3539L9.95769 11.5579L10.1137 11.4667L9.96009 11.2891L9.86169 11.3539Z" fill="currentColor"/>
<path d="M10.0633 11.0756C10.0465 11.0492 10.0105 11.042 9.98406 11.0588L9.60726 11.306C9.58086 11.3228 9.57366 11.3588 9.59046 11.3852C9.60246 11.402 9.61926 11.4116 9.63846 11.4116C9.65046 11.4116 9.66006 11.4092 9.66966 11.402L10.0465 11.1548C10.0753 11.138 10.0825 11.102 10.0633 11.0756Z" fill="currentColor"/>
<path d="M3.55914 15.8014C3.53754 15.7942 3.51354 15.787 3.49194 15.7822H9.83754C9.16315 15.991 8.66634 16.6054 8.63514 17.3422H4.71834C4.68714 16.639 4.22874 16.027 3.55914 15.8014Z" fill="currentColor"/>
<path d="M1.11841 15.7822V17.3422H1.29121C1.32481 16.6078 1.81921 15.991 2.49361 15.7822H1.11841Z" fill="currentColor"/>
<path d="M10.8792 15.8014C10.8576 15.7942 10.8336 15.787 10.812 15.7822H11.7144V16.4134C11.5128 16.135 11.2248 15.9166 10.8792 15.8014Z" fill="currentColor"/>
<path d="M4.31764 11.162H2.80804C2.80804 11.1236 2.80324 10.9124 2.80324 10.8476C2.80324 10.7828 2.76484 10.6676 2.67124 10.5956C2.57764 10.5236 2.38084 10.5068 2.38084 10.5068L2.38564 10.8548C2.43844 10.8548 2.48164 10.8812 2.48164 10.9436C2.48164 10.994 2.48164 11.1284 2.47924 11.162H1.82644C1.63924 11.162 1.48804 11.3132 1.48804 11.5004V11.8628H4.65604V11.5004C4.65604 11.3132 4.50484 11.162 4.31764 11.162Z" fill="currentColor"/>
<path d="M0.633654 12.1367H6.05045V14.3999H10.7473V15.0119H4.43525H3.78245H0.180054V12.5879C0.180054 12.3407 0.384054 12.1367 0.633654 12.1367Z" fill="currentColor"/>
<path d="M5.02002 15.606L8.29602 15.606L8.29602 15.1908L5.02002 15.1908L5.02002 15.606Z" fill="currentColor"/>
<path d="M23.8128 12.8229C23.5032 12.7053 22.8552 12.5517 22.6248 12.4989C22.5432 11.3229 22.3968 9.24448 22.308 8.09248L22.9584 10.9773L23.0568 10.9893L23.3904 12.5661L23.6784 12.6405L23.292 10.9437L23.3928 10.8981L22.4808 7.21888L22.1832 6.83248C22.1424 6.45328 22.0992 6.11488 22.008 6.03088C21.8808 5.91328 21.624 5.52448 21.444 5.34448C21.2856 5.18848 21.1128 5.35408 21.0336 5.44768C20.604 5.38768 20.5848 5.69008 20.5848 5.69008L18.0384 6.77248L18.0024 6.70528L13.7352 8.26768L13.716 8.40688C13.716 8.40688 13.5384 8.45488 13.4184 8.50528C13.2984 8.55568 13.2648 8.64208 13.0776 8.72848C12.9264 8.80048 12.8376 9.00208 12.8088 9.07888C12.5208 9.24208 12.2136 9.44848 11.9376 9.69808L10.32 10.3629L10.2144 9.85888C10.1832 9.68848 10.0344 9.56608 9.86162 9.56608H6.65042C6.48722 9.56608 6.35522 9.69808 6.35522 9.86128V14.1501H10.74V12.3693L10.6248 11.8173C13.1208 10.8357 19.8624 8.18128 20.3496 8.01088L22.1856 13.5093L22.2024 13.6077L22.068 13.6365L21.9 13.7949L20.4 14.3085L20.352 14.1309L19.6368 14.3037L19.6992 14.5341L18.8736 14.2989L18.3216 14.6565L18.8592 15.0261L19.2888 15.3501L20.616 16.3269C20.616 16.3269 20.9088 16.4949 21.3 16.4661C21.6912 16.4373 22.3704 16.4829 22.6608 16.1397C22.9488 15.7965 23.0832 15.5877 23.0712 15.4005C23.0592 15.2133 22.9584 15.0501 23.0184 14.9205C23.0784 14.7909 23.0424 14.8005 23.2752 14.7381C23.5056 14.6757 23.4792 14.7213 23.4816 14.5869C23.484 14.4525 23.436 14.2749 23.436 14.2749L23.8416 13.1973L23.8728 13.2069C23.8752 13.2069 24.1944 12.9693 23.8128 12.8229ZM8.56562 9.95488C8.75522 9.95488 9.49922 9.95488 9.75842 9.95488C10.0152 9.95488 10.0152 10.1085 10.0632 10.3365C10.092 10.4757 10.1712 10.9557 10.2456 11.5029L10.02 11.6421H8.33042C8.30642 11.0709 8.28002 10.4373 8.28002 10.2885C8.28002 10.0029 8.37602 9.95488 8.56562 9.95488ZM7.87923 11.4693C7.37283 11.4213 7.04882 11.1933 7.04882 11.1933V10.0101H7.88882L7.87923 11.4693ZM8.93763 13.1013C8.50803 13.0533 8.37602 12.6429 8.37602 12.6429C8.37602 12.6429 8.35922 12.2973 8.34242 11.8701H9.82562L10.2216 12.7053C10.0392 12.9021 10.02 13.1949 10.02 13.1949C9.99602 13.1973 9.36722 13.1493 8.93763 13.1013ZM20.58 6.09088L20.3112 7.01008C20.0976 7.01728 19.908 7.03408 19.8912 7.03648C19.6512 7.09168 19.4496 7.28848 19.212 7.35088C19.0296 7.39888 16.1376 8.07328 14.6736 8.41888L18.1872 7.12048L18.156 7.00528L20.5872 5.91568L20.6208 6.02608C20.5968 6.06688 20.58 6.09088 20.58 6.09088ZM23.3136 13.6605L22.8072 13.4733L22.7544 13.4853L22.6848 13.3725C22.6848 13.3725 22.6704 13.1781 22.6488 12.8565L23.4408 13.0797L23.3136 13.6605Z" fill="currentColor"/>
<path d="M0.9096 15.187H0.132C0.06 15.187 0 15.247 0 15.319V15.991C0 16.0654 0.06 16.123 0.132 16.123H0.216V17.8654H0.828V16.123H0.9096C0.984 16.123 1.0416 16.063 1.0416 15.991V15.319C1.044 15.247 0.984 15.187 0.9096 15.187Z" fill="currentColor"/>
</g>
<defs>
<clipPath id="clip0_1427_1575">
<rect width="24" height="13.6344" fill="currentColor" transform="translate(0 5.27979)"/>
</clipPath>
</defs>
</svg>
