<svg width="24" height="24" viewBox="0 0 24 24" fill="currentColor" xmlns="http://www.w3.org/2000/svg">
<g clip-path="url(#clip0_1426_1491)">
<path d="M7.62482 12.3914C7.35122 12.2978 7.06082 12.2378 6.75602 12.2378C5.24642 12.2378 4.02002 13.4642 4.02002 14.9834C4.02002 15.2738 4.07762 15.5498 4.15922 15.8114C4.51202 16.9226 5.53442 17.7362 6.75602 17.7362C8.26562 17.7362 9.48962 16.5026 9.48962 14.9834C9.48962 13.7714 8.70722 12.7562 7.62482 12.3914ZM6.75602 16.2554C6.05762 16.2554 5.48882 15.6866 5.48882 14.9834C5.48882 14.2778 6.05762 13.709 6.75602 13.709C7.45442 13.709 8.02322 14.2778 8.02322 14.9834C8.02322 15.6866 7.45442 16.2554 6.75602 16.2554Z" fill="currentColor"/>
<path d="M5.52478 7.81939C5.52478 7.73539 5.47438 7.58899 5.35438 7.49539C5.23438 7.40179 4.70398 7.17139 4.70398 7.17139L4.99198 7.82659C5.06158 7.82659 5.11438 7.86019 5.11438 7.93939C5.11438 7.99939 5.11198 9.21859 5.11198 9.21859H5.52958C5.53198 9.22099 5.52478 7.89379 5.52478 7.81939Z" fill="currentColor"/>
<path d="M7.13035 8.47682C7.13035 8.36162 7.03675 8.26562 6.91915 8.26562H6.05275C5.93755 8.26562 5.84155 8.35922 5.84155 8.47682V8.61602H6.24235V9.22082H6.72715V8.61602H7.12795V8.47682H7.13035Z" fill="currentColor"/>
<path d="M0 12.8662V14.0998H3.7896C3.9288 13.6318 4.1736 13.2142 4.4976 12.8662H0Z" fill="currentColor"/>
<path d="M7.74005 12.0502C8.05685 12.1558 8.34725 12.3118 8.60645 12.5038H8.88005V9.38379H4.83845C4.77365 9.38379 4.70885 9.39099 4.64645 9.40299L1.77125 10.0102C1.48805 10.0702 1.26245 10.2886 1.19525 10.5694L0.724854 12.5038H4.89845C5.41685 12.1126 6.05765 11.8774 6.75365 11.8774C7.07525 11.8774 7.39925 11.935 7.74005 12.0502Z" fill="currentColor"/>
<path d="M20.4576 15.5928L22.1784 14.412L21.6984 13.7136L20.4816 14.5488C20.3136 13.6272 19.6536 12.888 18.7848 12.5952C18.5304 12.5088 18.2592 12.4512 17.976 12.4512C16.5672 12.4512 15.4248 13.5936 15.4248 15.012C15.4248 15.1824 15.4464 15.3456 15.4824 15.5064L14.28 15.4416L14.2344 16.2864L15.828 16.3728C16.2768 17.0952 17.0688 17.58 17.976 17.58C18.7896 17.58 19.512 17.196 19.9776 16.5984L21.768 16.6944L21.8136 15.8496L20.4096 15.7728C20.4312 15.7152 20.4456 15.6528 20.4576 15.5928ZM16.7952 15.012C16.7952 14.3544 17.3256 13.824 17.976 13.824C18.6264 13.824 19.1568 14.3544 19.1568 15.012C19.1568 15.204 19.1112 15.384 19.0296 15.5448L18.8232 15.6864L16.9416 15.5856C16.8504 15.4152 16.7952 15.2208 16.7952 15.012Z" fill="currentColor"/>
<path d="M22.3296 13.8359H22.9032C23.0016 13.8359 23.0808 13.9151 23.0808 14.0135V14.3207C23.1408 14.3183 23.2992 14.3231 23.2992 14.3231L23.4672 16.3535L24 17.1023L23.7576 17.1743L22.3776 16.7879L22.3296 13.8359Z" fill="currentColor"/>
<path d="M13.1256 10.02L12.5496 6.71278L12.8184 6.47998H9.95762C9.46802 6.47998 9.07202 6.87598 9.07202 7.36558V11.8992H12.7728L13.1112 10.4376C13.1448 10.3008 13.1496 10.1592 13.1256 10.02ZM9.60722 8.98318L9.61682 7.36318C9.61682 7.36318 9.61682 6.96718 10.1736 6.96718L10.1904 8.96878L9.60722 8.98318ZM10.6176 9.09598L10.596 6.95278C10.596 6.95278 10.9368 6.95278 11.16 6.95278C11.892 6.95278 12.3168 7.47598 12.3168 9.65038L10.6176 9.09598Z" fill="currentColor"/>
<path d="M15.48 11.7791V11.2871H15.6C15.6936 11.2871 15.7704 11.2103 15.7704 11.1167V10.6367C15.7704 10.5431 15.6936 10.4663 15.6 10.4663H14.9376C14.844 10.4663 14.7672 10.5431 14.7672 10.6367V11.1167C14.7672 11.2103 14.844 11.2871 14.9376 11.2871H15.0576V11.7791H14.1336C13.6104 11.7791 13.1856 12.2039 13.1856 12.7271V12.8015H12.1704V12.1871H10.236V12.8015H8.94958C9.50398 13.3559 9.83758 14.1143 9.84958 14.9327H10.236V15.7511H12.1704V15.3887H13.9008V14.9495H15.144C15.168 13.9055 15.7392 12.9959 16.584 12.4967V11.7791H15.48Z" fill="currentColor"/>
<path d="M18.0744 12.0938L16.7736 9.97461L16.3416 10.0946L17.3832 11.8802L16.9128 12.3266C17.2632 12.1778 17.6472 12.0938 18.0504 12.0938C18.0576 12.0938 18.0672 12.0938 18.0744 12.0938Z" fill="currentColor"/>
</g>
<defs>
<clipPath id="clip0_1426_1491">
<rect width="24" height="11.256" fill="currentColor" transform="translate(0 6.47998)"/>
</clipPath>
</defs>
</svg>
