<svg width="24" height="24" viewBox="0 0 24 24" fill="currentColor" xmlns="http://www.w3.org/2000/svg">
<g clip-path="url(#clip0_1534_3678)">
<path d="M17.9207 9.6C17.9207 10.0416 17.5631 10.3992 17.1215 10.3992C16.6775 10.3992 16.3199 10.0416 16.3199 9.6C16.3199 9.1584 16.6775 8.8008 17.1191 8.8008C17.5607 8.8008 17.9183 9.1584 17.9207 9.6ZM17.1191 3.912V7.9992C16.8383 7.9992 16.5623 8.0736 16.3199 8.2152V3.7128L17.1191 3.912ZM10.2407 0H13.5983L14.2895 3.108C13.2575 4.416 11.3591 4.6416 10.0511 3.6096C9.86392 3.4632 9.69592 3.2952 9.54952 3.108L10.2407 0ZM11.9207 5.0592C13.0631 5.0664 14.1479 4.5552 14.8703 3.6672L15.5207 3.8712V9.2016H8.32072V3.8688L8.97112 3.6648C9.69112 4.5528 10.7759 5.0664 11.9207 5.0592ZM5.92072 9.6C5.92072 9.1584 6.27832 8.8008 6.71992 8.8008C7.16152 8.8008 7.51912 9.1584 7.51912 9.6C7.51912 10.0416 7.16152 10.3992 6.71992 10.3992C6.27832 10.3992 5.92072 10.0416 5.92072 9.6ZM6.71992 3.912L7.51912 3.7128V8.2152C7.27672 8.0736 7.00072 7.9992 6.71992 7.9992V3.912ZM1.91992 13.6008C1.91992 13.38 2.09992 13.2 2.32072 13.2C2.53432 13.2 2.70952 13.032 2.71912 12.8184L3.05272 5.8872C3.07912 5.652 3.24232 5.4552 3.47032 5.3832L5.92072 4.6176V8.2128C5.15512 8.6544 4.89352 9.6312 5.33512 10.3968C5.38792 10.4904 5.45032 10.5768 5.52232 10.656V13.9992H2.32072C2.09992 13.9992 1.91992 13.8216 1.91992 13.6008ZM2.71912 14.8008H5.51992V14.8128C5.51992 16.5696 5.06152 18.2976 4.19032 19.824L3.97432 20.2032C3.93832 20.2632 3.91912 20.3304 3.91912 20.4V24H2.71912V14.8008ZM6.71992 22.0008H11.5199V24H6.71992V22.0008ZM17.1191 20.4V21.1992H6.71992V20.4H17.1191ZM13.6799 17.8656C13.0967 17.6112 12.7199 17.0352 12.7199 16.3992C12.7175 16.008 12.8615 15.6312 13.1207 15.3408V15.9984C13.1207 16.104 13.1639 16.2072 13.2383 16.2816L14.0375 17.0808C14.1935 17.2368 14.4479 17.2368 14.6039 17.0808L15.4031 16.2816C15.4775 16.2072 15.5207 16.104 15.5207 15.9984V15.3408C15.7799 15.6312 15.9215 16.0104 15.9215 16.3992C15.9215 17.0352 15.5447 17.6112 14.9615 17.8656C14.8151 17.9304 14.7215 18.072 14.7215 18.2328V19.5984H13.9199V18.2328C13.9199 18.0744 13.8263 17.9304 13.6799 17.8656ZM17.1191 24H12.3191V22.0008H17.1191V24ZM17.9207 24V19.9992C17.9207 19.7784 17.7407 19.5984 17.5199 19.5984H15.5207V18.4776C16.6679 17.8152 17.0615 16.3488 16.3991 15.1992C16.2359 14.9184 16.0199 14.6736 15.7583 14.4792C15.6887 14.4264 15.6047 14.4 15.5183 14.4H15.1199C14.8991 14.4 14.7191 14.58 14.7191 14.8008V15.8352L14.3183 16.236L13.9199 15.8352V14.8008C13.9199 14.58 13.7399 14.4 13.5191 14.4H13.1207C13.0343 14.4 12.9503 14.4288 12.8807 14.4792C11.8199 15.2736 11.6039 16.7784 12.3983 17.8368C12.5927 18.096 12.8375 18.3144 13.1207 18.4776V19.5984H9.52072V18.7992H10.3199C10.5407 18.7992 10.7207 18.6192 10.7207 18.3984V17.1984C10.7207 16.9944 10.5695 16.824 10.3679 16.8L10.5863 14.8344C10.6775 14.0256 10.0943 13.296 9.28552 13.2072C8.47672 13.116 7.74712 13.6992 7.65832 14.508C7.64632 14.616 7.64632 14.7264 7.65832 14.8344L7.87672 16.8C7.67512 16.824 7.52392 16.9944 7.52392 17.1984V18.3984C7.52392 18.6192 7.70392 18.7992 7.92472 18.7992H8.72392V19.5984H6.32392C6.10312 19.5984 5.92312 19.7784 5.92312 19.9992V24H4.72312V20.5056L4.88632 20.22C5.82712 18.5736 6.32152 16.7088 6.32152 14.8128V11.1504C7.17832 11.3712 8.04952 10.8552 8.27032 10.0008H15.5711C15.7919 10.8552 16.6655 11.3712 17.5199 11.1504V14.8128C17.5199 16.7088 18.0167 18.5736 18.9551 20.22L19.1183 20.5056V24H17.9207ZM8.71672 17.1552L8.45032 14.748C8.40952 14.3784 8.67592 14.0448 9.04792 14.004C9.41752 13.9632 9.75112 14.2296 9.79192 14.6016C9.79672 14.6496 9.79672 14.7 9.79192 14.748L9.52552 17.1552C9.50152 17.3736 9.65992 17.5728 9.87832 17.5968C9.89272 17.5992 9.90712 17.5992 9.92152 17.5992V18H8.32072V17.5992C8.54152 17.5992 8.72152 17.4192 8.72152 17.1984C8.71912 17.1864 8.71912 17.1696 8.71672 17.1552ZM21.1199 24H19.9199V20.4C19.9199 20.3304 19.9007 20.2632 19.8671 20.2008L19.6511 19.8216C18.7799 18.2952 18.3215 16.5672 18.3215 14.8104V14.7984H21.1199V24ZM21.5207 13.9992H18.3191V10.6584C18.9023 9.996 18.8399 8.9856 18.1775 8.4024C18.0983 8.3328 18.0095 8.2704 17.9183 8.2152V4.62L20.3687 5.3856C20.5943 5.4552 20.7599 5.6544 20.7863 5.8896L21.1199 12.8184C21.1319 13.032 21.3071 13.2 21.5207 13.2C21.7415 13.2 21.9215 13.38 21.9215 13.6008C21.9191 13.8216 21.7415 13.9992 21.5207 13.9992Z" fill="currentColor"/>
</g>
<defs>
<clipPath id="clip0_1534_3678">
<rect width="19.9992" height="24" fill="currentColor" transform="translate(1.91992)"/>
</clipPath>
</defs>
</svg>
