<svg width="24" height="24" viewBox="0 0 24 24" fill="currentColor" xmlns="http://www.w3.org/2000/svg">
<path d="M1.52399 16.7257C1.52399 18.0841 2.61839 19.1905 3.97199 19.1905C5.06399 19.1905 5.97839 18.4633 6.29519 17.4673C6.36959 17.2321 6.41999 16.9849 6.41999 16.7257C6.41999 15.3649 5.32319 14.2681 3.97199 14.2681C3.70079 14.2681 3.43919 14.3233 3.19439 14.4073C2.22719 14.7313 1.52399 15.6385 1.52399 16.7257ZM2.83919 16.7257C2.83919 16.0945 3.34799 15.5857 3.97199 15.5857C4.59599 15.5857 5.10479 16.0945 5.10479 16.7257C5.10479 17.3545 4.59599 17.8633 3.97199 17.8633C3.34799 17.8633 2.83919 17.3545 2.83919 16.7257Z" fill="currentColor"/>
<path d="M15.3456 16.7376C15.3456 18.096 16.44 19.2 17.7912 19.2C18.8832 19.2 19.7976 18.4728 20.1144 17.4768C20.1888 17.2416 20.2392 16.9944 20.2392 16.7352C20.2392 15.3744 19.1424 14.2776 17.7912 14.2776C17.52 14.2776 17.2584 14.3328 17.0136 14.4168C16.0464 14.7432 15.3456 15.6504 15.3456 16.7376ZM16.6584 16.7376C16.6584 16.1064 17.1672 15.5976 17.7912 15.5976C18.4152 15.5976 18.924 16.1064 18.924 16.7376C18.924 17.3664 18.4152 17.8752 17.7912 17.8752C17.1672 17.8752 16.6584 17.3664 16.6584 16.7376Z" fill="currentColor"/>
<path d="M6.97644 17.5044L14.4836 17.5044L14.4836 15.2292L6.97644 15.2292L6.97644 17.5044Z" fill="currentColor"/>
<path d="M20.9496 17.0112H23.9064V14.4768H20.5824L20.9496 17.0112Z" fill="currentColor"/>
<path d="M23.8176 7.64405C23.7168 7.64405 23.6352 7.72565 23.6352 7.82645V9.15365L23.2728 9.53765L23.1432 11.3784L23.0616 10.4856L21.0888 4.80005H15.0792V12.7224L14.1336 13.9896H7.2552L6.192 13.1184H1.8264L0 14.9424V17.1984L0.792 17.2296V15.2568L2.1672 13.8816H5.94L6.948 14.7528H14.4816L15.588 13.2624H19.5936L20.304 13.9728H23.376L23.3448 13.644L23.6232 9.69365L23.9952 9.29765V7.82645C24 7.72565 23.9184 7.64405 23.8176 7.64405ZM16.4088 9.29525V5.94725H19.6656V9.29525H16.4088ZM20.2152 9.29525V5.94725H20.628L21.8664 9.79925L20.2152 9.29525Z" fill="currentColor"/>
<path d="M23.22 9.16077C23.3208 9.16077 23.4024 9.07917 23.4024 8.97837V6.77517C23.4024 6.67437 23.3208 6.59277 23.22 6.59277C23.1192 6.59277 23.0376 6.67437 23.0376 6.77517V8.97597C23.0376 9.07677 23.1192 9.16077 23.22 9.16077Z" fill="currentColor"/>
</svg>
