<svg width="24" height="24" viewBox="0 0 24 24" fill="currentColor" xmlns="http://www.w3.org/2000/svg">
<g clip-path="url(#clip0_1433_1275)">
<path d="M16.9296 15.1608V11.8608H16.2312H15.7848H14.4888L3.0288 3.1224L3.024 3.12H1.3248C0.936 3.12 0.6192 3.4368 0.6192 3.82559C0.6192 4.21439 0.936 4.53119 1.3248 4.53119H4.2072V4.48079L13.884 11.8608H4.2072V4.53119H2.3688V11.8584H1.3056C0.5856 11.8608 0 12.4464 0 13.1664C0 13.8864 0.5856 14.472 1.3056 14.472H15.7824V15.1608H14.844C14.496 15.1608 14.2128 15.444 14.2128 15.792V20.376C14.2128 20.724 14.496 21.0072 14.844 21.0072H24V15.1608H16.9296ZM1.3584 4.05839C1.2312 4.05839 1.1256 3.95519 1.1256 3.82559C1.1256 3.6984 1.2288 3.5928 1.3584 3.5928C1.4856 3.5928 1.5912 3.696 1.5912 3.82559C1.5912 3.95519 1.488 4.05839 1.3584 4.05839ZM2.6928 14.0616V12.456H3.84V14.0616H2.6928Z" fill="currentColor"/>
</g>
<defs>
<clipPath id="clip0_1433_1275">
<rect width="24" height="17.8872" fill="currentColor" transform="translate(0 3.12)"/>
</clipPath>
</defs>
</svg>
