<svg width="24" height="24" viewBox="0 0 24 24" fill="currentColor" xmlns="http://www.w3.org/2000/svg">
<g clip-path="url(#clip0_1437_2629)">
<path d="M5.65449 16.5386C4.09689 16.5386 2.79849 17.6666 2.52249 19.1498C2.48889 19.3394 2.46729 19.5362 2.46729 19.7354C2.46729 21.5042 3.90009 22.9442 5.65449 22.9442C7.41369 22.9442 8.84169 21.5042 8.84169 19.7354C8.84169 19.169 8.69289 18.6386 8.43609 18.1778C7.88889 17.1986 6.84969 16.5386 5.65449 16.5386ZM5.65449 21.137C4.88889 21.137 4.26009 20.5106 4.26009 19.733C4.26009 19.5218 4.30809 19.3274 4.38969 19.1474C4.61049 18.6674 5.09289 18.3314 5.65209 18.3314C5.82729 18.3314 5.99529 18.3674 6.15129 18.425C6.67209 18.6266 7.04889 19.1306 7.04889 19.7306C7.05129 20.5106 6.42489 21.137 5.65449 21.137Z" fill="currentColor"/>
<path d="M23.7648 19.5625C23.604 19.2745 23.3664 19.0321 23.0808 18.8665L23.3496 18.2593H22.3008L22.2504 18.6169C22.2192 18.6145 22.1856 18.6145 22.152 18.6145C21.2496 18.6145 20.496 19.2673 20.3376 20.1265C20.3184 20.2369 20.304 20.3497 20.304 20.4649C20.304 21.4897 21.1344 22.3225 22.152 22.3225C23.1696 22.3225 24 21.4897 24 20.4649C24 20.1385 23.9136 19.8313 23.7648 19.5625ZM22.152 21.2785C21.708 21.2785 21.3456 20.9161 21.3456 20.4649C21.3456 20.3425 21.372 20.2297 21.42 20.1265C21.5424 19.8625 21.7992 19.6777 22.1016 19.6585L21.9912 20.4241C21.9768 20.5177 22.0368 20.6089 22.128 20.6329C22.2168 20.6569 22.3104 20.6113 22.3464 20.5273L22.6536 19.8337C22.8384 19.9825 22.9584 20.2081 22.9584 20.4673C22.9608 20.9161 22.5984 21.2785 22.152 21.2785Z" fill="currentColor"/>
<path d="M18.9431 21.0312C18.6407 21.0312 18.3887 21.2497 18.3335 21.5401C18.3263 21.5761 18.3215 21.6145 18.3215 21.6529C18.3215 21.9961 18.5999 22.2768 18.9407 22.2768C19.2815 22.2768 19.5599 21.9961 19.5599 21.6529C19.5599 21.5425 19.5311 21.4393 19.4807 21.3505C19.3775 21.1585 19.1759 21.0312 18.9431 21.0312ZM18.9431 21.924C18.7943 21.924 18.6719 21.8016 18.6719 21.6505C18.6719 21.6097 18.6815 21.5712 18.6983 21.5376C18.7415 21.444 18.8351 21.3793 18.9431 21.3793C18.9767 21.3793 19.0103 21.3865 19.0391 21.3985C19.1399 21.4369 19.2143 21.5353 19.2143 21.6529C19.2143 21.8041 19.0919 21.924 18.9431 21.924Z" fill="currentColor"/>
<path d="M7.97989 12.622C7.97989 12.622 10.8623 12.6604 11.1767 12.6604C11.4935 12.6604 11.6399 12.5692 11.7119 12.2956C11.7743 12.0532 11.7143 11.7556 11.2535 11.686C10.9415 11.6404 8.57029 11.3572 8.21509 11.2804C7.85989 11.2012 8.05669 10.8076 8.05669 10.8076C8.05669 10.8076 8.25349 10.018 8.05669 9.38678C7.85989 8.75558 7.42549 8.20358 7.30789 7.72838C7.19029 7.25558 7.30069 6.87158 6.98149 6.87158C6.72949 6.87158 6.71509 7.01558 6.71509 7.05638C6.71509 7.09718 6.71509 11.2012 6.71509 11.2012H7.03189C7.03189 12.6628 7.97989 12.622 7.97989 12.622Z" fill="currentColor"/>
<path d="M18.9433 20.7483C18.9529 20.7483 18.9625 20.7507 18.9721 20.7507V20.3931H9.72485V22.0419H18.1321C18.0745 21.9243 18.0433 21.7923 18.0433 21.6531C18.0433 21.6003 18.0481 21.5475 18.0601 21.4875C18.1369 21.0603 18.5089 20.7483 18.9433 20.7483Z" fill="currentColor"/>
<path d="M23.3736 17.9522V16.7762H21.6984V15.7874H21.1104L20.6088 16.2194C20.3664 16.0106 19.9536 15.6986 19.428 15.6386V14.9642H19.1472V15.905L19.284 15.9098C19.7616 15.9242 20.1504 16.1978 20.3952 16.4042L19.9608 16.7762H14.472L13.7208 14.825L12.4536 14.3546L14.0016 10.0082V8.39063C14.0016 8.23463 13.8768 8.10983 13.7208 8.10983C13.5648 8.10983 13.44 8.23463 13.44 8.39063V9.91223L11.9256 14.1602L10.0056 13.4474H6.504L5.3472 1.70663C5.316 1.39943 5.0424 1.17383 4.7352 1.20503C4.428 1.23623 4.2024 1.50983 4.2336 1.81703L5.3808 13.445H3.7824L0 14.8514L0.096 18.4562C0.108 18.9314 0.4968 19.3106 0.972 19.3106H2.1432C2.1528 19.2386 2.1624 19.1642 2.1768 19.0874C2.4888 17.4074 3.9504 16.1882 5.6544 16.1882C6.9312 16.1882 8.1144 16.8842 8.7432 18.0074C8.9688 18.4106 9.1128 18.857 9.168 19.3106H9.732V20.0978H18.9936C18.9936 20.0978 19.0992 19.397 19.4592 18.8642C19.8168 18.3314 20.4192 17.9522 21.0288 17.9522C21.6384 17.9522 23.3736 17.9522 23.3736 17.9522Z" fill="currentColor"/>
</g>
<defs>
<clipPath id="clip0_1437_2629">
<rect width="24" height="21.744" fill="currentColor" transform="translate(0 1.2002)"/>
</clipPath>
</defs>
</svg>
