<svg width="24" height="24" viewBox="0 0 24 24" fill="currentColor" xmlns="http://www.w3.org/2000/svg">
<path d="M12 7.60742C9.625 7.60742 7.73242 9.53711 7.73242 11.875C7.73242 14.25 9.625 16.1426 12 16.1426C14.3379 16.1426 16.2676 14.25 16.2676 11.875C16.2676 9.53711 14.3379 7.60742 12 7.60742ZM12 14.6582C10.4785 14.6582 9.2168 13.4336 9.2168 11.875C9.2168 10.3535 10.4414 9.12891 12 9.12891C13.5215 9.12891 14.7461 10.3535 14.7461 11.875C14.7461 13.4336 13.5215 14.6582 12 14.6582ZM17.418 7.45898C17.418 8.01562 16.9727 8.46094 16.416 8.46094C15.8594 8.46094 15.4141 8.01562 15.4141 7.45898C15.4141 6.90234 15.8594 6.45703 16.416 6.45703C16.9727 6.45703 17.418 6.90234 17.418 7.45898ZM20.2383 8.46094C20.1641 7.125 19.8672 5.9375 18.9023 4.97266C17.9375 4.00781 16.75 3.71094 15.4141 3.63672C14.041 3.5625 9.92188 3.5625 8.54883 3.63672C7.21289 3.71094 6.0625 4.00781 5.06055 4.97266C4.0957 5.9375 3.79883 7.125 3.72461 8.46094C3.65039 9.83398 3.65039 13.9531 3.72461 15.3262C3.79883 16.6621 4.0957 17.8125 5.06055 18.8145C6.0625 19.7793 7.21289 20.0762 8.54883 20.1504C9.92188 20.2246 14.041 20.2246 15.4141 20.1504C16.75 20.0762 17.9375 19.7793 18.9023 18.8145C19.8672 17.8125 20.1641 16.6621 20.2383 15.3262C20.3125 13.9531 20.3125 9.83398 20.2383 8.46094ZM18.457 16.7734C18.1973 17.5156 17.6035 18.0723 16.8984 18.3691C15.7852 18.8145 13.1875 18.7031 12 18.7031C10.7754 18.7031 8.17773 18.8145 7.10156 18.3691C6.35938 18.0723 5.80273 17.5156 5.50586 16.7734C5.06055 15.6973 5.17188 13.0996 5.17188 11.875C5.17188 10.6875 5.06055 8.08984 5.50586 6.97656C5.80273 6.27148 6.35938 5.71484 7.10156 5.41797C8.17773 4.97266 10.7754 5.08398 12 5.08398C13.1875 5.08398 15.7852 4.97266 16.8984 5.41797C17.6035 5.67773 18.1602 6.27148 18.457 6.97656C18.9023 8.08984 18.791 10.6875 18.791 11.875C18.791 13.0996 18.9023 15.6973 18.457 16.7734Z" fill="currentColor"/>
</svg>
