<svg width="24" height="24" viewBox="0 0 24 24" fill="currentColor" xmlns="http://www.w3.org/2000/svg">
<path d="M19.125 3.5625H4.83789C4.20703 3.5625 3.6875 4.11914 3.6875 4.78711V19C3.6875 19.668 4.20703 20.1875 4.83789 20.1875H19.125C19.7559 20.1875 20.3125 19.668 20.3125 19V4.78711C20.3125 4.11914 19.7559 3.5625 19.125 3.5625ZM8.69727 17.8125H6.24805V9.9082H8.69727V17.8125ZM7.47266 8.79492C6.65625 8.79492 6.02539 8.16406 6.02539 7.38477C6.02539 6.60547 6.65625 5.9375 7.47266 5.9375C8.25195 5.9375 8.88281 6.60547 8.88281 7.38477C8.88281 8.16406 8.25195 8.79492 7.47266 8.79492ZM17.9375 17.8125H15.4512V13.9531C15.4512 13.0625 15.4512 11.875 14.1895 11.875C12.8906 11.875 12.7051 12.877 12.7051 13.916V17.8125H10.2559V9.9082H12.5938V10.9844H12.6309C12.9648 10.3535 13.7812 9.68555 14.9688 9.68555C17.4551 9.68555 17.9375 11.3555 17.9375 13.4707V17.8125Z" fill="currentColor"/>
</svg>
