<svg width="24" height="24" viewBox="0 0 24 24" fill="currentColor" xmlns="http://www.w3.org/2000/svg">
<path d="M19.5332 8.01562C19.5332 8.20117 19.5332 8.34961 19.5332 8.53516C19.5332 13.6934 15.6367 19.5938 8.47461 19.5938C6.24805 19.5938 4.20703 18.9629 2.5 17.8496C2.79688 17.8867 3.09375 17.9238 3.42773 17.9238C5.24609 17.9238 6.91602 17.293 8.25195 16.2539C6.54492 16.2168 5.09766 15.1035 4.61523 13.5449C4.875 13.582 5.09766 13.6191 5.35742 13.6191C5.69141 13.6191 6.0625 13.5449 6.35938 13.4707C4.57812 13.0996 3.24219 11.541 3.24219 9.64844V9.61133C3.76172 9.9082 4.39258 10.0566 5.02344 10.0938C3.94727 9.38867 3.2793 8.20117 3.2793 6.86523C3.2793 6.12305 3.46484 5.45508 3.79883 4.89844C5.72852 7.23633 8.62305 8.79492 11.8516 8.98047C11.7773 8.68359 11.7402 8.38672 11.7402 8.08984C11.7402 5.9375 13.4844 4.19336 15.6367 4.19336C16.75 4.19336 17.752 4.63867 18.4941 5.41797C19.3477 5.23242 20.2012 4.89844 20.9434 4.45312C20.6465 5.38086 20.0527 6.12305 19.2363 6.60547C20.0156 6.53125 20.7949 6.30859 21.4629 6.01172C20.9434 6.79102 20.2754 7.45898 19.5332 8.01562Z" fill="currentColor"/>
</svg>
