<svg width="24" height="24" viewBox="0 0 24 24" fill="currentColor" xmlns="http://www.w3.org/2000/svg">
<path d="M17.7891 6.01172C16.2676 4.45312 14.1895 3.5625 11.9629 3.5625C7.43555 3.5625 3.72461 7.27344 3.72461 11.8008C3.72461 13.2852 4.13281 14.6953 4.83789 15.9199L3.6875 20.1875L8.0293 19.0742C9.25391 19.7051 10.5898 20.0762 11.9629 20.0762C16.5273 20.0762 20.3125 16.3652 20.3125 11.8379C20.3125 9.61133 19.3477 7.57031 17.7891 6.01172ZM11.9629 18.666C10.7383 18.666 9.55078 18.332 8.47461 17.7012L8.25195 17.5527L5.6543 18.2578L6.35938 15.7344L6.17383 15.4746C5.50586 14.3613 5.13477 13.0996 5.13477 11.8008C5.13477 8.05273 8.21484 4.97266 12 4.97266C13.8184 4.97266 15.5254 5.67773 16.8242 6.97656C18.123 8.27539 18.9023 9.98242 18.9023 11.8379C18.9023 15.5859 15.748 18.666 11.9629 18.666ZM15.748 13.5449C15.5254 13.4336 14.5234 12.9512 14.3379 12.877C14.1523 12.8027 14.0039 12.7656 13.8555 12.9883C13.7441 13.1738 13.3359 13.6562 13.2246 13.8047C13.0762 13.916 12.9648 13.9531 12.7793 13.8418C11.5547 13.248 10.7754 12.7656 9.95898 11.3926C9.73633 11.0215 10.1816 11.0586 10.5527 10.2793C10.627 10.1309 10.5898 10.0195 10.5527 9.9082C10.5156 9.79688 10.0703 8.79492 9.92188 8.38672C9.73633 7.97852 9.58789 8.01562 9.43945 8.01562C9.32812 8.01562 9.17969 8.01562 9.06836 8.01562C8.91992 8.01562 8.69727 8.05273 8.51172 8.27539C8.32617 8.49805 7.80664 8.98047 7.80664 9.98242C7.80664 11.0215 8.51172 11.9863 8.62305 12.1348C8.73438 12.2461 10.0703 14.3242 12.1484 15.2148C13.4473 15.8086 13.9668 15.8457 14.6348 15.7344C15.0059 15.6973 15.8223 15.252 16.0078 14.7695C16.1934 14.2871 16.1934 13.8789 16.1191 13.8047C16.082 13.6934 15.9336 13.6562 15.748 13.5449Z" fill="currentColor"/>
</svg>
