<svg width="24" height="24" viewBox="0 0 24 24" fill="currentColor" xmlns="http://www.w3.org/2000/svg">
<path d="M21.6855 7.01367C21.4629 6.12305 20.7578 5.41797 19.9043 5.19531C18.3086 4.75 12 4.75 12 4.75C12 4.75 5.6543 4.75 4.05859 5.19531C3.20508 5.41797 2.5 6.12305 2.27734 7.01367C1.83203 8.57227 1.83203 11.9121 1.83203 11.9121C1.83203 11.9121 1.83203 15.2148 2.27734 16.8105C2.5 17.7012 3.20508 18.3691 4.05859 18.5918C5.6543 19 12 19 12 19C12 19 18.3086 19 19.9043 18.5918C20.7578 18.3691 21.4629 17.7012 21.6855 16.8105C22.1309 15.2148 22.1309 11.9121 22.1309 11.9121C22.1309 11.9121 22.1309 8.57227 21.6855 7.01367ZM9.92188 14.918V8.90625L15.1914 11.9121L9.92188 14.918Z" fill="currentColor"/>
</svg>
